M48
; DRILL file {KiCad 8.0.3} date 2025-02-02T16:24:26+0100
; FORMAT={-:-/ absolute / inch / decimal}
; #@! TF.CreationDate,2025-02-02T16:24:26+01:00
; #@! TF.GenerationSoftware,Kicad,Pcbnew,8.0.3
; #@! TF.FileFunction,Plated,1,2,PTH
FMAT,2
INCH
; #@! TA.AperFunction,Plated,PTH,ViaDrill
T1C0.0118
; #@! TA.AperFunction,Plated,PTH,ComponentDrill
T2C0.0299
; #@! TA.AperFunction,Plated,PTH,ComponentDrill
T3C0.0315
; #@! TA.AperFunction,Plated,PTH,ComponentDrill
T4C0.0354
; #@! TA.AperFunction,Plated,PTH,ComponentDrill
T5C0.0394
; #@! TA.AperFunction,Plated,PTH,ComponentDrill
T6C0.0429
; #@! TA.AperFunction,Plated,PTH,ComponentDrill
T7C0.0472
; #@! TA.AperFunction,Plated,PTH,ComponentDrill
T8C0.1201
%
G90
G05
T1
X3.4409Y-4.4606
X3.4429Y-4.1201
X3.5217Y-4.2185
X3.524Y-3.5276
X3.5669Y-3.8622
X3.6772Y-4.1693
X3.7008Y-4.2441
X3.7165Y-1.9154
X3.7835Y-4.4567
X3.7835Y-3.2399
X3.784Y-2.182
X3.8209Y-2.398
X3.8209Y-3.1496
X3.8535Y-2.9244
X3.8535Y-3.0572
X3.8563Y-2.2205
X3.897Y-2.478
X3.8976Y-1.9961
X3.9157Y-1.665
X3.9472Y-2.479
X3.9941Y-2.008
X3.9941Y-2.6811
X3.9941Y-2.8228
X4.0039Y-3.9918
X4.0039Y-4.1181
X4.0039Y-4.3189
X4.0059Y-3.0492
X4.0059Y-3.6378
X4.0059Y-3.6831
X4.0433Y-1.9469
X4.0433Y-3.0079
X4.0433Y-4.0607
X4.0709Y-2.498
X4.0709Y-3.1772
X4.082Y-4.0341
X4.085Y-4.5597
X4.0929Y-3.3767
X4.0929Y-3.5273
X4.1161Y-1.6316
X4.1191Y-4.4852
X4.1476Y-3.9331
X4.1499Y-4.5341
X4.1555Y-1.8661
X4.1555Y-3.0394
X4.1693Y-3.0984
X4.1693Y-3.5413
X4.1713Y-3.6043
X4.1713Y-3.9577
X4.1713Y-4.2841
X4.1949Y-1.813
X4.1949Y-2.8524
X4.2382Y-2.2205
X4.2382Y-2.813
X4.2795Y-2.459
X4.2795Y-3.2736
X4.297Y-2.398
X4.298Y-1.912
X4.311Y-2.5748
X4.311Y-3.3543
X4.335Y-3.628
X4.3361Y-4.0844
X4.3484Y-2.6831
X4.3484Y-3.0492
X4.372Y-3.0984
X4.372Y-3.9006
X4.3724Y-4.2339
X4.39Y-1.938
X4.3927Y-3.5709
X4.3937Y-3.3737
X4.4055Y-3.8248
X4.4055Y-4.1837
X4.4291Y-2.43
X4.4291Y-3.1476
X4.4393Y-4.5587
X4.4587Y-2.5354
X4.4724Y-4.3839
X4.4964Y-4.4347
X4.497Y-4.9114
X4.5207Y-4.4854
X4.539Y-1.9966
X4.5394Y-2.4306
X4.5433Y-3.9813
X4.5433Y-4.3334
X4.563Y-4.7028
X4.563Y-5.1043
X4.5634Y-5.0654
X4.567Y-5.1417
X4.5768Y-3.3737
X4.5768Y-4.4337
X4.5771Y-4.5843
X4.5787Y-3.1004
X4.6083Y-2.4606
X4.6093Y-3.9006
X4.6106Y-4.6306
X4.613Y-1.897
X4.6142Y-1.998
X4.6179Y-4.2842
X4.6378Y-2.2205
X4.6398Y-2.8543
X4.6401Y-3.7271
X4.6401Y-4.0844
X4.6736Y-3.4603
X4.6791Y-2.4114
X4.7018Y-3.9341
X4.7185Y-2.4606
X4.7254Y-3.7697
X4.7283Y-2.6122
X4.7283Y-3.0098
X4.7283Y-3.0571
X4.7283Y-3.1043
X4.748Y-3.6033
X4.7558Y-3.4333
X4.7582Y-4.8294
X4.7582Y-5.1211
X4.7946Y-3.1926
X4.8051Y-3.1358
X4.8445Y-4.9104
X4.8517Y-4.0351
X4.8517Y-4.0814
X4.8517Y-4.1847
X4.8812Y-3.5952
X4.8812Y-4.1345
X4.9029Y-3.4692
X4.9626Y-3.2392
X4.9961Y-4.3632
X5.0059Y-2.5354
X5.0069Y-5.0463
X5.0079Y-2.8858
X5.0079Y-4.7854
X5.0246Y-3.9685
X5.0266Y-2.9419
X5.0266Y-3.373
X5.0354Y-2.6398
X5.0531Y-3.2264
X5.0531Y-3.5896
X5.0768Y-2.2224
X5.0768Y-4.8492
X5.1053Y-4.7254
X5.1181Y-1.9331
X5.1181Y-3.1496
X5.1191Y-3.4872
X5.1339Y-3.1004
X5.1358Y-4.9055
X5.1476Y-2.5433
X5.1693Y-3.0492
X5.1693Y-3.4144
X5.185Y-2.128
X5.1939Y-4.4262
X5.1939Y-4.5118
X5.2156Y-5.0266
X5.2165Y-4.3934
X5.248Y-3.1516
X5.248Y-3.3888
X5.252Y-2.2697
X5.252Y-2.9409
X5.252Y-3.0
X5.2726Y-3.998
X5.2741Y-4.9478
X5.2776Y-3.689
X5.2874Y-2.4528
X5.2894Y-2.5748
X5.2894Y-3.0591
X5.2963Y-3.9734
X5.3169Y-4.3238
X5.3209Y-3.7254
X5.3366Y-4.3888
X5.3445Y-3.8258
X5.3691Y-4.6998
X5.3832Y-1.7999
X5.3996Y-3.7717
X5.4006Y-3.252
X5.4006Y-3.3868
X5.4016Y-2.3563
X5.4252Y-2.813
X5.4252Y-2.9094
X5.4311Y-3.2825
X5.435Y-2.6811
X5.4764Y-3.1998
X5.5157Y-1.8937
X5.5276Y-2.6122
X5.5276Y-3.0217
X5.5958Y-4.6847
X5.6038Y-4.4013
X5.6063Y-1.9331
X5.6181Y-1.8563
X5.6214Y-4.7359
X5.6293Y-4.2349
X5.6398Y-2.4528
X5.64Y-4.0787
X5.6565Y-3.3868
X5.6575Y-3.1811
X5.6594Y-3.1004
X5.6614Y-3.0354
X5.6693Y-1.9665
X5.6693Y-2.3091
X5.671Y-3.7942
X5.6868Y-4.9854
X5.6982Y-3.8885
X5.7047Y-2.4114
X5.7136Y-3.3593
X5.7146Y-1.8543
X5.7146Y-2.0374
X5.7146Y-3.3228
X5.7297Y-3.6257
X5.7297Y-3.8649
X5.7382Y-2.7126
X5.7657Y-2.5709
X5.7726Y-3.5906
X5.7736Y-3.2736
X5.7756Y-2.7795
X5.7756Y-2.9567
X5.7776Y-4.8268
X5.7776Y-5.0266
X5.7867Y-4.3836
X5.7907Y-3.8255
X5.7907Y-4.1345
X5.7972Y-1.8268
X5.7972Y-2.128
X5.8159Y-3.3957
X5.8182Y-3.6168
X5.8189Y-3.2303
X5.8189Y-4.0341
X5.8192Y-4.5607
X5.8209Y-2.6752
X5.8209Y-3.1504
X5.8366Y-1.9331
X5.8366Y-2.498
X5.8425Y-3.7972
X5.8425Y-4.1857
X5.8537Y-4.6345
X5.8543Y-4.875
X5.8665Y-4.355
X5.872Y-3.4813
X5.874Y-2.6752
X5.874Y-3.1988
X5.8743Y-3.6644
X5.8744Y-4.0834
X5.8986Y-4.3087
X5.8986Y-4.436
X5.9094Y-2.813
X5.9094Y-3.3425
X5.9344Y-4.5322
X5.935Y-3.0965
X5.9531Y-4.6336
X5.9537Y-4.7441
X5.9587Y-4.0906
X5.9609Y-4.3865
X5.9951Y-4.061
X5.9951Y-4.358
X5.9951Y-4.747
X5.9954Y-4.6847
X6.0039Y-3.0512
X6.0039Y-3.1516
X6.0039Y-3.688
X6.0059Y-2.75
X6.0157Y-2.4941
X6.019Y-4.2841
X6.0197Y-4.0335
X6.0433Y-2.5433
X6.0433Y-3.3957
X6.0476Y-3.9232
X6.0476Y-4.2339
X6.0689Y-1.9311
X6.0728Y-4.313
X6.0771Y-4.5351
X6.0807Y-2.9252
X6.0968Y-4.1837
X6.0974Y-3.9751
X6.0984Y-3.8671
X6.1181Y-2.6063
X6.1312Y-3.3957
X6.1535Y-2.7795
X6.1555Y-3.5276
X6.1555Y-4.0361
X6.1673Y-2.0354
X6.1969Y-3.1014
X6.2146Y-2.5354
X6.2215Y-3.0522
X6.25Y-2.0571
X6.25Y-3.1417
X6.25Y-3.3973
X6.2677Y-1.8543
X6.2894Y-2.6398
X6.2894Y-3.1752
X6.2942Y-4.5101
X6.3189Y-2.1417
X6.3248Y-3.0118
X6.3661Y-2.1831
X6.3799Y-3.0472
X6.4469Y-3.2913
X6.4469Y-3.686
X6.4508Y-2.4114
X6.4508Y-2.9409
X6.4705Y-4.4882
X6.4902Y-2.3563
X6.502Y-4.6256
X6.503Y-3.249
X6.5295Y-2.7972
X6.5295Y-3.1004
X6.5531Y-4.9665
X6.5571Y-2.0906
X6.5886Y-2.4528
X6.5886Y-3.0965
X6.5889Y-3.7251
X6.5889Y-4.0568
X6.624Y-2.1417
X6.624Y-2.9252
X6.624Y-3.0
X6.624Y-3.3701
X6.6342Y-3.5883
X6.6342Y-3.6542
X6.6352Y-3.9721
X6.6535Y-2.7815
X6.6535Y-3.0512
X6.6669Y-2.3449
X6.6713Y-4.8967
X6.6772Y-4.9331
X6.6831Y-2.5354
X6.6831Y-2.9961
X6.6949Y-3.4682
X6.6969Y-4.5276
X6.7165Y-2.3051
X6.7215Y-4.2224
X6.7244Y-2.4961
X6.7244Y-3.0472
X6.75Y-3.6801
X6.813Y-2.7126
X6.815Y-3.248
X6.8287Y-3.4252
X6.8307Y-3.3327
X6.8681Y-2.0906
X6.8839Y-4.689
X6.8858Y-2.3465
X6.898Y-3.5666
X6.898Y-3.917
X6.9301Y-3.186
X6.9665Y-3.0236
X6.9685Y-1.8563
X6.9767Y-3.1857
X6.999Y-5.1152
X7.0059Y-3.0466
X7.0157Y-2.2697
X7.0197Y-2.3248
X7.0217Y-3.7874
X7.0256Y-5.1417
X7.0453Y-4.4035
X7.0482Y-3.5699
X7.0545Y-3.1535
X7.0571Y-5.1506
X7.0669Y-2.0571
X7.0719Y-3.4902
X7.0778Y-3.8071
X7.0906Y-2.1831
X7.0906Y-3.0125
X7.0974Y-4.7638
X7.1063Y-3.0984
X7.1161Y-2.6713
X7.1243Y-4.7894
X7.1417Y-3.6555
X7.1417Y-4.0236
X7.1673Y-3.3996
X7.2179Y-4.5558
X7.2205Y-1.8189
X7.2205Y-1.8661
X7.2657Y-3.7894
X7.313Y-3.6496
X7.313Y-3.9016
X7.3169Y-2.2224
X7.3189Y-2.2756
X7.3484Y-4.3307
X7.3622Y-3.7549
X7.4232Y-4.2106
X7.4724Y-2.2736
X7.5138Y-3.3445
X7.5138Y-4.4921
T2
X4.9411Y-3.5256
X4.9411Y-3.6256
X4.9411Y-3.7256
X4.9411Y-3.8256
X4.9411Y-3.9256
X4.9411Y-4.0256
X4.9411Y-4.1256
X4.9411Y-4.2256
X4.9411Y-4.3256
X4.9411Y-4.4256
X4.9411Y-4.5256
X4.9411Y-4.6256
X4.9411Y-4.7256
X4.9411Y-4.8256
X4.9411Y-4.9256
X4.9411Y-5.0256
X5.5317Y-3.5256
X5.5317Y-3.6256
X5.5317Y-3.7256
X5.5317Y-3.8256
X5.5317Y-3.9256
X5.5317Y-4.0256
X5.5317Y-4.1256
X5.5317Y-4.2256
X5.5317Y-4.3256
X5.5317Y-4.4256
X5.5317Y-4.5256
X5.5317Y-4.6256
X5.5317Y-4.7256
X5.5317Y-4.8256
X5.5317Y-4.9256
X5.5317Y-5.0256
X6.388Y-3.5256
X6.388Y-3.6256
X6.388Y-3.7256
X6.388Y-3.8256
X6.388Y-3.9256
X6.388Y-4.0256
X6.388Y-4.1256
X6.388Y-4.2256
X6.388Y-4.3256
X6.388Y-4.4256
X6.388Y-4.5256
X6.388Y-4.6256
X6.388Y-4.7256
X6.388Y-4.8256
X6.388Y-4.9256
X6.388Y-5.0256
X6.9785Y-3.5256
X6.9785Y-3.6256
X6.9785Y-3.7256
X6.9785Y-3.8256
X6.9785Y-3.9256
X6.9785Y-4.0256
X6.9785Y-4.1256
X6.9785Y-4.2256
X6.9785Y-4.3256
X6.9785Y-4.4256
X6.9785Y-4.5256
X6.9785Y-4.6256
X6.9785Y-4.7256
X6.9785Y-4.8256
X6.9785Y-4.9256
X6.9785Y-5.0256
T3
X3.4429Y-3.4508
X3.5Y-2.7244
X3.5Y-2.8244
X3.5Y-2.9244
X3.5413Y-3.4508
X3.6457Y-2.7244
X3.6457Y-2.8244
X3.6457Y-2.9244
X3.7008Y-4.9978
X3.7008Y-5.0963
X7.4213Y-3.9035
X7.4213Y-4.0035
X7.4213Y-4.1035
T4
X3.6094Y-4.5424
X3.6094Y-4.7393
X3.7185Y-3.9065
X3.7185Y-4.0065
X3.8062Y-4.5424
X3.8062Y-4.7393
X7.435Y-3.5496
X7.435Y-3.6496
T5
X3.509Y-3.2024
X3.5106Y-3.0587
X3.609Y-3.2024
X3.6106Y-3.0587
X3.709Y-3.2024
X3.7106Y-3.0587
T6
X3.4669Y-1.5402
X3.4669Y-1.7402
X3.5669Y-1.5402
X3.5669Y-1.7402
X3.6669Y-1.5402
X3.6669Y-1.7402
X3.7669Y-1.5402
X3.7669Y-1.7402
X3.8669Y-1.5402
X3.8669Y-1.7402
X3.9669Y-1.5402
X3.9669Y-1.7402
X4.0669Y-1.5402
X4.0669Y-1.7402
X4.1669Y-1.5402
X4.1669Y-1.7402
X4.2669Y-1.5402
X4.2669Y-1.7402
X4.3669Y-1.5402
X4.3669Y-1.7402
X4.4669Y-1.5402
X4.4669Y-1.7402
X4.5669Y-1.5402
X4.5669Y-1.7402
X4.6669Y-1.5402
X4.6669Y-1.7402
X4.7669Y-1.5402
X4.7669Y-1.7402
X4.8669Y-1.5402
X4.8669Y-1.7402
X4.9669Y-1.5402
X4.9669Y-1.7402
X5.0669Y-1.5402
X5.0669Y-1.7402
X5.1669Y-1.5402
X5.1669Y-1.7402
X5.2669Y-1.5402
X5.2669Y-1.7402
X5.3669Y-1.5402
X5.3669Y-1.7402
X5.4669Y-1.5402
X5.4669Y-1.7402
X5.5669Y-1.5402
X5.5669Y-1.7402
X5.6669Y-1.5402
X5.6669Y-1.7402
X5.7669Y-1.5402
X5.7669Y-1.7402
X5.8669Y-1.5402
X5.8669Y-1.7402
X5.9669Y-1.5402
X5.9669Y-1.7402
X6.0669Y-1.5402
X6.0669Y-1.7402
X6.1669Y-1.5402
X6.1669Y-1.7402
X6.2669Y-1.5402
X6.2669Y-1.7402
X6.3669Y-1.5402
X6.3669Y-1.7402
X6.4669Y-1.5402
X6.4669Y-1.7402
X6.5669Y-1.5402
X6.5669Y-1.7402
X6.6669Y-1.5402
X6.6669Y-1.7402
X6.7669Y-1.5402
X6.7669Y-1.7402
X6.8669Y-1.5402
X6.8669Y-1.7402
X6.9669Y-1.5402
X6.9669Y-1.7402
X7.0669Y-1.5402
X7.0669Y-1.7402
X7.1669Y-1.5402
X7.1669Y-1.7402
X7.2669Y-1.5402
X7.2669Y-1.7402
X7.3669Y-1.5402
X7.3669Y-1.7402
X7.4669Y-1.5402
X7.4669Y-1.7402
X7.5669Y-1.5402
X7.5669Y-1.7402
X7.6669Y-1.5402
X7.6669Y-1.7402
T7
X7.3212Y-4.978
X7.4196Y-4.978
X7.518Y-4.978
T8
X7.2464Y-4.7024
X7.5929Y-4.7024
M30
