%TF.GenerationSoftware,KiCad,Pcbnew,8.0.3*%
%TF.CreationDate,2025-02-02T16:24:25+01:00*%
%TF.ProjectId,DeMoN-Flash,44654d6f-4e2d-4466-9c61-73682e6b6963,rev?*%
%TF.SameCoordinates,Original*%
%TF.FileFunction,Drillmap*%
%TF.FilePolarity,Positive*%
%FSLAX45Y45*%
G04 Gerber Fmt 4.5, Leading zero omitted, Abs format (unit mm)*
G04 Created by KiCad (PCBNEW 8.0.3) date 2025-02-02 16:24:25*
%MOMM*%
%LPD*%
G01*
G04 APERTURE LIST*
%ADD10C,0.050000*%
%ADD11C,0.200000*%
%ADD12C,0.100000*%
%ADD13C,0.109000*%
%ADD14C,0.120000*%
%ADD15C,0.305000*%
G04 APERTURE END LIST*
D10*
X9390000Y-6190000D02*
G75*
G02*
X9540000Y-6340000I0J-150000D01*
G01*
X8440000Y-3690000D02*
X8440000Y-6190000D01*
X8440000Y-6190000D02*
X9390000Y-6190000D01*
X19840000Y-6490000D02*
X19840000Y-13290000D01*
X19840000Y-3690000D02*
X19840000Y-6190000D01*
X18890000Y-6490000D02*
G75*
G02*
X18740000Y-6340000I0J150000D01*
G01*
X9390000Y-6490000D02*
X8440000Y-6490000D01*
X18890000Y-6190000D02*
X19840000Y-6190000D01*
X9540000Y-6340000D02*
G75*
G02*
X9390000Y-6490000I-150000J0D01*
G01*
X8440000Y-13290000D02*
X19840000Y-13290000D01*
X18740000Y-6340000D02*
G75*
G02*
X18890000Y-6190000I150000J0D01*
G01*
X8440000Y-3690000D02*
X19840000Y-3690000D01*
X8440000Y-6490000D02*
X8440000Y-13290000D01*
X19840000Y-6490000D02*
X18890000Y-6490000D01*
D11*
D12*
X8725000Y-11315000D02*
X8755000Y-11345000D01*
X8755000Y-11315000D02*
X8725000Y-11345000D01*
X8730000Y-10450000D02*
X8760000Y-10480000D01*
X8760000Y-10450000D02*
X8730000Y-10480000D01*
X8930000Y-10700000D02*
X8960000Y-10730000D01*
X8960000Y-10700000D02*
X8930000Y-10730000D01*
X8935840Y-8945000D02*
X8965840Y-8975000D01*
X8965840Y-8945000D02*
X8935840Y-8975000D01*
X9045000Y-9795000D02*
X9075000Y-9825000D01*
X9075000Y-9795000D02*
X9045000Y-9825000D01*
X9325000Y-10575000D02*
X9355000Y-10605000D01*
X9355000Y-10575000D02*
X9325000Y-10605000D01*
X9385000Y-10765000D02*
X9415000Y-10795000D01*
X9415000Y-10765000D02*
X9385000Y-10795000D01*
X9425000Y-4850000D02*
X9455000Y-4880000D01*
X9455000Y-4850000D02*
X9425000Y-4880000D01*
X9595000Y-11305000D02*
X9625000Y-11335000D01*
X9625000Y-11305000D02*
X9595000Y-11335000D01*
X9595160Y-8214220D02*
X9625160Y-8244220D01*
X9625160Y-8214220D02*
X9595160Y-8244220D01*
X9596360Y-5527280D02*
X9626360Y-5557280D01*
X9626360Y-5527280D02*
X9596360Y-5557280D01*
X9690000Y-6075920D02*
X9720000Y-6105920D01*
X9720000Y-6075920D02*
X9690000Y-6105920D01*
X9690000Y-7985000D02*
X9720000Y-8015000D01*
X9720000Y-7985000D02*
X9690000Y-8015000D01*
X9773000Y-7413000D02*
X9803000Y-7443000D01*
X9803000Y-7413000D02*
X9773000Y-7443000D01*
X9773000Y-7750220D02*
X9803000Y-7780220D01*
X9803000Y-7750220D02*
X9773000Y-7780220D01*
X9780000Y-5625000D02*
X9810000Y-5655000D01*
X9810000Y-5625000D02*
X9780000Y-5655000D01*
X9883340Y-6279220D02*
X9913340Y-6309220D01*
X9913340Y-6279220D02*
X9883340Y-6309220D01*
X9885000Y-5055000D02*
X9915000Y-5085000D01*
X9915000Y-5055000D02*
X9885000Y-5085000D01*
X9930840Y-4214220D02*
X9960840Y-4244220D01*
X9960840Y-4214220D02*
X9930840Y-4244220D01*
X10010840Y-6281720D02*
X10040840Y-6311720D01*
X10040840Y-6281720D02*
X10010840Y-6311720D01*
X10130000Y-5085320D02*
X10160000Y-5115320D01*
X10160000Y-5085320D02*
X10130000Y-5115320D01*
X10130000Y-6795000D02*
X10160000Y-6825000D01*
X10160000Y-6795000D02*
X10130000Y-6825000D01*
X10130000Y-7155000D02*
X10160000Y-7185000D01*
X10160000Y-7155000D02*
X10130000Y-7185000D01*
X10155000Y-10124220D02*
X10185000Y-10154220D01*
X10185000Y-10124220D02*
X10155000Y-10154220D01*
X10155000Y-10445000D02*
X10185000Y-10475000D01*
X10185000Y-10445000D02*
X10155000Y-10475000D01*
X10155000Y-10955000D02*
X10185000Y-10985000D01*
X10185000Y-10955000D02*
X10155000Y-10985000D01*
X10160000Y-7730000D02*
X10190000Y-7760000D01*
X10190000Y-7730000D02*
X10160000Y-7760000D01*
X10160000Y-9225000D02*
X10190000Y-9255000D01*
X10190000Y-9225000D02*
X10160000Y-9255000D01*
X10160000Y-9340000D02*
X10190000Y-9370000D01*
X10190000Y-9340000D02*
X10160000Y-9370000D01*
X10255000Y-4930000D02*
X10285000Y-4960000D01*
X10285000Y-4930000D02*
X10255000Y-4960000D01*
X10255000Y-7625000D02*
X10285000Y-7655000D01*
X10285000Y-7625000D02*
X10255000Y-7655000D01*
X10255000Y-10299220D02*
X10285000Y-10329220D01*
X10285000Y-10299220D02*
X10255000Y-10329220D01*
X10325000Y-6330000D02*
X10355000Y-6360000D01*
X10355000Y-6330000D02*
X10325000Y-6360000D01*
X10325000Y-8055000D02*
X10355000Y-8085000D01*
X10355000Y-8055000D02*
X10325000Y-8085000D01*
X10353340Y-10231720D02*
X10383340Y-10261720D01*
X10383340Y-10231720D02*
X10353340Y-10261720D01*
X10360840Y-11566720D02*
X10390840Y-11596720D01*
X10390840Y-11566720D02*
X10360840Y-11596720D01*
X10380840Y-8561720D02*
X10410840Y-8591720D01*
X10410840Y-8561720D02*
X10380840Y-8591720D01*
X10380840Y-8944220D02*
X10410840Y-8974220D01*
X10410840Y-8944220D02*
X10380840Y-8974220D01*
X10440000Y-4129220D02*
X10470000Y-4159220D01*
X10470000Y-4129220D02*
X10440000Y-4159220D01*
X10447530Y-11377530D02*
X10477530Y-11407530D01*
X10477530Y-11377530D02*
X10447530Y-11407530D01*
X10520000Y-9975000D02*
X10550000Y-10005000D01*
X10550000Y-9975000D02*
X10520000Y-10005000D01*
X10525780Y-11501720D02*
X10555780Y-11531720D01*
X10555780Y-11501720D02*
X10525780Y-11531720D01*
X10540000Y-4725000D02*
X10570000Y-4755000D01*
X10570000Y-4725000D02*
X10540000Y-4755000D01*
X10540000Y-7705000D02*
X10570000Y-7735000D01*
X10570000Y-7705000D02*
X10540000Y-7735000D01*
X10575000Y-7855000D02*
X10605000Y-7885000D01*
X10605000Y-7855000D02*
X10575000Y-7885000D01*
X10575000Y-8980000D02*
X10605000Y-9010000D01*
X10605000Y-8980000D02*
X10575000Y-9010000D01*
X10580000Y-9140000D02*
X10610000Y-9170000D01*
X10610000Y-9140000D02*
X10580000Y-9170000D01*
X10580000Y-10037500D02*
X10610000Y-10067500D01*
X10610000Y-10037500D02*
X10580000Y-10067500D01*
X10580000Y-10866720D02*
X10610000Y-10896720D01*
X10610000Y-10866720D02*
X10580000Y-10896720D01*
X10640000Y-4590000D02*
X10670000Y-4620000D01*
X10670000Y-4590000D02*
X10640000Y-4620000D01*
X10640000Y-7230000D02*
X10670000Y-7260000D01*
X10670000Y-7230000D02*
X10640000Y-7260000D01*
X10750000Y-5625000D02*
X10780000Y-5655000D01*
X10780000Y-5625000D02*
X10750000Y-5655000D01*
X10750000Y-7130000D02*
X10780000Y-7160000D01*
X10780000Y-7130000D02*
X10750000Y-7160000D01*
X10855000Y-6230860D02*
X10885000Y-6260860D01*
X10885000Y-6230860D02*
X10855000Y-6260860D01*
X10855000Y-8300000D02*
X10885000Y-8330000D01*
X10885000Y-8300000D02*
X10855000Y-8330000D01*
X10899380Y-6075920D02*
X10929380Y-6105920D01*
X10929380Y-6075920D02*
X10899380Y-6105920D01*
X10901920Y-4841480D02*
X10931920Y-4871480D01*
X10931920Y-4841480D02*
X10901920Y-4871480D01*
X10935000Y-6525000D02*
X10965000Y-6555000D01*
X10965000Y-6525000D02*
X10935000Y-6555000D01*
X10935000Y-8505000D02*
X10965000Y-8535000D01*
X10965000Y-8505000D02*
X10935000Y-8535000D01*
X10995840Y-9200000D02*
X11025840Y-9230000D01*
X11025840Y-9200000D02*
X10995840Y-9230000D01*
X10998620Y-10359500D02*
X11028620Y-10389500D01*
X11028620Y-10359500D02*
X10998620Y-10389500D01*
X11030000Y-6800000D02*
X11060000Y-6830000D01*
X11060000Y-6800000D02*
X11030000Y-6830000D01*
X11030000Y-7730000D02*
X11060000Y-7760000D01*
X11060000Y-7730000D02*
X11030000Y-7760000D01*
X11090000Y-7855000D02*
X11120000Y-7885000D01*
X11120000Y-7855000D02*
X11090000Y-7885000D01*
X11090000Y-9892500D02*
X11120000Y-9922500D01*
X11120000Y-9892500D02*
X11090000Y-9922500D01*
X11090840Y-10739220D02*
X11120840Y-10769220D01*
X11120840Y-10739220D02*
X11090840Y-10769220D01*
X11135600Y-4907520D02*
X11165600Y-4937520D01*
X11165600Y-4907520D02*
X11135600Y-4937520D01*
X11142500Y-9055000D02*
X11172500Y-9085000D01*
X11172500Y-9055000D02*
X11142500Y-9085000D01*
X11145000Y-8554220D02*
X11175000Y-8584220D01*
X11175000Y-8554220D02*
X11145000Y-8584220D01*
X11175000Y-9700000D02*
X11205000Y-9730000D01*
X11205000Y-9700000D02*
X11175000Y-9730000D01*
X11175000Y-10611720D02*
X11205000Y-10641720D01*
X11205000Y-10611720D02*
X11175000Y-10641720D01*
X11235000Y-6157200D02*
X11265000Y-6187200D01*
X11265000Y-6157200D02*
X11235000Y-6187200D01*
X11235000Y-7980000D02*
X11265000Y-8010000D01*
X11265000Y-7980000D02*
X11235000Y-8010000D01*
X11260840Y-11564220D02*
X11290840Y-11594220D01*
X11290840Y-11564220D02*
X11260840Y-11594220D01*
X11310000Y-6425000D02*
X11340000Y-6455000D01*
X11340000Y-6425000D02*
X11310000Y-6455000D01*
X11345000Y-11120060D02*
X11375000Y-11150060D01*
X11375000Y-11120060D02*
X11345000Y-11150060D01*
X11405840Y-11249220D02*
X11435840Y-11279220D01*
X11435840Y-11249220D02*
X11405840Y-11279220D01*
X11407500Y-12460000D02*
X11437500Y-12490000D01*
X11437500Y-12460000D02*
X11407500Y-12490000D01*
X11467610Y-11377896D02*
X11497610Y-11407896D01*
X11497610Y-11377896D02*
X11467610Y-11407896D01*
X11514060Y-5056420D02*
X11544060Y-5086420D01*
X11544060Y-5056420D02*
X11514060Y-5086420D01*
X11515000Y-6158800D02*
X11545000Y-6188800D01*
X11545000Y-6158800D02*
X11515000Y-6188800D01*
X11525000Y-10097500D02*
X11555000Y-10127500D01*
X11555000Y-10097500D02*
X11525000Y-10127500D01*
X11525000Y-10991720D02*
X11555000Y-11021720D01*
X11555000Y-10991720D02*
X11525000Y-11021720D01*
X11575000Y-11930000D02*
X11605000Y-11960000D01*
X11605000Y-11930000D02*
X11575000Y-11960000D01*
X11575000Y-12950000D02*
X11605000Y-12980000D01*
X11605000Y-12950000D02*
X11575000Y-12980000D01*
X11576000Y-12851000D02*
X11606000Y-12881000D01*
X11606000Y-12851000D02*
X11576000Y-12881000D01*
X11585073Y-13044926D02*
X11615073Y-13074926D01*
X11615073Y-13044926D02*
X11585073Y-13074926D01*
X11610000Y-8554220D02*
X11640000Y-8584220D01*
X11640000Y-8554220D02*
X11610000Y-8584220D01*
X11610000Y-11246720D02*
X11640000Y-11276720D01*
X11640000Y-11246720D02*
X11610000Y-11276720D01*
X11610780Y-11629220D02*
X11640780Y-11659220D01*
X11640780Y-11629220D02*
X11610780Y-11659220D01*
X11615000Y-7860000D02*
X11645000Y-7890000D01*
X11645000Y-7860000D02*
X11615000Y-7890000D01*
X11690000Y-6235000D02*
X11720000Y-6265000D01*
X11720000Y-6235000D02*
X11690000Y-6265000D01*
X11692500Y-9892500D02*
X11722500Y-9922500D01*
X11722500Y-9892500D02*
X11692500Y-9922500D01*
X11695840Y-11746720D02*
X11725840Y-11776720D01*
X11725840Y-11746720D02*
X11695840Y-11776720D01*
X11702020Y-4803380D02*
X11732020Y-4833380D01*
X11732020Y-4803380D02*
X11702020Y-4833380D01*
X11705000Y-5059920D02*
X11735000Y-5089920D01*
X11735000Y-5059920D02*
X11705000Y-5089920D01*
X11714525Y-10866749D02*
X11744525Y-10896749D01*
X11744525Y-10866749D02*
X11714525Y-10896749D01*
X11765000Y-5625000D02*
X11795000Y-5655000D01*
X11795000Y-5625000D02*
X11765000Y-5655000D01*
X11770000Y-7235000D02*
X11800000Y-7265000D01*
X11800000Y-7235000D02*
X11770000Y-7265000D01*
X11770840Y-9451720D02*
X11800840Y-9481720D01*
X11800840Y-9451720D02*
X11770840Y-9481720D01*
X11770840Y-10359500D02*
X11800840Y-10389500D01*
X11800840Y-10359500D02*
X11770840Y-10389500D01*
X11855840Y-8774220D02*
X11885840Y-8804220D01*
X11885840Y-8774220D02*
X11855840Y-8804220D01*
X11870000Y-6110000D02*
X11900000Y-6140000D01*
X11900000Y-6110000D02*
X11870000Y-6140000D01*
X11927500Y-9977500D02*
X11957500Y-10007500D01*
X11957500Y-9977500D02*
X11927500Y-10007500D01*
X11970000Y-6235000D02*
X12000000Y-6265000D01*
X12000000Y-6235000D02*
X11970000Y-6265000D01*
X11987500Y-9560000D02*
X12017500Y-9590000D01*
X12017500Y-9560000D02*
X11987500Y-9590000D01*
X11995000Y-6620000D02*
X12025000Y-6650000D01*
X12025000Y-6620000D02*
X11995000Y-6650000D01*
X11995000Y-7630000D02*
X12025000Y-7660000D01*
X12025000Y-7630000D02*
X11995000Y-7660000D01*
X11995000Y-7750000D02*
X12025000Y-7780000D01*
X12025000Y-7750000D02*
X11995000Y-7780000D01*
X11995000Y-7870000D02*
X12025000Y-7900000D01*
X12025000Y-7870000D02*
X11995000Y-7900000D01*
X12045000Y-9137500D02*
X12075000Y-9167500D01*
X12075000Y-9137500D02*
X12045000Y-9167500D01*
X12064663Y-8705544D02*
X12094663Y-8735544D01*
X12094663Y-8705544D02*
X12064663Y-8735544D01*
X12070840Y-12251720D02*
X12100840Y-12281720D01*
X12100840Y-12251720D02*
X12070840Y-12281720D01*
X12070840Y-12992500D02*
X12100840Y-13022500D01*
X12100840Y-12992500D02*
X12070840Y-13022500D01*
X12163340Y-8094220D02*
X12193340Y-8124220D01*
X12193340Y-8094220D02*
X12163340Y-8124220D01*
X12190000Y-7950000D02*
X12220000Y-7980000D01*
X12220000Y-7950000D02*
X12190000Y-7980000D01*
X12290000Y-12457500D02*
X12320000Y-12487500D01*
X12320000Y-12457500D02*
X12290000Y-12487500D01*
X12308340Y-10234220D02*
X12338340Y-10264220D01*
X12338340Y-10234220D02*
X12308340Y-10264220D01*
X12308340Y-10351720D02*
X12338340Y-10381720D01*
X12338340Y-10351720D02*
X12308340Y-10381720D01*
X12308340Y-10614220D02*
X12338340Y-10644220D01*
X12338340Y-10614220D02*
X12308340Y-10644220D01*
X12383340Y-9116720D02*
X12413340Y-9146720D01*
X12413340Y-9116720D02*
X12383340Y-9146720D01*
X12383340Y-10486720D02*
X12413340Y-10516720D01*
X12413340Y-10486720D02*
X12383340Y-10516720D01*
X12438340Y-8796720D02*
X12468340Y-8826720D01*
X12468340Y-8796720D02*
X12438340Y-8826720D01*
X12590000Y-8212500D02*
X12620000Y-8242500D01*
X12620000Y-8212500D02*
X12590000Y-8242500D01*
X12675000Y-11067500D02*
X12705000Y-11097500D01*
X12705000Y-11067500D02*
X12675000Y-11097500D01*
X12700000Y-6425000D02*
X12730000Y-6455000D01*
X12730000Y-6425000D02*
X12700000Y-6455000D01*
X12702500Y-12802500D02*
X12732500Y-12832500D01*
X12732500Y-12802500D02*
X12702500Y-12832500D01*
X12705000Y-7315000D02*
X12735000Y-7345000D01*
X12735000Y-7315000D02*
X12705000Y-7345000D01*
X12705000Y-12140000D02*
X12735000Y-12170000D01*
X12735000Y-12140000D02*
X12705000Y-12170000D01*
X12747500Y-10065000D02*
X12777500Y-10095000D01*
X12777500Y-10065000D02*
X12747500Y-10095000D01*
X12752500Y-7457500D02*
X12782500Y-7487500D01*
X12782500Y-7457500D02*
X12752500Y-7487500D01*
X12752500Y-8552500D02*
X12782500Y-8582500D01*
X12782500Y-8552500D02*
X12752500Y-8582500D01*
X12775000Y-6690000D02*
X12805000Y-6720000D01*
X12805000Y-6690000D02*
X12775000Y-6720000D01*
X12820000Y-8180000D02*
X12850000Y-8210000D01*
X12850000Y-8180000D02*
X12820000Y-8210000D01*
X12820000Y-9102500D02*
X12850000Y-9132500D01*
X12850000Y-9102500D02*
X12820000Y-9132500D01*
X12880000Y-5630000D02*
X12910000Y-5660000D01*
X12910000Y-5630000D02*
X12880000Y-5660000D01*
X12880000Y-12302000D02*
X12910000Y-12332000D01*
X12910000Y-12302000D02*
X12880000Y-12332000D01*
X12952500Y-11987500D02*
X12982500Y-12017500D01*
X12982500Y-11987500D02*
X12952500Y-12017500D01*
X12985000Y-4895000D02*
X13015000Y-4925000D01*
X13015000Y-4895000D02*
X12985000Y-4925000D01*
X12985000Y-7985000D02*
X13015000Y-8015000D01*
X13015000Y-7985000D02*
X12985000Y-8015000D01*
X12987500Y-8842500D02*
X13017500Y-8872500D01*
X13017500Y-8842500D02*
X12987500Y-8872500D01*
X13025000Y-7860000D02*
X13055000Y-7890000D01*
X13055000Y-7860000D02*
X13025000Y-7890000D01*
X13030000Y-12445000D02*
X13060000Y-12475000D01*
X13060000Y-12445000D02*
X13030000Y-12475000D01*
X13060000Y-6445000D02*
X13090000Y-6475000D01*
X13090000Y-6445000D02*
X13060000Y-6475000D01*
X13115000Y-7730000D02*
X13145000Y-7760000D01*
X13145000Y-7730000D02*
X13115000Y-7760000D01*
X13115000Y-8657500D02*
X13145000Y-8687500D01*
X13145000Y-8657500D02*
X13115000Y-8687500D01*
X13155000Y-5390000D02*
X13185000Y-5420000D01*
X13185000Y-5390000D02*
X13155000Y-5420000D01*
X13177500Y-11227500D02*
X13207500Y-11257500D01*
X13207500Y-11227500D02*
X13177500Y-11257500D01*
X13177500Y-11445000D02*
X13207500Y-11475000D01*
X13207500Y-11445000D02*
X13177500Y-11475000D01*
X13232500Y-12752500D02*
X13262500Y-12782500D01*
X13262500Y-12752500D02*
X13232500Y-12782500D01*
X13235000Y-11144220D02*
X13265000Y-11174220D01*
X13265000Y-11144220D02*
X13235000Y-11174220D01*
X13315000Y-7990000D02*
X13345000Y-8020000D01*
X13345000Y-7990000D02*
X13315000Y-8020000D01*
X13315000Y-8592500D02*
X13345000Y-8622500D01*
X13345000Y-8592500D02*
X13315000Y-8622500D01*
X13325000Y-5750000D02*
X13355000Y-5780000D01*
X13355000Y-5750000D02*
X13325000Y-5780000D01*
X13325000Y-7455000D02*
X13355000Y-7485000D01*
X13355000Y-7455000D02*
X13325000Y-7485000D01*
X13325000Y-7605000D02*
X13355000Y-7635000D01*
X13355000Y-7605000D02*
X13325000Y-7635000D01*
X13377500Y-10140000D02*
X13407500Y-10170000D01*
X13407500Y-10140000D02*
X13377500Y-10170000D01*
X13381250Y-12552500D02*
X13411250Y-12582500D01*
X13411250Y-12552500D02*
X13381250Y-12582500D01*
X13390000Y-9355000D02*
X13420000Y-9385000D01*
X13420000Y-9355000D02*
X13390000Y-9385000D01*
X13415000Y-6215000D02*
X13445000Y-6245000D01*
X13445000Y-6215000D02*
X13415000Y-6245000D01*
X13420000Y-6525000D02*
X13450000Y-6555000D01*
X13450000Y-6525000D02*
X13420000Y-6555000D01*
X13420000Y-7755000D02*
X13450000Y-7785000D01*
X13450000Y-7755000D02*
X13420000Y-7785000D01*
X13437500Y-10077500D02*
X13467500Y-10107500D01*
X13467500Y-10077500D02*
X13437500Y-10107500D01*
X13490000Y-10967500D02*
X13520000Y-10997500D01*
X13520000Y-10967500D02*
X13490000Y-10997500D01*
X13500000Y-9447500D02*
X13530000Y-9477500D01*
X13530000Y-9447500D02*
X13500000Y-9477500D01*
X13540000Y-11132500D02*
X13570000Y-11162500D01*
X13570000Y-11132500D02*
X13540000Y-11162500D01*
X13560000Y-9702500D02*
X13590000Y-9732500D01*
X13590000Y-9702500D02*
X13560000Y-9732500D01*
X13622500Y-11922500D02*
X13652500Y-11952500D01*
X13652500Y-11922500D02*
X13622500Y-11952500D01*
X13658340Y-4556720D02*
X13688340Y-4586720D01*
X13688340Y-4556720D02*
X13658340Y-4586720D01*
X13700000Y-9565000D02*
X13730000Y-9595000D01*
X13730000Y-9565000D02*
X13700000Y-9595000D01*
X13702500Y-8245000D02*
X13732500Y-8275000D01*
X13732500Y-8245000D02*
X13702500Y-8275000D01*
X13702500Y-8587500D02*
X13732500Y-8617500D01*
X13732500Y-8587500D02*
X13702500Y-8617500D01*
X13705000Y-5970000D02*
X13735000Y-6000000D01*
X13735000Y-5970000D02*
X13705000Y-6000000D01*
X13765000Y-7130000D02*
X13795000Y-7160000D01*
X13795000Y-7130000D02*
X13765000Y-7160000D01*
X13765000Y-7375000D02*
X13795000Y-7405000D01*
X13795000Y-7375000D02*
X13765000Y-7405000D01*
X13780000Y-8322500D02*
X13810000Y-8352500D01*
X13810000Y-8322500D02*
X13780000Y-8352500D01*
X13790000Y-6795000D02*
X13820000Y-6825000D01*
X13820000Y-6795000D02*
X13790000Y-6825000D01*
X13895000Y-8112500D02*
X13925000Y-8142500D01*
X13925000Y-8112500D02*
X13895000Y-8142500D01*
X13995000Y-4795000D02*
X14025000Y-4825000D01*
X14025000Y-4795000D02*
X13995000Y-4825000D01*
X14025000Y-6620000D02*
X14055000Y-6650000D01*
X14055000Y-6620000D02*
X14025000Y-6650000D01*
X14025000Y-7660000D02*
X14055000Y-7690000D01*
X14055000Y-7660000D02*
X14025000Y-7690000D01*
X14198340Y-11884220D02*
X14228340Y-11914220D01*
X14228340Y-11884220D02*
X14198340Y-11914220D01*
X14218636Y-11164220D02*
X14248636Y-11194220D01*
X14248636Y-11164220D02*
X14218636Y-11194220D01*
X14225000Y-4895000D02*
X14255000Y-4925000D01*
X14255000Y-4895000D02*
X14225000Y-4925000D01*
X14255000Y-4700000D02*
X14285000Y-4730000D01*
X14285000Y-4700000D02*
X14255000Y-4730000D01*
X14263340Y-12014220D02*
X14293340Y-12044220D01*
X14293340Y-12014220D02*
X14263340Y-12044220D01*
X14283340Y-10741720D02*
X14313340Y-10771720D01*
X14313340Y-10741720D02*
X14283340Y-10771720D01*
X14310000Y-6215000D02*
X14340000Y-6245000D01*
X14340000Y-6215000D02*
X14310000Y-6245000D01*
X14310600Y-10345000D02*
X14340600Y-10375000D01*
X14340600Y-10345000D02*
X14310600Y-10375000D01*
X14352500Y-8587500D02*
X14382500Y-8617500D01*
X14382500Y-8587500D02*
X14352500Y-8617500D01*
X14355000Y-8065000D02*
X14385000Y-8095000D01*
X14385000Y-8065000D02*
X14355000Y-8095000D01*
X14360000Y-7860000D02*
X14390000Y-7890000D01*
X14390000Y-7860000D02*
X14360000Y-7890000D01*
X14365000Y-7695000D02*
X14395000Y-7725000D01*
X14395000Y-7695000D02*
X14365000Y-7725000D01*
X14385000Y-4980000D02*
X14415000Y-5010000D01*
X14415000Y-4980000D02*
X14385000Y-5010000D01*
X14385000Y-5850000D02*
X14415000Y-5880000D01*
X14415000Y-5850000D02*
X14385000Y-5880000D01*
X14389340Y-9622220D02*
X14419340Y-9652220D01*
X14419340Y-9622220D02*
X14389340Y-9652220D01*
X14429560Y-12647940D02*
X14459560Y-12677940D01*
X14459560Y-12647940D02*
X14429560Y-12677940D01*
X14458340Y-9861720D02*
X14488340Y-9891720D01*
X14488340Y-9861720D02*
X14458340Y-9891720D01*
X14475000Y-6110000D02*
X14505000Y-6140000D01*
X14505000Y-6110000D02*
X14475000Y-6140000D01*
X14497500Y-8517500D02*
X14527500Y-8547500D01*
X14527500Y-8517500D02*
X14497500Y-8547500D01*
X14500000Y-4695000D02*
X14530000Y-4725000D01*
X14530000Y-4695000D02*
X14500000Y-4725000D01*
X14500000Y-5160000D02*
X14530000Y-5190000D01*
X14530000Y-5160000D02*
X14500000Y-5190000D01*
X14500000Y-8425000D02*
X14530000Y-8455000D01*
X14530000Y-8425000D02*
X14500000Y-8455000D01*
X14538340Y-9194220D02*
X14568340Y-9224220D01*
X14568340Y-9194220D02*
X14538340Y-9224220D01*
X14538340Y-9801720D02*
X14568340Y-9831720D01*
X14568340Y-9801720D02*
X14538340Y-9831720D01*
X14560000Y-6875000D02*
X14590000Y-6905000D01*
X14590000Y-6875000D02*
X14560000Y-6905000D01*
X14630000Y-6515000D02*
X14660000Y-6545000D01*
X14660000Y-6515000D02*
X14630000Y-6545000D01*
X14647500Y-9105000D02*
X14677500Y-9135000D01*
X14677500Y-9105000D02*
X14647500Y-9135000D01*
X14650000Y-8300000D02*
X14680000Y-8330000D01*
X14680000Y-8300000D02*
X14650000Y-8330000D01*
X14655000Y-7045000D02*
X14685000Y-7075000D01*
X14685000Y-7045000D02*
X14655000Y-7075000D01*
X14655000Y-7495000D02*
X14685000Y-7525000D01*
X14685000Y-7495000D02*
X14655000Y-7525000D01*
X14660000Y-12245000D02*
X14690000Y-12275000D01*
X14690000Y-12245000D02*
X14660000Y-12275000D01*
X14660000Y-12752500D02*
X14690000Y-12782500D01*
X14690000Y-12752500D02*
X14660000Y-12782500D01*
X14683340Y-11119220D02*
X14713340Y-11149220D01*
X14713340Y-11119220D02*
X14683340Y-11149220D01*
X14693340Y-9701720D02*
X14723340Y-9731720D01*
X14723340Y-9701720D02*
X14693340Y-9731720D01*
X14693340Y-10486720D02*
X14723340Y-10516720D01*
X14723340Y-10486720D02*
X14693340Y-10516720D01*
X14710000Y-4625000D02*
X14740000Y-4655000D01*
X14740000Y-4625000D02*
X14710000Y-4655000D01*
X14710000Y-5390000D02*
X14740000Y-5420000D01*
X14740000Y-5390000D02*
X14710000Y-5420000D01*
X14757500Y-8610000D02*
X14787500Y-8640000D01*
X14787500Y-8610000D02*
X14757500Y-8640000D01*
X14763340Y-9171720D02*
X14793340Y-9201720D01*
X14793340Y-9171720D02*
X14763340Y-9201720D01*
X14765000Y-8190000D02*
X14795000Y-8220000D01*
X14795000Y-8190000D02*
X14765000Y-8220000D01*
X14765000Y-10231720D02*
X14795000Y-10261720D01*
X14795000Y-10231720D02*
X14765000Y-10261720D01*
X14765840Y-11569220D02*
X14795840Y-11599220D01*
X14795840Y-11569220D02*
X14765840Y-11599220D01*
X14770000Y-6780000D02*
X14800000Y-6810000D01*
X14800000Y-6780000D02*
X14770000Y-6810000D01*
X14770000Y-7987000D02*
X14800000Y-8017000D01*
X14800000Y-7987000D02*
X14770000Y-8017000D01*
X14810000Y-4895000D02*
X14840000Y-4925000D01*
X14840000Y-4895000D02*
X14810000Y-4925000D01*
X14810000Y-6330000D02*
X14840000Y-6360000D01*
X14840000Y-6330000D02*
X14810000Y-6360000D01*
X14825000Y-9630000D02*
X14855000Y-9660000D01*
X14855000Y-9630000D02*
X14825000Y-9660000D01*
X14825000Y-10616720D02*
X14855000Y-10646720D01*
X14855000Y-10616720D02*
X14825000Y-10646720D01*
X14853340Y-11756720D02*
X14883340Y-11786720D01*
X14883340Y-11756720D02*
X14853340Y-11786720D01*
X14855000Y-12367500D02*
X14885000Y-12397500D01*
X14885000Y-12367500D02*
X14855000Y-12397500D01*
X14885840Y-11046720D02*
X14915840Y-11076720D01*
X14915840Y-11046720D02*
X14885840Y-11076720D01*
X14900000Y-8827500D02*
X14930000Y-8857500D01*
X14930000Y-8827500D02*
X14900000Y-8857500D01*
X14905000Y-6780000D02*
X14935000Y-6810000D01*
X14935000Y-6780000D02*
X14905000Y-6810000D01*
X14905000Y-8110000D02*
X14935000Y-8140000D01*
X14935000Y-8110000D02*
X14905000Y-8140000D01*
X14905840Y-9292500D02*
X14935840Y-9322500D01*
X14935840Y-9292500D02*
X14905840Y-9322500D01*
X14905987Y-10356720D02*
X14935987Y-10386720D01*
X14935987Y-10356720D02*
X14905987Y-10386720D01*
X14967500Y-10929220D02*
X14997500Y-10959220D01*
X14997500Y-10929220D02*
X14967500Y-10959220D01*
X14967500Y-11252500D02*
X14997500Y-11282500D01*
X14997500Y-11252500D02*
X14967500Y-11282500D01*
X14995000Y-7130000D02*
X15025000Y-7160000D01*
X15025000Y-7130000D02*
X14995000Y-7160000D01*
X14995000Y-8475000D02*
X15025000Y-8505000D01*
X15025000Y-8475000D02*
X14995000Y-8505000D01*
X15058340Y-11496720D02*
X15088340Y-11526720D01*
X15088340Y-11496720D02*
X15058340Y-11526720D01*
X15060000Y-7850000D02*
X15090000Y-7880000D01*
X15090000Y-7850000D02*
X15060000Y-7880000D01*
X15105840Y-11754220D02*
X15135840Y-11784220D01*
X15135840Y-11754220D02*
X15105840Y-11784220D01*
X15107500Y-12035000D02*
X15137500Y-12065000D01*
X15137500Y-12035000D02*
X15107500Y-12065000D01*
X15120000Y-10375000D02*
X15150000Y-10405000D01*
X15150000Y-10375000D02*
X15120000Y-10405000D01*
X15125780Y-11126720D02*
X15155780Y-11156720D01*
X15155780Y-11126720D02*
X15125780Y-11156720D01*
X15212500Y-10300000D02*
X15242500Y-10330000D01*
X15242500Y-10300000D02*
X15212500Y-10330000D01*
X15212500Y-11054220D02*
X15242500Y-11084220D01*
X15242500Y-11054220D02*
X15212500Y-11084220D01*
X15212500Y-12042500D02*
X15242500Y-12072500D01*
X15242500Y-12042500D02*
X15212500Y-12072500D01*
X15213340Y-11884220D02*
X15243340Y-11914220D01*
X15243340Y-11884220D02*
X15213340Y-11914220D01*
X15235000Y-7735000D02*
X15265000Y-7765000D01*
X15265000Y-7735000D02*
X15235000Y-7765000D01*
X15235000Y-7990000D02*
X15265000Y-8020000D01*
X15265000Y-7990000D02*
X15235000Y-8020000D01*
X15235000Y-9352500D02*
X15265000Y-9382500D01*
X15265000Y-9352500D02*
X15235000Y-9382500D01*
X15240000Y-6970000D02*
X15270000Y-7000000D01*
X15270000Y-6970000D02*
X15240000Y-7000000D01*
X15265000Y-6320000D02*
X15295000Y-6350000D01*
X15295000Y-6320000D02*
X15265000Y-6350000D01*
X15273340Y-10866720D02*
X15303340Y-10896720D01*
X15303340Y-10866720D02*
X15273340Y-10896720D01*
X15275000Y-10230000D02*
X15305000Y-10260000D01*
X15305000Y-10230000D02*
X15275000Y-10260000D01*
X15335000Y-6445000D02*
X15365000Y-6475000D01*
X15365000Y-6445000D02*
X15335000Y-6475000D01*
X15335000Y-8610000D02*
X15365000Y-8640000D01*
X15365000Y-8610000D02*
X15335000Y-8640000D01*
X15345840Y-9950000D02*
X15375840Y-9980000D01*
X15375840Y-9950000D02*
X15345840Y-9980000D01*
X15345840Y-10739220D02*
X15375840Y-10769220D01*
X15375840Y-10739220D02*
X15345840Y-10769220D01*
X15400000Y-4890000D02*
X15430000Y-4920000D01*
X15430000Y-4890000D02*
X15400000Y-4920000D01*
X15410000Y-10940000D02*
X15440000Y-10970000D01*
X15440000Y-10940000D02*
X15410000Y-10970000D01*
X15420840Y-11504220D02*
X15450840Y-11534220D01*
X15450840Y-11504220D02*
X15420840Y-11534220D01*
X15430000Y-7415000D02*
X15460000Y-7445000D01*
X15460000Y-7415000D02*
X15430000Y-7445000D01*
X15470840Y-10611720D02*
X15500840Y-10641720D01*
X15500840Y-10611720D02*
X15470840Y-10641720D01*
X15472500Y-10081720D02*
X15502500Y-10111720D01*
X15502500Y-10081720D02*
X15472500Y-10111720D01*
X15475000Y-9807500D02*
X15505000Y-9837500D01*
X15505000Y-9807500D02*
X15475000Y-9837500D01*
X15525000Y-6605000D02*
X15555000Y-6635000D01*
X15555000Y-6605000D02*
X15525000Y-6635000D01*
X15558340Y-8610000D02*
X15588340Y-8640000D01*
X15588340Y-8610000D02*
X15558340Y-8640000D01*
X15615000Y-7045000D02*
X15645000Y-7075000D01*
X15645000Y-7045000D02*
X15615000Y-7075000D01*
X15620000Y-8945000D02*
X15650000Y-8975000D01*
X15650000Y-8945000D02*
X15620000Y-8975000D01*
X15620000Y-10236720D02*
X15650000Y-10266720D01*
X15650000Y-10236720D02*
X15620000Y-10266720D01*
X15650000Y-5155000D02*
X15680000Y-5185000D01*
X15680000Y-5155000D02*
X15650000Y-5185000D01*
X15725000Y-7862500D02*
X15755000Y-7892500D01*
X15755000Y-7862500D02*
X15725000Y-7892500D01*
X15770000Y-6425000D02*
X15800000Y-6455000D01*
X15800000Y-6425000D02*
X15770000Y-6455000D01*
X15787500Y-7737500D02*
X15817500Y-7767500D01*
X15817500Y-7737500D02*
X15787500Y-7767500D01*
X15860000Y-5210000D02*
X15890000Y-5240000D01*
X15890000Y-5210000D02*
X15860000Y-5240000D01*
X15860000Y-7965000D02*
X15890000Y-7995000D01*
X15890000Y-7965000D02*
X15860000Y-7995000D01*
X15860000Y-8614220D02*
X15890000Y-8644220D01*
X15890000Y-8614220D02*
X15860000Y-8644220D01*
X15905000Y-4695000D02*
X15935000Y-4725000D01*
X15935000Y-4695000D02*
X15905000Y-4725000D01*
X15960000Y-6690000D02*
X15990000Y-6720000D01*
X15990000Y-6690000D02*
X15960000Y-6720000D01*
X15960000Y-8050000D02*
X15990000Y-8080000D01*
X15990000Y-8050000D02*
X15960000Y-8080000D01*
X15972163Y-11440543D02*
X16002163Y-11470543D01*
X16002163Y-11440543D02*
X15972163Y-11470543D01*
X16035000Y-5425000D02*
X16065000Y-5455000D01*
X16065000Y-5425000D02*
X16035000Y-5455000D01*
X16050000Y-7635000D02*
X16080000Y-7665000D01*
X16080000Y-7635000D02*
X16050000Y-7665000D01*
X16155000Y-5530000D02*
X16185000Y-5560000D01*
X16185000Y-5530000D02*
X16155000Y-5560000D01*
X16190000Y-7725000D02*
X16220000Y-7755000D01*
X16220000Y-7725000D02*
X16190000Y-7755000D01*
X16360000Y-8345000D02*
X16390000Y-8375000D01*
X16390000Y-8345000D02*
X16360000Y-8375000D01*
X16360000Y-9347500D02*
X16390000Y-9377500D01*
X16390000Y-9347500D02*
X16360000Y-9377500D01*
X16370000Y-6110000D02*
X16400000Y-6140000D01*
X16400000Y-6110000D02*
X16370000Y-6140000D01*
X16370000Y-7455000D02*
X16400000Y-7485000D01*
X16400000Y-7455000D02*
X16370000Y-7485000D01*
X16420000Y-11385000D02*
X16450000Y-11415000D01*
X16450000Y-11385000D02*
X16420000Y-11415000D01*
X16470000Y-5970000D02*
X16500000Y-6000000D01*
X16500000Y-5970000D02*
X16470000Y-6000000D01*
X16500000Y-11734000D02*
X16530000Y-11764000D01*
X16530000Y-11734000D02*
X16500000Y-11764000D01*
X16502500Y-8237500D02*
X16532500Y-8267500D01*
X16532500Y-8237500D02*
X16502500Y-8267500D01*
X16570000Y-7090000D02*
X16600000Y-7120000D01*
X16600000Y-7090000D02*
X16570000Y-7120000D01*
X16570000Y-7860000D02*
X16600000Y-7890000D01*
X16600000Y-7860000D02*
X16570000Y-7890000D01*
X16630000Y-12600000D02*
X16660000Y-12630000D01*
X16660000Y-12600000D02*
X16630000Y-12630000D01*
X16640000Y-5295000D02*
X16670000Y-5325000D01*
X16670000Y-5295000D02*
X16640000Y-5325000D01*
X16720000Y-6215000D02*
X16750000Y-6245000D01*
X16750000Y-6215000D02*
X16720000Y-6245000D01*
X16720000Y-7850000D02*
X16750000Y-7880000D01*
X16750000Y-7850000D02*
X16720000Y-7880000D01*
X16720840Y-9446720D02*
X16750840Y-9476720D01*
X16750840Y-9446720D02*
X16720840Y-9476720D01*
X16720840Y-10289220D02*
X16750840Y-10319220D01*
X16750840Y-10289220D02*
X16720840Y-10319220D01*
X16810000Y-5425000D02*
X16840000Y-5455000D01*
X16840000Y-5425000D02*
X16810000Y-5455000D01*
X16810000Y-7415000D02*
X16840000Y-7445000D01*
X16840000Y-7415000D02*
X16810000Y-7445000D01*
X16810000Y-7605000D02*
X16840000Y-7635000D01*
X16840000Y-7605000D02*
X16810000Y-7635000D01*
X16810000Y-8545000D02*
X16840000Y-8575000D01*
X16840000Y-8545000D02*
X16810000Y-8575000D01*
X16835840Y-9099220D02*
X16865840Y-9129220D01*
X16865840Y-9099220D02*
X16835840Y-9129220D01*
X16835840Y-9266720D02*
X16865840Y-9296720D01*
X16865840Y-9266720D02*
X16835840Y-9296720D01*
X16838340Y-10074220D02*
X16868340Y-10104220D01*
X16868340Y-10074220D02*
X16838340Y-10104220D01*
X16885000Y-7050000D02*
X16915000Y-7080000D01*
X16915000Y-7050000D02*
X16885000Y-7080000D01*
X16885000Y-7735000D02*
X16915000Y-7765000D01*
X16915000Y-7735000D02*
X16885000Y-7765000D01*
X16919000Y-5941000D02*
X16949000Y-5971000D01*
X16949000Y-5941000D02*
X16919000Y-5971000D01*
X16930000Y-12422500D02*
X16960000Y-12452500D01*
X16960000Y-12422500D02*
X16930000Y-12452500D01*
X16945000Y-12515000D02*
X16975000Y-12545000D01*
X16975000Y-12515000D02*
X16945000Y-12545000D01*
X16960000Y-6425000D02*
X16990000Y-6455000D01*
X16990000Y-6425000D02*
X16960000Y-6455000D01*
X16960000Y-7595000D02*
X16990000Y-7625000D01*
X16990000Y-7595000D02*
X16960000Y-7625000D01*
X16990000Y-8794220D02*
X17020000Y-8824220D01*
X17020000Y-8794220D02*
X16990000Y-8824220D01*
X16995000Y-11485000D02*
X17025000Y-11515000D01*
X17025000Y-11485000D02*
X16995000Y-11515000D01*
X17045000Y-5840000D02*
X17075000Y-5870000D01*
X17075000Y-5840000D02*
X17045000Y-5870000D01*
X17057500Y-10710000D02*
X17087500Y-10740000D01*
X17087500Y-10710000D02*
X17057500Y-10740000D01*
X17065000Y-6325000D02*
X17095000Y-6355000D01*
X17095000Y-6325000D02*
X17065000Y-6355000D01*
X17065000Y-7725000D02*
X17095000Y-7755000D01*
X17095000Y-7725000D02*
X17065000Y-7755000D01*
X17130000Y-9332500D02*
X17160000Y-9362500D01*
X17160000Y-9332500D02*
X17130000Y-9362500D01*
X17290000Y-6875000D02*
X17320000Y-6905000D01*
X17320000Y-6875000D02*
X17290000Y-6905000D01*
X17295000Y-8235000D02*
X17325000Y-8265000D01*
X17325000Y-8235000D02*
X17295000Y-8265000D01*
X17330000Y-8685000D02*
X17360000Y-8715000D01*
X17360000Y-8685000D02*
X17330000Y-8715000D01*
X17335000Y-8450000D02*
X17365000Y-8480000D01*
X17365000Y-8450000D02*
X17335000Y-8480000D01*
X17430000Y-5295000D02*
X17460000Y-5325000D01*
X17460000Y-5295000D02*
X17430000Y-5325000D01*
X17470000Y-11895000D02*
X17500000Y-11925000D01*
X17500000Y-11895000D02*
X17470000Y-11925000D01*
X17475000Y-5945000D02*
X17505000Y-5975000D01*
X17505000Y-5945000D02*
X17475000Y-5975000D01*
X17505840Y-9044220D02*
X17535840Y-9074220D01*
X17535840Y-9044220D02*
X17505840Y-9074220D01*
X17505840Y-9934220D02*
X17535840Y-9964220D01*
X17535840Y-9934220D02*
X17505840Y-9964220D01*
X17587500Y-8077500D02*
X17617500Y-8107500D01*
X17617500Y-8077500D02*
X17587500Y-8107500D01*
X17680000Y-7665000D02*
X17710000Y-7695000D01*
X17710000Y-7665000D02*
X17680000Y-7695000D01*
X17685000Y-4700000D02*
X17715000Y-4730000D01*
X17715000Y-4700000D02*
X17685000Y-4730000D01*
X17705840Y-8076720D02*
X17735840Y-8106720D01*
X17735840Y-8076720D02*
X17705840Y-8106720D01*
X17762500Y-12977500D02*
X17792500Y-13007500D01*
X17792500Y-12977500D02*
X17762500Y-13007500D01*
X17780000Y-7723380D02*
X17810000Y-7753380D01*
X17810000Y-7723380D02*
X17780000Y-7753380D01*
X17805000Y-5750000D02*
X17835000Y-5780000D01*
X17835000Y-5750000D02*
X17805000Y-5780000D01*
X17815000Y-5890000D02*
X17845000Y-5920000D01*
X17845000Y-5890000D02*
X17815000Y-5920000D01*
X17820000Y-9605000D02*
X17850000Y-9635000D01*
X17850000Y-9605000D02*
X17820000Y-9635000D01*
X17830000Y-13045000D02*
X17860000Y-13075000D01*
X17860000Y-13045000D02*
X17830000Y-13075000D01*
X17880000Y-11170000D02*
X17910000Y-11200000D01*
X17910000Y-11170000D02*
X17880000Y-11200000D01*
X17887500Y-9052500D02*
X17917500Y-9082500D01*
X17917500Y-9052500D02*
X17887500Y-9082500D01*
X17903340Y-7995000D02*
X17933340Y-8025000D01*
X17933340Y-7995000D02*
X17903340Y-8025000D01*
X17910000Y-13067500D02*
X17940000Y-13097500D01*
X17940000Y-13067500D02*
X17910000Y-13097500D01*
X17935000Y-5210000D02*
X17965000Y-5240000D01*
X17965000Y-5210000D02*
X17935000Y-5240000D01*
X17947500Y-8850000D02*
X17977500Y-8880000D01*
X17977500Y-8850000D02*
X17947500Y-8880000D01*
X17962500Y-9655000D02*
X17992500Y-9685000D01*
X17992500Y-9655000D02*
X17962500Y-9685000D01*
X17995000Y-5530000D02*
X18025000Y-5560000D01*
X18025000Y-5530000D02*
X17995000Y-5560000D01*
X17995000Y-7636720D02*
X18025000Y-7666720D01*
X18025000Y-7636720D02*
X17995000Y-7666720D01*
X18012500Y-12085000D02*
X18042500Y-12115000D01*
X18042500Y-12085000D02*
X18012500Y-12115000D01*
X18035000Y-7855000D02*
X18065000Y-7885000D01*
X18065000Y-7855000D02*
X18035000Y-7885000D01*
X18060000Y-6770000D02*
X18090000Y-6800000D01*
X18090000Y-6770000D02*
X18060000Y-6800000D01*
X18080840Y-12150000D02*
X18110840Y-12180000D01*
X18110840Y-12150000D02*
X18080840Y-12180000D01*
X18125000Y-9270000D02*
X18155000Y-9300000D01*
X18155000Y-9270000D02*
X18125000Y-9300000D01*
X18125000Y-10205000D02*
X18155000Y-10235000D01*
X18155000Y-10205000D02*
X18125000Y-10235000D01*
X18190000Y-8620000D02*
X18220000Y-8650000D01*
X18220000Y-8620000D02*
X18190000Y-8650000D01*
X18318340Y-11556720D02*
X18348340Y-11586720D01*
X18348340Y-11556720D02*
X18318340Y-11586720D01*
X18325000Y-4605000D02*
X18355000Y-4635000D01*
X18355000Y-4605000D02*
X18325000Y-4635000D01*
X18325000Y-4725000D02*
X18355000Y-4755000D01*
X18355000Y-4725000D02*
X18325000Y-4755000D01*
X18440000Y-9610000D02*
X18470000Y-9640000D01*
X18470000Y-9610000D02*
X18440000Y-9640000D01*
X18560000Y-9255000D02*
X18590000Y-9285000D01*
X18590000Y-9255000D02*
X18560000Y-9285000D01*
X18560000Y-9895000D02*
X18590000Y-9925000D01*
X18590000Y-9895000D02*
X18560000Y-9925000D01*
X18570000Y-5630000D02*
X18600000Y-5660000D01*
X18600000Y-5630000D02*
X18570000Y-5660000D01*
X18575000Y-5765000D02*
X18605000Y-5795000D01*
X18605000Y-5765000D02*
X18575000Y-5795000D01*
X18650000Y-10985000D02*
X18680000Y-11015000D01*
X18680000Y-10985000D02*
X18650000Y-11015000D01*
X18685000Y-9522500D02*
X18715000Y-9552500D01*
X18715000Y-9522500D02*
X18685000Y-9552500D01*
X18840000Y-10680000D02*
X18870000Y-10710000D01*
X18870000Y-10680000D02*
X18840000Y-10710000D01*
X18965000Y-5760000D02*
X18995000Y-5790000D01*
X18995000Y-5760000D02*
X18965000Y-5790000D01*
X19070000Y-8480000D02*
X19100000Y-8510000D01*
X19100000Y-8480000D02*
X19070000Y-8510000D01*
X19070000Y-11395000D02*
X19100000Y-11425000D01*
X19100000Y-11395000D02*
X19070000Y-11425000D01*
X12588500Y-8955000D02*
G75*
G02*
X12512500Y-8955000I-38000J0D01*
G01*
X12512500Y-8955000D02*
G75*
G02*
X12588500Y-8955000I38000J0D01*
G01*
X12588500Y-9209000D02*
G75*
G02*
X12512500Y-9209000I-38000J0D01*
G01*
X12512500Y-9209000D02*
G75*
G02*
X12588500Y-9209000I38000J0D01*
G01*
X12588500Y-9463000D02*
G75*
G02*
X12512500Y-9463000I-38000J0D01*
G01*
X12512500Y-9463000D02*
G75*
G02*
X12588500Y-9463000I38000J0D01*
G01*
X12588500Y-9717000D02*
G75*
G02*
X12512500Y-9717000I-38000J0D01*
G01*
X12512500Y-9717000D02*
G75*
G02*
X12588500Y-9717000I38000J0D01*
G01*
X12588500Y-9971000D02*
G75*
G02*
X12512500Y-9971000I-38000J0D01*
G01*
X12512500Y-9971000D02*
G75*
G02*
X12588500Y-9971000I38000J0D01*
G01*
X12588500Y-10225000D02*
G75*
G02*
X12512500Y-10225000I-38000J0D01*
G01*
X12512500Y-10225000D02*
G75*
G02*
X12588500Y-10225000I38000J0D01*
G01*
X12588500Y-10479000D02*
G75*
G02*
X12512500Y-10479000I-38000J0D01*
G01*
X12512500Y-10479000D02*
G75*
G02*
X12588500Y-10479000I38000J0D01*
G01*
X12588500Y-10733000D02*
G75*
G02*
X12512500Y-10733000I-38000J0D01*
G01*
X12512500Y-10733000D02*
G75*
G02*
X12588500Y-10733000I38000J0D01*
G01*
X12588500Y-10987000D02*
G75*
G02*
X12512500Y-10987000I-38000J0D01*
G01*
X12512500Y-10987000D02*
G75*
G02*
X12588500Y-10987000I38000J0D01*
G01*
X12588500Y-11241000D02*
G75*
G02*
X12512500Y-11241000I-38000J0D01*
G01*
X12512500Y-11241000D02*
G75*
G02*
X12588500Y-11241000I38000J0D01*
G01*
X12588500Y-11495000D02*
G75*
G02*
X12512500Y-11495000I-38000J0D01*
G01*
X12512500Y-11495000D02*
G75*
G02*
X12588500Y-11495000I38000J0D01*
G01*
X12588500Y-11749000D02*
G75*
G02*
X12512500Y-11749000I-38000J0D01*
G01*
X12512500Y-11749000D02*
G75*
G02*
X12588500Y-11749000I38000J0D01*
G01*
X12588500Y-12003000D02*
G75*
G02*
X12512500Y-12003000I-38000J0D01*
G01*
X12512500Y-12003000D02*
G75*
G02*
X12588500Y-12003000I38000J0D01*
G01*
X12588500Y-12257000D02*
G75*
G02*
X12512500Y-12257000I-38000J0D01*
G01*
X12512500Y-12257000D02*
G75*
G02*
X12588500Y-12257000I38000J0D01*
G01*
X12588500Y-12511000D02*
G75*
G02*
X12512500Y-12511000I-38000J0D01*
G01*
X12512500Y-12511000D02*
G75*
G02*
X12588500Y-12511000I38000J0D01*
G01*
X12588500Y-12765000D02*
G75*
G02*
X12512500Y-12765000I-38000J0D01*
G01*
X12512500Y-12765000D02*
G75*
G02*
X12588500Y-12765000I38000J0D01*
G01*
X14088500Y-8955000D02*
G75*
G02*
X14012500Y-8955000I-38000J0D01*
G01*
X14012500Y-8955000D02*
G75*
G02*
X14088500Y-8955000I38000J0D01*
G01*
X14088500Y-9209000D02*
G75*
G02*
X14012500Y-9209000I-38000J0D01*
G01*
X14012500Y-9209000D02*
G75*
G02*
X14088500Y-9209000I38000J0D01*
G01*
X14088500Y-9463000D02*
G75*
G02*
X14012500Y-9463000I-38000J0D01*
G01*
X14012500Y-9463000D02*
G75*
G02*
X14088500Y-9463000I38000J0D01*
G01*
X14088500Y-9717000D02*
G75*
G02*
X14012500Y-9717000I-38000J0D01*
G01*
X14012500Y-9717000D02*
G75*
G02*
X14088500Y-9717000I38000J0D01*
G01*
X14088500Y-9971000D02*
G75*
G02*
X14012500Y-9971000I-38000J0D01*
G01*
X14012500Y-9971000D02*
G75*
G02*
X14088500Y-9971000I38000J0D01*
G01*
X14088500Y-10225000D02*
G75*
G02*
X14012500Y-10225000I-38000J0D01*
G01*
X14012500Y-10225000D02*
G75*
G02*
X14088500Y-10225000I38000J0D01*
G01*
X14088500Y-10479000D02*
G75*
G02*
X14012500Y-10479000I-38000J0D01*
G01*
X14012500Y-10479000D02*
G75*
G02*
X14088500Y-10479000I38000J0D01*
G01*
X14088500Y-10733000D02*
G75*
G02*
X14012500Y-10733000I-38000J0D01*
G01*
X14012500Y-10733000D02*
G75*
G02*
X14088500Y-10733000I38000J0D01*
G01*
X14088500Y-10987000D02*
G75*
G02*
X14012500Y-10987000I-38000J0D01*
G01*
X14012500Y-10987000D02*
G75*
G02*
X14088500Y-10987000I38000J0D01*
G01*
X14088500Y-11241000D02*
G75*
G02*
X14012500Y-11241000I-38000J0D01*
G01*
X14012500Y-11241000D02*
G75*
G02*
X14088500Y-11241000I38000J0D01*
G01*
X14088500Y-11495000D02*
G75*
G02*
X14012500Y-11495000I-38000J0D01*
G01*
X14012500Y-11495000D02*
G75*
G02*
X14088500Y-11495000I38000J0D01*
G01*
X14088500Y-11749000D02*
G75*
G02*
X14012500Y-11749000I-38000J0D01*
G01*
X14012500Y-11749000D02*
G75*
G02*
X14088500Y-11749000I38000J0D01*
G01*
X14088500Y-12003000D02*
G75*
G02*
X14012500Y-12003000I-38000J0D01*
G01*
X14012500Y-12003000D02*
G75*
G02*
X14088500Y-12003000I38000J0D01*
G01*
X14088500Y-12257000D02*
G75*
G02*
X14012500Y-12257000I-38000J0D01*
G01*
X14012500Y-12257000D02*
G75*
G02*
X14088500Y-12257000I38000J0D01*
G01*
X14088500Y-12511000D02*
G75*
G02*
X14012500Y-12511000I-38000J0D01*
G01*
X14012500Y-12511000D02*
G75*
G02*
X14088500Y-12511000I38000J0D01*
G01*
X14088500Y-12765000D02*
G75*
G02*
X14012500Y-12765000I-38000J0D01*
G01*
X14012500Y-12765000D02*
G75*
G02*
X14088500Y-12765000I38000J0D01*
G01*
X16263500Y-8955000D02*
G75*
G02*
X16187500Y-8955000I-38000J0D01*
G01*
X16187500Y-8955000D02*
G75*
G02*
X16263500Y-8955000I38000J0D01*
G01*
X16263500Y-9209000D02*
G75*
G02*
X16187500Y-9209000I-38000J0D01*
G01*
X16187500Y-9209000D02*
G75*
G02*
X16263500Y-9209000I38000J0D01*
G01*
X16263500Y-9463000D02*
G75*
G02*
X16187500Y-9463000I-38000J0D01*
G01*
X16187500Y-9463000D02*
G75*
G02*
X16263500Y-9463000I38000J0D01*
G01*
X16263500Y-9717000D02*
G75*
G02*
X16187500Y-9717000I-38000J0D01*
G01*
X16187500Y-9717000D02*
G75*
G02*
X16263500Y-9717000I38000J0D01*
G01*
X16263500Y-9971000D02*
G75*
G02*
X16187500Y-9971000I-38000J0D01*
G01*
X16187500Y-9971000D02*
G75*
G02*
X16263500Y-9971000I38000J0D01*
G01*
X16263500Y-10225000D02*
G75*
G02*
X16187500Y-10225000I-38000J0D01*
G01*
X16187500Y-10225000D02*
G75*
G02*
X16263500Y-10225000I38000J0D01*
G01*
X16263500Y-10479000D02*
G75*
G02*
X16187500Y-10479000I-38000J0D01*
G01*
X16187500Y-10479000D02*
G75*
G02*
X16263500Y-10479000I38000J0D01*
G01*
X16263500Y-10733000D02*
G75*
G02*
X16187500Y-10733000I-38000J0D01*
G01*
X16187500Y-10733000D02*
G75*
G02*
X16263500Y-10733000I38000J0D01*
G01*
X16263500Y-10987000D02*
G75*
G02*
X16187500Y-10987000I-38000J0D01*
G01*
X16187500Y-10987000D02*
G75*
G02*
X16263500Y-10987000I38000J0D01*
G01*
X16263500Y-11241000D02*
G75*
G02*
X16187500Y-11241000I-38000J0D01*
G01*
X16187500Y-11241000D02*
G75*
G02*
X16263500Y-11241000I38000J0D01*
G01*
X16263500Y-11495000D02*
G75*
G02*
X16187500Y-11495000I-38000J0D01*
G01*
X16187500Y-11495000D02*
G75*
G02*
X16263500Y-11495000I38000J0D01*
G01*
X16263500Y-11749000D02*
G75*
G02*
X16187500Y-11749000I-38000J0D01*
G01*
X16187500Y-11749000D02*
G75*
G02*
X16263500Y-11749000I38000J0D01*
G01*
X16263500Y-12003000D02*
G75*
G02*
X16187500Y-12003000I-38000J0D01*
G01*
X16187500Y-12003000D02*
G75*
G02*
X16263500Y-12003000I38000J0D01*
G01*
X16263500Y-12257000D02*
G75*
G02*
X16187500Y-12257000I-38000J0D01*
G01*
X16187500Y-12257000D02*
G75*
G02*
X16263500Y-12257000I38000J0D01*
G01*
X16263500Y-12511000D02*
G75*
G02*
X16187500Y-12511000I-38000J0D01*
G01*
X16187500Y-12511000D02*
G75*
G02*
X16263500Y-12511000I38000J0D01*
G01*
X16263500Y-12765000D02*
G75*
G02*
X16187500Y-12765000I-38000J0D01*
G01*
X16187500Y-12765000D02*
G75*
G02*
X16263500Y-12765000I38000J0D01*
G01*
X17763500Y-8955000D02*
G75*
G02*
X17687500Y-8955000I-38000J0D01*
G01*
X17687500Y-8955000D02*
G75*
G02*
X17763500Y-8955000I38000J0D01*
G01*
X17763500Y-9209000D02*
G75*
G02*
X17687500Y-9209000I-38000J0D01*
G01*
X17687500Y-9209000D02*
G75*
G02*
X17763500Y-9209000I38000J0D01*
G01*
X17763500Y-9463000D02*
G75*
G02*
X17687500Y-9463000I-38000J0D01*
G01*
X17687500Y-9463000D02*
G75*
G02*
X17763500Y-9463000I38000J0D01*
G01*
X17763500Y-9717000D02*
G75*
G02*
X17687500Y-9717000I-38000J0D01*
G01*
X17687500Y-9717000D02*
G75*
G02*
X17763500Y-9717000I38000J0D01*
G01*
X17763500Y-9971000D02*
G75*
G02*
X17687500Y-9971000I-38000J0D01*
G01*
X17687500Y-9971000D02*
G75*
G02*
X17763500Y-9971000I38000J0D01*
G01*
X17763500Y-10225000D02*
G75*
G02*
X17687500Y-10225000I-38000J0D01*
G01*
X17687500Y-10225000D02*
G75*
G02*
X17763500Y-10225000I38000J0D01*
G01*
X17763500Y-10479000D02*
G75*
G02*
X17687500Y-10479000I-38000J0D01*
G01*
X17687500Y-10479000D02*
G75*
G02*
X17763500Y-10479000I38000J0D01*
G01*
X17763500Y-10733000D02*
G75*
G02*
X17687500Y-10733000I-38000J0D01*
G01*
X17687500Y-10733000D02*
G75*
G02*
X17763500Y-10733000I38000J0D01*
G01*
X17763500Y-10987000D02*
G75*
G02*
X17687500Y-10987000I-38000J0D01*
G01*
X17687500Y-10987000D02*
G75*
G02*
X17763500Y-10987000I38000J0D01*
G01*
X17763500Y-11241000D02*
G75*
G02*
X17687500Y-11241000I-38000J0D01*
G01*
X17687500Y-11241000D02*
G75*
G02*
X17763500Y-11241000I38000J0D01*
G01*
X17763500Y-11495000D02*
G75*
G02*
X17687500Y-11495000I-38000J0D01*
G01*
X17687500Y-11495000D02*
G75*
G02*
X17763500Y-11495000I38000J0D01*
G01*
X17763500Y-11749000D02*
G75*
G02*
X17687500Y-11749000I-38000J0D01*
G01*
X17687500Y-11749000D02*
G75*
G02*
X17763500Y-11749000I38000J0D01*
G01*
X17763500Y-12003000D02*
G75*
G02*
X17687500Y-12003000I-38000J0D01*
G01*
X17687500Y-12003000D02*
G75*
G02*
X17763500Y-12003000I38000J0D01*
G01*
X17763500Y-12257000D02*
G75*
G02*
X17687500Y-12257000I-38000J0D01*
G01*
X17687500Y-12257000D02*
G75*
G02*
X17763500Y-12257000I38000J0D01*
G01*
X17763500Y-12511000D02*
G75*
G02*
X17687500Y-12511000I-38000J0D01*
G01*
X17687500Y-12511000D02*
G75*
G02*
X17763500Y-12511000I38000J0D01*
G01*
X17763500Y-12765000D02*
G75*
G02*
X17687500Y-12765000I-38000J0D01*
G01*
X17687500Y-12765000D02*
G75*
G02*
X17763500Y-12765000I38000J0D01*
G01*
X8745000Y-8725000D02*
X8745000Y-8805000D01*
X8705000Y-8765000D02*
X8785000Y-8765000D01*
X8890000Y-6880000D02*
X8890000Y-6960000D01*
X8850000Y-6920000D02*
X8930000Y-6920000D01*
X8890000Y-7134000D02*
X8890000Y-7214000D01*
X8850000Y-7174000D02*
X8930000Y-7174000D01*
X8890000Y-7388000D02*
X8890000Y-7468000D01*
X8850000Y-7428000D02*
X8930000Y-7428000D01*
X8995000Y-8725000D02*
X8995000Y-8805000D01*
X8955000Y-8765000D02*
X9035000Y-8765000D01*
X9260000Y-6880000D02*
X9260000Y-6960000D01*
X9220000Y-6920000D02*
X9300000Y-6920000D01*
X9260000Y-7134000D02*
X9260000Y-7214000D01*
X9220000Y-7174000D02*
X9300000Y-7174000D01*
X9260000Y-7388000D02*
X9260000Y-7468000D01*
X9220000Y-7428000D02*
X9300000Y-7428000D01*
X9400000Y-12654489D02*
X9400000Y-12734489D01*
X9360000Y-12694489D02*
X9440000Y-12694489D01*
X9400000Y-12904489D02*
X9400000Y-12984489D01*
X9360000Y-12944489D02*
X9440000Y-12944489D01*
X18850000Y-9875000D02*
X18850000Y-9955000D01*
X18810000Y-9915000D02*
X18890000Y-9915000D01*
X18850000Y-10129000D02*
X18850000Y-10209000D01*
X18810000Y-10169000D02*
X18890000Y-10169000D01*
X18850000Y-10383000D02*
X18850000Y-10463000D01*
X18810000Y-10423000D02*
X18890000Y-10423000D01*
X9199570Y-11569570D02*
X9199570Y-11505930D01*
X9135930Y-11505930D01*
X9135930Y-11569570D01*
X9199570Y-11569570D01*
X9199570Y-12069570D02*
X9199570Y-12005930D01*
X9135930Y-12005930D01*
X9135930Y-12069570D01*
X9199570Y-12069570D01*
X9476820Y-9954320D02*
X9476820Y-9890680D01*
X9413180Y-9890680D01*
X9413180Y-9954320D01*
X9476820Y-9954320D01*
X9476820Y-10208320D02*
X9476820Y-10144680D01*
X9413180Y-10144680D01*
X9413180Y-10208320D01*
X9476820Y-10208320D01*
X9699570Y-11569570D02*
X9699570Y-11505930D01*
X9635930Y-11505930D01*
X9635930Y-11569570D01*
X9699570Y-11569570D01*
X9699570Y-12069570D02*
X9699570Y-12005930D01*
X9635930Y-12005930D01*
X9635930Y-12069570D01*
X9699570Y-12069570D01*
X18916820Y-9047820D02*
X18916820Y-8984180D01*
X18853180Y-8984180D01*
X18853180Y-9047820D01*
X18916820Y-9047820D01*
X18916820Y-9301820D02*
X18916820Y-9238180D01*
X18853180Y-9238180D01*
X18853180Y-9301820D01*
X18916820Y-9301820D01*
X8912840Y-8184220D02*
X8962840Y-8134220D01*
X8912840Y-8084220D01*
X8862840Y-8134220D01*
X8912840Y-8184220D01*
X8916840Y-7819220D02*
X8966840Y-7769220D01*
X8916840Y-7719220D01*
X8866840Y-7769220D01*
X8916840Y-7819220D01*
X9166840Y-8184220D02*
X9216840Y-8134220D01*
X9166840Y-8084220D01*
X9116840Y-8134220D01*
X9166840Y-8184220D01*
X9170840Y-7819220D02*
X9220840Y-7769220D01*
X9170840Y-7719220D01*
X9120840Y-7769220D01*
X9170840Y-7819220D01*
X9420840Y-8184220D02*
X9470840Y-8134220D01*
X9420840Y-8084220D01*
X9370840Y-8134220D01*
X9420840Y-8184220D01*
X9424840Y-7819220D02*
X9474840Y-7769220D01*
X9424840Y-7719220D01*
X9374840Y-7769220D01*
X9424840Y-7819220D01*
D13*
X8751500Y-3857500D02*
X8860500Y-3966500D01*
X8860500Y-3857500D02*
X8751500Y-3966500D01*
X8860500Y-3912000D02*
G75*
G02*
X8751500Y-3912000I-54500J0D01*
G01*
X8751500Y-3912000D02*
G75*
G02*
X8860500Y-3912000I54500J0D01*
G01*
X8751500Y-4365500D02*
X8860500Y-4474500D01*
X8860500Y-4365500D02*
X8751500Y-4474500D01*
X8860500Y-4420000D02*
G75*
G02*
X8751500Y-4420000I-54500J0D01*
G01*
X8751500Y-4420000D02*
G75*
G02*
X8860500Y-4420000I54500J0D01*
G01*
X9005500Y-3857500D02*
X9114500Y-3966500D01*
X9114500Y-3857500D02*
X9005500Y-3966500D01*
X9114500Y-3912000D02*
G75*
G02*
X9005500Y-3912000I-54500J0D01*
G01*
X9005500Y-3912000D02*
G75*
G02*
X9114500Y-3912000I54500J0D01*
G01*
X9005500Y-4365500D02*
X9114500Y-4474500D01*
X9114500Y-4365500D02*
X9005500Y-4474500D01*
X9114500Y-4420000D02*
G75*
G02*
X9005500Y-4420000I-54500J0D01*
G01*
X9005500Y-4420000D02*
G75*
G02*
X9114500Y-4420000I54500J0D01*
G01*
X9259500Y-3857500D02*
X9368500Y-3966500D01*
X9368500Y-3857500D02*
X9259500Y-3966500D01*
X9368500Y-3912000D02*
G75*
G02*
X9259500Y-3912000I-54500J0D01*
G01*
X9259500Y-3912000D02*
G75*
G02*
X9368500Y-3912000I54500J0D01*
G01*
X9259500Y-4365500D02*
X9368500Y-4474500D01*
X9368500Y-4365500D02*
X9259500Y-4474500D01*
X9368500Y-4420000D02*
G75*
G02*
X9259500Y-4420000I-54500J0D01*
G01*
X9259500Y-4420000D02*
G75*
G02*
X9368500Y-4420000I54500J0D01*
G01*
X9513500Y-3857500D02*
X9622500Y-3966500D01*
X9622500Y-3857500D02*
X9513500Y-3966500D01*
X9622500Y-3912000D02*
G75*
G02*
X9513500Y-3912000I-54500J0D01*
G01*
X9513500Y-3912000D02*
G75*
G02*
X9622500Y-3912000I54500J0D01*
G01*
X9513500Y-4365500D02*
X9622500Y-4474500D01*
X9622500Y-4365500D02*
X9513500Y-4474500D01*
X9622500Y-4420000D02*
G75*
G02*
X9513500Y-4420000I-54500J0D01*
G01*
X9513500Y-4420000D02*
G75*
G02*
X9622500Y-4420000I54500J0D01*
G01*
X9767500Y-3857500D02*
X9876500Y-3966500D01*
X9876500Y-3857500D02*
X9767500Y-3966500D01*
X9876500Y-3912000D02*
G75*
G02*
X9767500Y-3912000I-54500J0D01*
G01*
X9767500Y-3912000D02*
G75*
G02*
X9876500Y-3912000I54500J0D01*
G01*
X9767500Y-4365500D02*
X9876500Y-4474500D01*
X9876500Y-4365500D02*
X9767500Y-4474500D01*
X9876500Y-4420000D02*
G75*
G02*
X9767500Y-4420000I-54500J0D01*
G01*
X9767500Y-4420000D02*
G75*
G02*
X9876500Y-4420000I54500J0D01*
G01*
X10021500Y-3857500D02*
X10130500Y-3966500D01*
X10130500Y-3857500D02*
X10021500Y-3966500D01*
X10130500Y-3912000D02*
G75*
G02*
X10021500Y-3912000I-54500J0D01*
G01*
X10021500Y-3912000D02*
G75*
G02*
X10130500Y-3912000I54500J0D01*
G01*
X10021500Y-4365500D02*
X10130500Y-4474500D01*
X10130500Y-4365500D02*
X10021500Y-4474500D01*
X10130500Y-4420000D02*
G75*
G02*
X10021500Y-4420000I-54500J0D01*
G01*
X10021500Y-4420000D02*
G75*
G02*
X10130500Y-4420000I54500J0D01*
G01*
X10275500Y-3857500D02*
X10384500Y-3966500D01*
X10384500Y-3857500D02*
X10275500Y-3966500D01*
X10384500Y-3912000D02*
G75*
G02*
X10275500Y-3912000I-54500J0D01*
G01*
X10275500Y-3912000D02*
G75*
G02*
X10384500Y-3912000I54500J0D01*
G01*
X10275500Y-4365500D02*
X10384500Y-4474500D01*
X10384500Y-4365500D02*
X10275500Y-4474500D01*
X10384500Y-4420000D02*
G75*
G02*
X10275500Y-4420000I-54500J0D01*
G01*
X10275500Y-4420000D02*
G75*
G02*
X10384500Y-4420000I54500J0D01*
G01*
X10529500Y-3857500D02*
X10638500Y-3966500D01*
X10638500Y-3857500D02*
X10529500Y-3966500D01*
X10638500Y-3912000D02*
G75*
G02*
X10529500Y-3912000I-54500J0D01*
G01*
X10529500Y-3912000D02*
G75*
G02*
X10638500Y-3912000I54500J0D01*
G01*
X10529500Y-4365500D02*
X10638500Y-4474500D01*
X10638500Y-4365500D02*
X10529500Y-4474500D01*
X10638500Y-4420000D02*
G75*
G02*
X10529500Y-4420000I-54500J0D01*
G01*
X10529500Y-4420000D02*
G75*
G02*
X10638500Y-4420000I54500J0D01*
G01*
X10783500Y-3857500D02*
X10892500Y-3966500D01*
X10892500Y-3857500D02*
X10783500Y-3966500D01*
X10892500Y-3912000D02*
G75*
G02*
X10783500Y-3912000I-54500J0D01*
G01*
X10783500Y-3912000D02*
G75*
G02*
X10892500Y-3912000I54500J0D01*
G01*
X10783500Y-4365500D02*
X10892500Y-4474500D01*
X10892500Y-4365500D02*
X10783500Y-4474500D01*
X10892500Y-4420000D02*
G75*
G02*
X10783500Y-4420000I-54500J0D01*
G01*
X10783500Y-4420000D02*
G75*
G02*
X10892500Y-4420000I54500J0D01*
G01*
X11037500Y-3857500D02*
X11146500Y-3966500D01*
X11146500Y-3857500D02*
X11037500Y-3966500D01*
X11146500Y-3912000D02*
G75*
G02*
X11037500Y-3912000I-54500J0D01*
G01*
X11037500Y-3912000D02*
G75*
G02*
X11146500Y-3912000I54500J0D01*
G01*
X11037500Y-4365500D02*
X11146500Y-4474500D01*
X11146500Y-4365500D02*
X11037500Y-4474500D01*
X11146500Y-4420000D02*
G75*
G02*
X11037500Y-4420000I-54500J0D01*
G01*
X11037500Y-4420000D02*
G75*
G02*
X11146500Y-4420000I54500J0D01*
G01*
X11291500Y-3857500D02*
X11400500Y-3966500D01*
X11400500Y-3857500D02*
X11291500Y-3966500D01*
X11400500Y-3912000D02*
G75*
G02*
X11291500Y-3912000I-54500J0D01*
G01*
X11291500Y-3912000D02*
G75*
G02*
X11400500Y-3912000I54500J0D01*
G01*
X11291500Y-4365500D02*
X11400500Y-4474500D01*
X11400500Y-4365500D02*
X11291500Y-4474500D01*
X11400500Y-4420000D02*
G75*
G02*
X11291500Y-4420000I-54500J0D01*
G01*
X11291500Y-4420000D02*
G75*
G02*
X11400500Y-4420000I54500J0D01*
G01*
X11545500Y-3857500D02*
X11654500Y-3966500D01*
X11654500Y-3857500D02*
X11545500Y-3966500D01*
X11654500Y-3912000D02*
G75*
G02*
X11545500Y-3912000I-54500J0D01*
G01*
X11545500Y-3912000D02*
G75*
G02*
X11654500Y-3912000I54500J0D01*
G01*
X11545500Y-4365500D02*
X11654500Y-4474500D01*
X11654500Y-4365500D02*
X11545500Y-4474500D01*
X11654500Y-4420000D02*
G75*
G02*
X11545500Y-4420000I-54500J0D01*
G01*
X11545500Y-4420000D02*
G75*
G02*
X11654500Y-4420000I54500J0D01*
G01*
X11799500Y-3857500D02*
X11908500Y-3966500D01*
X11908500Y-3857500D02*
X11799500Y-3966500D01*
X11908500Y-3912000D02*
G75*
G02*
X11799500Y-3912000I-54500J0D01*
G01*
X11799500Y-3912000D02*
G75*
G02*
X11908500Y-3912000I54500J0D01*
G01*
X11799500Y-4365500D02*
X11908500Y-4474500D01*
X11908500Y-4365500D02*
X11799500Y-4474500D01*
X11908500Y-4420000D02*
G75*
G02*
X11799500Y-4420000I-54500J0D01*
G01*
X11799500Y-4420000D02*
G75*
G02*
X11908500Y-4420000I54500J0D01*
G01*
X12053500Y-3857500D02*
X12162500Y-3966500D01*
X12162500Y-3857500D02*
X12053500Y-3966500D01*
X12162500Y-3912000D02*
G75*
G02*
X12053500Y-3912000I-54500J0D01*
G01*
X12053500Y-3912000D02*
G75*
G02*
X12162500Y-3912000I54500J0D01*
G01*
X12053500Y-4365500D02*
X12162500Y-4474500D01*
X12162500Y-4365500D02*
X12053500Y-4474500D01*
X12162500Y-4420000D02*
G75*
G02*
X12053500Y-4420000I-54500J0D01*
G01*
X12053500Y-4420000D02*
G75*
G02*
X12162500Y-4420000I54500J0D01*
G01*
X12307500Y-3857500D02*
X12416500Y-3966500D01*
X12416500Y-3857500D02*
X12307500Y-3966500D01*
X12416500Y-3912000D02*
G75*
G02*
X12307500Y-3912000I-54500J0D01*
G01*
X12307500Y-3912000D02*
G75*
G02*
X12416500Y-3912000I54500J0D01*
G01*
X12307500Y-4365500D02*
X12416500Y-4474500D01*
X12416500Y-4365500D02*
X12307500Y-4474500D01*
X12416500Y-4420000D02*
G75*
G02*
X12307500Y-4420000I-54500J0D01*
G01*
X12307500Y-4420000D02*
G75*
G02*
X12416500Y-4420000I54500J0D01*
G01*
X12561500Y-3857500D02*
X12670500Y-3966500D01*
X12670500Y-3857500D02*
X12561500Y-3966500D01*
X12670500Y-3912000D02*
G75*
G02*
X12561500Y-3912000I-54500J0D01*
G01*
X12561500Y-3912000D02*
G75*
G02*
X12670500Y-3912000I54500J0D01*
G01*
X12561500Y-4365500D02*
X12670500Y-4474500D01*
X12670500Y-4365500D02*
X12561500Y-4474500D01*
X12670500Y-4420000D02*
G75*
G02*
X12561500Y-4420000I-54500J0D01*
G01*
X12561500Y-4420000D02*
G75*
G02*
X12670500Y-4420000I54500J0D01*
G01*
X12815500Y-3857500D02*
X12924500Y-3966500D01*
X12924500Y-3857500D02*
X12815500Y-3966500D01*
X12924500Y-3912000D02*
G75*
G02*
X12815500Y-3912000I-54500J0D01*
G01*
X12815500Y-3912000D02*
G75*
G02*
X12924500Y-3912000I54500J0D01*
G01*
X12815500Y-4365500D02*
X12924500Y-4474500D01*
X12924500Y-4365500D02*
X12815500Y-4474500D01*
X12924500Y-4420000D02*
G75*
G02*
X12815500Y-4420000I-54500J0D01*
G01*
X12815500Y-4420000D02*
G75*
G02*
X12924500Y-4420000I54500J0D01*
G01*
X13069500Y-3857500D02*
X13178500Y-3966500D01*
X13178500Y-3857500D02*
X13069500Y-3966500D01*
X13178500Y-3912000D02*
G75*
G02*
X13069500Y-3912000I-54500J0D01*
G01*
X13069500Y-3912000D02*
G75*
G02*
X13178500Y-3912000I54500J0D01*
G01*
X13069500Y-4365500D02*
X13178500Y-4474500D01*
X13178500Y-4365500D02*
X13069500Y-4474500D01*
X13178500Y-4420000D02*
G75*
G02*
X13069500Y-4420000I-54500J0D01*
G01*
X13069500Y-4420000D02*
G75*
G02*
X13178500Y-4420000I54500J0D01*
G01*
X13323500Y-3857500D02*
X13432500Y-3966500D01*
X13432500Y-3857500D02*
X13323500Y-3966500D01*
X13432500Y-3912000D02*
G75*
G02*
X13323500Y-3912000I-54500J0D01*
G01*
X13323500Y-3912000D02*
G75*
G02*
X13432500Y-3912000I54500J0D01*
G01*
X13323500Y-4365500D02*
X13432500Y-4474500D01*
X13432500Y-4365500D02*
X13323500Y-4474500D01*
X13432500Y-4420000D02*
G75*
G02*
X13323500Y-4420000I-54500J0D01*
G01*
X13323500Y-4420000D02*
G75*
G02*
X13432500Y-4420000I54500J0D01*
G01*
X13577500Y-3857500D02*
X13686500Y-3966500D01*
X13686500Y-3857500D02*
X13577500Y-3966500D01*
X13686500Y-3912000D02*
G75*
G02*
X13577500Y-3912000I-54500J0D01*
G01*
X13577500Y-3912000D02*
G75*
G02*
X13686500Y-3912000I54500J0D01*
G01*
X13577500Y-4365500D02*
X13686500Y-4474500D01*
X13686500Y-4365500D02*
X13577500Y-4474500D01*
X13686500Y-4420000D02*
G75*
G02*
X13577500Y-4420000I-54500J0D01*
G01*
X13577500Y-4420000D02*
G75*
G02*
X13686500Y-4420000I54500J0D01*
G01*
X13831500Y-3857500D02*
X13940500Y-3966500D01*
X13940500Y-3857500D02*
X13831500Y-3966500D01*
X13940500Y-3912000D02*
G75*
G02*
X13831500Y-3912000I-54500J0D01*
G01*
X13831500Y-3912000D02*
G75*
G02*
X13940500Y-3912000I54500J0D01*
G01*
X13831500Y-4365500D02*
X13940500Y-4474500D01*
X13940500Y-4365500D02*
X13831500Y-4474500D01*
X13940500Y-4420000D02*
G75*
G02*
X13831500Y-4420000I-54500J0D01*
G01*
X13831500Y-4420000D02*
G75*
G02*
X13940500Y-4420000I54500J0D01*
G01*
X14085500Y-3857500D02*
X14194500Y-3966500D01*
X14194500Y-3857500D02*
X14085500Y-3966500D01*
X14194500Y-3912000D02*
G75*
G02*
X14085500Y-3912000I-54500J0D01*
G01*
X14085500Y-3912000D02*
G75*
G02*
X14194500Y-3912000I54500J0D01*
G01*
X14085500Y-4365500D02*
X14194500Y-4474500D01*
X14194500Y-4365500D02*
X14085500Y-4474500D01*
X14194500Y-4420000D02*
G75*
G02*
X14085500Y-4420000I-54500J0D01*
G01*
X14085500Y-4420000D02*
G75*
G02*
X14194500Y-4420000I54500J0D01*
G01*
X14339500Y-3857500D02*
X14448500Y-3966500D01*
X14448500Y-3857500D02*
X14339500Y-3966500D01*
X14448500Y-3912000D02*
G75*
G02*
X14339500Y-3912000I-54500J0D01*
G01*
X14339500Y-3912000D02*
G75*
G02*
X14448500Y-3912000I54500J0D01*
G01*
X14339500Y-4365500D02*
X14448500Y-4474500D01*
X14448500Y-4365500D02*
X14339500Y-4474500D01*
X14448500Y-4420000D02*
G75*
G02*
X14339500Y-4420000I-54500J0D01*
G01*
X14339500Y-4420000D02*
G75*
G02*
X14448500Y-4420000I54500J0D01*
G01*
X14593500Y-3857500D02*
X14702500Y-3966500D01*
X14702500Y-3857500D02*
X14593500Y-3966500D01*
X14702500Y-3912000D02*
G75*
G02*
X14593500Y-3912000I-54500J0D01*
G01*
X14593500Y-3912000D02*
G75*
G02*
X14702500Y-3912000I54500J0D01*
G01*
X14593500Y-4365500D02*
X14702500Y-4474500D01*
X14702500Y-4365500D02*
X14593500Y-4474500D01*
X14702500Y-4420000D02*
G75*
G02*
X14593500Y-4420000I-54500J0D01*
G01*
X14593500Y-4420000D02*
G75*
G02*
X14702500Y-4420000I54500J0D01*
G01*
X14847500Y-3857500D02*
X14956500Y-3966500D01*
X14956500Y-3857500D02*
X14847500Y-3966500D01*
X14956500Y-3912000D02*
G75*
G02*
X14847500Y-3912000I-54500J0D01*
G01*
X14847500Y-3912000D02*
G75*
G02*
X14956500Y-3912000I54500J0D01*
G01*
X14847500Y-4365500D02*
X14956500Y-4474500D01*
X14956500Y-4365500D02*
X14847500Y-4474500D01*
X14956500Y-4420000D02*
G75*
G02*
X14847500Y-4420000I-54500J0D01*
G01*
X14847500Y-4420000D02*
G75*
G02*
X14956500Y-4420000I54500J0D01*
G01*
X15101500Y-3857500D02*
X15210500Y-3966500D01*
X15210500Y-3857500D02*
X15101500Y-3966500D01*
X15210500Y-3912000D02*
G75*
G02*
X15101500Y-3912000I-54500J0D01*
G01*
X15101500Y-3912000D02*
G75*
G02*
X15210500Y-3912000I54500J0D01*
G01*
X15101500Y-4365500D02*
X15210500Y-4474500D01*
X15210500Y-4365500D02*
X15101500Y-4474500D01*
X15210500Y-4420000D02*
G75*
G02*
X15101500Y-4420000I-54500J0D01*
G01*
X15101500Y-4420000D02*
G75*
G02*
X15210500Y-4420000I54500J0D01*
G01*
X15355500Y-3857500D02*
X15464500Y-3966500D01*
X15464500Y-3857500D02*
X15355500Y-3966500D01*
X15464500Y-3912000D02*
G75*
G02*
X15355500Y-3912000I-54500J0D01*
G01*
X15355500Y-3912000D02*
G75*
G02*
X15464500Y-3912000I54500J0D01*
G01*
X15355500Y-4365500D02*
X15464500Y-4474500D01*
X15464500Y-4365500D02*
X15355500Y-4474500D01*
X15464500Y-4420000D02*
G75*
G02*
X15355500Y-4420000I-54500J0D01*
G01*
X15355500Y-4420000D02*
G75*
G02*
X15464500Y-4420000I54500J0D01*
G01*
X15609500Y-3857500D02*
X15718500Y-3966500D01*
X15718500Y-3857500D02*
X15609500Y-3966500D01*
X15718500Y-3912000D02*
G75*
G02*
X15609500Y-3912000I-54500J0D01*
G01*
X15609500Y-3912000D02*
G75*
G02*
X15718500Y-3912000I54500J0D01*
G01*
X15609500Y-4365500D02*
X15718500Y-4474500D01*
X15718500Y-4365500D02*
X15609500Y-4474500D01*
X15718500Y-4420000D02*
G75*
G02*
X15609500Y-4420000I-54500J0D01*
G01*
X15609500Y-4420000D02*
G75*
G02*
X15718500Y-4420000I54500J0D01*
G01*
X15863500Y-3857500D02*
X15972500Y-3966500D01*
X15972500Y-3857500D02*
X15863500Y-3966500D01*
X15972500Y-3912000D02*
G75*
G02*
X15863500Y-3912000I-54500J0D01*
G01*
X15863500Y-3912000D02*
G75*
G02*
X15972500Y-3912000I54500J0D01*
G01*
X15863500Y-4365500D02*
X15972500Y-4474500D01*
X15972500Y-4365500D02*
X15863500Y-4474500D01*
X15972500Y-4420000D02*
G75*
G02*
X15863500Y-4420000I-54500J0D01*
G01*
X15863500Y-4420000D02*
G75*
G02*
X15972500Y-4420000I54500J0D01*
G01*
X16117500Y-3857500D02*
X16226500Y-3966500D01*
X16226500Y-3857500D02*
X16117500Y-3966500D01*
X16226500Y-3912000D02*
G75*
G02*
X16117500Y-3912000I-54500J0D01*
G01*
X16117500Y-3912000D02*
G75*
G02*
X16226500Y-3912000I54500J0D01*
G01*
X16117500Y-4365500D02*
X16226500Y-4474500D01*
X16226500Y-4365500D02*
X16117500Y-4474500D01*
X16226500Y-4420000D02*
G75*
G02*
X16117500Y-4420000I-54500J0D01*
G01*
X16117500Y-4420000D02*
G75*
G02*
X16226500Y-4420000I54500J0D01*
G01*
X16371500Y-3857500D02*
X16480500Y-3966500D01*
X16480500Y-3857500D02*
X16371500Y-3966500D01*
X16480500Y-3912000D02*
G75*
G02*
X16371500Y-3912000I-54500J0D01*
G01*
X16371500Y-3912000D02*
G75*
G02*
X16480500Y-3912000I54500J0D01*
G01*
X16371500Y-4365500D02*
X16480500Y-4474500D01*
X16480500Y-4365500D02*
X16371500Y-4474500D01*
X16480500Y-4420000D02*
G75*
G02*
X16371500Y-4420000I-54500J0D01*
G01*
X16371500Y-4420000D02*
G75*
G02*
X16480500Y-4420000I54500J0D01*
G01*
X16625500Y-3857500D02*
X16734500Y-3966500D01*
X16734500Y-3857500D02*
X16625500Y-3966500D01*
X16734500Y-3912000D02*
G75*
G02*
X16625500Y-3912000I-54500J0D01*
G01*
X16625500Y-3912000D02*
G75*
G02*
X16734500Y-3912000I54500J0D01*
G01*
X16625500Y-4365500D02*
X16734500Y-4474500D01*
X16734500Y-4365500D02*
X16625500Y-4474500D01*
X16734500Y-4420000D02*
G75*
G02*
X16625500Y-4420000I-54500J0D01*
G01*
X16625500Y-4420000D02*
G75*
G02*
X16734500Y-4420000I54500J0D01*
G01*
X16879500Y-3857500D02*
X16988500Y-3966500D01*
X16988500Y-3857500D02*
X16879500Y-3966500D01*
X16988500Y-3912000D02*
G75*
G02*
X16879500Y-3912000I-54500J0D01*
G01*
X16879500Y-3912000D02*
G75*
G02*
X16988500Y-3912000I54500J0D01*
G01*
X16879500Y-4365500D02*
X16988500Y-4474500D01*
X16988500Y-4365500D02*
X16879500Y-4474500D01*
X16988500Y-4420000D02*
G75*
G02*
X16879500Y-4420000I-54500J0D01*
G01*
X16879500Y-4420000D02*
G75*
G02*
X16988500Y-4420000I54500J0D01*
G01*
X17133500Y-3857500D02*
X17242500Y-3966500D01*
X17242500Y-3857500D02*
X17133500Y-3966500D01*
X17242500Y-3912000D02*
G75*
G02*
X17133500Y-3912000I-54500J0D01*
G01*
X17133500Y-3912000D02*
G75*
G02*
X17242500Y-3912000I54500J0D01*
G01*
X17133500Y-4365500D02*
X17242500Y-4474500D01*
X17242500Y-4365500D02*
X17133500Y-4474500D01*
X17242500Y-4420000D02*
G75*
G02*
X17133500Y-4420000I-54500J0D01*
G01*
X17133500Y-4420000D02*
G75*
G02*
X17242500Y-4420000I54500J0D01*
G01*
X17387500Y-3857500D02*
X17496500Y-3966500D01*
X17496500Y-3857500D02*
X17387500Y-3966500D01*
X17496500Y-3912000D02*
G75*
G02*
X17387500Y-3912000I-54500J0D01*
G01*
X17387500Y-3912000D02*
G75*
G02*
X17496500Y-3912000I54500J0D01*
G01*
X17387500Y-4365500D02*
X17496500Y-4474500D01*
X17496500Y-4365500D02*
X17387500Y-4474500D01*
X17496500Y-4420000D02*
G75*
G02*
X17387500Y-4420000I-54500J0D01*
G01*
X17387500Y-4420000D02*
G75*
G02*
X17496500Y-4420000I54500J0D01*
G01*
X17641500Y-3857500D02*
X17750500Y-3966500D01*
X17750500Y-3857500D02*
X17641500Y-3966500D01*
X17750500Y-3912000D02*
G75*
G02*
X17641500Y-3912000I-54500J0D01*
G01*
X17641500Y-3912000D02*
G75*
G02*
X17750500Y-3912000I54500J0D01*
G01*
X17641500Y-4365500D02*
X17750500Y-4474500D01*
X17750500Y-4365500D02*
X17641500Y-4474500D01*
X17750500Y-4420000D02*
G75*
G02*
X17641500Y-4420000I-54500J0D01*
G01*
X17641500Y-4420000D02*
G75*
G02*
X17750500Y-4420000I54500J0D01*
G01*
X17895500Y-3857500D02*
X18004500Y-3966500D01*
X18004500Y-3857500D02*
X17895500Y-3966500D01*
X18004500Y-3912000D02*
G75*
G02*
X17895500Y-3912000I-54500J0D01*
G01*
X17895500Y-3912000D02*
G75*
G02*
X18004500Y-3912000I54500J0D01*
G01*
X17895500Y-4365500D02*
X18004500Y-4474500D01*
X18004500Y-4365500D02*
X17895500Y-4474500D01*
X18004500Y-4420000D02*
G75*
G02*
X17895500Y-4420000I-54500J0D01*
G01*
X17895500Y-4420000D02*
G75*
G02*
X18004500Y-4420000I54500J0D01*
G01*
X18149500Y-3857500D02*
X18258500Y-3966500D01*
X18258500Y-3857500D02*
X18149500Y-3966500D01*
X18258500Y-3912000D02*
G75*
G02*
X18149500Y-3912000I-54500J0D01*
G01*
X18149500Y-3912000D02*
G75*
G02*
X18258500Y-3912000I54500J0D01*
G01*
X18149500Y-4365500D02*
X18258500Y-4474500D01*
X18258500Y-4365500D02*
X18149500Y-4474500D01*
X18258500Y-4420000D02*
G75*
G02*
X18149500Y-4420000I-54500J0D01*
G01*
X18149500Y-4420000D02*
G75*
G02*
X18258500Y-4420000I54500J0D01*
G01*
X18403500Y-3857500D02*
X18512500Y-3966500D01*
X18512500Y-3857500D02*
X18403500Y-3966500D01*
X18512500Y-3912000D02*
G75*
G02*
X18403500Y-3912000I-54500J0D01*
G01*
X18403500Y-3912000D02*
G75*
G02*
X18512500Y-3912000I54500J0D01*
G01*
X18403500Y-4365500D02*
X18512500Y-4474500D01*
X18512500Y-4365500D02*
X18403500Y-4474500D01*
X18512500Y-4420000D02*
G75*
G02*
X18403500Y-4420000I-54500J0D01*
G01*
X18403500Y-4420000D02*
G75*
G02*
X18512500Y-4420000I54500J0D01*
G01*
X18657500Y-3857500D02*
X18766500Y-3966500D01*
X18766500Y-3857500D02*
X18657500Y-3966500D01*
X18766500Y-3912000D02*
G75*
G02*
X18657500Y-3912000I-54500J0D01*
G01*
X18657500Y-3912000D02*
G75*
G02*
X18766500Y-3912000I54500J0D01*
G01*
X18657500Y-4365500D02*
X18766500Y-4474500D01*
X18766500Y-4365500D02*
X18657500Y-4474500D01*
X18766500Y-4420000D02*
G75*
G02*
X18657500Y-4420000I-54500J0D01*
G01*
X18657500Y-4420000D02*
G75*
G02*
X18766500Y-4420000I54500J0D01*
G01*
X18911500Y-3857500D02*
X19020500Y-3966500D01*
X19020500Y-3857500D02*
X18911500Y-3966500D01*
X19020500Y-3912000D02*
G75*
G02*
X18911500Y-3912000I-54500J0D01*
G01*
X18911500Y-3912000D02*
G75*
G02*
X19020500Y-3912000I54500J0D01*
G01*
X18911500Y-4365500D02*
X19020500Y-4474500D01*
X19020500Y-4365500D02*
X18911500Y-4474500D01*
X19020500Y-4420000D02*
G75*
G02*
X18911500Y-4420000I-54500J0D01*
G01*
X18911500Y-4420000D02*
G75*
G02*
X19020500Y-4420000I54500J0D01*
G01*
X19165500Y-3857500D02*
X19274500Y-3966500D01*
X19274500Y-3857500D02*
X19165500Y-3966500D01*
X19274500Y-3912000D02*
G75*
G02*
X19165500Y-3912000I-54500J0D01*
G01*
X19165500Y-3912000D02*
G75*
G02*
X19274500Y-3912000I54500J0D01*
G01*
X19165500Y-4365500D02*
X19274500Y-4474500D01*
X19274500Y-4365500D02*
X19165500Y-4474500D01*
X19274500Y-4420000D02*
G75*
G02*
X19165500Y-4420000I-54500J0D01*
G01*
X19165500Y-4420000D02*
G75*
G02*
X19274500Y-4420000I54500J0D01*
G01*
X19419500Y-3857500D02*
X19528500Y-3966500D01*
X19528500Y-3857500D02*
X19419500Y-3966500D01*
X19528500Y-3912000D02*
G75*
G02*
X19419500Y-3912000I-54500J0D01*
G01*
X19419500Y-3912000D02*
G75*
G02*
X19528500Y-3912000I54500J0D01*
G01*
X19419500Y-4365500D02*
X19528500Y-4474500D01*
X19528500Y-4365500D02*
X19419500Y-4474500D01*
X19528500Y-4420000D02*
G75*
G02*
X19419500Y-4420000I-54500J0D01*
G01*
X19419500Y-4420000D02*
G75*
G02*
X19528500Y-4420000I54500J0D01*
G01*
D14*
X18535840Y-12584220D02*
X18655840Y-12704220D01*
X18655840Y-12584220D02*
X18535840Y-12704220D01*
X18595840Y-12584220D02*
X18595840Y-12704220D01*
X18535840Y-12644220D02*
X18655840Y-12644220D01*
X18785840Y-12584220D02*
X18905840Y-12704220D01*
X18905840Y-12584220D02*
X18785840Y-12704220D01*
X18845840Y-12584220D02*
X18845840Y-12704220D01*
X18785840Y-12644220D02*
X18905840Y-12644220D01*
X19035840Y-12584220D02*
X19155840Y-12704220D01*
X19155840Y-12584220D02*
X19035840Y-12704220D01*
X19095840Y-12584220D02*
X19095840Y-12704220D01*
X19035840Y-12644220D02*
X19155840Y-12644220D01*
D15*
X18253340Y-11791720D02*
X18558340Y-12096720D01*
X18558340Y-11791720D02*
X18253340Y-12096720D01*
X18513675Y-12052055D02*
X18513675Y-11836385D01*
X18298005Y-11836385D01*
X18298005Y-12052055D01*
X18513675Y-12052055D01*
X19133340Y-11791720D02*
X19438340Y-12096720D01*
X19438340Y-11791720D02*
X19133340Y-12096720D01*
X19393675Y-12052055D02*
X19393675Y-11836385D01*
X19178005Y-11836385D01*
X19178005Y-12052055D01*
X19393675Y-12052055D01*
D11*
X8698277Y-13603984D02*
X8698277Y-13403984D01*
X8698277Y-13403984D02*
X8745896Y-13403984D01*
X8745896Y-13403984D02*
X8774467Y-13413508D01*
X8774467Y-13413508D02*
X8793515Y-13432555D01*
X8793515Y-13432555D02*
X8803039Y-13451603D01*
X8803039Y-13451603D02*
X8812563Y-13489698D01*
X8812563Y-13489698D02*
X8812563Y-13518269D01*
X8812563Y-13518269D02*
X8803039Y-13556365D01*
X8803039Y-13556365D02*
X8793515Y-13575412D01*
X8793515Y-13575412D02*
X8774467Y-13594460D01*
X8774467Y-13594460D02*
X8745896Y-13603984D01*
X8745896Y-13603984D02*
X8698277Y-13603984D01*
X8898277Y-13603984D02*
X8898277Y-13470650D01*
X8898277Y-13508746D02*
X8907801Y-13489698D01*
X8907801Y-13489698D02*
X8917324Y-13480174D01*
X8917324Y-13480174D02*
X8936372Y-13470650D01*
X8936372Y-13470650D02*
X8955420Y-13470650D01*
X9022086Y-13603984D02*
X9022086Y-13470650D01*
X9022086Y-13403984D02*
X9012563Y-13413508D01*
X9012563Y-13413508D02*
X9022086Y-13423031D01*
X9022086Y-13423031D02*
X9031610Y-13413508D01*
X9031610Y-13413508D02*
X9022086Y-13403984D01*
X9022086Y-13403984D02*
X9022086Y-13423031D01*
X9145896Y-13603984D02*
X9126848Y-13594460D01*
X9126848Y-13594460D02*
X9117324Y-13575412D01*
X9117324Y-13575412D02*
X9117324Y-13403984D01*
X9250658Y-13603984D02*
X9231610Y-13594460D01*
X9231610Y-13594460D02*
X9222086Y-13575412D01*
X9222086Y-13575412D02*
X9222086Y-13403984D01*
X9479229Y-13603984D02*
X9479229Y-13403984D01*
X9479229Y-13403984D02*
X9545896Y-13546841D01*
X9545896Y-13546841D02*
X9612563Y-13403984D01*
X9612563Y-13403984D02*
X9612563Y-13603984D01*
X9793515Y-13603984D02*
X9793515Y-13499222D01*
X9793515Y-13499222D02*
X9783991Y-13480174D01*
X9783991Y-13480174D02*
X9764944Y-13470650D01*
X9764944Y-13470650D02*
X9726848Y-13470650D01*
X9726848Y-13470650D02*
X9707801Y-13480174D01*
X9793515Y-13594460D02*
X9774467Y-13603984D01*
X9774467Y-13603984D02*
X9726848Y-13603984D01*
X9726848Y-13603984D02*
X9707801Y-13594460D01*
X9707801Y-13594460D02*
X9698277Y-13575412D01*
X9698277Y-13575412D02*
X9698277Y-13556365D01*
X9698277Y-13556365D02*
X9707801Y-13537317D01*
X9707801Y-13537317D02*
X9726848Y-13527793D01*
X9726848Y-13527793D02*
X9774467Y-13527793D01*
X9774467Y-13527793D02*
X9793515Y-13518269D01*
X9888753Y-13470650D02*
X9888753Y-13670650D01*
X9888753Y-13480174D02*
X9907801Y-13470650D01*
X9907801Y-13470650D02*
X9945896Y-13470650D01*
X9945896Y-13470650D02*
X9964944Y-13480174D01*
X9964944Y-13480174D02*
X9974467Y-13489698D01*
X9974467Y-13489698D02*
X9983991Y-13508746D01*
X9983991Y-13508746D02*
X9983991Y-13565888D01*
X9983991Y-13565888D02*
X9974467Y-13584936D01*
X9974467Y-13584936D02*
X9964944Y-13594460D01*
X9964944Y-13594460D02*
X9945896Y-13603984D01*
X9945896Y-13603984D02*
X9907801Y-13603984D01*
X9907801Y-13603984D02*
X9888753Y-13594460D01*
X10069705Y-13584936D02*
X10079229Y-13594460D01*
X10079229Y-13594460D02*
X10069705Y-13603984D01*
X10069705Y-13603984D02*
X10060182Y-13594460D01*
X10060182Y-13594460D02*
X10069705Y-13584936D01*
X10069705Y-13584936D02*
X10069705Y-13603984D01*
X10069705Y-13480174D02*
X10079229Y-13489698D01*
X10079229Y-13489698D02*
X10069705Y-13499222D01*
X10069705Y-13499222D02*
X10060182Y-13489698D01*
X10060182Y-13489698D02*
X10069705Y-13480174D01*
X10069705Y-13480174D02*
X10069705Y-13499222D01*
D12*
X8407500Y-13917500D02*
X8437500Y-13947500D01*
X8437500Y-13917500D02*
X8407500Y-13947500D01*
D11*
X8736372Y-13823984D02*
X8755420Y-13823984D01*
X8755420Y-13823984D02*
X8774467Y-13833508D01*
X8774467Y-13833508D02*
X8783991Y-13843031D01*
X8783991Y-13843031D02*
X8793515Y-13862079D01*
X8793515Y-13862079D02*
X8803039Y-13900174D01*
X8803039Y-13900174D02*
X8803039Y-13947793D01*
X8803039Y-13947793D02*
X8793515Y-13985888D01*
X8793515Y-13985888D02*
X8783991Y-14004936D01*
X8783991Y-14004936D02*
X8774467Y-14014460D01*
X8774467Y-14014460D02*
X8755420Y-14023984D01*
X8755420Y-14023984D02*
X8736372Y-14023984D01*
X8736372Y-14023984D02*
X8717324Y-14014460D01*
X8717324Y-14014460D02*
X8707801Y-14004936D01*
X8707801Y-14004936D02*
X8698277Y-13985888D01*
X8698277Y-13985888D02*
X8688753Y-13947793D01*
X8688753Y-13947793D02*
X8688753Y-13900174D01*
X8688753Y-13900174D02*
X8698277Y-13862079D01*
X8698277Y-13862079D02*
X8707801Y-13843031D01*
X8707801Y-13843031D02*
X8717324Y-13833508D01*
X8717324Y-13833508D02*
X8736372Y-13823984D01*
X8888753Y-14004936D02*
X8898277Y-14014460D01*
X8898277Y-14014460D02*
X8888753Y-14023984D01*
X8888753Y-14023984D02*
X8879229Y-14014460D01*
X8879229Y-14014460D02*
X8888753Y-14004936D01*
X8888753Y-14004936D02*
X8888753Y-14023984D01*
X8964944Y-13823984D02*
X9088753Y-13823984D01*
X9088753Y-13823984D02*
X9022086Y-13900174D01*
X9022086Y-13900174D02*
X9050658Y-13900174D01*
X9050658Y-13900174D02*
X9069705Y-13909698D01*
X9069705Y-13909698D02*
X9079229Y-13919222D01*
X9079229Y-13919222D02*
X9088753Y-13938269D01*
X9088753Y-13938269D02*
X9088753Y-13985888D01*
X9088753Y-13985888D02*
X9079229Y-14004936D01*
X9079229Y-14004936D02*
X9069705Y-14014460D01*
X9069705Y-14014460D02*
X9050658Y-14023984D01*
X9050658Y-14023984D02*
X8993515Y-14023984D01*
X8993515Y-14023984D02*
X8974467Y-14014460D01*
X8974467Y-14014460D02*
X8964944Y-14004936D01*
X9212563Y-13823984D02*
X9231610Y-13823984D01*
X9231610Y-13823984D02*
X9250658Y-13833508D01*
X9250658Y-13833508D02*
X9260182Y-13843031D01*
X9260182Y-13843031D02*
X9269705Y-13862079D01*
X9269705Y-13862079D02*
X9279229Y-13900174D01*
X9279229Y-13900174D02*
X9279229Y-13947793D01*
X9279229Y-13947793D02*
X9269705Y-13985888D01*
X9269705Y-13985888D02*
X9260182Y-14004936D01*
X9260182Y-14004936D02*
X9250658Y-14014460D01*
X9250658Y-14014460D02*
X9231610Y-14023984D01*
X9231610Y-14023984D02*
X9212563Y-14023984D01*
X9212563Y-14023984D02*
X9193515Y-14014460D01*
X9193515Y-14014460D02*
X9183991Y-14004936D01*
X9183991Y-14004936D02*
X9174467Y-13985888D01*
X9174467Y-13985888D02*
X9164944Y-13947793D01*
X9164944Y-13947793D02*
X9164944Y-13900174D01*
X9164944Y-13900174D02*
X9174467Y-13862079D01*
X9174467Y-13862079D02*
X9183991Y-13843031D01*
X9183991Y-13843031D02*
X9193515Y-13833508D01*
X9193515Y-13833508D02*
X9212563Y-13823984D01*
X9403039Y-13823984D02*
X9422086Y-13823984D01*
X9422086Y-13823984D02*
X9441134Y-13833508D01*
X9441134Y-13833508D02*
X9450658Y-13843031D01*
X9450658Y-13843031D02*
X9460182Y-13862079D01*
X9460182Y-13862079D02*
X9469705Y-13900174D01*
X9469705Y-13900174D02*
X9469705Y-13947793D01*
X9469705Y-13947793D02*
X9460182Y-13985888D01*
X9460182Y-13985888D02*
X9450658Y-14004936D01*
X9450658Y-14004936D02*
X9441134Y-14014460D01*
X9441134Y-14014460D02*
X9422086Y-14023984D01*
X9422086Y-14023984D02*
X9403039Y-14023984D01*
X9403039Y-14023984D02*
X9383991Y-14014460D01*
X9383991Y-14014460D02*
X9374467Y-14004936D01*
X9374467Y-14004936D02*
X9364944Y-13985888D01*
X9364944Y-13985888D02*
X9355420Y-13947793D01*
X9355420Y-13947793D02*
X9355420Y-13900174D01*
X9355420Y-13900174D02*
X9364944Y-13862079D01*
X9364944Y-13862079D02*
X9374467Y-13843031D01*
X9374467Y-13843031D02*
X9383991Y-13833508D01*
X9383991Y-13833508D02*
X9403039Y-13823984D01*
X9555420Y-14023984D02*
X9555420Y-13890650D01*
X9555420Y-13909698D02*
X9564944Y-13900174D01*
X9564944Y-13900174D02*
X9583991Y-13890650D01*
X9583991Y-13890650D02*
X9612563Y-13890650D01*
X9612563Y-13890650D02*
X9631610Y-13900174D01*
X9631610Y-13900174D02*
X9641134Y-13919222D01*
X9641134Y-13919222D02*
X9641134Y-14023984D01*
X9641134Y-13919222D02*
X9650658Y-13900174D01*
X9650658Y-13900174D02*
X9669705Y-13890650D01*
X9669705Y-13890650D02*
X9698277Y-13890650D01*
X9698277Y-13890650D02*
X9717325Y-13900174D01*
X9717325Y-13900174D02*
X9726848Y-13919222D01*
X9726848Y-13919222D02*
X9726848Y-14023984D01*
X9822086Y-14023984D02*
X9822086Y-13890650D01*
X9822086Y-13909698D02*
X9831610Y-13900174D01*
X9831610Y-13900174D02*
X9850658Y-13890650D01*
X9850658Y-13890650D02*
X9879229Y-13890650D01*
X9879229Y-13890650D02*
X9898277Y-13900174D01*
X9898277Y-13900174D02*
X9907801Y-13919222D01*
X9907801Y-13919222D02*
X9907801Y-14023984D01*
X9907801Y-13919222D02*
X9917325Y-13900174D01*
X9917325Y-13900174D02*
X9936372Y-13890650D01*
X9936372Y-13890650D02*
X9964944Y-13890650D01*
X9964944Y-13890650D02*
X9983991Y-13900174D01*
X9983991Y-13900174D02*
X9993515Y-13919222D01*
X9993515Y-13919222D02*
X9993515Y-14023984D01*
X10383991Y-13814460D02*
X10212563Y-14071603D01*
X10641134Y-13823984D02*
X10660182Y-13823984D01*
X10660182Y-13823984D02*
X10679229Y-13833508D01*
X10679229Y-13833508D02*
X10688753Y-13843031D01*
X10688753Y-13843031D02*
X10698277Y-13862079D01*
X10698277Y-13862079D02*
X10707801Y-13900174D01*
X10707801Y-13900174D02*
X10707801Y-13947793D01*
X10707801Y-13947793D02*
X10698277Y-13985888D01*
X10698277Y-13985888D02*
X10688753Y-14004936D01*
X10688753Y-14004936D02*
X10679229Y-14014460D01*
X10679229Y-14014460D02*
X10660182Y-14023984D01*
X10660182Y-14023984D02*
X10641134Y-14023984D01*
X10641134Y-14023984D02*
X10622087Y-14014460D01*
X10622087Y-14014460D02*
X10612563Y-14004936D01*
X10612563Y-14004936D02*
X10603039Y-13985888D01*
X10603039Y-13985888D02*
X10593515Y-13947793D01*
X10593515Y-13947793D02*
X10593515Y-13900174D01*
X10593515Y-13900174D02*
X10603039Y-13862079D01*
X10603039Y-13862079D02*
X10612563Y-13843031D01*
X10612563Y-13843031D02*
X10622087Y-13833508D01*
X10622087Y-13833508D02*
X10641134Y-13823984D01*
X10793515Y-14004936D02*
X10803039Y-14014460D01*
X10803039Y-14014460D02*
X10793515Y-14023984D01*
X10793515Y-14023984D02*
X10783991Y-14014460D01*
X10783991Y-14014460D02*
X10793515Y-14004936D01*
X10793515Y-14004936D02*
X10793515Y-14023984D01*
X10926848Y-13823984D02*
X10945896Y-13823984D01*
X10945896Y-13823984D02*
X10964944Y-13833508D01*
X10964944Y-13833508D02*
X10974468Y-13843031D01*
X10974468Y-13843031D02*
X10983991Y-13862079D01*
X10983991Y-13862079D02*
X10993515Y-13900174D01*
X10993515Y-13900174D02*
X10993515Y-13947793D01*
X10993515Y-13947793D02*
X10983991Y-13985888D01*
X10983991Y-13985888D02*
X10974468Y-14004936D01*
X10974468Y-14004936D02*
X10964944Y-14014460D01*
X10964944Y-14014460D02*
X10945896Y-14023984D01*
X10945896Y-14023984D02*
X10926848Y-14023984D01*
X10926848Y-14023984D02*
X10907801Y-14014460D01*
X10907801Y-14014460D02*
X10898277Y-14004936D01*
X10898277Y-14004936D02*
X10888753Y-13985888D01*
X10888753Y-13985888D02*
X10879229Y-13947793D01*
X10879229Y-13947793D02*
X10879229Y-13900174D01*
X10879229Y-13900174D02*
X10888753Y-13862079D01*
X10888753Y-13862079D02*
X10898277Y-13843031D01*
X10898277Y-13843031D02*
X10907801Y-13833508D01*
X10907801Y-13833508D02*
X10926848Y-13823984D01*
X11183991Y-14023984D02*
X11069706Y-14023984D01*
X11126848Y-14023984D02*
X11126848Y-13823984D01*
X11126848Y-13823984D02*
X11107801Y-13852555D01*
X11107801Y-13852555D02*
X11088753Y-13871603D01*
X11088753Y-13871603D02*
X11069706Y-13881127D01*
X11374467Y-14023984D02*
X11260182Y-14023984D01*
X11317325Y-14023984D02*
X11317325Y-13823984D01*
X11317325Y-13823984D02*
X11298277Y-13852555D01*
X11298277Y-13852555D02*
X11279229Y-13871603D01*
X11279229Y-13871603D02*
X11260182Y-13881127D01*
X11488753Y-13909698D02*
X11469706Y-13900174D01*
X11469706Y-13900174D02*
X11460182Y-13890650D01*
X11460182Y-13890650D02*
X11450658Y-13871603D01*
X11450658Y-13871603D02*
X11450658Y-13862079D01*
X11450658Y-13862079D02*
X11460182Y-13843031D01*
X11460182Y-13843031D02*
X11469706Y-13833508D01*
X11469706Y-13833508D02*
X11488753Y-13823984D01*
X11488753Y-13823984D02*
X11526848Y-13823984D01*
X11526848Y-13823984D02*
X11545896Y-13833508D01*
X11545896Y-13833508D02*
X11555420Y-13843031D01*
X11555420Y-13843031D02*
X11564944Y-13862079D01*
X11564944Y-13862079D02*
X11564944Y-13871603D01*
X11564944Y-13871603D02*
X11555420Y-13890650D01*
X11555420Y-13890650D02*
X11545896Y-13900174D01*
X11545896Y-13900174D02*
X11526848Y-13909698D01*
X11526848Y-13909698D02*
X11488753Y-13909698D01*
X11488753Y-13909698D02*
X11469706Y-13919222D01*
X11469706Y-13919222D02*
X11460182Y-13928746D01*
X11460182Y-13928746D02*
X11450658Y-13947793D01*
X11450658Y-13947793D02*
X11450658Y-13985888D01*
X11450658Y-13985888D02*
X11460182Y-14004936D01*
X11460182Y-14004936D02*
X11469706Y-14014460D01*
X11469706Y-14014460D02*
X11488753Y-14023984D01*
X11488753Y-14023984D02*
X11526848Y-14023984D01*
X11526848Y-14023984D02*
X11545896Y-14014460D01*
X11545896Y-14014460D02*
X11555420Y-14004936D01*
X11555420Y-14004936D02*
X11564944Y-13985888D01*
X11564944Y-13985888D02*
X11564944Y-13947793D01*
X11564944Y-13947793D02*
X11555420Y-13928746D01*
X11555420Y-13928746D02*
X11545896Y-13919222D01*
X11545896Y-13919222D02*
X11526848Y-13909698D01*
X11641134Y-13823984D02*
X11641134Y-13862079D01*
X11717325Y-13823984D02*
X11717325Y-13862079D01*
X12012563Y-14100174D02*
X12003039Y-14090650D01*
X12003039Y-14090650D02*
X11983991Y-14062079D01*
X11983991Y-14062079D02*
X11974468Y-14043031D01*
X11974468Y-14043031D02*
X11964944Y-14014460D01*
X11964944Y-14014460D02*
X11955420Y-13966841D01*
X11955420Y-13966841D02*
X11955420Y-13928746D01*
X11955420Y-13928746D02*
X11964944Y-13881127D01*
X11964944Y-13881127D02*
X11974468Y-13852555D01*
X11974468Y-13852555D02*
X11983991Y-13833508D01*
X11983991Y-13833508D02*
X12003039Y-13804936D01*
X12003039Y-13804936D02*
X12012563Y-13795412D01*
X12069706Y-13823984D02*
X12193515Y-13823984D01*
X12193515Y-13823984D02*
X12126848Y-13900174D01*
X12126848Y-13900174D02*
X12155420Y-13900174D01*
X12155420Y-13900174D02*
X12174468Y-13909698D01*
X12174468Y-13909698D02*
X12183991Y-13919222D01*
X12183991Y-13919222D02*
X12193515Y-13938269D01*
X12193515Y-13938269D02*
X12193515Y-13985888D01*
X12193515Y-13985888D02*
X12183991Y-14004936D01*
X12183991Y-14004936D02*
X12174468Y-14014460D01*
X12174468Y-14014460D02*
X12155420Y-14023984D01*
X12155420Y-14023984D02*
X12098277Y-14023984D01*
X12098277Y-14023984D02*
X12079229Y-14014460D01*
X12079229Y-14014460D02*
X12069706Y-14004936D01*
X12260182Y-13823984D02*
X12393515Y-13823984D01*
X12393515Y-13823984D02*
X12307801Y-14023984D01*
X12564944Y-13823984D02*
X12469706Y-13823984D01*
X12469706Y-13823984D02*
X12460182Y-13919222D01*
X12460182Y-13919222D02*
X12469706Y-13909698D01*
X12469706Y-13909698D02*
X12488753Y-13900174D01*
X12488753Y-13900174D02*
X12536372Y-13900174D01*
X12536372Y-13900174D02*
X12555420Y-13909698D01*
X12555420Y-13909698D02*
X12564944Y-13919222D01*
X12564944Y-13919222D02*
X12574468Y-13938269D01*
X12574468Y-13938269D02*
X12574468Y-13985888D01*
X12574468Y-13985888D02*
X12564944Y-14004936D01*
X12564944Y-14004936D02*
X12555420Y-14014460D01*
X12555420Y-14014460D02*
X12536372Y-14023984D01*
X12536372Y-14023984D02*
X12488753Y-14023984D01*
X12488753Y-14023984D02*
X12469706Y-14014460D01*
X12469706Y-14014460D02*
X12460182Y-14004936D01*
X12812563Y-14023984D02*
X12812563Y-13823984D01*
X12898277Y-14023984D02*
X12898277Y-13919222D01*
X12898277Y-13919222D02*
X12888753Y-13900174D01*
X12888753Y-13900174D02*
X12869706Y-13890650D01*
X12869706Y-13890650D02*
X12841134Y-13890650D01*
X12841134Y-13890650D02*
X12822087Y-13900174D01*
X12822087Y-13900174D02*
X12812563Y-13909698D01*
X13022087Y-14023984D02*
X13003039Y-14014460D01*
X13003039Y-14014460D02*
X12993515Y-14004936D01*
X12993515Y-14004936D02*
X12983991Y-13985888D01*
X12983991Y-13985888D02*
X12983991Y-13928746D01*
X12983991Y-13928746D02*
X12993515Y-13909698D01*
X12993515Y-13909698D02*
X13003039Y-13900174D01*
X13003039Y-13900174D02*
X13022087Y-13890650D01*
X13022087Y-13890650D02*
X13050658Y-13890650D01*
X13050658Y-13890650D02*
X13069706Y-13900174D01*
X13069706Y-13900174D02*
X13079230Y-13909698D01*
X13079230Y-13909698D02*
X13088753Y-13928746D01*
X13088753Y-13928746D02*
X13088753Y-13985888D01*
X13088753Y-13985888D02*
X13079230Y-14004936D01*
X13079230Y-14004936D02*
X13069706Y-14014460D01*
X13069706Y-14014460D02*
X13050658Y-14023984D01*
X13050658Y-14023984D02*
X13022087Y-14023984D01*
X13203039Y-14023984D02*
X13183991Y-14014460D01*
X13183991Y-14014460D02*
X13174468Y-13995412D01*
X13174468Y-13995412D02*
X13174468Y-13823984D01*
X13355420Y-14014460D02*
X13336372Y-14023984D01*
X13336372Y-14023984D02*
X13298277Y-14023984D01*
X13298277Y-14023984D02*
X13279230Y-14014460D01*
X13279230Y-14014460D02*
X13269706Y-13995412D01*
X13269706Y-13995412D02*
X13269706Y-13919222D01*
X13269706Y-13919222D02*
X13279230Y-13900174D01*
X13279230Y-13900174D02*
X13298277Y-13890650D01*
X13298277Y-13890650D02*
X13336372Y-13890650D01*
X13336372Y-13890650D02*
X13355420Y-13900174D01*
X13355420Y-13900174D02*
X13364944Y-13919222D01*
X13364944Y-13919222D02*
X13364944Y-13938269D01*
X13364944Y-13938269D02*
X13269706Y-13957317D01*
X13441134Y-14014460D02*
X13460182Y-14023984D01*
X13460182Y-14023984D02*
X13498277Y-14023984D01*
X13498277Y-14023984D02*
X13517325Y-14014460D01*
X13517325Y-14014460D02*
X13526849Y-13995412D01*
X13526849Y-13995412D02*
X13526849Y-13985888D01*
X13526849Y-13985888D02*
X13517325Y-13966841D01*
X13517325Y-13966841D02*
X13498277Y-13957317D01*
X13498277Y-13957317D02*
X13469706Y-13957317D01*
X13469706Y-13957317D02*
X13450658Y-13947793D01*
X13450658Y-13947793D02*
X13441134Y-13928746D01*
X13441134Y-13928746D02*
X13441134Y-13919222D01*
X13441134Y-13919222D02*
X13450658Y-13900174D01*
X13450658Y-13900174D02*
X13469706Y-13890650D01*
X13469706Y-13890650D02*
X13498277Y-13890650D01*
X13498277Y-13890650D02*
X13517325Y-13900174D01*
X13593515Y-14100174D02*
X13603039Y-14090650D01*
X13603039Y-14090650D02*
X13622087Y-14062079D01*
X13622087Y-14062079D02*
X13631611Y-14043031D01*
X13631611Y-14043031D02*
X13641134Y-14014460D01*
X13641134Y-14014460D02*
X13650658Y-13966841D01*
X13650658Y-13966841D02*
X13650658Y-13928746D01*
X13650658Y-13928746D02*
X13641134Y-13881127D01*
X13641134Y-13881127D02*
X13631611Y-13852555D01*
X13631611Y-13852555D02*
X13622087Y-13833508D01*
X13622087Y-13833508D02*
X13603039Y-13804936D01*
X13603039Y-13804936D02*
X13593515Y-13795412D01*
D12*
X8437500Y-14196500D02*
G75*
G02*
X8361500Y-14196500I-38000J0D01*
G01*
X8361500Y-14196500D02*
G75*
G02*
X8437500Y-14196500I38000J0D01*
G01*
D11*
X8736372Y-14087984D02*
X8755420Y-14087984D01*
X8755420Y-14087984D02*
X8774467Y-14097508D01*
X8774467Y-14097508D02*
X8783991Y-14107031D01*
X8783991Y-14107031D02*
X8793515Y-14126079D01*
X8793515Y-14126079D02*
X8803039Y-14164174D01*
X8803039Y-14164174D02*
X8803039Y-14211793D01*
X8803039Y-14211793D02*
X8793515Y-14249888D01*
X8793515Y-14249888D02*
X8783991Y-14268936D01*
X8783991Y-14268936D02*
X8774467Y-14278460D01*
X8774467Y-14278460D02*
X8755420Y-14287984D01*
X8755420Y-14287984D02*
X8736372Y-14287984D01*
X8736372Y-14287984D02*
X8717324Y-14278460D01*
X8717324Y-14278460D02*
X8707801Y-14268936D01*
X8707801Y-14268936D02*
X8698277Y-14249888D01*
X8698277Y-14249888D02*
X8688753Y-14211793D01*
X8688753Y-14211793D02*
X8688753Y-14164174D01*
X8688753Y-14164174D02*
X8698277Y-14126079D01*
X8698277Y-14126079D02*
X8707801Y-14107031D01*
X8707801Y-14107031D02*
X8717324Y-14097508D01*
X8717324Y-14097508D02*
X8736372Y-14087984D01*
X8888753Y-14268936D02*
X8898277Y-14278460D01*
X8898277Y-14278460D02*
X8888753Y-14287984D01*
X8888753Y-14287984D02*
X8879229Y-14278460D01*
X8879229Y-14278460D02*
X8888753Y-14268936D01*
X8888753Y-14268936D02*
X8888753Y-14287984D01*
X8964944Y-14087984D02*
X9098277Y-14087984D01*
X9098277Y-14087984D02*
X9012563Y-14287984D01*
X9260182Y-14087984D02*
X9222086Y-14087984D01*
X9222086Y-14087984D02*
X9203039Y-14097508D01*
X9203039Y-14097508D02*
X9193515Y-14107031D01*
X9193515Y-14107031D02*
X9174467Y-14135603D01*
X9174467Y-14135603D02*
X9164944Y-14173698D01*
X9164944Y-14173698D02*
X9164944Y-14249888D01*
X9164944Y-14249888D02*
X9174467Y-14268936D01*
X9174467Y-14268936D02*
X9183991Y-14278460D01*
X9183991Y-14278460D02*
X9203039Y-14287984D01*
X9203039Y-14287984D02*
X9241134Y-14287984D01*
X9241134Y-14287984D02*
X9260182Y-14278460D01*
X9260182Y-14278460D02*
X9269705Y-14268936D01*
X9269705Y-14268936D02*
X9279229Y-14249888D01*
X9279229Y-14249888D02*
X9279229Y-14202269D01*
X9279229Y-14202269D02*
X9269705Y-14183222D01*
X9269705Y-14183222D02*
X9260182Y-14173698D01*
X9260182Y-14173698D02*
X9241134Y-14164174D01*
X9241134Y-14164174D02*
X9203039Y-14164174D01*
X9203039Y-14164174D02*
X9183991Y-14173698D01*
X9183991Y-14173698D02*
X9174467Y-14183222D01*
X9174467Y-14183222D02*
X9164944Y-14202269D01*
X9403039Y-14087984D02*
X9422086Y-14087984D01*
X9422086Y-14087984D02*
X9441134Y-14097508D01*
X9441134Y-14097508D02*
X9450658Y-14107031D01*
X9450658Y-14107031D02*
X9460182Y-14126079D01*
X9460182Y-14126079D02*
X9469705Y-14164174D01*
X9469705Y-14164174D02*
X9469705Y-14211793D01*
X9469705Y-14211793D02*
X9460182Y-14249888D01*
X9460182Y-14249888D02*
X9450658Y-14268936D01*
X9450658Y-14268936D02*
X9441134Y-14278460D01*
X9441134Y-14278460D02*
X9422086Y-14287984D01*
X9422086Y-14287984D02*
X9403039Y-14287984D01*
X9403039Y-14287984D02*
X9383991Y-14278460D01*
X9383991Y-14278460D02*
X9374467Y-14268936D01*
X9374467Y-14268936D02*
X9364944Y-14249888D01*
X9364944Y-14249888D02*
X9355420Y-14211793D01*
X9355420Y-14211793D02*
X9355420Y-14164174D01*
X9355420Y-14164174D02*
X9364944Y-14126079D01*
X9364944Y-14126079D02*
X9374467Y-14107031D01*
X9374467Y-14107031D02*
X9383991Y-14097508D01*
X9383991Y-14097508D02*
X9403039Y-14087984D01*
X9555420Y-14287984D02*
X9555420Y-14154650D01*
X9555420Y-14173698D02*
X9564944Y-14164174D01*
X9564944Y-14164174D02*
X9583991Y-14154650D01*
X9583991Y-14154650D02*
X9612563Y-14154650D01*
X9612563Y-14154650D02*
X9631610Y-14164174D01*
X9631610Y-14164174D02*
X9641134Y-14183222D01*
X9641134Y-14183222D02*
X9641134Y-14287984D01*
X9641134Y-14183222D02*
X9650658Y-14164174D01*
X9650658Y-14164174D02*
X9669705Y-14154650D01*
X9669705Y-14154650D02*
X9698277Y-14154650D01*
X9698277Y-14154650D02*
X9717325Y-14164174D01*
X9717325Y-14164174D02*
X9726848Y-14183222D01*
X9726848Y-14183222D02*
X9726848Y-14287984D01*
X9822086Y-14287984D02*
X9822086Y-14154650D01*
X9822086Y-14173698D02*
X9831610Y-14164174D01*
X9831610Y-14164174D02*
X9850658Y-14154650D01*
X9850658Y-14154650D02*
X9879229Y-14154650D01*
X9879229Y-14154650D02*
X9898277Y-14164174D01*
X9898277Y-14164174D02*
X9907801Y-14183222D01*
X9907801Y-14183222D02*
X9907801Y-14287984D01*
X9907801Y-14183222D02*
X9917325Y-14164174D01*
X9917325Y-14164174D02*
X9936372Y-14154650D01*
X9936372Y-14154650D02*
X9964944Y-14154650D01*
X9964944Y-14154650D02*
X9983991Y-14164174D01*
X9983991Y-14164174D02*
X9993515Y-14183222D01*
X9993515Y-14183222D02*
X9993515Y-14287984D01*
X10383991Y-14078460D02*
X10212563Y-14335603D01*
X10641134Y-14087984D02*
X10660182Y-14087984D01*
X10660182Y-14087984D02*
X10679229Y-14097508D01*
X10679229Y-14097508D02*
X10688753Y-14107031D01*
X10688753Y-14107031D02*
X10698277Y-14126079D01*
X10698277Y-14126079D02*
X10707801Y-14164174D01*
X10707801Y-14164174D02*
X10707801Y-14211793D01*
X10707801Y-14211793D02*
X10698277Y-14249888D01*
X10698277Y-14249888D02*
X10688753Y-14268936D01*
X10688753Y-14268936D02*
X10679229Y-14278460D01*
X10679229Y-14278460D02*
X10660182Y-14287984D01*
X10660182Y-14287984D02*
X10641134Y-14287984D01*
X10641134Y-14287984D02*
X10622087Y-14278460D01*
X10622087Y-14278460D02*
X10612563Y-14268936D01*
X10612563Y-14268936D02*
X10603039Y-14249888D01*
X10603039Y-14249888D02*
X10593515Y-14211793D01*
X10593515Y-14211793D02*
X10593515Y-14164174D01*
X10593515Y-14164174D02*
X10603039Y-14126079D01*
X10603039Y-14126079D02*
X10612563Y-14107031D01*
X10612563Y-14107031D02*
X10622087Y-14097508D01*
X10622087Y-14097508D02*
X10641134Y-14087984D01*
X10793515Y-14268936D02*
X10803039Y-14278460D01*
X10803039Y-14278460D02*
X10793515Y-14287984D01*
X10793515Y-14287984D02*
X10783991Y-14278460D01*
X10783991Y-14278460D02*
X10793515Y-14268936D01*
X10793515Y-14268936D02*
X10793515Y-14287984D01*
X10926848Y-14087984D02*
X10945896Y-14087984D01*
X10945896Y-14087984D02*
X10964944Y-14097508D01*
X10964944Y-14097508D02*
X10974468Y-14107031D01*
X10974468Y-14107031D02*
X10983991Y-14126079D01*
X10983991Y-14126079D02*
X10993515Y-14164174D01*
X10993515Y-14164174D02*
X10993515Y-14211793D01*
X10993515Y-14211793D02*
X10983991Y-14249888D01*
X10983991Y-14249888D02*
X10974468Y-14268936D01*
X10974468Y-14268936D02*
X10964944Y-14278460D01*
X10964944Y-14278460D02*
X10945896Y-14287984D01*
X10945896Y-14287984D02*
X10926848Y-14287984D01*
X10926848Y-14287984D02*
X10907801Y-14278460D01*
X10907801Y-14278460D02*
X10898277Y-14268936D01*
X10898277Y-14268936D02*
X10888753Y-14249888D01*
X10888753Y-14249888D02*
X10879229Y-14211793D01*
X10879229Y-14211793D02*
X10879229Y-14164174D01*
X10879229Y-14164174D02*
X10888753Y-14126079D01*
X10888753Y-14126079D02*
X10898277Y-14107031D01*
X10898277Y-14107031D02*
X10907801Y-14097508D01*
X10907801Y-14097508D02*
X10926848Y-14087984D01*
X11069706Y-14107031D02*
X11079229Y-14097508D01*
X11079229Y-14097508D02*
X11098277Y-14087984D01*
X11098277Y-14087984D02*
X11145896Y-14087984D01*
X11145896Y-14087984D02*
X11164944Y-14097508D01*
X11164944Y-14097508D02*
X11174468Y-14107031D01*
X11174468Y-14107031D02*
X11183991Y-14126079D01*
X11183991Y-14126079D02*
X11183991Y-14145127D01*
X11183991Y-14145127D02*
X11174468Y-14173698D01*
X11174468Y-14173698D02*
X11060182Y-14287984D01*
X11060182Y-14287984D02*
X11183991Y-14287984D01*
X11279229Y-14287984D02*
X11317325Y-14287984D01*
X11317325Y-14287984D02*
X11336372Y-14278460D01*
X11336372Y-14278460D02*
X11345896Y-14268936D01*
X11345896Y-14268936D02*
X11364944Y-14240365D01*
X11364944Y-14240365D02*
X11374467Y-14202269D01*
X11374467Y-14202269D02*
X11374467Y-14126079D01*
X11374467Y-14126079D02*
X11364944Y-14107031D01*
X11364944Y-14107031D02*
X11355420Y-14097508D01*
X11355420Y-14097508D02*
X11336372Y-14087984D01*
X11336372Y-14087984D02*
X11298277Y-14087984D01*
X11298277Y-14087984D02*
X11279229Y-14097508D01*
X11279229Y-14097508D02*
X11269706Y-14107031D01*
X11269706Y-14107031D02*
X11260182Y-14126079D01*
X11260182Y-14126079D02*
X11260182Y-14173698D01*
X11260182Y-14173698D02*
X11269706Y-14192746D01*
X11269706Y-14192746D02*
X11279229Y-14202269D01*
X11279229Y-14202269D02*
X11298277Y-14211793D01*
X11298277Y-14211793D02*
X11336372Y-14211793D01*
X11336372Y-14211793D02*
X11355420Y-14202269D01*
X11355420Y-14202269D02*
X11364944Y-14192746D01*
X11364944Y-14192746D02*
X11374467Y-14173698D01*
X11469706Y-14287984D02*
X11507801Y-14287984D01*
X11507801Y-14287984D02*
X11526848Y-14278460D01*
X11526848Y-14278460D02*
X11536372Y-14268936D01*
X11536372Y-14268936D02*
X11555420Y-14240365D01*
X11555420Y-14240365D02*
X11564944Y-14202269D01*
X11564944Y-14202269D02*
X11564944Y-14126079D01*
X11564944Y-14126079D02*
X11555420Y-14107031D01*
X11555420Y-14107031D02*
X11545896Y-14097508D01*
X11545896Y-14097508D02*
X11526848Y-14087984D01*
X11526848Y-14087984D02*
X11488753Y-14087984D01*
X11488753Y-14087984D02*
X11469706Y-14097508D01*
X11469706Y-14097508D02*
X11460182Y-14107031D01*
X11460182Y-14107031D02*
X11450658Y-14126079D01*
X11450658Y-14126079D02*
X11450658Y-14173698D01*
X11450658Y-14173698D02*
X11460182Y-14192746D01*
X11460182Y-14192746D02*
X11469706Y-14202269D01*
X11469706Y-14202269D02*
X11488753Y-14211793D01*
X11488753Y-14211793D02*
X11526848Y-14211793D01*
X11526848Y-14211793D02*
X11545896Y-14202269D01*
X11545896Y-14202269D02*
X11555420Y-14192746D01*
X11555420Y-14192746D02*
X11564944Y-14173698D01*
X11641134Y-14087984D02*
X11641134Y-14126079D01*
X11717325Y-14087984D02*
X11717325Y-14126079D01*
X12012563Y-14364174D02*
X12003039Y-14354650D01*
X12003039Y-14354650D02*
X11983991Y-14326079D01*
X11983991Y-14326079D02*
X11974468Y-14307031D01*
X11974468Y-14307031D02*
X11964944Y-14278460D01*
X11964944Y-14278460D02*
X11955420Y-14230841D01*
X11955420Y-14230841D02*
X11955420Y-14192746D01*
X11955420Y-14192746D02*
X11964944Y-14145127D01*
X11964944Y-14145127D02*
X11974468Y-14116555D01*
X11974468Y-14116555D02*
X11983991Y-14097508D01*
X11983991Y-14097508D02*
X12003039Y-14068936D01*
X12003039Y-14068936D02*
X12012563Y-14059412D01*
X12174468Y-14087984D02*
X12136372Y-14087984D01*
X12136372Y-14087984D02*
X12117325Y-14097508D01*
X12117325Y-14097508D02*
X12107801Y-14107031D01*
X12107801Y-14107031D02*
X12088753Y-14135603D01*
X12088753Y-14135603D02*
X12079229Y-14173698D01*
X12079229Y-14173698D02*
X12079229Y-14249888D01*
X12079229Y-14249888D02*
X12088753Y-14268936D01*
X12088753Y-14268936D02*
X12098277Y-14278460D01*
X12098277Y-14278460D02*
X12117325Y-14287984D01*
X12117325Y-14287984D02*
X12155420Y-14287984D01*
X12155420Y-14287984D02*
X12174468Y-14278460D01*
X12174468Y-14278460D02*
X12183991Y-14268936D01*
X12183991Y-14268936D02*
X12193515Y-14249888D01*
X12193515Y-14249888D02*
X12193515Y-14202269D01*
X12193515Y-14202269D02*
X12183991Y-14183222D01*
X12183991Y-14183222D02*
X12174468Y-14173698D01*
X12174468Y-14173698D02*
X12155420Y-14164174D01*
X12155420Y-14164174D02*
X12117325Y-14164174D01*
X12117325Y-14164174D02*
X12098277Y-14173698D01*
X12098277Y-14173698D02*
X12088753Y-14183222D01*
X12088753Y-14183222D02*
X12079229Y-14202269D01*
X12364944Y-14154650D02*
X12364944Y-14287984D01*
X12317325Y-14078460D02*
X12269706Y-14221317D01*
X12269706Y-14221317D02*
X12393515Y-14221317D01*
X12622087Y-14287984D02*
X12622087Y-14087984D01*
X12707801Y-14287984D02*
X12707801Y-14183222D01*
X12707801Y-14183222D02*
X12698277Y-14164174D01*
X12698277Y-14164174D02*
X12679230Y-14154650D01*
X12679230Y-14154650D02*
X12650658Y-14154650D01*
X12650658Y-14154650D02*
X12631610Y-14164174D01*
X12631610Y-14164174D02*
X12622087Y-14173698D01*
X12831610Y-14287984D02*
X12812563Y-14278460D01*
X12812563Y-14278460D02*
X12803039Y-14268936D01*
X12803039Y-14268936D02*
X12793515Y-14249888D01*
X12793515Y-14249888D02*
X12793515Y-14192746D01*
X12793515Y-14192746D02*
X12803039Y-14173698D01*
X12803039Y-14173698D02*
X12812563Y-14164174D01*
X12812563Y-14164174D02*
X12831610Y-14154650D01*
X12831610Y-14154650D02*
X12860182Y-14154650D01*
X12860182Y-14154650D02*
X12879230Y-14164174D01*
X12879230Y-14164174D02*
X12888753Y-14173698D01*
X12888753Y-14173698D02*
X12898277Y-14192746D01*
X12898277Y-14192746D02*
X12898277Y-14249888D01*
X12898277Y-14249888D02*
X12888753Y-14268936D01*
X12888753Y-14268936D02*
X12879230Y-14278460D01*
X12879230Y-14278460D02*
X12860182Y-14287984D01*
X12860182Y-14287984D02*
X12831610Y-14287984D01*
X13012563Y-14287984D02*
X12993515Y-14278460D01*
X12993515Y-14278460D02*
X12983991Y-14259412D01*
X12983991Y-14259412D02*
X12983991Y-14087984D01*
X13164944Y-14278460D02*
X13145896Y-14287984D01*
X13145896Y-14287984D02*
X13107801Y-14287984D01*
X13107801Y-14287984D02*
X13088753Y-14278460D01*
X13088753Y-14278460D02*
X13079230Y-14259412D01*
X13079230Y-14259412D02*
X13079230Y-14183222D01*
X13079230Y-14183222D02*
X13088753Y-14164174D01*
X13088753Y-14164174D02*
X13107801Y-14154650D01*
X13107801Y-14154650D02*
X13145896Y-14154650D01*
X13145896Y-14154650D02*
X13164944Y-14164174D01*
X13164944Y-14164174D02*
X13174468Y-14183222D01*
X13174468Y-14183222D02*
X13174468Y-14202269D01*
X13174468Y-14202269D02*
X13079230Y-14221317D01*
X13250658Y-14278460D02*
X13269706Y-14287984D01*
X13269706Y-14287984D02*
X13307801Y-14287984D01*
X13307801Y-14287984D02*
X13326849Y-14278460D01*
X13326849Y-14278460D02*
X13336372Y-14259412D01*
X13336372Y-14259412D02*
X13336372Y-14249888D01*
X13336372Y-14249888D02*
X13326849Y-14230841D01*
X13326849Y-14230841D02*
X13307801Y-14221317D01*
X13307801Y-14221317D02*
X13279230Y-14221317D01*
X13279230Y-14221317D02*
X13260182Y-14211793D01*
X13260182Y-14211793D02*
X13250658Y-14192746D01*
X13250658Y-14192746D02*
X13250658Y-14183222D01*
X13250658Y-14183222D02*
X13260182Y-14164174D01*
X13260182Y-14164174D02*
X13279230Y-14154650D01*
X13279230Y-14154650D02*
X13307801Y-14154650D01*
X13307801Y-14154650D02*
X13326849Y-14164174D01*
X13403039Y-14364174D02*
X13412563Y-14354650D01*
X13412563Y-14354650D02*
X13431611Y-14326079D01*
X13431611Y-14326079D02*
X13441134Y-14307031D01*
X13441134Y-14307031D02*
X13450658Y-14278460D01*
X13450658Y-14278460D02*
X13460182Y-14230841D01*
X13460182Y-14230841D02*
X13460182Y-14192746D01*
X13460182Y-14192746D02*
X13450658Y-14145127D01*
X13450658Y-14145127D02*
X13441134Y-14116555D01*
X13441134Y-14116555D02*
X13431611Y-14097508D01*
X13431611Y-14097508D02*
X13412563Y-14068936D01*
X13412563Y-14068936D02*
X13403039Y-14059412D01*
D12*
X8397500Y-14420500D02*
X8397500Y-14500500D01*
X8357500Y-14460500D02*
X8437500Y-14460500D01*
D11*
X8736372Y-14351984D02*
X8755420Y-14351984D01*
X8755420Y-14351984D02*
X8774467Y-14361508D01*
X8774467Y-14361508D02*
X8783991Y-14371031D01*
X8783991Y-14371031D02*
X8793515Y-14390079D01*
X8793515Y-14390079D02*
X8803039Y-14428174D01*
X8803039Y-14428174D02*
X8803039Y-14475793D01*
X8803039Y-14475793D02*
X8793515Y-14513888D01*
X8793515Y-14513888D02*
X8783991Y-14532936D01*
X8783991Y-14532936D02*
X8774467Y-14542460D01*
X8774467Y-14542460D02*
X8755420Y-14551984D01*
X8755420Y-14551984D02*
X8736372Y-14551984D01*
X8736372Y-14551984D02*
X8717324Y-14542460D01*
X8717324Y-14542460D02*
X8707801Y-14532936D01*
X8707801Y-14532936D02*
X8698277Y-14513888D01*
X8698277Y-14513888D02*
X8688753Y-14475793D01*
X8688753Y-14475793D02*
X8688753Y-14428174D01*
X8688753Y-14428174D02*
X8698277Y-14390079D01*
X8698277Y-14390079D02*
X8707801Y-14371031D01*
X8707801Y-14371031D02*
X8717324Y-14361508D01*
X8717324Y-14361508D02*
X8736372Y-14351984D01*
X8888753Y-14532936D02*
X8898277Y-14542460D01*
X8898277Y-14542460D02*
X8888753Y-14551984D01*
X8888753Y-14551984D02*
X8879229Y-14542460D01*
X8879229Y-14542460D02*
X8888753Y-14532936D01*
X8888753Y-14532936D02*
X8888753Y-14551984D01*
X9012563Y-14437698D02*
X8993515Y-14428174D01*
X8993515Y-14428174D02*
X8983991Y-14418650D01*
X8983991Y-14418650D02*
X8974467Y-14399603D01*
X8974467Y-14399603D02*
X8974467Y-14390079D01*
X8974467Y-14390079D02*
X8983991Y-14371031D01*
X8983991Y-14371031D02*
X8993515Y-14361508D01*
X8993515Y-14361508D02*
X9012563Y-14351984D01*
X9012563Y-14351984D02*
X9050658Y-14351984D01*
X9050658Y-14351984D02*
X9069705Y-14361508D01*
X9069705Y-14361508D02*
X9079229Y-14371031D01*
X9079229Y-14371031D02*
X9088753Y-14390079D01*
X9088753Y-14390079D02*
X9088753Y-14399603D01*
X9088753Y-14399603D02*
X9079229Y-14418650D01*
X9079229Y-14418650D02*
X9069705Y-14428174D01*
X9069705Y-14428174D02*
X9050658Y-14437698D01*
X9050658Y-14437698D02*
X9012563Y-14437698D01*
X9012563Y-14437698D02*
X8993515Y-14447222D01*
X8993515Y-14447222D02*
X8983991Y-14456746D01*
X8983991Y-14456746D02*
X8974467Y-14475793D01*
X8974467Y-14475793D02*
X8974467Y-14513888D01*
X8974467Y-14513888D02*
X8983991Y-14532936D01*
X8983991Y-14532936D02*
X8993515Y-14542460D01*
X8993515Y-14542460D02*
X9012563Y-14551984D01*
X9012563Y-14551984D02*
X9050658Y-14551984D01*
X9050658Y-14551984D02*
X9069705Y-14542460D01*
X9069705Y-14542460D02*
X9079229Y-14532936D01*
X9079229Y-14532936D02*
X9088753Y-14513888D01*
X9088753Y-14513888D02*
X9088753Y-14475793D01*
X9088753Y-14475793D02*
X9079229Y-14456746D01*
X9079229Y-14456746D02*
X9069705Y-14447222D01*
X9069705Y-14447222D02*
X9050658Y-14437698D01*
X9212563Y-14351984D02*
X9231610Y-14351984D01*
X9231610Y-14351984D02*
X9250658Y-14361508D01*
X9250658Y-14361508D02*
X9260182Y-14371031D01*
X9260182Y-14371031D02*
X9269705Y-14390079D01*
X9269705Y-14390079D02*
X9279229Y-14428174D01*
X9279229Y-14428174D02*
X9279229Y-14475793D01*
X9279229Y-14475793D02*
X9269705Y-14513888D01*
X9269705Y-14513888D02*
X9260182Y-14532936D01*
X9260182Y-14532936D02*
X9250658Y-14542460D01*
X9250658Y-14542460D02*
X9231610Y-14551984D01*
X9231610Y-14551984D02*
X9212563Y-14551984D01*
X9212563Y-14551984D02*
X9193515Y-14542460D01*
X9193515Y-14542460D02*
X9183991Y-14532936D01*
X9183991Y-14532936D02*
X9174467Y-14513888D01*
X9174467Y-14513888D02*
X9164944Y-14475793D01*
X9164944Y-14475793D02*
X9164944Y-14428174D01*
X9164944Y-14428174D02*
X9174467Y-14390079D01*
X9174467Y-14390079D02*
X9183991Y-14371031D01*
X9183991Y-14371031D02*
X9193515Y-14361508D01*
X9193515Y-14361508D02*
X9212563Y-14351984D01*
X9403039Y-14351984D02*
X9422086Y-14351984D01*
X9422086Y-14351984D02*
X9441134Y-14361508D01*
X9441134Y-14361508D02*
X9450658Y-14371031D01*
X9450658Y-14371031D02*
X9460182Y-14390079D01*
X9460182Y-14390079D02*
X9469705Y-14428174D01*
X9469705Y-14428174D02*
X9469705Y-14475793D01*
X9469705Y-14475793D02*
X9460182Y-14513888D01*
X9460182Y-14513888D02*
X9450658Y-14532936D01*
X9450658Y-14532936D02*
X9441134Y-14542460D01*
X9441134Y-14542460D02*
X9422086Y-14551984D01*
X9422086Y-14551984D02*
X9403039Y-14551984D01*
X9403039Y-14551984D02*
X9383991Y-14542460D01*
X9383991Y-14542460D02*
X9374467Y-14532936D01*
X9374467Y-14532936D02*
X9364944Y-14513888D01*
X9364944Y-14513888D02*
X9355420Y-14475793D01*
X9355420Y-14475793D02*
X9355420Y-14428174D01*
X9355420Y-14428174D02*
X9364944Y-14390079D01*
X9364944Y-14390079D02*
X9374467Y-14371031D01*
X9374467Y-14371031D02*
X9383991Y-14361508D01*
X9383991Y-14361508D02*
X9403039Y-14351984D01*
X9555420Y-14551984D02*
X9555420Y-14418650D01*
X9555420Y-14437698D02*
X9564944Y-14428174D01*
X9564944Y-14428174D02*
X9583991Y-14418650D01*
X9583991Y-14418650D02*
X9612563Y-14418650D01*
X9612563Y-14418650D02*
X9631610Y-14428174D01*
X9631610Y-14428174D02*
X9641134Y-14447222D01*
X9641134Y-14447222D02*
X9641134Y-14551984D01*
X9641134Y-14447222D02*
X9650658Y-14428174D01*
X9650658Y-14428174D02*
X9669705Y-14418650D01*
X9669705Y-14418650D02*
X9698277Y-14418650D01*
X9698277Y-14418650D02*
X9717325Y-14428174D01*
X9717325Y-14428174D02*
X9726848Y-14447222D01*
X9726848Y-14447222D02*
X9726848Y-14551984D01*
X9822086Y-14551984D02*
X9822086Y-14418650D01*
X9822086Y-14437698D02*
X9831610Y-14428174D01*
X9831610Y-14428174D02*
X9850658Y-14418650D01*
X9850658Y-14418650D02*
X9879229Y-14418650D01*
X9879229Y-14418650D02*
X9898277Y-14428174D01*
X9898277Y-14428174D02*
X9907801Y-14447222D01*
X9907801Y-14447222D02*
X9907801Y-14551984D01*
X9907801Y-14447222D02*
X9917325Y-14428174D01*
X9917325Y-14428174D02*
X9936372Y-14418650D01*
X9936372Y-14418650D02*
X9964944Y-14418650D01*
X9964944Y-14418650D02*
X9983991Y-14428174D01*
X9983991Y-14428174D02*
X9993515Y-14447222D01*
X9993515Y-14447222D02*
X9993515Y-14551984D01*
X10383991Y-14342460D02*
X10212563Y-14599603D01*
X10641134Y-14351984D02*
X10660182Y-14351984D01*
X10660182Y-14351984D02*
X10679229Y-14361508D01*
X10679229Y-14361508D02*
X10688753Y-14371031D01*
X10688753Y-14371031D02*
X10698277Y-14390079D01*
X10698277Y-14390079D02*
X10707801Y-14428174D01*
X10707801Y-14428174D02*
X10707801Y-14475793D01*
X10707801Y-14475793D02*
X10698277Y-14513888D01*
X10698277Y-14513888D02*
X10688753Y-14532936D01*
X10688753Y-14532936D02*
X10679229Y-14542460D01*
X10679229Y-14542460D02*
X10660182Y-14551984D01*
X10660182Y-14551984D02*
X10641134Y-14551984D01*
X10641134Y-14551984D02*
X10622087Y-14542460D01*
X10622087Y-14542460D02*
X10612563Y-14532936D01*
X10612563Y-14532936D02*
X10603039Y-14513888D01*
X10603039Y-14513888D02*
X10593515Y-14475793D01*
X10593515Y-14475793D02*
X10593515Y-14428174D01*
X10593515Y-14428174D02*
X10603039Y-14390079D01*
X10603039Y-14390079D02*
X10612563Y-14371031D01*
X10612563Y-14371031D02*
X10622087Y-14361508D01*
X10622087Y-14361508D02*
X10641134Y-14351984D01*
X10793515Y-14532936D02*
X10803039Y-14542460D01*
X10803039Y-14542460D02*
X10793515Y-14551984D01*
X10793515Y-14551984D02*
X10783991Y-14542460D01*
X10783991Y-14542460D02*
X10793515Y-14532936D01*
X10793515Y-14532936D02*
X10793515Y-14551984D01*
X10926848Y-14351984D02*
X10945896Y-14351984D01*
X10945896Y-14351984D02*
X10964944Y-14361508D01*
X10964944Y-14361508D02*
X10974468Y-14371031D01*
X10974468Y-14371031D02*
X10983991Y-14390079D01*
X10983991Y-14390079D02*
X10993515Y-14428174D01*
X10993515Y-14428174D02*
X10993515Y-14475793D01*
X10993515Y-14475793D02*
X10983991Y-14513888D01*
X10983991Y-14513888D02*
X10974468Y-14532936D01*
X10974468Y-14532936D02*
X10964944Y-14542460D01*
X10964944Y-14542460D02*
X10945896Y-14551984D01*
X10945896Y-14551984D02*
X10926848Y-14551984D01*
X10926848Y-14551984D02*
X10907801Y-14542460D01*
X10907801Y-14542460D02*
X10898277Y-14532936D01*
X10898277Y-14532936D02*
X10888753Y-14513888D01*
X10888753Y-14513888D02*
X10879229Y-14475793D01*
X10879229Y-14475793D02*
X10879229Y-14428174D01*
X10879229Y-14428174D02*
X10888753Y-14390079D01*
X10888753Y-14390079D02*
X10898277Y-14371031D01*
X10898277Y-14371031D02*
X10907801Y-14361508D01*
X10907801Y-14361508D02*
X10926848Y-14351984D01*
X11060182Y-14351984D02*
X11183991Y-14351984D01*
X11183991Y-14351984D02*
X11117325Y-14428174D01*
X11117325Y-14428174D02*
X11145896Y-14428174D01*
X11145896Y-14428174D02*
X11164944Y-14437698D01*
X11164944Y-14437698D02*
X11174468Y-14447222D01*
X11174468Y-14447222D02*
X11183991Y-14466269D01*
X11183991Y-14466269D02*
X11183991Y-14513888D01*
X11183991Y-14513888D02*
X11174468Y-14532936D01*
X11174468Y-14532936D02*
X11164944Y-14542460D01*
X11164944Y-14542460D02*
X11145896Y-14551984D01*
X11145896Y-14551984D02*
X11088753Y-14551984D01*
X11088753Y-14551984D02*
X11069706Y-14542460D01*
X11069706Y-14542460D02*
X11060182Y-14532936D01*
X11374467Y-14551984D02*
X11260182Y-14551984D01*
X11317325Y-14551984D02*
X11317325Y-14351984D01*
X11317325Y-14351984D02*
X11298277Y-14380555D01*
X11298277Y-14380555D02*
X11279229Y-14399603D01*
X11279229Y-14399603D02*
X11260182Y-14409127D01*
X11555420Y-14351984D02*
X11460182Y-14351984D01*
X11460182Y-14351984D02*
X11450658Y-14447222D01*
X11450658Y-14447222D02*
X11460182Y-14437698D01*
X11460182Y-14437698D02*
X11479229Y-14428174D01*
X11479229Y-14428174D02*
X11526848Y-14428174D01*
X11526848Y-14428174D02*
X11545896Y-14437698D01*
X11545896Y-14437698D02*
X11555420Y-14447222D01*
X11555420Y-14447222D02*
X11564944Y-14466269D01*
X11564944Y-14466269D02*
X11564944Y-14513888D01*
X11564944Y-14513888D02*
X11555420Y-14532936D01*
X11555420Y-14532936D02*
X11545896Y-14542460D01*
X11545896Y-14542460D02*
X11526848Y-14551984D01*
X11526848Y-14551984D02*
X11479229Y-14551984D01*
X11479229Y-14551984D02*
X11460182Y-14542460D01*
X11460182Y-14542460D02*
X11450658Y-14532936D01*
X11641134Y-14351984D02*
X11641134Y-14390079D01*
X11717325Y-14351984D02*
X11717325Y-14390079D01*
X12012563Y-14628174D02*
X12003039Y-14618650D01*
X12003039Y-14618650D02*
X11983991Y-14590079D01*
X11983991Y-14590079D02*
X11974468Y-14571031D01*
X11974468Y-14571031D02*
X11964944Y-14542460D01*
X11964944Y-14542460D02*
X11955420Y-14494841D01*
X11955420Y-14494841D02*
X11955420Y-14456746D01*
X11955420Y-14456746D02*
X11964944Y-14409127D01*
X11964944Y-14409127D02*
X11974468Y-14380555D01*
X11974468Y-14380555D02*
X11983991Y-14361508D01*
X11983991Y-14361508D02*
X12003039Y-14332936D01*
X12003039Y-14332936D02*
X12012563Y-14323412D01*
X12193515Y-14551984D02*
X12079229Y-14551984D01*
X12136372Y-14551984D02*
X12136372Y-14351984D01*
X12136372Y-14351984D02*
X12117325Y-14380555D01*
X12117325Y-14380555D02*
X12098277Y-14399603D01*
X12098277Y-14399603D02*
X12079229Y-14409127D01*
X12260182Y-14351984D02*
X12383991Y-14351984D01*
X12383991Y-14351984D02*
X12317325Y-14428174D01*
X12317325Y-14428174D02*
X12345896Y-14428174D01*
X12345896Y-14428174D02*
X12364944Y-14437698D01*
X12364944Y-14437698D02*
X12374468Y-14447222D01*
X12374468Y-14447222D02*
X12383991Y-14466269D01*
X12383991Y-14466269D02*
X12383991Y-14513888D01*
X12383991Y-14513888D02*
X12374468Y-14532936D01*
X12374468Y-14532936D02*
X12364944Y-14542460D01*
X12364944Y-14542460D02*
X12345896Y-14551984D01*
X12345896Y-14551984D02*
X12288753Y-14551984D01*
X12288753Y-14551984D02*
X12269706Y-14542460D01*
X12269706Y-14542460D02*
X12260182Y-14532936D01*
X12622087Y-14551984D02*
X12622087Y-14351984D01*
X12707801Y-14551984D02*
X12707801Y-14447222D01*
X12707801Y-14447222D02*
X12698277Y-14428174D01*
X12698277Y-14428174D02*
X12679230Y-14418650D01*
X12679230Y-14418650D02*
X12650658Y-14418650D01*
X12650658Y-14418650D02*
X12631610Y-14428174D01*
X12631610Y-14428174D02*
X12622087Y-14437698D01*
X12831610Y-14551984D02*
X12812563Y-14542460D01*
X12812563Y-14542460D02*
X12803039Y-14532936D01*
X12803039Y-14532936D02*
X12793515Y-14513888D01*
X12793515Y-14513888D02*
X12793515Y-14456746D01*
X12793515Y-14456746D02*
X12803039Y-14437698D01*
X12803039Y-14437698D02*
X12812563Y-14428174D01*
X12812563Y-14428174D02*
X12831610Y-14418650D01*
X12831610Y-14418650D02*
X12860182Y-14418650D01*
X12860182Y-14418650D02*
X12879230Y-14428174D01*
X12879230Y-14428174D02*
X12888753Y-14437698D01*
X12888753Y-14437698D02*
X12898277Y-14456746D01*
X12898277Y-14456746D02*
X12898277Y-14513888D01*
X12898277Y-14513888D02*
X12888753Y-14532936D01*
X12888753Y-14532936D02*
X12879230Y-14542460D01*
X12879230Y-14542460D02*
X12860182Y-14551984D01*
X12860182Y-14551984D02*
X12831610Y-14551984D01*
X13012563Y-14551984D02*
X12993515Y-14542460D01*
X12993515Y-14542460D02*
X12983991Y-14523412D01*
X12983991Y-14523412D02*
X12983991Y-14351984D01*
X13164944Y-14542460D02*
X13145896Y-14551984D01*
X13145896Y-14551984D02*
X13107801Y-14551984D01*
X13107801Y-14551984D02*
X13088753Y-14542460D01*
X13088753Y-14542460D02*
X13079230Y-14523412D01*
X13079230Y-14523412D02*
X13079230Y-14447222D01*
X13079230Y-14447222D02*
X13088753Y-14428174D01*
X13088753Y-14428174D02*
X13107801Y-14418650D01*
X13107801Y-14418650D02*
X13145896Y-14418650D01*
X13145896Y-14418650D02*
X13164944Y-14428174D01*
X13164944Y-14428174D02*
X13174468Y-14447222D01*
X13174468Y-14447222D02*
X13174468Y-14466269D01*
X13174468Y-14466269D02*
X13079230Y-14485317D01*
X13250658Y-14542460D02*
X13269706Y-14551984D01*
X13269706Y-14551984D02*
X13307801Y-14551984D01*
X13307801Y-14551984D02*
X13326849Y-14542460D01*
X13326849Y-14542460D02*
X13336372Y-14523412D01*
X13336372Y-14523412D02*
X13336372Y-14513888D01*
X13336372Y-14513888D02*
X13326849Y-14494841D01*
X13326849Y-14494841D02*
X13307801Y-14485317D01*
X13307801Y-14485317D02*
X13279230Y-14485317D01*
X13279230Y-14485317D02*
X13260182Y-14475793D01*
X13260182Y-14475793D02*
X13250658Y-14456746D01*
X13250658Y-14456746D02*
X13250658Y-14447222D01*
X13250658Y-14447222D02*
X13260182Y-14428174D01*
X13260182Y-14428174D02*
X13279230Y-14418650D01*
X13279230Y-14418650D02*
X13307801Y-14418650D01*
X13307801Y-14418650D02*
X13326849Y-14428174D01*
X13403039Y-14628174D02*
X13412563Y-14618650D01*
X13412563Y-14618650D02*
X13431611Y-14590079D01*
X13431611Y-14590079D02*
X13441134Y-14571031D01*
X13441134Y-14571031D02*
X13450658Y-14542460D01*
X13450658Y-14542460D02*
X13460182Y-14494841D01*
X13460182Y-14494841D02*
X13460182Y-14456746D01*
X13460182Y-14456746D02*
X13450658Y-14409127D01*
X13450658Y-14409127D02*
X13441134Y-14380555D01*
X13441134Y-14380555D02*
X13431611Y-14361508D01*
X13431611Y-14361508D02*
X13412563Y-14332936D01*
X13412563Y-14332936D02*
X13403039Y-14323412D01*
D12*
X8424320Y-14756320D02*
X8424320Y-14692680D01*
X8360680Y-14692680D01*
X8360680Y-14756320D01*
X8424320Y-14756320D01*
D11*
X8736372Y-14615984D02*
X8755420Y-14615984D01*
X8755420Y-14615984D02*
X8774467Y-14625508D01*
X8774467Y-14625508D02*
X8783991Y-14635031D01*
X8783991Y-14635031D02*
X8793515Y-14654079D01*
X8793515Y-14654079D02*
X8803039Y-14692174D01*
X8803039Y-14692174D02*
X8803039Y-14739793D01*
X8803039Y-14739793D02*
X8793515Y-14777888D01*
X8793515Y-14777888D02*
X8783991Y-14796936D01*
X8783991Y-14796936D02*
X8774467Y-14806460D01*
X8774467Y-14806460D02*
X8755420Y-14815984D01*
X8755420Y-14815984D02*
X8736372Y-14815984D01*
X8736372Y-14815984D02*
X8717324Y-14806460D01*
X8717324Y-14806460D02*
X8707801Y-14796936D01*
X8707801Y-14796936D02*
X8698277Y-14777888D01*
X8698277Y-14777888D02*
X8688753Y-14739793D01*
X8688753Y-14739793D02*
X8688753Y-14692174D01*
X8688753Y-14692174D02*
X8698277Y-14654079D01*
X8698277Y-14654079D02*
X8707801Y-14635031D01*
X8707801Y-14635031D02*
X8717324Y-14625508D01*
X8717324Y-14625508D02*
X8736372Y-14615984D01*
X8888753Y-14796936D02*
X8898277Y-14806460D01*
X8898277Y-14806460D02*
X8888753Y-14815984D01*
X8888753Y-14815984D02*
X8879229Y-14806460D01*
X8879229Y-14806460D02*
X8888753Y-14796936D01*
X8888753Y-14796936D02*
X8888753Y-14815984D01*
X8993515Y-14815984D02*
X9031610Y-14815984D01*
X9031610Y-14815984D02*
X9050658Y-14806460D01*
X9050658Y-14806460D02*
X9060182Y-14796936D01*
X9060182Y-14796936D02*
X9079229Y-14768365D01*
X9079229Y-14768365D02*
X9088753Y-14730269D01*
X9088753Y-14730269D02*
X9088753Y-14654079D01*
X9088753Y-14654079D02*
X9079229Y-14635031D01*
X9079229Y-14635031D02*
X9069705Y-14625508D01*
X9069705Y-14625508D02*
X9050658Y-14615984D01*
X9050658Y-14615984D02*
X9012563Y-14615984D01*
X9012563Y-14615984D02*
X8993515Y-14625508D01*
X8993515Y-14625508D02*
X8983991Y-14635031D01*
X8983991Y-14635031D02*
X8974467Y-14654079D01*
X8974467Y-14654079D02*
X8974467Y-14701698D01*
X8974467Y-14701698D02*
X8983991Y-14720746D01*
X8983991Y-14720746D02*
X8993515Y-14730269D01*
X8993515Y-14730269D02*
X9012563Y-14739793D01*
X9012563Y-14739793D02*
X9050658Y-14739793D01*
X9050658Y-14739793D02*
X9069705Y-14730269D01*
X9069705Y-14730269D02*
X9079229Y-14720746D01*
X9079229Y-14720746D02*
X9088753Y-14701698D01*
X9212563Y-14615984D02*
X9231610Y-14615984D01*
X9231610Y-14615984D02*
X9250658Y-14625508D01*
X9250658Y-14625508D02*
X9260182Y-14635031D01*
X9260182Y-14635031D02*
X9269705Y-14654079D01*
X9269705Y-14654079D02*
X9279229Y-14692174D01*
X9279229Y-14692174D02*
X9279229Y-14739793D01*
X9279229Y-14739793D02*
X9269705Y-14777888D01*
X9269705Y-14777888D02*
X9260182Y-14796936D01*
X9260182Y-14796936D02*
X9250658Y-14806460D01*
X9250658Y-14806460D02*
X9231610Y-14815984D01*
X9231610Y-14815984D02*
X9212563Y-14815984D01*
X9212563Y-14815984D02*
X9193515Y-14806460D01*
X9193515Y-14806460D02*
X9183991Y-14796936D01*
X9183991Y-14796936D02*
X9174467Y-14777888D01*
X9174467Y-14777888D02*
X9164944Y-14739793D01*
X9164944Y-14739793D02*
X9164944Y-14692174D01*
X9164944Y-14692174D02*
X9174467Y-14654079D01*
X9174467Y-14654079D02*
X9183991Y-14635031D01*
X9183991Y-14635031D02*
X9193515Y-14625508D01*
X9193515Y-14625508D02*
X9212563Y-14615984D01*
X9403039Y-14615984D02*
X9422086Y-14615984D01*
X9422086Y-14615984D02*
X9441134Y-14625508D01*
X9441134Y-14625508D02*
X9450658Y-14635031D01*
X9450658Y-14635031D02*
X9460182Y-14654079D01*
X9460182Y-14654079D02*
X9469705Y-14692174D01*
X9469705Y-14692174D02*
X9469705Y-14739793D01*
X9469705Y-14739793D02*
X9460182Y-14777888D01*
X9460182Y-14777888D02*
X9450658Y-14796936D01*
X9450658Y-14796936D02*
X9441134Y-14806460D01*
X9441134Y-14806460D02*
X9422086Y-14815984D01*
X9422086Y-14815984D02*
X9403039Y-14815984D01*
X9403039Y-14815984D02*
X9383991Y-14806460D01*
X9383991Y-14806460D02*
X9374467Y-14796936D01*
X9374467Y-14796936D02*
X9364944Y-14777888D01*
X9364944Y-14777888D02*
X9355420Y-14739793D01*
X9355420Y-14739793D02*
X9355420Y-14692174D01*
X9355420Y-14692174D02*
X9364944Y-14654079D01*
X9364944Y-14654079D02*
X9374467Y-14635031D01*
X9374467Y-14635031D02*
X9383991Y-14625508D01*
X9383991Y-14625508D02*
X9403039Y-14615984D01*
X9555420Y-14815984D02*
X9555420Y-14682650D01*
X9555420Y-14701698D02*
X9564944Y-14692174D01*
X9564944Y-14692174D02*
X9583991Y-14682650D01*
X9583991Y-14682650D02*
X9612563Y-14682650D01*
X9612563Y-14682650D02*
X9631610Y-14692174D01*
X9631610Y-14692174D02*
X9641134Y-14711222D01*
X9641134Y-14711222D02*
X9641134Y-14815984D01*
X9641134Y-14711222D02*
X9650658Y-14692174D01*
X9650658Y-14692174D02*
X9669705Y-14682650D01*
X9669705Y-14682650D02*
X9698277Y-14682650D01*
X9698277Y-14682650D02*
X9717325Y-14692174D01*
X9717325Y-14692174D02*
X9726848Y-14711222D01*
X9726848Y-14711222D02*
X9726848Y-14815984D01*
X9822086Y-14815984D02*
X9822086Y-14682650D01*
X9822086Y-14701698D02*
X9831610Y-14692174D01*
X9831610Y-14692174D02*
X9850658Y-14682650D01*
X9850658Y-14682650D02*
X9879229Y-14682650D01*
X9879229Y-14682650D02*
X9898277Y-14692174D01*
X9898277Y-14692174D02*
X9907801Y-14711222D01*
X9907801Y-14711222D02*
X9907801Y-14815984D01*
X9907801Y-14711222D02*
X9917325Y-14692174D01*
X9917325Y-14692174D02*
X9936372Y-14682650D01*
X9936372Y-14682650D02*
X9964944Y-14682650D01*
X9964944Y-14682650D02*
X9983991Y-14692174D01*
X9983991Y-14692174D02*
X9993515Y-14711222D01*
X9993515Y-14711222D02*
X9993515Y-14815984D01*
X10383991Y-14606460D02*
X10212563Y-14863603D01*
X10641134Y-14615984D02*
X10660182Y-14615984D01*
X10660182Y-14615984D02*
X10679229Y-14625508D01*
X10679229Y-14625508D02*
X10688753Y-14635031D01*
X10688753Y-14635031D02*
X10698277Y-14654079D01*
X10698277Y-14654079D02*
X10707801Y-14692174D01*
X10707801Y-14692174D02*
X10707801Y-14739793D01*
X10707801Y-14739793D02*
X10698277Y-14777888D01*
X10698277Y-14777888D02*
X10688753Y-14796936D01*
X10688753Y-14796936D02*
X10679229Y-14806460D01*
X10679229Y-14806460D02*
X10660182Y-14815984D01*
X10660182Y-14815984D02*
X10641134Y-14815984D01*
X10641134Y-14815984D02*
X10622087Y-14806460D01*
X10622087Y-14806460D02*
X10612563Y-14796936D01*
X10612563Y-14796936D02*
X10603039Y-14777888D01*
X10603039Y-14777888D02*
X10593515Y-14739793D01*
X10593515Y-14739793D02*
X10593515Y-14692174D01*
X10593515Y-14692174D02*
X10603039Y-14654079D01*
X10603039Y-14654079D02*
X10612563Y-14635031D01*
X10612563Y-14635031D02*
X10622087Y-14625508D01*
X10622087Y-14625508D02*
X10641134Y-14615984D01*
X10793515Y-14796936D02*
X10803039Y-14806460D01*
X10803039Y-14806460D02*
X10793515Y-14815984D01*
X10793515Y-14815984D02*
X10783991Y-14806460D01*
X10783991Y-14806460D02*
X10793515Y-14796936D01*
X10793515Y-14796936D02*
X10793515Y-14815984D01*
X10926848Y-14615984D02*
X10945896Y-14615984D01*
X10945896Y-14615984D02*
X10964944Y-14625508D01*
X10964944Y-14625508D02*
X10974468Y-14635031D01*
X10974468Y-14635031D02*
X10983991Y-14654079D01*
X10983991Y-14654079D02*
X10993515Y-14692174D01*
X10993515Y-14692174D02*
X10993515Y-14739793D01*
X10993515Y-14739793D02*
X10983991Y-14777888D01*
X10983991Y-14777888D02*
X10974468Y-14796936D01*
X10974468Y-14796936D02*
X10964944Y-14806460D01*
X10964944Y-14806460D02*
X10945896Y-14815984D01*
X10945896Y-14815984D02*
X10926848Y-14815984D01*
X10926848Y-14815984D02*
X10907801Y-14806460D01*
X10907801Y-14806460D02*
X10898277Y-14796936D01*
X10898277Y-14796936D02*
X10888753Y-14777888D01*
X10888753Y-14777888D02*
X10879229Y-14739793D01*
X10879229Y-14739793D02*
X10879229Y-14692174D01*
X10879229Y-14692174D02*
X10888753Y-14654079D01*
X10888753Y-14654079D02*
X10898277Y-14635031D01*
X10898277Y-14635031D02*
X10907801Y-14625508D01*
X10907801Y-14625508D02*
X10926848Y-14615984D01*
X11060182Y-14615984D02*
X11183991Y-14615984D01*
X11183991Y-14615984D02*
X11117325Y-14692174D01*
X11117325Y-14692174D02*
X11145896Y-14692174D01*
X11145896Y-14692174D02*
X11164944Y-14701698D01*
X11164944Y-14701698D02*
X11174468Y-14711222D01*
X11174468Y-14711222D02*
X11183991Y-14730269D01*
X11183991Y-14730269D02*
X11183991Y-14777888D01*
X11183991Y-14777888D02*
X11174468Y-14796936D01*
X11174468Y-14796936D02*
X11164944Y-14806460D01*
X11164944Y-14806460D02*
X11145896Y-14815984D01*
X11145896Y-14815984D02*
X11088753Y-14815984D01*
X11088753Y-14815984D02*
X11069706Y-14806460D01*
X11069706Y-14806460D02*
X11060182Y-14796936D01*
X11364944Y-14615984D02*
X11269706Y-14615984D01*
X11269706Y-14615984D02*
X11260182Y-14711222D01*
X11260182Y-14711222D02*
X11269706Y-14701698D01*
X11269706Y-14701698D02*
X11288753Y-14692174D01*
X11288753Y-14692174D02*
X11336372Y-14692174D01*
X11336372Y-14692174D02*
X11355420Y-14701698D01*
X11355420Y-14701698D02*
X11364944Y-14711222D01*
X11364944Y-14711222D02*
X11374467Y-14730269D01*
X11374467Y-14730269D02*
X11374467Y-14777888D01*
X11374467Y-14777888D02*
X11364944Y-14796936D01*
X11364944Y-14796936D02*
X11355420Y-14806460D01*
X11355420Y-14806460D02*
X11336372Y-14815984D01*
X11336372Y-14815984D02*
X11288753Y-14815984D01*
X11288753Y-14815984D02*
X11269706Y-14806460D01*
X11269706Y-14806460D02*
X11260182Y-14796936D01*
X11545896Y-14682650D02*
X11545896Y-14815984D01*
X11498277Y-14606460D02*
X11450658Y-14749317D01*
X11450658Y-14749317D02*
X11574467Y-14749317D01*
X11641134Y-14615984D02*
X11641134Y-14654079D01*
X11717325Y-14615984D02*
X11717325Y-14654079D01*
X12012563Y-14892174D02*
X12003039Y-14882650D01*
X12003039Y-14882650D02*
X11983991Y-14854079D01*
X11983991Y-14854079D02*
X11974468Y-14835031D01*
X11974468Y-14835031D02*
X11964944Y-14806460D01*
X11964944Y-14806460D02*
X11955420Y-14758841D01*
X11955420Y-14758841D02*
X11955420Y-14720746D01*
X11955420Y-14720746D02*
X11964944Y-14673127D01*
X11964944Y-14673127D02*
X11974468Y-14644555D01*
X11974468Y-14644555D02*
X11983991Y-14625508D01*
X11983991Y-14625508D02*
X12003039Y-14596936D01*
X12003039Y-14596936D02*
X12012563Y-14587412D01*
X12117325Y-14701698D02*
X12098277Y-14692174D01*
X12098277Y-14692174D02*
X12088753Y-14682650D01*
X12088753Y-14682650D02*
X12079229Y-14663603D01*
X12079229Y-14663603D02*
X12079229Y-14654079D01*
X12079229Y-14654079D02*
X12088753Y-14635031D01*
X12088753Y-14635031D02*
X12098277Y-14625508D01*
X12098277Y-14625508D02*
X12117325Y-14615984D01*
X12117325Y-14615984D02*
X12155420Y-14615984D01*
X12155420Y-14615984D02*
X12174468Y-14625508D01*
X12174468Y-14625508D02*
X12183991Y-14635031D01*
X12183991Y-14635031D02*
X12193515Y-14654079D01*
X12193515Y-14654079D02*
X12193515Y-14663603D01*
X12193515Y-14663603D02*
X12183991Y-14682650D01*
X12183991Y-14682650D02*
X12174468Y-14692174D01*
X12174468Y-14692174D02*
X12155420Y-14701698D01*
X12155420Y-14701698D02*
X12117325Y-14701698D01*
X12117325Y-14701698D02*
X12098277Y-14711222D01*
X12098277Y-14711222D02*
X12088753Y-14720746D01*
X12088753Y-14720746D02*
X12079229Y-14739793D01*
X12079229Y-14739793D02*
X12079229Y-14777888D01*
X12079229Y-14777888D02*
X12088753Y-14796936D01*
X12088753Y-14796936D02*
X12098277Y-14806460D01*
X12098277Y-14806460D02*
X12117325Y-14815984D01*
X12117325Y-14815984D02*
X12155420Y-14815984D01*
X12155420Y-14815984D02*
X12174468Y-14806460D01*
X12174468Y-14806460D02*
X12183991Y-14796936D01*
X12183991Y-14796936D02*
X12193515Y-14777888D01*
X12193515Y-14777888D02*
X12193515Y-14739793D01*
X12193515Y-14739793D02*
X12183991Y-14720746D01*
X12183991Y-14720746D02*
X12174468Y-14711222D01*
X12174468Y-14711222D02*
X12155420Y-14701698D01*
X12431610Y-14815984D02*
X12431610Y-14615984D01*
X12517325Y-14815984D02*
X12517325Y-14711222D01*
X12517325Y-14711222D02*
X12507801Y-14692174D01*
X12507801Y-14692174D02*
X12488753Y-14682650D01*
X12488753Y-14682650D02*
X12460182Y-14682650D01*
X12460182Y-14682650D02*
X12441134Y-14692174D01*
X12441134Y-14692174D02*
X12431610Y-14701698D01*
X12641134Y-14815984D02*
X12622087Y-14806460D01*
X12622087Y-14806460D02*
X12612563Y-14796936D01*
X12612563Y-14796936D02*
X12603039Y-14777888D01*
X12603039Y-14777888D02*
X12603039Y-14720746D01*
X12603039Y-14720746D02*
X12612563Y-14701698D01*
X12612563Y-14701698D02*
X12622087Y-14692174D01*
X12622087Y-14692174D02*
X12641134Y-14682650D01*
X12641134Y-14682650D02*
X12669706Y-14682650D01*
X12669706Y-14682650D02*
X12688753Y-14692174D01*
X12688753Y-14692174D02*
X12698277Y-14701698D01*
X12698277Y-14701698D02*
X12707801Y-14720746D01*
X12707801Y-14720746D02*
X12707801Y-14777888D01*
X12707801Y-14777888D02*
X12698277Y-14796936D01*
X12698277Y-14796936D02*
X12688753Y-14806460D01*
X12688753Y-14806460D02*
X12669706Y-14815984D01*
X12669706Y-14815984D02*
X12641134Y-14815984D01*
X12822087Y-14815984D02*
X12803039Y-14806460D01*
X12803039Y-14806460D02*
X12793515Y-14787412D01*
X12793515Y-14787412D02*
X12793515Y-14615984D01*
X12974468Y-14806460D02*
X12955420Y-14815984D01*
X12955420Y-14815984D02*
X12917325Y-14815984D01*
X12917325Y-14815984D02*
X12898277Y-14806460D01*
X12898277Y-14806460D02*
X12888753Y-14787412D01*
X12888753Y-14787412D02*
X12888753Y-14711222D01*
X12888753Y-14711222D02*
X12898277Y-14692174D01*
X12898277Y-14692174D02*
X12917325Y-14682650D01*
X12917325Y-14682650D02*
X12955420Y-14682650D01*
X12955420Y-14682650D02*
X12974468Y-14692174D01*
X12974468Y-14692174D02*
X12983991Y-14711222D01*
X12983991Y-14711222D02*
X12983991Y-14730269D01*
X12983991Y-14730269D02*
X12888753Y-14749317D01*
X13060182Y-14806460D02*
X13079230Y-14815984D01*
X13079230Y-14815984D02*
X13117325Y-14815984D01*
X13117325Y-14815984D02*
X13136372Y-14806460D01*
X13136372Y-14806460D02*
X13145896Y-14787412D01*
X13145896Y-14787412D02*
X13145896Y-14777888D01*
X13145896Y-14777888D02*
X13136372Y-14758841D01*
X13136372Y-14758841D02*
X13117325Y-14749317D01*
X13117325Y-14749317D02*
X13088753Y-14749317D01*
X13088753Y-14749317D02*
X13069706Y-14739793D01*
X13069706Y-14739793D02*
X13060182Y-14720746D01*
X13060182Y-14720746D02*
X13060182Y-14711222D01*
X13060182Y-14711222D02*
X13069706Y-14692174D01*
X13069706Y-14692174D02*
X13088753Y-14682650D01*
X13088753Y-14682650D02*
X13117325Y-14682650D01*
X13117325Y-14682650D02*
X13136372Y-14692174D01*
X13212563Y-14892174D02*
X13222087Y-14882650D01*
X13222087Y-14882650D02*
X13241134Y-14854079D01*
X13241134Y-14854079D02*
X13250658Y-14835031D01*
X13250658Y-14835031D02*
X13260182Y-14806460D01*
X13260182Y-14806460D02*
X13269706Y-14758841D01*
X13269706Y-14758841D02*
X13269706Y-14720746D01*
X13269706Y-14720746D02*
X13260182Y-14673127D01*
X13260182Y-14673127D02*
X13250658Y-14644555D01*
X13250658Y-14644555D02*
X13241134Y-14625508D01*
X13241134Y-14625508D02*
X13222087Y-14596936D01*
X13222087Y-14596936D02*
X13212563Y-14587412D01*
D12*
X8387500Y-15038500D02*
X8437500Y-14988500D01*
X8387500Y-14938500D01*
X8337500Y-14988500D01*
X8387500Y-15038500D01*
D11*
X8803039Y-15079984D02*
X8688753Y-15079984D01*
X8745896Y-15079984D02*
X8745896Y-14879984D01*
X8745896Y-14879984D02*
X8726848Y-14908555D01*
X8726848Y-14908555D02*
X8707801Y-14927603D01*
X8707801Y-14927603D02*
X8688753Y-14937127D01*
X8888753Y-15060936D02*
X8898277Y-15070460D01*
X8898277Y-15070460D02*
X8888753Y-15079984D01*
X8888753Y-15079984D02*
X8879229Y-15070460D01*
X8879229Y-15070460D02*
X8888753Y-15060936D01*
X8888753Y-15060936D02*
X8888753Y-15079984D01*
X9022086Y-14879984D02*
X9041134Y-14879984D01*
X9041134Y-14879984D02*
X9060182Y-14889508D01*
X9060182Y-14889508D02*
X9069705Y-14899031D01*
X9069705Y-14899031D02*
X9079229Y-14918079D01*
X9079229Y-14918079D02*
X9088753Y-14956174D01*
X9088753Y-14956174D02*
X9088753Y-15003793D01*
X9088753Y-15003793D02*
X9079229Y-15041888D01*
X9079229Y-15041888D02*
X9069705Y-15060936D01*
X9069705Y-15060936D02*
X9060182Y-15070460D01*
X9060182Y-15070460D02*
X9041134Y-15079984D01*
X9041134Y-15079984D02*
X9022086Y-15079984D01*
X9022086Y-15079984D02*
X9003039Y-15070460D01*
X9003039Y-15070460D02*
X8993515Y-15060936D01*
X8993515Y-15060936D02*
X8983991Y-15041888D01*
X8983991Y-15041888D02*
X8974467Y-15003793D01*
X8974467Y-15003793D02*
X8974467Y-14956174D01*
X8974467Y-14956174D02*
X8983991Y-14918079D01*
X8983991Y-14918079D02*
X8993515Y-14899031D01*
X8993515Y-14899031D02*
X9003039Y-14889508D01*
X9003039Y-14889508D02*
X9022086Y-14879984D01*
X9212563Y-14879984D02*
X9231610Y-14879984D01*
X9231610Y-14879984D02*
X9250658Y-14889508D01*
X9250658Y-14889508D02*
X9260182Y-14899031D01*
X9260182Y-14899031D02*
X9269705Y-14918079D01*
X9269705Y-14918079D02*
X9279229Y-14956174D01*
X9279229Y-14956174D02*
X9279229Y-15003793D01*
X9279229Y-15003793D02*
X9269705Y-15041888D01*
X9269705Y-15041888D02*
X9260182Y-15060936D01*
X9260182Y-15060936D02*
X9250658Y-15070460D01*
X9250658Y-15070460D02*
X9231610Y-15079984D01*
X9231610Y-15079984D02*
X9212563Y-15079984D01*
X9212563Y-15079984D02*
X9193515Y-15070460D01*
X9193515Y-15070460D02*
X9183991Y-15060936D01*
X9183991Y-15060936D02*
X9174467Y-15041888D01*
X9174467Y-15041888D02*
X9164944Y-15003793D01*
X9164944Y-15003793D02*
X9164944Y-14956174D01*
X9164944Y-14956174D02*
X9174467Y-14918079D01*
X9174467Y-14918079D02*
X9183991Y-14899031D01*
X9183991Y-14899031D02*
X9193515Y-14889508D01*
X9193515Y-14889508D02*
X9212563Y-14879984D01*
X9403039Y-14879984D02*
X9422086Y-14879984D01*
X9422086Y-14879984D02*
X9441134Y-14889508D01*
X9441134Y-14889508D02*
X9450658Y-14899031D01*
X9450658Y-14899031D02*
X9460182Y-14918079D01*
X9460182Y-14918079D02*
X9469705Y-14956174D01*
X9469705Y-14956174D02*
X9469705Y-15003793D01*
X9469705Y-15003793D02*
X9460182Y-15041888D01*
X9460182Y-15041888D02*
X9450658Y-15060936D01*
X9450658Y-15060936D02*
X9441134Y-15070460D01*
X9441134Y-15070460D02*
X9422086Y-15079984D01*
X9422086Y-15079984D02*
X9403039Y-15079984D01*
X9403039Y-15079984D02*
X9383991Y-15070460D01*
X9383991Y-15070460D02*
X9374467Y-15060936D01*
X9374467Y-15060936D02*
X9364944Y-15041888D01*
X9364944Y-15041888D02*
X9355420Y-15003793D01*
X9355420Y-15003793D02*
X9355420Y-14956174D01*
X9355420Y-14956174D02*
X9364944Y-14918079D01*
X9364944Y-14918079D02*
X9374467Y-14899031D01*
X9374467Y-14899031D02*
X9383991Y-14889508D01*
X9383991Y-14889508D02*
X9403039Y-14879984D01*
X9555420Y-15079984D02*
X9555420Y-14946650D01*
X9555420Y-14965698D02*
X9564944Y-14956174D01*
X9564944Y-14956174D02*
X9583991Y-14946650D01*
X9583991Y-14946650D02*
X9612563Y-14946650D01*
X9612563Y-14946650D02*
X9631610Y-14956174D01*
X9631610Y-14956174D02*
X9641134Y-14975222D01*
X9641134Y-14975222D02*
X9641134Y-15079984D01*
X9641134Y-14975222D02*
X9650658Y-14956174D01*
X9650658Y-14956174D02*
X9669705Y-14946650D01*
X9669705Y-14946650D02*
X9698277Y-14946650D01*
X9698277Y-14946650D02*
X9717325Y-14956174D01*
X9717325Y-14956174D02*
X9726848Y-14975222D01*
X9726848Y-14975222D02*
X9726848Y-15079984D01*
X9822086Y-15079984D02*
X9822086Y-14946650D01*
X9822086Y-14965698D02*
X9831610Y-14956174D01*
X9831610Y-14956174D02*
X9850658Y-14946650D01*
X9850658Y-14946650D02*
X9879229Y-14946650D01*
X9879229Y-14946650D02*
X9898277Y-14956174D01*
X9898277Y-14956174D02*
X9907801Y-14975222D01*
X9907801Y-14975222D02*
X9907801Y-15079984D01*
X9907801Y-14975222D02*
X9917325Y-14956174D01*
X9917325Y-14956174D02*
X9936372Y-14946650D01*
X9936372Y-14946650D02*
X9964944Y-14946650D01*
X9964944Y-14946650D02*
X9983991Y-14956174D01*
X9983991Y-14956174D02*
X9993515Y-14975222D01*
X9993515Y-14975222D02*
X9993515Y-15079984D01*
X10383991Y-14870460D02*
X10212563Y-15127603D01*
X10641134Y-14879984D02*
X10660182Y-14879984D01*
X10660182Y-14879984D02*
X10679229Y-14889508D01*
X10679229Y-14889508D02*
X10688753Y-14899031D01*
X10688753Y-14899031D02*
X10698277Y-14918079D01*
X10698277Y-14918079D02*
X10707801Y-14956174D01*
X10707801Y-14956174D02*
X10707801Y-15003793D01*
X10707801Y-15003793D02*
X10698277Y-15041888D01*
X10698277Y-15041888D02*
X10688753Y-15060936D01*
X10688753Y-15060936D02*
X10679229Y-15070460D01*
X10679229Y-15070460D02*
X10660182Y-15079984D01*
X10660182Y-15079984D02*
X10641134Y-15079984D01*
X10641134Y-15079984D02*
X10622087Y-15070460D01*
X10622087Y-15070460D02*
X10612563Y-15060936D01*
X10612563Y-15060936D02*
X10603039Y-15041888D01*
X10603039Y-15041888D02*
X10593515Y-15003793D01*
X10593515Y-15003793D02*
X10593515Y-14956174D01*
X10593515Y-14956174D02*
X10603039Y-14918079D01*
X10603039Y-14918079D02*
X10612563Y-14899031D01*
X10612563Y-14899031D02*
X10622087Y-14889508D01*
X10622087Y-14889508D02*
X10641134Y-14879984D01*
X10793515Y-15060936D02*
X10803039Y-15070460D01*
X10803039Y-15070460D02*
X10793515Y-15079984D01*
X10793515Y-15079984D02*
X10783991Y-15070460D01*
X10783991Y-15070460D02*
X10793515Y-15060936D01*
X10793515Y-15060936D02*
X10793515Y-15079984D01*
X10926848Y-14879984D02*
X10945896Y-14879984D01*
X10945896Y-14879984D02*
X10964944Y-14889508D01*
X10964944Y-14889508D02*
X10974468Y-14899031D01*
X10974468Y-14899031D02*
X10983991Y-14918079D01*
X10983991Y-14918079D02*
X10993515Y-14956174D01*
X10993515Y-14956174D02*
X10993515Y-15003793D01*
X10993515Y-15003793D02*
X10983991Y-15041888D01*
X10983991Y-15041888D02*
X10974468Y-15060936D01*
X10974468Y-15060936D02*
X10964944Y-15070460D01*
X10964944Y-15070460D02*
X10945896Y-15079984D01*
X10945896Y-15079984D02*
X10926848Y-15079984D01*
X10926848Y-15079984D02*
X10907801Y-15070460D01*
X10907801Y-15070460D02*
X10898277Y-15060936D01*
X10898277Y-15060936D02*
X10888753Y-15041888D01*
X10888753Y-15041888D02*
X10879229Y-15003793D01*
X10879229Y-15003793D02*
X10879229Y-14956174D01*
X10879229Y-14956174D02*
X10888753Y-14918079D01*
X10888753Y-14918079D02*
X10898277Y-14899031D01*
X10898277Y-14899031D02*
X10907801Y-14889508D01*
X10907801Y-14889508D02*
X10926848Y-14879984D01*
X11060182Y-14879984D02*
X11183991Y-14879984D01*
X11183991Y-14879984D02*
X11117325Y-14956174D01*
X11117325Y-14956174D02*
X11145896Y-14956174D01*
X11145896Y-14956174D02*
X11164944Y-14965698D01*
X11164944Y-14965698D02*
X11174468Y-14975222D01*
X11174468Y-14975222D02*
X11183991Y-14994269D01*
X11183991Y-14994269D02*
X11183991Y-15041888D01*
X11183991Y-15041888D02*
X11174468Y-15060936D01*
X11174468Y-15060936D02*
X11164944Y-15070460D01*
X11164944Y-15070460D02*
X11145896Y-15079984D01*
X11145896Y-15079984D02*
X11088753Y-15079984D01*
X11088753Y-15079984D02*
X11069706Y-15070460D01*
X11069706Y-15070460D02*
X11060182Y-15060936D01*
X11279229Y-15079984D02*
X11317325Y-15079984D01*
X11317325Y-15079984D02*
X11336372Y-15070460D01*
X11336372Y-15070460D02*
X11345896Y-15060936D01*
X11345896Y-15060936D02*
X11364944Y-15032365D01*
X11364944Y-15032365D02*
X11374467Y-14994269D01*
X11374467Y-14994269D02*
X11374467Y-14918079D01*
X11374467Y-14918079D02*
X11364944Y-14899031D01*
X11364944Y-14899031D02*
X11355420Y-14889508D01*
X11355420Y-14889508D02*
X11336372Y-14879984D01*
X11336372Y-14879984D02*
X11298277Y-14879984D01*
X11298277Y-14879984D02*
X11279229Y-14889508D01*
X11279229Y-14889508D02*
X11269706Y-14899031D01*
X11269706Y-14899031D02*
X11260182Y-14918079D01*
X11260182Y-14918079D02*
X11260182Y-14965698D01*
X11260182Y-14965698D02*
X11269706Y-14984746D01*
X11269706Y-14984746D02*
X11279229Y-14994269D01*
X11279229Y-14994269D02*
X11298277Y-15003793D01*
X11298277Y-15003793D02*
X11336372Y-15003793D01*
X11336372Y-15003793D02*
X11355420Y-14994269D01*
X11355420Y-14994269D02*
X11364944Y-14984746D01*
X11364944Y-14984746D02*
X11374467Y-14965698D01*
X11545896Y-14946650D02*
X11545896Y-15079984D01*
X11498277Y-14870460D02*
X11450658Y-15013317D01*
X11450658Y-15013317D02*
X11574467Y-15013317D01*
X11641134Y-14879984D02*
X11641134Y-14918079D01*
X11717325Y-14879984D02*
X11717325Y-14918079D01*
X12012563Y-15156174D02*
X12003039Y-15146650D01*
X12003039Y-15146650D02*
X11983991Y-15118079D01*
X11983991Y-15118079D02*
X11974468Y-15099031D01*
X11974468Y-15099031D02*
X11964944Y-15070460D01*
X11964944Y-15070460D02*
X11955420Y-15022841D01*
X11955420Y-15022841D02*
X11955420Y-14984746D01*
X11955420Y-14984746D02*
X11964944Y-14937127D01*
X11964944Y-14937127D02*
X11974468Y-14908555D01*
X11974468Y-14908555D02*
X11983991Y-14889508D01*
X11983991Y-14889508D02*
X12003039Y-14860936D01*
X12003039Y-14860936D02*
X12012563Y-14851412D01*
X12174468Y-14879984D02*
X12136372Y-14879984D01*
X12136372Y-14879984D02*
X12117325Y-14889508D01*
X12117325Y-14889508D02*
X12107801Y-14899031D01*
X12107801Y-14899031D02*
X12088753Y-14927603D01*
X12088753Y-14927603D02*
X12079229Y-14965698D01*
X12079229Y-14965698D02*
X12079229Y-15041888D01*
X12079229Y-15041888D02*
X12088753Y-15060936D01*
X12088753Y-15060936D02*
X12098277Y-15070460D01*
X12098277Y-15070460D02*
X12117325Y-15079984D01*
X12117325Y-15079984D02*
X12155420Y-15079984D01*
X12155420Y-15079984D02*
X12174468Y-15070460D01*
X12174468Y-15070460D02*
X12183991Y-15060936D01*
X12183991Y-15060936D02*
X12193515Y-15041888D01*
X12193515Y-15041888D02*
X12193515Y-14994269D01*
X12193515Y-14994269D02*
X12183991Y-14975222D01*
X12183991Y-14975222D02*
X12174468Y-14965698D01*
X12174468Y-14965698D02*
X12155420Y-14956174D01*
X12155420Y-14956174D02*
X12117325Y-14956174D01*
X12117325Y-14956174D02*
X12098277Y-14965698D01*
X12098277Y-14965698D02*
X12088753Y-14975222D01*
X12088753Y-14975222D02*
X12079229Y-14994269D01*
X12431610Y-15079984D02*
X12431610Y-14879984D01*
X12517325Y-15079984D02*
X12517325Y-14975222D01*
X12517325Y-14975222D02*
X12507801Y-14956174D01*
X12507801Y-14956174D02*
X12488753Y-14946650D01*
X12488753Y-14946650D02*
X12460182Y-14946650D01*
X12460182Y-14946650D02*
X12441134Y-14956174D01*
X12441134Y-14956174D02*
X12431610Y-14965698D01*
X12641134Y-15079984D02*
X12622087Y-15070460D01*
X12622087Y-15070460D02*
X12612563Y-15060936D01*
X12612563Y-15060936D02*
X12603039Y-15041888D01*
X12603039Y-15041888D02*
X12603039Y-14984746D01*
X12603039Y-14984746D02*
X12612563Y-14965698D01*
X12612563Y-14965698D02*
X12622087Y-14956174D01*
X12622087Y-14956174D02*
X12641134Y-14946650D01*
X12641134Y-14946650D02*
X12669706Y-14946650D01*
X12669706Y-14946650D02*
X12688753Y-14956174D01*
X12688753Y-14956174D02*
X12698277Y-14965698D01*
X12698277Y-14965698D02*
X12707801Y-14984746D01*
X12707801Y-14984746D02*
X12707801Y-15041888D01*
X12707801Y-15041888D02*
X12698277Y-15060936D01*
X12698277Y-15060936D02*
X12688753Y-15070460D01*
X12688753Y-15070460D02*
X12669706Y-15079984D01*
X12669706Y-15079984D02*
X12641134Y-15079984D01*
X12822087Y-15079984D02*
X12803039Y-15070460D01*
X12803039Y-15070460D02*
X12793515Y-15051412D01*
X12793515Y-15051412D02*
X12793515Y-14879984D01*
X12974468Y-15070460D02*
X12955420Y-15079984D01*
X12955420Y-15079984D02*
X12917325Y-15079984D01*
X12917325Y-15079984D02*
X12898277Y-15070460D01*
X12898277Y-15070460D02*
X12888753Y-15051412D01*
X12888753Y-15051412D02*
X12888753Y-14975222D01*
X12888753Y-14975222D02*
X12898277Y-14956174D01*
X12898277Y-14956174D02*
X12917325Y-14946650D01*
X12917325Y-14946650D02*
X12955420Y-14946650D01*
X12955420Y-14946650D02*
X12974468Y-14956174D01*
X12974468Y-14956174D02*
X12983991Y-14975222D01*
X12983991Y-14975222D02*
X12983991Y-14994269D01*
X12983991Y-14994269D02*
X12888753Y-15013317D01*
X13060182Y-15070460D02*
X13079230Y-15079984D01*
X13079230Y-15079984D02*
X13117325Y-15079984D01*
X13117325Y-15079984D02*
X13136372Y-15070460D01*
X13136372Y-15070460D02*
X13145896Y-15051412D01*
X13145896Y-15051412D02*
X13145896Y-15041888D01*
X13145896Y-15041888D02*
X13136372Y-15022841D01*
X13136372Y-15022841D02*
X13117325Y-15013317D01*
X13117325Y-15013317D02*
X13088753Y-15013317D01*
X13088753Y-15013317D02*
X13069706Y-15003793D01*
X13069706Y-15003793D02*
X13060182Y-14984746D01*
X13060182Y-14984746D02*
X13060182Y-14975222D01*
X13060182Y-14975222D02*
X13069706Y-14956174D01*
X13069706Y-14956174D02*
X13088753Y-14946650D01*
X13088753Y-14946650D02*
X13117325Y-14946650D01*
X13117325Y-14946650D02*
X13136372Y-14956174D01*
X13212563Y-15156174D02*
X13222087Y-15146650D01*
X13222087Y-15146650D02*
X13241134Y-15118079D01*
X13241134Y-15118079D02*
X13250658Y-15099031D01*
X13250658Y-15099031D02*
X13260182Y-15070460D01*
X13260182Y-15070460D02*
X13269706Y-15022841D01*
X13269706Y-15022841D02*
X13269706Y-14984746D01*
X13269706Y-14984746D02*
X13260182Y-14937127D01*
X13260182Y-14937127D02*
X13250658Y-14908555D01*
X13250658Y-14908555D02*
X13241134Y-14889508D01*
X13241134Y-14889508D02*
X13222087Y-14860936D01*
X13222087Y-14860936D02*
X13212563Y-14851412D01*
D13*
X8328500Y-15198000D02*
X8437500Y-15307000D01*
X8437500Y-15198000D02*
X8328500Y-15307000D01*
X8437500Y-15252500D02*
G75*
G02*
X8328500Y-15252500I-54500J0D01*
G01*
X8328500Y-15252500D02*
G75*
G02*
X8437500Y-15252500I54500J0D01*
G01*
D11*
X8803039Y-15343984D02*
X8688753Y-15343984D01*
X8745896Y-15343984D02*
X8745896Y-15143984D01*
X8745896Y-15143984D02*
X8726848Y-15172555D01*
X8726848Y-15172555D02*
X8707801Y-15191603D01*
X8707801Y-15191603D02*
X8688753Y-15201127D01*
X8888753Y-15324936D02*
X8898277Y-15334460D01*
X8898277Y-15334460D02*
X8888753Y-15343984D01*
X8888753Y-15343984D02*
X8879229Y-15334460D01*
X8879229Y-15334460D02*
X8888753Y-15324936D01*
X8888753Y-15324936D02*
X8888753Y-15343984D01*
X9022086Y-15143984D02*
X9041134Y-15143984D01*
X9041134Y-15143984D02*
X9060182Y-15153508D01*
X9060182Y-15153508D02*
X9069705Y-15163031D01*
X9069705Y-15163031D02*
X9079229Y-15182079D01*
X9079229Y-15182079D02*
X9088753Y-15220174D01*
X9088753Y-15220174D02*
X9088753Y-15267793D01*
X9088753Y-15267793D02*
X9079229Y-15305888D01*
X9079229Y-15305888D02*
X9069705Y-15324936D01*
X9069705Y-15324936D02*
X9060182Y-15334460D01*
X9060182Y-15334460D02*
X9041134Y-15343984D01*
X9041134Y-15343984D02*
X9022086Y-15343984D01*
X9022086Y-15343984D02*
X9003039Y-15334460D01*
X9003039Y-15334460D02*
X8993515Y-15324936D01*
X8993515Y-15324936D02*
X8983991Y-15305888D01*
X8983991Y-15305888D02*
X8974467Y-15267793D01*
X8974467Y-15267793D02*
X8974467Y-15220174D01*
X8974467Y-15220174D02*
X8983991Y-15182079D01*
X8983991Y-15182079D02*
X8993515Y-15163031D01*
X8993515Y-15163031D02*
X9003039Y-15153508D01*
X9003039Y-15153508D02*
X9022086Y-15143984D01*
X9183991Y-15343984D02*
X9222086Y-15343984D01*
X9222086Y-15343984D02*
X9241134Y-15334460D01*
X9241134Y-15334460D02*
X9250658Y-15324936D01*
X9250658Y-15324936D02*
X9269705Y-15296365D01*
X9269705Y-15296365D02*
X9279229Y-15258269D01*
X9279229Y-15258269D02*
X9279229Y-15182079D01*
X9279229Y-15182079D02*
X9269705Y-15163031D01*
X9269705Y-15163031D02*
X9260182Y-15153508D01*
X9260182Y-15153508D02*
X9241134Y-15143984D01*
X9241134Y-15143984D02*
X9203039Y-15143984D01*
X9203039Y-15143984D02*
X9183991Y-15153508D01*
X9183991Y-15153508D02*
X9174467Y-15163031D01*
X9174467Y-15163031D02*
X9164944Y-15182079D01*
X9164944Y-15182079D02*
X9164944Y-15229698D01*
X9164944Y-15229698D02*
X9174467Y-15248746D01*
X9174467Y-15248746D02*
X9183991Y-15258269D01*
X9183991Y-15258269D02*
X9203039Y-15267793D01*
X9203039Y-15267793D02*
X9241134Y-15267793D01*
X9241134Y-15267793D02*
X9260182Y-15258269D01*
X9260182Y-15258269D02*
X9269705Y-15248746D01*
X9269705Y-15248746D02*
X9279229Y-15229698D01*
X9403039Y-15143984D02*
X9422086Y-15143984D01*
X9422086Y-15143984D02*
X9441134Y-15153508D01*
X9441134Y-15153508D02*
X9450658Y-15163031D01*
X9450658Y-15163031D02*
X9460182Y-15182079D01*
X9460182Y-15182079D02*
X9469705Y-15220174D01*
X9469705Y-15220174D02*
X9469705Y-15267793D01*
X9469705Y-15267793D02*
X9460182Y-15305888D01*
X9460182Y-15305888D02*
X9450658Y-15324936D01*
X9450658Y-15324936D02*
X9441134Y-15334460D01*
X9441134Y-15334460D02*
X9422086Y-15343984D01*
X9422086Y-15343984D02*
X9403039Y-15343984D01*
X9403039Y-15343984D02*
X9383991Y-15334460D01*
X9383991Y-15334460D02*
X9374467Y-15324936D01*
X9374467Y-15324936D02*
X9364944Y-15305888D01*
X9364944Y-15305888D02*
X9355420Y-15267793D01*
X9355420Y-15267793D02*
X9355420Y-15220174D01*
X9355420Y-15220174D02*
X9364944Y-15182079D01*
X9364944Y-15182079D02*
X9374467Y-15163031D01*
X9374467Y-15163031D02*
X9383991Y-15153508D01*
X9383991Y-15153508D02*
X9403039Y-15143984D01*
X9555420Y-15343984D02*
X9555420Y-15210650D01*
X9555420Y-15229698D02*
X9564944Y-15220174D01*
X9564944Y-15220174D02*
X9583991Y-15210650D01*
X9583991Y-15210650D02*
X9612563Y-15210650D01*
X9612563Y-15210650D02*
X9631610Y-15220174D01*
X9631610Y-15220174D02*
X9641134Y-15239222D01*
X9641134Y-15239222D02*
X9641134Y-15343984D01*
X9641134Y-15239222D02*
X9650658Y-15220174D01*
X9650658Y-15220174D02*
X9669705Y-15210650D01*
X9669705Y-15210650D02*
X9698277Y-15210650D01*
X9698277Y-15210650D02*
X9717325Y-15220174D01*
X9717325Y-15220174D02*
X9726848Y-15239222D01*
X9726848Y-15239222D02*
X9726848Y-15343984D01*
X9822086Y-15343984D02*
X9822086Y-15210650D01*
X9822086Y-15229698D02*
X9831610Y-15220174D01*
X9831610Y-15220174D02*
X9850658Y-15210650D01*
X9850658Y-15210650D02*
X9879229Y-15210650D01*
X9879229Y-15210650D02*
X9898277Y-15220174D01*
X9898277Y-15220174D02*
X9907801Y-15239222D01*
X9907801Y-15239222D02*
X9907801Y-15343984D01*
X9907801Y-15239222D02*
X9917325Y-15220174D01*
X9917325Y-15220174D02*
X9936372Y-15210650D01*
X9936372Y-15210650D02*
X9964944Y-15210650D01*
X9964944Y-15210650D02*
X9983991Y-15220174D01*
X9983991Y-15220174D02*
X9993515Y-15239222D01*
X9993515Y-15239222D02*
X9993515Y-15343984D01*
X10383991Y-15134460D02*
X10212563Y-15391603D01*
X10641134Y-15143984D02*
X10660182Y-15143984D01*
X10660182Y-15143984D02*
X10679229Y-15153508D01*
X10679229Y-15153508D02*
X10688753Y-15163031D01*
X10688753Y-15163031D02*
X10698277Y-15182079D01*
X10698277Y-15182079D02*
X10707801Y-15220174D01*
X10707801Y-15220174D02*
X10707801Y-15267793D01*
X10707801Y-15267793D02*
X10698277Y-15305888D01*
X10698277Y-15305888D02*
X10688753Y-15324936D01*
X10688753Y-15324936D02*
X10679229Y-15334460D01*
X10679229Y-15334460D02*
X10660182Y-15343984D01*
X10660182Y-15343984D02*
X10641134Y-15343984D01*
X10641134Y-15343984D02*
X10622087Y-15334460D01*
X10622087Y-15334460D02*
X10612563Y-15324936D01*
X10612563Y-15324936D02*
X10603039Y-15305888D01*
X10603039Y-15305888D02*
X10593515Y-15267793D01*
X10593515Y-15267793D02*
X10593515Y-15220174D01*
X10593515Y-15220174D02*
X10603039Y-15182079D01*
X10603039Y-15182079D02*
X10612563Y-15163031D01*
X10612563Y-15163031D02*
X10622087Y-15153508D01*
X10622087Y-15153508D02*
X10641134Y-15143984D01*
X10793515Y-15324936D02*
X10803039Y-15334460D01*
X10803039Y-15334460D02*
X10793515Y-15343984D01*
X10793515Y-15343984D02*
X10783991Y-15334460D01*
X10783991Y-15334460D02*
X10793515Y-15324936D01*
X10793515Y-15324936D02*
X10793515Y-15343984D01*
X10926848Y-15143984D02*
X10945896Y-15143984D01*
X10945896Y-15143984D02*
X10964944Y-15153508D01*
X10964944Y-15153508D02*
X10974468Y-15163031D01*
X10974468Y-15163031D02*
X10983991Y-15182079D01*
X10983991Y-15182079D02*
X10993515Y-15220174D01*
X10993515Y-15220174D02*
X10993515Y-15267793D01*
X10993515Y-15267793D02*
X10983991Y-15305888D01*
X10983991Y-15305888D02*
X10974468Y-15324936D01*
X10974468Y-15324936D02*
X10964944Y-15334460D01*
X10964944Y-15334460D02*
X10945896Y-15343984D01*
X10945896Y-15343984D02*
X10926848Y-15343984D01*
X10926848Y-15343984D02*
X10907801Y-15334460D01*
X10907801Y-15334460D02*
X10898277Y-15324936D01*
X10898277Y-15324936D02*
X10888753Y-15305888D01*
X10888753Y-15305888D02*
X10879229Y-15267793D01*
X10879229Y-15267793D02*
X10879229Y-15220174D01*
X10879229Y-15220174D02*
X10888753Y-15182079D01*
X10888753Y-15182079D02*
X10898277Y-15163031D01*
X10898277Y-15163031D02*
X10907801Y-15153508D01*
X10907801Y-15153508D02*
X10926848Y-15143984D01*
X11164944Y-15210650D02*
X11164944Y-15343984D01*
X11117325Y-15134460D02*
X11069706Y-15277317D01*
X11069706Y-15277317D02*
X11193515Y-15277317D01*
X11260182Y-15163031D02*
X11269706Y-15153508D01*
X11269706Y-15153508D02*
X11288753Y-15143984D01*
X11288753Y-15143984D02*
X11336372Y-15143984D01*
X11336372Y-15143984D02*
X11355420Y-15153508D01*
X11355420Y-15153508D02*
X11364944Y-15163031D01*
X11364944Y-15163031D02*
X11374467Y-15182079D01*
X11374467Y-15182079D02*
X11374467Y-15201127D01*
X11374467Y-15201127D02*
X11364944Y-15229698D01*
X11364944Y-15229698D02*
X11250658Y-15343984D01*
X11250658Y-15343984D02*
X11374467Y-15343984D01*
X11469706Y-15343984D02*
X11507801Y-15343984D01*
X11507801Y-15343984D02*
X11526848Y-15334460D01*
X11526848Y-15334460D02*
X11536372Y-15324936D01*
X11536372Y-15324936D02*
X11555420Y-15296365D01*
X11555420Y-15296365D02*
X11564944Y-15258269D01*
X11564944Y-15258269D02*
X11564944Y-15182079D01*
X11564944Y-15182079D02*
X11555420Y-15163031D01*
X11555420Y-15163031D02*
X11545896Y-15153508D01*
X11545896Y-15153508D02*
X11526848Y-15143984D01*
X11526848Y-15143984D02*
X11488753Y-15143984D01*
X11488753Y-15143984D02*
X11469706Y-15153508D01*
X11469706Y-15153508D02*
X11460182Y-15163031D01*
X11460182Y-15163031D02*
X11450658Y-15182079D01*
X11450658Y-15182079D02*
X11450658Y-15229698D01*
X11450658Y-15229698D02*
X11460182Y-15248746D01*
X11460182Y-15248746D02*
X11469706Y-15258269D01*
X11469706Y-15258269D02*
X11488753Y-15267793D01*
X11488753Y-15267793D02*
X11526848Y-15267793D01*
X11526848Y-15267793D02*
X11545896Y-15258269D01*
X11545896Y-15258269D02*
X11555420Y-15248746D01*
X11555420Y-15248746D02*
X11564944Y-15229698D01*
X11641134Y-15143984D02*
X11641134Y-15182079D01*
X11717325Y-15143984D02*
X11717325Y-15182079D01*
X12012563Y-15420174D02*
X12003039Y-15410650D01*
X12003039Y-15410650D02*
X11983991Y-15382079D01*
X11983991Y-15382079D02*
X11974468Y-15363031D01*
X11974468Y-15363031D02*
X11964944Y-15334460D01*
X11964944Y-15334460D02*
X11955420Y-15286841D01*
X11955420Y-15286841D02*
X11955420Y-15248746D01*
X11955420Y-15248746D02*
X11964944Y-15201127D01*
X11964944Y-15201127D02*
X11974468Y-15172555D01*
X11974468Y-15172555D02*
X11983991Y-15153508D01*
X11983991Y-15153508D02*
X12003039Y-15124936D01*
X12003039Y-15124936D02*
X12012563Y-15115412D01*
X12117325Y-15229698D02*
X12098277Y-15220174D01*
X12098277Y-15220174D02*
X12088753Y-15210650D01*
X12088753Y-15210650D02*
X12079229Y-15191603D01*
X12079229Y-15191603D02*
X12079229Y-15182079D01*
X12079229Y-15182079D02*
X12088753Y-15163031D01*
X12088753Y-15163031D02*
X12098277Y-15153508D01*
X12098277Y-15153508D02*
X12117325Y-15143984D01*
X12117325Y-15143984D02*
X12155420Y-15143984D01*
X12155420Y-15143984D02*
X12174468Y-15153508D01*
X12174468Y-15153508D02*
X12183991Y-15163031D01*
X12183991Y-15163031D02*
X12193515Y-15182079D01*
X12193515Y-15182079D02*
X12193515Y-15191603D01*
X12193515Y-15191603D02*
X12183991Y-15210650D01*
X12183991Y-15210650D02*
X12174468Y-15220174D01*
X12174468Y-15220174D02*
X12155420Y-15229698D01*
X12155420Y-15229698D02*
X12117325Y-15229698D01*
X12117325Y-15229698D02*
X12098277Y-15239222D01*
X12098277Y-15239222D02*
X12088753Y-15248746D01*
X12088753Y-15248746D02*
X12079229Y-15267793D01*
X12079229Y-15267793D02*
X12079229Y-15305888D01*
X12079229Y-15305888D02*
X12088753Y-15324936D01*
X12088753Y-15324936D02*
X12098277Y-15334460D01*
X12098277Y-15334460D02*
X12117325Y-15343984D01*
X12117325Y-15343984D02*
X12155420Y-15343984D01*
X12155420Y-15343984D02*
X12174468Y-15334460D01*
X12174468Y-15334460D02*
X12183991Y-15324936D01*
X12183991Y-15324936D02*
X12193515Y-15305888D01*
X12193515Y-15305888D02*
X12193515Y-15267793D01*
X12193515Y-15267793D02*
X12183991Y-15248746D01*
X12183991Y-15248746D02*
X12174468Y-15239222D01*
X12174468Y-15239222D02*
X12155420Y-15229698D01*
X12364944Y-15143984D02*
X12326848Y-15143984D01*
X12326848Y-15143984D02*
X12307801Y-15153508D01*
X12307801Y-15153508D02*
X12298277Y-15163031D01*
X12298277Y-15163031D02*
X12279229Y-15191603D01*
X12279229Y-15191603D02*
X12269706Y-15229698D01*
X12269706Y-15229698D02*
X12269706Y-15305888D01*
X12269706Y-15305888D02*
X12279229Y-15324936D01*
X12279229Y-15324936D02*
X12288753Y-15334460D01*
X12288753Y-15334460D02*
X12307801Y-15343984D01*
X12307801Y-15343984D02*
X12345896Y-15343984D01*
X12345896Y-15343984D02*
X12364944Y-15334460D01*
X12364944Y-15334460D02*
X12374468Y-15324936D01*
X12374468Y-15324936D02*
X12383991Y-15305888D01*
X12383991Y-15305888D02*
X12383991Y-15258269D01*
X12383991Y-15258269D02*
X12374468Y-15239222D01*
X12374468Y-15239222D02*
X12364944Y-15229698D01*
X12364944Y-15229698D02*
X12345896Y-15220174D01*
X12345896Y-15220174D02*
X12307801Y-15220174D01*
X12307801Y-15220174D02*
X12288753Y-15229698D01*
X12288753Y-15229698D02*
X12279229Y-15239222D01*
X12279229Y-15239222D02*
X12269706Y-15258269D01*
X12622087Y-15343984D02*
X12622087Y-15143984D01*
X12707801Y-15343984D02*
X12707801Y-15239222D01*
X12707801Y-15239222D02*
X12698277Y-15220174D01*
X12698277Y-15220174D02*
X12679230Y-15210650D01*
X12679230Y-15210650D02*
X12650658Y-15210650D01*
X12650658Y-15210650D02*
X12631610Y-15220174D01*
X12631610Y-15220174D02*
X12622087Y-15229698D01*
X12831610Y-15343984D02*
X12812563Y-15334460D01*
X12812563Y-15334460D02*
X12803039Y-15324936D01*
X12803039Y-15324936D02*
X12793515Y-15305888D01*
X12793515Y-15305888D02*
X12793515Y-15248746D01*
X12793515Y-15248746D02*
X12803039Y-15229698D01*
X12803039Y-15229698D02*
X12812563Y-15220174D01*
X12812563Y-15220174D02*
X12831610Y-15210650D01*
X12831610Y-15210650D02*
X12860182Y-15210650D01*
X12860182Y-15210650D02*
X12879230Y-15220174D01*
X12879230Y-15220174D02*
X12888753Y-15229698D01*
X12888753Y-15229698D02*
X12898277Y-15248746D01*
X12898277Y-15248746D02*
X12898277Y-15305888D01*
X12898277Y-15305888D02*
X12888753Y-15324936D01*
X12888753Y-15324936D02*
X12879230Y-15334460D01*
X12879230Y-15334460D02*
X12860182Y-15343984D01*
X12860182Y-15343984D02*
X12831610Y-15343984D01*
X13012563Y-15343984D02*
X12993515Y-15334460D01*
X12993515Y-15334460D02*
X12983991Y-15315412D01*
X12983991Y-15315412D02*
X12983991Y-15143984D01*
X13164944Y-15334460D02*
X13145896Y-15343984D01*
X13145896Y-15343984D02*
X13107801Y-15343984D01*
X13107801Y-15343984D02*
X13088753Y-15334460D01*
X13088753Y-15334460D02*
X13079230Y-15315412D01*
X13079230Y-15315412D02*
X13079230Y-15239222D01*
X13079230Y-15239222D02*
X13088753Y-15220174D01*
X13088753Y-15220174D02*
X13107801Y-15210650D01*
X13107801Y-15210650D02*
X13145896Y-15210650D01*
X13145896Y-15210650D02*
X13164944Y-15220174D01*
X13164944Y-15220174D02*
X13174468Y-15239222D01*
X13174468Y-15239222D02*
X13174468Y-15258269D01*
X13174468Y-15258269D02*
X13079230Y-15277317D01*
X13250658Y-15334460D02*
X13269706Y-15343984D01*
X13269706Y-15343984D02*
X13307801Y-15343984D01*
X13307801Y-15343984D02*
X13326849Y-15334460D01*
X13326849Y-15334460D02*
X13336372Y-15315412D01*
X13336372Y-15315412D02*
X13336372Y-15305888D01*
X13336372Y-15305888D02*
X13326849Y-15286841D01*
X13326849Y-15286841D02*
X13307801Y-15277317D01*
X13307801Y-15277317D02*
X13279230Y-15277317D01*
X13279230Y-15277317D02*
X13260182Y-15267793D01*
X13260182Y-15267793D02*
X13250658Y-15248746D01*
X13250658Y-15248746D02*
X13250658Y-15239222D01*
X13250658Y-15239222D02*
X13260182Y-15220174D01*
X13260182Y-15220174D02*
X13279230Y-15210650D01*
X13279230Y-15210650D02*
X13307801Y-15210650D01*
X13307801Y-15210650D02*
X13326849Y-15220174D01*
X13403039Y-15420174D02*
X13412563Y-15410650D01*
X13412563Y-15410650D02*
X13431611Y-15382079D01*
X13431611Y-15382079D02*
X13441134Y-15363031D01*
X13441134Y-15363031D02*
X13450658Y-15334460D01*
X13450658Y-15334460D02*
X13460182Y-15286841D01*
X13460182Y-15286841D02*
X13460182Y-15248746D01*
X13460182Y-15248746D02*
X13450658Y-15201127D01*
X13450658Y-15201127D02*
X13441134Y-15172555D01*
X13441134Y-15172555D02*
X13431611Y-15153508D01*
X13431611Y-15153508D02*
X13412563Y-15124936D01*
X13412563Y-15124936D02*
X13403039Y-15115412D01*
D14*
X8317500Y-15456500D02*
X8437500Y-15576500D01*
X8437500Y-15456500D02*
X8317500Y-15576500D01*
X8377500Y-15456500D02*
X8377500Y-15576500D01*
X8317500Y-15516500D02*
X8437500Y-15516500D01*
D11*
X8803039Y-15607984D02*
X8688753Y-15607984D01*
X8745896Y-15607984D02*
X8745896Y-15407984D01*
X8745896Y-15407984D02*
X8726848Y-15436555D01*
X8726848Y-15436555D02*
X8707801Y-15455603D01*
X8707801Y-15455603D02*
X8688753Y-15465127D01*
X8888753Y-15588936D02*
X8898277Y-15598460D01*
X8898277Y-15598460D02*
X8888753Y-15607984D01*
X8888753Y-15607984D02*
X8879229Y-15598460D01*
X8879229Y-15598460D02*
X8888753Y-15588936D01*
X8888753Y-15588936D02*
X8888753Y-15607984D01*
X8974467Y-15427031D02*
X8983991Y-15417508D01*
X8983991Y-15417508D02*
X9003039Y-15407984D01*
X9003039Y-15407984D02*
X9050658Y-15407984D01*
X9050658Y-15407984D02*
X9069705Y-15417508D01*
X9069705Y-15417508D02*
X9079229Y-15427031D01*
X9079229Y-15427031D02*
X9088753Y-15446079D01*
X9088753Y-15446079D02*
X9088753Y-15465127D01*
X9088753Y-15465127D02*
X9079229Y-15493698D01*
X9079229Y-15493698D02*
X8964944Y-15607984D01*
X8964944Y-15607984D02*
X9088753Y-15607984D01*
X9212563Y-15407984D02*
X9231610Y-15407984D01*
X9231610Y-15407984D02*
X9250658Y-15417508D01*
X9250658Y-15417508D02*
X9260182Y-15427031D01*
X9260182Y-15427031D02*
X9269705Y-15446079D01*
X9269705Y-15446079D02*
X9279229Y-15484174D01*
X9279229Y-15484174D02*
X9279229Y-15531793D01*
X9279229Y-15531793D02*
X9269705Y-15569888D01*
X9269705Y-15569888D02*
X9260182Y-15588936D01*
X9260182Y-15588936D02*
X9250658Y-15598460D01*
X9250658Y-15598460D02*
X9231610Y-15607984D01*
X9231610Y-15607984D02*
X9212563Y-15607984D01*
X9212563Y-15607984D02*
X9193515Y-15598460D01*
X9193515Y-15598460D02*
X9183991Y-15588936D01*
X9183991Y-15588936D02*
X9174467Y-15569888D01*
X9174467Y-15569888D02*
X9164944Y-15531793D01*
X9164944Y-15531793D02*
X9164944Y-15484174D01*
X9164944Y-15484174D02*
X9174467Y-15446079D01*
X9174467Y-15446079D02*
X9183991Y-15427031D01*
X9183991Y-15427031D02*
X9193515Y-15417508D01*
X9193515Y-15417508D02*
X9212563Y-15407984D01*
X9403039Y-15407984D02*
X9422086Y-15407984D01*
X9422086Y-15407984D02*
X9441134Y-15417508D01*
X9441134Y-15417508D02*
X9450658Y-15427031D01*
X9450658Y-15427031D02*
X9460182Y-15446079D01*
X9460182Y-15446079D02*
X9469705Y-15484174D01*
X9469705Y-15484174D02*
X9469705Y-15531793D01*
X9469705Y-15531793D02*
X9460182Y-15569888D01*
X9460182Y-15569888D02*
X9450658Y-15588936D01*
X9450658Y-15588936D02*
X9441134Y-15598460D01*
X9441134Y-15598460D02*
X9422086Y-15607984D01*
X9422086Y-15607984D02*
X9403039Y-15607984D01*
X9403039Y-15607984D02*
X9383991Y-15598460D01*
X9383991Y-15598460D02*
X9374467Y-15588936D01*
X9374467Y-15588936D02*
X9364944Y-15569888D01*
X9364944Y-15569888D02*
X9355420Y-15531793D01*
X9355420Y-15531793D02*
X9355420Y-15484174D01*
X9355420Y-15484174D02*
X9364944Y-15446079D01*
X9364944Y-15446079D02*
X9374467Y-15427031D01*
X9374467Y-15427031D02*
X9383991Y-15417508D01*
X9383991Y-15417508D02*
X9403039Y-15407984D01*
X9555420Y-15607984D02*
X9555420Y-15474650D01*
X9555420Y-15493698D02*
X9564944Y-15484174D01*
X9564944Y-15484174D02*
X9583991Y-15474650D01*
X9583991Y-15474650D02*
X9612563Y-15474650D01*
X9612563Y-15474650D02*
X9631610Y-15484174D01*
X9631610Y-15484174D02*
X9641134Y-15503222D01*
X9641134Y-15503222D02*
X9641134Y-15607984D01*
X9641134Y-15503222D02*
X9650658Y-15484174D01*
X9650658Y-15484174D02*
X9669705Y-15474650D01*
X9669705Y-15474650D02*
X9698277Y-15474650D01*
X9698277Y-15474650D02*
X9717325Y-15484174D01*
X9717325Y-15484174D02*
X9726848Y-15503222D01*
X9726848Y-15503222D02*
X9726848Y-15607984D01*
X9822086Y-15607984D02*
X9822086Y-15474650D01*
X9822086Y-15493698D02*
X9831610Y-15484174D01*
X9831610Y-15484174D02*
X9850658Y-15474650D01*
X9850658Y-15474650D02*
X9879229Y-15474650D01*
X9879229Y-15474650D02*
X9898277Y-15484174D01*
X9898277Y-15484174D02*
X9907801Y-15503222D01*
X9907801Y-15503222D02*
X9907801Y-15607984D01*
X9907801Y-15503222D02*
X9917325Y-15484174D01*
X9917325Y-15484174D02*
X9936372Y-15474650D01*
X9936372Y-15474650D02*
X9964944Y-15474650D01*
X9964944Y-15474650D02*
X9983991Y-15484174D01*
X9983991Y-15484174D02*
X9993515Y-15503222D01*
X9993515Y-15503222D02*
X9993515Y-15607984D01*
X10383991Y-15398460D02*
X10212563Y-15655603D01*
X10641134Y-15407984D02*
X10660182Y-15407984D01*
X10660182Y-15407984D02*
X10679229Y-15417508D01*
X10679229Y-15417508D02*
X10688753Y-15427031D01*
X10688753Y-15427031D02*
X10698277Y-15446079D01*
X10698277Y-15446079D02*
X10707801Y-15484174D01*
X10707801Y-15484174D02*
X10707801Y-15531793D01*
X10707801Y-15531793D02*
X10698277Y-15569888D01*
X10698277Y-15569888D02*
X10688753Y-15588936D01*
X10688753Y-15588936D02*
X10679229Y-15598460D01*
X10679229Y-15598460D02*
X10660182Y-15607984D01*
X10660182Y-15607984D02*
X10641134Y-15607984D01*
X10641134Y-15607984D02*
X10622087Y-15598460D01*
X10622087Y-15598460D02*
X10612563Y-15588936D01*
X10612563Y-15588936D02*
X10603039Y-15569888D01*
X10603039Y-15569888D02*
X10593515Y-15531793D01*
X10593515Y-15531793D02*
X10593515Y-15484174D01*
X10593515Y-15484174D02*
X10603039Y-15446079D01*
X10603039Y-15446079D02*
X10612563Y-15427031D01*
X10612563Y-15427031D02*
X10622087Y-15417508D01*
X10622087Y-15417508D02*
X10641134Y-15407984D01*
X10793515Y-15588936D02*
X10803039Y-15598460D01*
X10803039Y-15598460D02*
X10793515Y-15607984D01*
X10793515Y-15607984D02*
X10783991Y-15598460D01*
X10783991Y-15598460D02*
X10793515Y-15588936D01*
X10793515Y-15588936D02*
X10793515Y-15607984D01*
X10926848Y-15407984D02*
X10945896Y-15407984D01*
X10945896Y-15407984D02*
X10964944Y-15417508D01*
X10964944Y-15417508D02*
X10974468Y-15427031D01*
X10974468Y-15427031D02*
X10983991Y-15446079D01*
X10983991Y-15446079D02*
X10993515Y-15484174D01*
X10993515Y-15484174D02*
X10993515Y-15531793D01*
X10993515Y-15531793D02*
X10983991Y-15569888D01*
X10983991Y-15569888D02*
X10974468Y-15588936D01*
X10974468Y-15588936D02*
X10964944Y-15598460D01*
X10964944Y-15598460D02*
X10945896Y-15607984D01*
X10945896Y-15607984D02*
X10926848Y-15607984D01*
X10926848Y-15607984D02*
X10907801Y-15598460D01*
X10907801Y-15598460D02*
X10898277Y-15588936D01*
X10898277Y-15588936D02*
X10888753Y-15569888D01*
X10888753Y-15569888D02*
X10879229Y-15531793D01*
X10879229Y-15531793D02*
X10879229Y-15484174D01*
X10879229Y-15484174D02*
X10888753Y-15446079D01*
X10888753Y-15446079D02*
X10898277Y-15427031D01*
X10898277Y-15427031D02*
X10907801Y-15417508D01*
X10907801Y-15417508D02*
X10926848Y-15407984D01*
X11164944Y-15474650D02*
X11164944Y-15607984D01*
X11117325Y-15398460D02*
X11069706Y-15541317D01*
X11069706Y-15541317D02*
X11193515Y-15541317D01*
X11250658Y-15407984D02*
X11383991Y-15407984D01*
X11383991Y-15407984D02*
X11298277Y-15607984D01*
X11450658Y-15427031D02*
X11460182Y-15417508D01*
X11460182Y-15417508D02*
X11479229Y-15407984D01*
X11479229Y-15407984D02*
X11526848Y-15407984D01*
X11526848Y-15407984D02*
X11545896Y-15417508D01*
X11545896Y-15417508D02*
X11555420Y-15427031D01*
X11555420Y-15427031D02*
X11564944Y-15446079D01*
X11564944Y-15446079D02*
X11564944Y-15465127D01*
X11564944Y-15465127D02*
X11555420Y-15493698D01*
X11555420Y-15493698D02*
X11441134Y-15607984D01*
X11441134Y-15607984D02*
X11564944Y-15607984D01*
X11641134Y-15407984D02*
X11641134Y-15446079D01*
X11717325Y-15407984D02*
X11717325Y-15446079D01*
X12012563Y-15684174D02*
X12003039Y-15674650D01*
X12003039Y-15674650D02*
X11983991Y-15646079D01*
X11983991Y-15646079D02*
X11974468Y-15627031D01*
X11974468Y-15627031D02*
X11964944Y-15598460D01*
X11964944Y-15598460D02*
X11955420Y-15550841D01*
X11955420Y-15550841D02*
X11955420Y-15512746D01*
X11955420Y-15512746D02*
X11964944Y-15465127D01*
X11964944Y-15465127D02*
X11974468Y-15436555D01*
X11974468Y-15436555D02*
X11983991Y-15417508D01*
X11983991Y-15417508D02*
X12003039Y-15388936D01*
X12003039Y-15388936D02*
X12012563Y-15379412D01*
X12069706Y-15407984D02*
X12193515Y-15407984D01*
X12193515Y-15407984D02*
X12126848Y-15484174D01*
X12126848Y-15484174D02*
X12155420Y-15484174D01*
X12155420Y-15484174D02*
X12174468Y-15493698D01*
X12174468Y-15493698D02*
X12183991Y-15503222D01*
X12183991Y-15503222D02*
X12193515Y-15522269D01*
X12193515Y-15522269D02*
X12193515Y-15569888D01*
X12193515Y-15569888D02*
X12183991Y-15588936D01*
X12183991Y-15588936D02*
X12174468Y-15598460D01*
X12174468Y-15598460D02*
X12155420Y-15607984D01*
X12155420Y-15607984D02*
X12098277Y-15607984D01*
X12098277Y-15607984D02*
X12079229Y-15598460D01*
X12079229Y-15598460D02*
X12069706Y-15588936D01*
X12431610Y-15607984D02*
X12431610Y-15407984D01*
X12517325Y-15607984D02*
X12517325Y-15503222D01*
X12517325Y-15503222D02*
X12507801Y-15484174D01*
X12507801Y-15484174D02*
X12488753Y-15474650D01*
X12488753Y-15474650D02*
X12460182Y-15474650D01*
X12460182Y-15474650D02*
X12441134Y-15484174D01*
X12441134Y-15484174D02*
X12431610Y-15493698D01*
X12641134Y-15607984D02*
X12622087Y-15598460D01*
X12622087Y-15598460D02*
X12612563Y-15588936D01*
X12612563Y-15588936D02*
X12603039Y-15569888D01*
X12603039Y-15569888D02*
X12603039Y-15512746D01*
X12603039Y-15512746D02*
X12612563Y-15493698D01*
X12612563Y-15493698D02*
X12622087Y-15484174D01*
X12622087Y-15484174D02*
X12641134Y-15474650D01*
X12641134Y-15474650D02*
X12669706Y-15474650D01*
X12669706Y-15474650D02*
X12688753Y-15484174D01*
X12688753Y-15484174D02*
X12698277Y-15493698D01*
X12698277Y-15493698D02*
X12707801Y-15512746D01*
X12707801Y-15512746D02*
X12707801Y-15569888D01*
X12707801Y-15569888D02*
X12698277Y-15588936D01*
X12698277Y-15588936D02*
X12688753Y-15598460D01*
X12688753Y-15598460D02*
X12669706Y-15607984D01*
X12669706Y-15607984D02*
X12641134Y-15607984D01*
X12822087Y-15607984D02*
X12803039Y-15598460D01*
X12803039Y-15598460D02*
X12793515Y-15579412D01*
X12793515Y-15579412D02*
X12793515Y-15407984D01*
X12974468Y-15598460D02*
X12955420Y-15607984D01*
X12955420Y-15607984D02*
X12917325Y-15607984D01*
X12917325Y-15607984D02*
X12898277Y-15598460D01*
X12898277Y-15598460D02*
X12888753Y-15579412D01*
X12888753Y-15579412D02*
X12888753Y-15503222D01*
X12888753Y-15503222D02*
X12898277Y-15484174D01*
X12898277Y-15484174D02*
X12917325Y-15474650D01*
X12917325Y-15474650D02*
X12955420Y-15474650D01*
X12955420Y-15474650D02*
X12974468Y-15484174D01*
X12974468Y-15484174D02*
X12983991Y-15503222D01*
X12983991Y-15503222D02*
X12983991Y-15522269D01*
X12983991Y-15522269D02*
X12888753Y-15541317D01*
X13060182Y-15598460D02*
X13079230Y-15607984D01*
X13079230Y-15607984D02*
X13117325Y-15607984D01*
X13117325Y-15607984D02*
X13136372Y-15598460D01*
X13136372Y-15598460D02*
X13145896Y-15579412D01*
X13145896Y-15579412D02*
X13145896Y-15569888D01*
X13145896Y-15569888D02*
X13136372Y-15550841D01*
X13136372Y-15550841D02*
X13117325Y-15541317D01*
X13117325Y-15541317D02*
X13088753Y-15541317D01*
X13088753Y-15541317D02*
X13069706Y-15531793D01*
X13069706Y-15531793D02*
X13060182Y-15512746D01*
X13060182Y-15512746D02*
X13060182Y-15503222D01*
X13060182Y-15503222D02*
X13069706Y-15484174D01*
X13069706Y-15484174D02*
X13088753Y-15474650D01*
X13088753Y-15474650D02*
X13117325Y-15474650D01*
X13117325Y-15474650D02*
X13136372Y-15484174D01*
X13212563Y-15684174D02*
X13222087Y-15674650D01*
X13222087Y-15674650D02*
X13241134Y-15646079D01*
X13241134Y-15646079D02*
X13250658Y-15627031D01*
X13250658Y-15627031D02*
X13260182Y-15598460D01*
X13260182Y-15598460D02*
X13269706Y-15550841D01*
X13269706Y-15550841D02*
X13269706Y-15512746D01*
X13269706Y-15512746D02*
X13260182Y-15465127D01*
X13260182Y-15465127D02*
X13250658Y-15436555D01*
X13250658Y-15436555D02*
X13241134Y-15417508D01*
X13241134Y-15417508D02*
X13222087Y-15388936D01*
X13222087Y-15388936D02*
X13212563Y-15379412D01*
X8237500Y-15680500D02*
X8437500Y-15880500D01*
X8437500Y-15680500D02*
X8237500Y-15880500D01*
X8408211Y-15851211D02*
X8408211Y-15709789D01*
X8266789Y-15709789D01*
X8266789Y-15851211D01*
X8408211Y-15851211D01*
X8679229Y-15671984D02*
X8803039Y-15671984D01*
X8803039Y-15671984D02*
X8736372Y-15748174D01*
X8736372Y-15748174D02*
X8764944Y-15748174D01*
X8764944Y-15748174D02*
X8783991Y-15757698D01*
X8783991Y-15757698D02*
X8793515Y-15767222D01*
X8793515Y-15767222D02*
X8803039Y-15786269D01*
X8803039Y-15786269D02*
X8803039Y-15833888D01*
X8803039Y-15833888D02*
X8793515Y-15852936D01*
X8793515Y-15852936D02*
X8783991Y-15862460D01*
X8783991Y-15862460D02*
X8764944Y-15871984D01*
X8764944Y-15871984D02*
X8707801Y-15871984D01*
X8707801Y-15871984D02*
X8688753Y-15862460D01*
X8688753Y-15862460D02*
X8679229Y-15852936D01*
X8888753Y-15852936D02*
X8898277Y-15862460D01*
X8898277Y-15862460D02*
X8888753Y-15871984D01*
X8888753Y-15871984D02*
X8879229Y-15862460D01*
X8879229Y-15862460D02*
X8888753Y-15852936D01*
X8888753Y-15852936D02*
X8888753Y-15871984D01*
X9022086Y-15671984D02*
X9041134Y-15671984D01*
X9041134Y-15671984D02*
X9060182Y-15681508D01*
X9060182Y-15681508D02*
X9069705Y-15691031D01*
X9069705Y-15691031D02*
X9079229Y-15710079D01*
X9079229Y-15710079D02*
X9088753Y-15748174D01*
X9088753Y-15748174D02*
X9088753Y-15795793D01*
X9088753Y-15795793D02*
X9079229Y-15833888D01*
X9079229Y-15833888D02*
X9069705Y-15852936D01*
X9069705Y-15852936D02*
X9060182Y-15862460D01*
X9060182Y-15862460D02*
X9041134Y-15871984D01*
X9041134Y-15871984D02*
X9022086Y-15871984D01*
X9022086Y-15871984D02*
X9003039Y-15862460D01*
X9003039Y-15862460D02*
X8993515Y-15852936D01*
X8993515Y-15852936D02*
X8983991Y-15833888D01*
X8983991Y-15833888D02*
X8974467Y-15795793D01*
X8974467Y-15795793D02*
X8974467Y-15748174D01*
X8974467Y-15748174D02*
X8983991Y-15710079D01*
X8983991Y-15710079D02*
X8993515Y-15691031D01*
X8993515Y-15691031D02*
X9003039Y-15681508D01*
X9003039Y-15681508D02*
X9022086Y-15671984D01*
X9269705Y-15671984D02*
X9174467Y-15671984D01*
X9174467Y-15671984D02*
X9164944Y-15767222D01*
X9164944Y-15767222D02*
X9174467Y-15757698D01*
X9174467Y-15757698D02*
X9193515Y-15748174D01*
X9193515Y-15748174D02*
X9241134Y-15748174D01*
X9241134Y-15748174D02*
X9260182Y-15757698D01*
X9260182Y-15757698D02*
X9269705Y-15767222D01*
X9269705Y-15767222D02*
X9279229Y-15786269D01*
X9279229Y-15786269D02*
X9279229Y-15833888D01*
X9279229Y-15833888D02*
X9269705Y-15852936D01*
X9269705Y-15852936D02*
X9260182Y-15862460D01*
X9260182Y-15862460D02*
X9241134Y-15871984D01*
X9241134Y-15871984D02*
X9193515Y-15871984D01*
X9193515Y-15871984D02*
X9174467Y-15862460D01*
X9174467Y-15862460D02*
X9164944Y-15852936D01*
X9403039Y-15671984D02*
X9422086Y-15671984D01*
X9422086Y-15671984D02*
X9441134Y-15681508D01*
X9441134Y-15681508D02*
X9450658Y-15691031D01*
X9450658Y-15691031D02*
X9460182Y-15710079D01*
X9460182Y-15710079D02*
X9469705Y-15748174D01*
X9469705Y-15748174D02*
X9469705Y-15795793D01*
X9469705Y-15795793D02*
X9460182Y-15833888D01*
X9460182Y-15833888D02*
X9450658Y-15852936D01*
X9450658Y-15852936D02*
X9441134Y-15862460D01*
X9441134Y-15862460D02*
X9422086Y-15871984D01*
X9422086Y-15871984D02*
X9403039Y-15871984D01*
X9403039Y-15871984D02*
X9383991Y-15862460D01*
X9383991Y-15862460D02*
X9374467Y-15852936D01*
X9374467Y-15852936D02*
X9364944Y-15833888D01*
X9364944Y-15833888D02*
X9355420Y-15795793D01*
X9355420Y-15795793D02*
X9355420Y-15748174D01*
X9355420Y-15748174D02*
X9364944Y-15710079D01*
X9364944Y-15710079D02*
X9374467Y-15691031D01*
X9374467Y-15691031D02*
X9383991Y-15681508D01*
X9383991Y-15681508D02*
X9403039Y-15671984D01*
X9555420Y-15871984D02*
X9555420Y-15738650D01*
X9555420Y-15757698D02*
X9564944Y-15748174D01*
X9564944Y-15748174D02*
X9583991Y-15738650D01*
X9583991Y-15738650D02*
X9612563Y-15738650D01*
X9612563Y-15738650D02*
X9631610Y-15748174D01*
X9631610Y-15748174D02*
X9641134Y-15767222D01*
X9641134Y-15767222D02*
X9641134Y-15871984D01*
X9641134Y-15767222D02*
X9650658Y-15748174D01*
X9650658Y-15748174D02*
X9669705Y-15738650D01*
X9669705Y-15738650D02*
X9698277Y-15738650D01*
X9698277Y-15738650D02*
X9717325Y-15748174D01*
X9717325Y-15748174D02*
X9726848Y-15767222D01*
X9726848Y-15767222D02*
X9726848Y-15871984D01*
X9822086Y-15871984D02*
X9822086Y-15738650D01*
X9822086Y-15757698D02*
X9831610Y-15748174D01*
X9831610Y-15748174D02*
X9850658Y-15738650D01*
X9850658Y-15738650D02*
X9879229Y-15738650D01*
X9879229Y-15738650D02*
X9898277Y-15748174D01*
X9898277Y-15748174D02*
X9907801Y-15767222D01*
X9907801Y-15767222D02*
X9907801Y-15871984D01*
X9907801Y-15767222D02*
X9917325Y-15748174D01*
X9917325Y-15748174D02*
X9936372Y-15738650D01*
X9936372Y-15738650D02*
X9964944Y-15738650D01*
X9964944Y-15738650D02*
X9983991Y-15748174D01*
X9983991Y-15748174D02*
X9993515Y-15767222D01*
X9993515Y-15767222D02*
X9993515Y-15871984D01*
X10383991Y-15662460D02*
X10212563Y-15919603D01*
X10641134Y-15671984D02*
X10660182Y-15671984D01*
X10660182Y-15671984D02*
X10679229Y-15681508D01*
X10679229Y-15681508D02*
X10688753Y-15691031D01*
X10688753Y-15691031D02*
X10698277Y-15710079D01*
X10698277Y-15710079D02*
X10707801Y-15748174D01*
X10707801Y-15748174D02*
X10707801Y-15795793D01*
X10707801Y-15795793D02*
X10698277Y-15833888D01*
X10698277Y-15833888D02*
X10688753Y-15852936D01*
X10688753Y-15852936D02*
X10679229Y-15862460D01*
X10679229Y-15862460D02*
X10660182Y-15871984D01*
X10660182Y-15871984D02*
X10641134Y-15871984D01*
X10641134Y-15871984D02*
X10622087Y-15862460D01*
X10622087Y-15862460D02*
X10612563Y-15852936D01*
X10612563Y-15852936D02*
X10603039Y-15833888D01*
X10603039Y-15833888D02*
X10593515Y-15795793D01*
X10593515Y-15795793D02*
X10593515Y-15748174D01*
X10593515Y-15748174D02*
X10603039Y-15710079D01*
X10603039Y-15710079D02*
X10612563Y-15691031D01*
X10612563Y-15691031D02*
X10622087Y-15681508D01*
X10622087Y-15681508D02*
X10641134Y-15671984D01*
X10793515Y-15852936D02*
X10803039Y-15862460D01*
X10803039Y-15862460D02*
X10793515Y-15871984D01*
X10793515Y-15871984D02*
X10783991Y-15862460D01*
X10783991Y-15862460D02*
X10793515Y-15852936D01*
X10793515Y-15852936D02*
X10793515Y-15871984D01*
X10993515Y-15871984D02*
X10879229Y-15871984D01*
X10936372Y-15871984D02*
X10936372Y-15671984D01*
X10936372Y-15671984D02*
X10917325Y-15700555D01*
X10917325Y-15700555D02*
X10898277Y-15719603D01*
X10898277Y-15719603D02*
X10879229Y-15729127D01*
X11069706Y-15691031D02*
X11079229Y-15681508D01*
X11079229Y-15681508D02*
X11098277Y-15671984D01*
X11098277Y-15671984D02*
X11145896Y-15671984D01*
X11145896Y-15671984D02*
X11164944Y-15681508D01*
X11164944Y-15681508D02*
X11174468Y-15691031D01*
X11174468Y-15691031D02*
X11183991Y-15710079D01*
X11183991Y-15710079D02*
X11183991Y-15729127D01*
X11183991Y-15729127D02*
X11174468Y-15757698D01*
X11174468Y-15757698D02*
X11060182Y-15871984D01*
X11060182Y-15871984D02*
X11183991Y-15871984D01*
X11307801Y-15671984D02*
X11326848Y-15671984D01*
X11326848Y-15671984D02*
X11345896Y-15681508D01*
X11345896Y-15681508D02*
X11355420Y-15691031D01*
X11355420Y-15691031D02*
X11364944Y-15710079D01*
X11364944Y-15710079D02*
X11374467Y-15748174D01*
X11374467Y-15748174D02*
X11374467Y-15795793D01*
X11374467Y-15795793D02*
X11364944Y-15833888D01*
X11364944Y-15833888D02*
X11355420Y-15852936D01*
X11355420Y-15852936D02*
X11345896Y-15862460D01*
X11345896Y-15862460D02*
X11326848Y-15871984D01*
X11326848Y-15871984D02*
X11307801Y-15871984D01*
X11307801Y-15871984D02*
X11288753Y-15862460D01*
X11288753Y-15862460D02*
X11279229Y-15852936D01*
X11279229Y-15852936D02*
X11269706Y-15833888D01*
X11269706Y-15833888D02*
X11260182Y-15795793D01*
X11260182Y-15795793D02*
X11260182Y-15748174D01*
X11260182Y-15748174D02*
X11269706Y-15710079D01*
X11269706Y-15710079D02*
X11279229Y-15691031D01*
X11279229Y-15691031D02*
X11288753Y-15681508D01*
X11288753Y-15681508D02*
X11307801Y-15671984D01*
X11564944Y-15871984D02*
X11450658Y-15871984D01*
X11507801Y-15871984D02*
X11507801Y-15671984D01*
X11507801Y-15671984D02*
X11488753Y-15700555D01*
X11488753Y-15700555D02*
X11469706Y-15719603D01*
X11469706Y-15719603D02*
X11450658Y-15729127D01*
X11641134Y-15671984D02*
X11641134Y-15710079D01*
X11717325Y-15671984D02*
X11717325Y-15710079D01*
X12012563Y-15948174D02*
X12003039Y-15938650D01*
X12003039Y-15938650D02*
X11983991Y-15910079D01*
X11983991Y-15910079D02*
X11974468Y-15891031D01*
X11974468Y-15891031D02*
X11964944Y-15862460D01*
X11964944Y-15862460D02*
X11955420Y-15814841D01*
X11955420Y-15814841D02*
X11955420Y-15776746D01*
X11955420Y-15776746D02*
X11964944Y-15729127D01*
X11964944Y-15729127D02*
X11974468Y-15700555D01*
X11974468Y-15700555D02*
X11983991Y-15681508D01*
X11983991Y-15681508D02*
X12003039Y-15652936D01*
X12003039Y-15652936D02*
X12012563Y-15643412D01*
X12079229Y-15691031D02*
X12088753Y-15681508D01*
X12088753Y-15681508D02*
X12107801Y-15671984D01*
X12107801Y-15671984D02*
X12155420Y-15671984D01*
X12155420Y-15671984D02*
X12174468Y-15681508D01*
X12174468Y-15681508D02*
X12183991Y-15691031D01*
X12183991Y-15691031D02*
X12193515Y-15710079D01*
X12193515Y-15710079D02*
X12193515Y-15729127D01*
X12193515Y-15729127D02*
X12183991Y-15757698D01*
X12183991Y-15757698D02*
X12069706Y-15871984D01*
X12069706Y-15871984D02*
X12193515Y-15871984D01*
X12431610Y-15871984D02*
X12431610Y-15671984D01*
X12517325Y-15871984D02*
X12517325Y-15767222D01*
X12517325Y-15767222D02*
X12507801Y-15748174D01*
X12507801Y-15748174D02*
X12488753Y-15738650D01*
X12488753Y-15738650D02*
X12460182Y-15738650D01*
X12460182Y-15738650D02*
X12441134Y-15748174D01*
X12441134Y-15748174D02*
X12431610Y-15757698D01*
X12641134Y-15871984D02*
X12622087Y-15862460D01*
X12622087Y-15862460D02*
X12612563Y-15852936D01*
X12612563Y-15852936D02*
X12603039Y-15833888D01*
X12603039Y-15833888D02*
X12603039Y-15776746D01*
X12603039Y-15776746D02*
X12612563Y-15757698D01*
X12612563Y-15757698D02*
X12622087Y-15748174D01*
X12622087Y-15748174D02*
X12641134Y-15738650D01*
X12641134Y-15738650D02*
X12669706Y-15738650D01*
X12669706Y-15738650D02*
X12688753Y-15748174D01*
X12688753Y-15748174D02*
X12698277Y-15757698D01*
X12698277Y-15757698D02*
X12707801Y-15776746D01*
X12707801Y-15776746D02*
X12707801Y-15833888D01*
X12707801Y-15833888D02*
X12698277Y-15852936D01*
X12698277Y-15852936D02*
X12688753Y-15862460D01*
X12688753Y-15862460D02*
X12669706Y-15871984D01*
X12669706Y-15871984D02*
X12641134Y-15871984D01*
X12822087Y-15871984D02*
X12803039Y-15862460D01*
X12803039Y-15862460D02*
X12793515Y-15843412D01*
X12793515Y-15843412D02*
X12793515Y-15671984D01*
X12974468Y-15862460D02*
X12955420Y-15871984D01*
X12955420Y-15871984D02*
X12917325Y-15871984D01*
X12917325Y-15871984D02*
X12898277Y-15862460D01*
X12898277Y-15862460D02*
X12888753Y-15843412D01*
X12888753Y-15843412D02*
X12888753Y-15767222D01*
X12888753Y-15767222D02*
X12898277Y-15748174D01*
X12898277Y-15748174D02*
X12917325Y-15738650D01*
X12917325Y-15738650D02*
X12955420Y-15738650D01*
X12955420Y-15738650D02*
X12974468Y-15748174D01*
X12974468Y-15748174D02*
X12983991Y-15767222D01*
X12983991Y-15767222D02*
X12983991Y-15786269D01*
X12983991Y-15786269D02*
X12888753Y-15805317D01*
X13060182Y-15862460D02*
X13079230Y-15871984D01*
X13079230Y-15871984D02*
X13117325Y-15871984D01*
X13117325Y-15871984D02*
X13136372Y-15862460D01*
X13136372Y-15862460D02*
X13145896Y-15843412D01*
X13145896Y-15843412D02*
X13145896Y-15833888D01*
X13145896Y-15833888D02*
X13136372Y-15814841D01*
X13136372Y-15814841D02*
X13117325Y-15805317D01*
X13117325Y-15805317D02*
X13088753Y-15805317D01*
X13088753Y-15805317D02*
X13069706Y-15795793D01*
X13069706Y-15795793D02*
X13060182Y-15776746D01*
X13060182Y-15776746D02*
X13060182Y-15767222D01*
X13060182Y-15767222D02*
X13069706Y-15748174D01*
X13069706Y-15748174D02*
X13088753Y-15738650D01*
X13088753Y-15738650D02*
X13117325Y-15738650D01*
X13117325Y-15738650D02*
X13136372Y-15748174D01*
X13212563Y-15948174D02*
X13222087Y-15938650D01*
X13222087Y-15938650D02*
X13241134Y-15910079D01*
X13241134Y-15910079D02*
X13250658Y-15891031D01*
X13250658Y-15891031D02*
X13260182Y-15862460D01*
X13260182Y-15862460D02*
X13269706Y-15814841D01*
X13269706Y-15814841D02*
X13269706Y-15776746D01*
X13269706Y-15776746D02*
X13260182Y-15729127D01*
X13260182Y-15729127D02*
X13250658Y-15700555D01*
X13250658Y-15700555D02*
X13241134Y-15681508D01*
X13241134Y-15681508D02*
X13222087Y-15652936D01*
X13222087Y-15652936D02*
X13212563Y-15643412D01*
M02*
