%TF.GenerationSoftware,KiCad,Pcbnew,8.0.3*%
%TF.CreationDate,2025-02-02T16:24:14+01:00*%
%TF.ProjectId,DeMoN-Flash,44654d6f-4e2d-4466-9c61-73682e6b6963,rev?*%
%TF.SameCoordinates,Original*%
%TF.FileFunction,Soldermask,Top*%
%TF.FilePolarity,Negative*%
%FSLAX46Y46*%
G04 Gerber Fmt 4.6, Leading zero omitted, Abs format (unit mm)*
G04 Created by KiCad (PCBNEW 8.0.3) date 2025-02-02 16:24:14*
%MOMM*%
%LPD*%
G01*
G04 APERTURE LIST*
G04 Aperture macros list*
%AMRoundRect*
0 Rectangle with rounded corners*
0 $1 Rounding radius*
0 $2 $3 $4 $5 $6 $7 $8 $9 X,Y pos of 4 corners*
0 Add a 4 corners polygon primitive as box body*
4,1,4,$2,$3,$4,$5,$6,$7,$8,$9,$2,$3,0*
0 Add four circle primitives for the rounded corners*
1,1,$1+$1,$2,$3*
1,1,$1+$1,$4,$5*
1,1,$1+$1,$6,$7*
1,1,$1+$1,$8,$9*
0 Add four rect primitives between the rounded corners*
20,1,$1+$1,$2,$3,$4,$5,0*
20,1,$1+$1,$4,$5,$6,$7,0*
20,1,$1+$1,$6,$7,$8,$9,0*
20,1,$1+$1,$8,$9,$2,$3,0*%
%AMFreePoly0*
4,1,19,0.550000,-0.750000,0.000000,-0.750000,0.000000,-0.744911,-0.071157,-0.744911,-0.207708,-0.704816,-0.327430,-0.627875,-0.420627,-0.520320,-0.479746,-0.390866,-0.500000,-0.250000,-0.500000,0.250000,-0.479746,0.390866,-0.420627,0.520320,-0.327430,0.627875,-0.207708,0.704816,-0.071157,0.744911,0.000000,0.744911,0.000000,0.750000,0.550000,0.750000,0.550000,-0.750000,0.550000,-0.750000,
$1*%
%AMFreePoly1*
4,1,19,0.000000,0.744911,0.071157,0.744911,0.207708,0.704816,0.327430,0.627875,0.420627,0.520320,0.479746,0.390866,0.500000,0.250000,0.500000,-0.250000,0.479746,-0.390866,0.420627,-0.520320,0.327430,-0.627875,0.207708,-0.704816,0.071157,-0.744911,0.000000,-0.744911,0.000000,-0.750000,-0.550000,-0.750000,-0.550000,0.750000,0.000000,0.750000,0.000000,0.744911,0.000000,0.744911,
$1*%
G04 Aperture macros list end*
%ADD10R,1.500000X1.500000*%
%ADD11C,1.600000*%
%ADD12C,1.500000*%
%ADD13R,1.160000X1.160000*%
%ADD14O,1.160000X1.160000*%
%ADD15R,1.600000X1.600000*%
%ADD16R,1.800000X1.800000*%
%ADD17C,1.800000*%
%ADD18R,1.700000X1.700000*%
%ADD19O,1.700000X1.700000*%
%ADD20R,0.700000X1.925000*%
%ADD21R,1.925000X0.700000*%
%ADD22R,1.981000X0.457000*%
%ADD23RoundRect,0.250000X-0.625000X0.400000X-0.625000X-0.400000X0.625000X-0.400000X0.625000X0.400000X0*%
%ADD24RoundRect,0.250000X-0.650000X0.412500X-0.650000X-0.412500X0.650000X-0.412500X0.650000X0.412500X0*%
%ADD25C,1.635000*%
%ADD26RoundRect,0.250000X0.412500X0.650000X-0.412500X0.650000X-0.412500X-0.650000X0.412500X-0.650000X0*%
%ADD27RoundRect,0.150000X-0.150000X1.350000X-0.150000X-1.350000X0.150000X-1.350000X0.150000X1.350000X0*%
%ADD28C,4.575000*%
%ADD29RoundRect,0.150000X-0.825000X-0.150000X0.825000X-0.150000X0.825000X0.150000X-0.825000X0.150000X0*%
%ADD30FreePoly0,0.000000*%
%ADD31R,1.000000X1.500000*%
%ADD32FreePoly1,0.000000*%
%ADD33RoundRect,0.250001X0.624999X-0.462499X0.624999X0.462499X-0.624999X0.462499X-0.624999X-0.462499X0*%
%ADD34RoundRect,0.250000X-0.400000X-0.625000X0.400000X-0.625000X0.400000X0.625000X-0.400000X0.625000X0*%
G04 APERTURE END LIST*
D10*
%TO.C,SW2*%
X188500000Y-101690000D03*
D11*
X188500000Y-104230000D03*
X188500000Y-99150000D03*
%TD*%
D10*
%TO.C,Q2*%
X88900000Y-69200000D03*
D12*
X88900000Y-71740000D03*
X88900000Y-74280000D03*
%TD*%
D13*
%TO.C,U9*%
X162255000Y-89550000D03*
D14*
X162255000Y-92090000D03*
X162255000Y-94630000D03*
X162255000Y-97170000D03*
X162255000Y-99710000D03*
X162255000Y-102250000D03*
X162255000Y-104790000D03*
X162255000Y-107330000D03*
X162255000Y-109870000D03*
X162255000Y-112410000D03*
X162255000Y-114950000D03*
X162255000Y-117490000D03*
X162255000Y-120030000D03*
X162255000Y-122570000D03*
X162255000Y-125110000D03*
X162255000Y-127650000D03*
X177255000Y-127650000D03*
X177255000Y-125110000D03*
X177255000Y-122570000D03*
X177255000Y-120030000D03*
X177255000Y-117490000D03*
X177255000Y-114950000D03*
X177255000Y-112410000D03*
X177255000Y-109870000D03*
X177255000Y-107330000D03*
X177255000Y-104790000D03*
X177255000Y-102250000D03*
X177255000Y-99710000D03*
X177255000Y-97170000D03*
X177255000Y-94630000D03*
X177255000Y-92090000D03*
X177255000Y-89550000D03*
%TD*%
D15*
%TO.C,C1*%
X94000000Y-126944888D03*
D11*
X94000000Y-129444888D03*
%TD*%
D16*
%TO.C,D2*%
X94450000Y-99225000D03*
D17*
X94450000Y-101765000D03*
%TD*%
D13*
%TO.C,U7*%
X125505000Y-89550000D03*
D14*
X125505000Y-92090000D03*
X125505000Y-94630000D03*
X125505000Y-97170000D03*
X125505000Y-99710000D03*
X125505000Y-102250000D03*
X125505000Y-104790000D03*
X125505000Y-107330000D03*
X125505000Y-109870000D03*
X125505000Y-112410000D03*
X125505000Y-114950000D03*
X125505000Y-117490000D03*
X125505000Y-120030000D03*
X125505000Y-122570000D03*
X125505000Y-125110000D03*
X125505000Y-127650000D03*
X140505000Y-127650000D03*
X140505000Y-125110000D03*
X140505000Y-122570000D03*
X140505000Y-120030000D03*
X140505000Y-117490000D03*
X140505000Y-114950000D03*
X140505000Y-112410000D03*
X140505000Y-109870000D03*
X140505000Y-107330000D03*
X140505000Y-104790000D03*
X140505000Y-102250000D03*
X140505000Y-99710000D03*
X140505000Y-97170000D03*
X140505000Y-94630000D03*
X140505000Y-92090000D03*
X140505000Y-89550000D03*
%TD*%
D10*
%TO.C,Q1*%
X92600000Y-69200000D03*
D12*
X92600000Y-71740000D03*
X92600000Y-74280000D03*
%TD*%
D18*
%TO.C,JP1*%
X89128400Y-81342200D03*
D19*
X91668400Y-81342200D03*
X94208400Y-81342200D03*
%TD*%
D20*
%TO.C,U4*%
X122400000Y-74697500D03*
X121130000Y-74697500D03*
X119860000Y-74697500D03*
D21*
X118347500Y-76210000D03*
X118347500Y-77480000D03*
X118347500Y-78750000D03*
X118347500Y-80020000D03*
X118347500Y-81290000D03*
D20*
X119860000Y-82802500D03*
X121130000Y-82802500D03*
X122400000Y-82802500D03*
X123670000Y-82802500D03*
X124940000Y-82802500D03*
D21*
X126452500Y-81290000D03*
X126452500Y-80020000D03*
X126452500Y-78750000D03*
X126452500Y-77480000D03*
X126452500Y-76210000D03*
D20*
X124940000Y-74697500D03*
X123670000Y-74697500D03*
%TD*%
D16*
%TO.C,SW1*%
X91677500Y-115377500D03*
D17*
X96677500Y-115377500D03*
X91677500Y-120377500D03*
X96677500Y-120377500D03*
%TD*%
D22*
%TO.C,U8*%
X144944400Y-102475000D03*
X144944400Y-103745000D03*
X144944400Y-105015000D03*
X144944400Y-106285000D03*
X144944400Y-107555000D03*
X144944400Y-108825000D03*
X144944400Y-110095000D03*
X144944400Y-111365000D03*
X144944400Y-112635000D03*
X144944400Y-113905000D03*
X144944400Y-115175000D03*
X144944400Y-116445000D03*
X144944400Y-117715000D03*
X144944400Y-118985000D03*
X144944400Y-120255000D03*
X144944400Y-121525000D03*
X158172400Y-121525000D03*
X158172400Y-120255000D03*
X158172400Y-118985000D03*
X158172400Y-117715000D03*
X158172400Y-116445000D03*
X158172400Y-115175000D03*
X158172400Y-113905000D03*
X158172400Y-112635000D03*
X158172400Y-111365000D03*
X158172400Y-110095000D03*
X158172400Y-108825000D03*
X158172400Y-107555000D03*
X158172400Y-106285000D03*
X158172400Y-105015000D03*
X158172400Y-103745000D03*
X158172400Y-102475000D03*
%TD*%
D23*
%TO.C,R3*%
X183300000Y-89750000D03*
X183300000Y-92850000D03*
%TD*%
D24*
%TO.C,C2*%
X102400000Y-111587500D03*
X102400000Y-114712500D03*
%TD*%
D25*
%TO.C,CN1*%
X88060000Y-44200000D03*
X88060000Y-39120000D03*
X90600000Y-44200000D03*
X90600000Y-39120000D03*
X93140000Y-44200000D03*
X93140000Y-39120000D03*
X95680000Y-44200000D03*
X95680000Y-39120000D03*
X98220000Y-44200000D03*
X98220000Y-39120000D03*
X100760000Y-44200000D03*
X100760000Y-39120000D03*
X103300000Y-44200000D03*
X103300000Y-39120000D03*
X105840000Y-44200000D03*
X105840000Y-39120000D03*
X108380000Y-44200000D03*
X108380000Y-39120000D03*
X110920000Y-44200000D03*
X110920000Y-39120000D03*
X113460000Y-44200000D03*
X113460000Y-39120000D03*
X116000000Y-44200000D03*
X116000000Y-39120000D03*
X118540000Y-44200000D03*
X118540000Y-39120000D03*
X121080000Y-44200000D03*
X121080000Y-39120000D03*
X123620000Y-44200000D03*
X123620000Y-39120000D03*
X126160000Y-44200000D03*
X126160000Y-39120000D03*
X128700000Y-44200000D03*
X128700000Y-39120000D03*
X131240000Y-44200000D03*
X131240000Y-39120000D03*
X133780000Y-44200000D03*
X133780000Y-39120000D03*
X136320000Y-44200000D03*
X136320000Y-39120000D03*
X138860000Y-44200000D03*
X138860000Y-39120000D03*
X141400000Y-44200000D03*
X141400000Y-39120000D03*
X143940000Y-44200000D03*
X143940000Y-39120000D03*
X146480000Y-44200000D03*
X146480000Y-39120000D03*
X149020000Y-44200000D03*
X149020000Y-39120000D03*
X151560000Y-44200000D03*
X151560000Y-39120000D03*
X154100000Y-44200000D03*
X154100000Y-39120000D03*
X156640000Y-44200000D03*
X156640000Y-39120000D03*
X159180000Y-44200000D03*
X159180000Y-39120000D03*
X161720000Y-44200000D03*
X161720000Y-39120000D03*
X164260000Y-44200000D03*
X164260000Y-39120000D03*
X166800000Y-44200000D03*
X166800000Y-39120000D03*
X169340000Y-44200000D03*
X169340000Y-39120000D03*
X171880000Y-44200000D03*
X171880000Y-39120000D03*
X174420000Y-44200000D03*
X174420000Y-39120000D03*
X176960000Y-44200000D03*
X176960000Y-39120000D03*
X179500000Y-44200000D03*
X179500000Y-39120000D03*
X182040000Y-44200000D03*
X182040000Y-39120000D03*
X184580000Y-44200000D03*
X184580000Y-39120000D03*
X187120000Y-44200000D03*
X187120000Y-39120000D03*
X189660000Y-44200000D03*
X189660000Y-39120000D03*
X192200000Y-44200000D03*
X192200000Y-39120000D03*
X194740000Y-44200000D03*
X194740000Y-39120000D03*
%TD*%
D23*
%TO.C,R1*%
X154050000Y-51700000D03*
X154050000Y-54800000D03*
%TD*%
D26*
%TO.C,C4*%
X157912500Y-70650000D03*
X154787500Y-70650000D03*
%TD*%
D23*
%TO.C,R6*%
X91950000Y-92300000D03*
X91950000Y-95400000D03*
%TD*%
D15*
%TO.C,C6*%
X89950000Y-87650000D03*
D11*
X87450000Y-87650000D03*
%TD*%
D20*
%TO.C,U3*%
X141400000Y-74697500D03*
X140130000Y-74697500D03*
X138860000Y-74697500D03*
D21*
X137347500Y-76210000D03*
X137347500Y-77480000D03*
X137347500Y-78750000D03*
X137347500Y-80020000D03*
X137347500Y-81290000D03*
D20*
X138860000Y-82802500D03*
X140130000Y-82802500D03*
X141400000Y-82802500D03*
X142670000Y-82802500D03*
X143940000Y-82802500D03*
D21*
X145452500Y-81290000D03*
X145452500Y-80020000D03*
X145452500Y-78750000D03*
X145452500Y-77480000D03*
X145452500Y-76210000D03*
D20*
X143940000Y-74697500D03*
X142670000Y-74697500D03*
%TD*%
D22*
%TO.C,U10*%
X107594400Y-102475000D03*
X107594400Y-103745000D03*
X107594400Y-105015000D03*
X107594400Y-106285000D03*
X107594400Y-107555000D03*
X107594400Y-108825000D03*
X107594400Y-110095000D03*
X107594400Y-111365000D03*
X107594400Y-112635000D03*
X107594400Y-113905000D03*
X107594400Y-115175000D03*
X107594400Y-116445000D03*
X107594400Y-117715000D03*
X107594400Y-118985000D03*
X107594400Y-120255000D03*
X107594400Y-121525000D03*
X120822400Y-121525000D03*
X120822400Y-120255000D03*
X120822400Y-118985000D03*
X120822400Y-117715000D03*
X120822400Y-116445000D03*
X120822400Y-115175000D03*
X120822400Y-113905000D03*
X120822400Y-112635000D03*
X120822400Y-111365000D03*
X120822400Y-110095000D03*
X120822400Y-108825000D03*
X120822400Y-107555000D03*
X120822400Y-106285000D03*
X120822400Y-105015000D03*
X120822400Y-103745000D03*
X120822400Y-102475000D03*
%TD*%
D16*
%TO.C,D1*%
X188850000Y-92700000D03*
D17*
X188850000Y-90160000D03*
%TD*%
D20*
%TO.C,U1*%
X178200000Y-74597500D03*
X176930000Y-74597500D03*
X175660000Y-74597500D03*
D21*
X174147500Y-76110000D03*
X174147500Y-77380000D03*
X174147500Y-78650000D03*
X174147500Y-79920000D03*
X174147500Y-81190000D03*
D20*
X175660000Y-82702500D03*
X176930000Y-82702500D03*
X178200000Y-82702500D03*
X179470000Y-82702500D03*
X180740000Y-82702500D03*
D21*
X182252500Y-81190000D03*
X182252500Y-79920000D03*
X182252500Y-78650000D03*
X182252500Y-77380000D03*
X182252500Y-76110000D03*
D20*
X180740000Y-74597500D03*
X179470000Y-74597500D03*
%TD*%
D18*
%TO.C,JP2*%
X89168400Y-77692200D03*
D19*
X91708400Y-77692200D03*
X94248400Y-77692200D03*
%TD*%
D20*
%TO.C,U5*%
X104000000Y-74647500D03*
X102730000Y-74647500D03*
X101460000Y-74647500D03*
D21*
X99947500Y-76160000D03*
X99947500Y-77430000D03*
X99947500Y-78700000D03*
X99947500Y-79970000D03*
X99947500Y-81240000D03*
D20*
X101460000Y-82752500D03*
X102730000Y-82752500D03*
X104000000Y-82752500D03*
X105270000Y-82752500D03*
X106540000Y-82752500D03*
D21*
X108052500Y-81240000D03*
X108052500Y-79970000D03*
X108052500Y-78700000D03*
X108052500Y-77430000D03*
X108052500Y-76160000D03*
D20*
X106540000Y-74647500D03*
X105270000Y-74647500D03*
%TD*%
D24*
%TO.C,C3*%
X183200000Y-106137500D03*
X183200000Y-109262500D03*
%TD*%
D27*
%TO.C,U6*%
X119760000Y-53100000D03*
X118490000Y-53100000D03*
X117220000Y-53100000D03*
X115950000Y-53100000D03*
X114680000Y-53100000D03*
X113410000Y-53100000D03*
X112140000Y-53100000D03*
X112140000Y-59000000D03*
X113410000Y-59000000D03*
X114680000Y-59000000D03*
X115950000Y-59000000D03*
X117220000Y-59000000D03*
X118490000Y-59000000D03*
X119760000Y-59000000D03*
%TD*%
D17*
%TO.C,VR1*%
X185958400Y-126442200D03*
X188458400Y-126442200D03*
X190958400Y-126442200D03*
D28*
X184058400Y-119442200D03*
X192858400Y-119442200D03*
%TD*%
D29*
%TO.C,U11*%
X91525000Y-104645000D03*
X91525000Y-105915000D03*
X91525000Y-107185000D03*
X91525000Y-108455000D03*
X96475000Y-108455000D03*
X96475000Y-107185000D03*
X96475000Y-105915000D03*
X96475000Y-104645000D03*
%TD*%
D23*
%TO.C,R7*%
X88100000Y-92300000D03*
X88100000Y-95400000D03*
%TD*%
D30*
%TO.C,JP3*%
X98983400Y-65017200D03*
D31*
X100283400Y-65017200D03*
D32*
X101583400Y-65017200D03*
%TD*%
D33*
%TO.C,D3*%
X99700000Y-95337500D03*
X99700000Y-92362500D03*
%TD*%
D23*
%TO.C,R4*%
X183200000Y-99100000D03*
X183200000Y-102200000D03*
%TD*%
%TO.C,R2*%
X150150000Y-51700000D03*
X150150000Y-54800000D03*
%TD*%
D34*
%TO.C,R8*%
X94383400Y-86817200D03*
X97483400Y-86817200D03*
%TD*%
D20*
%TO.C,U2*%
X159750000Y-74697500D03*
X158480000Y-74697500D03*
X157210000Y-74697500D03*
D21*
X155697500Y-76210000D03*
X155697500Y-77480000D03*
X155697500Y-78750000D03*
X155697500Y-80020000D03*
X155697500Y-81290000D03*
D20*
X157210000Y-82802500D03*
X158480000Y-82802500D03*
X159750000Y-82802500D03*
X161020000Y-82802500D03*
X162290000Y-82802500D03*
D21*
X163802500Y-81290000D03*
X163802500Y-80020000D03*
X163802500Y-78750000D03*
X163802500Y-77480000D03*
X163802500Y-76210000D03*
D20*
X162290000Y-74697500D03*
X161020000Y-74697500D03*
%TD*%
D26*
%TO.C,C5*%
X90712500Y-48600000D03*
X87587500Y-48600000D03*
%TD*%
D23*
%TO.C,R5*%
X95750000Y-92300000D03*
X95750000Y-95400000D03*
%TD*%
M02*
