%TF.GenerationSoftware,KiCad,Pcbnew,8.0.3*%
%TF.CreationDate,2025-02-20T16:06:23+01:00*%
%TF.ProjectId,DeMoN-Flash-J,44654d6f-4e2d-4466-9c61-73682d4a2e6b,rev?*%
%TF.SameCoordinates,Original*%
%TF.FileFunction,Legend,Bot*%
%TF.FilePolarity,Positive*%
%FSLAX46Y46*%
G04 Gerber Fmt 4.6, Leading zero omitted, Abs format (unit mm)*
G04 Created by KiCad (PCBNEW 8.0.3) date 2025-02-20 16:06:23*
%MOMM*%
%LPD*%
G01*
G04 APERTURE LIST*
%ADD10C,0.000000*%
G04 APERTURE END LIST*
D10*
%TO.C,G\u002A\u002A\u002A*%
G36*
X149004931Y-75191684D02*
G01*
X148996847Y-75199768D01*
X148988763Y-75191684D01*
X148996847Y-75183600D01*
X149004931Y-75191684D01*
G37*
G36*
X154855610Y-55717280D02*
G01*
X154693606Y-56226566D01*
X154620610Y-56441333D01*
X154440410Y-56939859D01*
X154244762Y-57440913D01*
X154034973Y-57942187D01*
X153812349Y-58441377D01*
X153578196Y-58936174D01*
X153333820Y-59424273D01*
X153080527Y-59903368D01*
X152819622Y-60371151D01*
X152552413Y-60825316D01*
X152280205Y-61263557D01*
X152004304Y-61683567D01*
X151726015Y-62083040D01*
X151446646Y-62459670D01*
X151167501Y-62811149D01*
X150889888Y-63135171D01*
X150615111Y-63429431D01*
X150609918Y-63434746D01*
X150484230Y-63571068D01*
X150357201Y-63722158D01*
X150240594Y-63874052D01*
X150168981Y-63971107D01*
X150065168Y-64108045D01*
X149955353Y-64249219D01*
X149842669Y-64390832D01*
X149730245Y-64529087D01*
X149621210Y-64660189D01*
X149518697Y-64780341D01*
X149425834Y-64885747D01*
X149345752Y-64972610D01*
X149281581Y-65037134D01*
X149277004Y-65041467D01*
X149262471Y-65056253D01*
X149250874Y-65072201D01*
X149242176Y-65092417D01*
X149236337Y-65120010D01*
X149233318Y-65158086D01*
X149233080Y-65209754D01*
X149235583Y-65278119D01*
X149240789Y-65366291D01*
X149248659Y-65477376D01*
X149259154Y-65614482D01*
X149272234Y-65780717D01*
X149303485Y-66163924D01*
X149353453Y-66735757D01*
X149409809Y-67338104D01*
X149472482Y-67970283D01*
X149541402Y-68631615D01*
X149616496Y-69321416D01*
X149697694Y-70039008D01*
X149784923Y-70783707D01*
X149878112Y-71554834D01*
X149890266Y-71653425D01*
X149906917Y-71787275D01*
X149925416Y-71934891D01*
X149945370Y-72093217D01*
X149966385Y-72259197D01*
X149988068Y-72429773D01*
X150010028Y-72601889D01*
X150031870Y-72772489D01*
X150053203Y-72938516D01*
X150073633Y-73096913D01*
X150092768Y-73244625D01*
X150110214Y-73378593D01*
X150125579Y-73495763D01*
X150138470Y-73593076D01*
X150148493Y-73667478D01*
X150155257Y-73715910D01*
X150158368Y-73735317D01*
X150167567Y-73731218D01*
X150188531Y-73705117D01*
X150216488Y-73662561D01*
X150263177Y-73590735D01*
X150336277Y-73487753D01*
X150421157Y-73375634D01*
X150511819Y-73262052D01*
X150602266Y-73154679D01*
X150686501Y-73061190D01*
X150732654Y-73013047D01*
X150955436Y-72803262D01*
X151193892Y-72615477D01*
X151452898Y-72446120D01*
X151737331Y-72291621D01*
X151752346Y-72284208D01*
X152017448Y-72165656D01*
X152290942Y-72066994D01*
X152576882Y-71987237D01*
X152879321Y-71925400D01*
X153202316Y-71880499D01*
X153549919Y-71851550D01*
X153587262Y-71849496D01*
X153938668Y-71845390D01*
X154275733Y-71869922D01*
X154599640Y-71923399D01*
X154911573Y-72006130D01*
X155212714Y-72118420D01*
X155504245Y-72260577D01*
X155787351Y-72432910D01*
X156053126Y-72627546D01*
X156329500Y-72867289D01*
X156592793Y-73136194D01*
X156842802Y-73433958D01*
X157079324Y-73760281D01*
X157302158Y-74114859D01*
X157511101Y-74497393D01*
X157705951Y-74907580D01*
X157886505Y-75345118D01*
X158052561Y-75809707D01*
X158053071Y-75811244D01*
X158108439Y-75984155D01*
X158165028Y-76171890D01*
X158220326Y-76365428D01*
X158271824Y-76555747D01*
X158317010Y-76733825D01*
X158353374Y-76890639D01*
X158365934Y-76945777D01*
X158380850Y-77004394D01*
X158392947Y-77044334D01*
X158400411Y-77059093D01*
X158412146Y-77050560D01*
X158438904Y-77022797D01*
X158473416Y-76982456D01*
X158511490Y-76936347D01*
X158585510Y-76848400D01*
X158674606Y-76744049D01*
X158774778Y-76627900D01*
X158882031Y-76504564D01*
X158992366Y-76378648D01*
X159101786Y-76254762D01*
X159206293Y-76137515D01*
X159226228Y-76115205D01*
X159319437Y-76009523D01*
X159418830Y-75894951D01*
X159517399Y-75779672D01*
X159608135Y-75671866D01*
X159684031Y-75579717D01*
X159987348Y-75212733D01*
X160370368Y-74767084D01*
X160781559Y-74306496D01*
X161220734Y-73831135D01*
X161687704Y-73341164D01*
X162182282Y-72836747D01*
X162704279Y-72318049D01*
X163253508Y-71785232D01*
X163829780Y-71238462D01*
X164432908Y-70677902D01*
X165062704Y-70103716D01*
X165718979Y-69516067D01*
X166401546Y-68915121D01*
X167110217Y-68301041D01*
X167844804Y-67673990D01*
X168605119Y-67034133D01*
X169390974Y-66381634D01*
X170202180Y-65716656D01*
X171038551Y-65039364D01*
X171899898Y-64349922D01*
X172786033Y-63648493D01*
X173696768Y-62935242D01*
X174631916Y-62210332D01*
X175591287Y-61473927D01*
X176574695Y-60726192D01*
X177581952Y-59967290D01*
X177748469Y-59842494D01*
X178532186Y-59257845D01*
X179337970Y-58661024D01*
X180161045Y-58055492D01*
X180996635Y-57444711D01*
X181839962Y-56832140D01*
X182686252Y-56221241D01*
X183530727Y-55615475D01*
X184368612Y-55018303D01*
X185195129Y-54433184D01*
X186005504Y-53863582D01*
X186023003Y-53851329D01*
X186245177Y-53695889D01*
X186460860Y-53545217D01*
X186668516Y-53400376D01*
X186866609Y-53262429D01*
X187053602Y-53132438D01*
X187227960Y-53011465D01*
X187388144Y-52900573D01*
X187532619Y-52800824D01*
X187659849Y-52713281D01*
X187768296Y-52639006D01*
X187856424Y-52579062D01*
X187922698Y-52534511D01*
X187965579Y-52506415D01*
X187983532Y-52495838D01*
X187987128Y-52497161D01*
X188008631Y-52516334D01*
X188044732Y-52554718D01*
X188091444Y-52607963D01*
X188144777Y-52671720D01*
X188292127Y-52851692D01*
X188030102Y-53100173D01*
X187957747Y-53168807D01*
X187815862Y-53303498D01*
X187672628Y-53439591D01*
X187531148Y-53574132D01*
X187394526Y-53704165D01*
X187265864Y-53826734D01*
X187148265Y-53938886D01*
X187044832Y-54037664D01*
X186958667Y-54120114D01*
X186892874Y-54183279D01*
X186729321Y-54340736D01*
X186807491Y-54437344D01*
X186885660Y-54533953D01*
X186607262Y-54799042D01*
X186576044Y-54828765D01*
X186504611Y-54896765D01*
X186414024Y-54982987D01*
X186307002Y-55084845D01*
X186186264Y-55199750D01*
X186054527Y-55325117D01*
X185914510Y-55458358D01*
X185768931Y-55596888D01*
X185620508Y-55738118D01*
X185471958Y-55879463D01*
X184873131Y-56449973D01*
X184117245Y-57172307D01*
X183381198Y-57878200D01*
X182665464Y-58567192D01*
X181970514Y-59238825D01*
X181296820Y-59892640D01*
X180644854Y-60528176D01*
X180015088Y-61144975D01*
X179407994Y-61742578D01*
X178824044Y-62320524D01*
X178263710Y-62878355D01*
X177727464Y-63415611D01*
X177650063Y-63493449D01*
X177483879Y-63660753D01*
X177320969Y-63824997D01*
X177163291Y-63984198D01*
X177012800Y-64136371D01*
X176871452Y-64279534D01*
X176741202Y-64411702D01*
X176624007Y-64530892D01*
X176521822Y-64635120D01*
X176436603Y-64722402D01*
X176370306Y-64790756D01*
X176324886Y-64838196D01*
X176086408Y-65090524D01*
X176086408Y-72043728D01*
X176086408Y-78996932D01*
X176171290Y-79005531D01*
X176176065Y-79005977D01*
X176219505Y-79008945D01*
X176289351Y-79012718D01*
X176380620Y-79017065D01*
X176488329Y-79021761D01*
X176607493Y-79026575D01*
X176733130Y-79031279D01*
X176812853Y-79034174D01*
X176949372Y-79039216D01*
X177108076Y-79045152D01*
X177283029Y-79051759D01*
X177468293Y-79058809D01*
X177657929Y-79066079D01*
X177846002Y-79073343D01*
X178026573Y-79080375D01*
X178201569Y-79087222D01*
X178640215Y-79104386D01*
X179048278Y-79120355D01*
X179427013Y-79135177D01*
X179777671Y-79148903D01*
X180101507Y-79161582D01*
X180399774Y-79173261D01*
X180673725Y-79183991D01*
X180924612Y-79193821D01*
X181153689Y-79202799D01*
X181362210Y-79210975D01*
X181551427Y-79218398D01*
X181722593Y-79225118D01*
X181876962Y-79231182D01*
X182015786Y-79236640D01*
X182140320Y-79241542D01*
X182251815Y-79245936D01*
X182351525Y-79249872D01*
X182451474Y-79253812D01*
X182580875Y-79258900D01*
X182736578Y-79265011D01*
X182915575Y-79272029D01*
X183114859Y-79279835D01*
X183331421Y-79288312D01*
X183562256Y-79297342D01*
X183804354Y-79306808D01*
X184054709Y-79316592D01*
X184310312Y-79326576D01*
X184568157Y-79336642D01*
X184825236Y-79346673D01*
X185081874Y-79356690D01*
X185339721Y-79366765D01*
X185595331Y-79376764D01*
X185845698Y-79386569D01*
X186087813Y-79396061D01*
X186318669Y-79405122D01*
X186535259Y-79413634D01*
X186734574Y-79421479D01*
X186913609Y-79428539D01*
X187069354Y-79434695D01*
X187198803Y-79439830D01*
X187298947Y-79443826D01*
X187376626Y-79446928D01*
X187508084Y-79452149D01*
X187664594Y-79458337D01*
X187842969Y-79465368D01*
X188040021Y-79473119D01*
X188252566Y-79481464D01*
X188477414Y-79490280D01*
X188711380Y-79499441D01*
X188951277Y-79508824D01*
X189193918Y-79518304D01*
X189436116Y-79527756D01*
X189674685Y-79537056D01*
X189906436Y-79546080D01*
X190128185Y-79554704D01*
X190336743Y-79562802D01*
X190528925Y-79570250D01*
X190701542Y-79576925D01*
X190851409Y-79582701D01*
X190975339Y-79587455D01*
X191070144Y-79591061D01*
X191365211Y-79602207D01*
X191365211Y-79839997D01*
X191365211Y-79840030D01*
X191365211Y-80077788D01*
X191070144Y-80088934D01*
X191004611Y-80091422D01*
X190888418Y-80095871D01*
X190745406Y-80101377D01*
X190578762Y-80107815D01*
X190391673Y-80115062D01*
X190187326Y-80122993D01*
X189968907Y-80131484D01*
X189739603Y-80140409D01*
X189502601Y-80149646D01*
X189261088Y-80159068D01*
X189018251Y-80168553D01*
X188777276Y-80177975D01*
X188541351Y-80187210D01*
X188313662Y-80196134D01*
X188097396Y-80204621D01*
X187895739Y-80212549D01*
X187711879Y-80219792D01*
X187549003Y-80226226D01*
X187410297Y-80231726D01*
X187298947Y-80236169D01*
X187199000Y-80240157D01*
X187069599Y-80245290D01*
X186913896Y-80251445D01*
X186734899Y-80258503D01*
X186535615Y-80266347D01*
X186319053Y-80274858D01*
X186088218Y-80283918D01*
X185846120Y-80293409D01*
X185595765Y-80303213D01*
X185340161Y-80313212D01*
X185082316Y-80323288D01*
X184825236Y-80333322D01*
X184568596Y-80343336D01*
X184310750Y-80353402D01*
X184055140Y-80363386D01*
X183804774Y-80373170D01*
X183562659Y-80382636D01*
X183331803Y-80391668D01*
X183115213Y-80400146D01*
X182915898Y-80407953D01*
X182736864Y-80414972D01*
X182581119Y-80421086D01*
X182451670Y-80426175D01*
X182351525Y-80430123D01*
X182314937Y-80431568D01*
X182210895Y-80435672D01*
X182094592Y-80440253D01*
X181964775Y-80445361D01*
X181820190Y-80451044D01*
X181659585Y-80457351D01*
X181481706Y-80464332D01*
X181285300Y-80472035D01*
X181069114Y-80480511D01*
X180831895Y-80489807D01*
X180572390Y-80499973D01*
X180289345Y-80511058D01*
X179981508Y-80523111D01*
X179647625Y-80536182D01*
X179286443Y-80550319D01*
X178896709Y-80565572D01*
X178477170Y-80581989D01*
X178026573Y-80599620D01*
X177900264Y-80604545D01*
X177713785Y-80611764D01*
X177523992Y-80619055D01*
X177336823Y-80626194D01*
X177158214Y-80632955D01*
X176994104Y-80639112D01*
X176850430Y-80644441D01*
X176733130Y-80648715D01*
X176604934Y-80653402D01*
X176465363Y-80658829D01*
X176353006Y-80663767D01*
X176264982Y-80668473D01*
X176198408Y-80673202D01*
X176150402Y-80678209D01*
X176118081Y-80683752D01*
X176098563Y-80690086D01*
X176088966Y-80697467D01*
X176086408Y-80706151D01*
X176088478Y-80716305D01*
X176106618Y-80729282D01*
X176107690Y-80729301D01*
X176132190Y-80730139D01*
X176185719Y-80732135D01*
X176265468Y-80735179D01*
X176368629Y-80739162D01*
X176492394Y-80743976D01*
X176633955Y-80749510D01*
X176790504Y-80755657D01*
X176959232Y-80762306D01*
X177137331Y-80769348D01*
X177238955Y-80773372D01*
X177419448Y-80780516D01*
X177596452Y-80787515D01*
X177772074Y-80794453D01*
X177948419Y-80801412D01*
X178127593Y-80808474D01*
X178311701Y-80815723D01*
X178502850Y-80823241D01*
X178703146Y-80831110D01*
X178914695Y-80839414D01*
X179139602Y-80848235D01*
X179379973Y-80857655D01*
X179637914Y-80867757D01*
X179915532Y-80878625D01*
X180214931Y-80890340D01*
X180538219Y-80902985D01*
X180887500Y-80916642D01*
X181264881Y-80931396D01*
X181672468Y-80947327D01*
X181892746Y-80955940D01*
X182159069Y-80966360D01*
X182426927Y-80976849D01*
X182692936Y-80987272D01*
X182953712Y-80997498D01*
X183205869Y-81007393D01*
X183446023Y-81016824D01*
X183670789Y-81025659D01*
X183876782Y-81033764D01*
X184060618Y-81041008D01*
X184218912Y-81047256D01*
X184348279Y-81052376D01*
X184417527Y-81055120D01*
X184588413Y-81061873D01*
X184784108Y-81069588D01*
X184999483Y-81078064D01*
X185229409Y-81087098D01*
X185468758Y-81096490D01*
X185712399Y-81106038D01*
X185955204Y-81115542D01*
X186192044Y-81124799D01*
X186417789Y-81133608D01*
X186525535Y-81137812D01*
X186756025Y-81146816D01*
X186994451Y-81156148D01*
X187235782Y-81165608D01*
X187474988Y-81174999D01*
X187707037Y-81184124D01*
X187926899Y-81192784D01*
X188129541Y-81200781D01*
X188309934Y-81207919D01*
X188463047Y-81214000D01*
X188593828Y-81219168D01*
X188765798Y-81225858D01*
X188935224Y-81232338D01*
X189097145Y-81238424D01*
X189246599Y-81243932D01*
X189378627Y-81248677D01*
X189488267Y-81252476D01*
X189570558Y-81255143D01*
X189577270Y-81255349D01*
X189676818Y-81258736D01*
X189766768Y-81262386D01*
X189841439Y-81266023D01*
X189895148Y-81269372D01*
X189922213Y-81272159D01*
X189930949Y-81274196D01*
X189942420Y-81280183D01*
X189950178Y-81293626D01*
X189954948Y-81319500D01*
X189957456Y-81362782D01*
X189958428Y-81428448D01*
X189958591Y-81521474D01*
X189958552Y-81579574D01*
X189958003Y-81655969D01*
X189956219Y-81707918D01*
X189952475Y-81740398D01*
X189946043Y-81758387D01*
X189936197Y-81766858D01*
X189922213Y-81770789D01*
X189921369Y-81770949D01*
X189892386Y-81773781D01*
X189837132Y-81777157D01*
X189761288Y-81780804D01*
X189670536Y-81784445D01*
X189570558Y-81787805D01*
X189509929Y-81789748D01*
X189406178Y-81793301D01*
X189278892Y-81797843D01*
X189133030Y-81803191D01*
X188973554Y-81809160D01*
X188805424Y-81815565D01*
X188633601Y-81822223D01*
X188463047Y-81828949D01*
X188392289Y-81831762D01*
X188225277Y-81838381D01*
X188033432Y-81845962D01*
X187821785Y-81854307D01*
X187595366Y-81863217D01*
X187359207Y-81872496D01*
X187118339Y-81881946D01*
X186877793Y-81891368D01*
X186642599Y-81900565D01*
X186417789Y-81909340D01*
X186315044Y-81913347D01*
X186083527Y-81922389D01*
X185843290Y-81931785D01*
X185599460Y-81941334D01*
X185357168Y-81950835D01*
X185121541Y-81960087D01*
X184897710Y-81968888D01*
X184690803Y-81977037D01*
X184505950Y-81984332D01*
X184348279Y-81990572D01*
X184241519Y-81994799D01*
X184087601Y-82000876D01*
X183907602Y-82007970D01*
X183704908Y-82015947D01*
X183482903Y-82024675D01*
X183244971Y-82034020D01*
X182994497Y-82043850D01*
X182734867Y-82054032D01*
X182469464Y-82064433D01*
X182201673Y-82074920D01*
X181934879Y-82085361D01*
X181672468Y-82095621D01*
X181444208Y-82104543D01*
X181053511Y-82119815D01*
X180691861Y-82133955D01*
X180357151Y-82147045D01*
X180047276Y-82159168D01*
X179760129Y-82170406D01*
X179493605Y-82180842D01*
X179245597Y-82190559D01*
X179014001Y-82199639D01*
X178796709Y-82208165D01*
X178591616Y-82216219D01*
X178396616Y-82223885D01*
X178209604Y-82231244D01*
X178028473Y-82238380D01*
X177851117Y-82245375D01*
X177675431Y-82252312D01*
X177499308Y-82259274D01*
X177320644Y-82266342D01*
X177137331Y-82273600D01*
X177106735Y-82274812D01*
X176930021Y-82281795D01*
X176763151Y-82288367D01*
X176608935Y-82294418D01*
X176470181Y-82299838D01*
X176349696Y-82304519D01*
X176250289Y-82308352D01*
X176174769Y-82311227D01*
X176125942Y-82313035D01*
X176106618Y-82313666D01*
X176106360Y-82313774D01*
X176104576Y-82320975D01*
X176102894Y-82340046D01*
X176101313Y-82371805D01*
X176099828Y-82417071D01*
X176098439Y-82476662D01*
X176097142Y-82551398D01*
X176095934Y-82642096D01*
X176094813Y-82749576D01*
X176093776Y-82874656D01*
X176092820Y-83018155D01*
X176091943Y-83180892D01*
X176091142Y-83363685D01*
X176090414Y-83567352D01*
X176089757Y-83792713D01*
X176089168Y-84040586D01*
X176088645Y-84311790D01*
X176088183Y-84607144D01*
X176087782Y-84927465D01*
X176087438Y-85273574D01*
X176087149Y-85646288D01*
X176086911Y-86046425D01*
X176086723Y-86474806D01*
X176086581Y-86932248D01*
X176086483Y-87419571D01*
X176086426Y-87937592D01*
X176086408Y-88487130D01*
X176086408Y-94660552D01*
X176133878Y-94732038D01*
X176145012Y-94748525D01*
X176211666Y-94840016D01*
X176300504Y-94952691D01*
X176410607Y-95085519D01*
X176541062Y-95237470D01*
X176690951Y-95407514D01*
X176859359Y-95594622D01*
X177045370Y-95797763D01*
X177248068Y-96015907D01*
X177466537Y-96248024D01*
X177699862Y-96493085D01*
X177747156Y-96542322D01*
X177860528Y-96659376D01*
X177994030Y-96796140D01*
X178145682Y-96950632D01*
X178313504Y-97120871D01*
X178495515Y-97304875D01*
X178689737Y-97500664D01*
X178894188Y-97706255D01*
X179106890Y-97919667D01*
X179325863Y-98138919D01*
X179549126Y-98362029D01*
X179774699Y-98587017D01*
X180000603Y-98811900D01*
X180224858Y-99034697D01*
X180445484Y-99253426D01*
X180660501Y-99466108D01*
X180867929Y-99670759D01*
X181065788Y-99865398D01*
X181252098Y-100048045D01*
X181445989Y-100237686D01*
X181694616Y-100480663D01*
X181935731Y-100716045D01*
X182170964Y-100945402D01*
X182401944Y-101170306D01*
X182630301Y-101392330D01*
X182857665Y-101613043D01*
X183085664Y-101834019D01*
X183315929Y-102056829D01*
X183550090Y-102283043D01*
X183789775Y-102514234D01*
X184036616Y-102751974D01*
X184292240Y-102997833D01*
X184558278Y-103253384D01*
X184836359Y-103520197D01*
X185128114Y-103799846D01*
X185435171Y-104093900D01*
X185759160Y-104403932D01*
X186101712Y-104731514D01*
X186410487Y-105026635D01*
X186464455Y-105078216D01*
X186849018Y-105445611D01*
X186997372Y-105587344D01*
X187172886Y-105755108D01*
X187340735Y-105915632D01*
X187499489Y-106067545D01*
X187647717Y-106209475D01*
X187783990Y-106340053D01*
X187906879Y-106457905D01*
X188014952Y-106561661D01*
X188106781Y-106649950D01*
X188180936Y-106721399D01*
X188235987Y-106774639D01*
X188270504Y-106808296D01*
X188283057Y-106821002D01*
X188283326Y-106821807D01*
X188274725Y-106841115D01*
X188249535Y-106878422D01*
X188212239Y-106928260D01*
X188167321Y-106985158D01*
X188119265Y-107043649D01*
X188072554Y-107098263D01*
X188031671Y-107143531D01*
X188001102Y-107173986D01*
X187985328Y-107184157D01*
X187972246Y-107177295D01*
X187933016Y-107152579D01*
X187870031Y-107110963D01*
X187784764Y-107053482D01*
X187678690Y-106981168D01*
X187553281Y-106895056D01*
X187410012Y-106796180D01*
X187250354Y-106685573D01*
X187075783Y-106564270D01*
X186887771Y-106433304D01*
X186687792Y-106293709D01*
X186477319Y-106146519D01*
X186257826Y-105992769D01*
X186030785Y-105833490D01*
X185797672Y-105669719D01*
X185559958Y-105502488D01*
X185319118Y-105332831D01*
X185076625Y-105161782D01*
X184833953Y-104990376D01*
X184592574Y-104819645D01*
X184353962Y-104650624D01*
X184119592Y-104484346D01*
X183890935Y-104321846D01*
X183669466Y-104164158D01*
X183456658Y-104012315D01*
X183253985Y-103867350D01*
X183062919Y-103730299D01*
X183049868Y-103720921D01*
X182794968Y-103537529D01*
X182529076Y-103345794D01*
X182254381Y-103147315D01*
X181973077Y-102943691D01*
X181687354Y-102736525D01*
X181399406Y-102527414D01*
X181111422Y-102317961D01*
X180825597Y-102109764D01*
X180544120Y-101904424D01*
X180269185Y-101703541D01*
X180002983Y-101508715D01*
X179747705Y-101321547D01*
X179505544Y-101143636D01*
X179278692Y-100976582D01*
X179069340Y-100821987D01*
X178879679Y-100681449D01*
X178711903Y-100556569D01*
X178568203Y-100448948D01*
X178558216Y-100441617D01*
X178546274Y-100433968D01*
X178542953Y-100434318D01*
X178549289Y-100443708D01*
X178566322Y-100463179D01*
X178595089Y-100493771D01*
X178636628Y-100536527D01*
X178691979Y-100592486D01*
X178762178Y-100662689D01*
X178848265Y-100748178D01*
X178951276Y-100849993D01*
X179072252Y-100969175D01*
X179212229Y-101106766D01*
X179372247Y-101263806D01*
X179553342Y-101441335D01*
X179756554Y-101640396D01*
X179903029Y-101783804D01*
X180133052Y-102008856D01*
X180356069Y-102226838D01*
X180573530Y-102439149D01*
X180786883Y-102647186D01*
X180997579Y-102852347D01*
X181207066Y-103056031D01*
X181416794Y-103259635D01*
X181628211Y-103464558D01*
X181842768Y-103672196D01*
X182061913Y-103883949D01*
X182287096Y-104101213D01*
X182519765Y-104325387D01*
X182761371Y-104557869D01*
X183013363Y-104800057D01*
X183277189Y-105053349D01*
X183554299Y-105319141D01*
X183846143Y-105598834D01*
X184154169Y-105893824D01*
X184479827Y-106205509D01*
X184824566Y-106535287D01*
X185189835Y-106884556D01*
X185577084Y-107254715D01*
X185731057Y-107401908D01*
X185894338Y-107558085D01*
X186050050Y-107707107D01*
X186196611Y-107847458D01*
X186332438Y-107977621D01*
X186455951Y-108096077D01*
X186565568Y-108201308D01*
X186659706Y-108291797D01*
X186736785Y-108366026D01*
X186795222Y-108422477D01*
X186833435Y-108459633D01*
X186849843Y-108475975D01*
X186885781Y-108515172D01*
X186730879Y-108704449D01*
X186716270Y-108722191D01*
X186656610Y-108792013D01*
X186608555Y-108843796D01*
X186574668Y-108874906D01*
X186557514Y-108882704D01*
X186536952Y-108869475D01*
X186489766Y-108837792D01*
X186419827Y-108790130D01*
X186329157Y-108727897D01*
X186219780Y-108652502D01*
X186093718Y-108565354D01*
X185952994Y-108467860D01*
X185799631Y-108361428D01*
X185635651Y-108247468D01*
X185463076Y-108127388D01*
X185283930Y-108002596D01*
X185100235Y-107874499D01*
X184914014Y-107744508D01*
X184727290Y-107614029D01*
X184542085Y-107484472D01*
X184360422Y-107357244D01*
X184184323Y-107233754D01*
X184015812Y-107115411D01*
X183856910Y-107003622D01*
X183709641Y-106899797D01*
X183338724Y-106637599D01*
X182294931Y-105895770D01*
X181260914Y-105155012D01*
X180237656Y-104416080D01*
X179226139Y-103679728D01*
X178227343Y-102946710D01*
X177242252Y-102217780D01*
X176271847Y-101493693D01*
X175317110Y-100775203D01*
X174379022Y-100063065D01*
X173458566Y-99358032D01*
X172556723Y-98660859D01*
X171674476Y-97972300D01*
X170812806Y-97293109D01*
X169972694Y-96624042D01*
X169155124Y-95965851D01*
X168361076Y-95319292D01*
X167591533Y-94685118D01*
X166847476Y-94064084D01*
X166129888Y-93456945D01*
X165439750Y-92864454D01*
X165258669Y-92707491D01*
X164554354Y-92090964D01*
X163878064Y-91489113D01*
X163229837Y-90901976D01*
X162609715Y-90329595D01*
X162017737Y-89772008D01*
X161453944Y-89229255D01*
X160918374Y-88701377D01*
X160411069Y-88188413D01*
X159932069Y-87690403D01*
X159481413Y-87207387D01*
X159059141Y-86739405D01*
X158665294Y-86286496D01*
X158299912Y-85848700D01*
X157963034Y-85426057D01*
X157924364Y-85376215D01*
X157855370Y-85286832D01*
X157791877Y-85204025D01*
X157737489Y-85132519D01*
X157695809Y-85077039D01*
X157670439Y-85042310D01*
X157616619Y-84965757D01*
X157476987Y-85236327D01*
X157364068Y-85446249D01*
X157172761Y-85766905D01*
X156968797Y-86069243D01*
X156754356Y-86350468D01*
X156531617Y-86607785D01*
X156302760Y-86838403D01*
X156069966Y-87039525D01*
X156065791Y-87042847D01*
X156019101Y-87082638D01*
X155978898Y-87123908D01*
X155939784Y-87173437D01*
X155896364Y-87238004D01*
X155843243Y-87324388D01*
X155786909Y-87416541D01*
X155561466Y-87754258D01*
X155323323Y-88063672D01*
X155072874Y-88344479D01*
X154810517Y-88596380D01*
X154536646Y-88819071D01*
X154251658Y-89012252D01*
X153955948Y-89175621D01*
X153649912Y-89308877D01*
X153333946Y-89411718D01*
X153008446Y-89483843D01*
X152983948Y-89487919D01*
X152912881Y-89498422D01*
X152851314Y-89505741D01*
X152810388Y-89508489D01*
X152809266Y-89508492D01*
X152770530Y-89514151D01*
X152755930Y-89528699D01*
X152758777Y-89550406D01*
X152768153Y-89601942D01*
X152783483Y-89679715D01*
X152804161Y-89780938D01*
X152829581Y-89902827D01*
X152859135Y-90042597D01*
X152892219Y-90197460D01*
X152928226Y-90364633D01*
X152966549Y-90541330D01*
X153006583Y-90724765D01*
X153047720Y-90912153D01*
X153089356Y-91100709D01*
X153130884Y-91287646D01*
X153171696Y-91470180D01*
X153211188Y-91645525D01*
X153248753Y-91810896D01*
X153283785Y-91963507D01*
X153315678Y-92100572D01*
X153409845Y-92501885D01*
X154242939Y-92490807D01*
X154367487Y-92489333D01*
X155170125Y-92488874D01*
X155948108Y-92504357D01*
X156701162Y-92535735D01*
X157429012Y-92582959D01*
X158131382Y-92645982D01*
X158807999Y-92724756D01*
X159458587Y-92819233D01*
X160082872Y-92929366D01*
X160680579Y-93055106D01*
X161251432Y-93196406D01*
X161795158Y-93353219D01*
X162311481Y-93525495D01*
X162800126Y-93713188D01*
X163260819Y-93916249D01*
X163693286Y-94134631D01*
X163832288Y-94210963D01*
X164015995Y-94316923D01*
X164180737Y-94419361D01*
X164333259Y-94522925D01*
X164480304Y-94632261D01*
X164628618Y-94752017D01*
X164784944Y-94886840D01*
X164887156Y-94979189D01*
X165216906Y-95304986D01*
X165522201Y-95651125D01*
X165802544Y-96016422D01*
X166057438Y-96399692D01*
X166286385Y-96799749D01*
X166488889Y-97215409D01*
X166664451Y-97645486D01*
X166812575Y-98088795D01*
X166932763Y-98544150D01*
X167024518Y-99010368D01*
X167087343Y-99486262D01*
X167120741Y-99970648D01*
X167122027Y-100152623D01*
X167124215Y-100462340D01*
X167123131Y-100504313D01*
X167097068Y-100975831D01*
X167045314Y-101432199D01*
X166966962Y-101878675D01*
X166861103Y-102320517D01*
X166726830Y-102762982D01*
X166696878Y-102850576D01*
X166540387Y-103258756D01*
X166360096Y-103656727D01*
X166157839Y-104041600D01*
X165935449Y-104410489D01*
X165694761Y-104760506D01*
X165437609Y-105088763D01*
X165165828Y-105392374D01*
X164881250Y-105668451D01*
X164860840Y-105686893D01*
X164796853Y-105746402D01*
X164744210Y-105799578D01*
X164697254Y-105853195D01*
X164650327Y-105914028D01*
X164597774Y-105988855D01*
X164533936Y-106084449D01*
X164493248Y-106145540D01*
X164425521Y-106245112D01*
X164356979Y-106343714D01*
X164293723Y-106432603D01*
X164241852Y-106503035D01*
X164116996Y-106662894D01*
X163817870Y-107009204D01*
X163499190Y-107330000D01*
X163161709Y-107624854D01*
X162806180Y-107893333D01*
X162433356Y-108135009D01*
X162043989Y-108349450D01*
X161638834Y-108536227D01*
X161218642Y-108694909D01*
X160784168Y-108825066D01*
X160336163Y-108926267D01*
X159875381Y-108998083D01*
X159873824Y-108998273D01*
X159502808Y-109032619D01*
X159114631Y-109048175D01*
X158718357Y-109045013D01*
X158323051Y-109023203D01*
X157937776Y-108982818D01*
X157801877Y-108964824D01*
X157491941Y-108922847D01*
X157198820Y-108881630D01*
X156918128Y-108840422D01*
X156645476Y-108798468D01*
X156376477Y-108755015D01*
X156106743Y-108709310D01*
X155831888Y-108660598D01*
X155547522Y-108608127D01*
X155249259Y-108551142D01*
X154932711Y-108488891D01*
X154593491Y-108420619D01*
X154227210Y-108345574D01*
X154163706Y-108332458D01*
X154030007Y-108304759D01*
X153896641Y-108277004D01*
X153762014Y-108248847D01*
X153624529Y-108219942D01*
X153482590Y-108189943D01*
X153334603Y-108158505D01*
X153178973Y-108125283D01*
X153014102Y-108089931D01*
X152838397Y-108052103D01*
X152650261Y-108011453D01*
X152448099Y-107967637D01*
X152230315Y-107920309D01*
X151995315Y-107869122D01*
X151741502Y-107813732D01*
X151467281Y-107753793D01*
X151171056Y-107688959D01*
X150851233Y-107618886D01*
X150506215Y-107543226D01*
X150134407Y-107461635D01*
X149734214Y-107373767D01*
X149304040Y-107279277D01*
X149195680Y-107255480D01*
X148505749Y-107104445D01*
X147845372Y-106960749D01*
X147212948Y-106824068D01*
X146606875Y-106694077D01*
X146025549Y-106570452D01*
X145467368Y-106452870D01*
X144930730Y-106341005D01*
X144414032Y-106234534D01*
X143915673Y-106133133D01*
X143434049Y-106036477D01*
X142967558Y-105944242D01*
X142514598Y-105856104D01*
X142073566Y-105771739D01*
X141642860Y-105690823D01*
X141220877Y-105613030D01*
X140806015Y-105538038D01*
X140396672Y-105465522D01*
X139991245Y-105395158D01*
X139979548Y-105393149D01*
X139107401Y-105247319D01*
X138262529Y-105113919D01*
X137445138Y-104992970D01*
X136655434Y-104884494D01*
X135893624Y-104788511D01*
X135159913Y-104705041D01*
X134454506Y-104634105D01*
X133777611Y-104575724D01*
X133129432Y-104529920D01*
X132510177Y-104496711D01*
X131920050Y-104476120D01*
X131359257Y-104468167D01*
X130828005Y-104472873D01*
X130744330Y-104474794D01*
X130623861Y-104478055D01*
X130516816Y-104481547D01*
X130426976Y-104485114D01*
X130358123Y-104488600D01*
X130314037Y-104491849D01*
X130298502Y-104494706D01*
X130301135Y-104497207D01*
X130326875Y-104509399D01*
X130375674Y-104528683D01*
X130442124Y-104552979D01*
X130520813Y-104580206D01*
X130743123Y-104655194D01*
X130401782Y-104656571D01*
X130060441Y-104657948D01*
X130050469Y-104775166D01*
X130048402Y-104804457D01*
X130044816Y-104871765D01*
X130040896Y-104961273D01*
X130036886Y-105066879D01*
X130033027Y-105182480D01*
X130029562Y-105301975D01*
X130018627Y-105711565D01*
X129760733Y-105455571D01*
X129738399Y-105433348D01*
X129590684Y-105283018D01*
X129464065Y-105147392D01*
X129354616Y-105021993D01*
X129258408Y-104902345D01*
X129171515Y-104783973D01*
X129080121Y-104653544D01*
X128876867Y-104664654D01*
X128584191Y-104688200D01*
X128179219Y-104746271D01*
X127784171Y-104832949D01*
X127401321Y-104947618D01*
X127032947Y-105089664D01*
X126681324Y-105258470D01*
X126672960Y-105262923D01*
X126604761Y-105299882D01*
X126548173Y-105331666D01*
X126508883Y-105355016D01*
X126492577Y-105366671D01*
X126493059Y-105367282D01*
X126513342Y-105376074D01*
X126561749Y-105394145D01*
X126636167Y-105420766D01*
X126734480Y-105455214D01*
X126854571Y-105496761D01*
X126994326Y-105544682D01*
X127151629Y-105598251D01*
X127324364Y-105656741D01*
X127510416Y-105719427D01*
X127707670Y-105785582D01*
X127914009Y-105854481D01*
X127959589Y-105869673D01*
X128164091Y-105937972D01*
X128359035Y-106003297D01*
X128542306Y-106064927D01*
X128711792Y-106122144D01*
X128865379Y-106174226D01*
X129000953Y-106220454D01*
X129116401Y-106260107D01*
X129209610Y-106292465D01*
X129278466Y-106316808D01*
X129320855Y-106332416D01*
X129334665Y-106338568D01*
X129331901Y-106339117D01*
X129303379Y-106340759D01*
X129246243Y-106342614D01*
X129163199Y-106344634D01*
X129056957Y-106346771D01*
X128930224Y-106348976D01*
X128785709Y-106351201D01*
X128626120Y-106353398D01*
X128454164Y-106355518D01*
X128272549Y-106357513D01*
X128129651Y-106359041D01*
X127924352Y-106361484D01*
X127747193Y-106363976D01*
X127595589Y-106366595D01*
X127466952Y-106369419D01*
X127358694Y-106372528D01*
X127268230Y-106375999D01*
X127192971Y-106379912D01*
X127130330Y-106384343D01*
X127077721Y-106389372D01*
X127032557Y-106395077D01*
X126922916Y-106411663D01*
X126601592Y-106471064D01*
X126293204Y-106545488D01*
X125995019Y-106636328D01*
X125704304Y-106744978D01*
X125418329Y-106872831D01*
X125134361Y-107021282D01*
X124849667Y-107191725D01*
X124561517Y-107385553D01*
X124267179Y-107604160D01*
X123963919Y-107848939D01*
X123649006Y-108121286D01*
X123641284Y-108128190D01*
X123574648Y-108188975D01*
X123488363Y-108269301D01*
X123385341Y-108366356D01*
X123268491Y-108477326D01*
X123140726Y-108599400D01*
X123004958Y-108729764D01*
X122864097Y-108865606D01*
X122721055Y-109004113D01*
X122578744Y-109142473D01*
X122440074Y-109277872D01*
X122307958Y-109407500D01*
X122185306Y-109528542D01*
X122075031Y-109638186D01*
X121980042Y-109733620D01*
X121915753Y-109798142D01*
X121866262Y-109846047D01*
X121832786Y-109875354D01*
X121812115Y-109888562D01*
X121801040Y-109888172D01*
X121796349Y-109876684D01*
X121795617Y-109870033D01*
X121793980Y-109829772D01*
X121793185Y-109762566D01*
X121793157Y-109672465D01*
X121793822Y-109563519D01*
X121795105Y-109439777D01*
X121796934Y-109305291D01*
X121799232Y-109164109D01*
X121801926Y-109020281D01*
X121804942Y-108877857D01*
X121808206Y-108740887D01*
X121811642Y-108613421D01*
X121815178Y-108499508D01*
X121818738Y-108403199D01*
X121822248Y-108328543D01*
X121825635Y-108279590D01*
X121865415Y-107914306D01*
X121915375Y-107561185D01*
X121975554Y-107227007D01*
X122018028Y-107036449D01*
X123707786Y-107036449D01*
X123713874Y-107049998D01*
X123715160Y-107049471D01*
X123734288Y-107034219D01*
X123772072Y-107000421D01*
X123824839Y-106951475D01*
X123888915Y-106890778D01*
X123960628Y-106821730D01*
X124034064Y-106750630D01*
X124272090Y-106522514D01*
X124491895Y-106315885D01*
X124695965Y-106128635D01*
X124886786Y-105958655D01*
X125066845Y-105803836D01*
X125238627Y-105662073D01*
X125404618Y-105531255D01*
X125567305Y-105409275D01*
X125729173Y-105294025D01*
X125892709Y-105183396D01*
X126044392Y-105085159D01*
X126247360Y-104960881D01*
X126440907Y-104852021D01*
X126633085Y-104754335D01*
X126831946Y-104663576D01*
X127045542Y-104575499D01*
X127063982Y-104568301D01*
X127219445Y-104511908D01*
X127393578Y-104455045D01*
X127574577Y-104401245D01*
X127750638Y-104354036D01*
X127909959Y-104316950D01*
X127969619Y-104303848D01*
X128028595Y-104289470D01*
X128068688Y-104277963D01*
X128083480Y-104271026D01*
X128082207Y-104269982D01*
X128059130Y-104260218D01*
X128009577Y-104241778D01*
X127936822Y-104215809D01*
X127844141Y-104183458D01*
X127734812Y-104145870D01*
X127612108Y-104104192D01*
X127479306Y-104059570D01*
X126875133Y-103857629D01*
X127115223Y-103655529D01*
X127196028Y-103588598D01*
X127387682Y-103439736D01*
X127576088Y-103309007D01*
X127768343Y-103192280D01*
X127971545Y-103085423D01*
X128192791Y-102984305D01*
X128439177Y-102884793D01*
X128581167Y-102833588D01*
X128781930Y-102769053D01*
X129001821Y-102705582D01*
X129233540Y-102644976D01*
X129469793Y-102589033D01*
X129703281Y-102539551D01*
X129926709Y-102498332D01*
X130132779Y-102467174D01*
X130165913Y-102462506D01*
X130203167Y-102456128D01*
X130217662Y-102451928D01*
X130214937Y-102445330D01*
X130200651Y-102414204D01*
X130176201Y-102362103D01*
X130143938Y-102294025D01*
X130106212Y-102214967D01*
X130101694Y-102205495D01*
X130051582Y-102096930D01*
X129997269Y-101974092D01*
X129945010Y-101851363D01*
X129901057Y-101743125D01*
X129807352Y-101504113D01*
X129741692Y-101512866D01*
X129714800Y-101516466D01*
X129389227Y-101562901D01*
X129092833Y-101610940D01*
X128822699Y-101661316D01*
X128575908Y-101714765D01*
X128349542Y-101772018D01*
X128140682Y-101833811D01*
X127946411Y-101900875D01*
X127763810Y-101973945D01*
X127657833Y-102022596D01*
X127589962Y-102053754D01*
X127389926Y-102161459D01*
X127210157Y-102281052D01*
X127059473Y-102408744D01*
X126936475Y-102545728D01*
X126839767Y-102693195D01*
X126783386Y-102787507D01*
X126708079Y-102886365D01*
X126631393Y-102955295D01*
X126551725Y-102995656D01*
X126467471Y-103008807D01*
X126436772Y-103006923D01*
X126353413Y-102981641D01*
X126281785Y-102930285D01*
X126226815Y-102857210D01*
X126193431Y-102766765D01*
X126187828Y-102734815D01*
X126179473Y-102644029D01*
X126176607Y-102530701D01*
X126179164Y-102401242D01*
X126187076Y-102262060D01*
X126200275Y-102119564D01*
X126204944Y-102078834D01*
X126206877Y-102062976D01*
X126676860Y-102062976D01*
X126677363Y-102086920D01*
X126682905Y-102100103D01*
X126699950Y-102092128D01*
X126734975Y-102062996D01*
X126781952Y-102022596D01*
X126729406Y-102022576D01*
X126702018Y-102023995D01*
X126681534Y-102034906D01*
X126676860Y-102062976D01*
X126206877Y-102062976D01*
X126216122Y-101987141D01*
X126229338Y-101884338D01*
X126243830Y-101775822D01*
X126258837Y-101666994D01*
X126273595Y-101563252D01*
X126287344Y-101469994D01*
X126299322Y-101392620D01*
X126308767Y-101336529D01*
X126314917Y-101307120D01*
X126317765Y-101295831D01*
X126316685Y-101283405D01*
X126304688Y-101286778D01*
X126279793Y-101307740D01*
X126240021Y-101348077D01*
X126183389Y-101409580D01*
X126107919Y-101494035D01*
X125858296Y-101782903D01*
X125529525Y-102189245D01*
X125231037Y-102591398D01*
X124962033Y-102990797D01*
X124721710Y-103388879D01*
X124509267Y-103787078D01*
X124323903Y-104186831D01*
X124164816Y-104589572D01*
X124031206Y-104996737D01*
X123922272Y-105409762D01*
X123892494Y-105544750D01*
X123845874Y-105786207D01*
X123804429Y-106038810D01*
X123769665Y-106292189D01*
X123743088Y-106535973D01*
X123726204Y-106759794D01*
X123723404Y-106807920D01*
X123718365Y-106883899D01*
X123713388Y-106948070D01*
X123709227Y-106990188D01*
X123707988Y-107001768D01*
X123707786Y-107036449D01*
X122018028Y-107036449D01*
X122047230Y-106905433D01*
X122131682Y-106590127D01*
X122230189Y-106274752D01*
X122271135Y-106155248D01*
X122415178Y-105776992D01*
X122580271Y-105402624D01*
X122767467Y-105030529D01*
X122977820Y-104659090D01*
X123212382Y-104286691D01*
X123472207Y-103911714D01*
X123758347Y-103532545D01*
X124071857Y-103147566D01*
X124413790Y-102755161D01*
X124785198Y-102353714D01*
X124804221Y-102333547D01*
X124870782Y-102260725D01*
X124933604Y-102188859D01*
X124986364Y-102125304D01*
X125022740Y-102077414D01*
X125090517Y-101979668D01*
X124893396Y-101959604D01*
X124847475Y-101954769D01*
X124529078Y-101912930D01*
X124204992Y-101856645D01*
X123881492Y-101787489D01*
X123564848Y-101707036D01*
X123261334Y-101616862D01*
X122977222Y-101518541D01*
X122718785Y-101413648D01*
X122421698Y-101270497D01*
X122114854Y-101094484D01*
X121832202Y-100900984D01*
X121574533Y-100690848D01*
X121342641Y-100464931D01*
X121137316Y-100224084D01*
X120959350Y-99969163D01*
X120809537Y-99701019D01*
X120688666Y-99420505D01*
X120597532Y-99128476D01*
X120595567Y-99120884D01*
X120589132Y-99097294D01*
X120583030Y-99076328D01*
X120577251Y-99057132D01*
X120571785Y-99038854D01*
X120566623Y-99020641D01*
X120561756Y-99001641D01*
X120557173Y-98981000D01*
X120552865Y-98957867D01*
X120548823Y-98931389D01*
X120545036Y-98900712D01*
X120541496Y-98864984D01*
X120538192Y-98823353D01*
X120535116Y-98774966D01*
X120532257Y-98718970D01*
X120529606Y-98654513D01*
X120527153Y-98580741D01*
X120524889Y-98496803D01*
X120522804Y-98401845D01*
X120520889Y-98295015D01*
X120519133Y-98175461D01*
X120517528Y-98042329D01*
X120516064Y-97894767D01*
X120514730Y-97731922D01*
X120513519Y-97552942D01*
X120512419Y-97356973D01*
X120511421Y-97143164D01*
X120510516Y-96910662D01*
X120509694Y-96658613D01*
X120508946Y-96386166D01*
X120508262Y-96092467D01*
X120507632Y-95776665D01*
X120507047Y-95437905D01*
X120506497Y-95075336D01*
X120505972Y-94688105D01*
X120505464Y-94275360D01*
X120504962Y-93836246D01*
X120504456Y-93369913D01*
X120503938Y-92875508D01*
X120503397Y-92352176D01*
X120502825Y-91799067D01*
X120502210Y-91215327D01*
X120501545Y-90600104D01*
X120492582Y-82451681D01*
X116897042Y-90926915D01*
X113301501Y-99402150D01*
X112832555Y-99697808D01*
X112746484Y-99752324D01*
X112641620Y-99819464D01*
X112547813Y-99880329D01*
X112468341Y-99932753D01*
X112406480Y-99974571D01*
X112365507Y-100003615D01*
X112348698Y-100017719D01*
X112341087Y-100033470D01*
X112321869Y-100076453D01*
X112292959Y-100142580D01*
X112255900Y-100228283D01*
X112212232Y-100329992D01*
X112163500Y-100444139D01*
X112111246Y-100567154D01*
X111888703Y-101092337D01*
X105802673Y-104936814D01*
X105613083Y-105056574D01*
X105208397Y-105312194D01*
X104810571Y-105563464D01*
X104420495Y-105809822D01*
X104039059Y-106050708D01*
X103667154Y-106285558D01*
X103305670Y-106513812D01*
X102955497Y-106734907D01*
X102617526Y-106948281D01*
X102292647Y-107153373D01*
X101981750Y-107349621D01*
X101685726Y-107536463D01*
X101405464Y-107713336D01*
X101141855Y-107879680D01*
X100895790Y-108034932D01*
X100668159Y-108178530D01*
X100459851Y-108309913D01*
X100271758Y-108428519D01*
X100104770Y-108533786D01*
X99959777Y-108625152D01*
X99837668Y-108702055D01*
X99739336Y-108763933D01*
X99665669Y-108810225D01*
X99617558Y-108840368D01*
X99595894Y-108853801D01*
X99551890Y-108879372D01*
X99494492Y-108907791D01*
X99447632Y-108922243D01*
X99401877Y-108926251D01*
X99324437Y-108914405D01*
X99248765Y-108874438D01*
X99191094Y-108809241D01*
X99184706Y-108797601D01*
X99167397Y-108748499D01*
X99159561Y-108696291D01*
X99162111Y-108651991D01*
X99175960Y-108626618D01*
X99185107Y-108608289D01*
X99184045Y-108573118D01*
X99181812Y-108558373D01*
X99186423Y-108534401D01*
X99207838Y-108510721D01*
X99251812Y-108479376D01*
X99254122Y-108477817D01*
X99286187Y-108453946D01*
X99338176Y-108412935D01*
X99407451Y-108357004D01*
X99491375Y-108288375D01*
X99587308Y-108209267D01*
X99692614Y-108121901D01*
X99804655Y-108028496D01*
X99920792Y-107931274D01*
X100038388Y-107832455D01*
X100154805Y-107734259D01*
X100267404Y-107638907D01*
X100373549Y-107548618D01*
X100470602Y-107465613D01*
X100555923Y-107392113D01*
X100626876Y-107330338D01*
X100680823Y-107282507D01*
X100715126Y-107250843D01*
X100727146Y-107237564D01*
X100721854Y-107230200D01*
X100699243Y-107205296D01*
X100664889Y-107169939D01*
X100619534Y-107112738D01*
X100592244Y-107052475D01*
X100586471Y-106997725D01*
X100604236Y-106955633D01*
X100616886Y-106933946D01*
X100620094Y-106894644D01*
X100618336Y-106882705D01*
X100628964Y-106854523D01*
X100665169Y-106823276D01*
X100670236Y-106819660D01*
X100709716Y-106789469D01*
X100770441Y-106740999D01*
X100849650Y-106676555D01*
X100944586Y-106598444D01*
X101052487Y-106508973D01*
X101170595Y-106410448D01*
X101296151Y-106305177D01*
X101426396Y-106195465D01*
X101558569Y-106083620D01*
X101689912Y-105971948D01*
X101817666Y-105862756D01*
X101939070Y-105758351D01*
X101992559Y-105712148D01*
X102619032Y-105165173D01*
X102781972Y-105020123D01*
X103499827Y-105020123D01*
X103500333Y-105028928D01*
X103505122Y-105026284D01*
X103534471Y-105008422D01*
X103589613Y-104974247D01*
X103669560Y-104924382D01*
X103773321Y-104859451D01*
X103899905Y-104780078D01*
X104048322Y-104686887D01*
X104217581Y-104580501D01*
X104406692Y-104461546D01*
X104614665Y-104330644D01*
X104840509Y-104188419D01*
X105083234Y-104035496D01*
X105341850Y-103872499D01*
X105615365Y-103700050D01*
X105902790Y-103518775D01*
X106203134Y-103329297D01*
X106515406Y-103132240D01*
X106838617Y-102928228D01*
X107171776Y-102717885D01*
X107513892Y-102501835D01*
X107863975Y-102280701D01*
X108221035Y-102055108D01*
X112925937Y-99082174D01*
X117663174Y-87914974D01*
X120758632Y-80617979D01*
X122408496Y-80617979D01*
X122408496Y-88764110D01*
X122408496Y-89142482D01*
X122408499Y-89735755D01*
X122408508Y-90298063D01*
X122408527Y-90830259D01*
X122408559Y-91333194D01*
X122408607Y-91807718D01*
X122408675Y-92254683D01*
X122408766Y-92674940D01*
X122408882Y-93069341D01*
X122409029Y-93438737D01*
X122409208Y-93783979D01*
X122409423Y-94105919D01*
X122409678Y-94405408D01*
X122409975Y-94683297D01*
X122410319Y-94940438D01*
X122410712Y-95177681D01*
X122411158Y-95395879D01*
X122411660Y-95595882D01*
X122412222Y-95778542D01*
X122412846Y-95944710D01*
X122413536Y-96095238D01*
X122414296Y-96230976D01*
X122415129Y-96352776D01*
X122416037Y-96461490D01*
X122417025Y-96557969D01*
X122418096Y-96643063D01*
X122419253Y-96717625D01*
X122420499Y-96782506D01*
X122421838Y-96838556D01*
X122423273Y-96886628D01*
X122424807Y-96927573D01*
X122426444Y-96962241D01*
X122428187Y-96991485D01*
X122430039Y-97016155D01*
X122432004Y-97037103D01*
X122434085Y-97055181D01*
X122436285Y-97071238D01*
X122438608Y-97086128D01*
X122441056Y-97100701D01*
X122492846Y-97337757D01*
X122582239Y-97609786D01*
X122701472Y-97869547D01*
X122850383Y-98116738D01*
X123028807Y-98351058D01*
X123236582Y-98572205D01*
X123331807Y-98660411D01*
X123578436Y-98859395D01*
X123849227Y-99038769D01*
X124145682Y-99199572D01*
X124293468Y-99269239D01*
X124569687Y-99385028D01*
X124857558Y-99487123D01*
X125159841Y-99576153D01*
X125479297Y-99652749D01*
X125818685Y-99717540D01*
X126180767Y-99771157D01*
X126568303Y-99814230D01*
X126984053Y-99847388D01*
X126987396Y-99847606D01*
X127080659Y-99852273D01*
X127199898Y-99856174D01*
X127339025Y-99859274D01*
X127491948Y-99861537D01*
X127652580Y-99862926D01*
X127814831Y-99863406D01*
X127972611Y-99862941D01*
X128119832Y-99861494D01*
X128250405Y-99859030D01*
X128358239Y-99855512D01*
X128373895Y-99854823D01*
X128463602Y-99850379D01*
X128566563Y-99844617D01*
X128678224Y-99837858D01*
X128794032Y-99830423D01*
X128909434Y-99822633D01*
X129019876Y-99814808D01*
X129120804Y-99807271D01*
X129207666Y-99800341D01*
X129275907Y-99794341D01*
X129320974Y-99789590D01*
X129338315Y-99786411D01*
X129336518Y-99771167D01*
X129329676Y-99729011D01*
X129318631Y-99665001D01*
X129304252Y-99584173D01*
X129287410Y-99491568D01*
X129261179Y-99344377D01*
X129196556Y-98940210D01*
X129138506Y-98514440D01*
X129087995Y-98074523D01*
X129045990Y-97627915D01*
X129038354Y-97536395D01*
X129031496Y-97453709D01*
X129026073Y-97387815D01*
X129022508Y-97343857D01*
X129021226Y-97326978D01*
X129020793Y-97326711D01*
X129000595Y-97324687D01*
X128953739Y-97322131D01*
X128885093Y-97319250D01*
X128799527Y-97316252D01*
X128701907Y-97313345D01*
X128608840Y-97309991D01*
X128490496Y-97303796D01*
X128376026Y-97295924D01*
X128274917Y-97287041D01*
X128196656Y-97277815D01*
X127963262Y-97237595D01*
X127636053Y-97156803D01*
X127328579Y-97050438D01*
X127040983Y-96918634D01*
X126773403Y-96761523D01*
X126525981Y-96579239D01*
X126298858Y-96371913D01*
X126092172Y-96139677D01*
X125906066Y-95882666D01*
X125740679Y-95601010D01*
X125596151Y-95294844D01*
X125472624Y-94964299D01*
X125370237Y-94609507D01*
X125340207Y-94484903D01*
X125294323Y-94269977D01*
X125256762Y-94055640D01*
X125226684Y-93835360D01*
X125203251Y-93602606D01*
X125185622Y-93350844D01*
X125172960Y-93073543D01*
X125172031Y-93037066D01*
X125170896Y-92963386D01*
X125169787Y-92859447D01*
X125168708Y-92726400D01*
X125167662Y-92565396D01*
X125166650Y-92377588D01*
X125165676Y-92164127D01*
X125164742Y-91926164D01*
X125163852Y-91664851D01*
X125163008Y-91381340D01*
X125162213Y-91076782D01*
X125161470Y-90752330D01*
X125160781Y-90409135D01*
X125160149Y-90048348D01*
X125159577Y-89671121D01*
X125159068Y-89278605D01*
X125158625Y-88871954D01*
X125158498Y-88729520D01*
X125640789Y-88729520D01*
X125646947Y-91095548D01*
X125647788Y-91393810D01*
X125648951Y-91738286D01*
X125650243Y-92051561D01*
X125651670Y-92334267D01*
X125653238Y-92587034D01*
X125654953Y-92810494D01*
X125656823Y-93005276D01*
X125658851Y-93172012D01*
X125661046Y-93311334D01*
X125663414Y-93423871D01*
X125665959Y-93510256D01*
X125668690Y-93571118D01*
X125671611Y-93607088D01*
X125682714Y-93692621D01*
X125717856Y-93939548D01*
X125754686Y-94160535D01*
X125794318Y-94360426D01*
X125837870Y-94544061D01*
X125886456Y-94716283D01*
X125941193Y-94881933D01*
X126003197Y-95045855D01*
X126090579Y-95245599D01*
X126235387Y-95516036D01*
X126400990Y-95763077D01*
X126586693Y-95985999D01*
X126791804Y-96184079D01*
X127015629Y-96356597D01*
X127257474Y-96502829D01*
X127516645Y-96622053D01*
X127595170Y-96653005D01*
X127604231Y-96601339D01*
X127608422Y-96572774D01*
X127615742Y-96516406D01*
X127625185Y-96439780D01*
X127635988Y-96349100D01*
X127647389Y-96250564D01*
X127658342Y-96158274D01*
X127669655Y-96070327D01*
X127679960Y-95997330D01*
X127688448Y-95945015D01*
X127694305Y-95919119D01*
X127696776Y-95915636D01*
X127705720Y-95918494D01*
X127720862Y-95936896D01*
X127743494Y-95973113D01*
X127774910Y-96029417D01*
X127816403Y-96108078D01*
X127869265Y-96211367D01*
X127934789Y-96341554D01*
X128162455Y-96796326D01*
X128232102Y-96806594D01*
X128252356Y-96809359D01*
X128311274Y-96816436D01*
X128385405Y-96824539D01*
X128463429Y-96832404D01*
X128500342Y-96835773D01*
X128581292Y-96842100D01*
X128654780Y-96846565D01*
X128708462Y-96848364D01*
X128791816Y-96848782D01*
X128840073Y-96715395D01*
X128857622Y-96666806D01*
X128887461Y-96582612D01*
X128911556Y-96509898D01*
X128930653Y-96443797D01*
X128945500Y-96379442D01*
X128956844Y-96311966D01*
X128965433Y-96236502D01*
X128972014Y-96148184D01*
X128977335Y-96042146D01*
X128980724Y-95951455D01*
X129456746Y-95951455D01*
X129464428Y-96501169D01*
X129468930Y-96721377D01*
X129489338Y-97217000D01*
X129523558Y-97710393D01*
X129571085Y-98199126D01*
X129631415Y-98680767D01*
X129704044Y-99152887D01*
X129788468Y-99613056D01*
X129825688Y-99786411D01*
X129884181Y-100058844D01*
X129990679Y-100487820D01*
X130107458Y-100897556D01*
X130234014Y-101285620D01*
X130369841Y-101649583D01*
X130514436Y-101987014D01*
X130667294Y-102295484D01*
X130712609Y-102377705D01*
X130755396Y-102451928D01*
X130773187Y-102482789D01*
X130835320Y-102586444D01*
X130890926Y-102674962D01*
X130917834Y-102716144D01*
X130957409Y-102775007D01*
X130984243Y-102811138D01*
X131001142Y-102827655D01*
X131010911Y-102827676D01*
X131016358Y-102814319D01*
X131022184Y-102784827D01*
X131032188Y-102730404D01*
X131044797Y-102659608D01*
X131058584Y-102580354D01*
X131096538Y-102376718D01*
X131108969Y-102320284D01*
X131593458Y-102320284D01*
X131593727Y-102320427D01*
X131613526Y-102321439D01*
X131661073Y-102321291D01*
X131732164Y-102320071D01*
X131822593Y-102317866D01*
X131928157Y-102314765D01*
X132044651Y-102310855D01*
X132066696Y-102310088D01*
X132486914Y-102301047D01*
X132936323Y-102301463D01*
X133413321Y-102311197D01*
X133916310Y-102330113D01*
X134443688Y-102358073D01*
X134993856Y-102394941D01*
X135565213Y-102440579D01*
X136156159Y-102494851D01*
X136765093Y-102557619D01*
X137390415Y-102628747D01*
X138030526Y-102708097D01*
X138683824Y-102795532D01*
X139348709Y-102890916D01*
X140023581Y-102994111D01*
X140449361Y-103062081D01*
X140979920Y-103149237D01*
X141516085Y-103240074D01*
X142060417Y-103335071D01*
X142615475Y-103434707D01*
X143183819Y-103539461D01*
X143768010Y-103649812D01*
X144370607Y-103766239D01*
X144994170Y-103889221D01*
X145641260Y-104019236D01*
X146314437Y-104156764D01*
X147016261Y-104302284D01*
X147057962Y-104310991D01*
X147246383Y-104350405D01*
X147431060Y-104389162D01*
X147613956Y-104427687D01*
X147797033Y-104466405D01*
X147982252Y-104505739D01*
X148171576Y-104546115D01*
X148366967Y-104587957D01*
X148570386Y-104631690D01*
X148783796Y-104677739D01*
X149009158Y-104726527D01*
X149248435Y-104778480D01*
X149503588Y-104834023D01*
X149776580Y-104893579D01*
X150069372Y-104957574D01*
X150383927Y-105026431D01*
X150722206Y-105100577D01*
X151086172Y-105180434D01*
X151477786Y-105266429D01*
X151899011Y-105358985D01*
X151968099Y-105374168D01*
X152476801Y-105485845D01*
X152955606Y-105590715D01*
X153405965Y-105689062D01*
X153829331Y-105781165D01*
X154227157Y-105867307D01*
X154600896Y-105947770D01*
X154952001Y-106022834D01*
X155281923Y-106092782D01*
X155592116Y-106157894D01*
X155884032Y-106218454D01*
X156159125Y-106274741D01*
X156418846Y-106327038D01*
X156664648Y-106375626D01*
X156897985Y-106420787D01*
X157120308Y-106462803D01*
X157333071Y-106501955D01*
X157537726Y-106538524D01*
X157735725Y-106572792D01*
X157928522Y-106605041D01*
X158117569Y-106635553D01*
X158304319Y-106664608D01*
X158490225Y-106692488D01*
X158676738Y-106719476D01*
X158865313Y-106745852D01*
X159057400Y-106771898D01*
X159254454Y-106797896D01*
X159457927Y-106824128D01*
X159508378Y-106830197D01*
X159623086Y-106842255D01*
X159751381Y-106853989D01*
X159880969Y-106864308D01*
X159999557Y-106872123D01*
X160207687Y-106881071D01*
X160670091Y-106879735D01*
X161122718Y-106848758D01*
X161564691Y-106788307D01*
X161995137Y-106698551D01*
X162413180Y-106579657D01*
X162817946Y-106431795D01*
X163208559Y-106255133D01*
X163481090Y-106111883D01*
X163746600Y-105954631D01*
X163995778Y-105786475D01*
X164235396Y-105602517D01*
X164472231Y-105397861D01*
X164713055Y-105167610D01*
X164875371Y-105001537D01*
X165052949Y-104807591D01*
X165212769Y-104617066D01*
X165360433Y-104422891D01*
X165501544Y-104217993D01*
X165641703Y-103995300D01*
X165823761Y-103674968D01*
X166026084Y-103262605D01*
X166200387Y-102838603D01*
X166346655Y-102404790D01*
X166464877Y-101962997D01*
X166555039Y-101515054D01*
X166617131Y-101062791D01*
X166651139Y-100608038D01*
X166657050Y-100152623D01*
X166634852Y-99698378D01*
X166584534Y-99247133D01*
X166506081Y-98800716D01*
X166399482Y-98360958D01*
X166264725Y-97929689D01*
X166101797Y-97508739D01*
X165910685Y-97099937D01*
X165691376Y-96705114D01*
X165537819Y-96463598D01*
X165332263Y-96173994D01*
X165111159Y-95895505D01*
X164877798Y-95631621D01*
X164635472Y-95385834D01*
X164387472Y-95161636D01*
X164137090Y-94962516D01*
X163887617Y-94791968D01*
X163598789Y-94620505D01*
X163191472Y-94406184D01*
X162755822Y-94206232D01*
X162292265Y-94020775D01*
X161801224Y-93849937D01*
X161283123Y-93693844D01*
X160738386Y-93552622D01*
X160167437Y-93426396D01*
X159570699Y-93315291D01*
X158948598Y-93219433D01*
X158301557Y-93138948D01*
X158129873Y-93120496D01*
X157825837Y-93090393D01*
X157521716Y-93063775D01*
X157211064Y-93040170D01*
X156887435Y-93019102D01*
X156544382Y-93000098D01*
X156175459Y-92982684D01*
X156171758Y-92982525D01*
X156092583Y-92979782D01*
X155990392Y-92977239D01*
X155868097Y-92974903D01*
X155728612Y-92972784D01*
X155574849Y-92970889D01*
X155409723Y-92969226D01*
X155236145Y-92967805D01*
X155057030Y-92966633D01*
X154875291Y-92965720D01*
X154693840Y-92965072D01*
X154515591Y-92964700D01*
X154343458Y-92964610D01*
X154180353Y-92964812D01*
X154029189Y-92965314D01*
X153892881Y-92966124D01*
X153774340Y-92967250D01*
X153676481Y-92968702D01*
X153602216Y-92970486D01*
X153554459Y-92972613D01*
X153536123Y-92975090D01*
X153536262Y-92988871D01*
X153544071Y-93031475D01*
X153559465Y-93099863D01*
X153581701Y-93191169D01*
X153610035Y-93302527D01*
X153643726Y-93431072D01*
X153682031Y-93573937D01*
X153724207Y-93728256D01*
X153769511Y-93891164D01*
X153817201Y-94059794D01*
X153819590Y-94068157D01*
X153855190Y-94189999D01*
X153895989Y-94325323D01*
X153940542Y-94469683D01*
X153987402Y-94618634D01*
X154035122Y-94767727D01*
X154082256Y-94912518D01*
X154127358Y-95048560D01*
X154168981Y-95171406D01*
X154205679Y-95276611D01*
X154236005Y-95359728D01*
X154258512Y-95416311D01*
X154292827Y-95495552D01*
X154472660Y-95485263D01*
X154536087Y-95481374D01*
X154597357Y-95477010D01*
X154639660Y-95473274D01*
X154656335Y-95470694D01*
X154656604Y-95470257D01*
X154666406Y-95451399D01*
X154689100Y-95406825D01*
X154723283Y-95339316D01*
X154767552Y-95251650D01*
X154820505Y-95146607D01*
X154880740Y-95026968D01*
X154946853Y-94895513D01*
X155017443Y-94755020D01*
X155374707Y-94043626D01*
X155372336Y-94738852D01*
X155369965Y-95434078D01*
X155651452Y-95425994D01*
X155676424Y-95425303D01*
X155829399Y-95421997D01*
X156002622Y-95419594D01*
X156192048Y-95418057D01*
X156393633Y-95417352D01*
X156603333Y-95417442D01*
X156817101Y-95418292D01*
X157030894Y-95419867D01*
X157240668Y-95422132D01*
X157442376Y-95425050D01*
X157631975Y-95428588D01*
X157805419Y-95432708D01*
X157958665Y-95437376D01*
X158087667Y-95442557D01*
X158188381Y-95448214D01*
X158290162Y-95455461D01*
X158777962Y-95496813D01*
X159236367Y-95547260D01*
X159666834Y-95607133D01*
X160070820Y-95676763D01*
X160449782Y-95756481D01*
X160805175Y-95846616D01*
X161138458Y-95947500D01*
X161451087Y-96059463D01*
X161677958Y-96154851D01*
X161744518Y-96182836D01*
X162020208Y-96317949D01*
X162216861Y-96427050D01*
X162423614Y-96556688D01*
X162612261Y-96693911D01*
X162788260Y-96843406D01*
X162957066Y-97009854D01*
X163124134Y-97197942D01*
X163294921Y-97412352D01*
X163430298Y-97595638D01*
X163684643Y-97974981D01*
X163908481Y-98359732D01*
X164101585Y-98749237D01*
X164263725Y-99142841D01*
X164394672Y-99539892D01*
X164494199Y-99939735D01*
X164562076Y-100341717D01*
X164598075Y-100745184D01*
X164601966Y-101149482D01*
X164585511Y-101442201D01*
X164545205Y-101777918D01*
X164481093Y-102100321D01*
X164391645Y-102415567D01*
X164300733Y-102661194D01*
X164275334Y-102729816D01*
X164130633Y-103049227D01*
X164036479Y-103231522D01*
X163892272Y-103476771D01*
X163735041Y-103704063D01*
X163558779Y-103921861D01*
X163357481Y-104138628D01*
X163340509Y-104155759D01*
X163072193Y-104402800D01*
X162787330Y-104622276D01*
X162486890Y-104813786D01*
X162171843Y-104976932D01*
X161843161Y-105111312D01*
X161501813Y-105216526D01*
X161148772Y-105292175D01*
X160785006Y-105337857D01*
X160411487Y-105353174D01*
X160379297Y-105353139D01*
X160316101Y-105352763D01*
X160254817Y-105351766D01*
X160193918Y-105349894D01*
X160131872Y-105346895D01*
X160067151Y-105342515D01*
X159998225Y-105336501D01*
X159923563Y-105328600D01*
X159841638Y-105318558D01*
X159750919Y-105306123D01*
X159649876Y-105291040D01*
X159536980Y-105273058D01*
X159410702Y-105251922D01*
X159269511Y-105227380D01*
X159111878Y-105199178D01*
X158936274Y-105167063D01*
X158741169Y-105130782D01*
X158525034Y-105090081D01*
X158286338Y-105044707D01*
X158023552Y-104994408D01*
X157735147Y-104938929D01*
X157419594Y-104878018D01*
X157075361Y-104811422D01*
X156700921Y-104738887D01*
X155939147Y-104591693D01*
X155091057Y-104428920D01*
X154271531Y-104272865D01*
X153478988Y-104123250D01*
X152711850Y-103979794D01*
X151968537Y-103842217D01*
X151247471Y-103710241D01*
X150747403Y-103619811D01*
X153354552Y-103619811D01*
X153447310Y-103636411D01*
X153466151Y-103639807D01*
X153545621Y-103654414D01*
X153654465Y-103674729D01*
X153790888Y-103700408D01*
X153953092Y-103731108D01*
X154139281Y-103766484D01*
X154347657Y-103806193D01*
X154576425Y-103849892D01*
X154823787Y-103897235D01*
X155087947Y-103947881D01*
X155367107Y-104001484D01*
X155659472Y-104057701D01*
X155963243Y-104116188D01*
X156276626Y-104176601D01*
X156597822Y-104238598D01*
X156925034Y-104301833D01*
X156930660Y-104302920D01*
X157285652Y-104371521D01*
X157610493Y-104434194D01*
X157906741Y-104491221D01*
X158175953Y-104542888D01*
X158419687Y-104589478D01*
X158639502Y-104631276D01*
X158836954Y-104668565D01*
X159013602Y-104701629D01*
X159171004Y-104730752D01*
X159310718Y-104756219D01*
X159434301Y-104778313D01*
X159543311Y-104797318D01*
X159639307Y-104813518D01*
X159723846Y-104827198D01*
X159798485Y-104838641D01*
X159864783Y-104848132D01*
X159924298Y-104855954D01*
X159978588Y-104862391D01*
X160029209Y-104867727D01*
X160075733Y-104871455D01*
X160165289Y-104876019D01*
X160270988Y-104879254D01*
X160384758Y-104881098D01*
X160498527Y-104881489D01*
X160604222Y-104880365D01*
X160693771Y-104877664D01*
X160759100Y-104873325D01*
X160966152Y-104846444D01*
X161253104Y-104790928D01*
X161533300Y-104716018D01*
X161800926Y-104623554D01*
X162050167Y-104515378D01*
X162275208Y-104393332D01*
X162298049Y-104379300D01*
X162332973Y-104355390D01*
X162358136Y-104330716D01*
X162378768Y-104297883D01*
X162400098Y-104249493D01*
X162427358Y-104178149D01*
X162479599Y-104033405D01*
X162529744Y-103877888D01*
X162571147Y-103726368D01*
X162607659Y-103565758D01*
X162617190Y-103519531D01*
X162641029Y-103396350D01*
X162659257Y-103285852D01*
X162672559Y-103180539D01*
X162681619Y-103072914D01*
X162687121Y-102955480D01*
X162689748Y-102820739D01*
X162690185Y-102661194D01*
X162689906Y-102590896D01*
X162688541Y-102463629D01*
X162685787Y-102358546D01*
X162681245Y-102268771D01*
X162674512Y-102187430D01*
X162665186Y-102107650D01*
X162652867Y-102022556D01*
X162617040Y-101812527D01*
X162572155Y-101599453D01*
X162518484Y-101393098D01*
X162453073Y-101182192D01*
X162372965Y-100955465D01*
X162311466Y-100799022D01*
X162204500Y-100558602D01*
X162082655Y-100316041D01*
X161948455Y-100075063D01*
X161804423Y-99839391D01*
X161653084Y-99612749D01*
X161496961Y-99398862D01*
X161338577Y-99201452D01*
X161180457Y-99024244D01*
X161025123Y-98870961D01*
X160875100Y-98745326D01*
X160751160Y-98656197D01*
X160490327Y-98493173D01*
X160203127Y-98343759D01*
X159889184Y-98207847D01*
X159548120Y-98085330D01*
X159179560Y-97976103D01*
X158783125Y-97880060D01*
X158358439Y-97797092D01*
X157905125Y-97727095D01*
X157422806Y-97669961D01*
X156911105Y-97625584D01*
X156763931Y-97615711D01*
X156531974Y-97602690D01*
X156291652Y-97591872D01*
X156053085Y-97583644D01*
X155826396Y-97578391D01*
X155621704Y-97576497D01*
X155278133Y-97576344D01*
X155278067Y-97612722D01*
X155277419Y-97627867D01*
X155274243Y-97673544D01*
X155268873Y-97740971D01*
X155261820Y-97823847D01*
X155253591Y-97915873D01*
X155230035Y-98159595D01*
X155164468Y-98730380D01*
X155086697Y-99276170D01*
X154996873Y-99796496D01*
X154895144Y-100290890D01*
X154781662Y-100758883D01*
X154656574Y-101200007D01*
X154520032Y-101613794D01*
X154372185Y-101999775D01*
X154213183Y-102357481D01*
X154043176Y-102686446D01*
X153862314Y-102986199D01*
X153707693Y-103204184D01*
X153670745Y-103256273D01*
X153468621Y-103496200D01*
X153354552Y-103619811D01*
X150747403Y-103619811D01*
X150547071Y-103583584D01*
X149865760Y-103461968D01*
X149201958Y-103345113D01*
X148554085Y-103232739D01*
X147920563Y-103124566D01*
X147299813Y-103020315D01*
X146690255Y-102919706D01*
X146090311Y-102822459D01*
X145498400Y-102728295D01*
X144912945Y-102636934D01*
X144332366Y-102548095D01*
X143825582Y-102472103D01*
X142977797Y-102348586D01*
X142147342Y-102232171D01*
X141335084Y-102122940D01*
X140541893Y-102020978D01*
X139768636Y-101926368D01*
X139016179Y-101839195D01*
X138285392Y-101759540D01*
X137577143Y-101687489D01*
X136892298Y-101623124D01*
X136231726Y-101566529D01*
X135596295Y-101517788D01*
X134986872Y-101476984D01*
X134404326Y-101444201D01*
X133849524Y-101419523D01*
X133323333Y-101403033D01*
X132826623Y-101394815D01*
X132360260Y-101394951D01*
X131827048Y-101400086D01*
X131758561Y-101642607D01*
X131746100Y-101687118D01*
X131716572Y-101795436D01*
X131687802Y-101904558D01*
X131660904Y-102009916D01*
X131636991Y-102106939D01*
X131617177Y-102191057D01*
X131602574Y-102257701D01*
X131594296Y-102302300D01*
X131593458Y-102320284D01*
X131108969Y-102320284D01*
X131172667Y-102031101D01*
X131266389Y-101665190D01*
X131376383Y-101282266D01*
X131486035Y-100934160D01*
X133588699Y-100934160D01*
X133847388Y-100945880D01*
X133890956Y-100947878D01*
X134079514Y-100956976D01*
X134285713Y-100967552D01*
X134503311Y-100979245D01*
X134726063Y-100991696D01*
X134947727Y-101004544D01*
X135162059Y-101017428D01*
X135362816Y-101029988D01*
X135543754Y-101041865D01*
X135698629Y-101052698D01*
X135914261Y-101068747D01*
X136625794Y-101126170D01*
X137359097Y-101192065D01*
X138114774Y-101266515D01*
X138893432Y-101349602D01*
X139695674Y-101441410D01*
X140522105Y-101542021D01*
X141373330Y-101651520D01*
X142249954Y-101769988D01*
X143152582Y-101897509D01*
X144081817Y-102034166D01*
X145038266Y-102180041D01*
X146022532Y-102335219D01*
X147035221Y-102499781D01*
X148076937Y-102673812D01*
X149148285Y-102857393D01*
X150249870Y-103050609D01*
X150338137Y-103066279D01*
X150497349Y-103094639D01*
X150645835Y-103121208D01*
X150780577Y-103145439D01*
X150898560Y-103166785D01*
X150996765Y-103184701D01*
X151072176Y-103198638D01*
X151121777Y-103208051D01*
X151142550Y-103212392D01*
X151150209Y-103214197D01*
X151156743Y-103212644D01*
X151159501Y-103204184D01*
X151157691Y-103185842D01*
X151150520Y-103154641D01*
X151137196Y-103107607D01*
X151116925Y-103041763D01*
X151088916Y-102954133D01*
X151052376Y-102841742D01*
X151006512Y-102701614D01*
X150881634Y-102333608D01*
X150707634Y-101856539D01*
X150519801Y-101377316D01*
X150320342Y-100900862D01*
X150111465Y-100432098D01*
X149895377Y-99975944D01*
X149674286Y-99537322D01*
X149450399Y-99121153D01*
X149225926Y-98732359D01*
X149190479Y-98673798D01*
X149131604Y-98578416D01*
X149070690Y-98481660D01*
X149010444Y-98387663D01*
X148953574Y-98300559D01*
X148902790Y-98224480D01*
X148860798Y-98163560D01*
X148830307Y-98121932D01*
X148814026Y-98103728D01*
X148813367Y-98103453D01*
X148789874Y-98103559D01*
X148736930Y-98108457D01*
X148656779Y-98117816D01*
X148551662Y-98131302D01*
X148423819Y-98148583D01*
X148275492Y-98169327D01*
X148108922Y-98193201D01*
X147926352Y-98219873D01*
X147730022Y-98249011D01*
X147522174Y-98280282D01*
X147305049Y-98313354D01*
X147080888Y-98347894D01*
X146851934Y-98383570D01*
X146620426Y-98420050D01*
X146388608Y-98457000D01*
X146158719Y-98494090D01*
X145933002Y-98530986D01*
X145864847Y-98542220D01*
X145533851Y-98597229D01*
X145203030Y-98652985D01*
X144871000Y-98709753D01*
X144536382Y-98767802D01*
X144197793Y-98827397D01*
X143853853Y-98888805D01*
X143503180Y-98952293D01*
X143144393Y-99018127D01*
X142776111Y-99086574D01*
X142396952Y-99157901D01*
X142005535Y-99232375D01*
X141600479Y-99310261D01*
X141180403Y-99391828D01*
X140743925Y-99477340D01*
X140289663Y-99567066D01*
X139816238Y-99661271D01*
X139322267Y-99760223D01*
X138806369Y-99864188D01*
X138267164Y-99973432D01*
X137703268Y-100088223D01*
X137113302Y-100208827D01*
X136495884Y-100335510D01*
X135849633Y-100468540D01*
X135173168Y-100608182D01*
X135015297Y-100640803D01*
X134831544Y-100678750D01*
X134652252Y-100715754D01*
X134481306Y-100751012D01*
X134322594Y-100783725D01*
X134180002Y-100813090D01*
X134057416Y-100838308D01*
X133958722Y-100858577D01*
X133887808Y-100873096D01*
X133588699Y-100934160D01*
X131486035Y-100934160D01*
X131501329Y-100885607D01*
X131639906Y-100478493D01*
X131790796Y-100064202D01*
X131952676Y-99646015D01*
X132105651Y-99272561D01*
X132623379Y-99272561D01*
X132627961Y-99271820D01*
X132639801Y-99269444D01*
X132660752Y-99264898D01*
X132693615Y-99257540D01*
X132741187Y-99246734D01*
X132806270Y-99231839D01*
X132891660Y-99212215D01*
X133000159Y-99187225D01*
X133134564Y-99156229D01*
X133297674Y-99118588D01*
X133325276Y-99112251D01*
X133450118Y-99084183D01*
X133598580Y-99051558D01*
X133764224Y-99015752D01*
X133940612Y-98978140D01*
X134121305Y-98940096D01*
X134299866Y-98902997D01*
X134469858Y-98868216D01*
X134521987Y-98857638D01*
X134688639Y-98823733D01*
X134878678Y-98784964D01*
X135085987Y-98742583D01*
X135304449Y-98697843D01*
X135527948Y-98651999D01*
X135750368Y-98606302D01*
X135965592Y-98562008D01*
X136167503Y-98520368D01*
X136486619Y-98454514D01*
X137206798Y-98306194D01*
X137897111Y-98164472D01*
X138558760Y-98029121D01*
X139192950Y-97899916D01*
X139800883Y-97776631D01*
X140383762Y-97659041D01*
X140942792Y-97546919D01*
X141479175Y-97440040D01*
X141994114Y-97338179D01*
X142488814Y-97241109D01*
X142964476Y-97148604D01*
X143422305Y-97060440D01*
X143863503Y-96976389D01*
X144289274Y-96896228D01*
X144700821Y-96819728D01*
X145099347Y-96746666D01*
X145486056Y-96676815D01*
X145862151Y-96609950D01*
X146228835Y-96545844D01*
X146587311Y-96484273D01*
X146938783Y-96425010D01*
X147284454Y-96367829D01*
X147625527Y-96312505D01*
X147963206Y-96258812D01*
X148298693Y-96206524D01*
X148633192Y-96155416D01*
X148967907Y-96105262D01*
X149304040Y-96055836D01*
X149436967Y-96036328D01*
X149559948Y-96018009D01*
X149668987Y-96001494D01*
X149760470Y-95987343D01*
X149830784Y-95976113D01*
X149876317Y-95968364D01*
X149893456Y-95964654D01*
X149893476Y-95964349D01*
X149881357Y-95949493D01*
X149848749Y-95914283D01*
X149797812Y-95860937D01*
X149730704Y-95791674D01*
X149649583Y-95708712D01*
X149556611Y-95614270D01*
X149453944Y-95510566D01*
X149343742Y-95399818D01*
X148786662Y-94841357D01*
X149793072Y-95343860D01*
X149866805Y-95380660D01*
X150061055Y-95477396D01*
X150229097Y-95560639D01*
X150372881Y-95631239D01*
X150494355Y-95690047D01*
X150595471Y-95737913D01*
X150678177Y-95775687D01*
X150744424Y-95804219D01*
X150796162Y-95824359D01*
X150835339Y-95836959D01*
X150863906Y-95842867D01*
X150883813Y-95842935D01*
X150897010Y-95838013D01*
X150905445Y-95828950D01*
X150905579Y-95827684D01*
X150902666Y-95803448D01*
X150894420Y-95750936D01*
X150881366Y-95673005D01*
X150864027Y-95572512D01*
X150842928Y-95452316D01*
X150818593Y-95315274D01*
X150791545Y-95164244D01*
X150762310Y-95002084D01*
X150731410Y-94831651D01*
X150699369Y-94655802D01*
X150666712Y-94477396D01*
X150633963Y-94299290D01*
X150601646Y-94124343D01*
X150570284Y-93955410D01*
X150540402Y-93795351D01*
X150512524Y-93647023D01*
X150487174Y-93513283D01*
X150464875Y-93396989D01*
X150446152Y-93301000D01*
X150431528Y-93228171D01*
X150421529Y-93181362D01*
X150416677Y-93163430D01*
X150409941Y-93162383D01*
X150373470Y-93163333D01*
X150306338Y-93167701D01*
X150209482Y-93175404D01*
X150083839Y-93186359D01*
X149930344Y-93200483D01*
X149749936Y-93217694D01*
X149543550Y-93237909D01*
X149312124Y-93261045D01*
X149263968Y-93265918D01*
X148295863Y-93371134D01*
X147302239Y-93492591D01*
X146285199Y-93629911D01*
X145246846Y-93782714D01*
X144189280Y-93950622D01*
X143114603Y-94133253D01*
X142024918Y-94330230D01*
X140922326Y-94541173D01*
X139808930Y-94765703D01*
X138686830Y-95003439D01*
X137558129Y-95254003D01*
X136424928Y-95517016D01*
X135289330Y-95792097D01*
X134467745Y-95995299D01*
X134378300Y-96102721D01*
X134265440Y-96245264D01*
X134137940Y-96420161D01*
X134002423Y-96618825D01*
X133860983Y-96838088D01*
X133715719Y-97074782D01*
X133568728Y-97325739D01*
X133565676Y-97331075D01*
X133472214Y-97498763D01*
X133369752Y-97689893D01*
X133261400Y-97898187D01*
X133150268Y-98117365D01*
X133039466Y-98341148D01*
X132932104Y-98563260D01*
X132831292Y-98777419D01*
X132740141Y-98977349D01*
X132661759Y-99156770D01*
X132655028Y-99172858D01*
X132635143Y-99224124D01*
X132623831Y-99259660D01*
X132623379Y-99272561D01*
X132105651Y-99272561D01*
X132124228Y-99227209D01*
X132304131Y-98811065D01*
X132491065Y-98400860D01*
X132683709Y-97999876D01*
X132880744Y-97611390D01*
X133080848Y-97238681D01*
X133282703Y-96885030D01*
X133484987Y-96553715D01*
X133492025Y-96542551D01*
X133530806Y-96478981D01*
X133560168Y-96427313D01*
X133577357Y-96392602D01*
X133579618Y-96379908D01*
X133565502Y-96385151D01*
X133525681Y-96403165D01*
X133464500Y-96432151D01*
X133385983Y-96470176D01*
X133294157Y-96515307D01*
X133193043Y-96565610D01*
X133102043Y-96610635D01*
X133012018Y-96654053D01*
X132935978Y-96689518D01*
X132877629Y-96715343D01*
X132840674Y-96729843D01*
X132828819Y-96731332D01*
X132829038Y-96730360D01*
X132833630Y-96706769D01*
X132843986Y-96652392D01*
X132859954Y-96568048D01*
X132881380Y-96454557D01*
X132908110Y-96312739D01*
X132939990Y-96143415D01*
X132976866Y-95947404D01*
X133014553Y-95746968D01*
X133502687Y-95746968D01*
X133512209Y-95747907D01*
X133548429Y-95742507D01*
X133606707Y-95730454D01*
X133681803Y-95712855D01*
X133768477Y-95690817D01*
X133816502Y-95678114D01*
X133867497Y-95664170D01*
X133914588Y-95650264D01*
X133960760Y-95635080D01*
X134008999Y-95617301D01*
X134062290Y-95595611D01*
X134123616Y-95568692D01*
X134195963Y-95535228D01*
X134282316Y-95493902D01*
X134385660Y-95443398D01*
X134508979Y-95382398D01*
X134655259Y-95309586D01*
X134827484Y-95223645D01*
X135625873Y-94825101D01*
X135367184Y-95086725D01*
X135323519Y-95131239D01*
X135257370Y-95200221D01*
X135203307Y-95258598D01*
X135164050Y-95303329D01*
X135142318Y-95331376D01*
X135140832Y-95339698D01*
X135145124Y-95338591D01*
X135177765Y-95330500D01*
X135236298Y-95316177D01*
X135316529Y-95296642D01*
X135414258Y-95272915D01*
X135525290Y-95246019D01*
X135645426Y-95216973D01*
X136160795Y-95093571D01*
X137631977Y-94753420D01*
X139084606Y-94435673D01*
X140518018Y-94140459D01*
X141931545Y-93867907D01*
X143324525Y-93618148D01*
X144696291Y-93391310D01*
X146046179Y-93187525D01*
X146105070Y-93179110D01*
X146271272Y-93155736D01*
X146449237Y-93131189D01*
X146636045Y-93105837D01*
X146828776Y-93080051D01*
X147024510Y-93054201D01*
X147220326Y-93028658D01*
X147413305Y-93003790D01*
X147600526Y-92979969D01*
X147779069Y-92957563D01*
X147946015Y-92936944D01*
X148098442Y-92918481D01*
X148233432Y-92902544D01*
X148348063Y-92889503D01*
X148439416Y-92879728D01*
X148504571Y-92873589D01*
X148540607Y-92871456D01*
X148573428Y-92865319D01*
X148594410Y-92848422D01*
X148592601Y-92834545D01*
X148585262Y-92790610D01*
X148572653Y-92718515D01*
X148555128Y-92620177D01*
X148533042Y-92497508D01*
X148506749Y-92352422D01*
X148476604Y-92186834D01*
X148442961Y-92002657D01*
X148406175Y-91801806D01*
X148366600Y-91586195D01*
X148324591Y-91357737D01*
X148280502Y-91118346D01*
X148234688Y-90869938D01*
X148187503Y-90614424D01*
X148139302Y-90353720D01*
X148090440Y-90089740D01*
X148041270Y-89824398D01*
X147992147Y-89559607D01*
X147943426Y-89297281D01*
X147895461Y-89039336D01*
X147848607Y-88787683D01*
X147803219Y-88544239D01*
X147759650Y-88310916D01*
X147718255Y-88089629D01*
X147679390Y-87882291D01*
X147643407Y-87690817D01*
X147610663Y-87517120D01*
X147581510Y-87363116D01*
X147556305Y-87230716D01*
X147535401Y-87121837D01*
X147519152Y-87038391D01*
X147507914Y-86982293D01*
X147498760Y-86937892D01*
X145434564Y-86933789D01*
X143370367Y-86929685D01*
X143349451Y-86696639D01*
X143342078Y-86604396D01*
X143338110Y-86525160D01*
X143338830Y-86474398D01*
X143344277Y-86453864D01*
X143357651Y-86450688D01*
X143401147Y-86441959D01*
X143472845Y-86428153D01*
X143570802Y-86409630D01*
X143693075Y-86386748D01*
X143837720Y-86359867D01*
X144002795Y-86329346D01*
X144186356Y-86295545D01*
X144386460Y-86258821D01*
X144601164Y-86219535D01*
X144828524Y-86178046D01*
X145066598Y-86134712D01*
X145313443Y-86089893D01*
X145528974Y-86050800D01*
X145767847Y-86007451D01*
X145996096Y-85966009D01*
X146211796Y-85926823D01*
X146413019Y-85890245D01*
X146597838Y-85856625D01*
X146764327Y-85826315D01*
X146910559Y-85799664D01*
X147034607Y-85777024D01*
X147134544Y-85758746D01*
X147208444Y-85745180D01*
X147254379Y-85736678D01*
X147270422Y-85733590D01*
X147270403Y-85730076D01*
X147266340Y-85701844D01*
X147257534Y-85650009D01*
X147244957Y-85580176D01*
X147229582Y-85497952D01*
X147185184Y-85264377D01*
X145995432Y-85260231D01*
X144865368Y-85256293D01*
X149413052Y-85256293D01*
X149427078Y-85325007D01*
X149429387Y-85336998D01*
X149437557Y-85380158D01*
X149451306Y-85453111D01*
X149470417Y-85554704D01*
X149494673Y-85683780D01*
X149523858Y-85839184D01*
X149557756Y-86019761D01*
X149596149Y-86224356D01*
X149638821Y-86451813D01*
X149685555Y-86700977D01*
X149736136Y-86970694D01*
X149790345Y-87259807D01*
X149847967Y-87567162D01*
X149908785Y-87891603D01*
X149972582Y-88231975D01*
X150039142Y-88587123D01*
X150108248Y-88955892D01*
X150179683Y-89337126D01*
X150253231Y-89729671D01*
X150328676Y-90132370D01*
X150405799Y-90544069D01*
X150484386Y-90963613D01*
X150540008Y-91260556D01*
X150617697Y-91675271D01*
X150693808Y-92081523D01*
X150768123Y-92478147D01*
X150837509Y-92848422D01*
X150840423Y-92863975D01*
X150910490Y-93237843D01*
X150978104Y-93598583D01*
X151043047Y-93945031D01*
X151105101Y-94276019D01*
X151164046Y-94590382D01*
X151219664Y-94886954D01*
X151271736Y-95164569D01*
X151320044Y-95422060D01*
X151364369Y-95658262D01*
X151396171Y-95827684D01*
X151404491Y-95872009D01*
X151440193Y-96062134D01*
X151471256Y-96227472D01*
X151497461Y-96366857D01*
X151518589Y-96479122D01*
X151534421Y-96563101D01*
X151544740Y-96617629D01*
X151549325Y-96641539D01*
X151570983Y-96749573D01*
X151201586Y-96564740D01*
X151115267Y-96521763D01*
X151022035Y-96475863D01*
X150941522Y-96436790D01*
X150877765Y-96406481D01*
X150834799Y-96386874D01*
X150816661Y-96379908D01*
X150816453Y-96384845D01*
X150828724Y-96412073D01*
X150854408Y-96459085D01*
X150890955Y-96521300D01*
X150935817Y-96594135D01*
X151129353Y-96912927D01*
X151326729Y-97259954D01*
X151522464Y-97625356D01*
X151715293Y-98005969D01*
X151903950Y-98398631D01*
X152087170Y-98800178D01*
X152263688Y-99207449D01*
X152432239Y-99617280D01*
X152591558Y-100026509D01*
X152740378Y-100431972D01*
X152877435Y-100830508D01*
X153001464Y-101218954D01*
X153111199Y-101594147D01*
X153205375Y-101952924D01*
X153282726Y-102292122D01*
X153341988Y-102608580D01*
X153346615Y-102636289D01*
X153360389Y-102712796D01*
X153372990Y-102774559D01*
X153383183Y-102815838D01*
X153389737Y-102830890D01*
X153404462Y-102820355D01*
X153432954Y-102784561D01*
X153471678Y-102727155D01*
X153518353Y-102652028D01*
X153570696Y-102563071D01*
X153626426Y-102464173D01*
X153683259Y-102359224D01*
X153738915Y-102252114D01*
X153791110Y-102146733D01*
X153819737Y-102086430D01*
X153973681Y-101730247D01*
X154116150Y-101344247D01*
X154247064Y-100928812D01*
X154366341Y-100484325D01*
X154473900Y-100011169D01*
X154569660Y-99509725D01*
X154653541Y-98980377D01*
X154725460Y-98423507D01*
X154785338Y-97839497D01*
X154833092Y-97228731D01*
X154836034Y-97183709D01*
X154843386Y-97063208D01*
X154850578Y-96934898D01*
X154857444Y-96802787D01*
X154863816Y-96670887D01*
X154869527Y-96543205D01*
X154874409Y-96423751D01*
X154878297Y-96316534D01*
X154881022Y-96225565D01*
X154882418Y-96154851D01*
X154882317Y-96108404D01*
X154880552Y-96090231D01*
X154879524Y-96089208D01*
X154875783Y-96087298D01*
X154870551Y-96090701D01*
X154861977Y-96102791D01*
X154848210Y-96126941D01*
X154827399Y-96166526D01*
X154797693Y-96224918D01*
X154757240Y-96305491D01*
X154704189Y-96411619D01*
X154546989Y-96726271D01*
X154390553Y-96565215D01*
X154386856Y-96561400D01*
X154321545Y-96491224D01*
X154258162Y-96418534D01*
X154203781Y-96351694D01*
X154165475Y-96299068D01*
X154145496Y-96267746D01*
X154057570Y-96113285D01*
X153966454Y-95926972D01*
X153872219Y-95709066D01*
X153774935Y-95459825D01*
X153674671Y-95179506D01*
X153571499Y-94868369D01*
X153465488Y-94526670D01*
X153356709Y-94154668D01*
X153245232Y-93752621D01*
X153131126Y-93320788D01*
X153014464Y-92859426D01*
X152895313Y-92368794D01*
X152773746Y-91849149D01*
X152649831Y-91300750D01*
X152523639Y-90723855D01*
X152395241Y-90118722D01*
X152264707Y-89485609D01*
X152132106Y-88824774D01*
X152123011Y-88778855D01*
X152088864Y-88606501D01*
X152055221Y-88436759D01*
X152022908Y-88273787D01*
X151992748Y-88121746D01*
X151965568Y-87984791D01*
X151942192Y-87867082D01*
X151923445Y-87772778D01*
X151910152Y-87706035D01*
X151858591Y-87447630D01*
X151761583Y-87401332D01*
X151759943Y-87400549D01*
X151492652Y-87256506D01*
X151230730Y-87083157D01*
X150978302Y-86883493D01*
X150739493Y-86660503D01*
X150701579Y-86621575D01*
X150490067Y-86382891D01*
X150298192Y-86126660D01*
X150122929Y-85848546D01*
X149961252Y-85544207D01*
X149821417Y-85258156D01*
X149617235Y-85257224D01*
X149413052Y-85256293D01*
X144865368Y-85256293D01*
X144805680Y-85256085D01*
X144795376Y-85134929D01*
X144789717Y-85068372D01*
X144781985Y-84977377D01*
X144775101Y-84896312D01*
X144765131Y-84778852D01*
X144823193Y-84768318D01*
X147477051Y-84768318D01*
X148804040Y-84769785D01*
X150131030Y-84771251D01*
X150206516Y-84961226D01*
X150286274Y-85151195D01*
X150446220Y-85478165D01*
X150624422Y-85778494D01*
X150821100Y-86052362D01*
X151036476Y-86299950D01*
X151270771Y-86521439D01*
X151524208Y-86717009D01*
X151797008Y-86886842D01*
X152089392Y-87031119D01*
X152401582Y-87150020D01*
X152733799Y-87243726D01*
X153086265Y-87312418D01*
X153144350Y-87320293D01*
X153259292Y-87331634D01*
X153392239Y-87340770D01*
X153536916Y-87347589D01*
X153687049Y-87351983D01*
X153836365Y-87353842D01*
X153978589Y-87353054D01*
X154107446Y-87349510D01*
X154216663Y-87343101D01*
X154299966Y-87333715D01*
X154313126Y-87331583D01*
X154620993Y-87265161D01*
X154917704Y-87168738D01*
X155203328Y-87042254D01*
X155477936Y-86885648D01*
X155741597Y-86698862D01*
X155994380Y-86481836D01*
X156236356Y-86234510D01*
X156467594Y-85956825D01*
X156688164Y-85648720D01*
X156898135Y-85310137D01*
X157097578Y-84941016D01*
X157295468Y-84521304D01*
X157481625Y-84063589D01*
X157647367Y-83584541D01*
X157793083Y-83082925D01*
X157919165Y-82557507D01*
X158026004Y-82007051D01*
X158072007Y-81740815D01*
X158002866Y-81602850D01*
X157970298Y-81536842D01*
X157846765Y-81265159D01*
X157740390Y-80995133D01*
X157652443Y-80730876D01*
X157584193Y-80476496D01*
X157536911Y-80236102D01*
X157511865Y-80013804D01*
X157506707Y-79868005D01*
X157510370Y-79771402D01*
X157984888Y-79771402D01*
X157985164Y-79922404D01*
X157991454Y-80068514D01*
X158003758Y-80200773D01*
X158022076Y-80310219D01*
X158086804Y-80556623D01*
X158185986Y-80849074D01*
X158312714Y-81155794D01*
X158467076Y-81476928D01*
X158649159Y-81812621D01*
X158859052Y-82163021D01*
X159096842Y-82528271D01*
X159362617Y-82908518D01*
X159656464Y-83303908D01*
X159978471Y-83714586D01*
X160328726Y-84140698D01*
X160382943Y-84205046D01*
X160765911Y-84648949D01*
X161177163Y-85107938D01*
X161616511Y-85581844D01*
X162083765Y-86070502D01*
X162578738Y-86573743D01*
X163101240Y-87091401D01*
X163651085Y-87623309D01*
X164228082Y-88169300D01*
X164832045Y-88729206D01*
X165462784Y-89302861D01*
X166120111Y-89890097D01*
X166803838Y-90490748D01*
X167513777Y-91104646D01*
X168249738Y-91731624D01*
X169011534Y-92371515D01*
X169798977Y-93024152D01*
X170611877Y-93689369D01*
X171450047Y-94366997D01*
X172313297Y-95056870D01*
X173201441Y-95758821D01*
X174114289Y-96472683D01*
X175051653Y-97198288D01*
X175504969Y-97546594D01*
X176364111Y-98202199D01*
X177245965Y-98869478D01*
X178146944Y-99545783D01*
X179063457Y-100228466D01*
X179991916Y-100914878D01*
X180928733Y-101602371D01*
X181870320Y-102288296D01*
X182813087Y-102970004D01*
X183753446Y-103644847D01*
X184687808Y-104310176D01*
X184726200Y-104337404D01*
X184865347Y-104436094D01*
X185000407Y-104531889D01*
X185128196Y-104622531D01*
X185245529Y-104705762D01*
X185349222Y-104779323D01*
X185436092Y-104840954D01*
X185502953Y-104888397D01*
X185546622Y-104919394D01*
X185606541Y-104961162D01*
X185659793Y-104996746D01*
X185698316Y-105020771D01*
X185716386Y-105029525D01*
X185716793Y-105026635D01*
X185701913Y-105006830D01*
X185670037Y-104972393D01*
X185625555Y-104928219D01*
X185612944Y-104916106D01*
X185573088Y-104877857D01*
X185512916Y-104820136D01*
X185434381Y-104744812D01*
X185339430Y-104653756D01*
X185230015Y-104548836D01*
X185108085Y-104431924D01*
X184975589Y-104304887D01*
X184834479Y-104169598D01*
X184686703Y-104027924D01*
X184534212Y-103881736D01*
X184308394Y-103665158D01*
X183677946Y-103059409D01*
X183071015Y-102474590D01*
X182487627Y-101910725D01*
X181927805Y-101367841D01*
X181391575Y-100845963D01*
X180878963Y-100345116D01*
X180389993Y-99865325D01*
X179924690Y-99406616D01*
X179483079Y-98969015D01*
X179065186Y-98552547D01*
X178671035Y-98157237D01*
X178300651Y-97783111D01*
X177954059Y-97430194D01*
X177631285Y-97098511D01*
X177332353Y-96788089D01*
X177057288Y-96498953D01*
X176806116Y-96231127D01*
X176578861Y-95984638D01*
X176375548Y-95759510D01*
X176196203Y-95555770D01*
X176040851Y-95373443D01*
X175909515Y-95212554D01*
X175802223Y-95073128D01*
X175718997Y-94955191D01*
X175659865Y-94858769D01*
X175601366Y-94752334D01*
X175601366Y-87724619D01*
X175601366Y-80696904D01*
X175540736Y-80697000D01*
X175540631Y-80697000D01*
X175514608Y-80697664D01*
X175458967Y-80699527D01*
X175376376Y-80702489D01*
X175269498Y-80706448D01*
X175141000Y-80711303D01*
X174993548Y-80716952D01*
X174829807Y-80723294D01*
X174652441Y-80730227D01*
X174464118Y-80737650D01*
X174267503Y-80745462D01*
X174074919Y-80753093D01*
X173884161Y-80760552D01*
X173703464Y-80767517D01*
X173535607Y-80773888D01*
X173383372Y-80779560D01*
X173249540Y-80784433D01*
X173136893Y-80788402D01*
X173048212Y-80791367D01*
X172986278Y-80793223D01*
X172953872Y-80793869D01*
X172852844Y-80793912D01*
X172852826Y-80819072D01*
X172849129Y-85945526D01*
X172848779Y-86431383D01*
X172844715Y-92068854D01*
X172181339Y-91366679D01*
X171861576Y-91028015D01*
X171488296Y-90632093D01*
X171135719Y-90257426D01*
X170802854Y-89902931D01*
X170488709Y-89567521D01*
X170192295Y-89250111D01*
X169912619Y-88949617D01*
X169648692Y-88664953D01*
X169399523Y-88395034D01*
X169164120Y-88138774D01*
X168941492Y-87895090D01*
X168730650Y-87662894D01*
X168530601Y-87441103D01*
X168340355Y-87228630D01*
X168158922Y-87024392D01*
X167985309Y-86827302D01*
X167818527Y-86636275D01*
X167657585Y-86450226D01*
X167501491Y-86268071D01*
X167349255Y-86088723D01*
X167199886Y-85911099D01*
X166940492Y-85597796D01*
X166591702Y-85164152D01*
X166268719Y-84746792D01*
X165970963Y-84344649D01*
X165697851Y-83956654D01*
X165448801Y-83581738D01*
X165223233Y-83218835D01*
X165020565Y-82866874D01*
X164953285Y-82739258D01*
X165501936Y-82739258D01*
X165505350Y-82757808D01*
X165525411Y-82800652D01*
X165560649Y-82865314D01*
X165609588Y-82949320D01*
X165670756Y-83050196D01*
X165742678Y-83165468D01*
X165823883Y-83292662D01*
X165912895Y-83429304D01*
X165930722Y-83456352D01*
X166093921Y-83698842D01*
X166266881Y-83946705D01*
X166450529Y-84201050D01*
X166645791Y-84462989D01*
X166853596Y-84733632D01*
X167074870Y-85014089D01*
X167310541Y-85305472D01*
X167561536Y-85608890D01*
X167828782Y-85925455D01*
X168113207Y-86256277D01*
X168415738Y-86602466D01*
X168737302Y-86965134D01*
X169078826Y-87345390D01*
X169441238Y-87744345D01*
X169825466Y-88163111D01*
X170232435Y-88602797D01*
X170245156Y-88616485D01*
X170348276Y-88727417D01*
X170449537Y-88836292D01*
X170545582Y-88939503D01*
X170633053Y-89033446D01*
X170708592Y-89114513D01*
X170768841Y-89179099D01*
X170810443Y-89223597D01*
X170944969Y-89367158D01*
X170944969Y-85945526D01*
X170944969Y-82523893D01*
X170835835Y-82523973D01*
X170802179Y-82524624D01*
X170737372Y-82526558D01*
X170641358Y-82529779D01*
X170514053Y-82534288D01*
X170355372Y-82540090D01*
X170165230Y-82547188D01*
X169943542Y-82555584D01*
X169690223Y-82565283D01*
X169405190Y-82576288D01*
X169088356Y-82588601D01*
X168739637Y-82602226D01*
X168358949Y-82617166D01*
X167946206Y-82633425D01*
X167501324Y-82651005D01*
X167024218Y-82669911D01*
X167015828Y-82670244D01*
X166880614Y-82675598D01*
X166722880Y-82681829D01*
X166551775Y-82688578D01*
X166376450Y-82695482D01*
X166206054Y-82702181D01*
X166049736Y-82708316D01*
X165959919Y-82711969D01*
X165838012Y-82717376D01*
X165729216Y-82722727D01*
X165637371Y-82727806D01*
X165566319Y-82732395D01*
X165519901Y-82736277D01*
X165501958Y-82739236D01*
X165501936Y-82739258D01*
X164953285Y-82739258D01*
X164840214Y-82524788D01*
X164681599Y-82191510D01*
X164544138Y-81865969D01*
X164427251Y-81547099D01*
X164330354Y-81233831D01*
X164252866Y-80925096D01*
X164232134Y-80817205D01*
X172705843Y-80817205D01*
X172714431Y-80820869D01*
X172747706Y-80822171D01*
X172765340Y-80821751D01*
X172784773Y-80819072D01*
X172775812Y-80814813D01*
X172749966Y-80812128D01*
X172711140Y-80815139D01*
X172705843Y-80817205D01*
X164232134Y-80817205D01*
X164194207Y-80619827D01*
X164153793Y-80316955D01*
X164152441Y-80303254D01*
X164145737Y-80207445D01*
X164141001Y-80089634D01*
X164138871Y-79988106D01*
X164609629Y-79988106D01*
X164613653Y-80142426D01*
X164622714Y-80282257D01*
X164637216Y-80414824D01*
X164657560Y-80547349D01*
X164675087Y-80648400D01*
X164814897Y-80646397D01*
X164845466Y-80645559D01*
X164906900Y-80643488D01*
X164998054Y-80640226D01*
X165117875Y-80635816D01*
X165265313Y-80630298D01*
X165439315Y-80623714D01*
X165638831Y-80616107D01*
X165862809Y-80607517D01*
X166110198Y-80597986D01*
X166379947Y-80587557D01*
X166671004Y-80576271D01*
X166982317Y-80564169D01*
X167312836Y-80551293D01*
X167661509Y-80537684D01*
X168027285Y-80523386D01*
X168409112Y-80508438D01*
X168805940Y-80492883D01*
X169216715Y-80476763D01*
X169640388Y-80460119D01*
X170075907Y-80442993D01*
X170522221Y-80425426D01*
X170978278Y-80407461D01*
X171443026Y-80389138D01*
X171915415Y-80370501D01*
X172394393Y-80351589D01*
X172878909Y-80332445D01*
X173367911Y-80313111D01*
X173860349Y-80293628D01*
X174355170Y-80274038D01*
X174851323Y-80254383D01*
X175347757Y-80234703D01*
X175843421Y-80215042D01*
X176337263Y-80195441D01*
X176828232Y-80175941D01*
X177315277Y-80156584D01*
X177797345Y-80137411D01*
X178273387Y-80118465D01*
X178742349Y-80099787D01*
X179203182Y-80081419D01*
X179654834Y-80063402D01*
X180096253Y-80045779D01*
X180526388Y-80028589D01*
X180944187Y-80011877D01*
X181348600Y-79995682D01*
X181738575Y-79980048D01*
X182113060Y-79965014D01*
X182471005Y-79950624D01*
X182811357Y-79936919D01*
X183133066Y-79923940D01*
X183435080Y-79911729D01*
X183716348Y-79900328D01*
X183975818Y-79889779D01*
X184212439Y-79880123D01*
X184425160Y-79871402D01*
X184612929Y-79863657D01*
X184774695Y-79856931D01*
X184909406Y-79851264D01*
X185016012Y-79846699D01*
X185093461Y-79843277D01*
X185140701Y-79841040D01*
X185156681Y-79840030D01*
X185149880Y-79839429D01*
X185113422Y-79837498D01*
X185046384Y-79834385D01*
X184949811Y-79830130D01*
X184824753Y-79824774D01*
X184672257Y-79818358D01*
X184493371Y-79810924D01*
X184289143Y-79802513D01*
X184060622Y-79793165D01*
X183808855Y-79782923D01*
X183534890Y-79771826D01*
X183239774Y-79759916D01*
X182924557Y-79747234D01*
X182590286Y-79733822D01*
X182238008Y-79719720D01*
X181868773Y-79704970D01*
X181483627Y-79689612D01*
X181083619Y-79673688D01*
X180669797Y-79657239D01*
X180243208Y-79640306D01*
X179804901Y-79622930D01*
X179355923Y-79605152D01*
X178897323Y-79587014D01*
X178430148Y-79568556D01*
X177955447Y-79549820D01*
X177474267Y-79530846D01*
X176987657Y-79511676D01*
X176496664Y-79492351D01*
X176002336Y-79472912D01*
X175505721Y-79453400D01*
X175007867Y-79433856D01*
X174509823Y-79414322D01*
X174012635Y-79394838D01*
X173517353Y-79375446D01*
X173025023Y-79356186D01*
X172536694Y-79337101D01*
X172053415Y-79318230D01*
X171576232Y-79299615D01*
X171106193Y-79281298D01*
X170644348Y-79263318D01*
X170191743Y-79245718D01*
X169749427Y-79228539D01*
X169318448Y-79211821D01*
X168899853Y-79195606D01*
X168494690Y-79179935D01*
X168104008Y-79164849D01*
X167728854Y-79150389D01*
X167370277Y-79136596D01*
X167029324Y-79123511D01*
X166707044Y-79111176D01*
X166404483Y-79099631D01*
X166122691Y-79088918D01*
X165862715Y-79079078D01*
X165625603Y-79070151D01*
X165412403Y-79062180D01*
X165224163Y-79055204D01*
X165061931Y-79049266D01*
X164926754Y-79044407D01*
X164819682Y-79040666D01*
X164741762Y-79038086D01*
X164694041Y-79036708D01*
X164677568Y-79036573D01*
X164671710Y-79047134D01*
X164660857Y-79089034D01*
X164650084Y-79156552D01*
X164639804Y-79245356D01*
X164630428Y-79351116D01*
X164622370Y-79469500D01*
X164616041Y-79596179D01*
X164611854Y-79726821D01*
X164610241Y-79812074D01*
X164609629Y-79988106D01*
X164138871Y-79988106D01*
X164138231Y-79957575D01*
X164137426Y-79819022D01*
X164138587Y-79681730D01*
X164141713Y-79553452D01*
X164146803Y-79441943D01*
X164153857Y-79354956D01*
X164163448Y-79274081D01*
X164206505Y-78989933D01*
X164264637Y-78704761D01*
X164302897Y-78555900D01*
X164788901Y-78555900D01*
X164791502Y-78556355D01*
X164819446Y-78558365D01*
X164875550Y-78561421D01*
X164956790Y-78565385D01*
X165060142Y-78570122D01*
X165182584Y-78575495D01*
X165321093Y-78581367D01*
X165472644Y-78587603D01*
X165634216Y-78594064D01*
X165641374Y-78594347D01*
X165756010Y-78598857D01*
X165899836Y-78604500D01*
X166069946Y-78611162D01*
X166263429Y-78618732D01*
X166477378Y-78627094D01*
X166708884Y-78636136D01*
X166955040Y-78645745D01*
X167212936Y-78655807D01*
X167479664Y-78666209D01*
X167752317Y-78676838D01*
X168027985Y-78687580D01*
X168303761Y-78698322D01*
X168576736Y-78708950D01*
X168844001Y-78719353D01*
X169102649Y-78729415D01*
X169349771Y-78739024D01*
X169582459Y-78748066D01*
X169797804Y-78756429D01*
X169992898Y-78763998D01*
X170164833Y-78770661D01*
X170310700Y-78776304D01*
X170427592Y-78780814D01*
X170438794Y-78781250D01*
X170538888Y-78785467D01*
X170640572Y-78790244D01*
X170732543Y-78795026D01*
X170803499Y-78799258D01*
X170944969Y-78808675D01*
X170944969Y-74656026D01*
X170944969Y-70503376D01*
X170874017Y-70575920D01*
X170857322Y-70593182D01*
X170813254Y-70639363D01*
X170750394Y-70705684D01*
X170670782Y-70789969D01*
X170576460Y-70890043D01*
X170469467Y-71003729D01*
X170351845Y-71128851D01*
X170225635Y-71263235D01*
X170092877Y-71404705D01*
X169955612Y-71551083D01*
X169815880Y-71700196D01*
X169675724Y-71849866D01*
X169537182Y-71997918D01*
X169402297Y-72142177D01*
X169273108Y-72280466D01*
X169151658Y-72410610D01*
X169039985Y-72530433D01*
X168940131Y-72637760D01*
X168692089Y-72904923D01*
X168450564Y-73165707D01*
X168229045Y-73405656D01*
X168026354Y-73626094D01*
X167841313Y-73828347D01*
X167672743Y-74013742D01*
X167519465Y-74183604D01*
X167380300Y-74339258D01*
X167254071Y-74482030D01*
X167139598Y-74613247D01*
X167035703Y-74734233D01*
X166941208Y-74846314D01*
X166854933Y-74950816D01*
X166775701Y-75049064D01*
X166702332Y-75142385D01*
X166633648Y-75232104D01*
X166388488Y-75562791D01*
X166114317Y-75949770D01*
X165865665Y-76321455D01*
X165641735Y-76679237D01*
X165441724Y-77024504D01*
X165264835Y-77358650D01*
X165110268Y-77683063D01*
X164977223Y-77999135D01*
X164864899Y-78308257D01*
X164847696Y-78360235D01*
X164823061Y-78436555D01*
X164803967Y-78498133D01*
X164792040Y-78539678D01*
X164788901Y-78555900D01*
X164302897Y-78555900D01*
X164338474Y-78417475D01*
X164428644Y-78126987D01*
X164535777Y-77832208D01*
X164660500Y-77532048D01*
X164803443Y-77225420D01*
X164965236Y-76911233D01*
X165146506Y-76588398D01*
X165347883Y-76255828D01*
X165569995Y-75912433D01*
X165813472Y-75557123D01*
X166078943Y-75188811D01*
X166367036Y-74806406D01*
X166678380Y-74408821D01*
X167013605Y-73994966D01*
X167373339Y-73563752D01*
X167758210Y-73114090D01*
X167791498Y-73075676D01*
X167936785Y-72908710D01*
X168084448Y-72740195D01*
X168235601Y-72568921D01*
X168391355Y-72393679D01*
X168552825Y-72213260D01*
X168721124Y-72026455D01*
X168897363Y-71832056D01*
X169082657Y-71628853D01*
X169278118Y-71415638D01*
X169484860Y-71191202D01*
X169703995Y-70954335D01*
X169936636Y-70703829D01*
X170183897Y-70438474D01*
X170446890Y-70157063D01*
X170726729Y-69858385D01*
X171024526Y-69541233D01*
X171341395Y-69204397D01*
X171678449Y-68846668D01*
X172036800Y-68466837D01*
X172844715Y-67610990D01*
X172848779Y-73248536D01*
X172849794Y-74656026D01*
X172852844Y-78886083D01*
X172953872Y-78886125D01*
X172984995Y-78886738D01*
X173046164Y-78888563D01*
X173134155Y-78891498D01*
X173246188Y-78895442D01*
X173379481Y-78900291D01*
X173531252Y-78905943D01*
X173698721Y-78912296D01*
X173879107Y-78919247D01*
X174069628Y-78926693D01*
X174267503Y-78934533D01*
X174269563Y-78934615D01*
X174466107Y-78942423D01*
X174654331Y-78949842D01*
X174831569Y-78956770D01*
X174995156Y-78963105D01*
X175142427Y-78968746D01*
X175270715Y-78973592D01*
X175377356Y-78977542D01*
X175459683Y-78980493D01*
X175515032Y-78982344D01*
X175540736Y-78982994D01*
X175601366Y-78983091D01*
X175601366Y-71957431D01*
X175601366Y-64931771D01*
X175635978Y-64863701D01*
X175676341Y-64791172D01*
X175732334Y-64704017D01*
X175803386Y-64604451D01*
X175891084Y-64490413D01*
X175997020Y-64359838D01*
X176122780Y-64210665D01*
X176269957Y-64040830D01*
X176428172Y-63862718D01*
X176614096Y-63658257D01*
X176822835Y-63432962D01*
X177053872Y-63187348D01*
X177306687Y-62921932D01*
X177580765Y-62637230D01*
X177875586Y-62333758D01*
X178190634Y-62012032D01*
X178525391Y-61672568D01*
X178879338Y-61315882D01*
X179251958Y-60942491D01*
X179642734Y-60552910D01*
X180051147Y-60147656D01*
X180476681Y-59727244D01*
X180918816Y-59292192D01*
X181377036Y-58843014D01*
X181850823Y-58380227D01*
X182339659Y-57904347D01*
X182843026Y-57415891D01*
X183360406Y-56915373D01*
X183891283Y-56403312D01*
X184435138Y-55880221D01*
X184991453Y-55346619D01*
X185100964Y-55241552D01*
X185218207Y-55128672D01*
X185326224Y-55024259D01*
X185422989Y-54930294D01*
X185506477Y-54848753D01*
X185574663Y-54781615D01*
X185625523Y-54730858D01*
X185657033Y-54698462D01*
X185667166Y-54686403D01*
X185665126Y-54686755D01*
X185642028Y-54700076D01*
X185594591Y-54731100D01*
X185524187Y-54778843D01*
X185432188Y-54842320D01*
X185319968Y-54920548D01*
X185188899Y-55012542D01*
X185040353Y-55117318D01*
X184875703Y-55233894D01*
X184696321Y-55361283D01*
X184503580Y-55498503D01*
X184298852Y-55644569D01*
X184083510Y-55798497D01*
X183858927Y-55959304D01*
X183626474Y-56126005D01*
X183387525Y-56297616D01*
X183143451Y-56473153D01*
X182895626Y-56651632D01*
X182645421Y-56832070D01*
X182394211Y-57013481D01*
X182143366Y-57194882D01*
X181894259Y-57375289D01*
X181648263Y-57553718D01*
X181406751Y-57729185D01*
X181171095Y-57900706D01*
X180942667Y-58067297D01*
X180722840Y-58227973D01*
X180512987Y-58381751D01*
X180079458Y-58700413D01*
X179022107Y-59482156D01*
X177988060Y-60253229D01*
X176977527Y-61013454D01*
X175990721Y-61762652D01*
X175027852Y-62500645D01*
X174089131Y-63227256D01*
X173174770Y-63942305D01*
X172284979Y-64645615D01*
X171419969Y-65337007D01*
X170579952Y-66016304D01*
X169765139Y-66683327D01*
X168975740Y-67337898D01*
X168211968Y-67979840D01*
X167474032Y-68608972D01*
X166762144Y-69225119D01*
X166076516Y-69828101D01*
X165417357Y-70417740D01*
X164784880Y-70993859D01*
X164179295Y-71556278D01*
X163600814Y-72104820D01*
X163049647Y-72639307D01*
X162526006Y-73159560D01*
X162030102Y-73665402D01*
X161562146Y-74156654D01*
X161122348Y-74633138D01*
X160710921Y-75094676D01*
X160340654Y-75525908D01*
X159991634Y-75949429D01*
X159670617Y-76357568D01*
X159377486Y-76750515D01*
X159112121Y-77128458D01*
X158874404Y-77491585D01*
X158712763Y-77759594D01*
X158664217Y-77840085D01*
X158481441Y-78174147D01*
X158325957Y-78493958D01*
X158197647Y-78799708D01*
X158096393Y-79091584D01*
X158022076Y-79369776D01*
X158020141Y-79378645D01*
X158002376Y-79490563D01*
X157990625Y-79624468D01*
X157984888Y-79771402D01*
X157510370Y-79771402D01*
X157515671Y-79631604D01*
X157546285Y-79388471D01*
X157599144Y-79136355D01*
X157674842Y-78873004D01*
X157773973Y-78596164D01*
X157897130Y-78303585D01*
X158044909Y-77993014D01*
X158065950Y-77950761D01*
X158101608Y-77878110D01*
X158130180Y-77818524D01*
X158149161Y-77777265D01*
X158156045Y-77759594D01*
X158154484Y-77758219D01*
X158137688Y-77768265D01*
X158108401Y-77793915D01*
X158060757Y-77839561D01*
X158051970Y-77800982D01*
X158050345Y-77793336D01*
X158042698Y-77753810D01*
X158031221Y-77691843D01*
X158017171Y-77614280D01*
X158001806Y-77527967D01*
X157991458Y-77470377D01*
X157918564Y-77108566D01*
X157831526Y-76740333D01*
X157732537Y-76373400D01*
X157623787Y-76015485D01*
X157507468Y-75674309D01*
X157385771Y-75357592D01*
X157384567Y-75354654D01*
X157206198Y-74948143D01*
X157016041Y-74569762D01*
X156814360Y-74219763D01*
X156601420Y-73898401D01*
X156377487Y-73605929D01*
X156142827Y-73342600D01*
X155897704Y-73108667D01*
X155642384Y-72904384D01*
X155377132Y-72730004D01*
X155102215Y-72585781D01*
X154817896Y-72471967D01*
X154524441Y-72388817D01*
X154222117Y-72336584D01*
X154170738Y-72331607D01*
X154057897Y-72325582D01*
X153923971Y-72323045D01*
X153776025Y-72323792D01*
X153621125Y-72327620D01*
X153466338Y-72334325D01*
X153318730Y-72343703D01*
X153185366Y-72355552D01*
X153073314Y-72369668D01*
X153046539Y-72373847D01*
X152704682Y-72441416D01*
X152384130Y-72532403D01*
X152083231Y-72647520D01*
X151800335Y-72787482D01*
X151533792Y-72953004D01*
X151281951Y-73144800D01*
X151268015Y-73156528D01*
X151137619Y-73273223D01*
X151017342Y-73395283D01*
X150899616Y-73530847D01*
X150776873Y-73688056D01*
X150758688Y-73712517D01*
X150601770Y-73939470D01*
X150462281Y-74173128D01*
X150335495Y-74421981D01*
X150216689Y-74694517D01*
X150129873Y-74908743D01*
X148803462Y-74910272D01*
X147477051Y-74911801D01*
X148010596Y-75009777D01*
X148102488Y-75026817D01*
X148222628Y-75049627D01*
X148329727Y-75070575D01*
X148420027Y-75088894D01*
X148489769Y-75103818D01*
X148535197Y-75114578D01*
X148552552Y-75120408D01*
X148569879Y-75127674D01*
X148605098Y-75128219D01*
X148635475Y-75129257D01*
X148649234Y-75139204D01*
X148659383Y-75147780D01*
X148689165Y-75147400D01*
X148714237Y-75146035D01*
X148719294Y-75155626D01*
X148718337Y-75157800D01*
X148729873Y-75165696D01*
X148767154Y-75164754D01*
X148776535Y-75163829D01*
X148808098Y-75164708D01*
X148815568Y-75172983D01*
X148815035Y-75174007D01*
X148824264Y-75181697D01*
X148856268Y-75180614D01*
X148859910Y-75180108D01*
X148890431Y-75178995D01*
X148898970Y-75185006D01*
X148901145Y-75190345D01*
X148924536Y-75199050D01*
X148963643Y-75206357D01*
X149008075Y-75210953D01*
X149047443Y-75211528D01*
X149071356Y-75206769D01*
X149079729Y-75202817D01*
X149081474Y-75209809D01*
X149083032Y-75211092D01*
X149108223Y-75218289D01*
X149162430Y-75230580D01*
X149243586Y-75247564D01*
X149349624Y-75268841D01*
X149478478Y-75294008D01*
X149628079Y-75322666D01*
X149796362Y-75354413D01*
X149981260Y-75388848D01*
X150180704Y-75425570D01*
X150392629Y-75464178D01*
X150507740Y-75485050D01*
X150705612Y-75520967D01*
X150893224Y-75555072D01*
X151068182Y-75586925D01*
X151228091Y-75616089D01*
X151370553Y-75642126D01*
X151493174Y-75664598D01*
X151593558Y-75683066D01*
X151669309Y-75697093D01*
X151718032Y-75706240D01*
X151737331Y-75710069D01*
X151737867Y-75710197D01*
X151753378Y-75702662D01*
X151774585Y-75672777D01*
X151803103Y-75617802D01*
X151840547Y-75534997D01*
X151864158Y-75481527D01*
X151988503Y-75224005D01*
X152123062Y-74982142D01*
X152265580Y-74759271D01*
X152413804Y-74558723D01*
X152565476Y-74383830D01*
X152718344Y-74237924D01*
X152864281Y-74122052D01*
X153052707Y-73999111D01*
X153243210Y-73905909D01*
X153439192Y-73841116D01*
X153644057Y-73803403D01*
X153861210Y-73791440D01*
X153877566Y-73791547D01*
X154106536Y-73809219D01*
X154326669Y-73857254D01*
X154538641Y-73935953D01*
X154743126Y-74045620D01*
X154940800Y-74186556D01*
X155132340Y-74359061D01*
X155291442Y-74532066D01*
X155471155Y-74764314D01*
X155641364Y-75025437D01*
X155801607Y-75314200D01*
X155951421Y-75629365D01*
X156090345Y-75969697D01*
X156217917Y-76333959D01*
X156333673Y-76720915D01*
X156437153Y-77129329D01*
X156527895Y-77557964D01*
X156605435Y-78005585D01*
X156651699Y-78342636D01*
X156669312Y-78470954D01*
X156679119Y-78555828D01*
X156687815Y-78638338D01*
X156693872Y-78704517D01*
X156696814Y-78749115D01*
X156696165Y-78766883D01*
X156695453Y-78767273D01*
X156687397Y-78768690D01*
X156669620Y-78770202D01*
X156640711Y-78771847D01*
X156599256Y-78773660D01*
X156543842Y-78775678D01*
X156473056Y-78777936D01*
X156385485Y-78780472D01*
X156279716Y-78783322D01*
X156154335Y-78786521D01*
X156007930Y-78790106D01*
X155839088Y-78794114D01*
X155646395Y-78798581D01*
X155428438Y-78803543D01*
X155183805Y-78809036D01*
X154911082Y-78815097D01*
X154608856Y-78821762D01*
X154275714Y-78829067D01*
X154218533Y-78830319D01*
X153805194Y-78839386D01*
X153423250Y-78847807D01*
X153071873Y-78855600D01*
X152750238Y-78862784D01*
X152457520Y-78869381D01*
X152192892Y-78875410D01*
X151955528Y-78880890D01*
X151744604Y-78885841D01*
X151559292Y-78890283D01*
X151398767Y-78894236D01*
X151262203Y-78897719D01*
X151148775Y-78900753D01*
X151057655Y-78903356D01*
X150988020Y-78905550D01*
X150939042Y-78907353D01*
X150909895Y-78908785D01*
X150899755Y-78909867D01*
X150899932Y-78916218D01*
X150903964Y-78950420D01*
X150912251Y-79011283D01*
X150924309Y-79095505D01*
X150939656Y-79199786D01*
X150957810Y-79320825D01*
X150978289Y-79455321D01*
X151000609Y-79599974D01*
X151019121Y-79719143D01*
X151051465Y-79927059D01*
X151079406Y-80106168D01*
X151103284Y-80258550D01*
X151123438Y-80386286D01*
X151140206Y-80491458D01*
X151153926Y-80576144D01*
X151164939Y-80642426D01*
X151173582Y-80692384D01*
X151180195Y-80728098D01*
X151185116Y-80751650D01*
X151188684Y-80765119D01*
X151191238Y-80770586D01*
X151191960Y-80771138D01*
X151202399Y-80774126D01*
X151224980Y-80777040D01*
X151261385Y-80779935D01*
X151313297Y-80782861D01*
X151382399Y-80785872D01*
X151470372Y-80789020D01*
X151578899Y-80792356D01*
X151709663Y-80795934D01*
X151864346Y-80799806D01*
X152044630Y-80804025D01*
X152252199Y-80808641D01*
X152488734Y-80813709D01*
X152755918Y-80819280D01*
X152819219Y-80820586D01*
X153271578Y-80829982D01*
X153697878Y-80838938D01*
X154097699Y-80847444D01*
X154470625Y-80855492D01*
X154816237Y-80863070D01*
X155134116Y-80870168D01*
X155423846Y-80876778D01*
X155685008Y-80882889D01*
X155917183Y-80888491D01*
X156119954Y-80893574D01*
X156292903Y-80898129D01*
X156435611Y-80902145D01*
X156547661Y-80905613D01*
X156628634Y-80908522D01*
X156678113Y-80910863D01*
X156695679Y-80912625D01*
X156696653Y-80917747D01*
X156695603Y-80949768D01*
X156690882Y-81006694D01*
X156683056Y-81083725D01*
X156672694Y-81176061D01*
X156660363Y-81278903D01*
X156646630Y-81387449D01*
X156632063Y-81496902D01*
X156617228Y-81602459D01*
X156602693Y-81699323D01*
X156543134Y-82045984D01*
X156459819Y-82449603D01*
X156363849Y-82841082D01*
X156301941Y-83057438D01*
X156256236Y-83217168D01*
X156137994Y-83574607D01*
X156010135Y-83910146D01*
X155873674Y-84220531D01*
X155729623Y-84502509D01*
X155662210Y-84620547D01*
X155492491Y-84885964D01*
X155314796Y-85120410D01*
X155129218Y-85323818D01*
X154935847Y-85496120D01*
X154734777Y-85637246D01*
X154526100Y-85747130D01*
X154309907Y-85825703D01*
X154086292Y-85872897D01*
X153855345Y-85888643D01*
X153708584Y-85882845D01*
X153496101Y-85851556D01*
X153292679Y-85792213D01*
X153095641Y-85703755D01*
X152902309Y-85585124D01*
X152710006Y-85435258D01*
X152673782Y-85403178D01*
X152524186Y-85251999D01*
X152375772Y-85072830D01*
X152230873Y-84869130D01*
X152091820Y-84644357D01*
X151960946Y-84401973D01*
X151840582Y-84145437D01*
X151836238Y-84135481D01*
X151803116Y-84061560D01*
X151778733Y-84012714D01*
X151760214Y-83984462D01*
X151744688Y-83972323D01*
X151729281Y-83971814D01*
X151722153Y-83973251D01*
X151685661Y-83980198D01*
X151620756Y-83992371D01*
X151529636Y-84009365D01*
X151414496Y-84030770D01*
X151277534Y-84056182D01*
X151120946Y-84085191D01*
X150946931Y-84117392D01*
X150757684Y-84152376D01*
X150555403Y-84189737D01*
X150342285Y-84229068D01*
X150120526Y-84269961D01*
X150006303Y-84291029D01*
X149787259Y-84331499D01*
X149577301Y-84370380D01*
X149378700Y-84407247D01*
X149193729Y-84441675D01*
X149024659Y-84473239D01*
X148873761Y-84501513D01*
X148743309Y-84526072D01*
X148635573Y-84546490D01*
X148552826Y-84562343D01*
X148497340Y-84573206D01*
X148471385Y-84578652D01*
X148468247Y-84579412D01*
X148429433Y-84587807D01*
X148364342Y-84600974D01*
X148277807Y-84617971D01*
X148174657Y-84637859D01*
X148059724Y-84659696D01*
X147937840Y-84682541D01*
X147477051Y-84768318D01*
X144823193Y-84768318D01*
X145875377Y-84577423D01*
X146004231Y-84554001D01*
X146183385Y-84521285D01*
X146351487Y-84490410D01*
X146505940Y-84461864D01*
X146644149Y-84436132D01*
X146763517Y-84413701D01*
X146861447Y-84395057D01*
X146935342Y-84380687D01*
X146982607Y-84371075D01*
X147000644Y-84366710D01*
X147000902Y-84361049D01*
X146997087Y-84328278D01*
X146988391Y-84269712D01*
X146975495Y-84189178D01*
X146959084Y-84090509D01*
X146939839Y-83977533D01*
X146918445Y-83854081D01*
X146895585Y-83723983D01*
X146871940Y-83591068D01*
X146848196Y-83459166D01*
X146825034Y-83332108D01*
X146803137Y-83213724D01*
X146783190Y-83107843D01*
X146765874Y-83018295D01*
X146751873Y-82948910D01*
X146741870Y-82903519D01*
X146736548Y-82885950D01*
X146734534Y-82885728D01*
X146708069Y-82884643D01*
X146653322Y-82882986D01*
X146573326Y-82880831D01*
X146471109Y-82878255D01*
X146349704Y-82875332D01*
X146212141Y-82872137D01*
X146061452Y-82868745D01*
X145900666Y-82865232D01*
X145740570Y-82861747D01*
X145560241Y-82857742D01*
X145381310Y-82853691D01*
X145208933Y-82849713D01*
X145048265Y-82845930D01*
X144904460Y-82842461D01*
X144782675Y-82839427D01*
X144688063Y-82836948D01*
X144308114Y-82826593D01*
X144263121Y-82962226D01*
X144127161Y-83376867D01*
X143973543Y-83857261D01*
X143824873Y-84334977D01*
X143681552Y-84808399D01*
X143543980Y-85275914D01*
X143412556Y-85735907D01*
X143287682Y-86186763D01*
X143169756Y-86626868D01*
X143059179Y-87054608D01*
X142956351Y-87468366D01*
X142861673Y-87866530D01*
X142775543Y-88247485D01*
X142698364Y-88609615D01*
X142630533Y-88951307D01*
X142572452Y-89270946D01*
X142524521Y-89566918D01*
X142487140Y-89837607D01*
X142460708Y-90081400D01*
X142445626Y-90296681D01*
X142435717Y-90510908D01*
X142198184Y-90510908D01*
X141960650Y-90510908D01*
X141950741Y-90296681D01*
X141941912Y-90154636D01*
X141922418Y-89948330D01*
X141893748Y-89718487D01*
X141855652Y-89463318D01*
X141807877Y-89181036D01*
X141750172Y-88869851D01*
X141691081Y-88562658D01*
X141590619Y-88966859D01*
X141552695Y-89120707D01*
X141448382Y-89558463D01*
X141354426Y-89975723D01*
X141271325Y-90370142D01*
X141199581Y-90739373D01*
X141139693Y-91081068D01*
X141126777Y-91162240D01*
X141106282Y-91301609D01*
X141087066Y-91444581D01*
X141069807Y-91585240D01*
X141055180Y-91717670D01*
X141043863Y-91835956D01*
X141036532Y-91934181D01*
X141033864Y-92006430D01*
X141033916Y-92037373D01*
X141033504Y-92098441D01*
X141028602Y-92140995D01*
X141014576Y-92168358D01*
X140986788Y-92183855D01*
X140940604Y-92190810D01*
X140871386Y-92192545D01*
X140774501Y-92192384D01*
X140534856Y-92192384D01*
X140526506Y-92123670D01*
X140523631Y-92095642D01*
X140518634Y-92034316D01*
X140513370Y-91958112D01*
X140508593Y-91877380D01*
X140506426Y-91840379D01*
X140487999Y-91624620D01*
X140458407Y-91380702D01*
X140418081Y-91110308D01*
X140367453Y-90815118D01*
X140306955Y-90496816D01*
X140237019Y-90157081D01*
X140158077Y-89797597D01*
X140070561Y-89420045D01*
X139974903Y-89026105D01*
X139871535Y-88617461D01*
X139760889Y-88195792D01*
X139643396Y-87762783D01*
X139519489Y-87320112D01*
X139389600Y-86869464D01*
X139254161Y-86412518D01*
X139113603Y-85950957D01*
X138968359Y-85486463D01*
X138818860Y-85020716D01*
X138665539Y-84555399D01*
X138508828Y-84092193D01*
X138466585Y-83969614D01*
X138419811Y-83835038D01*
X138370652Y-83694581D01*
X138320294Y-83551551D01*
X138269921Y-83409260D01*
X138220719Y-83271018D01*
X138173871Y-83140135D01*
X138130564Y-83019921D01*
X138091982Y-82913688D01*
X138059310Y-82824745D01*
X138033733Y-82756403D01*
X138016436Y-82711972D01*
X138008605Y-82694763D01*
X138004955Y-82694165D01*
X137974908Y-82692468D01*
X137917360Y-82690361D01*
X137835634Y-82687910D01*
X137733054Y-82685179D01*
X137612945Y-82682232D01*
X137478629Y-82679136D01*
X137333431Y-82675953D01*
X137180674Y-82672750D01*
X137023682Y-82669591D01*
X136865780Y-82666541D01*
X136710291Y-82663664D01*
X136560538Y-82661025D01*
X136419846Y-82658690D01*
X136291538Y-82656723D01*
X136178939Y-82655189D01*
X136085371Y-82654152D01*
X136014159Y-82653677D01*
X135968627Y-82653830D01*
X135952098Y-82654674D01*
X135950967Y-82659918D01*
X135944416Y-82693491D01*
X135932221Y-82757207D01*
X135914581Y-82850016D01*
X135891693Y-82970868D01*
X135863754Y-83118711D01*
X135830962Y-83292495D01*
X135793514Y-83491170D01*
X135751608Y-83713685D01*
X135705442Y-83958990D01*
X135655211Y-84226034D01*
X135601115Y-84513767D01*
X135543351Y-84821139D01*
X135482115Y-85147098D01*
X135417606Y-85490594D01*
X135350020Y-85850577D01*
X135279556Y-86225996D01*
X135206410Y-86615801D01*
X135130781Y-87018942D01*
X135052865Y-87434367D01*
X134972860Y-87861026D01*
X134890964Y-88297870D01*
X134807373Y-88743846D01*
X134722286Y-89197906D01*
X134674458Y-89453198D01*
X134590231Y-89902917D01*
X134507659Y-90343990D01*
X134426937Y-90775367D01*
X134348262Y-91195994D01*
X134271828Y-91604821D01*
X134197833Y-92000797D01*
X134126471Y-92382868D01*
X134057939Y-92749984D01*
X133992433Y-93101093D01*
X133930148Y-93435143D01*
X133871280Y-93751083D01*
X133816025Y-94047861D01*
X133764578Y-94324426D01*
X133717137Y-94579725D01*
X133673896Y-94812708D01*
X133635051Y-95022322D01*
X133600799Y-95207516D01*
X133571334Y-95367239D01*
X133546854Y-95500438D01*
X133527553Y-95606062D01*
X133513627Y-95683060D01*
X133505274Y-95730379D01*
X133502687Y-95746968D01*
X133014553Y-95746968D01*
X133018585Y-95725526D01*
X133064992Y-95478602D01*
X133115933Y-95207450D01*
X133171255Y-94912892D01*
X133230804Y-94595748D01*
X133294426Y-94256836D01*
X133361967Y-93896978D01*
X133433273Y-93516993D01*
X133508191Y-93117701D01*
X133586566Y-92699922D01*
X133668245Y-92264477D01*
X133753073Y-91812185D01*
X133840898Y-91343866D01*
X133931564Y-90860340D01*
X134024919Y-90362428D01*
X134120808Y-89850948D01*
X134219077Y-89326722D01*
X134319573Y-88790569D01*
X134422142Y-88243310D01*
X134526629Y-87685763D01*
X134632881Y-87118750D01*
X134740745Y-86543090D01*
X134850066Y-85959603D01*
X134873599Y-85833992D01*
X134982629Y-85252078D01*
X135090173Y-84678154D01*
X135196077Y-84113042D01*
X135300187Y-83557561D01*
X135402349Y-83012533D01*
X135502410Y-82478778D01*
X135600215Y-81957116D01*
X135695610Y-81448367D01*
X135777894Y-81009595D01*
X139956105Y-81009595D01*
X139956310Y-81011577D01*
X139963762Y-81036425D01*
X139980485Y-81086658D01*
X140005170Y-81158494D01*
X140036509Y-81248151D01*
X140073194Y-81351847D01*
X140113916Y-81465799D01*
X140241193Y-81824291D01*
X140420621Y-82343241D01*
X140597767Y-82871166D01*
X140771694Y-83404871D01*
X140941469Y-83941159D01*
X141106157Y-84476833D01*
X141264824Y-85008696D01*
X141416535Y-85533552D01*
X141560355Y-86048203D01*
X141695350Y-86549454D01*
X141820585Y-87034107D01*
X141935126Y-87498966D01*
X142038038Y-87940835D01*
X142128387Y-88356515D01*
X142128664Y-88357843D01*
X142148419Y-88450478D01*
X142166411Y-88531086D01*
X142181478Y-88594751D01*
X142192456Y-88636555D01*
X142198184Y-88651582D01*
X142198221Y-88651579D01*
X142204028Y-88636152D01*
X142215071Y-88594016D01*
X142230185Y-88530087D01*
X142248209Y-88449281D01*
X142267980Y-88356515D01*
X142274518Y-88325296D01*
X142341652Y-88016647D01*
X142418473Y-87682521D01*
X142503831Y-87327388D01*
X142596576Y-86955716D01*
X142695556Y-86571975D01*
X142799621Y-86180632D01*
X142907620Y-85786158D01*
X143018402Y-85393020D01*
X143130817Y-85005688D01*
X143146836Y-84951471D01*
X143235944Y-84654232D01*
X143332541Y-84338629D01*
X143435016Y-84009616D01*
X143541762Y-83672146D01*
X143651167Y-83331172D01*
X143761624Y-82991647D01*
X143871522Y-82658526D01*
X143979252Y-82336761D01*
X144083205Y-82031305D01*
X144181772Y-81747113D01*
X144273343Y-81489138D01*
X144303629Y-81404754D01*
X144337780Y-81308970D01*
X144366696Y-81227160D01*
X144388934Y-81163434D01*
X144403051Y-81121899D01*
X144407606Y-81106662D01*
X144399678Y-81106185D01*
X144362824Y-81105021D01*
X144298553Y-81103352D01*
X144209768Y-81101244D01*
X144099371Y-81098760D01*
X143970265Y-81095966D01*
X143825351Y-81092926D01*
X143667532Y-81089706D01*
X143499711Y-81086371D01*
X143400528Y-81084400D01*
X143231787Y-81080929D01*
X143071586Y-81077490D01*
X142923324Y-81074165D01*
X142790398Y-81071034D01*
X142676207Y-81068179D01*
X142584151Y-81065680D01*
X142517629Y-81063618D01*
X142480037Y-81062074D01*
X142365774Y-81055541D01*
X142286625Y-81296592D01*
X142269924Y-81346831D01*
X142243907Y-81422494D01*
X142222004Y-81482991D01*
X142206125Y-81523111D01*
X142198184Y-81537642D01*
X142194386Y-81532092D01*
X142181373Y-81501299D01*
X142161577Y-81448076D01*
X142136904Y-81377619D01*
X142109259Y-81295121D01*
X142095040Y-81251952D01*
X142068241Y-81172466D01*
X142048022Y-81117412D01*
X142032166Y-81082328D01*
X142018455Y-81062751D01*
X142004673Y-81054220D01*
X141988603Y-81052273D01*
X141988026Y-81052267D01*
X141962805Y-81051786D01*
X141908369Y-81050612D01*
X141827630Y-81048810D01*
X141723504Y-81046447D01*
X141598904Y-81043591D01*
X141456744Y-81040308D01*
X141299938Y-81036665D01*
X141131402Y-81032728D01*
X140954048Y-81028564D01*
X140935182Y-81028121D01*
X140760022Y-81024086D01*
X140594978Y-81020421D01*
X140442825Y-81017180D01*
X140306339Y-81014417D01*
X140188298Y-81012182D01*
X140091478Y-81010530D01*
X140018655Y-81009513D01*
X139972605Y-81009184D01*
X139956105Y-81009595D01*
X135777894Y-81009595D01*
X135788441Y-80953353D01*
X135878554Y-80472893D01*
X135882876Y-80449851D01*
X136367766Y-80449851D01*
X136372891Y-80450928D01*
X136390735Y-80452377D01*
X136422658Y-80454026D01*
X136470063Y-80455911D01*
X136534354Y-80458067D01*
X136616935Y-80460532D01*
X136719210Y-80463340D01*
X136842583Y-80466529D01*
X136988458Y-80470134D01*
X137158238Y-80474192D01*
X137353328Y-80478738D01*
X137575131Y-80483809D01*
X137825052Y-80489440D01*
X138104494Y-80495669D01*
X138414861Y-80502531D01*
X138694083Y-80508684D01*
X139064571Y-80516847D01*
X139406588Y-80524381D01*
X139722398Y-80531336D01*
X140014265Y-80537763D01*
X140284453Y-80543709D01*
X140535224Y-80549226D01*
X140768843Y-80554363D01*
X140987572Y-80559170D01*
X141193677Y-80563696D01*
X141389420Y-80567992D01*
X141577064Y-80572107D01*
X141758874Y-80576090D01*
X141937113Y-80579992D01*
X142114045Y-80583861D01*
X142291933Y-80587749D01*
X142473040Y-80591705D01*
X142714117Y-80596972D01*
X143339159Y-80610659D01*
X143962219Y-80624345D01*
X144578237Y-80637919D01*
X145182157Y-80651269D01*
X145768921Y-80664283D01*
X146333470Y-80676850D01*
X146870749Y-80688858D01*
X146981207Y-80691331D01*
X147193605Y-80696072D01*
X147376836Y-80700130D01*
X147533050Y-80703536D01*
X147664399Y-80706325D01*
X147773031Y-80708529D01*
X147861099Y-80710181D01*
X147930752Y-80711314D01*
X147984141Y-80711962D01*
X148023416Y-80712158D01*
X148050727Y-80711933D01*
X148068227Y-80711323D01*
X148078063Y-80710359D01*
X148082389Y-80709075D01*
X148083352Y-80707503D01*
X148082460Y-80702164D01*
X148076507Y-80669412D01*
X148065427Y-80609399D01*
X148049762Y-80525039D01*
X148030055Y-80419245D01*
X148006849Y-80294930D01*
X147980689Y-80155008D01*
X147952115Y-80002393D01*
X147921672Y-79839997D01*
X147904651Y-79749231D01*
X147875178Y-79591956D01*
X147847875Y-79446109D01*
X147823283Y-79314598D01*
X147801945Y-79200331D01*
X147784404Y-79106214D01*
X147771203Y-79035157D01*
X147762885Y-78990065D01*
X147759991Y-78973846D01*
X147759143Y-78973498D01*
X147737360Y-78972718D01*
X147690576Y-78973054D01*
X147624731Y-78974425D01*
X147545765Y-78976751D01*
X147516829Y-78977633D01*
X147446006Y-78979541D01*
X147348091Y-78981987D01*
X147226316Y-78984897D01*
X147083911Y-78988197D01*
X146924107Y-78991814D01*
X146750136Y-78995674D01*
X146565227Y-78999704D01*
X146372613Y-79003829D01*
X146175523Y-79007977D01*
X146004050Y-79011566D01*
X145755761Y-79016802D01*
X145490870Y-79022426D01*
X145216367Y-79028288D01*
X144939243Y-79034238D01*
X144666487Y-79040125D01*
X144405090Y-79045800D01*
X144162042Y-79051111D01*
X143944333Y-79055910D01*
X143807610Y-79058937D01*
X143570405Y-79064178D01*
X143312642Y-79069863D01*
X143041518Y-79075833D01*
X142764230Y-79081931D01*
X142487977Y-79087997D01*
X142219954Y-79093874D01*
X141967361Y-79099403D01*
X141737394Y-79104426D01*
X141587073Y-79107711D01*
X141343516Y-79113054D01*
X141083237Y-79118785D01*
X140813242Y-79124747D01*
X140540539Y-79130787D01*
X140272135Y-79136749D01*
X140015038Y-79142478D01*
X139776254Y-79147817D01*
X139562792Y-79152613D01*
X139493081Y-79154178D01*
X139265996Y-79159222D01*
X139020462Y-79164600D01*
X138763732Y-79170158D01*
X138503061Y-79175741D01*
X138245703Y-79181195D01*
X137998910Y-79186364D01*
X137769938Y-79191094D01*
X137566038Y-79195230D01*
X137408014Y-79198537D01*
X137244007Y-79202276D01*
X137092279Y-79206054D01*
X136955694Y-79209784D01*
X136837116Y-79213378D01*
X136739412Y-79216749D01*
X136665444Y-79219809D01*
X136618079Y-79222472D01*
X136600179Y-79224650D01*
X136600092Y-79224739D01*
X136594478Y-79243135D01*
X136583989Y-79288840D01*
X136569424Y-79357637D01*
X136551581Y-79445309D01*
X136531262Y-79547643D01*
X136509265Y-79660422D01*
X136486391Y-79779429D01*
X136463438Y-79900450D01*
X136441208Y-80019269D01*
X136420499Y-80131670D01*
X136402111Y-80233436D01*
X136386844Y-80320354D01*
X136375498Y-80388206D01*
X136368872Y-80432777D01*
X136367766Y-80449851D01*
X135882876Y-80449851D01*
X135965795Y-80007808D01*
X136050010Y-79558918D01*
X136131046Y-79127044D01*
X136208747Y-78713006D01*
X136282961Y-78317625D01*
X136353532Y-77941721D01*
X136420308Y-77586114D01*
X136483134Y-77251626D01*
X136541856Y-76939076D01*
X136596319Y-76649284D01*
X136646371Y-76383072D01*
X136691857Y-76141260D01*
X136732623Y-75924667D01*
X136768515Y-75734115D01*
X136799379Y-75570425D01*
X136825061Y-75434415D01*
X136845407Y-75326908D01*
X136860262Y-75248722D01*
X136869474Y-75200680D01*
X136872888Y-75183600D01*
X136883826Y-75184598D01*
X136913488Y-75205735D01*
X136958415Y-75244862D01*
X137015374Y-75298656D01*
X137081132Y-75363796D01*
X137152455Y-75436960D01*
X137226111Y-75514824D01*
X137298866Y-75594067D01*
X137367488Y-75671367D01*
X137428743Y-75743400D01*
X137479399Y-75806845D01*
X137564390Y-75921731D01*
X137719435Y-76147769D01*
X137880210Y-76402102D01*
X138045608Y-76682709D01*
X138214525Y-76987570D01*
X138385854Y-77314663D01*
X138558489Y-77661967D01*
X138731325Y-78027462D01*
X138903256Y-78409125D01*
X138934604Y-78479856D01*
X138969360Y-78556898D01*
X138998313Y-78619551D01*
X139019104Y-78662725D01*
X139029375Y-78681330D01*
X139029657Y-78681486D01*
X139049682Y-78682780D01*
X139098521Y-78683357D01*
X139172956Y-78683278D01*
X139269770Y-78682604D01*
X139385745Y-78681393D01*
X139517663Y-78679708D01*
X139662307Y-78677607D01*
X139816459Y-78675151D01*
X139976901Y-78672401D01*
X140140417Y-78669417D01*
X140303788Y-78666260D01*
X140463796Y-78662988D01*
X140617224Y-78659664D01*
X140760855Y-78656346D01*
X140891471Y-78653096D01*
X141005854Y-78649973D01*
X141100787Y-78647039D01*
X141173052Y-78644352D01*
X141219431Y-78641975D01*
X141236707Y-78639966D01*
X141236068Y-78637623D01*
X141227544Y-78610555D01*
X141209296Y-78553779D01*
X141181567Y-78468036D01*
X141144597Y-78354065D01*
X141098629Y-78212608D01*
X141043906Y-78044405D01*
X140980668Y-77850198D01*
X140909159Y-77630725D01*
X140829619Y-77386728D01*
X140742291Y-77118948D01*
X140647418Y-76828125D01*
X140545240Y-76515000D01*
X140436000Y-76180312D01*
X140319940Y-75824804D01*
X140197302Y-75449215D01*
X140068327Y-75054286D01*
X139933259Y-74640758D01*
X139792338Y-74209371D01*
X139645807Y-73760866D01*
X139493907Y-73295983D01*
X139336882Y-72815463D01*
X139174972Y-72320046D01*
X139008419Y-71810474D01*
X138837467Y-71287486D01*
X138662356Y-70751824D01*
X138483329Y-70204227D01*
X138300627Y-69645437D01*
X138114493Y-69076194D01*
X137925168Y-68497239D01*
X137732895Y-67909311D01*
X137537915Y-67313153D01*
X137340471Y-66709504D01*
X137140804Y-66099105D01*
X136939157Y-65482696D01*
X136735771Y-64861019D01*
X136530889Y-64234813D01*
X136324752Y-63604819D01*
X136117602Y-62971779D01*
X135909682Y-62336432D01*
X135565207Y-61283853D01*
X135385355Y-61214555D01*
X135348362Y-61200079D01*
X135088818Y-61085954D01*
X134826615Y-60948414D01*
X134559173Y-60785908D01*
X134283915Y-60596883D01*
X133998263Y-60379790D01*
X133766116Y-60188692D01*
X133439464Y-59897991D01*
X133109101Y-59579595D01*
X132776842Y-59235777D01*
X132444502Y-58868811D01*
X132113894Y-58480969D01*
X131786835Y-58074525D01*
X131465138Y-57651750D01*
X131150618Y-57214919D01*
X130845090Y-56766303D01*
X130550368Y-56308176D01*
X130268267Y-55842812D01*
X130000602Y-55372481D01*
X129992924Y-55358686D01*
X129964703Y-55310751D01*
X129943344Y-55278750D01*
X129932978Y-55269005D01*
X129932483Y-55271463D01*
X129937109Y-55298112D01*
X129950298Y-55350395D01*
X129970876Y-55424438D01*
X129997670Y-55516365D01*
X130029505Y-55622304D01*
X130065206Y-55738380D01*
X130103600Y-55860718D01*
X130143513Y-55985445D01*
X130183770Y-56108685D01*
X130223196Y-56226566D01*
X130249667Y-56304174D01*
X130462813Y-56897298D01*
X130692702Y-57482117D01*
X130942026Y-58064955D01*
X131213477Y-58652138D01*
X131509746Y-59249991D01*
X131564661Y-59356711D01*
X131796469Y-59793298D01*
X132031903Y-60214940D01*
X132234303Y-60559603D01*
X132270145Y-60620637D01*
X132510381Y-61009389D01*
X132751794Y-61380199D01*
X132993569Y-61732067D01*
X133234889Y-62063993D01*
X133474938Y-62374980D01*
X133712902Y-62664027D01*
X133947963Y-62930136D01*
X134179305Y-63172308D01*
X134406114Y-63389543D01*
X134627572Y-63580843D01*
X134842865Y-63745209D01*
X135051175Y-63881641D01*
X135251688Y-63989141D01*
X135443586Y-64066709D01*
X135512482Y-64088950D01*
X135580114Y-64109697D01*
X135631804Y-64124448D01*
X135702408Y-64143089D01*
X135691677Y-64364267D01*
X135690706Y-64384156D01*
X135681232Y-64558073D01*
X135665959Y-64838442D01*
X135634821Y-65323260D01*
X135597416Y-65837521D01*
X135553869Y-66380136D01*
X135504305Y-66950016D01*
X135448849Y-67546071D01*
X135387627Y-68167211D01*
X135320763Y-68812348D01*
X135248383Y-69480392D01*
X135170611Y-70170254D01*
X135087571Y-70880844D01*
X134999391Y-71611073D01*
X134906193Y-72359851D01*
X134808104Y-73126089D01*
X134705247Y-73908698D01*
X134597749Y-74706588D01*
X134485734Y-75518671D01*
X134369328Y-76343856D01*
X134248654Y-77181054D01*
X134123839Y-78029176D01*
X134002455Y-78845663D01*
X134017883Y-79063931D01*
X134018786Y-79077334D01*
X134023664Y-79175896D01*
X134027529Y-79300132D01*
X134030382Y-79444336D01*
X134032228Y-79602803D01*
X134033068Y-79769829D01*
X134032951Y-79891419D01*
X134032905Y-79939709D01*
X134031742Y-80106737D01*
X134029582Y-80265208D01*
X134026427Y-80409417D01*
X134022280Y-80533660D01*
X134017144Y-80632232D01*
X133983923Y-81045539D01*
X133917507Y-81631706D01*
X133829714Y-82203112D01*
X133720978Y-82757829D01*
X133591733Y-83293930D01*
X133442413Y-83809486D01*
X133273452Y-84302569D01*
X133085284Y-84771251D01*
X132997665Y-84973352D01*
X132860126Y-85733250D01*
X132781171Y-86166900D01*
X132641379Y-86921864D01*
X132503355Y-87650761D01*
X132448876Y-87931806D01*
X132367172Y-88353300D01*
X132232902Y-89029190D01*
X132100616Y-89678142D01*
X131970389Y-90299864D01*
X131842291Y-90894067D01*
X131716396Y-91460459D01*
X131592776Y-91998750D01*
X131471503Y-92508650D01*
X131352649Y-92989867D01*
X131236288Y-93442112D01*
X131122490Y-93865094D01*
X131011330Y-94258522D01*
X130902878Y-94622106D01*
X130797209Y-94955555D01*
X130694393Y-95258579D01*
X130594503Y-95530888D01*
X130497612Y-95772190D01*
X130403792Y-95982195D01*
X130313115Y-96160612D01*
X130225655Y-96307152D01*
X130223586Y-96310260D01*
X130185866Y-96360933D01*
X130132419Y-96425647D01*
X130070060Y-96496410D01*
X130005607Y-96565226D01*
X129849359Y-96726291D01*
X129653053Y-96338873D01*
X129456746Y-95951455D01*
X128980724Y-95951455D01*
X128982142Y-95913519D01*
X128987184Y-95757438D01*
X128988794Y-95707367D01*
X128994768Y-95541404D01*
X129001258Y-95397929D01*
X129008833Y-95269200D01*
X129018061Y-95147478D01*
X129029510Y-95025020D01*
X129043747Y-94894087D01*
X129061342Y-94746936D01*
X129064031Y-94725101D01*
X129078503Y-94606590D01*
X129091540Y-94498209D01*
X129102627Y-94404349D01*
X129111251Y-94329401D01*
X129116898Y-94277758D01*
X129119054Y-94253810D01*
X129119363Y-94252377D01*
X129128882Y-94261071D01*
X129150097Y-94294319D01*
X129180854Y-94348366D01*
X129219000Y-94419455D01*
X129262383Y-94503830D01*
X129404817Y-94786187D01*
X129527498Y-94285562D01*
X129536952Y-94246938D01*
X129620527Y-93901598D01*
X129702014Y-93557452D01*
X129782329Y-93210362D01*
X129862387Y-92856189D01*
X129943103Y-92490797D01*
X130025392Y-92110047D01*
X130110171Y-91709800D01*
X130198352Y-91285920D01*
X130290853Y-90834268D01*
X130311719Y-90731341D01*
X130348581Y-90548077D01*
X130387077Y-90355066D01*
X130426743Y-90154749D01*
X130467112Y-89949565D01*
X130507718Y-89741952D01*
X130548095Y-89534349D01*
X130587778Y-89329197D01*
X130626301Y-89128934D01*
X130663198Y-88935999D01*
X130698003Y-88752831D01*
X130730249Y-88581870D01*
X130759473Y-88425554D01*
X130785206Y-88286323D01*
X130806984Y-88166615D01*
X130824340Y-88068871D01*
X130836809Y-87995528D01*
X130843925Y-87949027D01*
X130845223Y-87931806D01*
X130835907Y-87938965D01*
X130810140Y-87966756D01*
X130772326Y-88010815D01*
X130726733Y-88066297D01*
X130671793Y-88133077D01*
X130437933Y-88390794D01*
X130187852Y-88626608D01*
X129924287Y-88838451D01*
X129649976Y-89024257D01*
X129367655Y-89181959D01*
X129080062Y-89309492D01*
X129057922Y-89317859D01*
X128925311Y-89362364D01*
X128773762Y-89405642D01*
X128614477Y-89444895D01*
X128458657Y-89477321D01*
X128317502Y-89500120D01*
X128297089Y-89502711D01*
X128063034Y-89521885D01*
X127813301Y-89525105D01*
X127558992Y-89512875D01*
X127311210Y-89485697D01*
X127081061Y-89444076D01*
X127058294Y-89438881D01*
X126785516Y-89361208D01*
X126510534Y-89255668D01*
X126239553Y-89125223D01*
X125978778Y-88972834D01*
X125734413Y-88801462D01*
X125640789Y-88729520D01*
X125158498Y-88729520D01*
X125158250Y-88452317D01*
X125157946Y-88020847D01*
X125157716Y-87578696D01*
X125157563Y-87127014D01*
X125157489Y-86666955D01*
X125157063Y-80680736D01*
X125113525Y-80680736D01*
X125105596Y-80680678D01*
X125064206Y-80680034D01*
X124994955Y-80678734D01*
X124901050Y-80676848D01*
X124785699Y-80674449D01*
X124652110Y-80671609D01*
X124503490Y-80668400D01*
X124343047Y-80664894D01*
X124173989Y-80661162D01*
X123999524Y-80657276D01*
X123822858Y-80653309D01*
X123647201Y-80649333D01*
X123475759Y-80645418D01*
X123311740Y-80641638D01*
X123158352Y-80638064D01*
X123018802Y-80634767D01*
X122896299Y-80631821D01*
X122794049Y-80629296D01*
X122715261Y-80627266D01*
X122663142Y-80625800D01*
X122408496Y-80617979D01*
X120758632Y-80617979D01*
X120965204Y-80131022D01*
X121471898Y-80131022D01*
X121540038Y-80131117D01*
X121548691Y-80131187D01*
X121591298Y-80131874D01*
X121660867Y-80133225D01*
X121753571Y-80135157D01*
X121865580Y-80137588D01*
X121993065Y-80140436D01*
X122132198Y-80143617D01*
X122279151Y-80147050D01*
X122396802Y-80149811D01*
X122546095Y-80153275D01*
X122709751Y-80157030D01*
X122889150Y-80161109D01*
X123085675Y-80165540D01*
X123300708Y-80170356D01*
X123535632Y-80175586D01*
X123791827Y-80181261D01*
X124070677Y-80187412D01*
X124373563Y-80194069D01*
X124701867Y-80201263D01*
X125056972Y-80209024D01*
X125440260Y-80217384D01*
X125853112Y-80226372D01*
X126296911Y-80236020D01*
X126495598Y-80240344D01*
X126718726Y-80245215D01*
X126947353Y-80250220D01*
X127176076Y-80255240D01*
X127399491Y-80260156D01*
X127612193Y-80264850D01*
X127808778Y-80269202D01*
X127983843Y-80273093D01*
X128131984Y-80276405D01*
X128138144Y-80276543D01*
X128286033Y-80279831D01*
X128460732Y-80283665D01*
X128656967Y-80287933D01*
X128869465Y-80292521D01*
X129092951Y-80297316D01*
X129322152Y-80302205D01*
X129551794Y-80307076D01*
X129776604Y-80311814D01*
X129991309Y-80316306D01*
X130093812Y-80318459D01*
X130289285Y-80322653D01*
X130479428Y-80326845D01*
X130660868Y-80330954D01*
X130830228Y-80334901D01*
X130984135Y-80338604D01*
X131119213Y-80341982D01*
X131232086Y-80344956D01*
X131319380Y-80347445D01*
X131377719Y-80349369D01*
X131624282Y-80358679D01*
X131624282Y-79839997D01*
X131624282Y-79321315D01*
X131377719Y-79330631D01*
X131349219Y-79331621D01*
X131274548Y-79333863D01*
X131172767Y-79336626D01*
X131047234Y-79339831D01*
X130901304Y-79343397D01*
X130738336Y-79347245D01*
X130561687Y-79351294D01*
X130374714Y-79355465D01*
X130180774Y-79359678D01*
X129983225Y-79363852D01*
X129962253Y-79364289D01*
X129746492Y-79368804D01*
X129521795Y-79373541D01*
X129293320Y-79378389D01*
X129066224Y-79383236D01*
X128845667Y-79387973D01*
X128636806Y-79392488D01*
X128444800Y-79396670D01*
X128274806Y-79400410D01*
X128131984Y-79403595D01*
X128128628Y-79403671D01*
X127983998Y-79406912D01*
X127812416Y-79410731D01*
X127619123Y-79415013D01*
X127409360Y-79419644D01*
X127188367Y-79424506D01*
X126961384Y-79429485D01*
X126733654Y-79434467D01*
X126510416Y-79439334D01*
X126296911Y-79443973D01*
X126155653Y-79447037D01*
X125910084Y-79452368D01*
X125646123Y-79458103D01*
X125371015Y-79464084D01*
X125092008Y-79470154D01*
X124816345Y-79476155D01*
X124551274Y-79481930D01*
X124304040Y-79487320D01*
X124081888Y-79492168D01*
X124065330Y-79492529D01*
X123865881Y-79496875D01*
X123664881Y-79501239D01*
X123466564Y-79505529D01*
X123275166Y-79509656D01*
X123094921Y-79513528D01*
X122930065Y-79517054D01*
X122784832Y-79520143D01*
X122663457Y-79522705D01*
X122570176Y-79524647D01*
X122497164Y-79526205D01*
X122359495Y-79529387D01*
X122220302Y-79532880D01*
X122088048Y-79536458D01*
X121971198Y-79539899D01*
X121878215Y-79542977D01*
X121784170Y-79546384D01*
X121701885Y-79551405D01*
X121643430Y-79561044D01*
X121604285Y-79578914D01*
X121579931Y-79608626D01*
X121565847Y-79653793D01*
X121557514Y-79718027D01*
X121550410Y-79804939D01*
X121540450Y-79898457D01*
X121524170Y-79990356D01*
X121504084Y-80055935D01*
X121471898Y-80131022D01*
X120965204Y-80131022D01*
X122400412Y-76747774D01*
X122404560Y-77905372D01*
X122408709Y-79062971D01*
X122638997Y-79054892D01*
X122664745Y-79054052D01*
X122736088Y-79052000D01*
X122834671Y-79049393D01*
X122957173Y-79046309D01*
X123100276Y-79042827D01*
X123260658Y-79039028D01*
X123435000Y-79034990D01*
X123619983Y-79030792D01*
X123812285Y-79026513D01*
X124008587Y-79022233D01*
X124151040Y-79019125D01*
X124332884Y-79015050D01*
X124503133Y-79011116D01*
X124659194Y-79007388D01*
X124798476Y-79003932D01*
X124918388Y-79000814D01*
X125016336Y-78998102D01*
X125089731Y-78995859D01*
X125135980Y-78994154D01*
X125152492Y-78993052D01*
X125152616Y-78989814D01*
X125152885Y-78959602D01*
X125153134Y-78898425D01*
X125153363Y-78807234D01*
X125153573Y-78686981D01*
X125153762Y-78538617D01*
X125153932Y-78363096D01*
X125154081Y-78161368D01*
X125154211Y-77934386D01*
X125154320Y-77683101D01*
X125154409Y-77408465D01*
X125154417Y-77373095D01*
X125642105Y-77373095D01*
X125642105Y-78983091D01*
X125874003Y-78983091D01*
X125976865Y-78982303D01*
X126093014Y-78980071D01*
X126205384Y-78976744D01*
X126299697Y-78972671D01*
X126493492Y-78962250D01*
X126495354Y-78942211D01*
X126967884Y-78942211D01*
X126977421Y-78944569D01*
X127016766Y-78946768D01*
X127084559Y-78948034D01*
X127178620Y-78948383D01*
X127296765Y-78947834D01*
X127436814Y-78946405D01*
X127596584Y-78944114D01*
X127773894Y-78940980D01*
X127966561Y-78937019D01*
X128172404Y-78932251D01*
X128196986Y-78931652D01*
X128362953Y-78927660D01*
X128549487Y-78923245D01*
X128746486Y-78918641D01*
X128943844Y-78914084D01*
X129131461Y-78909808D01*
X129299231Y-78906048D01*
X129423664Y-78903084D01*
X129547539Y-78899691D01*
X129657572Y-78896219D01*
X129750066Y-78892803D01*
X129821322Y-78889582D01*
X129867644Y-78886693D01*
X129885332Y-78884273D01*
X129885605Y-78873226D01*
X129879165Y-78834831D01*
X129866081Y-78773877D01*
X129847596Y-78695251D01*
X129824951Y-78603843D01*
X129799388Y-78504542D01*
X129772149Y-78402237D01*
X129744475Y-78301816D01*
X129717608Y-78208169D01*
X129692789Y-78126184D01*
X129623088Y-77914070D01*
X129503281Y-77591160D01*
X129375725Y-77295741D01*
X129240790Y-77028316D01*
X129098847Y-76789391D01*
X128950265Y-76579470D01*
X128795415Y-76399058D01*
X128634667Y-76248661D01*
X128468390Y-76128782D01*
X128296956Y-76039926D01*
X128120735Y-75982599D01*
X128102350Y-75978655D01*
X128002302Y-75964538D01*
X127887549Y-75957494D01*
X127772042Y-75958018D01*
X127669735Y-75966605D01*
X127587434Y-75978158D01*
X127504851Y-76223559D01*
X127492551Y-76260323D01*
X127395756Y-76567152D01*
X127310133Y-76873382D01*
X127234193Y-77185557D01*
X127166444Y-77510221D01*
X127105397Y-77853918D01*
X127049562Y-78223193D01*
X127048204Y-78232983D01*
X127038491Y-78306498D01*
X127027413Y-78395093D01*
X127015638Y-78492871D01*
X127003837Y-78593936D01*
X126992680Y-78692392D01*
X126982837Y-78782344D01*
X126974976Y-78857895D01*
X126969769Y-78913149D01*
X126967884Y-78942211D01*
X126495354Y-78942211D01*
X126513178Y-78750360D01*
X126520685Y-78672660D01*
X126554689Y-78370312D01*
X126596885Y-78057098D01*
X126645236Y-77748473D01*
X126658587Y-77670616D01*
X126743477Y-77229314D01*
X126839981Y-76811122D01*
X126947750Y-76416794D01*
X127066429Y-76047082D01*
X127195667Y-75702740D01*
X127335113Y-75384521D01*
X127484414Y-75093178D01*
X127643217Y-74829464D01*
X127811172Y-74594133D01*
X127987925Y-74387938D01*
X128173125Y-74211632D01*
X128366420Y-74065968D01*
X128479575Y-73997600D01*
X128684114Y-73902229D01*
X128897413Y-73835796D01*
X129116178Y-73798543D01*
X129337112Y-73790715D01*
X129556921Y-73812557D01*
X129772309Y-73864313D01*
X129979981Y-73946229D01*
X130060470Y-73987403D01*
X130262910Y-74115548D01*
X130456635Y-74274604D01*
X130641506Y-74464368D01*
X130817384Y-74684637D01*
X130984127Y-74935207D01*
X131141595Y-75215874D01*
X131289649Y-75526435D01*
X131428149Y-75866686D01*
X131556954Y-76236424D01*
X131579073Y-76306223D01*
X131680638Y-76659208D01*
X131773640Y-77037313D01*
X131857133Y-77435277D01*
X131930167Y-77847840D01*
X131991794Y-78269742D01*
X132041065Y-78695722D01*
X132056094Y-78873226D01*
X132077032Y-79120519D01*
X132078308Y-79139944D01*
X132084676Y-79267997D01*
X132089431Y-79419504D01*
X132092573Y-79587496D01*
X132094099Y-79765005D01*
X132094061Y-79839997D01*
X132094007Y-79945061D01*
X132092295Y-80120696D01*
X132088962Y-80284942D01*
X132084005Y-80430830D01*
X132077423Y-80551391D01*
X132060881Y-80765242D01*
X132011848Y-81249350D01*
X131947773Y-81724078D01*
X131869410Y-82185239D01*
X131797549Y-82531977D01*
X131777514Y-82628649D01*
X131672838Y-83050121D01*
X131556135Y-83445472D01*
X131543625Y-83484070D01*
X131416331Y-83844398D01*
X131279210Y-84176652D01*
X131132544Y-84480508D01*
X130976615Y-84755642D01*
X130811704Y-85001732D01*
X130638094Y-85218455D01*
X130456065Y-85405488D01*
X130265899Y-85562508D01*
X130067879Y-85689191D01*
X129862286Y-85785215D01*
X129649402Y-85850256D01*
X129429508Y-85883992D01*
X129344069Y-85888888D01*
X129111513Y-85881240D01*
X128886950Y-85842367D01*
X128670522Y-85772385D01*
X128462370Y-85671409D01*
X128262634Y-85539553D01*
X128071456Y-85376934D01*
X127888978Y-85183664D01*
X127715339Y-84959861D01*
X127550682Y-84705639D01*
X127395148Y-84421113D01*
X127248877Y-84106398D01*
X127218920Y-84035323D01*
X127094874Y-83711576D01*
X126979209Y-83361306D01*
X126872864Y-82988565D01*
X126776775Y-82597408D01*
X126752064Y-82479368D01*
X127232874Y-82479368D01*
X127239890Y-82523786D01*
X127254569Y-82591360D01*
X127275780Y-82678048D01*
X127302395Y-82779809D01*
X127333283Y-82892605D01*
X127367313Y-83012393D01*
X127403357Y-83135135D01*
X127440284Y-83256788D01*
X127476965Y-83373313D01*
X127512269Y-83480669D01*
X127545066Y-83574816D01*
X127600165Y-83721923D01*
X127727371Y-84025137D01*
X127862473Y-84299761D01*
X128005138Y-84545379D01*
X128155034Y-84761577D01*
X128311825Y-84947941D01*
X128475179Y-85104053D01*
X128644763Y-85229501D01*
X128820241Y-85323867D01*
X129001282Y-85386739D01*
X129028618Y-85393265D01*
X129148403Y-85411535D01*
X129286543Y-85416362D01*
X129349658Y-85415630D01*
X129423016Y-85412896D01*
X129474046Y-85405388D01*
X129508789Y-85389919D01*
X129533288Y-85363305D01*
X129553585Y-85322360D01*
X129575723Y-85263897D01*
X129577625Y-85258709D01*
X129678168Y-84961828D01*
X129772758Y-84638060D01*
X129860301Y-84292398D01*
X129939700Y-83929834D01*
X130009863Y-83555363D01*
X130069692Y-83173975D01*
X130118095Y-82790666D01*
X130146711Y-82531977D01*
X130040716Y-82521114D01*
X130036389Y-82520729D01*
X129997939Y-82518601D01*
X129932044Y-82516028D01*
X129841551Y-82513070D01*
X129729307Y-82509785D01*
X129598156Y-82506233D01*
X129450947Y-82502474D01*
X129290524Y-82498566D01*
X129119734Y-82494570D01*
X128941423Y-82490544D01*
X128758438Y-82486548D01*
X128573625Y-82482642D01*
X128389829Y-82478884D01*
X128209898Y-82475335D01*
X128036676Y-82472053D01*
X127873011Y-82469097D01*
X127721749Y-82466528D01*
X127585736Y-82464405D01*
X127467818Y-82462787D01*
X127370841Y-82461733D01*
X127297651Y-82461303D01*
X127251096Y-82461557D01*
X127234020Y-82462553D01*
X127232874Y-82479368D01*
X126752064Y-82479368D01*
X126691882Y-82191886D01*
X126619122Y-81776053D01*
X126559433Y-81353962D01*
X126513753Y-80929664D01*
X126494586Y-80717803D01*
X126300244Y-80707353D01*
X126208889Y-80703382D01*
X126096640Y-80700017D01*
X125980242Y-80697741D01*
X125874003Y-80696904D01*
X125642105Y-80696904D01*
X125642105Y-82306900D01*
X125642105Y-83916896D01*
X125723752Y-84134767D01*
X125729054Y-84148882D01*
X125899766Y-84572069D01*
X126082287Y-84966082D01*
X126276504Y-85330776D01*
X126482308Y-85666008D01*
X126699588Y-85971632D01*
X126928234Y-86247505D01*
X127168134Y-86493480D01*
X127419179Y-86709415D01*
X127681257Y-86895164D01*
X127954258Y-87050583D01*
X128078937Y-87110274D01*
X128329831Y-87210538D01*
X128583274Y-87284220D01*
X128847881Y-87334052D01*
X128870259Y-87336984D01*
X128974292Y-87346368D01*
X129098476Y-87352490D01*
X129234091Y-87355349D01*
X129372416Y-87354944D01*
X129504732Y-87351275D01*
X129622317Y-87344340D01*
X129716452Y-87334139D01*
X129814702Y-87317724D01*
X130107703Y-87247532D01*
X130394118Y-87147350D01*
X130669414Y-87018936D01*
X130929058Y-86864048D01*
X131158264Y-86695981D01*
X131407011Y-86478081D01*
X131644591Y-86231315D01*
X131870604Y-85956610D01*
X132084651Y-85654892D01*
X132286332Y-85327087D01*
X132475248Y-84974123D01*
X132650999Y-84596927D01*
X132813186Y-84196423D01*
X132961410Y-83773541D01*
X133095270Y-83329205D01*
X133214369Y-82864343D01*
X133318305Y-82379881D01*
X133406680Y-81876746D01*
X133479095Y-81355865D01*
X133535150Y-80818164D01*
X133537842Y-80783381D01*
X133543358Y-80682234D01*
X133547921Y-80555665D01*
X133551529Y-80408487D01*
X133554184Y-80245513D01*
X133555885Y-80071552D01*
X133556632Y-79891419D01*
X133556425Y-79709924D01*
X133555264Y-79531879D01*
X133553149Y-79362097D01*
X133550080Y-79205389D01*
X133546057Y-79066567D01*
X133541080Y-78950444D01*
X133535150Y-78861831D01*
X133514310Y-78640759D01*
X133448379Y-78086447D01*
X133364628Y-77549592D01*
X133263448Y-77031610D01*
X133145225Y-76533920D01*
X133010349Y-76057939D01*
X132859207Y-75605084D01*
X132692189Y-75176772D01*
X132509684Y-74774422D01*
X132312078Y-74399450D01*
X132237197Y-74270890D01*
X132025379Y-73939900D01*
X131803557Y-73639627D01*
X131571681Y-73370034D01*
X131329699Y-73131079D01*
X131077561Y-72922723D01*
X130815215Y-72744927D01*
X130542610Y-72597651D01*
X130259696Y-72480855D01*
X129966422Y-72394500D01*
X129662736Y-72338547D01*
X129575663Y-72330308D01*
X129460492Y-72324872D01*
X129330782Y-72322762D01*
X129195600Y-72323897D01*
X129064011Y-72328193D01*
X128945083Y-72335569D01*
X128847881Y-72345942D01*
X128597571Y-72392925D01*
X128307412Y-72477392D01*
X128026331Y-72592594D01*
X127754674Y-72738271D01*
X127492784Y-72914165D01*
X127241007Y-73120013D01*
X126999685Y-73355558D01*
X126769165Y-73620538D01*
X126549790Y-73914694D01*
X126341905Y-74237765D01*
X126206576Y-74474524D01*
X126036367Y-74807005D01*
X125876126Y-75162427D01*
X125723752Y-75545228D01*
X125642105Y-75763099D01*
X125642105Y-76095452D01*
X125642105Y-77373095D01*
X125154417Y-77373095D01*
X125154478Y-77111430D01*
X125154527Y-76792949D01*
X125154555Y-76453972D01*
X125154563Y-76095452D01*
X125154550Y-75718341D01*
X125154516Y-75323590D01*
X125154462Y-74912151D01*
X125154388Y-74484977D01*
X125154292Y-74043019D01*
X125154176Y-73587229D01*
X125154038Y-73118558D01*
X125153880Y-72637960D01*
X125153701Y-72146385D01*
X125153501Y-71644785D01*
X125153279Y-71134113D01*
X125153037Y-70615320D01*
X125148979Y-62242192D01*
X120630010Y-72571309D01*
X117532854Y-79650556D01*
X116111042Y-82900427D01*
X116106897Y-81695122D01*
X116102753Y-80489817D01*
X115937133Y-80480517D01*
X115923432Y-80479827D01*
X115864556Y-80477551D01*
X115778420Y-80474844D01*
X115668761Y-80471799D01*
X115539317Y-80468508D01*
X115393825Y-80465063D01*
X115236023Y-80461559D01*
X115069648Y-80458087D01*
X114898438Y-80454740D01*
X114869058Y-80454183D01*
X114690062Y-80450702D01*
X114510773Y-80447071D01*
X114335852Y-80443395D01*
X114169958Y-80439776D01*
X114017753Y-80436318D01*
X113883898Y-80433125D01*
X113773052Y-80430299D01*
X113689877Y-80427945D01*
X113354390Y-80417626D01*
X113354057Y-86244375D01*
X113354051Y-86322242D01*
X113353964Y-86843795D01*
X113353791Y-87346119D01*
X113353534Y-87828524D01*
X113353195Y-88290319D01*
X113352774Y-88730816D01*
X113352275Y-89149324D01*
X113351699Y-89545154D01*
X113351048Y-89917615D01*
X113350324Y-90266018D01*
X113349528Y-90589673D01*
X113348663Y-90887891D01*
X113347729Y-91159980D01*
X113346730Y-91405253D01*
X113345666Y-91623018D01*
X113344541Y-91812585D01*
X113343354Y-91973266D01*
X113342109Y-92104371D01*
X113340807Y-92205208D01*
X113339450Y-92275089D01*
X113338039Y-92313324D01*
X113311121Y-92585433D01*
X113259677Y-92889633D01*
X113184664Y-93202616D01*
X113085484Y-93526313D01*
X112961540Y-93862658D01*
X112812234Y-94213585D01*
X112636967Y-94581027D01*
X112617404Y-94619910D01*
X112407025Y-95017391D01*
X112171844Y-95426436D01*
X111911534Y-95847490D01*
X111625768Y-96281001D01*
X111314216Y-96727417D01*
X110976553Y-97187185D01*
X110612449Y-97660752D01*
X110221577Y-98148567D01*
X109803609Y-98651076D01*
X109358218Y-99168726D01*
X108885075Y-99701966D01*
X108631478Y-99981213D01*
X108228095Y-100416306D01*
X107802551Y-100865122D01*
X107357580Y-101324950D01*
X106895916Y-101793073D01*
X106420291Y-102266779D01*
X105933439Y-102743352D01*
X105438092Y-103220080D01*
X104936984Y-103694247D01*
X104432849Y-104163139D01*
X103928419Y-104624043D01*
X103898147Y-104651457D01*
X103806712Y-104734342D01*
X103722468Y-104810826D01*
X103648774Y-104877851D01*
X103588990Y-104932361D01*
X103546475Y-104971299D01*
X103524585Y-104991606D01*
X103518809Y-104997274D01*
X103499827Y-105020123D01*
X102781972Y-105020123D01*
X103241433Y-104611108D01*
X103857358Y-104052262D01*
X104464404Y-103490942D01*
X105060167Y-102929455D01*
X105642243Y-102370110D01*
X106208231Y-101815213D01*
X106755724Y-101267074D01*
X107282322Y-100727999D01*
X107785618Y-100200296D01*
X108263212Y-99686274D01*
X108420381Y-99510320D01*
X108635504Y-99256896D01*
X108857675Y-98982135D01*
X109083832Y-98690386D01*
X109310915Y-98386000D01*
X109535865Y-98073323D01*
X109755621Y-97756707D01*
X109967124Y-97440498D01*
X110167312Y-97129048D01*
X110353125Y-96826704D01*
X110521504Y-96537816D01*
X110669388Y-96266732D01*
X110823330Y-95963083D01*
X110969235Y-95650892D01*
X111094061Y-95353887D01*
X111199125Y-95068469D01*
X111285747Y-94791036D01*
X111355242Y-94517988D01*
X111408929Y-94245726D01*
X111409868Y-94240035D01*
X111412330Y-94223313D01*
X111414646Y-94204094D01*
X111416821Y-94181383D01*
X111418861Y-94154187D01*
X111420770Y-94121510D01*
X111422554Y-94082358D01*
X111424219Y-94035736D01*
X111425770Y-93980649D01*
X111427212Y-93916103D01*
X111428552Y-93841103D01*
X111429793Y-93754655D01*
X111430942Y-93655763D01*
X111432004Y-93543434D01*
X111432985Y-93416672D01*
X111433889Y-93274483D01*
X111434723Y-93115872D01*
X111435492Y-92939845D01*
X111436200Y-92745407D01*
X111436854Y-92531563D01*
X111437460Y-92297319D01*
X111438021Y-92041680D01*
X111438544Y-91763651D01*
X111439035Y-91462238D01*
X111439498Y-91136446D01*
X111439939Y-90785281D01*
X111440364Y-90407747D01*
X111440777Y-90002851D01*
X111441185Y-89569596D01*
X111441592Y-89106990D01*
X111442004Y-88614037D01*
X111442427Y-88089743D01*
X111447190Y-82103524D01*
X111329657Y-82103458D01*
X111320114Y-82103406D01*
X111272839Y-82102783D01*
X111197391Y-82101502D01*
X111096824Y-82099627D01*
X110974192Y-82097217D01*
X110832549Y-82094337D01*
X110674949Y-82091046D01*
X110504447Y-82087408D01*
X110324095Y-82083483D01*
X110136949Y-82079334D01*
X109919021Y-82074462D01*
X109359830Y-82061998D01*
X108777312Y-82049063D01*
X108177881Y-82035800D01*
X107567946Y-82022350D01*
X106953920Y-82008854D01*
X106342214Y-81995453D01*
X105739240Y-81982290D01*
X105550851Y-81978180D01*
X105327921Y-81973304D01*
X105098898Y-81968284D01*
X104869270Y-81963240D01*
X104644526Y-81958294D01*
X104430154Y-81953566D01*
X104231645Y-81949177D01*
X104054486Y-81945247D01*
X103904167Y-81941899D01*
X103772144Y-81938955D01*
X103597723Y-81935078D01*
X103401335Y-81930723D01*
X103188470Y-81926013D01*
X102964616Y-81921067D01*
X102735263Y-81916008D01*
X102505899Y-81910956D01*
X102282013Y-81906033D01*
X102069094Y-81901359D01*
X101952319Y-81898798D01*
X101710886Y-81893498D01*
X101450204Y-81887770D01*
X101177640Y-81881775D01*
X100900563Y-81875677D01*
X100626342Y-81869637D01*
X100362344Y-81863818D01*
X100115938Y-81858382D01*
X99894492Y-81853490D01*
X99825420Y-81851968D01*
X99612014Y-81847316D01*
X99374460Y-81842201D01*
X99118788Y-81836750D01*
X98851029Y-81831089D01*
X98577216Y-81825345D01*
X98303379Y-81819644D01*
X98035550Y-81814114D01*
X97779760Y-81808881D01*
X97542041Y-81804072D01*
X97477871Y-81802774D01*
X97278001Y-81798622D01*
X97087413Y-81794501D01*
X96908666Y-81790476D01*
X96744321Y-81786610D01*
X96596941Y-81782969D01*
X96469086Y-81779617D01*
X96363316Y-81776618D01*
X96282194Y-81774037D01*
X96228280Y-81771938D01*
X96204135Y-81770386D01*
X96151589Y-81762530D01*
X96151589Y-81521474D01*
X96151589Y-81280419D01*
X96204135Y-81272562D01*
X96208347Y-81272138D01*
X96242101Y-81270408D01*
X96304822Y-81268151D01*
X96393947Y-81265432D01*
X96506917Y-81262315D01*
X96641170Y-81258866D01*
X96794144Y-81255147D01*
X96963280Y-81251224D01*
X97146015Y-81247162D01*
X97339789Y-81243024D01*
X97542041Y-81238876D01*
X97624308Y-81237219D01*
X97869159Y-81232244D01*
X98129931Y-81226891D01*
X98400593Y-81221286D01*
X98675113Y-81215555D01*
X98947461Y-81209826D01*
X99211603Y-81204225D01*
X99461510Y-81198879D01*
X99691150Y-81193915D01*
X99894492Y-81189458D01*
X100007406Y-81186963D01*
X100242899Y-81181765D01*
X100499477Y-81176107D01*
X100769770Y-81170151D01*
X101046412Y-81164060D01*
X101322034Y-81157997D01*
X101589267Y-81152122D01*
X101840743Y-81146599D01*
X102069094Y-81141589D01*
X102257486Y-81137454D01*
X102480416Y-81132553D01*
X102709438Y-81127510D01*
X102939066Y-81122445D01*
X103163810Y-81117481D01*
X103378181Y-81112738D01*
X103576690Y-81108337D01*
X103753848Y-81104401D01*
X103904167Y-81101050D01*
X104036188Y-81098107D01*
X104210609Y-81094237D01*
X104406997Y-81089894D01*
X104619863Y-81085197D01*
X104843717Y-81080270D01*
X105073070Y-81075231D01*
X105302435Y-81070202D01*
X105526321Y-81065304D01*
X105739240Y-81060658D01*
X105981479Y-81055376D01*
X106588754Y-81042100D01*
X107202169Y-81028644D01*
X107815314Y-81015149D01*
X108421775Y-81001757D01*
X109015143Y-80988610D01*
X109589005Y-80975848D01*
X110136949Y-80963614D01*
X110205044Y-80962096D01*
X110390077Y-80958020D01*
X110567206Y-80954192D01*
X110733378Y-80950672D01*
X110885540Y-80947522D01*
X111020638Y-80944805D01*
X111135620Y-80942581D01*
X111227434Y-80940913D01*
X111293025Y-80939862D01*
X111329342Y-80939490D01*
X111446560Y-80939424D01*
X111446560Y-80664060D01*
X111446560Y-80661547D01*
X111445890Y-80554499D01*
X111443772Y-80476393D01*
X111439967Y-80423924D01*
X111434239Y-80393790D01*
X111426350Y-80382686D01*
X111420686Y-80382132D01*
X111386367Y-80380599D01*
X111323386Y-80378536D01*
X111234183Y-80376003D01*
X111121196Y-80373058D01*
X110986862Y-80369761D01*
X110833622Y-80366171D01*
X110663913Y-80362347D01*
X110480174Y-80358347D01*
X110284844Y-80354232D01*
X110080361Y-80350060D01*
X109947493Y-80347382D01*
X109698994Y-80342325D01*
X109437529Y-80336948D01*
X109168760Y-80331371D01*
X108898348Y-80325714D01*
X108631956Y-80320095D01*
X108375246Y-80314633D01*
X108133879Y-80309448D01*
X107913519Y-80304658D01*
X107719826Y-80300384D01*
X107612861Y-80298000D01*
X107396391Y-80293175D01*
X107170002Y-80288129D01*
X106939729Y-80282996D01*
X106711608Y-80277910D01*
X106491673Y-80273007D01*
X106285960Y-80268420D01*
X106100504Y-80264284D01*
X105941341Y-80260735D01*
X105803482Y-80257668D01*
X105625900Y-80253735D01*
X105426531Y-80249334D01*
X105210896Y-80244586D01*
X104984518Y-80239612D01*
X104752919Y-80234534D01*
X104521621Y-80229473D01*
X104296146Y-80224550D01*
X104082016Y-80219886D01*
X103963314Y-80217303D01*
X103719263Y-80211983D01*
X103455086Y-80206214D01*
X103178274Y-80200160D01*
X102896323Y-80193985D01*
X102616726Y-80187854D01*
X102346976Y-80181930D01*
X102094567Y-80176378D01*
X101866993Y-80171362D01*
X101682330Y-80167288D01*
X101394979Y-80160952D01*
X101096155Y-80154368D01*
X100789508Y-80147615D01*
X100478688Y-80140775D01*
X100167345Y-80133926D01*
X99859130Y-80127150D01*
X99557692Y-80120527D01*
X99266682Y-80114136D01*
X98989749Y-80108059D01*
X98730544Y-80102374D01*
X98492717Y-80097164D01*
X98279918Y-80092507D01*
X98095797Y-80088484D01*
X97590545Y-80077455D01*
X97590545Y-79839997D01*
X97590545Y-79834368D01*
X108650836Y-79834368D01*
X108650836Y-79845627D01*
X108664147Y-79846777D01*
X108707191Y-79848594D01*
X108777195Y-79850885D01*
X108871301Y-79853573D01*
X108986653Y-79856586D01*
X109120396Y-79859849D01*
X109269673Y-79863287D01*
X109431627Y-79866827D01*
X109603403Y-79870394D01*
X109691531Y-79872185D01*
X109903527Y-79876547D01*
X110137660Y-79881425D01*
X110386946Y-79886671D01*
X110644404Y-79892136D01*
X110903053Y-79897672D01*
X111155910Y-79903130D01*
X111395995Y-79908362D01*
X111616325Y-79913218D01*
X111944798Y-79920507D01*
X112335852Y-79929174D01*
X112697715Y-79937181D01*
X113032143Y-79944567D01*
X113340893Y-79951370D01*
X113625722Y-79957627D01*
X113888387Y-79963377D01*
X114130646Y-79968658D01*
X114354255Y-79973509D01*
X114560972Y-79977966D01*
X114752553Y-79982068D01*
X114930755Y-79985853D01*
X115097336Y-79989360D01*
X115254053Y-79992627D01*
X115402663Y-79995690D01*
X115544922Y-79998590D01*
X115682588Y-80001363D01*
X115842311Y-80004640D01*
X116003723Y-80008106D01*
X116157264Y-80011555D01*
X116298858Y-80014887D01*
X116424428Y-80018004D01*
X116529897Y-80020807D01*
X116611190Y-80023198D01*
X116664228Y-80025079D01*
X116738544Y-80027428D01*
X116802654Y-80026797D01*
X116841305Y-80022122D01*
X116858162Y-80013180D01*
X116859384Y-80011153D01*
X116872663Y-79984820D01*
X116893922Y-79939226D01*
X116920102Y-79881324D01*
X116948142Y-79818067D01*
X116974985Y-79756408D01*
X116997569Y-79703301D01*
X117012836Y-79665699D01*
X117017725Y-79650556D01*
X117015440Y-79650380D01*
X116988169Y-79650384D01*
X116932241Y-79651063D01*
X116850351Y-79652368D01*
X116745194Y-79654246D01*
X116619464Y-79656648D01*
X116475857Y-79659523D01*
X116317066Y-79662818D01*
X116145787Y-79666484D01*
X115964715Y-79670470D01*
X115833522Y-79673394D01*
X115601066Y-79678567D01*
X115347837Y-79684194D01*
X115080956Y-79690116D01*
X114807540Y-79696177D01*
X114534710Y-79702218D01*
X114269585Y-79708082D01*
X114019284Y-79713610D01*
X113790927Y-79718646D01*
X113653597Y-79721672D01*
X113410296Y-79727039D01*
X113149117Y-79732807D01*
X112877231Y-79738816D01*
X112601811Y-79744908D01*
X112330029Y-79750925D01*
X112069059Y-79756707D01*
X111826072Y-79762096D01*
X111608241Y-79766933D01*
X111518819Y-79768914D01*
X111289677Y-79773943D01*
X111043490Y-79779289D01*
X110787312Y-79784801D01*
X110528194Y-79790330D01*
X110273191Y-79795724D01*
X110029356Y-79800835D01*
X109803743Y-79805511D01*
X109603403Y-79809603D01*
X109451686Y-79812743D01*
X109288408Y-79816290D01*
X109137466Y-79819744D01*
X109001718Y-79823031D01*
X108884018Y-79826078D01*
X108787224Y-79828809D01*
X108714191Y-79831150D01*
X108667777Y-79833028D01*
X108650836Y-79834368D01*
X97590545Y-79834368D01*
X97590545Y-79602540D01*
X98095797Y-79591511D01*
X98216072Y-79588884D01*
X98419849Y-79584426D01*
X98649855Y-79579389D01*
X98902437Y-79573851D01*
X99173947Y-79567894D01*
X99460734Y-79561597D01*
X99759148Y-79555042D01*
X100065539Y-79548307D01*
X100376257Y-79541474D01*
X100687651Y-79534621D01*
X100996072Y-79527831D01*
X101297870Y-79521183D01*
X101589393Y-79514756D01*
X101866993Y-79508632D01*
X101984140Y-79506049D01*
X102225818Y-79500728D01*
X102488357Y-79494958D01*
X102764263Y-79488904D01*
X103046042Y-79482729D01*
X103326200Y-79476598D01*
X103597245Y-79470675D01*
X103851681Y-79465124D01*
X104082016Y-79460108D01*
X104276087Y-79455882D01*
X104500757Y-79450978D01*
X104731754Y-79445924D01*
X104963554Y-79440843D01*
X105190636Y-79435854D01*
X105407478Y-79431080D01*
X105608557Y-79426643D01*
X105788352Y-79422662D01*
X105941341Y-79419260D01*
X106020712Y-79417490D01*
X106194343Y-79413618D01*
X106391118Y-79409230D01*
X106605003Y-79404461D01*
X106829961Y-79399446D01*
X107059958Y-79394319D01*
X107288958Y-79389214D01*
X107510926Y-79384267D01*
X107719826Y-79379611D01*
X107825943Y-79377260D01*
X108035438Y-79372679D01*
X108268393Y-79367650D01*
X108519147Y-79362294D01*
X108782037Y-79356728D01*
X109051401Y-79351073D01*
X109321578Y-79345447D01*
X109586905Y-79339969D01*
X109841720Y-79334758D01*
X110080361Y-79329935D01*
X110184521Y-79327826D01*
X110384691Y-79323676D01*
X110574478Y-79319611D01*
X110751443Y-79315693D01*
X110913148Y-79311979D01*
X111057154Y-79308530D01*
X111181022Y-79305403D01*
X111282315Y-79302659D01*
X111358592Y-79300355D01*
X111407417Y-79298552D01*
X111426350Y-79297309D01*
X111427514Y-79294403D01*
X111429152Y-79280432D01*
X111430700Y-79254228D01*
X111432160Y-79215017D01*
X111433534Y-79162026D01*
X111434824Y-79094481D01*
X111436032Y-79011611D01*
X111437161Y-78912640D01*
X111438213Y-78796797D01*
X111439190Y-78663308D01*
X111440095Y-78511401D01*
X111440929Y-78340301D01*
X111441696Y-78149235D01*
X111442396Y-77937431D01*
X111443033Y-77704116D01*
X111443609Y-77448515D01*
X111444126Y-77169856D01*
X111444586Y-76867367D01*
X111444992Y-76540272D01*
X111445345Y-76187801D01*
X111445648Y-75809178D01*
X111445904Y-75403632D01*
X111446114Y-74970388D01*
X111446281Y-74508675D01*
X111446406Y-74017718D01*
X111446494Y-73496744D01*
X111446544Y-72944981D01*
X111446560Y-72361655D01*
X111446560Y-65432011D01*
X111395608Y-65357954D01*
X111347005Y-65291783D01*
X111262023Y-65187462D01*
X111153681Y-65063953D01*
X111022831Y-64922098D01*
X110870323Y-64762741D01*
X110697011Y-64586726D01*
X110503746Y-64394896D01*
X110291380Y-64188095D01*
X110060765Y-63967166D01*
X109812752Y-63732953D01*
X109548194Y-63486300D01*
X109267943Y-63228048D01*
X108972849Y-62959043D01*
X108915615Y-62907175D01*
X108673045Y-62688196D01*
X108420901Y-62461929D01*
X108158329Y-62227636D01*
X107884477Y-61984578D01*
X107598491Y-61732015D01*
X107299518Y-61469210D01*
X106986703Y-61195422D01*
X106659195Y-60909913D01*
X106316139Y-60611944D01*
X105956683Y-60300776D01*
X105579973Y-59975670D01*
X105185155Y-59635886D01*
X104867459Y-59363167D01*
X108245287Y-59363167D01*
X108253371Y-59371251D01*
X108261455Y-59363167D01*
X108253371Y-59355083D01*
X108245287Y-59363167D01*
X104867459Y-59363167D01*
X104771376Y-59280687D01*
X104337783Y-58909332D01*
X103883523Y-58521083D01*
X103407742Y-58115201D01*
X102909587Y-57690947D01*
X102388205Y-57247582D01*
X101842741Y-56784367D01*
X101704343Y-56666895D01*
X101390648Y-56400498D01*
X101101006Y-56154328D01*
X100834929Y-55927967D01*
X100591930Y-55720996D01*
X100371521Y-55532999D01*
X100173216Y-55363557D01*
X99996527Y-55212254D01*
X99840966Y-55078672D01*
X99706048Y-54962392D01*
X99591283Y-54862999D01*
X99496186Y-54780073D01*
X99420269Y-54713198D01*
X99363044Y-54661956D01*
X99324025Y-54625930D01*
X99221851Y-54528922D01*
X99396828Y-54355042D01*
X99571806Y-54181162D01*
X99660393Y-54247995D01*
X99736350Y-54303211D01*
X99848732Y-54380591D01*
X99988313Y-54473215D01*
X100154567Y-54580764D01*
X100346966Y-54702919D01*
X100564985Y-54839361D01*
X100808097Y-54989772D01*
X101075776Y-55153832D01*
X101367494Y-55331222D01*
X101682726Y-55521623D01*
X102020945Y-55724718D01*
X102381624Y-55940185D01*
X102764237Y-56167708D01*
X103168257Y-56406966D01*
X103593159Y-56657641D01*
X104038414Y-56919413D01*
X104503497Y-57191965D01*
X104987882Y-57474977D01*
X105030690Y-57499951D01*
X105188669Y-57592079D01*
X105342122Y-57681503D01*
X105493373Y-57769571D01*
X105644746Y-57857629D01*
X105798564Y-57947024D01*
X105957152Y-58039105D01*
X106122834Y-58135218D01*
X106297934Y-58236710D01*
X106484776Y-58344929D01*
X106685685Y-58461221D01*
X106902983Y-58586934D01*
X107138995Y-58723416D01*
X107396045Y-58872013D01*
X107676458Y-59034072D01*
X107982557Y-59210941D01*
X108053155Y-59251458D01*
X108123466Y-59291179D01*
X108179196Y-59321960D01*
X108215897Y-59341348D01*
X108229119Y-59346889D01*
X108228990Y-59346472D01*
X108214359Y-59331053D01*
X108176157Y-59295649D01*
X108115373Y-59241108D01*
X108032994Y-59168277D01*
X107930006Y-59078003D01*
X107807397Y-58971134D01*
X107666155Y-58848518D01*
X107507265Y-58711002D01*
X107331717Y-58559434D01*
X107140495Y-58394660D01*
X106934589Y-58217529D01*
X106714985Y-58028888D01*
X106482669Y-57829584D01*
X106238631Y-57620465D01*
X105983855Y-57402379D01*
X105719331Y-57176172D01*
X105446044Y-56942693D01*
X105164983Y-56702789D01*
X104877133Y-56457307D01*
X104583483Y-56207095D01*
X104285020Y-55953000D01*
X103982731Y-55695870D01*
X103677602Y-55436553D01*
X103370622Y-55175895D01*
X103366632Y-55172509D01*
X103027660Y-54884722D01*
X102739035Y-54639498D01*
X103481008Y-54639498D01*
X103490831Y-54650036D01*
X103522999Y-54679486D01*
X103575200Y-54725743D01*
X103645050Y-54786738D01*
X103730169Y-54860401D01*
X103828172Y-54944663D01*
X103936679Y-55037452D01*
X104053305Y-55136700D01*
X104571445Y-55576990D01*
X105183986Y-56098608D01*
X105771819Y-56600465D01*
X106335227Y-57082821D01*
X106874495Y-57545935D01*
X107389908Y-57990066D01*
X107881751Y-58415474D01*
X108350309Y-58822416D01*
X108795865Y-59211153D01*
X108969219Y-59363167D01*
X109218706Y-59581942D01*
X109619116Y-59935044D01*
X109997379Y-60270717D01*
X110353780Y-60589219D01*
X110688605Y-60890811D01*
X111002137Y-61175751D01*
X111294661Y-61444298D01*
X111566463Y-61696711D01*
X111817826Y-61933249D01*
X112049037Y-62154172D01*
X112260378Y-62359737D01*
X112452136Y-62550205D01*
X112624595Y-62725833D01*
X112778039Y-62886882D01*
X112912754Y-63033609D01*
X113029024Y-63166275D01*
X113127134Y-63285138D01*
X113207369Y-63390457D01*
X113270013Y-63482492D01*
X113315351Y-63561500D01*
X113354390Y-63638540D01*
X113354390Y-71448244D01*
X113354390Y-79257948D01*
X113536280Y-79255636D01*
X113573335Y-79255022D01*
X113639988Y-79253704D01*
X113730734Y-79251783D01*
X113842604Y-79249330D01*
X113972629Y-79246415D01*
X114117839Y-79243109D01*
X114275265Y-79239483D01*
X114441936Y-79235608D01*
X114614885Y-79231553D01*
X114791140Y-79227390D01*
X114967732Y-79223189D01*
X115141693Y-79219022D01*
X115310052Y-79214958D01*
X115469839Y-79211068D01*
X115618086Y-79207424D01*
X115751823Y-79204095D01*
X115868079Y-79201152D01*
X115963886Y-79198667D01*
X116036274Y-79196709D01*
X116082274Y-79195349D01*
X116098916Y-79194658D01*
X116099135Y-79181798D01*
X116099378Y-79137614D01*
X116099615Y-79062864D01*
X116099847Y-78958484D01*
X116100074Y-78825410D01*
X116100294Y-78664576D01*
X116100508Y-78476919D01*
X116100716Y-78263373D01*
X116100916Y-78024874D01*
X116101108Y-77762357D01*
X116101293Y-77476758D01*
X116101468Y-77169012D01*
X116101635Y-76840054D01*
X116101793Y-76490821D01*
X116101940Y-76122246D01*
X116102078Y-75735266D01*
X116102205Y-75330816D01*
X116102321Y-74909831D01*
X116102425Y-74473247D01*
X116102518Y-74021999D01*
X116102598Y-73557022D01*
X116102666Y-73079253D01*
X116102720Y-72589625D01*
X116102761Y-72089075D01*
X116102788Y-71578538D01*
X116102801Y-71058950D01*
X116102798Y-70531245D01*
X116102639Y-61869214D01*
X115953244Y-61789831D01*
X115936228Y-61780779D01*
X115778758Y-61696181D01*
X115594935Y-61596134D01*
X115386146Y-61481432D01*
X115153778Y-61352870D01*
X114899215Y-61211243D01*
X114623844Y-61057346D01*
X114329051Y-60891974D01*
X114016222Y-60715922D01*
X113686743Y-60529984D01*
X113342001Y-60334956D01*
X112983381Y-60131632D01*
X112612269Y-59920807D01*
X112230052Y-59703277D01*
X111838115Y-59479835D01*
X111437844Y-59251277D01*
X111030626Y-59018398D01*
X110617847Y-58781992D01*
X110200892Y-58542855D01*
X109781148Y-58301781D01*
X109360000Y-58059566D01*
X108938836Y-57817003D01*
X108519040Y-57574889D01*
X108101999Y-57334017D01*
X107689099Y-57095184D01*
X107281726Y-56859182D01*
X106881266Y-56626809D01*
X106489105Y-56398857D01*
X106106629Y-56176123D01*
X105735225Y-55959401D01*
X105376277Y-55749486D01*
X105031173Y-55547173D01*
X104701299Y-55353257D01*
X104388040Y-55168532D01*
X104092782Y-54993794D01*
X103816911Y-54829838D01*
X103755044Y-54793153D01*
X103668206Y-54742293D01*
X103593488Y-54699290D01*
X103534787Y-54666353D01*
X103495995Y-54645686D01*
X103481008Y-54639498D01*
X102739035Y-54639498D01*
X102713215Y-54617561D01*
X102423079Y-54370838D01*
X102157033Y-54144369D01*
X101914859Y-53937965D01*
X101696339Y-53751442D01*
X101501257Y-53584612D01*
X101329392Y-53437289D01*
X101180529Y-53309287D01*
X101054447Y-53200418D01*
X100950931Y-53110498D01*
X100869761Y-53039340D01*
X100810720Y-52986756D01*
X100659857Y-52850623D01*
X100826287Y-52683624D01*
X100844231Y-52665637D01*
X100904362Y-52606031D01*
X100947039Y-52565884D01*
X100976386Y-52542246D01*
X100996522Y-52532164D01*
X101011571Y-52532687D01*
X101025654Y-52540864D01*
X101032631Y-52545956D01*
X101088418Y-52585141D01*
X101166874Y-52638489D01*
X101263985Y-52703387D01*
X101375737Y-52777224D01*
X101498117Y-52857388D01*
X101627109Y-52941268D01*
X101758700Y-53026251D01*
X101888876Y-53109725D01*
X102013623Y-53189080D01*
X102128927Y-53261703D01*
X102230774Y-53324982D01*
X102244777Y-53333600D01*
X102478599Y-53476767D01*
X102738895Y-53634862D01*
X103024095Y-53806958D01*
X103332627Y-53992124D01*
X103662919Y-54189432D01*
X104013399Y-54397953D01*
X104382495Y-54616759D01*
X104768635Y-54844921D01*
X105170248Y-55081509D01*
X105585763Y-55325596D01*
X106013606Y-55576251D01*
X106452206Y-55832547D01*
X106899993Y-56093555D01*
X107355392Y-56358345D01*
X107816834Y-56625989D01*
X107902619Y-56675675D01*
X108314337Y-56913885D01*
X108728431Y-57153060D01*
X109143732Y-57392539D01*
X109559075Y-57631661D01*
X109973292Y-57869765D01*
X110385215Y-58106188D01*
X110793679Y-58340270D01*
X111197516Y-58571349D01*
X111595558Y-58798764D01*
X111986639Y-59021854D01*
X112369592Y-59239958D01*
X112743250Y-59452413D01*
X113106445Y-59658559D01*
X113458010Y-59857735D01*
X113796779Y-60049279D01*
X114121584Y-60232529D01*
X114431258Y-60406825D01*
X114724635Y-60571505D01*
X115000546Y-60725908D01*
X115257826Y-60869373D01*
X115495307Y-61001237D01*
X115711821Y-61120841D01*
X115906202Y-61227521D01*
X116077283Y-61320619D01*
X116223897Y-61399470D01*
X116344877Y-61463416D01*
X116439054Y-61511794D01*
X116587969Y-61586583D01*
X116592026Y-70299893D01*
X116592379Y-71058950D01*
X116596083Y-79013204D01*
X120403658Y-70310075D01*
X124211233Y-61606947D01*
X124219317Y-62390258D01*
X124227401Y-63173569D01*
X124930711Y-61565577D01*
X125634021Y-59957585D01*
X125642105Y-67133211D01*
X125650189Y-74308837D01*
X125751551Y-74224799D01*
X125753482Y-74223194D01*
X125806839Y-74174521D01*
X125854715Y-74120204D01*
X125903398Y-74052312D01*
X125959173Y-73962913D01*
X126089090Y-73756084D01*
X126295356Y-73464467D01*
X126516780Y-73191263D01*
X126750730Y-72939245D01*
X126994576Y-72711184D01*
X127245686Y-72509854D01*
X127501430Y-72338026D01*
X127659224Y-72248083D01*
X127951036Y-72109930D01*
X128253741Y-72000547D01*
X128564765Y-71920060D01*
X128881535Y-71868597D01*
X129201478Y-71846286D01*
X129522019Y-71853254D01*
X129840585Y-71889630D01*
X130154601Y-71955540D01*
X130461496Y-72051113D01*
X130758694Y-72176476D01*
X130822583Y-72208059D01*
X131111826Y-72372724D01*
X131390534Y-72567729D01*
X131658440Y-72792788D01*
X131915275Y-73047621D01*
X132160773Y-73331945D01*
X132394664Y-73645475D01*
X132616682Y-73987931D01*
X132826558Y-74359030D01*
X132842231Y-74388501D01*
X132878193Y-74454674D01*
X132907179Y-74505955D01*
X132926546Y-74537742D01*
X132933650Y-74545435D01*
X132933652Y-74545349D01*
X132935752Y-74525890D01*
X132941498Y-74477613D01*
X132950496Y-74403706D01*
X132962352Y-74307355D01*
X132976673Y-74191750D01*
X132993065Y-74060078D01*
X133011134Y-73915527D01*
X133030487Y-73761285D01*
X133049196Y-73612011D01*
X133154632Y-72753225D01*
X133252675Y-71923487D01*
X133343299Y-71123061D01*
X133426477Y-70352212D01*
X133502184Y-69611203D01*
X133570393Y-68900298D01*
X133631077Y-68219761D01*
X133684211Y-67569856D01*
X133729767Y-66950846D01*
X133767721Y-66362995D01*
X133778389Y-66184211D01*
X133626956Y-66110979D01*
X133587028Y-66091274D01*
X133342014Y-65953501D01*
X133091634Y-65784271D01*
X132836197Y-65583898D01*
X132576007Y-65352699D01*
X132311372Y-65090987D01*
X132042597Y-64799080D01*
X131783265Y-64492963D01*
X135153073Y-64492963D01*
X135165425Y-64539901D01*
X135168178Y-64548372D01*
X135187342Y-64597752D01*
X135201610Y-64615947D01*
X135210515Y-64602780D01*
X135213588Y-64558073D01*
X135212889Y-64532393D01*
X135205088Y-64491827D01*
X135187022Y-64473619D01*
X135175212Y-64469667D01*
X135155867Y-64470987D01*
X135153073Y-64492963D01*
X131783265Y-64492963D01*
X131769990Y-64477293D01*
X131493856Y-64125941D01*
X131214502Y-63745340D01*
X130932234Y-63335805D01*
X130735488Y-63035786D01*
X130448386Y-62575908D01*
X130170531Y-62104436D01*
X129902703Y-61623417D01*
X129645685Y-61134896D01*
X129400257Y-60640921D01*
X129362154Y-60559603D01*
X131672786Y-60559603D01*
X131680870Y-60567687D01*
X131688954Y-60559603D01*
X131680870Y-60551519D01*
X131672786Y-60559603D01*
X129362154Y-60559603D01*
X129167199Y-60143539D01*
X128947293Y-59644796D01*
X128741321Y-59146739D01*
X128550062Y-58651416D01*
X128374298Y-58160873D01*
X128214809Y-57677156D01*
X128072378Y-57202313D01*
X127947784Y-56738390D01*
X127841810Y-56287435D01*
X127755234Y-55851494D01*
X127688840Y-55432614D01*
X127643407Y-55032842D01*
X127619717Y-54654224D01*
X127609630Y-54359157D01*
X127852909Y-54359157D01*
X127878182Y-54359148D01*
X127968953Y-54359443D01*
X128033082Y-54361871D01*
X128075188Y-54368573D01*
X128099894Y-54381688D01*
X128111820Y-54403358D01*
X128115587Y-54435721D01*
X128115816Y-54480919D01*
X128116938Y-54505154D01*
X128123367Y-54565215D01*
X128134227Y-54639781D01*
X128148053Y-54718075D01*
X128198376Y-54936608D01*
X128273415Y-55190449D01*
X128369352Y-55463180D01*
X128485122Y-55752796D01*
X128619657Y-56057295D01*
X128771892Y-56374672D01*
X128940760Y-56702922D01*
X129125196Y-57040043D01*
X129324133Y-57384030D01*
X129536504Y-57732878D01*
X129761245Y-58084585D01*
X129997288Y-58437146D01*
X130243567Y-58788557D01*
X130499016Y-59136815D01*
X130507243Y-59147766D01*
X130641175Y-59323431D01*
X130781919Y-59503524D01*
X130925840Y-59683639D01*
X131069302Y-59859367D01*
X131208670Y-60026301D01*
X131340308Y-60180032D01*
X131460581Y-60316154D01*
X131565852Y-60430258D01*
X131673386Y-60543435D01*
X131622466Y-60454510D01*
X131613289Y-60438469D01*
X131329990Y-59927337D01*
X131057397Y-59404746D01*
X130796848Y-58874002D01*
X130549680Y-58338408D01*
X130317229Y-57801268D01*
X130100833Y-57265888D01*
X129901829Y-56735571D01*
X129721553Y-56213622D01*
X129561344Y-55703344D01*
X129422538Y-55208043D01*
X129306472Y-54731022D01*
X129304311Y-54721337D01*
X129241878Y-54430031D01*
X129189765Y-54160776D01*
X129146858Y-53905640D01*
X129112044Y-53656692D01*
X129084212Y-53406000D01*
X129062247Y-53145631D01*
X129045037Y-52867655D01*
X129035058Y-52677680D01*
X129276326Y-52677680D01*
X129517594Y-52677680D01*
X129528009Y-52819151D01*
X129532905Y-52872847D01*
X129562286Y-53060591D01*
X129611768Y-53270147D01*
X129680409Y-53499617D01*
X129767271Y-53747105D01*
X129871412Y-54010711D01*
X129991893Y-54288538D01*
X130127774Y-54578689D01*
X130278115Y-54879266D01*
X130441976Y-55188370D01*
X130618416Y-55504105D01*
X130806495Y-55824572D01*
X131005274Y-56147874D01*
X131213812Y-56472112D01*
X131431170Y-56795390D01*
X131656406Y-57115809D01*
X131949449Y-57514190D01*
X132257549Y-57912072D01*
X132565432Y-58287358D01*
X132876948Y-58644595D01*
X133195948Y-58988328D01*
X133526282Y-59323101D01*
X133656210Y-59449187D01*
X133955486Y-59725676D01*
X134244391Y-59972377D01*
X134523500Y-60189680D01*
X134793387Y-60377970D01*
X135054630Y-60537635D01*
X135307802Y-60669063D01*
X135553479Y-60772642D01*
X135792237Y-60848757D01*
X135931417Y-60885704D01*
X138826828Y-69736339D01*
X138976146Y-70192767D01*
X139144210Y-70706488D01*
X139309540Y-71211843D01*
X139471855Y-71707969D01*
X139630873Y-72194008D01*
X139786311Y-72669099D01*
X139937890Y-73132381D01*
X140085327Y-73582994D01*
X140228341Y-74020079D01*
X140366650Y-74442775D01*
X140499973Y-74850221D01*
X140628029Y-75241558D01*
X140750535Y-75615925D01*
X140867210Y-75972461D01*
X140977773Y-76310308D01*
X141081942Y-76628604D01*
X141179436Y-76926489D01*
X141269973Y-77203104D01*
X141353272Y-77457587D01*
X141429051Y-77689079D01*
X141497028Y-77896719D01*
X141556923Y-78079647D01*
X141608453Y-78237003D01*
X141651338Y-78367926D01*
X141685295Y-78471558D01*
X141710043Y-78547036D01*
X141725300Y-78593501D01*
X141730786Y-78610093D01*
X141738004Y-78620218D01*
X141763050Y-78624111D01*
X141764957Y-78620697D01*
X141774855Y-78595058D01*
X143170824Y-78595058D01*
X143537368Y-78592322D01*
X143597778Y-78591822D01*
X143762129Y-78590015D01*
X143933392Y-78587556D01*
X144108548Y-78584531D01*
X144284580Y-78581026D01*
X144458467Y-78577127D01*
X144627191Y-78572919D01*
X144787733Y-78568489D01*
X144937075Y-78563922D01*
X145072197Y-78559305D01*
X145190081Y-78554723D01*
X145287707Y-78550263D01*
X145362057Y-78546010D01*
X145410112Y-78542050D01*
X145428853Y-78538470D01*
X145429429Y-78537780D01*
X145442275Y-78515126D01*
X145464646Y-78469577D01*
X145493555Y-78407392D01*
X145526016Y-78334829D01*
X145696535Y-77956719D01*
X145868630Y-77594799D01*
X146041046Y-77251393D01*
X146212835Y-76928125D01*
X146383052Y-76626619D01*
X146550748Y-76348501D01*
X146714977Y-76095396D01*
X146874791Y-75868927D01*
X147029242Y-75670720D01*
X147177384Y-75502400D01*
X147208615Y-75469278D01*
X147253455Y-75420422D01*
X147258715Y-75414017D01*
X147573070Y-75414017D01*
X147576078Y-75432154D01*
X147584795Y-75480687D01*
X147598978Y-75558316D01*
X147618387Y-75663745D01*
X147642778Y-75795675D01*
X147671909Y-75952808D01*
X147705540Y-76133847D01*
X147743427Y-76337494D01*
X147785329Y-76562450D01*
X147831004Y-76807419D01*
X147880210Y-77071101D01*
X147932705Y-77352200D01*
X147988247Y-77649417D01*
X148046594Y-77961455D01*
X148107503Y-78287016D01*
X148170734Y-78624801D01*
X148173574Y-78639966D01*
X148236043Y-78973513D01*
X148303190Y-79331854D01*
X148371931Y-79698527D01*
X148440549Y-80064138D01*
X148508556Y-80425862D01*
X148561600Y-80707503D01*
X148574761Y-80777379D01*
X148636892Y-81106662D01*
X148638922Y-81117419D01*
X148700795Y-81444714D01*
X148760138Y-81757994D01*
X148816709Y-82055989D01*
X148870263Y-82337429D01*
X148920558Y-82601047D01*
X148967351Y-82845571D01*
X149010399Y-83069733D01*
X149049460Y-83272263D01*
X149084290Y-83451891D01*
X149114646Y-83607349D01*
X149140286Y-83737367D01*
X149160966Y-83840674D01*
X149176443Y-83916003D01*
X149186476Y-83962083D01*
X149190819Y-83977645D01*
X149191567Y-83977561D01*
X149214806Y-83973722D01*
X149265767Y-83964735D01*
X149341143Y-83951210D01*
X149437626Y-83933755D01*
X149551908Y-83912978D01*
X149680682Y-83889487D01*
X149820641Y-83863890D01*
X149968478Y-83836796D01*
X150120884Y-83808813D01*
X150274553Y-83780549D01*
X150426178Y-83752613D01*
X150572450Y-83725612D01*
X150710063Y-83700155D01*
X150835708Y-83676851D01*
X150946079Y-83656307D01*
X151037869Y-83639132D01*
X151107769Y-83625934D01*
X151152473Y-83617321D01*
X151168673Y-83613902D01*
X151168363Y-83608592D01*
X151163895Y-83575669D01*
X151154761Y-83514917D01*
X151141380Y-83428942D01*
X151124168Y-83320350D01*
X151103541Y-83191748D01*
X151079917Y-83045742D01*
X151070523Y-82988095D01*
X151547744Y-82988095D01*
X151593786Y-83251567D01*
X151605074Y-83315352D01*
X151619728Y-83395620D01*
X151632059Y-83460219D01*
X151641026Y-83503748D01*
X151645592Y-83520803D01*
X151646124Y-83521103D01*
X151666621Y-83520494D01*
X151709462Y-83514703D01*
X151766233Y-83504845D01*
X151772535Y-83503637D01*
X151845583Y-83485495D01*
X151901793Y-83460411D01*
X151955619Y-83422069D01*
X151989861Y-83395241D01*
X152021696Y-83373292D01*
X152036400Y-83367287D01*
X152040924Y-83376603D01*
X152055610Y-83411879D01*
X152078250Y-83468521D01*
X152106805Y-83541406D01*
X152134791Y-83613902D01*
X152139234Y-83625411D01*
X152205677Y-83792996D01*
X152336669Y-84091321D01*
X152472111Y-84358249D01*
X152612384Y-84594247D01*
X152757866Y-84799779D01*
X152908937Y-84975311D01*
X153065978Y-85121307D01*
X153229367Y-85238234D01*
X153399485Y-85326556D01*
X153576712Y-85386739D01*
X153608290Y-85393926D01*
X153693430Y-85407056D01*
X153787116Y-85414681D01*
X153882592Y-85416939D01*
X153973099Y-85413968D01*
X154051881Y-85405906D01*
X154112181Y-85392892D01*
X154147241Y-85375065D01*
X154153368Y-85365947D01*
X154171288Y-85327887D01*
X154196252Y-85266409D01*
X154226505Y-85186330D01*
X154260294Y-85092467D01*
X154295864Y-84989636D01*
X154331460Y-84882653D01*
X154365329Y-84776335D01*
X154445426Y-84500623D01*
X154522949Y-84198129D01*
X154594304Y-83883129D01*
X154657235Y-83565593D01*
X154709485Y-83255497D01*
X154739650Y-83057438D01*
X154665320Y-83057249D01*
X154661579Y-83057223D01*
X154625840Y-83056672D01*
X154561403Y-83055453D01*
X154471236Y-83053632D01*
X154358311Y-83051270D01*
X154225595Y-83048432D01*
X154076061Y-83045181D01*
X153912676Y-83041581D01*
X153738411Y-83037694D01*
X153556236Y-83033584D01*
X153399113Y-83030019D01*
X153197546Y-83025448D01*
X152995450Y-83020866D01*
X152797518Y-83016379D01*
X152608445Y-83012094D01*
X152432924Y-83008118D01*
X152275649Y-83004556D01*
X152141314Y-83001515D01*
X152034612Y-82999101D01*
X151547744Y-82988095D01*
X151070523Y-82988095D01*
X151053712Y-82884939D01*
X151025344Y-82711944D01*
X150995229Y-82529364D01*
X150985894Y-82472904D01*
X150876868Y-81809206D01*
X150772819Y-81167445D01*
X150672702Y-80540858D01*
X150575468Y-79922683D01*
X150480071Y-79306160D01*
X150385465Y-78684526D01*
X150290602Y-78051020D01*
X150245887Y-77747796D01*
X150722645Y-77747796D01*
X150773241Y-78086545D01*
X150823836Y-78425293D01*
X150985517Y-78427300D01*
X151002602Y-78427395D01*
X151062881Y-78427053D01*
X151150196Y-78425995D01*
X151260879Y-78424285D01*
X151391262Y-78421991D01*
X151537678Y-78419179D01*
X151696457Y-78415916D01*
X151863934Y-78412266D01*
X152036440Y-78408298D01*
X152193342Y-78404594D01*
X152405627Y-78399588D01*
X152628509Y-78394338D01*
X152854835Y-78389013D01*
X153077450Y-78383780D01*
X153289201Y-78378808D01*
X153482933Y-78374265D01*
X153651491Y-78370319D01*
X153768709Y-78367476D01*
X153911176Y-78363730D01*
X154040976Y-78359994D01*
X154154834Y-78356378D01*
X154249471Y-78352996D01*
X154321611Y-78349958D01*
X154367976Y-78347375D01*
X154385290Y-78345359D01*
X154385875Y-78342636D01*
X154380685Y-78315936D01*
X154366191Y-78265295D01*
X154344050Y-78195465D01*
X154315920Y-78111197D01*
X154283459Y-78017240D01*
X154248323Y-77918344D01*
X154212170Y-77819261D01*
X154176658Y-77724740D01*
X154143445Y-77639532D01*
X154114187Y-77568387D01*
X154112645Y-77564782D01*
X153980232Y-77277920D01*
X153840015Y-77016986D01*
X153692699Y-76782772D01*
X153538992Y-76576070D01*
X153379601Y-76397672D01*
X153215232Y-76248370D01*
X153046593Y-76128957D01*
X152874389Y-76040224D01*
X152699329Y-75982963D01*
X152694483Y-75981859D01*
X152621795Y-75970018D01*
X152533476Y-75961992D01*
X152439046Y-75957991D01*
X152348025Y-75958228D01*
X152269933Y-75962910D01*
X152214288Y-75972249D01*
X152211339Y-75973114D01*
X152189523Y-75982605D01*
X152171099Y-75999917D01*
X152152559Y-76030730D01*
X152130399Y-76080723D01*
X152101112Y-76155574D01*
X152036440Y-76325096D01*
X151866675Y-76288378D01*
X151812267Y-76276890D01*
X151746125Y-76263742D01*
X151695658Y-76254672D01*
X151668808Y-76251175D01*
X151667833Y-76251206D01*
X151641933Y-76264111D01*
X151600336Y-76297306D01*
X151547501Y-76346292D01*
X151487890Y-76406570D01*
X151425961Y-76473638D01*
X151366175Y-76542999D01*
X151312992Y-76610153D01*
X151308654Y-76615955D01*
X151170910Y-76817994D01*
X151037321Y-77048202D01*
X150910039Y-77302595D01*
X150791211Y-77577189D01*
X150722645Y-77747796D01*
X150245887Y-77747796D01*
X150194434Y-77398881D01*
X150095916Y-76721345D01*
X150087318Y-76661911D01*
X150064542Y-76505270D01*
X150043203Y-76359642D01*
X150023750Y-76228026D01*
X150006633Y-76113422D01*
X149992302Y-76018829D01*
X149981207Y-75947247D01*
X149973798Y-75901676D01*
X149970523Y-75885115D01*
X149959754Y-75881591D01*
X149920341Y-75871857D01*
X149855435Y-75856976D01*
X149768540Y-75837682D01*
X149663157Y-75814709D01*
X149542790Y-75788790D01*
X149410941Y-75760661D01*
X149271114Y-75731054D01*
X149126811Y-75700703D01*
X148981534Y-75670342D01*
X148838787Y-75640705D01*
X148702072Y-75612526D01*
X148574892Y-75586538D01*
X148460749Y-75563476D01*
X148363148Y-75544073D01*
X148285589Y-75529063D01*
X148231576Y-75519180D01*
X148204613Y-75515157D01*
X148179160Y-75512591D01*
X148118944Y-75504421D01*
X148039166Y-75492113D01*
X147947180Y-75476819D01*
X147850338Y-75459689D01*
X147776884Y-75446465D01*
X147696543Y-75432462D01*
X147632310Y-75421795D01*
X147589414Y-75415327D01*
X147573079Y-75413920D01*
X147573070Y-75414017D01*
X147258715Y-75414017D01*
X147279630Y-75388547D01*
X147289731Y-75369598D01*
X147286355Y-75359515D01*
X147272095Y-75354241D01*
X147270906Y-75353989D01*
X147244990Y-75349048D01*
X147190144Y-75338893D01*
X147108901Y-75323985D01*
X147003794Y-75304784D01*
X146877355Y-75281753D01*
X146732118Y-75255352D01*
X146570616Y-75226041D01*
X146395380Y-75194282D01*
X146208945Y-75160535D01*
X146013842Y-75125262D01*
X145981418Y-75119400D01*
X145788393Y-75084370D01*
X145605001Y-75050865D01*
X145433707Y-75019348D01*
X145276979Y-74990283D01*
X145137282Y-74964133D01*
X145017083Y-74941363D01*
X144918848Y-74922437D01*
X144845045Y-74907817D01*
X144798138Y-74897968D01*
X144780596Y-74893354D01*
X144779087Y-74889760D01*
X144777001Y-74860280D01*
X144777854Y-74806909D01*
X144781467Y-74735737D01*
X144787662Y-74652855D01*
X144807288Y-74423702D01*
X147291217Y-74423702D01*
X149775146Y-74423702D01*
X149745579Y-74209475D01*
X149717255Y-74003051D01*
X149647427Y-73484117D01*
X149577559Y-72951091D01*
X149508027Y-72407260D01*
X149439205Y-71855908D01*
X149371467Y-71300324D01*
X149305189Y-70743792D01*
X149240745Y-70189598D01*
X149178510Y-69641030D01*
X149118859Y-69101373D01*
X149062166Y-68573913D01*
X149008806Y-68061936D01*
X148959154Y-67568729D01*
X148913585Y-67097578D01*
X148872473Y-66651768D01*
X148836193Y-66234587D01*
X148833085Y-66197408D01*
X148818600Y-66019901D01*
X148803949Y-65833919D01*
X148789361Y-65642855D01*
X148775067Y-65450100D01*
X148761299Y-65259048D01*
X148748286Y-65073090D01*
X148736259Y-64895618D01*
X148725450Y-64730025D01*
X148716089Y-64579702D01*
X148708407Y-64448042D01*
X148702633Y-64338436D01*
X148699000Y-64254278D01*
X148697738Y-64198959D01*
X148697738Y-64198929D01*
X148698982Y-64173432D01*
X148706804Y-64155814D01*
X148727343Y-64141917D01*
X148766737Y-64127588D01*
X148831124Y-64108672D01*
X148835516Y-64107410D01*
X149004954Y-64050390D01*
X149172755Y-63976948D01*
X149341365Y-63885375D01*
X149513234Y-63773965D01*
X149690808Y-63641006D01*
X149876535Y-63484793D01*
X150072863Y-63303614D01*
X150282239Y-63095764D01*
X150401668Y-62971120D01*
X150613741Y-62737339D01*
X150825376Y-62487587D01*
X151038843Y-62218972D01*
X151256410Y-61928597D01*
X151480346Y-61613570D01*
X151712921Y-61270997D01*
X152033626Y-60771503D01*
X152357553Y-60231013D01*
X152671423Y-59670796D01*
X152973061Y-59095450D01*
X153260291Y-58509576D01*
X153530937Y-57917772D01*
X153782821Y-57324638D01*
X154013769Y-56734773D01*
X154221604Y-56152775D01*
X154404149Y-55583246D01*
X154426439Y-55508440D01*
X154450112Y-55426996D01*
X154468865Y-55360194D01*
X154481181Y-55313461D01*
X154485542Y-55292221D01*
X154480395Y-55292180D01*
X154463697Y-55313749D01*
X154439502Y-55353492D01*
X154414069Y-55398416D01*
X154155002Y-55846520D01*
X153900797Y-56268063D01*
X153648512Y-56667373D01*
X153395207Y-57048776D01*
X153137938Y-57416602D01*
X152873765Y-57775178D01*
X152599744Y-58128832D01*
X152312935Y-58481891D01*
X152258106Y-58547619D01*
X151910993Y-58950168D01*
X151569215Y-59322929D01*
X151232997Y-59665712D01*
X150902565Y-59978330D01*
X150578144Y-60260593D01*
X150259959Y-60512313D01*
X149948236Y-60733302D01*
X149643200Y-60923369D01*
X149345077Y-61082328D01*
X149054092Y-61209989D01*
X149047998Y-61212364D01*
X148977428Y-61239971D01*
X148919444Y-61262841D01*
X148879899Y-61278652D01*
X148864647Y-61285085D01*
X148860967Y-61295961D01*
X148847541Y-61336439D01*
X148824559Y-61405998D01*
X148792315Y-61503749D01*
X148751103Y-61628800D01*
X148701214Y-61780261D01*
X148642941Y-61957242D01*
X148576578Y-62158852D01*
X148502418Y-62384200D01*
X148420753Y-62632396D01*
X148331875Y-62902550D01*
X148236079Y-63193770D01*
X148133657Y-63505166D01*
X148024902Y-63835849D01*
X147910106Y-64184926D01*
X147789562Y-64551508D01*
X147663565Y-64934704D01*
X147532405Y-65333624D01*
X147396377Y-65747377D01*
X147255772Y-66175072D01*
X147110885Y-66615820D01*
X146962007Y-67068728D01*
X146809432Y-67532908D01*
X146653453Y-68007468D01*
X146494362Y-68491518D01*
X146332453Y-68984167D01*
X146168017Y-69484524D01*
X146056064Y-69825191D01*
X145891656Y-70325456D01*
X145729470Y-70818939D01*
X145569823Y-71304682D01*
X145413029Y-71781728D01*
X145259402Y-72249119D01*
X145109257Y-72705898D01*
X144962910Y-73151107D01*
X144820675Y-73583789D01*
X144682867Y-74002985D01*
X144549800Y-74407740D01*
X144421790Y-74797094D01*
X144299152Y-75170091D01*
X144182200Y-75525774D01*
X144071249Y-75863183D01*
X143966614Y-76181363D01*
X143868610Y-76479355D01*
X143777552Y-76756202D01*
X143693754Y-77010947D01*
X143617532Y-77242631D01*
X143549200Y-77450299D01*
X143489073Y-77632990D01*
X143437466Y-77789750D01*
X143394693Y-77919619D01*
X143361071Y-78021640D01*
X143336912Y-78094857D01*
X143322534Y-78138311D01*
X143170824Y-78595058D01*
X141774855Y-78595058D01*
X141776438Y-78590959D01*
X141797807Y-78530923D01*
X141828962Y-78440896D01*
X141869802Y-78321182D01*
X141920225Y-78172089D01*
X141980131Y-77993920D01*
X142049418Y-77786983D01*
X142127984Y-77551583D01*
X142215729Y-77288026D01*
X142312550Y-76996616D01*
X142418347Y-76677661D01*
X142533018Y-76331465D01*
X142656461Y-75958335D01*
X142788576Y-75558576D01*
X142929261Y-75132493D01*
X143078415Y-74680393D01*
X143235936Y-74202582D01*
X143401723Y-73699364D01*
X143575674Y-73171046D01*
X143757688Y-72617934D01*
X143947665Y-72040332D01*
X144145502Y-71438548D01*
X144267833Y-71066357D01*
X144423197Y-70593666D01*
X144576843Y-70126213D01*
X144728404Y-69665105D01*
X144877517Y-69211450D01*
X145023818Y-68766357D01*
X145166942Y-68330934D01*
X145306525Y-67906287D01*
X145442204Y-67493525D01*
X145573613Y-67093757D01*
X145700389Y-66708089D01*
X145822168Y-66337630D01*
X145938584Y-65983488D01*
X146049275Y-65646771D01*
X146153876Y-65328586D01*
X146252022Y-65030041D01*
X146343350Y-64752245D01*
X146427495Y-64496305D01*
X146504093Y-64263329D01*
X146572780Y-64054425D01*
X146633191Y-63870701D01*
X146684963Y-63713265D01*
X146727732Y-63583225D01*
X146761132Y-63481689D01*
X146784800Y-63409764D01*
X147065362Y-62557442D01*
X147133778Y-62540500D01*
X147144810Y-62537737D01*
X147348697Y-62476624D01*
X147562735Y-62395098D01*
X147776910Y-62297329D01*
X147981213Y-62187488D01*
X148092362Y-62122573D01*
X148293725Y-61504858D01*
X148309588Y-61456333D01*
X148353100Y-61324699D01*
X148393641Y-61204129D01*
X148430061Y-61097909D01*
X148461211Y-61009329D01*
X148485939Y-60941676D01*
X148503096Y-60898239D01*
X148511530Y-60882306D01*
X148521492Y-60879468D01*
X148558467Y-60869100D01*
X148614368Y-60853509D01*
X148681570Y-60834823D01*
X148912179Y-60757852D01*
X149159053Y-60649339D01*
X149416586Y-60510951D01*
X149684445Y-60342898D01*
X149962294Y-60145389D01*
X150249799Y-59918636D01*
X150546627Y-59662848D01*
X150649458Y-59569256D01*
X150833413Y-59393174D01*
X150992619Y-59227768D01*
X151129706Y-59070237D01*
X151247308Y-58917785D01*
X151403163Y-58698902D01*
X151677492Y-58299777D01*
X151936586Y-57904493D01*
X152179402Y-57514954D01*
X152404898Y-57133060D01*
X152612031Y-56760715D01*
X152799757Y-56399821D01*
X152967033Y-56052280D01*
X153112817Y-55719994D01*
X153236066Y-55404865D01*
X153335736Y-55108797D01*
X153366664Y-55002147D01*
X153399169Y-54876679D01*
X153426885Y-54755151D01*
X153448412Y-54644235D01*
X153462354Y-54550600D01*
X153467312Y-54480919D01*
X153467292Y-54469164D01*
X153467930Y-54427142D01*
X153473178Y-54397455D01*
X153487657Y-54377963D01*
X153515987Y-54366527D01*
X153562788Y-54361006D01*
X153632681Y-54359263D01*
X153730286Y-54359157D01*
X153973632Y-54359157D01*
X153962072Y-54670392D01*
X153958357Y-54757041D01*
X153952154Y-54871739D01*
X153944909Y-54981864D01*
X153937244Y-55078165D01*
X153929779Y-55151391D01*
X153923293Y-55206155D01*
X153916691Y-55266673D01*
X153912795Y-55308783D01*
X153912289Y-55325650D01*
X153913379Y-55325219D01*
X153925797Y-55306416D01*
X153950052Y-55263620D01*
X153984141Y-55200693D01*
X154026061Y-55121494D01*
X154073809Y-55029886D01*
X154125381Y-54929730D01*
X154178775Y-54824885D01*
X154231986Y-54719215D01*
X154283012Y-54616578D01*
X154329850Y-54520838D01*
X154404605Y-54362960D01*
X154520902Y-54101181D01*
X154623636Y-53848440D01*
X154711859Y-53607561D01*
X154784624Y-53381368D01*
X154840983Y-53172686D01*
X154879989Y-52984339D01*
X154900695Y-52819151D01*
X154911110Y-52677680D01*
X155151992Y-52677680D01*
X155392874Y-52677680D01*
X155382751Y-52883823D01*
X155376319Y-53000156D01*
X155340661Y-53425316D01*
X155285245Y-53858190D01*
X155209553Y-54301300D01*
X155113063Y-54757170D01*
X154995255Y-55228322D01*
X154977006Y-55292221D01*
X154855610Y-55717280D01*
G37*
%TD*%
M02*
