%TF.GenerationSoftware,KiCad,Pcbnew,9.0.0*%
%TF.CreationDate,2025-03-08T11:07:18+01:00*%
%TF.ProjectId,DeMoN-Flash-J,44654d6f-4e2d-4466-9c61-73682d4a2e6b,rev?*%
%TF.SameCoordinates,Original*%
%TF.FileFunction,Copper,L2,Bot*%
%TF.FilePolarity,Positive*%
%FSLAX45Y45*%
G04 Gerber Fmt 4.5, Leading zero omitted, Abs format (unit mm)*
G04 Created by KiCad (PCBNEW 9.0.0) date 2025-03-08 11:07:18*
%MOMM*%
%LPD*%
G01*
G04 APERTURE LIST*
%TA.AperFunction,ComponentPad*%
%ADD10R,1.500000X1.500000*%
%TD*%
%TA.AperFunction,ComponentPad*%
%ADD11C,1.600000*%
%TD*%
%TA.AperFunction,ComponentPad*%
%ADD12C,1.500000*%
%TD*%
%TA.AperFunction,ComponentPad*%
%ADD13R,1.600000X1.600000*%
%TD*%
%TA.AperFunction,ComponentPad*%
%ADD14R,1.800000X1.800000*%
%TD*%
%TA.AperFunction,ComponentPad*%
%ADD15C,1.800000*%
%TD*%
%TA.AperFunction,ComponentPad*%
%ADD16R,1.700000X1.700000*%
%TD*%
%TA.AperFunction,ComponentPad*%
%ADD17O,1.700000X1.700000*%
%TD*%
%TA.AperFunction,ComponentPad*%
%ADD18C,1.635000*%
%TD*%
%TA.AperFunction,ComponentPad*%
%ADD19C,4.575000*%
%TD*%
%TA.AperFunction,ViaPad*%
%ADD20C,0.600000*%
%TD*%
%TA.AperFunction,Conductor*%
%ADD21C,0.200000*%
%TD*%
%TA.AperFunction,Conductor*%
%ADD22C,0.400000*%
%TD*%
G04 APERTURE END LIST*
D10*
%TO.P,SW2,1,B*%
%TO.N,Net-(D1-K)*%
X18850000Y-10169000D03*
D11*
%TO.P,SW2,2,C*%
%TO.N,GND*%
X18850000Y-10423000D03*
%TO.P,SW2,3,A*%
%TO.N,Net-(D1-K)*%
X18850000Y-9915000D03*
%TD*%
D10*
%TO.P,Q2,1,D*%
%TO.N,Net-(JP3-C)*%
X8890000Y-6920000D03*
D12*
%TO.P,Q2,2,G*%
%TO.N,Net-(Q1-G)*%
X8890000Y-7174000D03*
%TO.P,Q2,3,S*%
%TO.N,+5V*%
X8890000Y-7428000D03*
%TD*%
D13*
%TO.P,C1,1*%
%TO.N,Net-(U11-DIS)*%
X9400000Y-12694489D03*
D11*
%TO.P,C1,2*%
%TO.N,GND*%
X9400000Y-12944489D03*
%TD*%
D14*
%TO.P,D2,1,K*%
%TO.N,GND*%
X9445000Y-9922500D03*
D15*
%TO.P,D2,2,A*%
%TO.N,Net-(D2-A)*%
X9445000Y-10176500D03*
%TD*%
D10*
%TO.P,Q1,1,D*%
%TO.N,Net-(JP3-C)*%
X9260000Y-6920000D03*
D12*
%TO.P,Q1,2,G*%
%TO.N,Net-(Q1-G)*%
X9260000Y-7174000D03*
%TO.P,Q1,3,S*%
%TO.N,+5V*%
X9260000Y-7428000D03*
%TD*%
D16*
%TO.P,JP1,1,A*%
%TO.N,Net-(JP1-A)*%
X8912840Y-8134220D03*
D17*
%TO.P,JP1,2,C*%
%TO.N,Net-(JP1-C)*%
X9166840Y-8134220D03*
%TO.P,JP1,3,B*%
%TO.N,Net-(JP1-B)*%
X9420840Y-8134220D03*
%TD*%
D14*
%TO.P,SW1,1,1*%
%TO.N,Net-(U3-I6)*%
X9167750Y-11537750D03*
D15*
%TO.P,SW1,2,2*%
%TO.N,GND*%
X9667750Y-11537750D03*
%TO.P,SW1,3,3*%
%TO.N,Net-(U3-I6)*%
X9167750Y-12037750D03*
%TO.P,SW1,4,4*%
%TO.N,GND*%
X9667750Y-12037750D03*
%TD*%
D18*
%TO.P,CN1,1,1*%
%TO.N,GND*%
X8806000Y-4420000D03*
%TO.P,CN1,2,2*%
X8806000Y-3912000D03*
%TO.P,CN1,3,3*%
X9060000Y-4420000D03*
%TO.P,CN1,4,4*%
X9060000Y-3912000D03*
%TO.P,CN1,5,5*%
%TO.N,unconnected-(CN1-Pad5)*%
X9314000Y-4420000D03*
%TO.P,CN1,6,6*%
%TO.N,+5V*%
X9314000Y-3912000D03*
%TO.P,CN1,7,7*%
%TO.N,unconnected-(CN1-Pad7)*%
X9568000Y-4420000D03*
%TO.P,CN1,8,8*%
%TO.N,unconnected-(CN1-Pad8)*%
X9568000Y-3912000D03*
%TO.P,CN1,9,9*%
%TO.N,unconnected-(CN1-Pad9)*%
X9822000Y-4420000D03*
%TO.P,CN1,10,10*%
%TO.N,unconnected-(CN1-Pad10)*%
X9822000Y-3912000D03*
%TO.P,CN1,11,11*%
%TO.N,unconnected-(CN1-Pad11)*%
X10076000Y-4420000D03*
%TO.P,CN1,12,12*%
%TO.N,unconnected-(CN1-Pad12)*%
X10076000Y-3912000D03*
%TO.P,CN1,13,13*%
%TO.N,unconnected-(CN1-Pad13)*%
X10330000Y-4420000D03*
%TO.P,CN1,14,14*%
%TO.N,unconnected-(CN1-Pad14)*%
X10330000Y-3912000D03*
%TO.P,CN1,15,15*%
%TO.N,unconnected-(CN1-Pad15)*%
X10584000Y-4420000D03*
%TO.P,CN1,16,16*%
%TO.N,unconnected-(CN1-Pad16)*%
X10584000Y-3912000D03*
%TO.P,CN1,17,17*%
%TO.N,unconnected-(CN1-Pad17)*%
X10838000Y-4420000D03*
%TO.P,CN1,18,18*%
%TO.N,unconnected-(CN1-Pad18)*%
X10838000Y-3912000D03*
%TO.P,CN1,19,19*%
%TO.N,unconnected-(CN1-Pad19)*%
X11092000Y-4420000D03*
%TO.P,CN1,20,20*%
%TO.N,unconnected-(CN1-Pad20)*%
X11092000Y-3912000D03*
%TO.P,CN1,21,21*%
%TO.N,/A5*%
X11346000Y-4420000D03*
%TO.P,CN1,22,22*%
%TO.N,unconnected-(CN1-Pad22)*%
X11346000Y-3912000D03*
%TO.P,CN1,23,23*%
%TO.N,/A6*%
X11600000Y-4420000D03*
%TO.P,CN1,24,24*%
%TO.N,/A4*%
X11600000Y-3912000D03*
%TO.P,CN1,25,25*%
%TO.N,unconnected-(CN1-Pad25)*%
X11854000Y-4420000D03*
%TO.P,CN1,26,26*%
%TO.N,/A3*%
X11854000Y-3912000D03*
%TO.P,CN1,27,27*%
%TO.N,/A2*%
X12108000Y-4420000D03*
%TO.P,CN1,28,28*%
%TO.N,/A7*%
X12108000Y-3912000D03*
%TO.P,CN1,29,29*%
%TO.N,/A1*%
X12362000Y-4420000D03*
%TO.P,CN1,30,30*%
%TO.N,/A8*%
X12362000Y-3912000D03*
%TO.P,CN1,31,31*%
%TO.N,/~{FC0}*%
X12616000Y-4420000D03*
%TO.P,CN1,32,32*%
%TO.N,/A9*%
X12616000Y-3912000D03*
%TO.P,CN1,33,33*%
%TO.N,/~{FC1}*%
X12870000Y-4420000D03*
%TO.P,CN1,34,34*%
%TO.N,/A10*%
X12870000Y-3912000D03*
%TO.P,CN1,35,35*%
%TO.N,unconnected-(CN1-Pad35)*%
X13124000Y-4420000D03*
%TO.P,CN1,36,36*%
%TO.N,/A11*%
X13124000Y-3912000D03*
%TO.P,CN1,37,37*%
%TO.N,unconnected-(CN1-Pad37)*%
X13378000Y-4420000D03*
%TO.P,CN1,38,38*%
%TO.N,/A12*%
X13378000Y-3912000D03*
%TO.P,CN1,39,39*%
%TO.N,/A13*%
X13632000Y-4420000D03*
%TO.P,CN1,40,40*%
%TO.N,/~{IPL0}*%
X13632000Y-3912000D03*
%TO.P,CN1,41,41*%
%TO.N,/A14*%
X13886000Y-4420000D03*
%TO.P,CN1,42,42*%
%TO.N,/~{IPL1}*%
X13886000Y-3912000D03*
%TO.P,CN1,43,43*%
%TO.N,/A15*%
X14140000Y-4420000D03*
%TO.P,CN1,44,44*%
%TO.N,/~{IPL2}*%
X14140000Y-3912000D03*
%TO.P,CN1,45,45*%
%TO.N,/A16*%
X14394000Y-4420000D03*
%TO.P,CN1,46,46*%
%TO.N,unconnected-(CN1-Pad46)*%
X14394000Y-3912000D03*
%TO.P,CN1,47,47*%
%TO.N,/A17*%
X14648000Y-4420000D03*
%TO.P,CN1,48,48*%
%TO.N,unconnected-(CN1-Pad48)*%
X14648000Y-3912000D03*
%TO.P,CN1,49,49*%
%TO.N,unconnected-(CN1-Pad49)*%
X14902000Y-4420000D03*
%TO.P,CN1,50,50*%
%TO.N,unconnected-(CN1-Pad50)*%
X14902000Y-3912000D03*
%TO.P,CN1,51,51*%
%TO.N,unconnected-(CN1-Pad51)*%
X15156000Y-4420000D03*
%TO.P,CN1,52,52*%
%TO.N,/A18*%
X15156000Y-3912000D03*
%TO.P,CN1,53,53*%
%TO.N,/~{RST}*%
X15410000Y-4420000D03*
%TO.P,CN1,54,54*%
%TO.N,/A19*%
X15410000Y-3912000D03*
%TO.P,CN1,55,55*%
%TO.N,/~{HLT}*%
X15664000Y-4420000D03*
%TO.P,CN1,56,56*%
%TO.N,/A20*%
X15664000Y-3912000D03*
%TO.P,CN1,57,57*%
%TO.N,/A22*%
X15918000Y-4420000D03*
%TO.P,CN1,58,58*%
%TO.N,/A21*%
X15918000Y-3912000D03*
%TO.P,CN1,59,59*%
%TO.N,/A23*%
X16172000Y-4420000D03*
%TO.P,CN1,60,60*%
%TO.N,unconnected-(CN1-Pad60)*%
X16172000Y-3912000D03*
%TO.P,CN1,61,61*%
%TO.N,unconnected-(CN1-Pad61)*%
X16426000Y-4420000D03*
%TO.P,CN1,62,62*%
%TO.N,unconnected-(CN1-Pad62)*%
X16426000Y-3912000D03*
%TO.P,CN1,63,63*%
%TO.N,/D15*%
X16680000Y-4420000D03*
%TO.P,CN1,64,64*%
%TO.N,unconnected-(CN1-Pad64)*%
X16680000Y-3912000D03*
%TO.P,CN1,65,65*%
%TO.N,/D14*%
X16934000Y-4420000D03*
%TO.P,CN1,66,66*%
%TO.N,unconnected-(CN1-Pad66)*%
X16934000Y-3912000D03*
%TO.P,CN1,67,67*%
%TO.N,/D13*%
X17188000Y-4420000D03*
%TO.P,CN1,68,68*%
%TO.N,/R_W*%
X17188000Y-3912000D03*
%TO.P,CN1,69,69*%
%TO.N,/D12*%
X17442000Y-4420000D03*
%TO.P,CN1,70,70*%
%TO.N,/~{LDS}*%
X17442000Y-3912000D03*
%TO.P,CN1,71,71*%
%TO.N,/D11*%
X17696000Y-4420000D03*
%TO.P,CN1,72,72*%
%TO.N,/~{UDS}*%
X17696000Y-3912000D03*
%TO.P,CN1,73,73*%
%TO.N,GND*%
X17950000Y-4420000D03*
%TO.P,CN1,74,74*%
%TO.N,/~{AS}*%
X17950000Y-3912000D03*
%TO.P,CN1,75,75*%
%TO.N,/D0*%
X18204000Y-4420000D03*
%TO.P,CN1,76,76*%
%TO.N,/D10*%
X18204000Y-3912000D03*
%TO.P,CN1,77,77*%
%TO.N,/D1*%
X18458000Y-4420000D03*
%TO.P,CN1,78,78*%
%TO.N,/D9*%
X18458000Y-3912000D03*
%TO.P,CN1,79,79*%
%TO.N,/D2*%
X18712000Y-4420000D03*
%TO.P,CN1,80,80*%
%TO.N,/D8*%
X18712000Y-3912000D03*
%TO.P,CN1,81,81*%
%TO.N,/D3*%
X18966000Y-4420000D03*
%TO.P,CN1,82,82*%
%TO.N,/D7*%
X18966000Y-3912000D03*
%TO.P,CN1,83,83*%
%TO.N,/D4*%
X19220000Y-4420000D03*
%TO.P,CN1,84,84*%
%TO.N,/D6*%
X19220000Y-3912000D03*
%TO.P,CN1,85,85*%
%TO.N,unconnected-(CN1-Pad85)*%
X19474000Y-4420000D03*
%TO.P,CN1,86,86*%
%TO.N,/D5*%
X19474000Y-3912000D03*
%TD*%
D13*
%TO.P,C6,1*%
%TO.N,Net-(D3-K)*%
X8995000Y-8765000D03*
D11*
%TO.P,C6,2*%
%TO.N,GND*%
X8745000Y-8765000D03*
%TD*%
D14*
%TO.P,D1,1,K*%
%TO.N,Net-(D1-K)*%
X18885000Y-9270000D03*
D15*
%TO.P,D1,2,A*%
%TO.N,Net-(D1-A)*%
X18885000Y-9016000D03*
%TD*%
%TO.P,VR1,1,CCW*%
%TO.N,+5V*%
X18595840Y-12644220D03*
%TO.P,VR1,2,WIPER*%
X18845840Y-12644220D03*
%TO.P,VR1,3,CW*%
%TO.N,Net-(U11-DIS)*%
X19095840Y-12644220D03*
D19*
%TO.P,VR1,MH1,MH1*%
%TO.N,unconnected-(VR1-PadMH1)*%
X18405840Y-11944220D03*
%TO.P,VR1,MH2,MH2*%
%TO.N,unconnected-(VR1-PadMH2)*%
X19285840Y-11944220D03*
%TD*%
D16*
%TO.P,JP2,1,A*%
%TO.N,Net-(JP2-A)*%
X8916840Y-7769220D03*
D17*
%TO.P,JP2,2,C*%
%TO.N,Net-(JP2-C)*%
X9170840Y-7769220D03*
%TO.P,JP2,3,B*%
%TO.N,+5V*%
X9424840Y-7769220D03*
%TD*%
D20*
%TO.N,Net-(U3-I6)*%
X13330000Y-8005000D03*
X13330000Y-8607500D03*
X9060000Y-9810000D03*
%TO.N,Net-(U10-~{CE})*%
X12720000Y-7330000D03*
X11325000Y-6440000D03*
X12715000Y-6440000D03*
X11275840Y-11579220D03*
%TO.N,Net-(U2-IO1)*%
X11885000Y-6125000D03*
X16385000Y-6125000D03*
X16385000Y-7470000D03*
X14380000Y-7710000D03*
X12010000Y-7765000D03*
X14490000Y-6125000D03*
%TO.N,/A5*%
X16103340Y-10941720D03*
X11360000Y-11135060D03*
X16025000Y-9758220D03*
X11360840Y-10691720D03*
X15802500Y-7752500D03*
%TO.N,/A8*%
X14318340Y-10756720D03*
X16225840Y-10644220D03*
X16118340Y-9581220D03*
X12248340Y-9706720D03*
X11705000Y-6250000D03*
X16065000Y-7650000D03*
X11705000Y-9590220D03*
X14319840Y-9579220D03*
X11985000Y-6250000D03*
X11105840Y-9598220D03*
X11840840Y-10951720D03*
X11105840Y-10754220D03*
%TO.N,/~{IPL2}*%
X10655000Y-4605000D03*
X10655000Y-7245000D03*
X14270000Y-4715000D03*
%TO.N,/A15*%
X14708340Y-10501720D03*
X14708840Y-9638220D03*
X14140840Y-9744220D03*
%TO.N,GND*%
X15875000Y-8629220D03*
X14992840Y-10153220D03*
X15875000Y-7980000D03*
X16943840Y-10225220D03*
X17950000Y-5225000D03*
X18085840Y-12894220D03*
X13168340Y-11664220D03*
X18665000Y-11000000D03*
X9611360Y-5542280D03*
X10829840Y-8791720D03*
X12010000Y-7885000D03*
X9610000Y-11320000D03*
X8745000Y-10465000D03*
X14702560Y-12152500D03*
X17345000Y-8700000D03*
X16945840Y-12894220D03*
X8740000Y-11330000D03*
X15630000Y-7060000D03*
X9610160Y-8221720D03*
X16983340Y-11666720D03*
X10827840Y-9787220D03*
X13168340Y-12957500D03*
X12601840Y-8437220D03*
X15875000Y-5225000D03*
X17350000Y-8465000D03*
X14709120Y-12957500D03*
X11870840Y-8789220D03*
X12600840Y-10156220D03*
%TO.N,+5V*%
X18855000Y-10695000D03*
X10765000Y-7145000D03*
X15635000Y-8960000D03*
X18140000Y-9285000D03*
X9788000Y-7770220D03*
X14043340Y-9901720D03*
X9795000Y-5640000D03*
X9440000Y-4865000D03*
X13419840Y-10316220D03*
X17235840Y-8939220D03*
X18140000Y-10220000D03*
X10170000Y-10460000D03*
X14043340Y-8955000D03*
X11785000Y-7250000D03*
X10175000Y-9355000D03*
X11780000Y-5640000D03*
X12323340Y-10249220D03*
X17233340Y-10222220D03*
X13310840Y-10003220D03*
X10170000Y-10139220D03*
X15635000Y-10251720D03*
X9788000Y-7428000D03*
X12323340Y-8951720D03*
X10765000Y-5640000D03*
X10170000Y-10970000D03*
X15635000Y-9871220D03*
%TO.N,/~{OE}*%
X14035840Y-11274220D03*
X17555840Y-9798073D03*
X11625000Y-8569220D03*
X11625000Y-11261720D03*
X11630000Y-7875000D03*
X13793340Y-10238220D03*
X13795000Y-8337500D03*
X17488340Y-11278720D03*
%TO.N,Net-(U4-IO4)*%
X15350000Y-6460000D03*
X15478340Y-11516720D03*
X13075000Y-6460000D03*
X13040000Y-7875000D03*
X15573340Y-8625000D03*
X15350000Y-8625000D03*
%TO.N,Net-(U4-IO5)*%
X13000000Y-8000000D03*
X17005000Y-8791720D03*
X13008340Y-8871720D03*
X17010000Y-11500000D03*
%TO.N,/A1*%
X11710840Y-11761720D03*
X16375840Y-11532720D03*
X16375000Y-8360000D03*
%TO.N,Net-(U4-IO8)*%
X12002500Y-9575000D03*
X14018340Y-11529220D03*
X13715000Y-9580000D03*
X12205000Y-7965000D03*
%TO.N,/A16*%
X16797840Y-10234220D03*
X16735000Y-7865000D03*
X16735000Y-6230000D03*
X13105840Y-9506720D03*
X14325000Y-6230000D03*
X11891840Y-9506720D03*
X13104840Y-10651220D03*
X13430000Y-6230000D03*
X11785840Y-10374500D03*
X13515000Y-9504220D03*
%TO.N,Net-(U2-I8)*%
X13717500Y-8602500D03*
X13717500Y-8260000D03*
X14780000Y-8205000D03*
X14772500Y-8625000D03*
%TO.N,Net-(U2-I9)*%
X14662500Y-9120000D03*
X14665000Y-8315000D03*
X12835000Y-9117500D03*
X12835000Y-8195000D03*
%TO.N,Net-(JP1-C)*%
X12178340Y-8109220D03*
X12079663Y-8720544D03*
%TO.N,/A9*%
X14886840Y-10991220D03*
X13189840Y-10761220D03*
X13323340Y-11126794D03*
X17493340Y-10897720D03*
X14886840Y-10735220D03*
X11729525Y-10881749D03*
X17720840Y-8091720D03*
%TO.N,Net-(U2-IO7)*%
X12010000Y-7645000D03*
X14040000Y-6635000D03*
X14367500Y-8602500D03*
X14040000Y-7675000D03*
X14370000Y-8080000D03*
X12010000Y-6635000D03*
%TO.N,Net-(U2-IO8)*%
X15010000Y-7145000D03*
X13780000Y-7390000D03*
X15010000Y-8490000D03*
X13780000Y-7145000D03*
%TO.N,Net-(U3-IO2)*%
X14670000Y-7060000D03*
X14670000Y-7510000D03*
%TO.N,Net-(U3-I03)*%
X15250000Y-7750000D03*
X15255000Y-6985000D03*
%TO.N,Net-(U3-I5)*%
X13435000Y-7770000D03*
X10950000Y-8520000D03*
X13435000Y-6540000D03*
X10950000Y-6540000D03*
%TO.N,Net-(U2-IO6)*%
X13720000Y-5985000D03*
X13910000Y-8127500D03*
X16485000Y-5985000D03*
X16517500Y-8252500D03*
%TO.N,/~{FC0}*%
X12605000Y-8227500D03*
%TO.N,/A17*%
X11013620Y-10374500D03*
X14872840Y-10374500D03*
X17902500Y-10830720D03*
X14925987Y-9369220D03*
X11008340Y-9579220D03*
X14645000Y-6530000D03*
X17902500Y-9209220D03*
%TO.N,Net-(U1-IO8)*%
X16825000Y-7620000D03*
X16825000Y-8560000D03*
%TO.N,Net-(U1-IO2)*%
X16900000Y-7750000D03*
X16900000Y-7065000D03*
%TO.N,/A18*%
X17080000Y-7740000D03*
X17080000Y-6340000D03*
X10369120Y-10247500D03*
X15280000Y-6335000D03*
X10368340Y-9241720D03*
X14780000Y-10246720D03*
X14778340Y-9186720D03*
X16850840Y-9114220D03*
%TO.N,Net-(U1-IO1)*%
X16585000Y-7105000D03*
X16585000Y-7875000D03*
%TO.N,Net-(Q1-G)*%
X10145000Y-5100320D03*
X10145000Y-7170000D03*
X10145000Y-6810000D03*
%TO.N,Net-(D1-K)*%
X18575000Y-9910000D03*
X17962500Y-8865000D03*
X17977500Y-9670000D03*
X18575000Y-9270000D03*
X10590000Y-7870000D03*
X10590000Y-8995000D03*
%TO.N,/A19*%
X16018340Y-10501720D03*
X17583340Y-9056720D03*
X12350840Y-10501500D03*
X15540000Y-6620000D03*
X17795000Y-7738380D03*
X12400840Y-9054220D03*
X15925840Y-9054220D03*
%TO.N,/A10*%
X15227500Y-10439220D03*
X12460840Y-10959720D03*
X17602500Y-8092500D03*
X17433340Y-11024720D03*
X14110840Y-11019220D03*
X15235840Y-11009220D03*
X14115840Y-10439220D03*
%TO.N,/~{FC1}*%
X15975000Y-6705000D03*
X12790000Y-6705000D03*
X15975000Y-8065000D03*
%TO.N,Net-(U5-I7)*%
X9705000Y-6090920D03*
X11720000Y-5074920D03*
X11717020Y-4818380D03*
X10914380Y-6090920D03*
X10916920Y-4856480D03*
X9705000Y-8000000D03*
%TO.N,Net-(U5-IO5)*%
X11250000Y-7995000D03*
X11250000Y-6172200D03*
X11530000Y-6173800D03*
X11529060Y-5071420D03*
%TO.N,Net-(U5-IO6)*%
X10870000Y-6245860D03*
X10870000Y-8315000D03*
%TO.N,/A11*%
X11600073Y-13059926D03*
X11482610Y-11392896D03*
X17925000Y-13082500D03*
X13000000Y-4910000D03*
X14240000Y-4910000D03*
X19085000Y-11410000D03*
X14173340Y-11400720D03*
X17955840Y-11409220D03*
X19085000Y-8495000D03*
%TO.N,/A12*%
X17310000Y-8250000D03*
X17072090Y-11152970D03*
X13105840Y-11213559D03*
%TO.N,/~{IPL0}*%
X13805000Y-6810000D03*
X11045000Y-7745000D03*
X11045000Y-6815000D03*
%TO.N,/~{RST}*%
X10340000Y-6345000D03*
X14825000Y-6345000D03*
X14825000Y-4910000D03*
X10340000Y-8070000D03*
X15415000Y-4905000D03*
%TO.N,/A13*%
X17918340Y-8010000D03*
X11190000Y-10626720D03*
X17835000Y-9620000D03*
X16726840Y-9517220D03*
X14838340Y-9513220D03*
X14768840Y-10628220D03*
X11186840Y-9511220D03*
X13575000Y-9640000D03*
X12822500Y-10464220D03*
X16725840Y-10606720D03*
X12820840Y-9640000D03*
%TO.N,/A20*%
X16975000Y-6440000D03*
X16975000Y-7610000D03*
X15785000Y-6440000D03*
%TO.N,/~{IPL1}*%
X10555000Y-7720000D03*
X10555000Y-4740000D03*
X14010000Y-4810000D03*
%TO.N,/A14*%
X15360840Y-10754220D03*
X15365000Y-9798220D03*
X17978340Y-10769220D03*
X13888340Y-10154220D03*
X18050000Y-7870000D03*
X14043340Y-10766720D03*
%TO.N,/~{HLT}*%
X15665000Y-5170000D03*
X11105000Y-7870000D03*
X11150600Y-4922520D03*
%TO.N,/A21*%
X16050000Y-5440000D03*
X16825000Y-7430000D03*
X16825000Y-5440000D03*
%TO.N,/A22*%
X15920000Y-4710000D03*
X9900000Y-5070000D03*
X17695000Y-7680000D03*
X14515000Y-4710000D03*
X14515000Y-5175000D03*
X9898340Y-6294220D03*
X17700000Y-4715000D03*
%TO.N,Net-(U11-DIS)*%
X9400000Y-10780000D03*
%TO.N,Net-(D3-A)*%
X8945000Y-10715000D03*
X10175000Y-7745000D03*
X8950840Y-8960000D03*
X10175000Y-9240000D03*
%TO.N,Net-(D3-K)*%
X9340000Y-10590000D03*
%TO.N,/A23*%
X9945840Y-4229220D03*
X16170000Y-5545000D03*
X18010000Y-7651720D03*
X10025840Y-6296720D03*
X18010000Y-5545000D03*
%TO.N,/D15*%
X17845000Y-13060000D03*
X17845000Y-11660060D03*
X17740840Y-8854220D03*
X11625780Y-11644220D03*
X16517500Y-8859220D03*
X11590000Y-12965000D03*
%TO.N,/A3*%
X15740000Y-7877500D03*
X10455000Y-4144220D03*
X10462530Y-11392530D03*
X15565840Y-11201720D03*
%TO.N,/A4*%
X15425000Y-7450000D03*
X15425840Y-11069220D03*
X14233340Y-10514220D03*
X12305840Y-12509220D03*
X14233636Y-11131720D03*
X11353340Y-12506720D03*
X12560840Y-11149220D03*
X11353340Y-11264220D03*
%TO.N,/A6*%
X11540000Y-11006720D03*
X13233840Y-9834220D03*
X13575000Y-11089913D03*
X11540000Y-9729220D03*
X15094840Y-7865000D03*
X15093840Y-10791220D03*
X13400840Y-10784220D03*
%TO.N,/A7*%
X10595000Y-9155000D03*
X16313340Y-10174220D03*
X13480840Y-10654220D03*
X10595000Y-9663220D03*
X10595000Y-10881720D03*
X12060000Y-9152500D03*
X13480840Y-9774220D03*
X16315000Y-10770720D03*
X13483340Y-11004220D03*
X16205000Y-7740000D03*
%TO.N,/A2*%
X10535000Y-9341720D03*
X15154840Y-11516220D03*
X10540780Y-11516720D03*
X11935840Y-9341720D03*
X15250000Y-8005000D03*
X15250000Y-9279220D03*
%TO.N,/D14*%
X17490000Y-5960000D03*
X16934000Y-5956000D03*
X17490840Y-11669220D03*
%TO.N,/R_W*%
X10268340Y-10566720D03*
X13545840Y-10311720D03*
X10270000Y-4945000D03*
X10270000Y-7640000D03*
X14400000Y-5865000D03*
X14400000Y-4995000D03*
X15487500Y-10206220D03*
X13575000Y-10129220D03*
X15488840Y-9699220D03*
X17060000Y-5855000D03*
X15485840Y-10626720D03*
%TO.N,/D13*%
X11590000Y-11945000D03*
X16795840Y-11984220D03*
X11591000Y-12866000D03*
X16795840Y-12776720D03*
%TO.N,/~{LDS}*%
X14515000Y-8440000D03*
X14575000Y-6890000D03*
X17305000Y-6890000D03*
%TO.N,/D12*%
X17220840Y-12616720D03*
X12720000Y-12679220D03*
X16645000Y-12615000D03*
X16655000Y-5310000D03*
X17238340Y-11661720D03*
X17445000Y-5310000D03*
X12720000Y-12155000D03*
%TO.N,/~{UDS}*%
X17820000Y-5765000D03*
X13340000Y-7470000D03*
X13340000Y-5765000D03*
X12767500Y-7472500D03*
X12767500Y-8567500D03*
%TO.N,/D11*%
X17110840Y-12696720D03*
X12085840Y-12664220D03*
X17110840Y-11659220D03*
X12085840Y-12266720D03*
%TO.N,/~{AS}*%
X11157500Y-9070000D03*
X18075000Y-6785000D03*
X11160000Y-8569220D03*
X14920000Y-8125000D03*
X14920000Y-8810000D03*
X14920000Y-6795000D03*
%TO.N,/D3*%
X18340000Y-4740000D03*
X18095840Y-12165000D03*
X13293340Y-12659220D03*
X13293340Y-11671720D03*
%TO.N,/D10*%
X13170000Y-5405000D03*
X14725000Y-5405000D03*
X14725000Y-4640000D03*
X16858340Y-12476720D03*
X13040840Y-12559220D03*
X16858340Y-11669220D03*
X18340000Y-4620000D03*
%TO.N,/D8*%
X16380840Y-11921720D03*
X13633340Y-12254220D03*
X13673340Y-4571720D03*
X16378340Y-11659220D03*
%TO.N,/D0*%
X13130000Y-7745000D03*
X12968340Y-11654220D03*
X13130000Y-8672500D03*
X18205000Y-8635000D03*
%TO.N,/D4*%
X13423340Y-12519220D03*
X17830000Y-5905000D03*
X18027500Y-12100000D03*
X13420840Y-11671720D03*
%TO.N,/D9*%
X12895840Y-12354220D03*
X16735840Y-11676720D03*
X12895000Y-5645000D03*
X16735840Y-12344220D03*
X18585000Y-5645000D03*
%TO.N,/D2*%
X17048340Y-12539220D03*
X18700000Y-9537500D03*
X14278340Y-12539220D03*
X14278340Y-12029220D03*
X17145000Y-9347500D03*
%TO.N,/D6*%
X18980000Y-5775000D03*
X18590000Y-5780000D03*
X18333340Y-11571720D03*
%TO.N,/D1*%
X13340000Y-7620000D03*
X12800840Y-9439220D03*
X14795840Y-11899220D03*
X12760840Y-11898252D03*
X14568340Y-9441720D03*
X18455000Y-9556720D03*
X13403340Y-9441720D03*
%TO.N,/D5*%
X13545840Y-12419220D03*
X17488340Y-12204220D03*
X13545840Y-11671720D03*
X17777500Y-12992500D03*
%TO.N,Net-(JP1-A)*%
X10395840Y-8576720D03*
X14512500Y-8532500D03*
X14375000Y-7875000D03*
X10395840Y-8959220D03*
%TO.N,Net-(JP2-A)*%
X14785000Y-8002000D03*
X14785000Y-6795000D03*
%TD*%
D21*
%TO.N,Net-(U3-I6)*%
X13330000Y-8607500D02*
X13330000Y-8005000D01*
X9167750Y-12037750D02*
X9167750Y-11537750D01*
X9060000Y-9810000D02*
X9060000Y-10570000D01*
X9060000Y-10570000D02*
X9165000Y-10675000D01*
X9165000Y-10675000D02*
X9165000Y-11535000D01*
%TO.N,Net-(U10-~{CE})*%
X11275840Y-11579220D02*
X11270000Y-11573380D01*
X12715000Y-6440000D02*
X12720000Y-6445000D01*
X11270000Y-11573380D02*
X11270000Y-9072500D01*
X11270000Y-9072500D02*
X11325000Y-9017500D01*
X12720000Y-6445000D02*
X12720000Y-7330000D01*
X11325000Y-9017500D02*
X11325000Y-6440000D01*
%TO.N,Net-(U2-IO1)*%
X11885000Y-7720000D02*
X11885000Y-6125000D01*
X14490000Y-7680000D02*
X14460000Y-7710000D01*
X14460000Y-7710000D02*
X14380000Y-7710000D01*
X16385000Y-6125000D02*
X16385000Y-7470000D01*
X14490000Y-6125000D02*
X14490000Y-7680000D01*
X11930000Y-7765000D02*
X11885000Y-7720000D01*
X12010000Y-7765000D02*
X11930000Y-7765000D01*
%TO.N,/A5*%
X11360000Y-10692560D02*
X11360000Y-11135060D01*
X11346000Y-6276000D02*
X11346000Y-4420000D01*
X16025000Y-10380880D02*
X16105840Y-10461720D01*
X11360840Y-10691720D02*
X11360000Y-10690880D01*
X16105840Y-10461720D02*
X16105840Y-10929220D01*
X11410000Y-9035000D02*
X11410000Y-6340000D01*
X16103340Y-10941720D02*
X16105840Y-10939220D01*
X11360000Y-9085000D02*
X11410000Y-9035000D01*
X16105840Y-10939220D02*
X16105840Y-10929220D01*
X16025000Y-9040000D02*
X15802500Y-8817500D01*
X16105840Y-10929220D02*
X16105840Y-10909220D01*
X11410000Y-6340000D02*
X11346000Y-6276000D01*
X11360840Y-10691720D02*
X11360000Y-10692560D01*
X11360000Y-10690880D02*
X11360000Y-9085000D01*
X16025000Y-9758220D02*
X16025000Y-10380880D01*
X16025000Y-9758220D02*
X16025000Y-9040000D01*
X15802500Y-8817500D02*
X15802500Y-7752500D01*
%TO.N,/A8*%
X11105000Y-9599060D02*
X11105000Y-10753380D01*
X11840840Y-10589220D02*
X11973340Y-10456720D01*
X11973340Y-10456720D02*
X11973340Y-10029220D01*
X14319840Y-9579220D02*
X14318340Y-9580720D01*
X11985000Y-6250000D02*
X11975000Y-6240000D01*
X11973340Y-10029220D02*
X12248340Y-9754220D01*
X16118340Y-7703340D02*
X16065000Y-7650000D01*
X11105840Y-9598220D02*
X11105000Y-9599060D01*
X11840840Y-10951720D02*
X11840840Y-10589220D01*
X11705000Y-9590220D02*
X11705000Y-6250000D01*
X16226000Y-10644060D02*
X16225840Y-10644220D01*
X12362000Y-3782000D02*
X12362000Y-3912000D01*
X12248340Y-9754220D02*
X12248340Y-9706720D01*
X12035000Y-3750000D02*
X12330000Y-3750000D01*
X16226000Y-9971000D02*
X16226000Y-10644060D01*
X12330000Y-3750000D02*
X12362000Y-3782000D01*
X11975000Y-3810000D02*
X12035000Y-3750000D01*
X16118340Y-9581220D02*
X16118340Y-7703340D01*
X16118340Y-9581220D02*
X16118340Y-9863340D01*
X11975000Y-6240000D02*
X11975000Y-3810000D01*
X16118340Y-9863340D02*
X16226000Y-9971000D01*
X11105000Y-10753380D02*
X11105840Y-10754220D01*
X14318340Y-9580720D02*
X14318340Y-10756720D01*
%TO.N,/~{IPL2}*%
X14270000Y-4715000D02*
X14270000Y-4042000D01*
X14270000Y-4042000D02*
X14140000Y-3912000D01*
X10655000Y-7245000D02*
X10655000Y-4605000D01*
%TO.N,/A15*%
X14138340Y-9741720D02*
X14138340Y-4421660D01*
X14708840Y-9638220D02*
X14708340Y-9638720D01*
X14708340Y-9638720D02*
X14708340Y-10501720D01*
X14140840Y-9744220D02*
X14138340Y-9741720D01*
X14138340Y-4421660D02*
X14140000Y-4420000D01*
D22*
%TO.N,GND*%
X9320000Y-8515000D02*
X9390000Y-8585000D01*
X17350000Y-8695000D02*
X17350000Y-8465000D01*
X9390000Y-9835000D02*
X9445000Y-9890000D01*
X9060000Y-3912000D02*
X9060000Y-4420000D01*
X13168340Y-11664220D02*
X13169516Y-11665396D01*
X16943340Y-12891720D02*
X16943340Y-11991720D01*
X16943340Y-11991720D02*
X16983340Y-11951720D01*
X15875000Y-7060000D02*
X15875000Y-7980000D01*
X14705840Y-12954220D02*
X14709120Y-12957500D01*
X8800000Y-8515000D02*
X9320000Y-8515000D01*
X14992840Y-10153220D02*
X14992840Y-11862220D01*
X18665000Y-11680880D02*
X18745840Y-11761720D01*
X16945840Y-10227220D02*
X16945840Y-11398220D01*
X18745840Y-12234220D02*
X18085840Y-12894220D01*
X13169516Y-12956323D02*
X13168340Y-12957500D01*
X16898840Y-11445220D02*
X16898840Y-11582220D01*
X12601840Y-8437220D02*
X12601840Y-10155220D01*
X17345000Y-8700000D02*
X17350000Y-8695000D01*
X9610160Y-5543480D02*
X9611360Y-5542280D01*
X15875000Y-7060000D02*
X15630000Y-7060000D01*
X18745840Y-11761720D02*
X18745840Y-12234220D01*
X9390000Y-8585000D02*
X9390000Y-9835000D01*
X16945840Y-12894220D02*
X16943340Y-12891720D01*
X8745000Y-8765000D02*
X8745000Y-11325000D01*
X18665000Y-11000000D02*
X18665000Y-10485000D01*
X14702560Y-12152500D02*
X14705840Y-12155780D01*
X9667750Y-12037750D02*
X9667750Y-12887250D01*
X8745000Y-8570000D02*
X8800000Y-8515000D01*
X17950000Y-4420000D02*
X17950000Y-5225000D01*
X18665000Y-10485000D02*
X18727000Y-10423000D01*
X15875000Y-5225000D02*
X15875000Y-7060000D01*
X11870000Y-7940000D02*
X11925000Y-7885000D01*
X10827840Y-9787220D02*
X10827840Y-8793720D01*
X15875000Y-7980000D02*
X15875000Y-8629220D01*
X10827840Y-8793720D02*
X10829840Y-8791720D01*
X13169516Y-11665396D02*
X13169516Y-12956323D01*
X12601840Y-10155220D02*
X12600840Y-10156220D01*
X9610511Y-12944489D02*
X9400000Y-12944489D01*
X16983340Y-11951720D02*
X16983340Y-11666720D01*
X11925000Y-7885000D02*
X12010000Y-7885000D01*
X9667750Y-12887250D02*
X9610511Y-12944489D01*
X8745000Y-11325000D02*
X8745000Y-10465000D01*
X11870840Y-8789220D02*
X11870000Y-8788380D01*
X8806000Y-4420000D02*
X8806000Y-3912000D01*
X9667750Y-11537750D02*
X9667750Y-12037750D01*
X9610160Y-8221720D02*
X9610160Y-5543480D01*
X18727000Y-10423000D02*
X18850000Y-10423000D01*
X9610160Y-8221720D02*
X9610000Y-8221880D01*
X14992840Y-11862220D02*
X14702560Y-12152500D01*
X16943840Y-10225220D02*
X16945840Y-10227220D01*
X9610000Y-8221880D02*
X9610000Y-11320000D01*
X11870000Y-8788380D02*
X11870000Y-7940000D01*
X16898840Y-11582220D02*
X16983340Y-11666720D01*
X16945840Y-11398220D02*
X16898840Y-11445220D01*
X18665000Y-11000000D02*
X18665000Y-11680880D01*
X8745000Y-8765000D02*
X8745000Y-8570000D01*
X8745000Y-11325000D02*
X8740000Y-11330000D01*
X14705840Y-12155780D02*
X14705840Y-12954220D01*
%TO.N,+5V*%
X14043340Y-9901720D02*
X14043340Y-8955000D01*
X15635000Y-8960000D02*
X15635000Y-9871220D01*
X12323340Y-8951720D02*
X12323340Y-10249220D01*
X17233340Y-10222220D02*
X17233340Y-8941720D01*
X9915000Y-9355000D02*
X9900000Y-9340000D01*
X9441840Y-4176840D02*
X9314000Y-4049000D01*
X9795000Y-4910000D02*
X9750000Y-4865000D01*
X9441840Y-4863160D02*
X9441840Y-4176840D01*
X9788000Y-8438000D02*
X9788000Y-7770220D01*
X10175000Y-9355000D02*
X9915000Y-9355000D01*
X9900000Y-9340000D02*
X9900000Y-8550000D01*
X18855000Y-10695000D02*
X18855000Y-12635060D01*
X18140000Y-10220000D02*
X18140000Y-9285000D01*
X9795000Y-5640000D02*
X9795000Y-4910000D01*
X10170000Y-10460000D02*
X10170000Y-10970000D01*
X13310840Y-10003220D02*
X13310840Y-10207220D01*
X9314000Y-4049000D02*
X9314000Y-3912000D01*
X9795000Y-7421000D02*
X9788000Y-7428000D01*
X15635000Y-9871220D02*
X15635000Y-10251720D01*
X11780000Y-7245000D02*
X11780000Y-5640000D01*
X9788000Y-7770220D02*
X9788000Y-7428000D01*
X9795000Y-5640000D02*
X9795000Y-7421000D01*
X10765000Y-7145000D02*
X10765000Y-5640000D01*
X9750000Y-4865000D02*
X9440000Y-4865000D01*
X10175000Y-9355000D02*
X10170000Y-9360000D01*
X9440000Y-4865000D02*
X9441840Y-4863160D01*
X10170000Y-9360000D02*
X10170000Y-10139220D01*
X13310840Y-10207220D02*
X13419840Y-10316220D01*
X10170000Y-10139220D02*
X10170000Y-10460000D01*
X11785000Y-7250000D02*
X11780000Y-7245000D01*
X17233340Y-8941720D02*
X17235840Y-8939220D01*
X9900000Y-8550000D02*
X9788000Y-8438000D01*
X18855000Y-12635060D02*
X18845840Y-12644220D01*
D21*
%TO.N,/~{OE}*%
X11625000Y-8569220D02*
X11625000Y-7880000D01*
X11625000Y-7880000D02*
X11630000Y-7875000D01*
X11625000Y-11261720D02*
X11625000Y-8569220D01*
X14035840Y-10941720D02*
X14035840Y-11274220D01*
X13790000Y-8342500D02*
X13795000Y-8337500D01*
X13793340Y-10238220D02*
X13790000Y-10234880D01*
X17555840Y-11211220D02*
X17488340Y-11278720D01*
X17555840Y-9798073D02*
X17555840Y-11211220D01*
X13793340Y-10699220D02*
X14035840Y-10941720D01*
X13793340Y-10238220D02*
X13793340Y-10699220D01*
X13790000Y-10234880D02*
X13790000Y-8342500D01*
%TO.N,Net-(U4-IO4)*%
X15570000Y-8628340D02*
X15573340Y-8625000D01*
X13040000Y-7875000D02*
X13040000Y-7480000D01*
X15478340Y-11516720D02*
X15485840Y-11509220D01*
X15570000Y-10652560D02*
X15570000Y-8628340D01*
X15485840Y-10736720D02*
X15570000Y-10652560D01*
X13040000Y-7480000D02*
X13075000Y-7445000D01*
X15485840Y-11509220D02*
X15485840Y-10736720D01*
X15350000Y-6460000D02*
X15350000Y-8625000D01*
X13075000Y-7445000D02*
X13075000Y-6460000D01*
%TO.N,Net-(U4-IO5)*%
X13008340Y-8871720D02*
X13000000Y-8863380D01*
X17005000Y-8791720D02*
X17005000Y-11495000D01*
X17005000Y-11495000D02*
X17010000Y-11500000D01*
X13000000Y-8863380D02*
X13000000Y-8000000D01*
%TO.N,/A1*%
X12125000Y-9712560D02*
X12125000Y-8940060D01*
X16375840Y-8360840D02*
X16375000Y-8360000D01*
X12362000Y-8703060D02*
X12362000Y-4420000D01*
X11712500Y-11760060D02*
X11712500Y-10990000D01*
X11710840Y-11761720D02*
X11712500Y-11760060D01*
X11712500Y-10990000D02*
X11667500Y-10945000D01*
X12125000Y-8940060D02*
X12362000Y-8703060D01*
X16375840Y-11532720D02*
X16375840Y-8360840D01*
X11667500Y-10617560D02*
X11873340Y-10411720D01*
X11873340Y-10411720D02*
X11873340Y-9964220D01*
X11667500Y-10945000D02*
X11667500Y-10617560D01*
X11873340Y-9964220D02*
X12125000Y-9712560D01*
%TO.N,Net-(U4-IO8)*%
X12205000Y-7970000D02*
X12205000Y-7965000D01*
X12002500Y-9575000D02*
X12000000Y-9572500D01*
X12000000Y-9572500D02*
X12000000Y-8905060D01*
X12000000Y-8905060D02*
X12265000Y-8640060D01*
X12265000Y-8640060D02*
X12265000Y-8030000D01*
X12265000Y-8030000D02*
X12205000Y-7970000D01*
X13715000Y-11328750D02*
X13915470Y-11529220D01*
X13915470Y-11529220D02*
X14018340Y-11529220D01*
X13715000Y-9580000D02*
X13715000Y-11328750D01*
%TO.N,/A16*%
X13515000Y-6485000D02*
X13430000Y-6400000D01*
X16797840Y-9701220D02*
X16860840Y-9638220D01*
X13430000Y-6400000D02*
X13430000Y-6230000D01*
X14325000Y-6230000D02*
X14325000Y-4855000D01*
X14325000Y-4855000D02*
X14395000Y-4785000D01*
X16860840Y-9304220D02*
X16735000Y-9178380D01*
X16797840Y-10234220D02*
X16797840Y-9701220D01*
X14394000Y-4784000D02*
X14394000Y-4420000D01*
X14395000Y-4785000D02*
X14394000Y-4784000D01*
X16735000Y-7865000D02*
X16735000Y-6230000D01*
X16735000Y-9178380D02*
X16735000Y-7865000D01*
X13515000Y-9504220D02*
X13515000Y-6485000D01*
X11785840Y-9612720D02*
X11785840Y-10374500D01*
X16860840Y-9638220D02*
X16860840Y-9304220D01*
X13104840Y-10651220D02*
X13105840Y-10650220D01*
X13105840Y-10650220D02*
X13105840Y-9506720D01*
X11891840Y-9506720D02*
X11785840Y-9612720D01*
%TO.N,Net-(U2-I8)*%
X14772500Y-8202500D02*
X14772500Y-8625000D01*
X13717500Y-8260000D02*
X13717500Y-8602500D01*
%TO.N,Net-(U2-I9)*%
X14662500Y-8317500D02*
X14665000Y-8315000D01*
X14662500Y-9120000D02*
X14662500Y-8317500D01*
X12835000Y-8195000D02*
X12835000Y-9117500D01*
%TO.N,Net-(JP1-C)*%
X12079663Y-8720544D02*
X12178340Y-8621867D01*
X12178340Y-8621867D02*
X12178340Y-8109220D01*
%TO.N,/A9*%
X13323340Y-11126794D02*
X13325840Y-11124294D01*
X17720840Y-8681366D02*
X17720840Y-8091720D01*
X17495840Y-10895220D02*
X17495840Y-8906366D01*
X12490000Y-4038000D02*
X12616000Y-3912000D01*
X11920840Y-9994220D02*
X12178340Y-9736720D01*
X12178340Y-9736720D02*
X12178340Y-8976720D01*
X11727500Y-10879724D02*
X11727500Y-10630060D01*
X17493340Y-10897720D02*
X17495840Y-10895220D01*
X11727500Y-10630060D02*
X11920840Y-10436720D01*
X14886840Y-10735220D02*
X14886840Y-10991220D01*
X12490000Y-8665060D02*
X12490000Y-4038000D01*
X13189840Y-10993294D02*
X13323340Y-11126794D01*
X12178340Y-8976720D02*
X12490000Y-8665060D01*
X11920840Y-10436720D02*
X11920840Y-9994220D01*
X13189840Y-10761220D02*
X13189840Y-10993294D01*
X17495840Y-8906366D02*
X17720840Y-8681366D01*
X11729525Y-10881749D02*
X11727500Y-10879724D01*
%TO.N,Net-(U2-IO7)*%
X14367500Y-8082500D02*
X14370000Y-8080000D01*
X12010000Y-7645000D02*
X12010000Y-6635000D01*
X14367500Y-8602500D02*
X14367500Y-8082500D01*
X14040000Y-6635000D02*
X14040000Y-7675000D01*
%TO.N,Net-(U2-IO8)*%
X13780000Y-7145000D02*
X13780000Y-7390000D01*
X15010000Y-7145000D02*
X15010000Y-8490000D01*
%TO.N,Net-(U3-IO2)*%
X14670000Y-7060000D02*
X14670000Y-7510000D01*
%TO.N,Net-(U3-I03)*%
X15255000Y-7745000D02*
X15250000Y-7750000D01*
X15255000Y-6985000D02*
X15255000Y-7745000D01*
%TO.N,Net-(U3-I5)*%
X10950000Y-8520000D02*
X10950000Y-6540000D01*
X13435000Y-6540000D02*
X13435000Y-7770000D01*
%TO.N,Net-(U2-IO6)*%
X13745000Y-7485000D02*
X13720000Y-7460000D01*
X13910000Y-7575000D02*
X13910000Y-8127500D01*
X16485000Y-5985000D02*
X16485000Y-8220000D01*
X16485000Y-8220000D02*
X16517500Y-8252500D01*
X13820000Y-7485000D02*
X13910000Y-7575000D01*
X13745000Y-7485000D02*
X13820000Y-7485000D01*
X13720000Y-7460000D02*
X13720000Y-5985000D01*
%TO.N,/~{FC0}*%
X12570000Y-8010000D02*
X12570000Y-4466000D01*
X12605000Y-8227500D02*
X12605000Y-8045000D01*
X12605000Y-8045000D02*
X12570000Y-8010000D01*
%TO.N,/A17*%
X11010840Y-9581720D02*
X11010840Y-10371720D01*
X11010840Y-10371720D02*
X11013620Y-10374500D01*
X14904840Y-10342500D02*
X14904840Y-9390367D01*
X14904840Y-9390367D02*
X14925987Y-9369220D01*
X14648000Y-6527000D02*
X14648000Y-4420000D01*
X14872840Y-10374500D02*
X14904840Y-10342500D01*
X11008340Y-9579220D02*
X11010840Y-9581720D01*
X14645000Y-6530000D02*
X14648000Y-6527000D01*
X17902500Y-10830720D02*
X17902500Y-9209220D01*
%TO.N,Net-(U1-IO8)*%
X16825000Y-7620000D02*
X16825000Y-8560000D01*
%TO.N,Net-(U1-IO2)*%
X16900000Y-7750000D02*
X16900000Y-7065000D01*
%TO.N,/A18*%
X10368340Y-10246720D02*
X10369120Y-10247500D01*
X14778340Y-9186720D02*
X14778340Y-10245060D01*
X14778340Y-10245060D02*
X14780000Y-10246720D01*
X10368340Y-9241720D02*
X10368340Y-10246720D01*
X10369120Y-10247500D02*
X10368340Y-10248280D01*
X17080000Y-7740000D02*
X17080000Y-6340000D01*
X15280000Y-6335000D02*
X15280000Y-4036000D01*
X17080000Y-8525060D02*
X17080000Y-7740000D01*
X16850840Y-9114220D02*
X16850840Y-8754220D01*
X15280000Y-4036000D02*
X15156000Y-3912000D01*
X16850840Y-8754220D02*
X17080000Y-8525060D01*
%TO.N,Net-(U1-IO1)*%
X16585000Y-7875000D02*
X16585000Y-7105000D01*
%TO.N,Net-(Q1-G)*%
X10145000Y-7170000D02*
X10145000Y-6810000D01*
X10145000Y-6810000D02*
X10145000Y-5100320D01*
%TO.N,Net-(D1-K)*%
X18850000Y-9915000D02*
X18850000Y-10169000D01*
X17977500Y-8880000D02*
X17977500Y-9670000D01*
X17962500Y-8865000D02*
X17977500Y-8880000D01*
X18575000Y-9910000D02*
X18575000Y-9270000D01*
X10590000Y-7870000D02*
X10590000Y-8995000D01*
%TO.N,/A19*%
X15925840Y-10409220D02*
X16018340Y-10501720D01*
X15925840Y-9054220D02*
X15925840Y-10409220D01*
X15540000Y-6620000D02*
X15540000Y-4042000D01*
X12398340Y-10454000D02*
X12350840Y-10501500D01*
X17583340Y-9056720D02*
X17583340Y-8875434D01*
X17583340Y-8875434D02*
X17795000Y-8663774D01*
X17795000Y-8663774D02*
X17795000Y-7738380D01*
X15540000Y-4042000D02*
X15410000Y-3912000D01*
X12398340Y-9056720D02*
X12398340Y-10454000D01*
X12400840Y-9054220D02*
X12398340Y-9056720D01*
%TO.N,/A10*%
X15227500Y-11000880D02*
X15235840Y-11009220D01*
X12638340Y-5446660D02*
X12740000Y-5345000D01*
X14110840Y-10444220D02*
X14110840Y-11019220D01*
X12740000Y-5345000D02*
X12740000Y-4205000D01*
X17428340Y-11019720D02*
X17428340Y-8917297D01*
X12693340Y-7798340D02*
X12638340Y-7743340D01*
X17602500Y-8097560D02*
X17602500Y-8092500D01*
X17433340Y-11024720D02*
X17428340Y-11019720D01*
X12693340Y-10726720D02*
X12693340Y-7798340D01*
X12870000Y-4135000D02*
X12870000Y-3912000D01*
X14115840Y-10439220D02*
X14110840Y-10444220D01*
X12460840Y-10959720D02*
X12460840Y-10959220D01*
X12770000Y-4175000D02*
X12830000Y-4175000D01*
X15227500Y-10439220D02*
X15227500Y-11000880D01*
X12740000Y-4205000D02*
X12770000Y-4175000D01*
X12460840Y-10959220D02*
X12693340Y-10726720D01*
X17510000Y-8190060D02*
X17602500Y-8097560D01*
X17428340Y-8917297D02*
X17510000Y-8835637D01*
X17510000Y-8835637D02*
X17510000Y-8190060D01*
X12638340Y-7743340D02*
X12638340Y-5446660D01*
X12830000Y-4175000D02*
X12870000Y-4135000D01*
%TO.N,/~{FC1}*%
X15975000Y-8065000D02*
X15975000Y-6705000D01*
X12790000Y-5570000D02*
X12870000Y-5490000D01*
X12790000Y-6705000D02*
X12790000Y-5570000D01*
X12870000Y-5490000D02*
X12870000Y-4420000D01*
%TO.N,Net-(U5-I7)*%
X10910000Y-6086540D02*
X10910000Y-4863400D01*
X11717020Y-4818380D02*
X11720000Y-4821360D01*
X11720000Y-4821360D02*
X11720000Y-5074920D01*
X10914380Y-6090920D02*
X10910000Y-6086540D01*
X10910000Y-4863400D02*
X10916920Y-4856480D01*
X9705000Y-8000000D02*
X9705000Y-6090920D01*
%TO.N,Net-(U5-IO5)*%
X11530000Y-5072360D02*
X11529060Y-5071420D01*
X11530000Y-6173800D02*
X11530000Y-5072360D01*
X11250000Y-7995000D02*
X11250000Y-6172200D01*
%TO.N,Net-(U5-IO6)*%
X10870000Y-8315000D02*
X10870000Y-6245860D01*
%TO.N,/A11*%
X17925000Y-13082500D02*
X17955000Y-13052500D01*
X11482610Y-11392896D02*
X11482500Y-11393006D01*
X19085000Y-11410000D02*
X19085000Y-8495000D01*
X14173340Y-11400720D02*
X14173340Y-10479220D01*
X13124000Y-3912000D02*
X13124000Y-4141000D01*
X13095000Y-4170000D02*
X13036250Y-4170000D01*
X13124000Y-4141000D02*
X13095000Y-4170000D01*
X13000000Y-4206250D02*
X13000000Y-4910000D01*
X17955000Y-11410060D02*
X17955840Y-11409220D01*
X11482500Y-12942353D02*
X11600073Y-13059926D01*
X11482500Y-11393006D02*
X11482500Y-12942353D01*
X14240000Y-10412560D02*
X14240000Y-4910000D01*
X17955000Y-13052500D02*
X17955000Y-11410060D01*
X14173340Y-10479220D02*
X14240000Y-10412560D01*
X13036250Y-4170000D02*
X13000000Y-4206250D01*
%TO.N,/A12*%
X17237500Y-8322500D02*
X17310000Y-8250000D01*
X13380000Y-4125000D02*
X13378000Y-4123000D01*
X13290000Y-4155000D02*
X13350000Y-4155000D01*
X17072090Y-11152970D02*
X17072500Y-11152560D01*
X13167840Y-9194220D02*
X13250000Y-9112060D01*
X13250000Y-9112060D02*
X13250000Y-4195000D01*
X13105840Y-10759220D02*
X13167840Y-10697220D01*
X13350000Y-4155000D02*
X13380000Y-4125000D01*
X17237500Y-8567500D02*
X17237500Y-8322500D01*
X13250000Y-4195000D02*
X13290000Y-4155000D01*
X17072500Y-11152560D02*
X17072500Y-8732500D01*
X17072500Y-8732500D02*
X17237500Y-8567500D01*
X13167840Y-10697220D02*
X13167840Y-9194220D01*
X13378000Y-4123000D02*
X13378000Y-3912000D01*
X13105840Y-11213559D02*
X13105840Y-10759220D01*
%TO.N,/~{IPL0}*%
X13805000Y-6810000D02*
X13805000Y-5868750D01*
X11045000Y-7745000D02*
X11045000Y-6815000D01*
X13760000Y-4040000D02*
X13632000Y-3912000D01*
X13805000Y-5868750D02*
X13760000Y-5823750D01*
X13760000Y-5823750D02*
X13760000Y-4040000D01*
%TO.N,/~{RST}*%
X10340000Y-8070000D02*
X10340000Y-6345000D01*
X14825000Y-6345000D02*
X14825000Y-4910000D01*
X15415000Y-4905000D02*
X15415000Y-4425000D01*
%TO.N,/A13*%
X13575000Y-6420000D02*
X13505000Y-6350000D01*
X13632000Y-4297000D02*
X13632000Y-4420000D01*
X14840000Y-10301060D02*
X14840000Y-9514880D01*
X13610000Y-4275000D02*
X13632000Y-4297000D01*
X13505000Y-6350000D02*
X13505000Y-4320000D01*
X17835000Y-8470060D02*
X17918340Y-8386720D01*
X13575000Y-9640000D02*
X13575000Y-6420000D01*
X14840000Y-9514880D02*
X14838340Y-9513220D01*
X16726840Y-9517220D02*
X16725840Y-9518220D01*
X14768340Y-10627720D02*
X14768340Y-10372720D01*
X17918340Y-8386720D02*
X17918340Y-8010000D01*
X14766840Y-10629220D02*
X14768340Y-10627720D01*
X13505000Y-4320000D02*
X13550000Y-4275000D01*
X13550000Y-4275000D02*
X13610000Y-4275000D01*
X11186840Y-9511220D02*
X11190000Y-9514380D01*
X12822500Y-10464220D02*
X12822500Y-9641660D01*
X16725840Y-9518220D02*
X16725840Y-10606720D01*
X17835000Y-9620000D02*
X17835000Y-8470060D01*
X14768340Y-10372720D02*
X14840000Y-10301060D01*
X11190000Y-9514380D02*
X11190000Y-10626720D01*
X12822500Y-9641660D02*
X12820840Y-9640000D01*
%TO.N,/A20*%
X15785000Y-6440000D02*
X15790000Y-6435000D01*
X15790000Y-6435000D02*
X15790000Y-4038000D01*
X15790000Y-4038000D02*
X15664000Y-3912000D01*
X16975000Y-7610000D02*
X16975000Y-6440000D01*
%TO.N,/~{IPL1}*%
X10555000Y-7720000D02*
X10555000Y-4740000D01*
X14010000Y-4036000D02*
X13886000Y-3912000D01*
X14010000Y-4810000D02*
X14010000Y-4036000D01*
%TO.N,/A14*%
X15360840Y-9802380D02*
X15360840Y-10754220D01*
X15365000Y-9798220D02*
X15360840Y-9802380D01*
X13980000Y-7427500D02*
X13886000Y-7333500D01*
X13888340Y-10604220D02*
X14043340Y-10759220D01*
X14043340Y-10759220D02*
X14043340Y-10766720D01*
X13886000Y-10151880D02*
X13886000Y-8396500D01*
X18065840Y-10066720D02*
X17978340Y-10154220D01*
X18050000Y-7870000D02*
X18070000Y-7890000D01*
X13980000Y-8302500D02*
X13980000Y-7427500D01*
X17978340Y-10154220D02*
X17978340Y-10769220D01*
X18070000Y-7890000D02*
X18070000Y-10062560D01*
X18070000Y-10062560D02*
X18065840Y-10066720D01*
X13888340Y-10154220D02*
X13886000Y-10151880D01*
X13886000Y-7333500D02*
X13886000Y-4420000D01*
X13886000Y-8396500D02*
X13980000Y-8302500D01*
X13888340Y-10154220D02*
X13888340Y-10604220D01*
%TO.N,/~{HLT}*%
X11160000Y-4931920D02*
X11160000Y-7815000D01*
X11150600Y-4922520D02*
X11160000Y-4931920D01*
X11160000Y-7815000D02*
X11105000Y-7870000D01*
X15665000Y-5170000D02*
X15664000Y-5169000D01*
X15664000Y-5169000D02*
X15664000Y-4420000D01*
%TO.N,/A21*%
X16045000Y-4039000D02*
X15918000Y-3912000D01*
X16825000Y-7430000D02*
X16825000Y-5440000D01*
X16050000Y-5440000D02*
X16045000Y-5435000D01*
X16045000Y-5435000D02*
X16045000Y-4039000D01*
%TO.N,/A22*%
X9898340Y-5071660D02*
X9900000Y-5070000D01*
X9898340Y-6294220D02*
X9898340Y-5071660D01*
X17695000Y-4720000D02*
X17700000Y-4715000D01*
X17695000Y-7680000D02*
X17695000Y-4720000D01*
X14515000Y-4710000D02*
X14515000Y-5175000D01*
X15920000Y-4710000D02*
X15918000Y-4708000D01*
X15918000Y-4708000D02*
X15918000Y-4420000D01*
%TO.N,Net-(U11-DIS)*%
X9400000Y-10780000D02*
X9400000Y-12704489D01*
%TO.N,Net-(D3-A)*%
X8945000Y-8965840D02*
X8945000Y-10715000D01*
X8950840Y-8960000D02*
X8945000Y-8965840D01*
X10175000Y-7745000D02*
X10175000Y-9240000D01*
%TO.N,Net-(D3-K)*%
X9245000Y-10535000D02*
X9200000Y-10490000D01*
X9305000Y-10535000D02*
X9245000Y-10535000D01*
X9340000Y-10570000D02*
X9305000Y-10535000D01*
X9340000Y-10590000D02*
X9340000Y-10570000D01*
X9200000Y-10490000D02*
X9200000Y-8795000D01*
X9200000Y-8795000D02*
X9170000Y-8765000D01*
X9170000Y-8765000D02*
X8995000Y-8765000D01*
%TO.N,/A23*%
X10025840Y-5066013D02*
X10025840Y-6296720D01*
X16172000Y-5508000D02*
X16172000Y-4420000D01*
X9945840Y-4229220D02*
X9948340Y-4231720D01*
X18010000Y-7651720D02*
X18010000Y-5545000D01*
X16170000Y-5545000D02*
X16170000Y-5510000D01*
X16170000Y-5510000D02*
X16172000Y-5508000D01*
X9948340Y-4231720D02*
X9948340Y-4988513D01*
X9948340Y-4988513D02*
X10025840Y-5066013D01*
%TO.N,/D15*%
X17740840Y-9684220D02*
X17740840Y-8854220D01*
X11527500Y-11742500D02*
X11527500Y-12902500D01*
X11527500Y-12902500D02*
X11590000Y-12965000D01*
X16335000Y-5075000D02*
X16600000Y-5075000D01*
X16399853Y-7809853D02*
X16285000Y-7695000D01*
X16399853Y-8274853D02*
X16399853Y-7809853D01*
X16285000Y-7695000D02*
X16285000Y-5125000D01*
X11625780Y-11644220D02*
X11527500Y-11742500D01*
X17845000Y-13060000D02*
X17845000Y-11660060D01*
X16285000Y-5125000D02*
X16335000Y-5075000D01*
X17840840Y-9784220D02*
X17740840Y-9684220D01*
X17842500Y-9785880D02*
X17840840Y-9784220D01*
X16517500Y-8859220D02*
X16517500Y-8392500D01*
X16680000Y-4995000D02*
X16680000Y-4420000D01*
X17845000Y-11660060D02*
X17842500Y-11657560D01*
X17842500Y-11657560D02*
X17842500Y-9785880D01*
X16517500Y-8392500D02*
X16399853Y-8274853D01*
X16600000Y-5075000D02*
X16680000Y-4995000D01*
%TO.N,/A3*%
X10455000Y-4144220D02*
X10455000Y-7941720D01*
X10455000Y-11385000D02*
X10462530Y-11392530D01*
X10518340Y-8005060D02*
X10518340Y-9259220D01*
X15740000Y-7877500D02*
X15740000Y-10565060D01*
X10455000Y-9322560D02*
X10455000Y-11385000D01*
X10518340Y-9259220D02*
X10455000Y-9322560D01*
X15565840Y-10739220D02*
X15565840Y-11201720D01*
X15740000Y-10565060D02*
X15565840Y-10739220D01*
X10455000Y-7941720D02*
X10518340Y-8005060D01*
%TO.N,/A4*%
X11480000Y-9075000D02*
X11480000Y-6270000D01*
X15425000Y-7450000D02*
X15425000Y-11068380D01*
X15425000Y-11068380D02*
X15425840Y-11069220D01*
X14233636Y-11131720D02*
X14233636Y-10646424D01*
X11353340Y-12506720D02*
X11353340Y-11264220D01*
X11470000Y-4895000D02*
X11470000Y-4042000D01*
X11420000Y-6210000D02*
X11420000Y-4945000D01*
X12560840Y-11149220D02*
X12558340Y-11149220D01*
X11480000Y-6270000D02*
X11420000Y-6210000D01*
X12305000Y-11233000D02*
X12388780Y-11149220D01*
X11420000Y-4945000D02*
X11470000Y-4895000D01*
X12305000Y-12508380D02*
X12305000Y-11233000D01*
X11353340Y-11264220D02*
X11445000Y-11172560D01*
X12305840Y-12509220D02*
X12305000Y-12508380D01*
X11445000Y-9110000D02*
X11480000Y-9075000D01*
X11470000Y-4042000D02*
X11600000Y-3912000D01*
X12388780Y-11149220D02*
X12560840Y-11149220D01*
X14233636Y-10646424D02*
X14233340Y-10646128D01*
X11445000Y-11172560D02*
X11445000Y-9110000D01*
X14233340Y-10646128D02*
X14233340Y-10514220D01*
%TO.N,/A6*%
X13400840Y-11051720D02*
X13439033Y-11089913D01*
X11540000Y-9729220D02*
X11540000Y-11006720D01*
X11600000Y-7675000D02*
X11600000Y-4420000D01*
X13439033Y-11089913D02*
X13575000Y-11089913D01*
X11540000Y-7735000D02*
X11600000Y-7675000D01*
X13400840Y-10784220D02*
X13400840Y-11051720D01*
X15093840Y-7866000D02*
X15094840Y-7865000D01*
X13233840Y-10617220D02*
X13400840Y-10784220D01*
X11540000Y-9729220D02*
X11540000Y-7735000D01*
X15093840Y-10791220D02*
X15093840Y-7866000D01*
X13233840Y-9834220D02*
X13233840Y-10617220D01*
%TO.N,/A7*%
X13483340Y-11004220D02*
X13480840Y-11001720D01*
X16315000Y-10770720D02*
X16314000Y-10769720D01*
X12060000Y-8922560D02*
X12305000Y-8677560D01*
X16314000Y-7849000D02*
X16205000Y-7740000D01*
X16314000Y-10174880D02*
X16313340Y-10174220D01*
X16314000Y-10173560D02*
X16314000Y-7849000D01*
X10595000Y-9663220D02*
X10595000Y-10881720D01*
X12235000Y-4039000D02*
X12108000Y-3912000D01*
X13480840Y-11001720D02*
X13480840Y-10654220D01*
X12060000Y-9152500D02*
X12060000Y-8922560D01*
X10595000Y-9663220D02*
X10595000Y-9155000D01*
X12235000Y-4530000D02*
X12235000Y-4039000D01*
X16314000Y-10769720D02*
X16314000Y-10174880D01*
X12305000Y-8677560D02*
X12305000Y-4600000D01*
X13480840Y-9774220D02*
X13480840Y-10654220D01*
X16313340Y-10174220D02*
X16314000Y-10173560D01*
X12305000Y-4600000D02*
X12235000Y-4530000D01*
%TO.N,/A2*%
X10535000Y-9341720D02*
X10535000Y-11510940D01*
X15155840Y-11518220D02*
X15155840Y-10289220D01*
X15155840Y-10289220D02*
X15250000Y-10195060D01*
X10535000Y-11510940D02*
X10540780Y-11516720D01*
X15250000Y-10195060D02*
X15250000Y-9279220D01*
X15154840Y-11519220D02*
X15155840Y-11518220D01*
X15250000Y-9279220D02*
X15250000Y-8005000D01*
X11937500Y-8132500D02*
X12108000Y-7962000D01*
X12108000Y-7962000D02*
X12108000Y-4420000D01*
X11937500Y-9340060D02*
X11937500Y-8132500D01*
X11935840Y-9341720D02*
X11937500Y-9340060D01*
%TO.N,/D14*%
X17368340Y-11384220D02*
X17368340Y-8920729D01*
X16934000Y-5956000D02*
X16934000Y-4420000D01*
X17470000Y-8819069D02*
X17470000Y-8137560D01*
X17490840Y-11506720D02*
X17368340Y-11384220D01*
X17490840Y-11669220D02*
X17490840Y-11506720D01*
X17490000Y-8117560D02*
X17490000Y-5960000D01*
X17470000Y-8137560D02*
X17490000Y-8117560D01*
X17368340Y-8920729D02*
X17470000Y-8819069D01*
%TO.N,/R_W*%
X15487500Y-10625060D02*
X15485840Y-10626720D01*
X14400000Y-5865000D02*
X14400000Y-4995000D01*
X15487500Y-10206220D02*
X15487500Y-9700560D01*
X13576840Y-10131060D02*
X13576840Y-10280720D01*
X17060000Y-4040000D02*
X17188000Y-3912000D01*
X15487500Y-9700560D02*
X15488840Y-9699220D01*
X17060000Y-5855000D02*
X17060000Y-4040000D01*
X10270000Y-7640000D02*
X10270000Y-10565060D01*
X10270000Y-10565060D02*
X10268340Y-10566720D01*
X13575000Y-10129220D02*
X13576840Y-10131060D01*
X10270000Y-4945000D02*
X10270000Y-7640000D01*
X13576840Y-10280720D02*
X13545840Y-10311720D01*
X15487500Y-10206220D02*
X15487500Y-10625060D01*
%TO.N,/D13*%
X16857840Y-10327220D02*
X16857840Y-9791220D01*
X16795840Y-10389220D02*
X16857840Y-10327220D01*
X17188000Y-8519500D02*
X17188000Y-4420000D01*
X11590000Y-11945000D02*
X11590000Y-12865000D01*
X16795840Y-11984220D02*
X16795840Y-10389220D01*
X16920840Y-8786660D02*
X17188000Y-8519500D01*
X11590000Y-12865000D02*
X11591000Y-12866000D01*
X16795840Y-12776720D02*
X16795840Y-11984220D01*
X16857840Y-9791220D02*
X16920840Y-9728220D01*
X16920840Y-9728220D02*
X16920840Y-8786660D01*
%TO.N,/~{LDS}*%
X14575000Y-8160000D02*
X14575000Y-6890000D01*
X17315000Y-4039000D02*
X17442000Y-3912000D01*
X17305000Y-6890000D02*
X17315000Y-6880000D01*
X14515000Y-8220000D02*
X14575000Y-8160000D01*
X14515000Y-8440000D02*
X14515000Y-8220000D01*
X17315000Y-6880000D02*
X17315000Y-4039000D01*
%TO.N,/D12*%
X12720000Y-12679220D02*
X12720000Y-12155000D01*
X17442000Y-5307000D02*
X17442000Y-4420000D01*
X17238340Y-12599220D02*
X17220840Y-12616720D01*
X17445000Y-5310000D02*
X17442000Y-5307000D01*
X17238340Y-11661720D02*
X17238340Y-12599220D01*
X16645000Y-5320000D02*
X16645000Y-12615000D01*
X16655000Y-5310000D02*
X16645000Y-5320000D01*
%TO.N,/~{UDS}*%
X12767500Y-7472500D02*
X12767500Y-8567500D01*
X17820000Y-5765000D02*
X17820000Y-4030000D01*
X17820000Y-4030000D02*
X17702000Y-3912000D01*
X13340000Y-5765000D02*
X13340000Y-7470000D01*
%TO.N,/D11*%
X17310840Y-8921660D02*
X17430000Y-8802500D01*
X17430000Y-8802500D02*
X17430000Y-5525000D01*
X17430000Y-5525000D02*
X17490000Y-5465000D01*
X17110840Y-11681720D02*
X17110840Y-11681720D01*
X17110840Y-11659220D02*
X17110840Y-11578288D01*
X17696000Y-4561500D02*
X17696000Y-4420000D01*
X17585000Y-5430000D02*
X17585000Y-4672500D01*
X17585000Y-4672500D02*
X17696000Y-4561500D01*
X17490000Y-5465000D02*
X17550000Y-5465000D01*
X12085840Y-12664220D02*
X12085840Y-12266720D01*
X17110840Y-12696720D02*
X17110840Y-11659220D01*
X17110840Y-11578288D02*
X17310840Y-11378288D01*
X17550000Y-5465000D02*
X17585000Y-5430000D01*
X17310840Y-11378288D02*
X17310840Y-8921660D01*
%TO.N,/~{AS}*%
X11160000Y-9067500D02*
X11157500Y-9070000D01*
X14920000Y-8810000D02*
X14920000Y-8125000D01*
X18075000Y-6785000D02*
X18075000Y-4037000D01*
X14920000Y-6795000D02*
X14920000Y-8125000D01*
X11160000Y-8569220D02*
X11160000Y-9067500D01*
X18075000Y-4037000D02*
X17950000Y-3912000D01*
%TO.N,/D3*%
X18095840Y-12165000D02*
X18095840Y-11576720D01*
X13293340Y-12659220D02*
X13293340Y-11671720D01*
X18310000Y-4770000D02*
X18340000Y-4740000D01*
X18310000Y-11362560D02*
X18310000Y-4770000D01*
X18095840Y-11576720D02*
X18310000Y-11362560D01*
%TO.N,/D10*%
X13040840Y-12559220D02*
X13042500Y-12557560D01*
X13170000Y-7625000D02*
X13170000Y-5405000D01*
X13042500Y-9222560D02*
X13210000Y-9055060D01*
X18335000Y-4615000D02*
X18335000Y-4043000D01*
X14725000Y-5405000D02*
X14725000Y-4640000D01*
X13210000Y-9055060D02*
X13210000Y-7665000D01*
X13210000Y-7665000D02*
X13170000Y-7625000D01*
X18335000Y-4043000D02*
X18204000Y-3912000D01*
X18340000Y-4620000D02*
X18335000Y-4615000D01*
X13042500Y-12557560D02*
X13042500Y-9222560D01*
X16858340Y-12476720D02*
X16858340Y-11669220D01*
%TO.N,/D8*%
X13635000Y-5862500D02*
X13670000Y-5827500D01*
X16380840Y-11921720D02*
X16375840Y-11916720D01*
X13633340Y-12254220D02*
X13635000Y-12252560D01*
X13670000Y-4575060D02*
X13673340Y-4571720D01*
X16375840Y-11661720D02*
X16378340Y-11659220D01*
X16375840Y-11916720D02*
X16375840Y-11661720D01*
X13635000Y-12252560D02*
X13635000Y-5862500D01*
X13670000Y-5827500D02*
X13670000Y-4575060D01*
%TO.N,/D0*%
X18205000Y-8635000D02*
X18204000Y-8634000D01*
X13130000Y-9027560D02*
X13130000Y-8672500D01*
X12968340Y-11654220D02*
X12967500Y-11653380D01*
X13130000Y-7745000D02*
X13130000Y-8672500D01*
X18204000Y-8634000D02*
X18204000Y-4420000D01*
X12967500Y-11653380D02*
X12967500Y-9190060D01*
X12967500Y-9190060D02*
X13130000Y-9027560D01*
%TO.N,/D4*%
X17830000Y-5905000D02*
X17830000Y-7638380D01*
X18034220Y-7739220D02*
X18127500Y-7832500D01*
X18200000Y-11390060D02*
X18028340Y-11561720D01*
X18127500Y-9187647D02*
X18200000Y-9260147D01*
X17830000Y-7638380D02*
X17930840Y-7739220D01*
X13420840Y-12516720D02*
X13423340Y-12519220D01*
X18028340Y-12095840D02*
X18032500Y-12100000D01*
X17930840Y-7739220D02*
X18034220Y-7739220D01*
X18200000Y-9260147D02*
X18200000Y-11390060D01*
X13420840Y-11671720D02*
X13420840Y-12516720D01*
X18127500Y-7832500D02*
X18127500Y-9187647D01*
X18028340Y-11561720D02*
X18028340Y-12095840D01*
%TO.N,/D9*%
X16735840Y-12344220D02*
X16735840Y-11676720D01*
X12895840Y-12354220D02*
X12895000Y-12353380D01*
X18585000Y-5645000D02*
X18585000Y-4039000D01*
X18585000Y-4039000D02*
X18458000Y-3912000D01*
X12895000Y-12353380D02*
X12895000Y-5645000D01*
%TO.N,/D2*%
X18700000Y-6600000D02*
X18660000Y-6560000D01*
X18660000Y-6560000D02*
X18660000Y-6124020D01*
X17045840Y-11586720D02*
X17145000Y-11487560D01*
X17145000Y-11487560D02*
X17145000Y-9347500D01*
X18700000Y-9537500D02*
X18700000Y-6600000D01*
X14278340Y-12539220D02*
X14278340Y-12029220D01*
X18710000Y-6074020D02*
X18710000Y-4422000D01*
X17048340Y-12539220D02*
X17045840Y-12536720D01*
X17045840Y-12536720D02*
X17045840Y-11586720D01*
X18660000Y-6124020D02*
X18710000Y-6074020D01*
%TO.N,/D6*%
X19220000Y-4060000D02*
X19220000Y-3912000D01*
X19090000Y-5745000D02*
X19090000Y-4135000D01*
X19130000Y-4095000D02*
X19185000Y-4095000D01*
X18515000Y-11390060D02*
X18515000Y-5855000D01*
X18980000Y-5775000D02*
X19060000Y-5775000D01*
X18333340Y-11571720D02*
X18515000Y-11390060D01*
X18515000Y-5855000D02*
X18590000Y-5780000D01*
X19090000Y-4135000D02*
X19130000Y-4095000D01*
X19060000Y-5775000D02*
X19090000Y-5745000D01*
X19185000Y-4095000D02*
X19220000Y-4060000D01*
%TO.N,/D1*%
X12758340Y-11895752D02*
X12758340Y-9481720D01*
X14568340Y-9441720D02*
X14568340Y-10527720D01*
X12758340Y-9481720D02*
X12800840Y-9439220D01*
X13405000Y-7935000D02*
X13340000Y-7870000D01*
X14795840Y-10755220D02*
X14795840Y-11899220D01*
X13340000Y-7870000D02*
X13340000Y-7620000D01*
X13403340Y-9441720D02*
X13405000Y-9440060D01*
X18458000Y-9553720D02*
X18458000Y-4420000D01*
X12760840Y-11898252D02*
X12758340Y-11895752D01*
X14568340Y-10527720D02*
X14795840Y-10755220D01*
X13405000Y-9440060D02*
X13405000Y-7935000D01*
X18455000Y-9556720D02*
X18458000Y-9553720D01*
%TO.N,/D5*%
X17485000Y-12705000D02*
X17772500Y-12992500D01*
X17488340Y-12204220D02*
X17485000Y-12207560D01*
X17772500Y-12992500D02*
X17777500Y-12992500D01*
X17485000Y-12207560D02*
X17485000Y-12705000D01*
X13545840Y-11671720D02*
X13545840Y-12419220D01*
%TO.N,Net-(JP1-A)*%
X14447500Y-8467500D02*
X14447500Y-7947500D01*
X14447500Y-7947500D02*
X14375000Y-7875000D01*
X10395840Y-8576720D02*
X10395840Y-8959220D01*
X14512500Y-8532500D02*
X14447500Y-8467500D01*
%TO.N,Net-(JP2-A)*%
X14785000Y-6795000D02*
X14785000Y-8002000D01*
%TD*%
M02*
