%TF.GenerationSoftware,KiCad,Pcbnew,9.0.0*%
%TF.CreationDate,2025-03-08T11:07:18+01:00*%
%TF.ProjectId,DeMoN-Flash-J,44654d6f-4e2d-4466-9c61-73682d4a2e6b,rev?*%
%TF.SameCoordinates,Original*%
%TF.FileFunction,Copper,L1,Top*%
%TF.FilePolarity,Positive*%
%FSLAX45Y45*%
G04 Gerber Fmt 4.5, Leading zero omitted, Abs format (unit mm)*
G04 Created by KiCad (PCBNEW 9.0.0) date 2025-03-08 11:07:18*
%MOMM*%
%LPD*%
G01*
G04 APERTURE LIST*
G04 Aperture macros list*
%AMRoundRect*
0 Rectangle with rounded corners*
0 $1 Rounding radius*
0 $2 $3 $4 $5 $6 $7 $8 $9 X,Y pos of 4 corners*
0 Add a 4 corners polygon primitive as box body*
4,1,4,$2,$3,$4,$5,$6,$7,$8,$9,$2,$3,0*
0 Add four circle primitives for the rounded corners*
1,1,$1+$1,$2,$3*
1,1,$1+$1,$4,$5*
1,1,$1+$1,$6,$7*
1,1,$1+$1,$8,$9*
0 Add four rect primitives between the rounded corners*
20,1,$1+$1,$2,$3,$4,$5,0*
20,1,$1+$1,$4,$5,$6,$7,0*
20,1,$1+$1,$6,$7,$8,$9,0*
20,1,$1+$1,$8,$9,$2,$3,0*%
%AMFreePoly0*
4,1,23,0.550000,-0.750000,0.000000,-0.750000,0.000000,-0.745722,-0.065263,-0.745722,-0.191342,-0.711940,-0.304381,-0.646677,-0.396677,-0.554381,-0.461940,-0.441342,-0.495722,-0.315263,-0.495722,-0.250000,-0.500000,-0.250000,-0.500000,0.250000,-0.495722,0.250000,-0.495722,0.315263,-0.461940,0.441342,-0.396677,0.554381,-0.304381,0.646677,-0.191342,0.711940,-0.065263,0.745722,0.000000,0.745722,
0.000000,0.750000,0.550000,0.750000,0.550000,-0.750000,0.550000,-0.750000,$1*%
%AMFreePoly1*
4,1,23,0.000000,0.745722,0.065263,0.745722,0.191342,0.711940,0.304381,0.646677,0.396677,0.554381,0.461940,0.441342,0.495722,0.315263,0.495722,0.250000,0.500000,0.250000,0.500000,-0.250000,0.495722,-0.250000,0.495722,-0.315263,0.461940,-0.441342,0.396677,-0.554381,0.304381,-0.646677,0.191342,-0.711940,0.065263,-0.745722,0.000000,-0.745722,0.000000,-0.750000,-0.550000,-0.750000,
-0.550000,0.750000,0.000000,0.750000,0.000000,0.745722,0.000000,0.745722,$1*%
G04 Aperture macros list end*
%TA.AperFunction,EtchedComponent*%
%ADD10C,0.000000*%
%TD*%
%TA.AperFunction,ComponentPad*%
%ADD11R,1.500000X1.500000*%
%TD*%
%TA.AperFunction,ComponentPad*%
%ADD12C,1.600000*%
%TD*%
%TA.AperFunction,ComponentPad*%
%ADD13C,1.500000*%
%TD*%
%TA.AperFunction,ComponentPad*%
%ADD14R,1.600000X1.600000*%
%TD*%
%TA.AperFunction,ComponentPad*%
%ADD15R,1.800000X1.800000*%
%TD*%
%TA.AperFunction,ComponentPad*%
%ADD16C,1.800000*%
%TD*%
%TA.AperFunction,SMDPad,CuDef*%
%ADD17RoundRect,0.250000X-0.412500X-0.650000X0.412500X-0.650000X0.412500X0.650000X-0.412500X0.650000X0*%
%TD*%
%TA.AperFunction,ComponentPad*%
%ADD18R,1.700000X1.700000*%
%TD*%
%TA.AperFunction,ComponentPad*%
%ADD19O,1.700000X1.700000*%
%TD*%
%TA.AperFunction,SMDPad,CuDef*%
%ADD20R,0.700000X1.925000*%
%TD*%
%TA.AperFunction,SMDPad,CuDef*%
%ADD21R,1.925000X0.700000*%
%TD*%
%TA.AperFunction,SMDPad,CuDef*%
%ADD22R,1.981000X0.457000*%
%TD*%
%TA.AperFunction,SMDPad,CuDef*%
%ADD23RoundRect,0.250000X-0.625000X0.400000X-0.625000X-0.400000X0.625000X-0.400000X0.625000X0.400000X0*%
%TD*%
%TA.AperFunction,SMDPad,CuDef*%
%ADD24RoundRect,0.250000X-0.650000X0.412500X-0.650000X-0.412500X0.650000X-0.412500X0.650000X0.412500X0*%
%TD*%
%TA.AperFunction,ComponentPad*%
%ADD25C,1.635000*%
%TD*%
%TA.AperFunction,SMDPad,CuDef*%
%ADD26RoundRect,0.250000X0.412500X0.650000X-0.412500X0.650000X-0.412500X-0.650000X0.412500X-0.650000X0*%
%TD*%
%TA.AperFunction,SMDPad,CuDef*%
%ADD27RoundRect,0.150000X-0.150000X-0.587500X0.150000X-0.587500X0.150000X0.587500X-0.150000X0.587500X0*%
%TD*%
%TA.AperFunction,SMDPad,CuDef*%
%ADD28RoundRect,0.150000X-0.587500X-0.150000X0.587500X-0.150000X0.587500X0.150000X-0.587500X0.150000X0*%
%TD*%
%TA.AperFunction,SMDPad,CuDef*%
%ADD29RoundRect,0.150000X-0.150000X1.350000X-0.150000X-1.350000X0.150000X-1.350000X0.150000X1.350000X0*%
%TD*%
%TA.AperFunction,ComponentPad*%
%ADD30C,4.575000*%
%TD*%
%TA.AperFunction,SMDPad,CuDef*%
%ADD31RoundRect,0.150000X-0.825000X-0.150000X0.825000X-0.150000X0.825000X0.150000X-0.825000X0.150000X0*%
%TD*%
%TA.AperFunction,SMDPad,CuDef*%
%ADD32FreePoly0,0.000000*%
%TD*%
%TA.AperFunction,SMDPad,CuDef*%
%ADD33R,1.000000X1.500000*%
%TD*%
%TA.AperFunction,SMDPad,CuDef*%
%ADD34FreePoly1,0.000000*%
%TD*%
%TA.AperFunction,SMDPad,CuDef*%
%ADD35RoundRect,0.250001X0.624999X-0.462499X0.624999X0.462499X-0.624999X0.462499X-0.624999X-0.462499X0*%
%TD*%
%TA.AperFunction,SMDPad,CuDef*%
%ADD36RoundRect,0.250000X-0.400000X-0.625000X0.400000X-0.625000X0.400000X0.625000X-0.400000X0.625000X0*%
%TD*%
%TA.AperFunction,ViaPad*%
%ADD37C,0.600000*%
%TD*%
%TA.AperFunction,Conductor*%
%ADD38C,0.200000*%
%TD*%
%TA.AperFunction,Conductor*%
%ADD39C,0.400000*%
%TD*%
G04 APERTURE END LIST*
D10*
%TA.AperFunction,EtchedComponent*%
%TO.C,JP3*%
G36*
X9988340Y-6531720D02*
G01*
X9938340Y-6531720D01*
X9938340Y-6471720D01*
X9988340Y-6471720D01*
X9988340Y-6531720D01*
G37*
%TD.AperFunction*%
%TD*%
D11*
%TO.P,SW2,1,B*%
%TO.N,Net-(D1-K)*%
X18850000Y-10169000D03*
D12*
%TO.P,SW2,2,C*%
%TO.N,GND*%
X18850000Y-10423000D03*
%TO.P,SW2,3,A*%
%TO.N,Net-(D1-K)*%
X18850000Y-9915000D03*
%TD*%
D11*
%TO.P,Q2,1,D*%
%TO.N,Net-(JP3-C)*%
X8890000Y-6920000D03*
D13*
%TO.P,Q2,2,G*%
%TO.N,Net-(Q1-G)*%
X8890000Y-7174000D03*
%TO.P,Q2,3,S*%
%TO.N,+5V*%
X8890000Y-7428000D03*
%TD*%
D14*
%TO.P,C1,1*%
%TO.N,Net-(U11-DIS)*%
X9400000Y-12694489D03*
D12*
%TO.P,C1,2*%
%TO.N,GND*%
X9400000Y-12944489D03*
%TD*%
D15*
%TO.P,D2,1,K*%
%TO.N,GND*%
X9445000Y-9922500D03*
D16*
%TO.P,D2,2,A*%
%TO.N,Net-(D2-A)*%
X9445000Y-10176500D03*
%TD*%
D17*
%TO.P,C10,1*%
%TO.N,GND*%
X11266590Y-9972220D03*
%TO.P,C10,2*%
%TO.N,+5V*%
X11579090Y-9972220D03*
%TD*%
D11*
%TO.P,Q1,1,D*%
%TO.N,Net-(JP3-C)*%
X9260000Y-6920000D03*
D13*
%TO.P,Q1,2,G*%
%TO.N,Net-(Q1-G)*%
X9260000Y-7174000D03*
%TO.P,Q1,3,S*%
%TO.N,+5V*%
X9260000Y-7428000D03*
%TD*%
D18*
%TO.P,JP1,1,A*%
%TO.N,Net-(JP1-A)*%
X8912840Y-8134220D03*
D19*
%TO.P,JP1,2,C*%
%TO.N,Net-(JP1-C)*%
X9166840Y-8134220D03*
%TO.P,JP1,3,B*%
%TO.N,Net-(JP1-B)*%
X9420840Y-8134220D03*
%TD*%
D20*
%TO.P,U4,1,I1/CLK*%
%TO.N,Net-(U2-IO1)*%
X12240000Y-7469750D03*
%TO.P,U4,2,I2*%
%TO.N,Net-(U2-IO7)*%
X12113000Y-7469750D03*
%TO.P,U4,3,I3*%
%TO.N,Net-(U2-IO8)*%
X11986000Y-7469750D03*
D21*
%TO.P,U4,4,I4*%
%TO.N,Net-(U3-IO2)*%
X11834750Y-7621000D03*
%TO.P,U4,5,I5*%
%TO.N,Net-(U3-I03)*%
X11834750Y-7748000D03*
%TO.P,U4,6,I6*%
%TO.N,/~{OE}*%
X11834750Y-7875000D03*
%TO.P,U4,7,I7*%
%TO.N,/~{AS}*%
X11834750Y-8002000D03*
%TO.P,U4,8,I8*%
%TO.N,/~{UDS}*%
X11834750Y-8129000D03*
D20*
%TO.P,U4,9,I9*%
%TO.N,/~{LDS}*%
X11986000Y-8280250D03*
%TO.P,U4,10,GND*%
%TO.N,GND*%
X12113000Y-8280250D03*
%TO.P,U4,11,I10/~{OE}*%
%TO.N,Net-(JP1-C)*%
X12240000Y-8280250D03*
%TO.P,U4,12,IO8*%
%TO.N,Net-(U4-IO8)*%
X12367000Y-8280250D03*
%TO.P,U4,13,IO7*%
%TO.N,Net-(U2-I8)*%
X12494000Y-8280250D03*
D21*
%TO.P,U4,14,IO6*%
%TO.N,Net-(U2-I9)*%
X12645250Y-8129000D03*
%TO.P,U4,15,IO5*%
%TO.N,Net-(U4-IO5)*%
X12645250Y-8002000D03*
%TO.P,U4,16,IO4*%
%TO.N,Net-(U4-IO4)*%
X12645250Y-7875000D03*
%TO.P,U4,17,I03*%
%TO.N,/D0*%
X12645250Y-7748000D03*
%TO.P,U4,18,IO2*%
%TO.N,/D1*%
X12645250Y-7621000D03*
D20*
%TO.P,U4,19,IO1*%
%TO.N,Net-(U10-~{CE})*%
X12494000Y-7469750D03*
%TO.P,U4,20,VCC*%
%TO.N,+5V*%
X12367000Y-7469750D03*
%TD*%
D15*
%TO.P,SW1,1,1*%
%TO.N,Net-(U3-I6)*%
X9167750Y-11537750D03*
D16*
%TO.P,SW1,2,2*%
%TO.N,GND*%
X9667750Y-11537750D03*
%TO.P,SW1,3,3*%
%TO.N,Net-(U3-I6)*%
X9167750Y-12037750D03*
%TO.P,SW1,4,4*%
%TO.N,GND*%
X9667750Y-12037750D03*
%TD*%
D22*
%TO.P,U8,1,A17*%
%TO.N,/A18*%
X14494440Y-10247500D03*
%TO.P,U8,2,A16*%
%TO.N,/A17*%
X14494440Y-10374500D03*
%TO.P,U8,3,A14*%
%TO.N,/A15*%
X14494440Y-10501500D03*
%TO.P,U8,4,A12*%
%TO.N,/A13*%
X14494440Y-10628500D03*
%TO.P,U8,5,A7*%
%TO.N,/A8*%
X14494440Y-10755500D03*
%TO.P,U8,6,A6*%
%TO.N,/A7*%
X14494440Y-10882500D03*
%TO.P,U8,7,A5*%
%TO.N,/A6*%
X14494440Y-11009500D03*
%TO.P,U8,8,A4*%
%TO.N,/A5*%
X14494440Y-11136500D03*
%TO.P,U8,9,A3*%
%TO.N,/A4*%
X14494440Y-11263500D03*
%TO.P,U8,10,A2*%
%TO.N,/A3*%
X14494440Y-11390500D03*
%TO.P,U8,11,A1*%
%TO.N,/A2*%
X14494440Y-11517500D03*
%TO.P,U8,12,A0*%
%TO.N,/A1*%
X14494440Y-11644500D03*
%TO.P,U8,13,I/O0*%
%TO.N,/D0*%
X14494440Y-11771500D03*
%TO.P,U8,14,I/O1*%
%TO.N,/D1*%
X14494440Y-11898500D03*
%TO.P,U8,15,I/O2*%
%TO.N,/D2*%
X14494440Y-12025500D03*
%TO.P,U8,16,GND*%
%TO.N,GND*%
X14494440Y-12152500D03*
%TO.P,U8,17,I/O3*%
%TO.N,/D3*%
X15817240Y-12152500D03*
%TO.P,U8,18,I/O4*%
%TO.N,/D4*%
X15817240Y-12025500D03*
%TO.P,U8,19,I/O5*%
%TO.N,/D5*%
X15817240Y-11898500D03*
%TO.P,U8,20,I/O6*%
%TO.N,/D6*%
X15817240Y-11771500D03*
%TO.P,U8,21,I/O7*%
%TO.N,/D7*%
X15817240Y-11644500D03*
%TO.P,U8,22,~{CE}*%
%TO.N,Net-(U4-IO4)*%
X15817240Y-11517500D03*
%TO.P,U8,23,A10*%
%TO.N,/A11*%
X15817240Y-11390500D03*
%TO.P,U8,24,~{OE}*%
%TO.N,/~{OE}*%
X15817240Y-11263500D03*
%TO.P,U8,25,A11*%
%TO.N,/A12*%
X15817240Y-11136500D03*
%TO.P,U8,26,A9*%
%TO.N,/A10*%
X15817240Y-11009500D03*
%TO.P,U8,27,A8*%
%TO.N,/A9*%
X15817240Y-10882500D03*
%TO.P,U8,28,A13*%
%TO.N,/A14*%
X15817240Y-10755500D03*
%TO.P,U8,29,~{WE}*%
%TO.N,/R_W*%
X15817240Y-10628500D03*
%TO.P,U8,30,A18*%
%TO.N,/A19*%
X15817240Y-10501500D03*
%TO.P,U8,31,A15*%
%TO.N,/A16*%
X15817240Y-10374500D03*
%TO.P,U8,32,VDD*%
%TO.N,+5V*%
X15817240Y-10247500D03*
%TD*%
D23*
%TO.P,R3,1*%
%TO.N,Net-(D1-A)*%
X18330000Y-8975000D03*
%TO.P,R3,2*%
%TO.N,+5V*%
X18330000Y-9285000D03*
%TD*%
D24*
%TO.P,C2,1*%
%TO.N,+5V*%
X10240000Y-11158750D03*
%TO.P,C2,2*%
%TO.N,GND*%
X10240000Y-11471250D03*
%TD*%
D25*
%TO.P,CN1,1,1*%
%TO.N,GND*%
X8806000Y-4420000D03*
%TO.P,CN1,2,2*%
X8806000Y-3912000D03*
%TO.P,CN1,3,3*%
X9060000Y-4420000D03*
%TO.P,CN1,4,4*%
X9060000Y-3912000D03*
%TO.P,CN1,5,5*%
%TO.N,unconnected-(CN1-Pad5)*%
X9314000Y-4420000D03*
%TO.P,CN1,6,6*%
%TO.N,+5V*%
X9314000Y-3912000D03*
%TO.P,CN1,7,7*%
%TO.N,unconnected-(CN1-Pad7)*%
X9568000Y-4420000D03*
%TO.P,CN1,8,8*%
%TO.N,unconnected-(CN1-Pad8)*%
X9568000Y-3912000D03*
%TO.P,CN1,9,9*%
%TO.N,unconnected-(CN1-Pad9)*%
X9822000Y-4420000D03*
%TO.P,CN1,10,10*%
%TO.N,unconnected-(CN1-Pad10)*%
X9822000Y-3912000D03*
%TO.P,CN1,11,11*%
%TO.N,unconnected-(CN1-Pad11)*%
X10076000Y-4420000D03*
%TO.P,CN1,12,12*%
%TO.N,unconnected-(CN1-Pad12)*%
X10076000Y-3912000D03*
%TO.P,CN1,13,13*%
%TO.N,unconnected-(CN1-Pad13)*%
X10330000Y-4420000D03*
%TO.P,CN1,14,14*%
%TO.N,unconnected-(CN1-Pad14)*%
X10330000Y-3912000D03*
%TO.P,CN1,15,15*%
%TO.N,unconnected-(CN1-Pad15)*%
X10584000Y-4420000D03*
%TO.P,CN1,16,16*%
%TO.N,unconnected-(CN1-Pad16)*%
X10584000Y-3912000D03*
%TO.P,CN1,17,17*%
%TO.N,unconnected-(CN1-Pad17)*%
X10838000Y-4420000D03*
%TO.P,CN1,18,18*%
%TO.N,unconnected-(CN1-Pad18)*%
X10838000Y-3912000D03*
%TO.P,CN1,19,19*%
%TO.N,unconnected-(CN1-Pad19)*%
X11092000Y-4420000D03*
%TO.P,CN1,20,20*%
%TO.N,unconnected-(CN1-Pad20)*%
X11092000Y-3912000D03*
%TO.P,CN1,21,21*%
%TO.N,/A5*%
X11346000Y-4420000D03*
%TO.P,CN1,22,22*%
%TO.N,unconnected-(CN1-Pad22)*%
X11346000Y-3912000D03*
%TO.P,CN1,23,23*%
%TO.N,/A6*%
X11600000Y-4420000D03*
%TO.P,CN1,24,24*%
%TO.N,/A4*%
X11600000Y-3912000D03*
%TO.P,CN1,25,25*%
%TO.N,unconnected-(CN1-Pad25)*%
X11854000Y-4420000D03*
%TO.P,CN1,26,26*%
%TO.N,/A3*%
X11854000Y-3912000D03*
%TO.P,CN1,27,27*%
%TO.N,/A2*%
X12108000Y-4420000D03*
%TO.P,CN1,28,28*%
%TO.N,/A7*%
X12108000Y-3912000D03*
%TO.P,CN1,29,29*%
%TO.N,/A1*%
X12362000Y-4420000D03*
%TO.P,CN1,30,30*%
%TO.N,/A8*%
X12362000Y-3912000D03*
%TO.P,CN1,31,31*%
%TO.N,/~{FC0}*%
X12616000Y-4420000D03*
%TO.P,CN1,32,32*%
%TO.N,/A9*%
X12616000Y-3912000D03*
%TO.P,CN1,33,33*%
%TO.N,/~{FC1}*%
X12870000Y-4420000D03*
%TO.P,CN1,34,34*%
%TO.N,/A10*%
X12870000Y-3912000D03*
%TO.P,CN1,35,35*%
%TO.N,unconnected-(CN1-Pad35)*%
X13124000Y-4420000D03*
%TO.P,CN1,36,36*%
%TO.N,/A11*%
X13124000Y-3912000D03*
%TO.P,CN1,37,37*%
%TO.N,unconnected-(CN1-Pad37)*%
X13378000Y-4420000D03*
%TO.P,CN1,38,38*%
%TO.N,/A12*%
X13378000Y-3912000D03*
%TO.P,CN1,39,39*%
%TO.N,/A13*%
X13632000Y-4420000D03*
%TO.P,CN1,40,40*%
%TO.N,/~{IPL0}*%
X13632000Y-3912000D03*
%TO.P,CN1,41,41*%
%TO.N,/A14*%
X13886000Y-4420000D03*
%TO.P,CN1,42,42*%
%TO.N,/~{IPL1}*%
X13886000Y-3912000D03*
%TO.P,CN1,43,43*%
%TO.N,/A15*%
X14140000Y-4420000D03*
%TO.P,CN1,44,44*%
%TO.N,/~{IPL2}*%
X14140000Y-3912000D03*
%TO.P,CN1,45,45*%
%TO.N,/A16*%
X14394000Y-4420000D03*
%TO.P,CN1,46,46*%
%TO.N,unconnected-(CN1-Pad46)*%
X14394000Y-3912000D03*
%TO.P,CN1,47,47*%
%TO.N,/A17*%
X14648000Y-4420000D03*
%TO.P,CN1,48,48*%
%TO.N,unconnected-(CN1-Pad48)*%
X14648000Y-3912000D03*
%TO.P,CN1,49,49*%
%TO.N,unconnected-(CN1-Pad49)*%
X14902000Y-4420000D03*
%TO.P,CN1,50,50*%
%TO.N,unconnected-(CN1-Pad50)*%
X14902000Y-3912000D03*
%TO.P,CN1,51,51*%
%TO.N,unconnected-(CN1-Pad51)*%
X15156000Y-4420000D03*
%TO.P,CN1,52,52*%
%TO.N,/A18*%
X15156000Y-3912000D03*
%TO.P,CN1,53,53*%
%TO.N,/~{RST}*%
X15410000Y-4420000D03*
%TO.P,CN1,54,54*%
%TO.N,/A19*%
X15410000Y-3912000D03*
%TO.P,CN1,55,55*%
%TO.N,/~{HLT}*%
X15664000Y-4420000D03*
%TO.P,CN1,56,56*%
%TO.N,/A20*%
X15664000Y-3912000D03*
%TO.P,CN1,57,57*%
%TO.N,/A22*%
X15918000Y-4420000D03*
%TO.P,CN1,58,58*%
%TO.N,/A21*%
X15918000Y-3912000D03*
%TO.P,CN1,59,59*%
%TO.N,/A23*%
X16172000Y-4420000D03*
%TO.P,CN1,60,60*%
%TO.N,unconnected-(CN1-Pad60)*%
X16172000Y-3912000D03*
%TO.P,CN1,61,61*%
%TO.N,unconnected-(CN1-Pad61)*%
X16426000Y-4420000D03*
%TO.P,CN1,62,62*%
%TO.N,unconnected-(CN1-Pad62)*%
X16426000Y-3912000D03*
%TO.P,CN1,63,63*%
%TO.N,/D15*%
X16680000Y-4420000D03*
%TO.P,CN1,64,64*%
%TO.N,unconnected-(CN1-Pad64)*%
X16680000Y-3912000D03*
%TO.P,CN1,65,65*%
%TO.N,/D14*%
X16934000Y-4420000D03*
%TO.P,CN1,66,66*%
%TO.N,unconnected-(CN1-Pad66)*%
X16934000Y-3912000D03*
%TO.P,CN1,67,67*%
%TO.N,/D13*%
X17188000Y-4420000D03*
%TO.P,CN1,68,68*%
%TO.N,/R_W*%
X17188000Y-3912000D03*
%TO.P,CN1,69,69*%
%TO.N,/D12*%
X17442000Y-4420000D03*
%TO.P,CN1,70,70*%
%TO.N,/~{LDS}*%
X17442000Y-3912000D03*
%TO.P,CN1,71,71*%
%TO.N,/D11*%
X17696000Y-4420000D03*
%TO.P,CN1,72,72*%
%TO.N,/~{UDS}*%
X17696000Y-3912000D03*
%TO.P,CN1,73,73*%
%TO.N,GND*%
X17950000Y-4420000D03*
%TO.P,CN1,74,74*%
%TO.N,/~{AS}*%
X17950000Y-3912000D03*
%TO.P,CN1,75,75*%
%TO.N,/D0*%
X18204000Y-4420000D03*
%TO.P,CN1,76,76*%
%TO.N,/D10*%
X18204000Y-3912000D03*
%TO.P,CN1,77,77*%
%TO.N,/D1*%
X18458000Y-4420000D03*
%TO.P,CN1,78,78*%
%TO.N,/D9*%
X18458000Y-3912000D03*
%TO.P,CN1,79,79*%
%TO.N,/D2*%
X18712000Y-4420000D03*
%TO.P,CN1,80,80*%
%TO.N,/D8*%
X18712000Y-3912000D03*
%TO.P,CN1,81,81*%
%TO.N,/D3*%
X18966000Y-4420000D03*
%TO.P,CN1,82,82*%
%TO.N,/D7*%
X18966000Y-3912000D03*
%TO.P,CN1,83,83*%
%TO.N,/D4*%
X19220000Y-4420000D03*
%TO.P,CN1,84,84*%
%TO.N,/D6*%
X19220000Y-3912000D03*
%TO.P,CN1,85,85*%
%TO.N,unconnected-(CN1-Pad85)*%
X19474000Y-4420000D03*
%TO.P,CN1,86,86*%
%TO.N,/D5*%
X19474000Y-3912000D03*
%TD*%
D26*
%TO.P,C7,1*%
%TO.N,+5V*%
X17267090Y-10000000D03*
%TO.P,C7,2*%
%TO.N,GND*%
X16954590Y-10000000D03*
%TD*%
D23*
%TO.P,R1,1*%
%TO.N,/~{HLT}*%
X15405000Y-5170000D03*
%TO.P,R1,2*%
%TO.N,+5V*%
X15405000Y-5480000D03*
%TD*%
D26*
%TO.P,C4,1*%
%TO.N,GND*%
X15791250Y-7065000D03*
%TO.P,C4,2*%
%TO.N,+5V*%
X15478750Y-7065000D03*
%TD*%
D27*
%TO.P,U9,1,NC_1*%
%TO.N,unconnected-(U9-NC_1-Pad1)*%
X17110840Y-10467970D03*
%TO.P,U9,2,A16*%
%TO.N,/A17*%
X16983840Y-10467970D03*
%TO.P,U9,3,A15*%
%TO.N,/A16*%
X16856840Y-10467970D03*
%TO.P,U9,4,A12*%
%TO.N,/A13*%
X16729840Y-10467970D03*
D28*
%TO.P,U9,5,A7*%
%TO.N,/A8*%
X16554590Y-10643720D03*
%TO.P,U9,6,A6*%
%TO.N,/A7*%
X16554590Y-10770720D03*
%TO.P,U9,7,A5*%
%TO.N,/A6*%
X16554590Y-10897720D03*
%TO.P,U9,8,A4*%
%TO.N,/A5*%
X16554590Y-11024720D03*
%TO.P,U9,9,A3*%
%TO.N,/A4*%
X16554590Y-11151720D03*
%TO.P,U9,10,A2*%
%TO.N,/A3*%
X16554590Y-11278720D03*
%TO.P,U9,11,A1*%
%TO.N,/A2*%
X16554590Y-11405720D03*
%TO.P,U9,12,A0*%
%TO.N,/A1*%
X16554590Y-11532720D03*
%TO.P,U9,13,I/O0*%
%TO.N,/D8*%
X16554590Y-11659720D03*
D27*
%TO.P,U9,14,I/O1*%
%TO.N,/D9*%
X16729840Y-11835470D03*
%TO.P,U9,15,I/O2*%
%TO.N,/D10*%
X16856840Y-11835470D03*
%TO.P,U9,16,GND*%
%TO.N,GND*%
X16983840Y-11835470D03*
%TO.P,U9,17,I/O3*%
%TO.N,/D11*%
X17110840Y-11835470D03*
%TO.P,U9,18,I/O4*%
%TO.N,/D12*%
X17237840Y-11835470D03*
%TO.P,U9,19,I/O5*%
%TO.N,/D13*%
X17364840Y-11835470D03*
%TO.P,U9,20,I/O6*%
%TO.N,/D14*%
X17491840Y-11835470D03*
D28*
%TO.P,U9,21,I/O7*%
%TO.N,/D15*%
X17667090Y-11659720D03*
%TO.P,U9,22,~{CE}*%
%TO.N,Net-(U4-IO5)*%
X17667090Y-11532720D03*
%TO.P,U9,23,A10*%
%TO.N,/A11*%
X17667090Y-11405720D03*
%TO.P,U9,24,~{OE}*%
%TO.N,/~{OE}*%
X17667090Y-11278720D03*
%TO.P,U9,25,A11*%
%TO.N,/A12*%
X17667090Y-11151720D03*
%TO.P,U9,26,A9*%
%TO.N,/A10*%
X17667090Y-11024720D03*
%TO.P,U9,27,A8*%
%TO.N,/A9*%
X17667090Y-10897720D03*
%TO.P,U9,28,A13*%
%TO.N,/A14*%
X17667090Y-10770720D03*
%TO.P,U9,29,A14*%
%TO.N,/A15*%
X17667090Y-10643720D03*
D27*
%TO.P,U9,30,NC_2*%
%TO.N,unconnected-(U9-NC_2-Pad30)*%
X17491840Y-10467970D03*
%TO.P,U9,31,~{WE}*%
%TO.N,/R_W*%
X17364840Y-10467970D03*
%TO.P,U9,32,VCC*%
%TO.N,+5V*%
X17237840Y-10467970D03*
%TD*%
D23*
%TO.P,R6,1*%
%TO.N,+5V*%
X9195000Y-9230000D03*
%TO.P,R6,2*%
%TO.N,Net-(U3-I6)*%
X9195000Y-9540000D03*
%TD*%
D14*
%TO.P,C6,1*%
%TO.N,Net-(D3-K)*%
X8995000Y-8765000D03*
D12*
%TO.P,C6,2*%
%TO.N,GND*%
X8745000Y-8765000D03*
%TD*%
D26*
%TO.P,C9,1*%
%TO.N,+5V*%
X13456090Y-10000000D03*
%TO.P,C9,2*%
%TO.N,GND*%
X13143590Y-10000000D03*
%TD*%
D20*
%TO.P,U3,1,I1/CLK*%
%TO.N,Net-(U2-IO1)*%
X14140000Y-7469750D03*
%TO.P,U3,2,I2*%
%TO.N,Net-(U2-IO7)*%
X14013000Y-7469750D03*
%TO.P,U3,3,I3*%
%TO.N,Net-(U2-IO8)*%
X13886000Y-7469750D03*
D21*
%TO.P,U3,4,I4*%
%TO.N,/~{UDS}*%
X13734750Y-7621000D03*
%TO.P,U3,5,I5*%
%TO.N,Net-(U3-I5)*%
X13734750Y-7748000D03*
%TO.P,U3,6,I6*%
%TO.N,Net-(U3-I6)*%
X13734750Y-7875000D03*
%TO.P,U3,7,I7*%
%TO.N,/~{FC0}*%
X13734750Y-8002000D03*
%TO.P,U3,8,I8*%
%TO.N,Net-(U2-IO6)*%
X13734750Y-8129000D03*
D20*
%TO.P,U3,9,I9*%
%TO.N,/~{OE}*%
X13886000Y-8280250D03*
%TO.P,U3,10,GND*%
%TO.N,GND*%
X14013000Y-8280250D03*
%TO.P,U3,11,I10/~{OE}*%
%TO.N,/~{LDS}*%
X14140000Y-8280250D03*
%TO.P,U3,12,IO8*%
%TO.N,unconnected-(U3-IO8-Pad12)*%
X14267000Y-8280250D03*
%TO.P,U3,13,IO7*%
%TO.N,unconnected-(U3-IO7-Pad13)*%
X14394000Y-8280250D03*
D21*
%TO.P,U3,14,IO6*%
%TO.N,/~{AS}*%
X14545250Y-8129000D03*
%TO.P,U3,15,IO5*%
%TO.N,Net-(JP2-A)*%
X14545250Y-8002000D03*
%TO.P,U3,16,IO4*%
%TO.N,Net-(JP1-A)*%
X14545250Y-7875000D03*
%TO.P,U3,17,I03*%
%TO.N,Net-(U3-I03)*%
X14545250Y-7748000D03*
%TO.P,U3,18,IO2*%
%TO.N,Net-(U3-IO2)*%
X14545250Y-7621000D03*
D20*
%TO.P,U3,19,IO1*%
%TO.N,unconnected-(U3-IO1-Pad19)*%
X14394000Y-7469750D03*
%TO.P,U3,20,VCC*%
%TO.N,+5V*%
X14267000Y-7469750D03*
%TD*%
D22*
%TO.P,U10,32,VDD*%
%TO.N,+5V*%
X12082240Y-10247500D03*
%TO.P,U10,31,A15*%
%TO.N,/A16*%
X12082240Y-10374500D03*
%TO.P,U10,30,A18*%
%TO.N,/A19*%
X12082240Y-10501500D03*
%TO.P,U10,29,~{WE}*%
%TO.N,/R_W*%
X12082240Y-10628500D03*
%TO.P,U10,28,A13*%
%TO.N,/A14*%
X12082240Y-10755500D03*
%TO.P,U10,27,A8*%
%TO.N,/A9*%
X12082240Y-10882500D03*
%TO.P,U10,26,A9*%
%TO.N,/A10*%
X12082240Y-11009500D03*
%TO.P,U10,25,A11*%
%TO.N,/A12*%
X12082240Y-11136500D03*
%TO.P,U10,24,~{OE}*%
%TO.N,/~{OE}*%
X12082240Y-11263500D03*
%TO.P,U10,23,A10*%
%TO.N,/A11*%
X12082240Y-11390500D03*
%TO.P,U10,22,~{CE}*%
%TO.N,Net-(U10-~{CE})*%
X12082240Y-11517500D03*
%TO.P,U10,21,I/O7*%
%TO.N,/D15*%
X12082240Y-11644500D03*
%TO.P,U10,20,I/O6*%
%TO.N,/D14*%
X12082240Y-11771500D03*
%TO.P,U10,19,I/O5*%
%TO.N,/D13*%
X12082240Y-11898500D03*
%TO.P,U10,18,I/O4*%
%TO.N,/D12*%
X12082240Y-12025500D03*
%TO.P,U10,17,I/O3*%
%TO.N,/D11*%
X12082240Y-12152500D03*
%TO.P,U10,16,GND*%
%TO.N,GND*%
X10759440Y-12152500D03*
%TO.P,U10,15,I/O2*%
%TO.N,/D10*%
X10759440Y-12025500D03*
%TO.P,U10,14,I/O1*%
%TO.N,/D9*%
X10759440Y-11898500D03*
%TO.P,U10,13,I/O0*%
%TO.N,/D8*%
X10759440Y-11771500D03*
%TO.P,U10,12,A0*%
%TO.N,/A1*%
X10759440Y-11644500D03*
%TO.P,U10,11,A1*%
%TO.N,/A2*%
X10759440Y-11517500D03*
%TO.P,U10,10,A2*%
%TO.N,/A3*%
X10759440Y-11390500D03*
%TO.P,U10,9,A3*%
%TO.N,/A4*%
X10759440Y-11263500D03*
%TO.P,U10,8,A4*%
%TO.N,/A5*%
X10759440Y-11136500D03*
%TO.P,U10,7,A5*%
%TO.N,/A6*%
X10759440Y-11009500D03*
%TO.P,U10,6,A6*%
%TO.N,/A7*%
X10759440Y-10882500D03*
%TO.P,U10,5,A7*%
%TO.N,/A8*%
X10759440Y-10755500D03*
%TO.P,U10,4,A12*%
%TO.N,/A13*%
X10759440Y-10628500D03*
%TO.P,U10,3,A14*%
%TO.N,/A15*%
X10759440Y-10501500D03*
%TO.P,U10,2,A16*%
%TO.N,/A17*%
X10759440Y-10374500D03*
%TO.P,U10,1,A17*%
%TO.N,/A18*%
X10759440Y-10247500D03*
%TD*%
D15*
%TO.P,D1,1,K*%
%TO.N,Net-(D1-K)*%
X18885000Y-9270000D03*
D16*
%TO.P,D1,2,A*%
%TO.N,Net-(D1-A)*%
X18885000Y-9016000D03*
%TD*%
D20*
%TO.P,U1,1,I1/CLK*%
%TO.N,/A23*%
X17820000Y-7459750D03*
%TO.P,U1,2,I2*%
%TO.N,/A22*%
X17693000Y-7459750D03*
%TO.P,U1,3,I3*%
%TO.N,/A21*%
X17566000Y-7459750D03*
D21*
%TO.P,U1,4,I4*%
%TO.N,/A20*%
X17414750Y-7611000D03*
%TO.P,U1,5,I5*%
%TO.N,/A18*%
X17414750Y-7738000D03*
%TO.P,U1,6,I6*%
%TO.N,/A16*%
X17414750Y-7865000D03*
%TO.P,U1,7,I7*%
%TO.N,/A14*%
X17414750Y-7992000D03*
%TO.P,U1,8,I8*%
%TO.N,/A12*%
X17414750Y-8119000D03*
D20*
%TO.P,U1,9,I9*%
%TO.N,/A10*%
X17566000Y-8270250D03*
%TO.P,U1,10,GND*%
%TO.N,GND*%
X17693000Y-8270250D03*
%TO.P,U1,11,I10/~{OE}*%
%TO.N,/A9*%
X17820000Y-8270250D03*
%TO.P,U1,12,IO8*%
%TO.N,Net-(U1-IO8)*%
X17947000Y-8270250D03*
%TO.P,U1,13,IO7*%
%TO.N,/A11*%
X18074000Y-8270250D03*
D21*
%TO.P,U1,14,IO6*%
%TO.N,/A13*%
X18225250Y-8119000D03*
%TO.P,U1,15,IO5*%
%TO.N,/A15*%
X18225250Y-7992000D03*
%TO.P,U1,16,IO4*%
%TO.N,/A17*%
X18225250Y-7865000D03*
%TO.P,U1,17,I03*%
%TO.N,/A19*%
X18225250Y-7738000D03*
%TO.P,U1,18,IO2*%
%TO.N,Net-(U1-IO2)*%
X18225250Y-7611000D03*
D20*
%TO.P,U1,19,IO1*%
%TO.N,Net-(U1-IO1)*%
X18074000Y-7459750D03*
%TO.P,U1,20,VCC*%
%TO.N,+5V*%
X17947000Y-7459750D03*
%TD*%
%TO.P,U5,1,I1/CLK*%
%TO.N,/~{AS}*%
X10400000Y-7464750D03*
%TO.P,U5,2,I2*%
%TO.N,/R_W*%
X10273000Y-7464750D03*
%TO.P,U5,3,I3*%
%TO.N,Net-(Q1-G)*%
X10146000Y-7464750D03*
D21*
%TO.P,U5,4,I4*%
%TO.N,Net-(JP2-C)*%
X9994750Y-7616000D03*
%TO.P,U5,5,I5*%
%TO.N,Net-(D3-A)*%
X9994750Y-7743000D03*
%TO.P,U5,6,I6*%
%TO.N,Net-(D1-K)*%
X9994750Y-7870000D03*
%TO.P,U5,7,I7*%
%TO.N,Net-(U5-I7)*%
X9994750Y-7997000D03*
%TO.P,U5,8,I8*%
%TO.N,/~{RST}*%
X9994750Y-8124000D03*
D20*
%TO.P,U5,9,I9*%
%TO.N,unconnected-(U5-I9-Pad9)*%
X10146000Y-8275250D03*
%TO.P,U5,10,GND*%
%TO.N,GND*%
X10273000Y-8275250D03*
%TO.P,U5,11,I10/~{OE}*%
%TO.N,Net-(JP1-A)*%
X10400000Y-8275250D03*
%TO.P,U5,12,IO8*%
%TO.N,/~{OE}*%
X10527000Y-8275250D03*
%TO.P,U5,13,IO7*%
%TO.N,Net-(U3-I5)*%
X10654000Y-8275250D03*
D21*
%TO.P,U5,14,IO6*%
%TO.N,Net-(U5-IO6)*%
X10805250Y-8124000D03*
%TO.P,U5,15,IO5*%
%TO.N,Net-(U5-IO5)*%
X10805250Y-7997000D03*
%TO.P,U5,16,IO4*%
%TO.N,/~{HLT}*%
X10805250Y-7870000D03*
%TO.P,U5,17,I03*%
%TO.N,/~{IPL0}*%
X10805250Y-7743000D03*
%TO.P,U5,18,IO2*%
%TO.N,/~{IPL1}*%
X10805250Y-7616000D03*
D20*
%TO.P,U5,19,IO1*%
%TO.N,/~{IPL2}*%
X10654000Y-7464750D03*
%TO.P,U5,20,VCC*%
%TO.N,+5V*%
X10527000Y-7464750D03*
%TD*%
D24*
%TO.P,C3,1*%
%TO.N,+5V*%
X18320000Y-10613750D03*
%TO.P,C3,2*%
%TO.N,GND*%
X18320000Y-10926250D03*
%TD*%
D29*
%TO.P,U6,1,~{R}*%
%TO.N,+5V*%
X11976000Y-5310000D03*
%TO.P,U6,2,D*%
%TO.N,GND*%
X11849000Y-5310000D03*
%TO.P,U6,3,C*%
%TO.N,Net-(U5-I7)*%
X11722000Y-5310000D03*
%TO.P,U6,4,~{S}*%
%TO.N,Net-(U5-IO5)*%
X11595000Y-5310000D03*
%TO.P,U6,5,Q*%
%TO.N,Net-(Q1-G)*%
X11468000Y-5310000D03*
%TO.P,U6,6,~{Q}*%
%TO.N,unconnected-(U6A-~{Q}-Pad6)*%
X11341000Y-5310000D03*
%TO.P,U6,7,GND*%
%TO.N,GND*%
X11214000Y-5310000D03*
%TO.P,U6,8,~{Q}*%
%TO.N,Net-(U6B-D)*%
X11214000Y-5900000D03*
%TO.P,U6,9,Q*%
%TO.N,Net-(U5-I7)*%
X11341000Y-5900000D03*
%TO.P,U6,10,~{S}*%
%TO.N,Net-(U5-IO5)*%
X11468000Y-5900000D03*
%TO.P,U6,11,C*%
%TO.N,Net-(U5-IO6)*%
X11595000Y-5900000D03*
%TO.P,U6,12,D*%
%TO.N,Net-(U6B-D)*%
X11722000Y-5900000D03*
%TO.P,U6,13,~{R}*%
%TO.N,+5V*%
X11849000Y-5900000D03*
%TO.P,U6,14,VCC*%
X11976000Y-5900000D03*
%TD*%
D16*
%TO.P,VR1,1,CCW*%
%TO.N,+5V*%
X18595840Y-12644220D03*
%TO.P,VR1,2,WIPER*%
X18845840Y-12644220D03*
%TO.P,VR1,3,CW*%
%TO.N,Net-(U11-DIS)*%
X19095840Y-12644220D03*
D30*
%TO.P,VR1,MH1,MH1*%
%TO.N,unconnected-(VR1-PadMH1)*%
X18405840Y-11944220D03*
%TO.P,VR1,MH2,MH2*%
%TO.N,unconnected-(VR1-PadMH2)*%
X19285840Y-11944220D03*
%TD*%
D27*
%TO.P,U7,1,NC_1*%
%TO.N,unconnected-(U7-NC_1-Pad1)*%
X13293340Y-10462970D03*
%TO.P,U7,2,A16*%
%TO.N,/A17*%
X13166340Y-10462970D03*
%TO.P,U7,3,A15*%
%TO.N,/A16*%
X13039340Y-10462970D03*
%TO.P,U7,4,A12*%
%TO.N,/A13*%
X12912340Y-10462970D03*
D28*
%TO.P,U7,5,A7*%
%TO.N,/A8*%
X12737090Y-10638720D03*
%TO.P,U7,6,A6*%
%TO.N,/A7*%
X12737090Y-10765720D03*
%TO.P,U7,7,A5*%
%TO.N,/A6*%
X12737090Y-10892720D03*
%TO.P,U7,8,A4*%
%TO.N,/A5*%
X12737090Y-11019720D03*
%TO.P,U7,9,A3*%
%TO.N,/A4*%
X12737090Y-11146720D03*
%TO.P,U7,10,A2*%
%TO.N,/A3*%
X12737090Y-11273720D03*
%TO.P,U7,11,A1*%
%TO.N,/A2*%
X12737090Y-11400720D03*
%TO.P,U7,12,A0*%
%TO.N,/A1*%
X12737090Y-11527720D03*
%TO.P,U7,13,I/O0*%
%TO.N,/D0*%
X12737090Y-11654720D03*
D27*
%TO.P,U7,14,I/O1*%
%TO.N,/D1*%
X12912340Y-11830470D03*
%TO.P,U7,15,I/O2*%
%TO.N,/D2*%
X13039340Y-11830470D03*
%TO.P,U7,16,GND*%
%TO.N,GND*%
X13166340Y-11830470D03*
%TO.P,U7,17,I/O3*%
%TO.N,/D3*%
X13293340Y-11830470D03*
%TO.P,U7,18,I/O4*%
%TO.N,/D4*%
X13420340Y-11830470D03*
%TO.P,U7,19,I/O5*%
%TO.N,/D5*%
X13547340Y-11830470D03*
%TO.P,U7,20,I/O6*%
%TO.N,/D6*%
X13674340Y-11830470D03*
D28*
%TO.P,U7,21,I/O7*%
%TO.N,/D7*%
X13849590Y-11654720D03*
%TO.P,U7,22,~{CE}*%
%TO.N,Net-(U4-IO8)*%
X13849590Y-11527720D03*
%TO.P,U7,23,A10*%
%TO.N,/A11*%
X13849590Y-11400720D03*
%TO.P,U7,24,~{OE}*%
%TO.N,/~{OE}*%
X13849590Y-11273720D03*
%TO.P,U7,25,A11*%
%TO.N,/A12*%
X13849590Y-11146720D03*
%TO.P,U7,26,A9*%
%TO.N,/A10*%
X13849590Y-11019720D03*
%TO.P,U7,27,A8*%
%TO.N,/A9*%
X13849590Y-10892720D03*
%TO.P,U7,28,A13*%
%TO.N,/A14*%
X13849590Y-10765720D03*
%TO.P,U7,29,A14*%
%TO.N,/A15*%
X13849590Y-10638720D03*
D27*
%TO.P,U7,30,NC_2*%
%TO.N,unconnected-(U7-NC_2-Pad30)*%
X13674340Y-10462970D03*
%TO.P,U7,31,~{WE}*%
%TO.N,/R_W*%
X13547340Y-10462970D03*
%TO.P,U7,32,VCC*%
%TO.N,+5V*%
X13420340Y-10462970D03*
%TD*%
D31*
%TO.P,U11,1,GND*%
%TO.N,GND*%
X9152500Y-10464500D03*
%TO.P,U11,2,TR*%
%TO.N,Net-(D3-K)*%
X9152500Y-10591500D03*
%TO.P,U11,3,Q*%
%TO.N,Net-(D3-A)*%
X9152500Y-10718500D03*
%TO.P,U11,4,R*%
%TO.N,+5V*%
X9152500Y-10845500D03*
%TO.P,U11,5,CV*%
%TO.N,unconnected-(U11-CV-Pad5)*%
X9647500Y-10845500D03*
%TO.P,U11,6,THR*%
%TO.N,Net-(U11-DIS)*%
X9647500Y-10718500D03*
%TO.P,U11,7,DIS*%
X9647500Y-10591500D03*
%TO.P,U11,8,VCC*%
%TO.N,+5V*%
X9647500Y-10464500D03*
%TD*%
D23*
%TO.P,R7,1*%
%TO.N,Net-(D2-A)*%
X8810000Y-9230000D03*
%TO.P,R7,2*%
%TO.N,+5V*%
X8810000Y-9540000D03*
%TD*%
D32*
%TO.P,JP3,1,A*%
%TO.N,/A22*%
X9898340Y-6501720D03*
D33*
%TO.P,JP3,2,C*%
%TO.N,Net-(JP3-C)*%
X10028340Y-6501720D03*
D34*
%TO.P,JP3,3,B*%
%TO.N,/A23*%
X10158340Y-6501720D03*
%TD*%
D35*
%TO.P,D3,1,K*%
%TO.N,Net-(D3-K)*%
X9970000Y-9533750D03*
%TO.P,D3,2,A*%
%TO.N,Net-(D3-A)*%
X9970000Y-9236250D03*
%TD*%
D23*
%TO.P,R4,1*%
%TO.N,Net-(D1-K)*%
X18320000Y-9910000D03*
%TO.P,R4,2*%
%TO.N,+5V*%
X18320000Y-10220000D03*
%TD*%
D18*
%TO.P,JP2,1,A*%
%TO.N,Net-(JP2-A)*%
X8916840Y-7769220D03*
D19*
%TO.P,JP2,2,C*%
%TO.N,Net-(JP2-C)*%
X9170840Y-7769220D03*
%TO.P,JP2,3,B*%
%TO.N,+5V*%
X9424840Y-7769220D03*
%TD*%
D26*
%TO.P,C8,1*%
%TO.N,+5V*%
X15305090Y-9972220D03*
%TO.P,C8,2*%
%TO.N,GND*%
X14992590Y-9972220D03*
%TD*%
D23*
%TO.P,R2,1*%
%TO.N,/~{RST}*%
X15015000Y-5170000D03*
%TO.P,R2,2*%
%TO.N,+5V*%
X15015000Y-5480000D03*
%TD*%
D36*
%TO.P,R8,1*%
%TO.N,GND*%
X9438340Y-8681720D03*
%TO.P,R8,2*%
%TO.N,Net-(JP1-B)*%
X9748340Y-8681720D03*
%TD*%
D20*
%TO.P,U2,1,I1/CLK*%
%TO.N,/A8*%
X15975000Y-7469750D03*
%TO.P,U2,2,I2*%
%TO.N,/A7*%
X15848000Y-7469750D03*
%TO.P,U2,3,I3*%
%TO.N,/A4*%
X15721000Y-7469750D03*
D21*
%TO.P,U2,4,I4*%
%TO.N,/A6*%
X15569750Y-7621000D03*
%TO.P,U2,5,I5*%
%TO.N,/A5*%
X15569750Y-7748000D03*
%TO.P,U2,6,I6*%
%TO.N,/A3*%
X15569750Y-7875000D03*
%TO.P,U2,7,I7*%
%TO.N,/A2*%
X15569750Y-8002000D03*
%TO.P,U2,8,I8*%
%TO.N,Net-(U2-I8)*%
X15569750Y-8129000D03*
D20*
%TO.P,U2,9,I9*%
%TO.N,Net-(U2-I9)*%
X15721000Y-8280250D03*
%TO.P,U2,10,GND*%
%TO.N,GND*%
X15848000Y-8280250D03*
%TO.P,U2,11,I10/~{OE}*%
%TO.N,/~{FC1}*%
X15975000Y-8280250D03*
%TO.P,U2,12,IO8*%
%TO.N,Net-(U2-IO8)*%
X16102000Y-8280250D03*
%TO.P,U2,13,IO7*%
%TO.N,Net-(U2-IO7)*%
X16229000Y-8280250D03*
D21*
%TO.P,U2,14,IO6*%
%TO.N,Net-(U2-IO6)*%
X16380250Y-8129000D03*
%TO.P,U2,15,IO5*%
%TO.N,/A1*%
X16380250Y-8002000D03*
%TO.P,U2,16,IO4*%
%TO.N,Net-(U1-IO1)*%
X16380250Y-7875000D03*
%TO.P,U2,17,I03*%
%TO.N,Net-(U1-IO2)*%
X16380250Y-7748000D03*
%TO.P,U2,18,IO2*%
%TO.N,Net-(U1-IO8)*%
X16380250Y-7621000D03*
D20*
%TO.P,U2,19,IO1*%
%TO.N,Net-(U2-IO1)*%
X16229000Y-7469750D03*
%TO.P,U2,20,VCC*%
%TO.N,+5V*%
X16102000Y-7469750D03*
%TD*%
D26*
%TO.P,C5,1*%
%TO.N,+5V*%
X9071250Y-4860000D03*
%TO.P,C5,2*%
%TO.N,GND*%
X8758750Y-4860000D03*
%TD*%
D23*
%TO.P,R5,1*%
%TO.N,Net-(D3-A)*%
X9575000Y-9230000D03*
%TO.P,R5,2*%
%TO.N,Net-(D3-K)*%
X9575000Y-9540000D03*
%TD*%
D37*
%TO.N,Net-(U3-I6)*%
X13330000Y-8005000D03*
X13330000Y-8607500D03*
X9060000Y-9810000D03*
%TO.N,Net-(U10-~{CE})*%
X12720000Y-7330000D03*
X11325000Y-6440000D03*
X12715000Y-6440000D03*
X11275840Y-11579220D03*
%TO.N,Net-(U2-IO1)*%
X11885000Y-6125000D03*
X16385000Y-6125000D03*
X16385000Y-7470000D03*
X14380000Y-7710000D03*
X12010000Y-7765000D03*
X14490000Y-6125000D03*
%TO.N,/A5*%
X16103340Y-10941720D03*
X11360000Y-11135060D03*
X16025000Y-9758220D03*
X11360840Y-10691720D03*
X15802500Y-7752500D03*
%TO.N,/A8*%
X14318340Y-10756720D03*
X16225840Y-10644220D03*
X16118340Y-9581220D03*
X12248340Y-9706720D03*
X11705000Y-6250000D03*
X16065000Y-7650000D03*
X11705000Y-9590220D03*
X14319840Y-9579220D03*
X11985000Y-6250000D03*
X11105840Y-9598220D03*
X11840840Y-10951720D03*
X11105840Y-10754220D03*
%TO.N,/~{IPL2}*%
X10655000Y-4605000D03*
X10655000Y-7245000D03*
X14270000Y-4715000D03*
%TO.N,/A15*%
X14708340Y-10501720D03*
X14708840Y-9638220D03*
X14140840Y-9744220D03*
%TO.N,GND*%
X15875000Y-8629220D03*
X14992840Y-10153220D03*
X15875000Y-7980000D03*
X16943840Y-10225220D03*
X17950000Y-5225000D03*
X18085840Y-12894220D03*
X13168340Y-11664220D03*
X18665000Y-11000000D03*
X9611360Y-5542280D03*
X10829840Y-8791720D03*
X12010000Y-7885000D03*
X9610000Y-11320000D03*
X8745000Y-10465000D03*
X14702560Y-12152500D03*
X17345000Y-8700000D03*
X16945840Y-12894220D03*
X8740000Y-11330000D03*
X15630000Y-7060000D03*
X9610160Y-8221720D03*
X16983340Y-11666720D03*
X10827840Y-9787220D03*
X13168340Y-12957500D03*
X12601840Y-8437220D03*
X15875000Y-5225000D03*
X17350000Y-8465000D03*
X14709120Y-12957500D03*
X11870840Y-8789220D03*
X12600840Y-10156220D03*
%TO.N,+5V*%
X18855000Y-10695000D03*
X10765000Y-7145000D03*
X15635000Y-8960000D03*
X18140000Y-9285000D03*
X9788000Y-7770220D03*
X14043340Y-9901720D03*
X9795000Y-5640000D03*
X9440000Y-4865000D03*
X13419840Y-10316220D03*
X17235840Y-8939220D03*
X18140000Y-10220000D03*
X10170000Y-10460000D03*
X14043340Y-8955000D03*
X11785000Y-7250000D03*
X10175000Y-9355000D03*
X11780000Y-5640000D03*
X12323340Y-10249220D03*
X17233340Y-10222220D03*
X13310840Y-10003220D03*
X10170000Y-10139220D03*
X15635000Y-10251720D03*
X9788000Y-7428000D03*
X12323340Y-8951720D03*
X10765000Y-5640000D03*
X10170000Y-10970000D03*
X15635000Y-9871220D03*
%TO.N,/~{OE}*%
X14035840Y-11274220D03*
X17555840Y-9798073D03*
X11625000Y-8569220D03*
X11625000Y-11261720D03*
X11630000Y-7875000D03*
X13793340Y-10238220D03*
X13795000Y-8337500D03*
X17488340Y-11278720D03*
%TO.N,Net-(U4-IO4)*%
X15350000Y-6460000D03*
X15478340Y-11516720D03*
X13075000Y-6460000D03*
X13040000Y-7875000D03*
X15573340Y-8625000D03*
X15350000Y-8625000D03*
%TO.N,Net-(U4-IO5)*%
X13000000Y-8000000D03*
X17005000Y-8791720D03*
X13008340Y-8871720D03*
X17010000Y-11500000D03*
%TO.N,/A1*%
X11710840Y-11761720D03*
X16375840Y-11532720D03*
X16375000Y-8360000D03*
%TO.N,Net-(U4-IO8)*%
X12002500Y-9575000D03*
X14018340Y-11529220D03*
X13715000Y-9580000D03*
X12205000Y-7965000D03*
%TO.N,/A16*%
X16797840Y-10234220D03*
X16735000Y-7865000D03*
X16735000Y-6230000D03*
X13105840Y-9506720D03*
X14325000Y-6230000D03*
X11891840Y-9506720D03*
X13104840Y-10651220D03*
X13430000Y-6230000D03*
X11785840Y-10374500D03*
X13515000Y-9504220D03*
%TO.N,Net-(U2-I8)*%
X13717500Y-8602500D03*
X13717500Y-8260000D03*
X14780000Y-8205000D03*
X14772500Y-8625000D03*
%TO.N,Net-(U2-I9)*%
X14662500Y-9120000D03*
X14665000Y-8315000D03*
X12835000Y-9117500D03*
X12835000Y-8195000D03*
%TO.N,Net-(JP1-C)*%
X12178340Y-8109220D03*
X12079663Y-8720544D03*
%TO.N,/A9*%
X14886840Y-10991220D03*
X13189840Y-10761220D03*
X13323340Y-11126794D03*
X17493340Y-10897720D03*
X14886840Y-10735220D03*
X11729525Y-10881749D03*
X17720840Y-8091720D03*
%TO.N,Net-(U2-IO7)*%
X12010000Y-7645000D03*
X14040000Y-6635000D03*
X14367500Y-8602500D03*
X14040000Y-7675000D03*
X14370000Y-8080000D03*
X12010000Y-6635000D03*
%TO.N,Net-(U2-IO8)*%
X15010000Y-7145000D03*
X13780000Y-7390000D03*
X15010000Y-8490000D03*
X13780000Y-7145000D03*
%TO.N,Net-(U3-IO2)*%
X14670000Y-7060000D03*
X14670000Y-7510000D03*
%TO.N,Net-(U3-I03)*%
X15250000Y-7750000D03*
X15255000Y-6985000D03*
%TO.N,Net-(U3-I5)*%
X13435000Y-7770000D03*
X10950000Y-8520000D03*
X13435000Y-6540000D03*
X10950000Y-6540000D03*
%TO.N,Net-(U2-IO6)*%
X13720000Y-5985000D03*
X13910000Y-8127500D03*
X16485000Y-5985000D03*
X16517500Y-8252500D03*
%TO.N,/~{FC0}*%
X12605000Y-8227500D03*
%TO.N,/A17*%
X11013620Y-10374500D03*
X14872840Y-10374500D03*
X17902500Y-10830720D03*
X14925987Y-9369220D03*
X11008340Y-9579220D03*
X14645000Y-6530000D03*
X17902500Y-9209220D03*
%TO.N,Net-(U1-IO8)*%
X16825000Y-7620000D03*
X16825000Y-8560000D03*
%TO.N,Net-(U1-IO2)*%
X16900000Y-7750000D03*
X16900000Y-7065000D03*
%TO.N,/A18*%
X17080000Y-7740000D03*
X17080000Y-6340000D03*
X10369120Y-10247500D03*
X15280000Y-6335000D03*
X10368340Y-9241720D03*
X14780000Y-10246720D03*
X14778340Y-9186720D03*
X16850840Y-9114220D03*
%TO.N,Net-(U1-IO1)*%
X16585000Y-7105000D03*
X16585000Y-7875000D03*
%TO.N,Net-(Q1-G)*%
X10145000Y-5100320D03*
X10145000Y-7170000D03*
X10145000Y-6810000D03*
%TO.N,Net-(D1-K)*%
X18575000Y-9910000D03*
X17962500Y-8865000D03*
X17977500Y-9670000D03*
X18575000Y-9270000D03*
X10590000Y-7870000D03*
X10590000Y-8995000D03*
%TO.N,/A19*%
X16018340Y-10501720D03*
X17583340Y-9056720D03*
X12350840Y-10501500D03*
X15540000Y-6620000D03*
X17795000Y-7738380D03*
X12400840Y-9054220D03*
X15925840Y-9054220D03*
%TO.N,/A10*%
X15227500Y-10439220D03*
X12460840Y-10959720D03*
X17602500Y-8092500D03*
X17433340Y-11024720D03*
X14110840Y-11019220D03*
X15235840Y-11009220D03*
X14115840Y-10439220D03*
%TO.N,/~{FC1}*%
X15975000Y-6705000D03*
X12790000Y-6705000D03*
X15975000Y-8065000D03*
%TO.N,Net-(U5-I7)*%
X9705000Y-6090920D03*
X11720000Y-5074920D03*
X11717020Y-4818380D03*
X10914380Y-6090920D03*
X10916920Y-4856480D03*
X9705000Y-8000000D03*
%TO.N,Net-(U5-IO5)*%
X11250000Y-7995000D03*
X11250000Y-6172200D03*
X11530000Y-6173800D03*
X11529060Y-5071420D03*
%TO.N,Net-(U5-IO6)*%
X10870000Y-6245860D03*
X10870000Y-8315000D03*
%TO.N,/A11*%
X11600073Y-13059926D03*
X11482610Y-11392896D03*
X17925000Y-13082500D03*
X13000000Y-4910000D03*
X14240000Y-4910000D03*
X19085000Y-11410000D03*
X14173340Y-11400720D03*
X17955840Y-11409220D03*
X19085000Y-8495000D03*
%TO.N,/A12*%
X17310000Y-8250000D03*
X17072090Y-11152970D03*
X13105840Y-11213559D03*
%TO.N,/~{IPL0}*%
X13805000Y-6810000D03*
X11045000Y-7745000D03*
X11045000Y-6815000D03*
%TO.N,/~{RST}*%
X10340000Y-6345000D03*
X14825000Y-6345000D03*
X14825000Y-4910000D03*
X10340000Y-8070000D03*
X15415000Y-4905000D03*
%TO.N,/A13*%
X17918340Y-8010000D03*
X11190000Y-10626720D03*
X17835000Y-9620000D03*
X16726840Y-9517220D03*
X14838340Y-9513220D03*
X14768840Y-10628220D03*
X11186840Y-9511220D03*
X13575000Y-9640000D03*
X12822500Y-10464220D03*
X16725840Y-10606720D03*
X12820840Y-9640000D03*
%TO.N,/A20*%
X16975000Y-6440000D03*
X16975000Y-7610000D03*
X15785000Y-6440000D03*
%TO.N,/~{IPL1}*%
X10555000Y-7720000D03*
X10555000Y-4740000D03*
X14010000Y-4810000D03*
%TO.N,/A14*%
X15360840Y-10754220D03*
X15365000Y-9798220D03*
X17978340Y-10769220D03*
X13888340Y-10154220D03*
X18050000Y-7870000D03*
X14043340Y-10766720D03*
%TO.N,/~{HLT}*%
X15665000Y-5170000D03*
X11105000Y-7870000D03*
X11150600Y-4922520D03*
%TO.N,/A21*%
X16050000Y-5440000D03*
X16825000Y-7430000D03*
X16825000Y-5440000D03*
%TO.N,/A22*%
X15920000Y-4710000D03*
X9900000Y-5070000D03*
X17695000Y-7680000D03*
X14515000Y-4710000D03*
X14515000Y-5175000D03*
X9898340Y-6294220D03*
X17700000Y-4715000D03*
%TO.N,Net-(U11-DIS)*%
X9400000Y-10780000D03*
%TO.N,Net-(D3-A)*%
X8945000Y-10715000D03*
X10175000Y-7745000D03*
X8950840Y-8960000D03*
X10175000Y-9240000D03*
%TO.N,Net-(D3-K)*%
X9340000Y-10590000D03*
%TO.N,/A23*%
X9945840Y-4229220D03*
X16170000Y-5545000D03*
X18010000Y-7651720D03*
X10025840Y-6296720D03*
X18010000Y-5545000D03*
%TO.N,/D15*%
X17845000Y-13060000D03*
X17845000Y-11660060D03*
X17740840Y-8854220D03*
X11625780Y-11644220D03*
X16517500Y-8859220D03*
X11590000Y-12965000D03*
%TO.N,/A3*%
X15740000Y-7877500D03*
X10455000Y-4144220D03*
X10462530Y-11392530D03*
X15565840Y-11201720D03*
%TO.N,/A4*%
X15425000Y-7450000D03*
X15425840Y-11069220D03*
X14233340Y-10514220D03*
X12305840Y-12509220D03*
X14233636Y-11131720D03*
X11353340Y-12506720D03*
X12560840Y-11149220D03*
X11353340Y-11264220D03*
%TO.N,/A6*%
X11540000Y-11006720D03*
X13233840Y-9834220D03*
X13575000Y-11089913D03*
X11540000Y-9729220D03*
X15094840Y-7865000D03*
X15093840Y-10791220D03*
X13400840Y-10784220D03*
%TO.N,/A7*%
X10595000Y-9155000D03*
X16313340Y-10174220D03*
X13480840Y-10654220D03*
X10595000Y-9663220D03*
X10595000Y-10881720D03*
X12060000Y-9152500D03*
X13480840Y-9774220D03*
X16315000Y-10770720D03*
X13483340Y-11004220D03*
X16205000Y-7740000D03*
%TO.N,/A2*%
X10535000Y-9341720D03*
X15154840Y-11516220D03*
X10540780Y-11516720D03*
X11935840Y-9341720D03*
X15250000Y-8005000D03*
X15250000Y-9279220D03*
%TO.N,/D14*%
X17490000Y-5960000D03*
X16934000Y-5956000D03*
X17490840Y-11669220D03*
%TO.N,/R_W*%
X10268340Y-10566720D03*
X13545840Y-10311720D03*
X10270000Y-4945000D03*
X10270000Y-7640000D03*
X14400000Y-5865000D03*
X14400000Y-4995000D03*
X15487500Y-10206220D03*
X13575000Y-10129220D03*
X15488840Y-9699220D03*
X17060000Y-5855000D03*
X15485840Y-10626720D03*
%TO.N,/D13*%
X11590000Y-11945000D03*
X16795840Y-11984220D03*
X11591000Y-12866000D03*
X16795840Y-12776720D03*
%TO.N,/~{LDS}*%
X14515000Y-8440000D03*
X14575000Y-6890000D03*
X17305000Y-6890000D03*
%TO.N,/D12*%
X17220840Y-12616720D03*
X12720000Y-12679220D03*
X16645000Y-12615000D03*
X16655000Y-5310000D03*
X17238340Y-11661720D03*
X17445000Y-5310000D03*
X12720000Y-12155000D03*
%TO.N,/~{UDS}*%
X17820000Y-5765000D03*
X13340000Y-7470000D03*
X13340000Y-5765000D03*
X12767500Y-7472500D03*
X12767500Y-8567500D03*
%TO.N,/D11*%
X17110840Y-12696720D03*
X12085840Y-12664220D03*
X17110840Y-11659220D03*
X12085840Y-12266720D03*
%TO.N,/~{AS}*%
X11157500Y-9070000D03*
X18075000Y-6785000D03*
X11160000Y-8569220D03*
X14920000Y-8125000D03*
X14920000Y-8810000D03*
X14920000Y-6795000D03*
%TO.N,/D3*%
X18340000Y-4740000D03*
X18095840Y-12165000D03*
X13293340Y-12659220D03*
X13293340Y-11671720D03*
%TO.N,/D10*%
X13170000Y-5405000D03*
X14725000Y-5405000D03*
X14725000Y-4640000D03*
X16858340Y-12476720D03*
X13040840Y-12559220D03*
X16858340Y-11669220D03*
X18340000Y-4620000D03*
%TO.N,/D8*%
X16380840Y-11921720D03*
X13633340Y-12254220D03*
X13673340Y-4571720D03*
X16378340Y-11659220D03*
%TO.N,/D0*%
X13130000Y-7745000D03*
X12968340Y-11654220D03*
X13130000Y-8672500D03*
X18205000Y-8635000D03*
%TO.N,/D4*%
X13423340Y-12519220D03*
X17830000Y-5905000D03*
X18027500Y-12100000D03*
X13420840Y-11671720D03*
%TO.N,/D9*%
X12895840Y-12354220D03*
X16735840Y-11676720D03*
X12895000Y-5645000D03*
X16735840Y-12344220D03*
X18585000Y-5645000D03*
%TO.N,/D2*%
X17048340Y-12539220D03*
X18700000Y-9537500D03*
X14278340Y-12539220D03*
X14278340Y-12029220D03*
X17145000Y-9347500D03*
%TO.N,/D6*%
X18980000Y-5775000D03*
X18590000Y-5780000D03*
X18333340Y-11571720D03*
%TO.N,/D1*%
X13340000Y-7620000D03*
X12800840Y-9439220D03*
X14795840Y-11899220D03*
X12760840Y-11898252D03*
X14568340Y-9441720D03*
X18455000Y-9556720D03*
X13403340Y-9441720D03*
%TO.N,/D5*%
X13545840Y-12419220D03*
X17488340Y-12204220D03*
X13545840Y-11671720D03*
X17777500Y-12992500D03*
%TO.N,Net-(JP1-A)*%
X10395840Y-8576720D03*
X14512500Y-8532500D03*
X14375000Y-7875000D03*
X10395840Y-8959220D03*
%TO.N,Net-(JP2-A)*%
X14785000Y-8002000D03*
X14785000Y-6795000D03*
%TD*%
D38*
%TO.N,Net-(U3-I6)*%
X13405000Y-7965000D02*
X13365000Y-8005000D01*
X13330000Y-8607500D02*
X13062560Y-8607500D01*
X12265060Y-8670000D02*
X12005060Y-8930000D01*
X13365000Y-8005000D02*
X13330000Y-8005000D01*
X13734750Y-7875000D02*
X13440000Y-7875000D01*
X9195000Y-9740000D02*
X9195000Y-9540000D01*
X9230000Y-9415000D02*
X9195000Y-9450000D01*
X9195000Y-9450000D02*
X9195000Y-9540000D01*
X9100000Y-9770000D02*
X9165000Y-9770000D01*
X9165000Y-9770000D02*
X9195000Y-9740000D01*
X10570147Y-8930000D02*
X10260000Y-9240147D01*
X10260000Y-9240147D02*
X10260000Y-9375000D01*
X12005060Y-8930000D02*
X10570147Y-8930000D01*
X13062560Y-8607500D02*
X13000060Y-8670000D01*
X13405000Y-7910000D02*
X13405000Y-7965000D01*
X10220000Y-9415000D02*
X9230000Y-9415000D01*
X10260000Y-9375000D02*
X10220000Y-9415000D01*
X13000060Y-8670000D02*
X12265060Y-8670000D01*
X9060000Y-9810000D02*
X9100000Y-9770000D01*
X13440000Y-7875000D02*
X13405000Y-7910000D01*
%TO.N,Net-(U10-~{CE})*%
X11275840Y-11579220D02*
X11765840Y-11579220D01*
X12635000Y-7430000D02*
X12720000Y-7345000D01*
X11765840Y-11579220D02*
X11828340Y-11516720D01*
X12494000Y-7461000D02*
X12525000Y-7430000D01*
X12715000Y-6440000D02*
X11325000Y-6440000D01*
X12081460Y-11516720D02*
X12082240Y-11517500D01*
X12720000Y-7345000D02*
X12720000Y-7330000D01*
X12525000Y-7430000D02*
X12635000Y-7430000D01*
X11828340Y-11516720D02*
X12081460Y-11516720D01*
%TO.N,Net-(U2-IO1)*%
X12240000Y-7725000D02*
X12200000Y-7765000D01*
X12200000Y-7765000D02*
X12010000Y-7765000D01*
X14185000Y-7710000D02*
X14140000Y-7665000D01*
X11885000Y-6125000D02*
X14490000Y-6125000D01*
X14140000Y-7665000D02*
X14140000Y-7469750D01*
X14490000Y-6125000D02*
X16385000Y-6125000D01*
X12240000Y-7469750D02*
X12240000Y-7725000D01*
X14380000Y-7710000D02*
X14185000Y-7710000D01*
X16385000Y-7470000D02*
X16229250Y-7470000D01*
%TO.N,/A5*%
X13759840Y-10094220D02*
X13664840Y-10189220D01*
X14864840Y-9738220D02*
X14574840Y-10028220D01*
X14877560Y-11136500D02*
X14494440Y-11136500D01*
X11623280Y-11074220D02*
X11562440Y-11135060D01*
X12393340Y-10691720D02*
X11360840Y-10691720D01*
X15072340Y-10941720D02*
X14877560Y-11136500D01*
X16023000Y-9760220D02*
X15427840Y-9760220D01*
X16203340Y-10962651D02*
X16265409Y-11024720D01*
X14574840Y-10028220D02*
X14360840Y-10028220D01*
X10759660Y-11136720D02*
X10759440Y-11136500D01*
X12737090Y-11019720D02*
X12522840Y-11019720D01*
X16103340Y-10941720D02*
X16183340Y-10941720D01*
X14360840Y-10028220D02*
X14294840Y-10094220D01*
X13230840Y-10267220D02*
X12817840Y-10267220D01*
X15405840Y-9738220D02*
X14864840Y-9738220D01*
X13664840Y-10189220D02*
X13308840Y-10189220D01*
X16265409Y-11024720D02*
X16554590Y-11024720D01*
X16183340Y-10941720D02*
X16203340Y-10961720D01*
X11360000Y-11135060D02*
X11358340Y-11136720D01*
X12522840Y-11019720D02*
X12468340Y-11074220D01*
X11562440Y-11135060D02*
X11360000Y-11135060D01*
X15802500Y-7752500D02*
X15798000Y-7748000D01*
X12817840Y-10267220D02*
X12393340Y-10691720D01*
X11358340Y-11136720D02*
X10759660Y-11136720D01*
X15798000Y-7748000D02*
X15569750Y-7748000D01*
X14294840Y-10094220D02*
X13759840Y-10094220D01*
X16203340Y-10961720D02*
X16203340Y-10962651D01*
X12468340Y-11074220D02*
X11623280Y-11074220D01*
X15427840Y-9760220D02*
X15405840Y-9738220D01*
X16025000Y-9758220D02*
X16023000Y-9760220D01*
X16103340Y-10941720D02*
X15072340Y-10941720D01*
X13308840Y-10189220D02*
X13230840Y-10267220D01*
%TO.N,/A8*%
X16005000Y-7650000D02*
X16065000Y-7650000D01*
X15975000Y-7469750D02*
X15975000Y-7620000D01*
X12696487Y-10638720D02*
X12383487Y-10951720D01*
X11705000Y-9590220D02*
X11821500Y-9706720D01*
X16226340Y-10643720D02*
X16554590Y-10643720D01*
X15975000Y-7620000D02*
X16005000Y-7650000D01*
X11704000Y-9591220D02*
X11705000Y-9590220D01*
X14318340Y-10756720D02*
X14493220Y-10756720D01*
X14015840Y-9706720D02*
X12248340Y-9706720D01*
X11821500Y-9706720D02*
X12248340Y-9706720D01*
X11705000Y-6250000D02*
X11985000Y-6250000D01*
X16114340Y-9577220D02*
X14321840Y-9577220D01*
X14493220Y-10756720D02*
X14494440Y-10755500D01*
X16225840Y-10644220D02*
X16226340Y-10643720D01*
X11105840Y-10754220D02*
X11103340Y-10756720D01*
X12737090Y-10638720D02*
X12696487Y-10638720D01*
X14319840Y-9579220D02*
X14143340Y-9579220D01*
X14321840Y-9577220D02*
X14319840Y-9579220D01*
X11112840Y-9591220D02*
X11704000Y-9591220D01*
X16118340Y-9581220D02*
X16114340Y-9577220D01*
X10760660Y-10756720D02*
X10759440Y-10755500D01*
X14143340Y-9579220D02*
X14015840Y-9706720D01*
X12383487Y-10951720D02*
X11840840Y-10951720D01*
X11105840Y-9598220D02*
X11112840Y-9591220D01*
X11103340Y-10756720D02*
X10760660Y-10756720D01*
%TO.N,/~{IPL2}*%
X10710000Y-4550000D02*
X10710000Y-4195000D01*
X10710000Y-4195000D02*
X10735000Y-4170000D01*
X12460000Y-4170000D02*
X12490000Y-4200000D01*
X10654000Y-7464750D02*
X10654000Y-7246000D01*
X12490000Y-4200000D02*
X12490000Y-4640000D01*
X10735000Y-4170000D02*
X12460000Y-4170000D01*
X10654000Y-7246000D02*
X10655000Y-7245000D01*
X12565000Y-4715000D02*
X14270000Y-4715000D01*
X10655000Y-4605000D02*
X10710000Y-4550000D01*
X12490000Y-4640000D02*
X12565000Y-4715000D01*
%TO.N,/A15*%
X13850090Y-10639220D02*
X13849590Y-10638720D01*
X19310000Y-11090000D02*
X19310000Y-8045000D01*
X19255000Y-11145000D02*
X19310000Y-11090000D01*
X14494440Y-10501500D02*
X14708120Y-10501500D01*
X12778340Y-10164220D02*
X12375840Y-10566720D01*
X13250840Y-9947220D02*
X13250840Y-10114220D01*
X17586840Y-9653220D02*
X17665840Y-9732220D01*
X17665840Y-10642470D02*
X17667090Y-10643720D01*
X14708120Y-10501500D02*
X14708340Y-10501720D01*
X14140840Y-9744220D02*
X14138340Y-9746720D01*
X13250840Y-10114220D02*
X13200840Y-10164220D01*
X19310000Y-8045000D02*
X19257000Y-7992000D01*
X18154120Y-11145000D02*
X19255000Y-11145000D01*
X13652340Y-9746720D02*
X13545840Y-9853220D01*
X14140840Y-9744220D02*
X14298840Y-9744220D01*
X17960340Y-10643720D02*
X18048340Y-10731720D01*
X14709840Y-9639220D02*
X16045840Y-9639220D01*
X18048340Y-11039220D02*
X18154120Y-11145000D01*
X14228340Y-10639220D02*
X13850090Y-10639220D01*
X19257000Y-7992000D02*
X18225250Y-7992000D01*
X18048340Y-10731720D02*
X18048340Y-11039220D01*
X17665840Y-9732220D02*
X17665840Y-10642470D01*
X17667090Y-10643720D02*
X17960340Y-10643720D01*
X14708840Y-9638220D02*
X14709840Y-9639220D01*
X16045840Y-9639220D02*
X16059840Y-9653220D01*
X11323120Y-10501500D02*
X10759440Y-10501500D01*
X13200840Y-10164220D02*
X12778340Y-10164220D01*
X12375840Y-10566720D02*
X11388340Y-10566720D01*
X14494440Y-10501500D02*
X14366060Y-10501500D01*
X14138340Y-9746720D02*
X13652340Y-9746720D01*
X13344840Y-9853220D02*
X13250840Y-9947220D01*
X13545840Y-9853220D02*
X13344840Y-9853220D01*
X14366060Y-10501500D02*
X14228340Y-10639220D01*
X16059840Y-9653220D02*
X17586840Y-9653220D01*
X14298840Y-9744220D02*
X14404840Y-9638220D01*
X11388340Y-10566720D02*
X11323120Y-10501500D01*
X14404840Y-9638220D02*
X14708840Y-9638220D01*
D39*
%TO.N,GND*%
X10295000Y-12060000D02*
X10272750Y-12037750D01*
X11216640Y-5542280D02*
X8887280Y-5542280D01*
X18500000Y-9200000D02*
X18425000Y-9125000D01*
X10910000Y-12154220D02*
X10309220Y-12154220D01*
X10829840Y-8791720D02*
X10275500Y-8791720D01*
X9438340Y-8631720D02*
X9323340Y-8516720D01*
X11265590Y-9971220D02*
X11266590Y-9972220D01*
X8806000Y-3912000D02*
X9060000Y-3912000D01*
X14709120Y-12957500D02*
X13168340Y-12957500D01*
X19175000Y-10910000D02*
X19175000Y-9560000D01*
X10027090Y-8477970D02*
X10027090Y-8730470D01*
X11849000Y-5357500D02*
X11849000Y-5478880D01*
X10272750Y-12037750D02*
X9667750Y-12037750D01*
X15877500Y-8631720D02*
X16253280Y-8631720D01*
X12113000Y-8393000D02*
X12113000Y-8280250D01*
X12743500Y-12957500D02*
X12551000Y-12765000D01*
X18425000Y-11000000D02*
X18351250Y-10926250D01*
X9610000Y-11320000D02*
X9667750Y-11377750D01*
X8745000Y-10465000D02*
X8745000Y-11325000D01*
X18175000Y-8937500D02*
X17937500Y-8700000D01*
X8745000Y-10465000D02*
X9152000Y-10465000D01*
X15875000Y-8629220D02*
X15877500Y-8631720D01*
X13168340Y-11828470D02*
X13166340Y-11830470D01*
X12550000Y-12766000D02*
X11086000Y-12766000D01*
X18225000Y-9125000D02*
X18175000Y-9075000D01*
X11785600Y-5542280D02*
X11216640Y-5542280D01*
X15875000Y-7980000D02*
X15845000Y-8010000D01*
X9667750Y-11377750D02*
X9667750Y-11537750D01*
X16983840Y-11835470D02*
X16983840Y-11667220D01*
X11216640Y-5542280D02*
X11214000Y-5539640D01*
X19085000Y-11000000D02*
X19175000Y-10910000D01*
X8758750Y-5413750D02*
X8758750Y-4860000D01*
X15845000Y-8010000D02*
X15845000Y-8277250D01*
X16420000Y-8465000D02*
X17350000Y-8465000D01*
X17625000Y-8465000D02*
X17693000Y-8397000D01*
X10270500Y-8791720D02*
X10273000Y-8789220D01*
X9438340Y-8681720D02*
X9438340Y-8631720D01*
X12747060Y-10000000D02*
X13143590Y-10000000D01*
X14013000Y-8280250D02*
X14013000Y-8397000D01*
X8745000Y-11325000D02*
X8740000Y-11330000D01*
X8745000Y-8662560D02*
X8745000Y-8765000D01*
X8760000Y-4466000D02*
X8760000Y-4858750D01*
X9323340Y-8516720D02*
X8890840Y-8516720D01*
X11011840Y-9971220D02*
X11265590Y-9971220D01*
X11086000Y-12766000D02*
X10910000Y-12590000D01*
X12600840Y-10146220D02*
X12747060Y-10000000D01*
X15630000Y-7060000D02*
X15786250Y-7060000D01*
X18665000Y-11000000D02*
X18425000Y-11000000D01*
X9667750Y-11537750D02*
X10173500Y-11537750D01*
X19175000Y-9560000D02*
X19070000Y-9455000D01*
X8890840Y-8516720D02*
X8745000Y-8662560D01*
X13168340Y-11664220D02*
X13168340Y-11828470D01*
X18580000Y-9455000D02*
X18500000Y-9375000D01*
X11214000Y-5539640D02*
X11214000Y-5310000D01*
X17950000Y-5225000D02*
X15875000Y-5225000D01*
X9610160Y-8221720D02*
X9770840Y-8221720D01*
X18085840Y-12894220D02*
X16945840Y-12894220D01*
X12010000Y-8090000D02*
X12010000Y-7885000D01*
X12601840Y-8437220D02*
X12157220Y-8437220D01*
X17693000Y-8397000D02*
X17693000Y-8270250D01*
X10273000Y-8789220D02*
X10273000Y-8275250D01*
X11870840Y-8789220D02*
X11868340Y-8791720D01*
X10827840Y-9787220D02*
X11011840Y-9971220D01*
X16253280Y-8631720D02*
X16420000Y-8465000D01*
X10275500Y-8791720D02*
X10273000Y-8789220D01*
X10027090Y-8730470D02*
X10088340Y-8791720D01*
X12600840Y-10156220D02*
X12600840Y-10146220D01*
X9770840Y-8221720D02*
X10027090Y-8477970D01*
X8887280Y-5542280D02*
X8758750Y-5413750D01*
X12113000Y-8193000D02*
X12010000Y-8090000D01*
X11868340Y-8791720D02*
X10829840Y-8791720D01*
X17350000Y-8465000D02*
X17625000Y-8465000D01*
X19070000Y-9455000D02*
X18580000Y-9455000D01*
X12113000Y-8280250D02*
X12113000Y-8193000D01*
X10295000Y-12140000D02*
X10295000Y-12060000D01*
X14013000Y-8397000D02*
X13972780Y-8437220D01*
X16943840Y-10010750D02*
X16954590Y-10000000D01*
X10173500Y-11537750D02*
X10240000Y-11471250D01*
X17937500Y-8700000D02*
X17345000Y-8700000D01*
X10309220Y-12154220D02*
X10295000Y-12140000D01*
X18665000Y-11000000D02*
X19085000Y-11000000D01*
X18425000Y-9125000D02*
X18225000Y-9125000D01*
X16983840Y-11667220D02*
X16983340Y-11666720D01*
X13168340Y-12957500D02*
X12743500Y-12957500D01*
X8740000Y-11330000D02*
X9600000Y-11330000D01*
X10088340Y-8791720D02*
X10270500Y-8791720D01*
X10910000Y-12590000D02*
X10910000Y-12154220D01*
X14702560Y-12152500D02*
X14494440Y-12152500D01*
X18500000Y-9375000D02*
X18500000Y-9200000D01*
X12157220Y-8437220D02*
X12113000Y-8393000D01*
X18175000Y-9075000D02*
X18175000Y-8937500D01*
X14992590Y-9972220D02*
X14992590Y-10152970D01*
X9600000Y-11330000D02*
X9610000Y-11320000D01*
X16943840Y-10225220D02*
X16943840Y-10010750D01*
X8806000Y-4420000D02*
X8760000Y-4466000D01*
X11849000Y-5478880D02*
X11785600Y-5542280D01*
X14992590Y-10152970D02*
X14992840Y-10153220D01*
X13972780Y-8437220D02*
X12601840Y-8437220D01*
D38*
%TO.N,+5V*%
X8810000Y-9540000D02*
X8810000Y-9460000D01*
D39*
X10765000Y-5640000D02*
X9795000Y-5640000D01*
X14043340Y-8955000D02*
X15630000Y-8955000D01*
D38*
X9424840Y-7769220D02*
X9787000Y-7769220D01*
D39*
X11976000Y-5500000D02*
X11991000Y-5515000D01*
X15635000Y-9871220D02*
X15534000Y-9972220D01*
X12367000Y-7469750D02*
X12367000Y-7258000D01*
X16102000Y-7469750D02*
X16102000Y-7253000D01*
X12326620Y-8955000D02*
X14043340Y-8955000D01*
X15753280Y-8841720D02*
X15635000Y-8960000D01*
D38*
X9170000Y-9365000D02*
X9195000Y-9340000D01*
D39*
X11579090Y-10246750D02*
X11579090Y-9972220D01*
X17233340Y-10463470D02*
X17237840Y-10467970D01*
X13457310Y-10001220D02*
X13456090Y-10000000D01*
X17235840Y-8939220D02*
X16450840Y-8939220D01*
X18140000Y-9173380D02*
X18140000Y-9285000D01*
X11579840Y-10247500D02*
X11004120Y-10247500D01*
X15816460Y-10246720D02*
X15817240Y-10247500D01*
X17233340Y-10222220D02*
X17264840Y-10190720D01*
X15630000Y-8955000D02*
X15635000Y-8960000D01*
X9788000Y-7428000D02*
X9260000Y-7428000D01*
X9152500Y-10845500D02*
X9152500Y-10937500D01*
X11849100Y-5640000D02*
X11976000Y-5640000D01*
X12323340Y-8951720D02*
X12326620Y-8955000D01*
X11991000Y-5515000D02*
X14980000Y-5515000D01*
X16105000Y-7250000D02*
X17925000Y-7250000D01*
X11780000Y-5640000D02*
X10765000Y-5640000D01*
X18320000Y-10220000D02*
X18140000Y-10220000D01*
X15635000Y-10251720D02*
X15640000Y-10246720D01*
X18855000Y-10695000D02*
X18401250Y-10695000D01*
X10895840Y-10139220D02*
X10170000Y-10139220D01*
X16450840Y-8939220D02*
X16353340Y-8841720D01*
D38*
X9787000Y-7769220D02*
X9788000Y-7770220D01*
D39*
X10527000Y-7464750D02*
X10527000Y-7198000D01*
X17905840Y-8939220D02*
X18140000Y-9173380D01*
X15475000Y-7250000D02*
X16105000Y-7250000D01*
X17925000Y-7250000D02*
X17947000Y-7272000D01*
X10240000Y-10995000D02*
X10240000Y-11158750D01*
X17264840Y-10002250D02*
X17267090Y-10000000D01*
X10170000Y-10460000D02*
X10165500Y-10464500D01*
X14043340Y-9901720D02*
X13753340Y-9901720D01*
X18401250Y-10695000D02*
X18320000Y-10613750D01*
X15045000Y-5510000D02*
X15375000Y-5510000D01*
X14267000Y-7253000D02*
X14270000Y-7250000D01*
X10580000Y-7145000D02*
X10765000Y-7145000D01*
X17264840Y-10190720D02*
X17264840Y-10002250D01*
D38*
X8905000Y-9365000D02*
X9170000Y-9365000D01*
D39*
X10165500Y-10464500D02*
X9647500Y-10464500D01*
X18320000Y-10613750D02*
X18320000Y-10220000D01*
X14270000Y-7250000D02*
X15475000Y-7250000D01*
X10170000Y-10970000D02*
X10215000Y-10970000D01*
X13653840Y-10001220D02*
X13457310Y-10001220D01*
X16353340Y-8841720D02*
X15753280Y-8841720D01*
X10215000Y-10970000D02*
X10240000Y-10995000D01*
X15478750Y-7246250D02*
X15475000Y-7250000D01*
X11579840Y-10247500D02*
X11579090Y-10246750D01*
X10527000Y-7198000D02*
X10580000Y-7145000D01*
X18140000Y-9285000D02*
X18330000Y-9285000D01*
D38*
X8810000Y-9460000D02*
X8905000Y-9365000D01*
D39*
X13419840Y-10462470D02*
X13420340Y-10462970D01*
X9152500Y-10937500D02*
X9185000Y-10970000D01*
X12367000Y-7258000D02*
X12375000Y-7250000D01*
X13456090Y-10000000D02*
X13314060Y-10000000D01*
X18845840Y-12644220D02*
X18595840Y-12644220D01*
X9195000Y-9340000D02*
X9195000Y-9230000D01*
X14267000Y-7469750D02*
X14267000Y-7253000D01*
X12082240Y-10247500D02*
X11579840Y-10247500D01*
X11785000Y-7250000D02*
X12375000Y-7250000D01*
X13753340Y-9901720D02*
X13653840Y-10001220D01*
X11004120Y-10247500D02*
X10895840Y-10139220D01*
X11849100Y-5640000D02*
X11849000Y-5640100D01*
X15478750Y-7065000D02*
X15478750Y-7246250D01*
X17947000Y-7272000D02*
X17947000Y-7459750D01*
X15534000Y-9972220D02*
X15305090Y-9972220D01*
X16102000Y-7253000D02*
X16105000Y-7250000D01*
X17235840Y-8939220D02*
X17905840Y-8939220D01*
X15640000Y-10246720D02*
X15816460Y-10246720D01*
X10175000Y-9355000D02*
X9210000Y-9355000D01*
X11976000Y-5310000D02*
X11976000Y-5500000D01*
X11849100Y-5640000D02*
X11780000Y-5640000D01*
X9260000Y-7428000D02*
X8890000Y-7428000D01*
X12082240Y-10247500D02*
X12321620Y-10247500D01*
X11976000Y-5500000D02*
X11976000Y-5900000D01*
X17233340Y-10222220D02*
X17233340Y-10463470D01*
X12321620Y-10247500D02*
X12323340Y-10249220D01*
X12375000Y-7250000D02*
X14270000Y-7250000D01*
X11849000Y-5640100D02*
X11849000Y-5900000D01*
X14980000Y-5515000D02*
X15015000Y-5480000D01*
X13419840Y-10316220D02*
X13419840Y-10462470D01*
X15015000Y-5480000D02*
X15045000Y-5510000D01*
X9440000Y-4865000D02*
X9076250Y-4865000D01*
X9185000Y-10970000D02*
X10170000Y-10970000D01*
X13314060Y-10000000D02*
X13310840Y-10003220D01*
X9210000Y-9355000D02*
X9195000Y-9340000D01*
D38*
%TO.N,/~{OE}*%
X15530840Y-10045220D02*
X16271840Y-10045220D01*
X15336840Y-10239220D02*
X15530840Y-10045220D01*
X10527000Y-8520380D02*
X10527000Y-8275250D01*
X11630000Y-11266720D02*
X12433340Y-11266720D01*
X16643340Y-11341720D02*
X16028340Y-11341720D01*
X13795000Y-8337500D02*
X13828750Y-8337500D01*
X11625000Y-11261720D02*
X11630000Y-11266720D01*
X16028340Y-11341720D02*
X15950120Y-11263500D01*
X17667090Y-11278720D02*
X16706340Y-11278720D01*
X11625000Y-8569220D02*
X11547500Y-8646720D01*
X14035840Y-11274220D02*
X13850090Y-11274220D01*
X15950120Y-11263500D02*
X15817240Y-11263500D01*
X10653340Y-8646720D02*
X10527000Y-8520380D01*
X16271840Y-10045220D02*
X16518987Y-9798073D01*
X13678840Y-11273720D02*
X13849590Y-11273720D01*
X12433340Y-11266720D02*
X12503340Y-11336720D01*
X13793340Y-10238220D02*
X14296840Y-10238220D01*
X16518987Y-9798073D02*
X17555840Y-9798073D01*
X14296840Y-10238220D02*
X14382840Y-10152220D01*
X16706340Y-11278720D02*
X16643340Y-11341720D01*
X11547500Y-8646720D02*
X10653340Y-8646720D01*
X13828750Y-8337500D02*
X13886000Y-8280250D01*
X11630000Y-7875000D02*
X11834750Y-7875000D01*
X15814020Y-11266720D02*
X15817240Y-11263500D01*
X14382840Y-10152220D02*
X14799840Y-10152220D01*
X12503340Y-11336720D02*
X13615840Y-11336720D01*
X14799840Y-10152220D02*
X14886840Y-10239220D01*
X14886840Y-10239220D02*
X15336840Y-10239220D01*
X13615840Y-11336720D02*
X13678840Y-11273720D01*
X13850090Y-11274220D02*
X13849590Y-11273720D01*
%TO.N,Net-(U4-IO4)*%
X15478340Y-11516720D02*
X15816460Y-11516720D01*
X15816460Y-11516720D02*
X15817240Y-11517500D01*
X15573340Y-8625000D02*
X15350000Y-8625000D01*
X12645250Y-7875000D02*
X13040000Y-7875000D01*
X13075000Y-6460000D02*
X15350000Y-6460000D01*
%TO.N,Net-(U4-IO5)*%
X17042720Y-11532720D02*
X17667090Y-11532720D01*
X12645250Y-8002000D02*
X12998000Y-8002000D01*
X16367560Y-8790000D02*
X16428340Y-8729220D01*
X15603340Y-8871720D02*
X15685060Y-8790000D01*
X16428340Y-8729220D02*
X16942500Y-8729220D01*
X15685060Y-8790000D02*
X16367560Y-8790000D01*
X12998000Y-8002000D02*
X13000000Y-8000000D01*
X17010000Y-11500000D02*
X17042720Y-11532720D01*
X16942500Y-8729220D02*
X17005000Y-8791720D01*
X13008340Y-8871720D02*
X15603340Y-8871720D01*
%TO.N,/A1*%
X16595000Y-8035000D02*
X16595000Y-8330000D01*
X16375840Y-11532720D02*
X16374340Y-11534220D01*
X16003340Y-11534220D02*
X15958340Y-11579220D01*
X12534840Y-11527720D02*
X12937340Y-11527720D01*
X12937340Y-11527720D02*
X12998340Y-11466720D01*
X12355840Y-11706720D02*
X12534840Y-11527720D01*
X14113340Y-11591720D02*
X14166120Y-11644500D01*
X12998340Y-11466720D02*
X13580840Y-11466720D01*
X14988340Y-11579220D02*
X14923060Y-11644500D01*
X16562000Y-8002000D02*
X16595000Y-8035000D01*
X16565000Y-8360000D02*
X16375000Y-8360000D01*
X14166120Y-11644500D02*
X14494440Y-11644500D01*
X13705840Y-11591720D02*
X14113340Y-11591720D01*
X14923060Y-11644500D02*
X14494440Y-11644500D01*
X11710840Y-11761720D02*
X11286720Y-11761720D01*
X16375840Y-11532720D02*
X16554590Y-11532720D01*
X11765840Y-11706720D02*
X12355840Y-11706720D01*
X11710840Y-11761720D02*
X11765840Y-11706720D01*
X11169500Y-11644500D02*
X10759440Y-11644500D01*
X11286720Y-11761720D02*
X11169500Y-11644500D01*
X16595000Y-8330000D02*
X16565000Y-8360000D01*
X16380250Y-8002000D02*
X16562000Y-8002000D01*
X13580840Y-11466720D02*
X13705840Y-11591720D01*
X15958340Y-11579220D02*
X14988340Y-11579220D01*
X16374340Y-11534220D02*
X16003340Y-11534220D01*
%TO.N,Net-(U4-IO8)*%
X12367000Y-8280250D02*
X12367000Y-8007000D01*
X12325000Y-7965000D02*
X12205000Y-7965000D01*
X12002500Y-9575000D02*
X12007500Y-9580000D01*
X13851090Y-11529220D02*
X13849590Y-11527720D01*
X12007500Y-9580000D02*
X13715000Y-9580000D01*
X12367000Y-8007000D02*
X12325000Y-7965000D01*
X14018340Y-11529220D02*
X13851090Y-11529220D01*
%TO.N,/A16*%
X16735000Y-6230000D02*
X14325000Y-6230000D01*
X13105840Y-9506720D02*
X13512500Y-9506720D01*
X14325000Y-6230000D02*
X13430000Y-6230000D01*
X16112840Y-10234220D02*
X15972560Y-10374500D01*
X16735000Y-7865000D02*
X17414750Y-7865000D01*
X13104840Y-10651220D02*
X13104840Y-10635220D01*
X16856840Y-10293220D02*
X16856840Y-10467970D01*
X16797840Y-10234220D02*
X16112840Y-10234220D01*
X13039340Y-10569720D02*
X13039340Y-10462970D01*
X13512500Y-9506720D02*
X13515000Y-9504220D01*
X13104840Y-10635220D02*
X13039340Y-10569720D01*
X11785840Y-10374500D02*
X12082240Y-10374500D01*
X13105840Y-9506720D02*
X11891840Y-9506720D01*
X15972560Y-10374500D02*
X15817240Y-10374500D01*
X16797840Y-10234220D02*
X16856840Y-10293220D01*
%TO.N,Net-(U2-I8)*%
X12507500Y-8362500D02*
X13615000Y-8362500D01*
X14600000Y-8625000D02*
X14562500Y-8662500D01*
X15530000Y-8205000D02*
X15569750Y-8165250D01*
X13615000Y-8362500D02*
X13717500Y-8260000D01*
X14772500Y-8625000D02*
X14600000Y-8625000D01*
X15569750Y-8165250D02*
X15569750Y-8129000D01*
X14562500Y-8662500D02*
X14245000Y-8662500D01*
X14245000Y-8662500D02*
X14185000Y-8602500D01*
X14185000Y-8602500D02*
X13717500Y-8602500D01*
X14780000Y-8205000D02*
X15530000Y-8205000D01*
%TO.N,Net-(U2-I9)*%
X15415000Y-8355000D02*
X15665000Y-8355000D01*
X14665000Y-8315000D02*
X15375000Y-8315000D01*
X12799000Y-8129000D02*
X12835000Y-8165000D01*
X12835000Y-8165000D02*
X12835000Y-8195000D01*
X12645250Y-8129000D02*
X12799000Y-8129000D01*
X15375000Y-8315000D02*
X15415000Y-8355000D01*
X12835000Y-9117500D02*
X14660000Y-9117500D01*
X15665000Y-8355000D02*
X15721000Y-8299000D01*
X14660000Y-9117500D02*
X14662500Y-9120000D01*
%TO.N,Net-(JP1-C)*%
X11933487Y-8866720D02*
X9690840Y-8866720D01*
X12079663Y-8720544D02*
X11933487Y-8866720D01*
X9690840Y-8866720D02*
X9615840Y-8791720D01*
X9615840Y-8791720D02*
X9615840Y-8474220D01*
X9166840Y-8330220D02*
X9166840Y-8134220D01*
X9505840Y-8364220D02*
X9200840Y-8364220D01*
X12240000Y-8280250D02*
X12240000Y-8170880D01*
X12240000Y-8170880D02*
X12178340Y-8109220D01*
X9615840Y-8474220D02*
X9505840Y-8364220D01*
X9200840Y-8364220D02*
X9166840Y-8330220D01*
%TO.N,/A9*%
X16195840Y-10851720D02*
X16305840Y-10961720D01*
X13323340Y-11126794D02*
X13453266Y-11126794D01*
X13687340Y-10892720D02*
X13849590Y-10892720D01*
X16305840Y-10961720D02*
X16763340Y-10961720D01*
X14886840Y-10990220D02*
X14995340Y-10881720D01*
X16827340Y-10897720D02*
X17667090Y-10897720D01*
X17820000Y-8125000D02*
X17820000Y-8270250D01*
X13189840Y-10761220D02*
X13032840Y-10761220D01*
X16010840Y-10851720D02*
X16195840Y-10851720D01*
X17720840Y-8091720D02*
X17786720Y-8091720D01*
X12333311Y-10881749D02*
X11729525Y-10881749D01*
X15980840Y-10881720D02*
X16010840Y-10851720D01*
X12672840Y-10542220D02*
X12333311Y-10881749D01*
X14886840Y-10991220D02*
X14886840Y-10990220D01*
X14038970Y-10935350D02*
X13996340Y-10892720D01*
X14886840Y-10735220D02*
X14686710Y-10935350D01*
X16763340Y-10961720D02*
X16827340Y-10897720D01*
X14995340Y-10881720D02*
X15980840Y-10881720D01*
X14886840Y-10735220D02*
X14886840Y-10735220D01*
X14686710Y-10935350D02*
X14038970Y-10935350D01*
X17786720Y-8091720D02*
X17820000Y-8125000D01*
X13032840Y-10761220D02*
X12813840Y-10542220D01*
X13996340Y-10892720D02*
X13849590Y-10892720D01*
X13453266Y-11126794D02*
X13687340Y-10892720D01*
X12813840Y-10542220D02*
X12672840Y-10542220D01*
%TO.N,Net-(U2-IO7)*%
X12010000Y-6635000D02*
X14040000Y-6635000D01*
X14040000Y-8025000D02*
X14095000Y-8080000D01*
X14370000Y-8600000D02*
X14545000Y-8600000D01*
X14580000Y-8565000D02*
X16185000Y-8565000D01*
X14545000Y-8600000D02*
X14580000Y-8565000D01*
X12113000Y-7469750D02*
X12113000Y-7617000D01*
X14095000Y-8080000D02*
X14370000Y-8080000D01*
X16229000Y-8521000D02*
X16229000Y-8280250D01*
X14013000Y-7648000D02*
X14013000Y-7469750D01*
X12113000Y-7617000D02*
X12085000Y-7645000D01*
X12085000Y-7645000D02*
X12010000Y-7645000D01*
X14040000Y-7675000D02*
X14013000Y-7648000D01*
X14367500Y-8602500D02*
X14370000Y-8600000D01*
X16185000Y-8565000D02*
X16229000Y-8521000D01*
X14040000Y-7675000D02*
X14040000Y-8025000D01*
%TO.N,Net-(U2-IO8)*%
X11700000Y-7425000D02*
X11960000Y-7425000D01*
X13780000Y-7145000D02*
X15010000Y-7145000D01*
X11690000Y-7145000D02*
X13780000Y-7145000D01*
X11986000Y-7451000D02*
X11960000Y-7425000D01*
X11700000Y-7425000D02*
X11665000Y-7390000D01*
X13780000Y-7390000D02*
X13845000Y-7390000D01*
X11665000Y-7390000D02*
X11665000Y-7170000D01*
X11665000Y-7170000D02*
X11690000Y-7145000D01*
X16080000Y-8490000D02*
X16102000Y-8468000D01*
X16102000Y-8468000D02*
X16102000Y-8280250D01*
X15010000Y-8490000D02*
X16080000Y-8490000D01*
X13845000Y-7390000D02*
X13886000Y-7431000D01*
%TO.N,Net-(U3-IO2)*%
X11595000Y-7060000D02*
X14670000Y-7060000D01*
X14670000Y-7510000D02*
X14670000Y-7610000D01*
X11616000Y-7621000D02*
X11560000Y-7565000D01*
X14670000Y-7610000D02*
X14659000Y-7621000D01*
X11560000Y-7095000D02*
X11595000Y-7060000D01*
X14659000Y-7621000D02*
X14545250Y-7621000D01*
X11834750Y-7621000D02*
X11616000Y-7621000D01*
X11560000Y-7565000D02*
X11560000Y-7095000D01*
%TO.N,Net-(U3-I03)*%
X11440000Y-7025000D02*
X11480000Y-6985000D01*
X15250000Y-7750000D02*
X14547250Y-7750000D01*
X11463000Y-7748000D02*
X11440000Y-7725000D01*
X11834750Y-7748000D02*
X11463000Y-7748000D01*
X11440000Y-7725000D02*
X11440000Y-7025000D01*
X11480000Y-6985000D02*
X15255000Y-6985000D01*
%TO.N,Net-(U3-I5)*%
X10950000Y-6540000D02*
X13435000Y-6540000D01*
X10695000Y-8520000D02*
X10950000Y-8520000D01*
X13587000Y-7748000D02*
X13734750Y-7748000D01*
X13435000Y-7770000D02*
X13565000Y-7770000D01*
X10654000Y-8479000D02*
X10695000Y-8520000D01*
X13565000Y-7770000D02*
X13587000Y-7748000D01*
X10654000Y-8275250D02*
X10654000Y-8479000D01*
%TO.N,Net-(U2-IO6)*%
X16517500Y-8252500D02*
X16517500Y-8167500D01*
X13910000Y-8127500D02*
X13736250Y-8127500D01*
X16517500Y-8167500D02*
X16479000Y-8129000D01*
X13720000Y-5985000D02*
X16485000Y-5985000D01*
X16479000Y-8129000D02*
X16380250Y-8129000D01*
%TO.N,/~{FC0}*%
X13538000Y-8002000D02*
X13734750Y-8002000D01*
X13500000Y-8255000D02*
X13500000Y-8040000D01*
X12662500Y-8285000D02*
X13470000Y-8285000D01*
X12605000Y-8227500D02*
X12662500Y-8285000D01*
X13500000Y-8040000D02*
X13538000Y-8002000D01*
X13470000Y-8285000D02*
X13500000Y-8255000D01*
%TO.N,/A17*%
X16983840Y-10744720D02*
X16983840Y-10467970D01*
X17073340Y-10834220D02*
X16983840Y-10744720D01*
X17902500Y-10830720D02*
X17899000Y-10834220D01*
X14494440Y-10374500D02*
X14193620Y-10374500D01*
X13610840Y-10561720D02*
X13578340Y-10594220D01*
X14923487Y-9371720D02*
X12418340Y-9371720D01*
X17902500Y-10830720D02*
X17902500Y-10949949D01*
X13610840Y-10346720D02*
X13610840Y-10561720D01*
X17531060Y-9209000D02*
X16136060Y-9209000D01*
X16136060Y-9209000D02*
X15975840Y-9369220D01*
X17531280Y-9209220D02*
X17531060Y-9209000D01*
X18415000Y-6530000D02*
X18445000Y-6560000D01*
X19370000Y-7917500D02*
X19317500Y-7865000D01*
X19285060Y-11185000D02*
X19370000Y-11100060D01*
X13578340Y-10594220D02*
X13195840Y-10594220D01*
X18620000Y-6955000D02*
X18645000Y-6980000D01*
X18225250Y-7865000D02*
X18645000Y-7865000D01*
X17902500Y-10949949D02*
X18137551Y-11185000D01*
X11153340Y-9434220D02*
X11008340Y-9579220D01*
X17899000Y-10834220D02*
X17073340Y-10834220D01*
X12355840Y-9434220D02*
X11153340Y-9434220D01*
X14645000Y-6530000D02*
X18415000Y-6530000D01*
X13166340Y-10564720D02*
X13166340Y-10462970D01*
X14193620Y-10374500D02*
X14125840Y-10306720D01*
X15975840Y-9369220D02*
X14925987Y-9369220D01*
X14925987Y-9369220D02*
X14923487Y-9371720D01*
X14872840Y-10374500D02*
X14494440Y-10374500D01*
X18645000Y-6980000D02*
X18645000Y-7865000D01*
X13650840Y-10306720D02*
X13610840Y-10346720D01*
X18445000Y-6915000D02*
X18485000Y-6955000D01*
X13195840Y-10594220D02*
X13166340Y-10564720D01*
X17902500Y-9209220D02*
X17531280Y-9209220D01*
X18445000Y-6560000D02*
X18445000Y-6915000D01*
X18485000Y-6955000D02*
X18620000Y-6955000D01*
X19370000Y-11100060D02*
X19370000Y-7917500D01*
X12418340Y-9371720D02*
X12355840Y-9434220D01*
X11013620Y-10374500D02*
X10759440Y-10374500D01*
X19317500Y-7865000D02*
X18645000Y-7865000D01*
X14125840Y-10306720D02*
X13650840Y-10306720D01*
X18137551Y-11185000D02*
X19285060Y-11185000D01*
%TO.N,Net-(U1-IO8)*%
X17905000Y-8560000D02*
X17947000Y-8518000D01*
X16380250Y-7621000D02*
X16824000Y-7621000D01*
X16825000Y-8560000D02*
X17905000Y-8560000D01*
X17947000Y-8518000D02*
X17947000Y-8270250D01*
X16824000Y-7621000D02*
X16825000Y-7620000D01*
%TO.N,Net-(U1-IO2)*%
X16380250Y-7748000D02*
X16898000Y-7748000D01*
X18190000Y-7065000D02*
X18225000Y-7100000D01*
X18225000Y-7100000D02*
X18225000Y-7610750D01*
X16898000Y-7748000D02*
X16900000Y-7750000D01*
X16900000Y-7065000D02*
X18190000Y-7065000D01*
%TO.N,/A18*%
X14779220Y-10247500D02*
X14494440Y-10247500D01*
X17414750Y-7738000D02*
X17082000Y-7738000D01*
X17082000Y-7738000D02*
X17080000Y-7740000D01*
X15990840Y-9186720D02*
X16063340Y-9114220D01*
X14780000Y-10246720D02*
X14779220Y-10247500D01*
X12133340Y-9241720D02*
X12188340Y-9186720D01*
X12188340Y-9186720D02*
X14778340Y-9186720D01*
X15280000Y-6335000D02*
X15285000Y-6340000D01*
X16063340Y-9114220D02*
X16850840Y-9114220D01*
X14778340Y-9186720D02*
X15990840Y-9186720D01*
X10369120Y-10247500D02*
X10759440Y-10247500D01*
X10368340Y-9241720D02*
X12133340Y-9241720D01*
X15285000Y-6340000D02*
X17080000Y-6340000D01*
%TO.N,Net-(U1-IO1)*%
X18074000Y-7189000D02*
X18074000Y-7459750D01*
X18045000Y-7160000D02*
X18074000Y-7189000D01*
X16585000Y-7105000D02*
X16725000Y-7105000D01*
X16725000Y-7105000D02*
X16780000Y-7160000D01*
X16780000Y-7160000D02*
X18045000Y-7160000D01*
X16380250Y-7875000D02*
X16585000Y-7875000D01*
%TO.N,Net-(Q1-G)*%
X9920000Y-6850000D02*
X9920000Y-7115000D01*
X11468000Y-5128160D02*
X11468000Y-5357500D01*
X10145000Y-5100320D02*
X10147540Y-5097780D01*
X9920000Y-7115000D02*
X9861000Y-7174000D01*
X11437620Y-5097780D02*
X11468000Y-5128160D01*
X9260000Y-7174000D02*
X8890000Y-7174000D01*
X9960000Y-6810000D02*
X9920000Y-6850000D01*
X10146000Y-7171000D02*
X10145000Y-7170000D01*
X10145000Y-6810000D02*
X9960000Y-6810000D01*
X10146000Y-7464750D02*
X10146000Y-7171000D01*
X9861000Y-7174000D02*
X9260000Y-7174000D01*
X10147540Y-5097780D02*
X11437620Y-5097780D01*
%TO.N,Net-(D1-K)*%
X17962500Y-8865000D02*
X17877500Y-8780000D01*
X16405840Y-8681720D02*
X16337560Y-8750000D01*
X16337560Y-8750000D02*
X12265060Y-8750000D01*
X18575000Y-9270000D02*
X18885000Y-9270000D01*
X18320000Y-9740000D02*
X18320000Y-9910000D01*
X17877500Y-8780000D02*
X17331620Y-8780000D01*
X18320000Y-9910000D02*
X18575000Y-9910000D01*
X12020060Y-8995000D02*
X10590000Y-8995000D01*
X17977500Y-9670000D02*
X18250000Y-9670000D01*
X18250000Y-9670000D02*
X18320000Y-9740000D01*
X18575000Y-9910000D02*
X18845000Y-9910000D01*
X9994750Y-7870000D02*
X10590000Y-7870000D01*
X17233340Y-8681720D02*
X16405840Y-8681720D01*
X12265060Y-8750000D02*
X12020060Y-8995000D01*
X17331620Y-8780000D02*
X17233340Y-8681720D01*
%TO.N,/A19*%
X12400840Y-9054220D02*
X15925840Y-9054220D01*
X18480000Y-7040000D02*
X18505000Y-7065000D01*
X15540000Y-6620000D02*
X18285000Y-6620000D01*
X12350840Y-10501500D02*
X12082240Y-10501500D01*
X18505000Y-7700000D02*
X18467000Y-7738000D01*
X18505000Y-7065000D02*
X18505000Y-7700000D01*
X17795380Y-7738000D02*
X18225250Y-7738000D01*
X18467000Y-7738000D02*
X18225250Y-7738000D01*
X17583340Y-9056720D02*
X17580840Y-9054220D01*
X17795000Y-7738380D02*
X17795380Y-7738000D01*
X18365000Y-7040000D02*
X18480000Y-7040000D01*
X18325000Y-7000000D02*
X18365000Y-7040000D01*
X18285000Y-6620000D02*
X18325000Y-6660000D01*
X18325000Y-6660000D02*
X18325000Y-7000000D01*
X17580840Y-9054220D02*
X15925840Y-9054220D01*
X16018340Y-10501720D02*
X16018120Y-10501500D01*
X16018120Y-10501500D02*
X15817240Y-10501500D01*
%TO.N,/A10*%
X16753340Y-11086720D02*
X16815340Y-11024720D01*
X13849590Y-11019720D02*
X14110340Y-11019720D01*
X16103340Y-11086720D02*
X16753340Y-11086720D01*
X14110340Y-11019720D02*
X14110840Y-11019220D01*
X15227500Y-10439220D02*
X13840840Y-10439220D01*
X13840840Y-10439220D02*
X13323340Y-10956720D01*
X13323340Y-10956720D02*
X12463840Y-10956720D01*
X16815340Y-11024720D02*
X17433340Y-11024720D01*
X12411340Y-11009220D02*
X12082520Y-11009220D01*
X12463840Y-10956720D02*
X12460840Y-10959720D01*
X17433340Y-11024720D02*
X17667090Y-11024720D01*
X12082520Y-11009220D02*
X12082240Y-11009500D01*
X15235840Y-11009220D02*
X16025840Y-11009220D01*
X12460840Y-10959720D02*
X12411340Y-11009220D01*
X17566000Y-8129000D02*
X17566000Y-8270250D01*
X17602500Y-8092500D02*
X17566000Y-8129000D01*
X16025840Y-11009220D02*
X16103340Y-11086720D01*
%TO.N,/~{FC1}*%
X15975000Y-8280250D02*
X15975000Y-8065000D01*
X15975000Y-6705000D02*
X12790000Y-6705000D01*
%TO.N,Net-(U5-I7)*%
X11717020Y-4818380D02*
X10955020Y-4818380D01*
X10914380Y-6090920D02*
X10924540Y-6101080D01*
X11341000Y-6074510D02*
X11341000Y-5852500D01*
X11720000Y-5074920D02*
X11720000Y-5355500D01*
X9994750Y-7997000D02*
X9708000Y-7997000D01*
X10955020Y-4818380D02*
X10916920Y-4856480D01*
X10924540Y-6101080D02*
X11314430Y-6101080D01*
X9705000Y-6090920D02*
X10914380Y-6090920D01*
X11314430Y-6101080D02*
X11341000Y-6074510D01*
X9708000Y-7997000D02*
X9705000Y-8000000D01*
%TO.N,Net-(U5-IO5)*%
X10805250Y-7997000D02*
X11248000Y-7997000D01*
X11248000Y-7997000D02*
X11250000Y-7995000D01*
X11468000Y-5900000D02*
X11468000Y-6172100D01*
X11468000Y-6172100D02*
X11468100Y-6172200D01*
X11529060Y-5072380D02*
X11595000Y-5138320D01*
X11468100Y-6172200D02*
X11528400Y-6172200D01*
X11595000Y-5138320D02*
X11595000Y-5357500D01*
X11528400Y-6172200D02*
X11530000Y-6173800D01*
X11529060Y-5071420D02*
X11529060Y-5072380D01*
X11250000Y-6172200D02*
X11468100Y-6172200D01*
%TO.N,Net-(U5-IO6)*%
X10870000Y-6245860D02*
X10872540Y-6248400D01*
X10839000Y-8124000D02*
X10870000Y-8155000D01*
X10870000Y-8155000D02*
X10870000Y-8315000D01*
X10872540Y-6248400D02*
X11541760Y-6248400D01*
X11541760Y-6248400D02*
X11595000Y-6195160D01*
X11595000Y-6195160D02*
X11595000Y-5852500D01*
%TO.N,/A11*%
X12334120Y-11395000D02*
X12403340Y-11464220D01*
X11671867Y-13131720D02*
X17875780Y-13131720D01*
X19049000Y-11409000D02*
X17670370Y-11409000D01*
X11484713Y-11395000D02*
X12334120Y-11395000D01*
X11482610Y-11392896D02*
X11484713Y-11395000D01*
X18074000Y-8270250D02*
X18074000Y-8429000D01*
X11600073Y-13059926D02*
X11671867Y-13131720D01*
X17670370Y-11409000D02*
X17667090Y-11405720D01*
X19050000Y-11410000D02*
X19049000Y-11409000D01*
X13000000Y-4910000D02*
X14240000Y-4910000D01*
X15005840Y-11451720D02*
X15067060Y-11390500D01*
X19085000Y-11410000D02*
X19050000Y-11410000D01*
X14224340Y-11451720D02*
X15005840Y-11451720D01*
X14173340Y-11400720D02*
X14224340Y-11451720D01*
X12986840Y-11400720D02*
X13849590Y-11400720D01*
X17875780Y-13131720D02*
X17925000Y-13082500D01*
X12923340Y-11464220D02*
X12986840Y-11400720D01*
X12403340Y-11464220D02*
X12923340Y-11464220D01*
X18074000Y-8429000D02*
X18140000Y-8495000D01*
X14173340Y-11400720D02*
X13849590Y-11400720D01*
X18140000Y-8495000D02*
X19085000Y-8495000D01*
X15067060Y-11390500D02*
X15817240Y-11390500D01*
%TO.N,Net-(U6B-D)*%
X11235000Y-5705000D02*
X11680000Y-5705000D01*
X11722000Y-5747000D02*
X11722000Y-5852500D01*
X11214000Y-5852500D02*
X11214000Y-5726000D01*
X11214000Y-5726000D02*
X11235000Y-5705000D01*
X11680000Y-5705000D02*
X11722000Y-5747000D01*
%TO.N,/A12*%
X13846397Y-11149913D02*
X13849590Y-11146720D01*
X15988120Y-11136500D02*
X15817240Y-11136500D01*
X13477560Y-11207500D02*
X13535147Y-11149913D01*
X13535147Y-11149913D02*
X13846397Y-11149913D01*
X14144568Y-11146720D02*
X14324568Y-11326720D01*
X12505840Y-11211720D02*
X12430620Y-11136500D01*
X13111899Y-11207500D02*
X13477560Y-11207500D01*
X13104001Y-11211720D02*
X12505840Y-11211720D01*
X17072090Y-11152970D02*
X17082090Y-11152970D01*
X14324568Y-11326720D02*
X14845840Y-11326720D01*
X15817020Y-11136720D02*
X15817240Y-11136500D01*
X15035840Y-11136720D02*
X15817020Y-11136720D01*
X17310000Y-8170000D02*
X17361000Y-8119000D01*
X17010840Y-11214220D02*
X16065840Y-11214220D01*
X17082090Y-11152970D02*
X17083340Y-11151720D01*
X12430620Y-11136500D02*
X12082240Y-11136500D01*
X17083340Y-11151720D02*
X17667090Y-11151720D01*
X13105840Y-11213559D02*
X13111899Y-11207500D01*
X16065840Y-11214220D02*
X15988120Y-11136500D01*
X13105840Y-11213559D02*
X13104001Y-11211720D01*
X13849590Y-11146720D02*
X14144568Y-11146720D01*
X14845840Y-11326720D02*
X15035840Y-11136720D01*
X17310000Y-8250000D02*
X17310000Y-8170000D01*
X17072090Y-11152970D02*
X17010840Y-11214220D01*
%TO.N,/~{IPL0}*%
X11045000Y-6815000D02*
X13800000Y-6815000D01*
X10805250Y-7743000D02*
X11043000Y-7743000D01*
X11043000Y-7743000D02*
X11045000Y-7745000D01*
X13800000Y-6815000D02*
X13805000Y-6810000D01*
%TO.N,/~{RST}*%
X10286000Y-8124000D02*
X10340000Y-8070000D01*
X15015000Y-4915000D02*
X15020000Y-4910000D01*
X15415000Y-4905000D02*
X15410000Y-4910000D01*
X15020000Y-4910000D02*
X14825000Y-4910000D01*
X9994750Y-8124000D02*
X10286000Y-8124000D01*
X15015000Y-5170000D02*
X15015000Y-4915000D01*
X10340000Y-6345000D02*
X14825000Y-6345000D01*
X15410000Y-4910000D02*
X15020000Y-4910000D01*
%TO.N,/A13*%
X14000060Y-9640000D02*
X13575000Y-9640000D01*
X16726840Y-9517220D02*
X17655840Y-9517220D01*
X16725840Y-10606720D02*
X16725840Y-10471970D01*
X11782840Y-9511220D02*
X11910840Y-9639220D01*
X14766840Y-10629220D02*
X14495160Y-10629220D01*
X18039000Y-8119000D02*
X18225250Y-8119000D01*
X11910840Y-9639220D02*
X13574220Y-9639220D01*
X17655840Y-9517220D02*
X17757840Y-9619220D01*
X12912340Y-10462970D02*
X12823750Y-10462970D01*
X11190000Y-10626720D02*
X11187500Y-10629220D01*
X17918340Y-8010000D02*
X17990000Y-8010000D01*
X10760160Y-10629220D02*
X10759440Y-10628500D01*
X16718840Y-9509220D02*
X14842340Y-9509220D01*
X11186840Y-9511220D02*
X11782840Y-9511220D01*
X14126840Y-9513220D02*
X14000060Y-9640000D01*
X13574220Y-9639220D02*
X13575000Y-9640000D01*
X18015000Y-8095000D02*
X18039000Y-8119000D01*
X14842340Y-9509220D02*
X14838340Y-9513220D01*
X14495160Y-10629220D02*
X14494440Y-10628500D01*
X17990000Y-8010000D02*
X18015000Y-8035000D01*
X17757840Y-9619220D02*
X17834220Y-9619220D01*
X11187500Y-10629220D02*
X10760160Y-10629220D01*
X12823750Y-10462970D02*
X12822500Y-10464220D01*
X18015000Y-8035000D02*
X18015000Y-8095000D01*
X17834220Y-9619220D02*
X17835000Y-9620000D01*
X16725840Y-10471970D02*
X16729840Y-10467970D01*
X14838340Y-9513220D02*
X14126840Y-9513220D01*
X16726840Y-9517220D02*
X16718840Y-9509220D01*
%TO.N,/A20*%
X17414750Y-7611000D02*
X16976000Y-7611000D01*
X16975000Y-6440000D02*
X15785000Y-6440000D01*
X16976000Y-7611000D02*
X16975000Y-7610000D01*
%TO.N,/~{IPL1}*%
X10555000Y-7720000D02*
X10640000Y-7720000D01*
X12400000Y-4770000D02*
X12440000Y-4810000D01*
X10699000Y-7616000D02*
X10805250Y-7616000D01*
X12355000Y-4670000D02*
X12400000Y-4715000D01*
X12400000Y-4715000D02*
X12400000Y-4760000D01*
X12440000Y-4810000D02*
X14010000Y-4810000D01*
X10640000Y-7720000D02*
X10665000Y-7695000D01*
X10555000Y-4740000D02*
X10675000Y-4740000D01*
X10675000Y-4740000D02*
X10745000Y-4670000D01*
X12400000Y-4760000D02*
X12400000Y-4770000D01*
X10665000Y-7650000D02*
X10699000Y-7616000D01*
X10665000Y-7695000D02*
X10665000Y-7650000D01*
X10745000Y-4670000D02*
X12355000Y-4670000D01*
%TO.N,/A14*%
X15817240Y-10755500D02*
X15362120Y-10755500D01*
X15362120Y-10755500D02*
X15360840Y-10754220D01*
X17608000Y-7992000D02*
X17645000Y-7955000D01*
X14043340Y-10766720D02*
X14017840Y-10766720D01*
X17545840Y-10736720D02*
X17579840Y-10770720D01*
X14366840Y-10081220D02*
X14293840Y-10154220D01*
X17978340Y-10769220D02*
X17976840Y-10770720D01*
X12392060Y-10755500D02*
X12082240Y-10755500D01*
X15365000Y-9798220D02*
X15364000Y-9797220D01*
X13768840Y-10154220D02*
X13686840Y-10236220D01*
X14887840Y-9797220D02*
X14603840Y-10081220D01*
X17650000Y-7895000D02*
X17675000Y-7870000D01*
X17547840Y-9705220D02*
X17625840Y-9783220D01*
X13257840Y-10316220D02*
X12831340Y-10316220D01*
X16195840Y-9705220D02*
X17547840Y-9705220D01*
X17675000Y-7870000D02*
X18050000Y-7870000D01*
X15938840Y-9800220D02*
X15973840Y-9835220D01*
X13888340Y-10154220D02*
X13768840Y-10154220D01*
X14293840Y-10154220D02*
X13888340Y-10154220D01*
X14016840Y-10765720D02*
X13849590Y-10765720D01*
X15365000Y-9798220D02*
X15367000Y-9800220D01*
X16065840Y-9835220D02*
X16195840Y-9705220D01*
X15973840Y-9835220D02*
X16065840Y-9835220D01*
X12831340Y-10316220D02*
X12392060Y-10755500D01*
X17579840Y-10770720D02*
X17667090Y-10770720D01*
X14603840Y-10081220D02*
X14366840Y-10081220D01*
X14017840Y-10766720D02*
X14016840Y-10765720D01*
X17545840Y-10601720D02*
X17545840Y-10736720D01*
X17625840Y-10521720D02*
X17545840Y-10601720D01*
X17625840Y-9783220D02*
X17625840Y-10521720D01*
X15367000Y-9800220D02*
X15938840Y-9800220D01*
X13337840Y-10236220D02*
X13257840Y-10316220D01*
X13686840Y-10236220D02*
X13337840Y-10236220D01*
X17650000Y-7950000D02*
X17650000Y-7895000D01*
X15364000Y-9797220D02*
X14887840Y-9797220D01*
X17976840Y-10770720D02*
X17667090Y-10770720D01*
X17414750Y-7992000D02*
X17608000Y-7992000D01*
X17645000Y-7955000D02*
X17650000Y-7950000D01*
%TO.N,/~{HLT}*%
X14780000Y-5070000D02*
X14830000Y-5120000D01*
X15405000Y-5170000D02*
X15665000Y-5170000D01*
X15390000Y-5290000D02*
X15405000Y-5275000D01*
X10805250Y-7870000D02*
X11105000Y-7870000D01*
X14885000Y-5290000D02*
X15390000Y-5290000D01*
X11150600Y-4922520D02*
X11158220Y-4914900D01*
X15405000Y-5275000D02*
X15405000Y-5170000D01*
X12160000Y-5070000D02*
X14780000Y-5070000D01*
X14830000Y-5235000D02*
X14885000Y-5290000D01*
X12004900Y-4914900D02*
X12160000Y-5070000D01*
X14830000Y-5120000D02*
X14830000Y-5235000D01*
X11158220Y-4914900D02*
X12004900Y-4914900D01*
%TO.N,Net-(D1-A)*%
X18330000Y-8975000D02*
X18620000Y-8975000D01*
X18620000Y-8975000D02*
X18661000Y-9016000D01*
X18661000Y-9016000D02*
X18885000Y-9016000D01*
%TO.N,/A21*%
X16825000Y-5440000D02*
X16050000Y-5440000D01*
X17525000Y-7430000D02*
X16825000Y-7430000D01*
X17536250Y-7430000D02*
X17525000Y-7430000D01*
X17566000Y-7459750D02*
X17536250Y-7430000D01*
%TO.N,/A22*%
X9898340Y-6294220D02*
X9898340Y-6501720D01*
X12095000Y-5175000D02*
X11931420Y-5011420D01*
X17695000Y-4710000D02*
X15920000Y-4710000D01*
X11931420Y-5011420D02*
X9958580Y-5011420D01*
X17693000Y-7678000D02*
X17695000Y-7680000D01*
X14515000Y-5175000D02*
X12095000Y-5175000D01*
X17693000Y-7459750D02*
X17693000Y-7678000D01*
X15920000Y-4710000D02*
X14515000Y-4710000D01*
X17700000Y-4715000D02*
X17695000Y-4710000D01*
X9958580Y-5011420D02*
X9900000Y-5070000D01*
X9903340Y-6501720D02*
X9905840Y-6499220D01*
X9898340Y-6501720D02*
X9903340Y-6501720D01*
%TO.N,Net-(U11-DIS)*%
X9647500Y-10718500D02*
X9426500Y-10718500D01*
X9400000Y-10745000D02*
X9400000Y-10780000D01*
X9405000Y-10740000D02*
X9400000Y-10745000D01*
X9426500Y-10718500D02*
X9405000Y-10740000D01*
X9884731Y-13179220D02*
X18560840Y-13179220D01*
X9647500Y-10591500D02*
X9647500Y-10718500D01*
X9400000Y-12694489D02*
X9884731Y-13179220D01*
X18560840Y-13179220D02*
X19095840Y-12644220D01*
%TO.N,Net-(D3-A)*%
X8948500Y-10718500D02*
X8945000Y-10715000D01*
X9970000Y-9236250D02*
X9581250Y-9236250D01*
X10171250Y-9236250D02*
X9970000Y-9236250D01*
X10173000Y-7743000D02*
X10175000Y-7745000D01*
X9525000Y-8960000D02*
X9575000Y-9010000D01*
X8950840Y-8960000D02*
X9525000Y-8960000D01*
X10175000Y-9240000D02*
X10171250Y-9236250D01*
X9994750Y-7743000D02*
X10173000Y-7743000D01*
X9575000Y-9010000D02*
X9575000Y-9230000D01*
X9152500Y-10718500D02*
X8948500Y-10718500D01*
%TO.N,Net-(D3-K)*%
X9338500Y-10591500D02*
X9340000Y-10590000D01*
X9725000Y-10335000D02*
X9780000Y-10280000D01*
X9780000Y-9546250D02*
X9773750Y-9540000D01*
X9780000Y-10280000D02*
X9780000Y-9546250D01*
X9773750Y-9540000D02*
X9575000Y-9540000D01*
X9515000Y-10335000D02*
X9725000Y-10335000D01*
X9340000Y-10590000D02*
X9420000Y-10590000D01*
X9152500Y-10591500D02*
X9338500Y-10591500D01*
X9465000Y-10385000D02*
X9515000Y-10335000D01*
X9773750Y-9540000D02*
X9963750Y-9540000D01*
X9420000Y-10590000D02*
X9465000Y-10545000D01*
X9465000Y-10545000D02*
X9465000Y-10385000D01*
%TO.N,Net-(D2-A)*%
X8565000Y-9290000D02*
X8625000Y-9230000D01*
X9408500Y-10140000D02*
X8635000Y-10140000D01*
X8565000Y-10070000D02*
X8565000Y-9290000D01*
X8635000Y-10140000D02*
X8565000Y-10070000D01*
X8625000Y-9230000D02*
X8810000Y-9230000D01*
%TO.N,/A23*%
X18010000Y-7651720D02*
X17886720Y-7651720D01*
X16100840Y-4226720D02*
X14075840Y-4226720D01*
X16172000Y-4297880D02*
X16100840Y-4226720D01*
X10158340Y-6354220D02*
X10158340Y-6501720D01*
X10025840Y-6296720D02*
X10100840Y-6296720D01*
X14010840Y-4616720D02*
X13963340Y-4664220D01*
X10100840Y-6296720D02*
X10158340Y-6354220D01*
X12738340Y-4571720D02*
X12738340Y-4261720D01*
X18010000Y-5545000D02*
X16170000Y-5545000D01*
X10510840Y-4231720D02*
X9948340Y-4231720D01*
X17820000Y-7585000D02*
X17820000Y-7459750D01*
X14075840Y-4226720D02*
X14010840Y-4291720D01*
X14010840Y-4291720D02*
X14010840Y-4616720D01*
X10633340Y-4109220D02*
X10510840Y-4231720D01*
X12738340Y-4261720D02*
X12585840Y-4109220D01*
X16172000Y-4420000D02*
X16172000Y-4297880D01*
X17886720Y-7651720D02*
X17820000Y-7585000D01*
X13963340Y-4664220D02*
X12830840Y-4664220D01*
X9948340Y-4231720D02*
X9945840Y-4229220D01*
X12585840Y-4109220D02*
X10633340Y-4109220D01*
X12830840Y-4664220D02*
X12738340Y-4571720D01*
%TO.N,/D15*%
X17813280Y-13089220D02*
X17842500Y-13060000D01*
X16520000Y-8856720D02*
X17738340Y-8856720D01*
X17844660Y-11659720D02*
X17845000Y-11660060D01*
X11590000Y-12965000D02*
X11714220Y-13089220D01*
X11714220Y-13089220D02*
X17813280Y-13089220D01*
X17842500Y-13060000D02*
X17845000Y-13060000D01*
X17667090Y-11659720D02*
X17844660Y-11659720D01*
X16517500Y-8859220D02*
X16520000Y-8856720D01*
X12081960Y-11644220D02*
X12082240Y-11644500D01*
X17738340Y-8856720D02*
X17740840Y-8854220D01*
X11625780Y-11644220D02*
X12081960Y-11644220D01*
%TO.N,/A3*%
X13606306Y-11209220D02*
X14123340Y-11209220D01*
X15569750Y-7875000D02*
X15737500Y-7875000D01*
X11310030Y-11392530D02*
X11378193Y-11324367D01*
X12425840Y-11199220D02*
X12500179Y-11273559D01*
X14839560Y-11390500D02*
X14494440Y-11390500D01*
X10455000Y-4075000D02*
X10490000Y-4040000D01*
X11378193Y-11324367D02*
X11378193Y-11324220D01*
X13541967Y-11273559D02*
X13606306Y-11209220D01*
X12500179Y-11273559D02*
X13541967Y-11273559D01*
X14123340Y-11209220D02*
X14304620Y-11390500D01*
X15944909Y-11201720D02*
X15565840Y-11201720D01*
X11820000Y-4040000D02*
X11854000Y-4006000D01*
X11854000Y-4006000D02*
X11854000Y-3912000D01*
X15028340Y-11201720D02*
X14839560Y-11390500D01*
X10490000Y-4040000D02*
X11820000Y-4040000D01*
X14304620Y-11390500D02*
X14494440Y-11390500D01*
X10455000Y-4144220D02*
X10455000Y-4075000D01*
X11503193Y-11199220D02*
X12425840Y-11199220D01*
X16021909Y-11278720D02*
X15944909Y-11201720D01*
X16554590Y-11278720D02*
X16021909Y-11278720D01*
X15737500Y-7875000D02*
X15740000Y-7877500D01*
X10462530Y-11392530D02*
X11310030Y-11392530D01*
X15565840Y-11201720D02*
X15028340Y-11201720D01*
X11378193Y-11324220D02*
X11503193Y-11199220D01*
%TO.N,/A4*%
X12734590Y-11149220D02*
X12737090Y-11146720D01*
X11353340Y-12506720D02*
X11355840Y-12509220D01*
X15031840Y-11069220D02*
X15425840Y-11069220D01*
X12737090Y-11146720D02*
X13189909Y-11146720D01*
X14233636Y-11131720D02*
X14365416Y-11263500D01*
X14837560Y-11263500D02*
X15031840Y-11069220D01*
X16095840Y-11151720D02*
X16554590Y-11151720D01*
X13189909Y-11146720D02*
X13822409Y-10514220D01*
X11355840Y-12509220D02*
X12305840Y-12509220D01*
X12560840Y-11149220D02*
X12734590Y-11149220D01*
X10760160Y-11264220D02*
X10759440Y-11263500D01*
X15425000Y-7450000D02*
X15705000Y-7450000D01*
X13822409Y-10514220D02*
X14233340Y-10514220D01*
X16013340Y-11069220D02*
X16095840Y-11151720D01*
X14365416Y-11263500D02*
X14837560Y-11263500D01*
X15425840Y-11069220D02*
X16013340Y-11069220D01*
X11353340Y-11264220D02*
X10760160Y-11264220D01*
X15705000Y-7450000D02*
X15721000Y-7466000D01*
%TO.N,/A6*%
X16113340Y-10691720D02*
X16319340Y-10897720D01*
X13580693Y-11084220D02*
X13575000Y-11089913D01*
X13293340Y-10892720D02*
X12737090Y-10892720D01*
X16319340Y-10897720D02*
X16554590Y-10897720D01*
X15340000Y-7825000D02*
X15340000Y-7655000D01*
X15193340Y-10691720D02*
X16113340Y-10691720D01*
X15093840Y-10791220D02*
X15193340Y-10691720D01*
X14715840Y-11009220D02*
X14220840Y-11009220D01*
X11537500Y-11009220D02*
X10759720Y-11009220D01*
X15094840Y-7865000D02*
X15300000Y-7865000D01*
X11762840Y-9834220D02*
X11657840Y-9729220D01*
X14220840Y-11009220D02*
X14145840Y-11084220D01*
X13233840Y-9834220D02*
X11762840Y-9834220D01*
X15093840Y-10791220D02*
X14933840Y-10791220D01*
X14145840Y-11084220D02*
X13580693Y-11084220D01*
X13400840Y-10785220D02*
X13293340Y-10892720D01*
X13400840Y-10784220D02*
X13400840Y-10785220D01*
X11540000Y-11006720D02*
X11537500Y-11009220D01*
X15300000Y-7865000D02*
X15340000Y-7825000D01*
X11657840Y-9729220D02*
X11540000Y-9729220D01*
X15340000Y-7655000D02*
X15374000Y-7621000D01*
X15374000Y-7621000D02*
X15569750Y-7621000D01*
X10759720Y-11009220D02*
X10759440Y-11009500D01*
X14933840Y-10791220D02*
X14715840Y-11009220D01*
%TO.N,/A7*%
X10595000Y-9663220D02*
X11677840Y-9663220D01*
X13483340Y-11004220D02*
X13658340Y-10829220D01*
X10595780Y-10882500D02*
X10759440Y-10882500D01*
X13243840Y-10825220D02*
X13414840Y-10654220D01*
X13011840Y-10825220D02*
X13243840Y-10825220D01*
X12060000Y-9152500D02*
X12057500Y-9155000D01*
X15848000Y-7469750D02*
X15848000Y-7698000D01*
X14023340Y-10829220D02*
X14076620Y-10882500D01*
X13658340Y-10829220D02*
X14023340Y-10829220D01*
X15610840Y-10171720D02*
X16313340Y-10171720D01*
X14622560Y-10882500D02*
X14847840Y-10657220D01*
X12057500Y-9155000D02*
X10595000Y-9155000D01*
X11788840Y-9774220D02*
X13480840Y-9774220D01*
X14494440Y-10882500D02*
X14622560Y-10882500D01*
X12952340Y-10765720D02*
X13011840Y-10825220D01*
X12737090Y-10765720D02*
X12952340Y-10765720D01*
X14076620Y-10882500D02*
X14494440Y-10882500D01*
X13414840Y-10654220D02*
X13480840Y-10654220D01*
X16315000Y-10770720D02*
X16554590Y-10770720D01*
X10595000Y-10881720D02*
X10595780Y-10882500D01*
X15890000Y-7740000D02*
X16205000Y-7740000D01*
X14847840Y-10657220D02*
X15125340Y-10657220D01*
X11677840Y-9663220D02*
X11788840Y-9774220D01*
X15125340Y-10657220D02*
X15610840Y-10171720D01*
X15848000Y-7698000D02*
X15890000Y-7740000D01*
%TO.N,/A2*%
X12402340Y-11400720D02*
X12330840Y-11329220D01*
X12245840Y-9341720D02*
X12308340Y-9279220D01*
X12737090Y-11400720D02*
X12402340Y-11400720D01*
X16298340Y-11456720D02*
X16349340Y-11405720D01*
X11220840Y-11449220D02*
X11152560Y-11517500D01*
X11935840Y-9341720D02*
X12245840Y-9341720D01*
X15154840Y-11519220D02*
X15152340Y-11516720D01*
X15418340Y-11456720D02*
X16298340Y-11456720D01*
X11430840Y-11329220D02*
X11310840Y-11449220D01*
X11310840Y-11449220D02*
X11220840Y-11449220D01*
X15253000Y-8002000D02*
X15250000Y-8005000D01*
X10535000Y-9341720D02*
X10535000Y-9348380D01*
X10758660Y-11516720D02*
X10759440Y-11517500D01*
X15359840Y-11515220D02*
X15418340Y-11456720D01*
X15158840Y-11515220D02*
X15359840Y-11515220D01*
X15569750Y-8002000D02*
X15253000Y-8002000D01*
X12330840Y-11329220D02*
X11430840Y-11329220D01*
X10535000Y-9341720D02*
X11935840Y-9341720D01*
X12308340Y-9279220D02*
X15250000Y-9279220D01*
X11152560Y-11517500D02*
X10759440Y-11517500D01*
X15152340Y-11516720D02*
X14495220Y-11516720D01*
X16349340Y-11405720D02*
X16554590Y-11405720D01*
X15154840Y-11519220D02*
X15158840Y-11515220D01*
X10540780Y-11516720D02*
X10758660Y-11516720D01*
X14495220Y-11516720D02*
X14494440Y-11517500D01*
%TO.N,/D14*%
X16170840Y-11704220D02*
X16198340Y-11731720D01*
X12082460Y-11771720D02*
X12311720Y-11771720D01*
X16938000Y-5960000D02*
X16934000Y-5956000D01*
X15113340Y-11704220D02*
X16170840Y-11704220D01*
X13568021Y-11571720D02*
X13832521Y-11836220D01*
X16380840Y-11731720D02*
X16698340Y-12049220D01*
X17490000Y-5960000D02*
X16938000Y-5960000D01*
X12715840Y-11839220D02*
X12840840Y-11714220D01*
X17491840Y-11968220D02*
X17491840Y-11835470D01*
X13003340Y-11714220D02*
X13145840Y-11571720D01*
X14981340Y-11836220D02*
X15113340Y-11704220D01*
X16698340Y-12049220D02*
X17410840Y-12049220D01*
X17491840Y-11670220D02*
X17490840Y-11669220D01*
X12082240Y-11771500D02*
X12082460Y-11771720D01*
X13832521Y-11836220D02*
X14981340Y-11836220D01*
X17491840Y-11835470D02*
X17491840Y-11670220D01*
X17410840Y-12049220D02*
X17491840Y-11968220D01*
X12840840Y-11714220D02*
X13003340Y-11714220D01*
X12311720Y-11771720D02*
X12379220Y-11839220D01*
X12379220Y-11839220D02*
X12715840Y-11839220D01*
X16198340Y-11731720D02*
X16380840Y-11731720D01*
X13145840Y-11571720D02*
X13568021Y-11571720D01*
%TO.N,/R_W*%
X10273000Y-7464750D02*
X10273000Y-7637000D01*
X10273000Y-7637000D02*
X10270000Y-7640000D01*
X15816520Y-10629220D02*
X15817240Y-10628500D01*
X15602000Y-10091720D02*
X16310340Y-10091720D01*
X17481840Y-10261220D02*
X17364840Y-10378220D01*
X14400000Y-5865000D02*
X17050000Y-5865000D01*
X10805000Y-4850000D02*
X10907740Y-4747260D01*
X14537840Y-9982220D02*
X14821840Y-9698220D01*
X15488340Y-10629220D02*
X15816520Y-10629220D01*
X14312840Y-9982220D02*
X14537840Y-9982220D01*
X10270000Y-4945000D02*
X10780000Y-4945000D01*
X16552840Y-9849220D02*
X17422840Y-9849220D01*
X13743840Y-10039220D02*
X14255840Y-10039220D01*
X10805000Y-4920000D02*
X10805000Y-4850000D01*
X11304271Y-10566720D02*
X11366051Y-10628500D01*
X13547340Y-10462970D02*
X13547340Y-10313220D01*
X13308840Y-10129220D02*
X13222840Y-10215220D01*
X13547340Y-10313220D02*
X13545840Y-10311720D01*
X12230000Y-4995000D02*
X14400000Y-4995000D01*
X10780000Y-4945000D02*
X10805000Y-4920000D01*
X12384060Y-10628500D02*
X12082240Y-10628500D01*
X13653840Y-10129220D02*
X13743840Y-10039220D01*
X17060000Y-5855000D02*
X17050000Y-5865000D01*
X13222840Y-10215220D02*
X12797340Y-10215220D01*
X15485840Y-10626720D02*
X15488340Y-10629220D01*
X12797340Y-10215220D02*
X12384060Y-10628500D01*
X12067260Y-4747260D02*
X12180000Y-4860000D01*
X15487840Y-9698220D02*
X15488840Y-9699220D01*
X12084020Y-10626720D02*
X12082240Y-10628500D01*
X16310340Y-10091720D02*
X16552840Y-9849220D01*
X17364840Y-10378220D02*
X17364840Y-10467970D01*
X13575000Y-10129220D02*
X13653840Y-10129220D01*
X14255840Y-10039220D02*
X14312840Y-9982220D01*
X12180000Y-4945000D02*
X12230000Y-4995000D01*
X10268340Y-10566720D02*
X11304271Y-10566720D01*
X10907740Y-4747260D02*
X12067260Y-4747260D01*
X12180000Y-4860000D02*
X12180000Y-4945000D01*
X17481840Y-9908220D02*
X17481840Y-10261220D01*
X13575000Y-10129220D02*
X13308840Y-10129220D01*
X11366051Y-10628500D02*
X12082240Y-10628500D01*
X15487500Y-10206220D02*
X15602000Y-10091720D01*
X17422840Y-9849220D02*
X17481840Y-9908220D01*
X14821840Y-9698220D02*
X15487840Y-9698220D01*
%TO.N,/D13*%
X16795840Y-11984220D02*
X17321840Y-11984220D01*
X14790840Y-13041720D02*
X11766720Y-13041720D01*
X16795840Y-12776720D02*
X15055840Y-12776720D01*
X11767560Y-11945000D02*
X11590000Y-11945000D01*
X17321840Y-11984220D02*
X17364840Y-11941220D01*
X12082240Y-11898500D02*
X11814060Y-11898500D01*
X11814060Y-11898500D02*
X11767560Y-11945000D01*
X11766720Y-13041720D02*
X11591000Y-12866000D01*
X17364840Y-11941220D02*
X17364840Y-11835470D01*
X15055840Y-12776720D02*
X14790840Y-13041720D01*
%TO.N,/~{LDS}*%
X12144500Y-8500000D02*
X14120000Y-8500000D01*
X14575000Y-6890000D02*
X17305000Y-6890000D01*
X14140000Y-8477500D02*
X14140000Y-8280250D01*
X14120000Y-8500000D02*
X14140000Y-8480000D01*
X11986000Y-8341500D02*
X12144500Y-8500000D01*
X14140000Y-8480000D02*
X14140000Y-8477500D01*
X14515000Y-8440000D02*
X14452500Y-8502500D01*
X14165000Y-8502500D02*
X14140000Y-8477500D01*
X14452500Y-8502500D02*
X14165000Y-8502500D01*
%TO.N,/D12*%
X12720000Y-12679220D02*
X12720000Y-12680880D01*
X16645000Y-12615000D02*
X17219120Y-12615000D01*
X17237840Y-11835470D02*
X17237840Y-11662220D01*
X16644220Y-12614220D02*
X16645000Y-12615000D01*
X12720000Y-12680880D02*
X12818340Y-12779220D01*
X12366620Y-12155000D02*
X12237120Y-12025500D01*
X17237840Y-11662220D02*
X17238340Y-11661720D01*
X16655000Y-5310000D02*
X17445000Y-5310000D01*
X12818340Y-12779220D02*
X14045840Y-12779220D01*
X12720000Y-12155000D02*
X12366620Y-12155000D01*
X17219120Y-12615000D02*
X17220840Y-12616720D01*
X14045840Y-12779220D02*
X14210840Y-12614220D01*
X14210840Y-12614220D02*
X16644220Y-12614220D01*
X12237120Y-12025500D02*
X12082240Y-12025500D01*
%TO.N,/~{UDS}*%
X11834750Y-8364750D02*
X11834750Y-8129000D01*
X13695000Y-7495000D02*
X13695000Y-7581250D01*
X12767500Y-8567500D02*
X12037500Y-8567500D01*
X13695000Y-7581250D02*
X13734750Y-7621000D01*
X12037500Y-8567500D02*
X11834750Y-8364750D01*
X12767500Y-7472500D02*
X12770000Y-7470000D01*
X13340000Y-5765000D02*
X17820000Y-5765000D01*
X13670000Y-7470000D02*
X13695000Y-7495000D01*
X13340000Y-7470000D02*
X13670000Y-7470000D01*
X12770000Y-7470000D02*
X13340000Y-7470000D01*
%TO.N,/D11*%
X12085840Y-12266720D02*
X12085840Y-12156100D01*
X17110840Y-11659220D02*
X17110840Y-11835470D01*
X14268340Y-12696720D02*
X17110840Y-12696720D01*
X14115840Y-12849220D02*
X14268340Y-12696720D01*
X12760840Y-12849220D02*
X14115840Y-12849220D01*
X12085840Y-12664220D02*
X12575840Y-12664220D01*
X12575840Y-12664220D02*
X12760840Y-12849220D01*
X12085840Y-12156100D02*
X12082240Y-12152500D01*
%TO.N,/~{AS}*%
X11290000Y-7055000D02*
X10450000Y-7055000D01*
X10450000Y-7055000D02*
X10400000Y-7105000D01*
X10400000Y-7105000D02*
X10400000Y-7464750D01*
X11160000Y-8280000D02*
X11350000Y-8090000D01*
X12280060Y-8810000D02*
X12020060Y-9070000D01*
X11350000Y-8090000D02*
X11350000Y-7115000D01*
X11160000Y-8569220D02*
X11160000Y-8280000D01*
X11353000Y-8002000D02*
X11834750Y-8002000D01*
X14916000Y-8129000D02*
X14545250Y-8129000D01*
X14920000Y-6795000D02*
X14925000Y-6790000D01*
X14920000Y-8810000D02*
X12280060Y-8810000D01*
X12020060Y-9070000D02*
X11157500Y-9070000D01*
X14920000Y-8125000D02*
X14916000Y-8129000D01*
X14925000Y-6790000D02*
X18070000Y-6790000D01*
X11350000Y-7115000D02*
X11290000Y-7055000D01*
X18070000Y-6790000D02*
X18075000Y-6785000D01*
%TO.N,/D3*%
X18966000Y-4420000D02*
X18966000Y-4669000D01*
X18095840Y-12169220D02*
X17860840Y-12404220D01*
X18895000Y-4740000D02*
X18966000Y-4669000D01*
X16214120Y-12152500D02*
X15817240Y-12152500D01*
X13970840Y-12661720D02*
X14233340Y-12399220D01*
X13293340Y-12659220D02*
X13295840Y-12661720D01*
X16465840Y-12404220D02*
X16214120Y-12152500D01*
X14233340Y-12399220D02*
X15183340Y-12399220D01*
X15430060Y-12152500D02*
X15817240Y-12152500D01*
X18095840Y-12165000D02*
X18095840Y-12169220D01*
X17860840Y-12404220D02*
X16465840Y-12404220D01*
X13293340Y-11830470D02*
X13293340Y-11671720D01*
X15817240Y-12152500D02*
X15804740Y-12165000D01*
X13295840Y-12661720D02*
X13970840Y-12661720D01*
X15183340Y-12399220D02*
X15430060Y-12152500D01*
X18895000Y-4740000D02*
X18340000Y-4740000D01*
%TO.N,/D10*%
X11017120Y-12025500D02*
X10759440Y-12025500D01*
X11078500Y-12086880D02*
X11017120Y-12025500D01*
X13040840Y-12559220D02*
X12908340Y-12426720D01*
X16858340Y-11833970D02*
X16856840Y-11835470D01*
X11226720Y-12426720D02*
X11078500Y-12278500D01*
X16855840Y-12474220D02*
X16858340Y-12476720D01*
X16858340Y-12476720D02*
X16858340Y-12481720D01*
X18340000Y-4620000D02*
X18335000Y-4625000D01*
X14245840Y-12474220D02*
X16855840Y-12474220D01*
X16858340Y-12481720D02*
X16863340Y-12486720D01*
X11078500Y-12278500D02*
X11078500Y-12086880D01*
X16858340Y-11669220D02*
X16858340Y-11833970D01*
X12908340Y-12426720D02*
X11226720Y-12426720D01*
X18335000Y-4625000D02*
X14740000Y-4625000D01*
X13040840Y-12559220D02*
X13208340Y-12726720D01*
X13208340Y-12726720D02*
X13993340Y-12726720D01*
X13170000Y-5405000D02*
X14725000Y-5405000D01*
X13993340Y-12726720D02*
X14245840Y-12474220D01*
X14740000Y-4625000D02*
X14725000Y-4640000D01*
%TO.N,/D8*%
X18712000Y-4053000D02*
X18712000Y-3912000D01*
X10953120Y-11771500D02*
X10759440Y-11771500D01*
X11015840Y-11834220D02*
X10953120Y-11771500D01*
X18640000Y-4125000D02*
X18712000Y-4053000D01*
X13633340Y-12254220D02*
X13160840Y-12254220D01*
X16378340Y-11659220D02*
X16554090Y-11659220D01*
X15005840Y-12089220D02*
X14040840Y-12089220D01*
X12294220Y-11834220D02*
X11015840Y-11834220D01*
X12486720Y-12026720D02*
X12294220Y-11834220D01*
X13718340Y-4571720D02*
X13760000Y-4530060D01*
X14040840Y-12089220D02*
X13875840Y-12254220D01*
X16554090Y-11659220D02*
X16554590Y-11659720D01*
X16380840Y-11921720D02*
X16295840Y-11836720D01*
X13760000Y-4530060D02*
X13760000Y-4180000D01*
X15258340Y-11836720D02*
X15005840Y-12089220D01*
X12933340Y-12026720D02*
X12486720Y-12026720D01*
X13875840Y-12254220D02*
X13633340Y-12254220D01*
X13815000Y-4125000D02*
X18640000Y-4125000D01*
X16295840Y-11836720D02*
X15258340Y-11836720D01*
X13673340Y-4571720D02*
X13718340Y-4571720D01*
X13160840Y-12254220D02*
X12933340Y-12026720D01*
X13760000Y-4180000D02*
X13815000Y-4125000D01*
%TO.N,/D0*%
X14222500Y-8710000D02*
X14185000Y-8672500D01*
X12645250Y-7748000D02*
X13127000Y-7748000D01*
X14185000Y-8672500D02*
X13130000Y-8672500D01*
X13127000Y-7748000D02*
X13130000Y-7745000D01*
X12965340Y-11654720D02*
X12737090Y-11654720D01*
X18205000Y-8635000D02*
X16365060Y-8635000D01*
X14494440Y-11771500D02*
X13824370Y-11771500D01*
X16290060Y-8710000D02*
X14222500Y-8710000D01*
X13824370Y-11771500D02*
X13569590Y-11516720D01*
X14494660Y-11771720D02*
X14494440Y-11771500D01*
X13103340Y-11516720D02*
X12965340Y-11654720D01*
X16365060Y-8635000D02*
X16290060Y-8710000D01*
X13569590Y-11516720D02*
X13103340Y-11516720D01*
%TO.N,/D4*%
X19220000Y-4420000D02*
X19220000Y-5845000D01*
X19160000Y-5905000D02*
X17830000Y-5905000D01*
X15100840Y-12291720D02*
X15365840Y-12026720D01*
X13423340Y-12519220D02*
X13431560Y-12511000D01*
X13431560Y-12511000D02*
X13904060Y-12511000D01*
X14123340Y-12291720D02*
X15100840Y-12291720D01*
X16530840Y-12269220D02*
X17858280Y-12269220D01*
X15365840Y-12026720D02*
X16288340Y-12026720D01*
X13420840Y-11829970D02*
X13420340Y-11830470D01*
X19220000Y-5845000D02*
X19160000Y-5905000D01*
X16288340Y-12026720D02*
X16530840Y-12269220D01*
X13904060Y-12511000D02*
X14123340Y-12291720D01*
X13420840Y-11671720D02*
X13420840Y-11829970D01*
X17858280Y-12269220D02*
X18027500Y-12100000D01*
%TO.N,/D9*%
X11259220Y-12354220D02*
X11190000Y-12285000D01*
X16735840Y-11676720D02*
X16735840Y-11829470D01*
X13385840Y-12591720D02*
X13935840Y-12591720D01*
X15388340Y-12089220D02*
X16245840Y-12089220D01*
X16735840Y-11829470D02*
X16729840Y-11835470D01*
X11143500Y-11898500D02*
X10759440Y-11898500D01*
X16500840Y-12344220D02*
X16735840Y-12344220D01*
X12895840Y-12354220D02*
X13148340Y-12354220D01*
X12895840Y-12354220D02*
X11259220Y-12354220D01*
X16735840Y-12344220D02*
X16740840Y-12344220D01*
X18585000Y-5645000D02*
X12895000Y-5645000D01*
X13148340Y-12354220D02*
X13385840Y-12591720D01*
X11190000Y-12285000D02*
X11190000Y-11945000D01*
X14180840Y-12346720D02*
X15130840Y-12346720D01*
X13935840Y-12591720D02*
X14180840Y-12346720D01*
X16245840Y-12089220D02*
X16500840Y-12344220D01*
X15130840Y-12346720D02*
X15388340Y-12089220D01*
X11190000Y-11945000D02*
X11143500Y-11898500D01*
%TO.N,/D2*%
X13860840Y-12159220D02*
X13170840Y-12159220D01*
X14278340Y-12539220D02*
X14280840Y-12536720D01*
X17904220Y-9481720D02*
X17770000Y-9347500D01*
X14278340Y-12029220D02*
X13990840Y-12029220D01*
X17770000Y-9347500D02*
X17145000Y-9347500D01*
X18697500Y-9535000D02*
X18541620Y-9535000D01*
X14280840Y-12026720D02*
X14493220Y-12026720D01*
X17045840Y-12536720D02*
X17048340Y-12539220D01*
X14278340Y-12029220D02*
X14280840Y-12026720D01*
X13170840Y-12159220D02*
X13039340Y-12027720D01*
X18541620Y-9535000D02*
X18488340Y-9481720D01*
X14280840Y-12536720D02*
X17045840Y-12536720D01*
X14493220Y-12026720D02*
X14494440Y-12025500D01*
X13039340Y-12027720D02*
X13039340Y-11830470D01*
X13990840Y-12029220D02*
X13860840Y-12159220D01*
X18488340Y-9481720D02*
X17904220Y-9481720D01*
X18700000Y-9537500D02*
X18697500Y-9535000D01*
%TO.N,/D7*%
X18990000Y-4135000D02*
X18966000Y-4111000D01*
X16013280Y-11596720D02*
X18198340Y-11596720D01*
X15965780Y-11644220D02*
X16013280Y-11596720D01*
X18565000Y-6745000D02*
X18565000Y-6025000D01*
X19505000Y-11220000D02*
X19505000Y-6835000D01*
X18966000Y-4111000D02*
X18966000Y-3912000D01*
X18620000Y-5970000D02*
X19310000Y-5970000D01*
X19350000Y-4175500D02*
X19309500Y-4135000D01*
X14101340Y-11654720D02*
X14153340Y-11706720D01*
X14153340Y-11706720D02*
X14963340Y-11706720D01*
X19460000Y-6790000D02*
X18610000Y-6790000D01*
X19310000Y-5970000D02*
X19350000Y-5930000D01*
X18295060Y-11500000D02*
X19225000Y-11500000D01*
X18610000Y-6790000D02*
X18565000Y-6745000D01*
X13849590Y-11654720D02*
X14101340Y-11654720D01*
X19225000Y-11500000D02*
X19505000Y-11220000D01*
X18198340Y-11596720D02*
X18295060Y-11500000D01*
X19350000Y-5930000D02*
X19350000Y-4175500D01*
X19309500Y-4135000D02*
X18990000Y-4135000D01*
X15025840Y-11644220D02*
X15965780Y-11644220D01*
X19505000Y-6835000D02*
X19460000Y-6790000D01*
X14963340Y-11706720D02*
X15025840Y-11644220D01*
X18565000Y-6025000D02*
X18620000Y-5970000D01*
%TO.N,/D6*%
X18333340Y-11571720D02*
X18113340Y-11791720D01*
X18595000Y-5775000D02*
X18980000Y-5775000D01*
X15180000Y-11776720D02*
X14997500Y-11959220D01*
X13803090Y-11959220D02*
X13674340Y-11830470D01*
X18113340Y-11791720D02*
X17888340Y-11791720D01*
X17888340Y-11791720D02*
X17555840Y-12124220D01*
X17555840Y-12124220D02*
X16683340Y-12124220D01*
X16335840Y-11776720D02*
X15180000Y-11776720D01*
X18590000Y-5780000D02*
X18595000Y-5775000D01*
X14997500Y-11959220D02*
X13803090Y-11959220D01*
X16683340Y-12124220D02*
X16335840Y-11776720D01*
%TO.N,/D1*%
X13403340Y-9441720D02*
X14568340Y-9441720D01*
X12760840Y-11898252D02*
X12761808Y-11898252D01*
X18451720Y-9560000D02*
X17885620Y-9560000D01*
X17769840Y-9444220D02*
X14570840Y-9444220D01*
X13400840Y-9439220D02*
X13403340Y-9441720D01*
X12761808Y-11898252D02*
X12829590Y-11830470D01*
X12829590Y-11830470D02*
X12912340Y-11830470D01*
X13339000Y-7621000D02*
X13340000Y-7620000D01*
X12645250Y-7621000D02*
X13339000Y-7621000D01*
X14795120Y-11898500D02*
X14795840Y-11899220D01*
X12800840Y-9439220D02*
X13400840Y-9439220D01*
X17885620Y-9560000D02*
X17769840Y-9444220D01*
X14570840Y-9444220D02*
X14568340Y-9441720D01*
X14493720Y-11899220D02*
X14494440Y-11898500D01*
X14494440Y-11898500D02*
X14795120Y-11898500D01*
X18455000Y-9556720D02*
X18451720Y-9560000D01*
%TO.N,/D5*%
X13887780Y-12419220D02*
X13545840Y-12419220D01*
X18132560Y-12992500D02*
X18340840Y-12784220D01*
X15048280Y-12236720D02*
X14070280Y-12236720D01*
X18720000Y-6050000D02*
X19555000Y-6050000D01*
X13545840Y-11828970D02*
X13547340Y-11830470D01*
X19645000Y-4185000D02*
X19600000Y-4140000D01*
X17777500Y-12992500D02*
X18132560Y-12992500D01*
X18650000Y-6650000D02*
X18650000Y-6120000D01*
X18340840Y-12784220D02*
X18340840Y-12604220D01*
X18845840Y-12099220D02*
X18845840Y-11739220D01*
X16248340Y-11901720D02*
X15383280Y-11901720D01*
X18705000Y-6705000D02*
X18650000Y-6650000D01*
X19241569Y-11540000D02*
X19555000Y-11226569D01*
X19600000Y-4140000D02*
X19530000Y-4140000D01*
X17488340Y-12204220D02*
X17475840Y-12191720D01*
X14070280Y-12236720D02*
X13887780Y-12419220D01*
X19485000Y-6705000D02*
X18705000Y-6705000D01*
X19555000Y-6775000D02*
X19485000Y-6705000D01*
X19474000Y-4084000D02*
X19474000Y-3912000D01*
X19555000Y-6050000D02*
X19645000Y-5960000D01*
X13545840Y-11671720D02*
X13545840Y-11828970D01*
X16538340Y-12191720D02*
X16248340Y-11901720D01*
X19645000Y-5960000D02*
X19645000Y-4185000D01*
X15383280Y-11901720D02*
X15048280Y-12236720D01*
X19045060Y-11540000D02*
X19241569Y-11540000D01*
X17475840Y-12191720D02*
X16538340Y-12191720D01*
X18340840Y-12604220D02*
X18845840Y-12099220D01*
X19530000Y-4140000D02*
X19474000Y-4084000D01*
X19555000Y-11226569D02*
X19555000Y-6775000D01*
X18845840Y-11739220D02*
X19045060Y-11540000D01*
X18650000Y-6120000D02*
X18720000Y-6050000D01*
%TO.N,Net-(JP1-B)*%
X9748340Y-8536720D02*
X9748340Y-8681720D01*
X9420840Y-8134220D02*
X9420840Y-8209220D01*
X9420840Y-8209220D02*
X9748340Y-8536720D01*
%TO.N,Net-(JP1-A)*%
X9478340Y-8424220D02*
X9005840Y-8424220D01*
X11687560Y-8627500D02*
X12952560Y-8627500D01*
X10395840Y-8959220D02*
X10393340Y-8956720D01*
X9568340Y-8514220D02*
X9478340Y-8424220D01*
X9568340Y-8839220D02*
X9568340Y-8514220D01*
X14502500Y-8542500D02*
X14512500Y-8532500D01*
X10533340Y-8714220D02*
X11600840Y-8714220D01*
X14375000Y-7875000D02*
X14545250Y-7875000D01*
X9005840Y-8424220D02*
X8912840Y-8331220D01*
X9685840Y-8956720D02*
X9568340Y-8839220D01*
X10395840Y-8279410D02*
X10400000Y-8275250D01*
X11600840Y-8714220D02*
X11687560Y-8627500D01*
X10393340Y-8956720D02*
X9685840Y-8956720D01*
X12952560Y-8627500D02*
X13037560Y-8542500D01*
X13037560Y-8542500D02*
X14502500Y-8542500D01*
X10395840Y-8576720D02*
X10395840Y-8279410D01*
X8912840Y-8331220D02*
X8912840Y-8134220D01*
X10395840Y-8576720D02*
X10533340Y-8714220D01*
%TO.N,Net-(JP2-A)*%
X9013340Y-7569220D02*
X9790840Y-7569220D01*
X14425000Y-6795000D02*
X14785000Y-6795000D01*
X14785000Y-8002000D02*
X14545250Y-8002000D01*
X10025000Y-6950000D02*
X10080000Y-6895000D01*
X14325000Y-6895000D02*
X14425000Y-6795000D01*
X8916840Y-7769220D02*
X8916840Y-7665720D01*
X10080000Y-6895000D02*
X14325000Y-6895000D01*
X8916840Y-7665720D02*
X9013340Y-7569220D01*
X9790840Y-7569220D02*
X10025000Y-7335060D01*
X10025000Y-7335060D02*
X10025000Y-6950000D01*
%TO.N,Net-(JP3-C)*%
X9978340Y-6704220D02*
X10028340Y-6654220D01*
X9460060Y-6920000D02*
X9675840Y-6704220D01*
X9260000Y-6920000D02*
X9460060Y-6920000D01*
X10028340Y-6654220D02*
X10028340Y-6501720D01*
X9675840Y-6704220D02*
X9978340Y-6704220D01*
X8890000Y-6920000D02*
X9260000Y-6920000D01*
%TO.N,Net-(JP2-C)*%
X9994750Y-7616000D02*
X9241060Y-7616000D01*
X9241060Y-7616000D02*
X9170840Y-7686220D01*
X9170840Y-7686220D02*
X9170840Y-7769220D01*
%TD*%
M02*
