%TF.GenerationSoftware,KiCad,Pcbnew,9.0.0*%
%TF.CreationDate,2025-03-08T11:07:18+01:00*%
%TF.ProjectId,DeMoN-Flash-J,44654d6f-4e2d-4466-9c61-73682d4a2e6b,rev?*%
%TF.SameCoordinates,Original*%
%TF.FileFunction,Soldermask,Bot*%
%TF.FilePolarity,Negative*%
%FSLAX45Y45*%
G04 Gerber Fmt 4.5, Leading zero omitted, Abs format (unit mm)*
G04 Created by KiCad (PCBNEW 9.0.0) date 2025-03-08 11:07:18*
%MOMM*%
%LPD*%
G01*
G04 APERTURE LIST*
%ADD10R,1.500000X1.500000*%
%ADD11C,1.600000*%
%ADD12C,1.500000*%
%ADD13R,1.600000X1.600000*%
%ADD14R,1.800000X1.800000*%
%ADD15C,1.800000*%
%ADD16R,1.700000X1.700000*%
%ADD17O,1.700000X1.700000*%
%ADD18C,1.635000*%
%ADD19C,4.575000*%
G04 APERTURE END LIST*
D10*
%TO.C,SW2*%
X18850000Y-10169000D03*
D11*
X18850000Y-10423000D03*
X18850000Y-9915000D03*
%TD*%
D10*
%TO.C,Q2*%
X8890000Y-6920000D03*
D12*
X8890000Y-7174000D03*
X8890000Y-7428000D03*
%TD*%
D13*
%TO.C,C1*%
X9400000Y-12694489D03*
D11*
X9400000Y-12944489D03*
%TD*%
D14*
%TO.C,D2*%
X9445000Y-9922500D03*
D15*
X9445000Y-10176500D03*
%TD*%
D10*
%TO.C,Q1*%
X9260000Y-6920000D03*
D12*
X9260000Y-7174000D03*
X9260000Y-7428000D03*
%TD*%
D16*
%TO.C,JP1*%
X8912840Y-8134220D03*
D17*
X9166840Y-8134220D03*
X9420840Y-8134220D03*
%TD*%
D14*
%TO.C,SW1*%
X9167750Y-11537750D03*
D15*
X9667750Y-11537750D03*
X9167750Y-12037750D03*
X9667750Y-12037750D03*
%TD*%
D18*
%TO.C,CN1*%
X8806000Y-4420000D03*
X8806000Y-3912000D03*
X9060000Y-4420000D03*
X9060000Y-3912000D03*
X9314000Y-4420000D03*
X9314000Y-3912000D03*
X9568000Y-4420000D03*
X9568000Y-3912000D03*
X9822000Y-4420000D03*
X9822000Y-3912000D03*
X10076000Y-4420000D03*
X10076000Y-3912000D03*
X10330000Y-4420000D03*
X10330000Y-3912000D03*
X10584000Y-4420000D03*
X10584000Y-3912000D03*
X10838000Y-4420000D03*
X10838000Y-3912000D03*
X11092000Y-4420000D03*
X11092000Y-3912000D03*
X11346000Y-4420000D03*
X11346000Y-3912000D03*
X11600000Y-4420000D03*
X11600000Y-3912000D03*
X11854000Y-4420000D03*
X11854000Y-3912000D03*
X12108000Y-4420000D03*
X12108000Y-3912000D03*
X12362000Y-4420000D03*
X12362000Y-3912000D03*
X12616000Y-4420000D03*
X12616000Y-3912000D03*
X12870000Y-4420000D03*
X12870000Y-3912000D03*
X13124000Y-4420000D03*
X13124000Y-3912000D03*
X13378000Y-4420000D03*
X13378000Y-3912000D03*
X13632000Y-4420000D03*
X13632000Y-3912000D03*
X13886000Y-4420000D03*
X13886000Y-3912000D03*
X14140000Y-4420000D03*
X14140000Y-3912000D03*
X14394000Y-4420000D03*
X14394000Y-3912000D03*
X14648000Y-4420000D03*
X14648000Y-3912000D03*
X14902000Y-4420000D03*
X14902000Y-3912000D03*
X15156000Y-4420000D03*
X15156000Y-3912000D03*
X15410000Y-4420000D03*
X15410000Y-3912000D03*
X15664000Y-4420000D03*
X15664000Y-3912000D03*
X15918000Y-4420000D03*
X15918000Y-3912000D03*
X16172000Y-4420000D03*
X16172000Y-3912000D03*
X16426000Y-4420000D03*
X16426000Y-3912000D03*
X16680000Y-4420000D03*
X16680000Y-3912000D03*
X16934000Y-4420000D03*
X16934000Y-3912000D03*
X17188000Y-4420000D03*
X17188000Y-3912000D03*
X17442000Y-4420000D03*
X17442000Y-3912000D03*
X17696000Y-4420000D03*
X17696000Y-3912000D03*
X17950000Y-4420000D03*
X17950000Y-3912000D03*
X18204000Y-4420000D03*
X18204000Y-3912000D03*
X18458000Y-4420000D03*
X18458000Y-3912000D03*
X18712000Y-4420000D03*
X18712000Y-3912000D03*
X18966000Y-4420000D03*
X18966000Y-3912000D03*
X19220000Y-4420000D03*
X19220000Y-3912000D03*
X19474000Y-4420000D03*
X19474000Y-3912000D03*
%TD*%
D13*
%TO.C,C6*%
X8995000Y-8765000D03*
D11*
X8745000Y-8765000D03*
%TD*%
D14*
%TO.C,D1*%
X18885000Y-9270000D03*
D15*
X18885000Y-9016000D03*
%TD*%
%TO.C,VR1*%
X18595840Y-12644220D03*
X18845840Y-12644220D03*
X19095840Y-12644220D03*
D19*
X18405840Y-11944220D03*
X19285840Y-11944220D03*
%TD*%
D16*
%TO.C,JP2*%
X8916840Y-7769220D03*
D17*
X9170840Y-7769220D03*
X9424840Y-7769220D03*
%TD*%
M02*
