%TF.GenerationSoftware,KiCad,Pcbnew,9.0.0*%
%TF.CreationDate,2025-03-08T12:01:39+01:00*%
%TF.ProjectId,DeMoN-Flash-J,44654d6f-4e2d-4466-9c61-73682d4a2e6b,rev?*%
%TF.SameCoordinates,Original*%
%TF.FileFunction,Soldermask,Top*%
%TF.FilePolarity,Negative*%
%FSLAX45Y45*%
G04 Gerber Fmt 4.5, Leading zero omitted, Abs format (unit mm)*
G04 Created by KiCad (PCBNEW 9.0.0) date 2025-03-08 12:01:39*
%MOMM*%
%LPD*%
G01*
G04 APERTURE LIST*
G04 Aperture macros list*
%AMRoundRect*
0 Rectangle with rounded corners*
0 $1 Rounding radius*
0 $2 $3 $4 $5 $6 $7 $8 $9 X,Y pos of 4 corners*
0 Add a 4 corners polygon primitive as box body*
4,1,4,$2,$3,$4,$5,$6,$7,$8,$9,$2,$3,0*
0 Add four circle primitives for the rounded corners*
1,1,$1+$1,$2,$3*
1,1,$1+$1,$4,$5*
1,1,$1+$1,$6,$7*
1,1,$1+$1,$8,$9*
0 Add four rect primitives between the rounded corners*
20,1,$1+$1,$2,$3,$4,$5,0*
20,1,$1+$1,$4,$5,$6,$7,0*
20,1,$1+$1,$6,$7,$8,$9,0*
20,1,$1+$1,$8,$9,$2,$3,0*%
%AMFreePoly0*
4,1,23,0.550000,-0.750000,0.000000,-0.750000,0.000000,-0.745722,-0.065263,-0.745722,-0.191342,-0.711940,-0.304381,-0.646677,-0.396677,-0.554381,-0.461940,-0.441342,-0.495722,-0.315263,-0.495722,-0.250000,-0.500000,-0.250000,-0.500000,0.250000,-0.495722,0.250000,-0.495722,0.315263,-0.461940,0.441342,-0.396677,0.554381,-0.304381,0.646677,-0.191342,0.711940,-0.065263,0.745722,0.000000,0.745722,
0.000000,0.750000,0.550000,0.750000,0.550000,-0.750000,0.550000,-0.750000,$1*%
%AMFreePoly1*
4,1,23,0.000000,0.745722,0.065263,0.745722,0.191342,0.711940,0.304381,0.646677,0.396677,0.554381,0.461940,0.441342,0.495722,0.315263,0.495722,0.250000,0.500000,0.250000,0.500000,-0.250000,0.495722,-0.250000,0.495722,-0.315263,0.461940,-0.441342,0.396677,-0.554381,0.304381,-0.646677,0.191342,-0.711940,0.065263,-0.745722,0.000000,-0.745722,0.000000,-0.750000,-0.550000,-0.750000,
-0.550000,0.750000,0.000000,0.750000,0.000000,0.745722,0.000000,0.745722,$1*%
G04 Aperture macros list end*
%ADD10R,1.500000X1.500000*%
%ADD11C,1.600000*%
%ADD12C,1.500000*%
%ADD13R,1.600000X1.600000*%
%ADD14R,1.800000X1.800000*%
%ADD15C,1.800000*%
%ADD16RoundRect,0.250000X-0.412500X-0.650000X0.412500X-0.650000X0.412500X0.650000X-0.412500X0.650000X0*%
%ADD17R,1.700000X1.700000*%
%ADD18O,1.700000X1.700000*%
%ADD19R,0.700000X2.410000*%
%ADD20R,2.410000X0.700000*%
%ADD21R,1.981000X0.457000*%
%ADD22RoundRect,0.250000X-0.625000X0.400000X-0.625000X-0.400000X0.625000X-0.400000X0.625000X0.400000X0*%
%ADD23RoundRect,0.250000X-0.650000X0.412500X-0.650000X-0.412500X0.650000X-0.412500X0.650000X0.412500X0*%
%ADD24C,1.635000*%
%ADD25RoundRect,0.250000X0.412500X0.650000X-0.412500X0.650000X-0.412500X-0.650000X0.412500X-0.650000X0*%
%ADD26RoundRect,0.150000X-0.150000X-0.587500X0.150000X-0.587500X0.150000X0.587500X-0.150000X0.587500X0*%
%ADD27RoundRect,0.150000X-0.587500X-0.150000X0.587500X-0.150000X0.587500X0.150000X-0.587500X0.150000X0*%
%ADD28RoundRect,0.150000X-0.150000X1.350000X-0.150000X-1.350000X0.150000X-1.350000X0.150000X1.350000X0*%
%ADD29C,4.575000*%
%ADD30RoundRect,0.150000X-0.825000X-0.150000X0.825000X-0.150000X0.825000X0.150000X-0.825000X0.150000X0*%
%ADD31FreePoly0,0.000000*%
%ADD32R,1.000000X1.500000*%
%ADD33FreePoly1,0.000000*%
%ADD34RoundRect,0.250001X0.624999X-0.462499X0.624999X0.462499X-0.624999X0.462499X-0.624999X-0.462499X0*%
%ADD35RoundRect,0.250000X-0.400000X-0.625000X0.400000X-0.625000X0.400000X0.625000X-0.400000X0.625000X0*%
G04 APERTURE END LIST*
D10*
%TO.C,SW2*%
X18850000Y-10169000D03*
D11*
X18850000Y-10423000D03*
X18850000Y-9915000D03*
%TD*%
D10*
%TO.C,Q2*%
X8890000Y-6920000D03*
D12*
X8890000Y-7174000D03*
X8890000Y-7428000D03*
%TD*%
D13*
%TO.C,C1*%
X9400000Y-12694489D03*
D11*
X9400000Y-12944489D03*
%TD*%
D14*
%TO.C,D2*%
X9445000Y-9922500D03*
D15*
X9445000Y-10176500D03*
%TD*%
D16*
%TO.C,C10*%
X11266590Y-9972220D03*
X11579090Y-9972220D03*
%TD*%
D10*
%TO.C,Q1*%
X9260000Y-6920000D03*
D12*
X9260000Y-7174000D03*
X9260000Y-7428000D03*
%TD*%
D17*
%TO.C,JP1*%
X8912840Y-8134220D03*
D18*
X9166840Y-8134220D03*
X9420840Y-8134220D03*
%TD*%
D19*
%TO.C,U4*%
X12240000Y-7445500D03*
X12113000Y-7445500D03*
X11986000Y-7445500D03*
D20*
X11810500Y-7621000D03*
X11810500Y-7748000D03*
X11810500Y-7875000D03*
X11810500Y-8002000D03*
X11810500Y-8129000D03*
D19*
X11986000Y-8304500D03*
X12113000Y-8304500D03*
X12240000Y-8304500D03*
X12367000Y-8304500D03*
X12494000Y-8304500D03*
D20*
X12669500Y-8129000D03*
X12669500Y-8002000D03*
X12669500Y-7875000D03*
X12669500Y-7748000D03*
X12669500Y-7621000D03*
D19*
X12494000Y-7445500D03*
X12367000Y-7445500D03*
%TD*%
D14*
%TO.C,SW1*%
X9167750Y-11537750D03*
D15*
X9667750Y-11537750D03*
X9167750Y-12037750D03*
X9667750Y-12037750D03*
%TD*%
D21*
%TO.C,U8*%
X14494440Y-10247500D03*
X14494440Y-10374500D03*
X14494440Y-10501500D03*
X14494440Y-10628500D03*
X14494440Y-10755500D03*
X14494440Y-10882500D03*
X14494440Y-11009500D03*
X14494440Y-11136500D03*
X14494440Y-11263500D03*
X14494440Y-11390500D03*
X14494440Y-11517500D03*
X14494440Y-11644500D03*
X14494440Y-11771500D03*
X14494440Y-11898500D03*
X14494440Y-12025500D03*
X14494440Y-12152500D03*
X15817240Y-12152500D03*
X15817240Y-12025500D03*
X15817240Y-11898500D03*
X15817240Y-11771500D03*
X15817240Y-11644500D03*
X15817240Y-11517500D03*
X15817240Y-11390500D03*
X15817240Y-11263500D03*
X15817240Y-11136500D03*
X15817240Y-11009500D03*
X15817240Y-10882500D03*
X15817240Y-10755500D03*
X15817240Y-10628500D03*
X15817240Y-10501500D03*
X15817240Y-10374500D03*
X15817240Y-10247500D03*
%TD*%
D22*
%TO.C,R3*%
X18330000Y-8975000D03*
X18330000Y-9285000D03*
%TD*%
D23*
%TO.C,C2*%
X10240000Y-11158750D03*
X10240000Y-11471250D03*
%TD*%
D24*
%TO.C,CN1*%
X8806000Y-4420000D03*
X8806000Y-3912000D03*
X9060000Y-4420000D03*
X9060000Y-3912000D03*
X9314000Y-4420000D03*
X9314000Y-3912000D03*
X9568000Y-4420000D03*
X9568000Y-3912000D03*
X9822000Y-4420000D03*
X9822000Y-3912000D03*
X10076000Y-4420000D03*
X10076000Y-3912000D03*
X10330000Y-4420000D03*
X10330000Y-3912000D03*
X10584000Y-4420000D03*
X10584000Y-3912000D03*
X10838000Y-4420000D03*
X10838000Y-3912000D03*
X11092000Y-4420000D03*
X11092000Y-3912000D03*
X11346000Y-4420000D03*
X11346000Y-3912000D03*
X11600000Y-4420000D03*
X11600000Y-3912000D03*
X11854000Y-4420000D03*
X11854000Y-3912000D03*
X12108000Y-4420000D03*
X12108000Y-3912000D03*
X12362000Y-4420000D03*
X12362000Y-3912000D03*
X12616000Y-4420000D03*
X12616000Y-3912000D03*
X12870000Y-4420000D03*
X12870000Y-3912000D03*
X13124000Y-4420000D03*
X13124000Y-3912000D03*
X13378000Y-4420000D03*
X13378000Y-3912000D03*
X13632000Y-4420000D03*
X13632000Y-3912000D03*
X13886000Y-4420000D03*
X13886000Y-3912000D03*
X14140000Y-4420000D03*
X14140000Y-3912000D03*
X14394000Y-4420000D03*
X14394000Y-3912000D03*
X14648000Y-4420000D03*
X14648000Y-3912000D03*
X14902000Y-4420000D03*
X14902000Y-3912000D03*
X15156000Y-4420000D03*
X15156000Y-3912000D03*
X15410000Y-4420000D03*
X15410000Y-3912000D03*
X15664000Y-4420000D03*
X15664000Y-3912000D03*
X15918000Y-4420000D03*
X15918000Y-3912000D03*
X16172000Y-4420000D03*
X16172000Y-3912000D03*
X16426000Y-4420000D03*
X16426000Y-3912000D03*
X16680000Y-4420000D03*
X16680000Y-3912000D03*
X16934000Y-4420000D03*
X16934000Y-3912000D03*
X17188000Y-4420000D03*
X17188000Y-3912000D03*
X17442000Y-4420000D03*
X17442000Y-3912000D03*
X17696000Y-4420000D03*
X17696000Y-3912000D03*
X17950000Y-4420000D03*
X17950000Y-3912000D03*
X18204000Y-4420000D03*
X18204000Y-3912000D03*
X18458000Y-4420000D03*
X18458000Y-3912000D03*
X18712000Y-4420000D03*
X18712000Y-3912000D03*
X18966000Y-4420000D03*
X18966000Y-3912000D03*
X19220000Y-4420000D03*
X19220000Y-3912000D03*
X19474000Y-4420000D03*
X19474000Y-3912000D03*
%TD*%
D25*
%TO.C,C7*%
X17267090Y-10000000D03*
X16954590Y-10000000D03*
%TD*%
D22*
%TO.C,R1*%
X15405000Y-5170000D03*
X15405000Y-5480000D03*
%TD*%
D25*
%TO.C,C4*%
X15791250Y-7065000D03*
X15478750Y-7065000D03*
%TD*%
D26*
%TO.C,U9*%
X17110840Y-10467970D03*
X16983840Y-10467970D03*
X16856840Y-10467970D03*
X16729840Y-10467970D03*
D27*
X16554590Y-10643720D03*
X16554590Y-10770720D03*
X16554590Y-10897720D03*
X16554590Y-11024720D03*
X16554590Y-11151720D03*
X16554590Y-11278720D03*
X16554590Y-11405720D03*
X16554590Y-11532720D03*
X16554590Y-11659720D03*
D26*
X16729840Y-11835470D03*
X16856840Y-11835470D03*
X16983840Y-11835470D03*
X17110840Y-11835470D03*
X17237840Y-11835470D03*
X17364840Y-11835470D03*
X17491840Y-11835470D03*
D27*
X17667090Y-11659720D03*
X17667090Y-11532720D03*
X17667090Y-11405720D03*
X17667090Y-11278720D03*
X17667090Y-11151720D03*
X17667090Y-11024720D03*
X17667090Y-10897720D03*
X17667090Y-10770720D03*
X17667090Y-10643720D03*
D26*
X17491840Y-10467970D03*
X17364840Y-10467970D03*
X17237840Y-10467970D03*
%TD*%
D22*
%TO.C,R6*%
X9195000Y-9230000D03*
X9195000Y-9540000D03*
%TD*%
D13*
%TO.C,C6*%
X8995000Y-8765000D03*
D11*
X8745000Y-8765000D03*
%TD*%
D25*
%TO.C,C9*%
X13456090Y-10000000D03*
X13143590Y-10000000D03*
%TD*%
D19*
%TO.C,U3*%
X14140000Y-7445500D03*
X14013000Y-7445500D03*
X13886000Y-7445500D03*
D20*
X13710500Y-7621000D03*
X13710500Y-7748000D03*
X13710500Y-7875000D03*
X13710500Y-8002000D03*
X13710500Y-8129000D03*
D19*
X13886000Y-8304500D03*
X14013000Y-8304500D03*
X14140000Y-8304500D03*
X14267000Y-8304500D03*
X14394000Y-8304500D03*
D20*
X14569500Y-8129000D03*
X14569500Y-8002000D03*
X14569500Y-7875000D03*
X14569500Y-7748000D03*
X14569500Y-7621000D03*
D19*
X14394000Y-7445500D03*
X14267000Y-7445500D03*
%TD*%
D21*
%TO.C,U10*%
X10759440Y-10247500D03*
X10759440Y-10374500D03*
X10759440Y-10501500D03*
X10759440Y-10628500D03*
X10759440Y-10755500D03*
X10759440Y-10882500D03*
X10759440Y-11009500D03*
X10759440Y-11136500D03*
X10759440Y-11263500D03*
X10759440Y-11390500D03*
X10759440Y-11517500D03*
X10759440Y-11644500D03*
X10759440Y-11771500D03*
X10759440Y-11898500D03*
X10759440Y-12025500D03*
X10759440Y-12152500D03*
X12082240Y-12152500D03*
X12082240Y-12025500D03*
X12082240Y-11898500D03*
X12082240Y-11771500D03*
X12082240Y-11644500D03*
X12082240Y-11517500D03*
X12082240Y-11390500D03*
X12082240Y-11263500D03*
X12082240Y-11136500D03*
X12082240Y-11009500D03*
X12082240Y-10882500D03*
X12082240Y-10755500D03*
X12082240Y-10628500D03*
X12082240Y-10501500D03*
X12082240Y-10374500D03*
X12082240Y-10247500D03*
%TD*%
D14*
%TO.C,D1*%
X18885000Y-9270000D03*
D15*
X18885000Y-9016000D03*
%TD*%
D19*
%TO.C,U1*%
X17820000Y-7435500D03*
X17693000Y-7435500D03*
X17566000Y-7435500D03*
D20*
X17390500Y-7611000D03*
X17390500Y-7738000D03*
X17390500Y-7865000D03*
X17390500Y-7992000D03*
X17390500Y-8119000D03*
D19*
X17566000Y-8294500D03*
X17693000Y-8294500D03*
X17820000Y-8294500D03*
X17947000Y-8294500D03*
X18074000Y-8294500D03*
D20*
X18249500Y-8119000D03*
X18249500Y-7992000D03*
X18249500Y-7865000D03*
X18249500Y-7738000D03*
X18249500Y-7611000D03*
D19*
X18074000Y-7435500D03*
X17947000Y-7435500D03*
%TD*%
%TO.C,U5*%
X10400000Y-7440500D03*
X10273000Y-7440500D03*
X10146000Y-7440500D03*
D20*
X9970500Y-7616000D03*
X9970500Y-7743000D03*
X9970500Y-7870000D03*
X9970500Y-7997000D03*
X9970500Y-8124000D03*
D19*
X10146000Y-8299500D03*
X10273000Y-8299500D03*
X10400000Y-8299500D03*
X10527000Y-8299500D03*
X10654000Y-8299500D03*
D20*
X10829500Y-8124000D03*
X10829500Y-7997000D03*
X10829500Y-7870000D03*
X10829500Y-7743000D03*
X10829500Y-7616000D03*
D19*
X10654000Y-7440500D03*
X10527000Y-7440500D03*
%TD*%
D23*
%TO.C,C3*%
X18320000Y-10613750D03*
X18320000Y-10926250D03*
%TD*%
D28*
%TO.C,U6*%
X11976000Y-5310000D03*
X11849000Y-5310000D03*
X11722000Y-5310000D03*
X11595000Y-5310000D03*
X11468000Y-5310000D03*
X11341000Y-5310000D03*
X11214000Y-5310000D03*
X11214000Y-5900000D03*
X11341000Y-5900000D03*
X11468000Y-5900000D03*
X11595000Y-5900000D03*
X11722000Y-5900000D03*
X11849000Y-5900000D03*
X11976000Y-5900000D03*
%TD*%
D15*
%TO.C,VR1*%
X18595840Y-12644220D03*
X18845840Y-12644220D03*
X19095840Y-12644220D03*
D29*
X18405840Y-11944220D03*
X19285840Y-11944220D03*
%TD*%
D26*
%TO.C,U7*%
X13293340Y-10462970D03*
X13166340Y-10462970D03*
X13039340Y-10462970D03*
X12912340Y-10462970D03*
D27*
X12737090Y-10638720D03*
X12737090Y-10765720D03*
X12737090Y-10892720D03*
X12737090Y-11019720D03*
X12737090Y-11146720D03*
X12737090Y-11273720D03*
X12737090Y-11400720D03*
X12737090Y-11527720D03*
X12737090Y-11654720D03*
D26*
X12912340Y-11830470D03*
X13039340Y-11830470D03*
X13166340Y-11830470D03*
X13293340Y-11830470D03*
X13420340Y-11830470D03*
X13547340Y-11830470D03*
X13674340Y-11830470D03*
D27*
X13849590Y-11654720D03*
X13849590Y-11527720D03*
X13849590Y-11400720D03*
X13849590Y-11273720D03*
X13849590Y-11146720D03*
X13849590Y-11019720D03*
X13849590Y-10892720D03*
X13849590Y-10765720D03*
X13849590Y-10638720D03*
D26*
X13674340Y-10462970D03*
X13547340Y-10462970D03*
X13420340Y-10462970D03*
%TD*%
D30*
%TO.C,U11*%
X9152500Y-10464500D03*
X9152500Y-10591500D03*
X9152500Y-10718500D03*
X9152500Y-10845500D03*
X9647500Y-10845500D03*
X9647500Y-10718500D03*
X9647500Y-10591500D03*
X9647500Y-10464500D03*
%TD*%
D22*
%TO.C,R7*%
X8810000Y-9230000D03*
X8810000Y-9540000D03*
%TD*%
D31*
%TO.C,JP3*%
X9898340Y-6501720D03*
D32*
X10028340Y-6501720D03*
D33*
X10158340Y-6501720D03*
%TD*%
D34*
%TO.C,D3*%
X9970000Y-9533750D03*
X9970000Y-9236250D03*
%TD*%
D22*
%TO.C,R4*%
X18320000Y-9910000D03*
X18320000Y-10220000D03*
%TD*%
D17*
%TO.C,JP2*%
X8916840Y-7769220D03*
D18*
X9170840Y-7769220D03*
X9424840Y-7769220D03*
%TD*%
D25*
%TO.C,C8*%
X15305090Y-9972220D03*
X14992590Y-9972220D03*
%TD*%
D22*
%TO.C,R2*%
X15015000Y-5170000D03*
X15015000Y-5480000D03*
%TD*%
D35*
%TO.C,R8*%
X9438340Y-8681720D03*
X9748340Y-8681720D03*
%TD*%
D19*
%TO.C,U2*%
X15975000Y-7445500D03*
X15848000Y-7445500D03*
X15721000Y-7445500D03*
D20*
X15545500Y-7621000D03*
X15545500Y-7748000D03*
X15545500Y-7875000D03*
X15545500Y-8002000D03*
X15545500Y-8129000D03*
D19*
X15721000Y-8304500D03*
X15848000Y-8304500D03*
X15975000Y-8304500D03*
X16102000Y-8304500D03*
X16229000Y-8304500D03*
D20*
X16404500Y-8129000D03*
X16404500Y-8002000D03*
X16404500Y-7875000D03*
X16404500Y-7748000D03*
X16404500Y-7621000D03*
D19*
X16229000Y-7445500D03*
X16102000Y-7445500D03*
%TD*%
D25*
%TO.C,C5*%
X9071250Y-4860000D03*
X8758750Y-4860000D03*
%TD*%
D22*
%TO.C,R5*%
X9575000Y-9230000D03*
X9575000Y-9540000D03*
%TD*%
M02*
