%TF.GenerationSoftware,KiCad,Pcbnew,8.0.3*%
%TF.CreationDate,2025-02-20T16:06:23+01:00*%
%TF.ProjectId,DeMoN-Flash-J,44654d6f-4e2d-4466-9c61-73682d4a2e6b,rev?*%
%TF.SameCoordinates,Original*%
%TF.FileFunction,Copper,L2,Bot*%
%TF.FilePolarity,Positive*%
%FSLAX46Y46*%
G04 Gerber Fmt 4.6, Leading zero omitted, Abs format (unit mm)*
G04 Created by KiCad (PCBNEW 8.0.3) date 2025-02-20 16:06:23*
%MOMM*%
%LPD*%
G01*
G04 APERTURE LIST*
%TA.AperFunction,ComponentPad*%
%ADD10R,1.500000X1.500000*%
%TD*%
%TA.AperFunction,ComponentPad*%
%ADD11C,1.600000*%
%TD*%
%TA.AperFunction,ComponentPad*%
%ADD12C,1.500000*%
%TD*%
%TA.AperFunction,ComponentPad*%
%ADD13R,1.600000X1.600000*%
%TD*%
%TA.AperFunction,ComponentPad*%
%ADD14R,1.800000X1.800000*%
%TD*%
%TA.AperFunction,ComponentPad*%
%ADD15C,1.800000*%
%TD*%
%TA.AperFunction,ComponentPad*%
%ADD16R,1.700000X1.700000*%
%TD*%
%TA.AperFunction,ComponentPad*%
%ADD17O,1.700000X1.700000*%
%TD*%
%TA.AperFunction,ComponentPad*%
%ADD18C,1.635000*%
%TD*%
%TA.AperFunction,ComponentPad*%
%ADD19C,4.575000*%
%TD*%
%TA.AperFunction,ViaPad*%
%ADD20C,0.600000*%
%TD*%
%TA.AperFunction,Conductor*%
%ADD21C,0.400000*%
%TD*%
%TA.AperFunction,Conductor*%
%ADD22C,0.200000*%
%TD*%
G04 APERTURE END LIST*
D10*
%TO.P,SW2,1,B*%
%TO.N,Net-(D1-K)*%
X188500000Y-101690000D03*
D11*
%TO.P,SW2,2,C*%
%TO.N,GND*%
X188500000Y-104230000D03*
%TO.P,SW2,3,A*%
%TO.N,Net-(D1-K)*%
X188500000Y-99150000D03*
%TD*%
D10*
%TO.P,Q2,1,D*%
%TO.N,Net-(JP3-C)*%
X88900000Y-69200000D03*
D12*
%TO.P,Q2,2,G*%
%TO.N,Net-(Q1-G)*%
X88900000Y-71740000D03*
%TO.P,Q2,3,S*%
%TO.N,+5V*%
X88900000Y-74280000D03*
%TD*%
D13*
%TO.P,C1,1*%
%TO.N,Net-(U11-DIS)*%
X94000000Y-126944888D03*
D11*
%TO.P,C1,2*%
%TO.N,GND*%
X94000000Y-129444888D03*
%TD*%
D14*
%TO.P,D2,1,K*%
%TO.N,GND*%
X94450000Y-99225000D03*
D15*
%TO.P,D2,2,A*%
%TO.N,Net-(D2-A)*%
X94450000Y-101765000D03*
%TD*%
D10*
%TO.P,Q1,1,D*%
%TO.N,Net-(JP3-C)*%
X92600000Y-69200000D03*
D12*
%TO.P,Q1,2,G*%
%TO.N,Net-(Q1-G)*%
X92600000Y-71740000D03*
%TO.P,Q1,3,S*%
%TO.N,+5V*%
X92600000Y-74280000D03*
%TD*%
D16*
%TO.P,JP1,1,A*%
%TO.N,Net-(JP1-A)*%
X89128400Y-81342200D03*
D17*
%TO.P,JP1,2,C*%
%TO.N,Net-(JP1-C)*%
X91668400Y-81342200D03*
%TO.P,JP1,3,B*%
%TO.N,Net-(JP1-B)*%
X94208400Y-81342200D03*
%TD*%
D14*
%TO.P,SW1,1,1*%
%TO.N,Net-(U3-I6)*%
X91677500Y-115377500D03*
D15*
%TO.P,SW1,2,2*%
%TO.N,GND*%
X96677500Y-115377500D03*
%TO.P,SW1,3,3*%
%TO.N,Net-(U3-I6)*%
X91677500Y-120377500D03*
%TO.P,SW1,4,4*%
%TO.N,GND*%
X96677500Y-120377500D03*
%TD*%
D18*
%TO.P,CN1,1,1*%
%TO.N,GND*%
X88060000Y-44200000D03*
%TO.P,CN1,2,2*%
X88060000Y-39120000D03*
%TO.P,CN1,3,3*%
X90600000Y-44200000D03*
%TO.P,CN1,4,4*%
X90600000Y-39120000D03*
%TO.P,CN1,5,5*%
%TO.N,unconnected-(CN1-Pad5)*%
X93140000Y-44200000D03*
%TO.P,CN1,6,6*%
%TO.N,+5V*%
X93140000Y-39120000D03*
%TO.P,CN1,7,7*%
%TO.N,unconnected-(CN1-Pad7)*%
X95680000Y-44200000D03*
%TO.P,CN1,8,8*%
%TO.N,unconnected-(CN1-Pad8)*%
X95680000Y-39120000D03*
%TO.P,CN1,9,9*%
%TO.N,unconnected-(CN1-Pad9)*%
X98220000Y-44200000D03*
%TO.P,CN1,10,10*%
%TO.N,unconnected-(CN1-Pad10)*%
X98220000Y-39120000D03*
%TO.P,CN1,11,11*%
%TO.N,unconnected-(CN1-Pad11)*%
X100760000Y-44200000D03*
%TO.P,CN1,12,12*%
%TO.N,unconnected-(CN1-Pad12)*%
X100760000Y-39120000D03*
%TO.P,CN1,13,13*%
%TO.N,unconnected-(CN1-Pad13)*%
X103300000Y-44200000D03*
%TO.P,CN1,14,14*%
%TO.N,unconnected-(CN1-Pad14)*%
X103300000Y-39120000D03*
%TO.P,CN1,15,15*%
%TO.N,unconnected-(CN1-Pad15)*%
X105840000Y-44200000D03*
%TO.P,CN1,16,16*%
%TO.N,unconnected-(CN1-Pad16)*%
X105840000Y-39120000D03*
%TO.P,CN1,17,17*%
%TO.N,unconnected-(CN1-Pad17)*%
X108380000Y-44200000D03*
%TO.P,CN1,18,18*%
%TO.N,unconnected-(CN1-Pad18)*%
X108380000Y-39120000D03*
%TO.P,CN1,19,19*%
%TO.N,unconnected-(CN1-Pad19)*%
X110920000Y-44200000D03*
%TO.P,CN1,20,20*%
%TO.N,unconnected-(CN1-Pad20)*%
X110920000Y-39120000D03*
%TO.P,CN1,21,21*%
%TO.N,/A5*%
X113460000Y-44200000D03*
%TO.P,CN1,22,22*%
%TO.N,unconnected-(CN1-Pad22)*%
X113460000Y-39120000D03*
%TO.P,CN1,23,23*%
%TO.N,/A6*%
X116000000Y-44200000D03*
%TO.P,CN1,24,24*%
%TO.N,/A4*%
X116000000Y-39120000D03*
%TO.P,CN1,25,25*%
%TO.N,unconnected-(CN1-Pad25)*%
X118540000Y-44200000D03*
%TO.P,CN1,26,26*%
%TO.N,/A3*%
X118540000Y-39120000D03*
%TO.P,CN1,27,27*%
%TO.N,/A2*%
X121080000Y-44200000D03*
%TO.P,CN1,28,28*%
%TO.N,/A7*%
X121080000Y-39120000D03*
%TO.P,CN1,29,29*%
%TO.N,/A1*%
X123620000Y-44200000D03*
%TO.P,CN1,30,30*%
%TO.N,/A8*%
X123620000Y-39120000D03*
%TO.P,CN1,31,31*%
%TO.N,/~{FC0}*%
X126160000Y-44200000D03*
%TO.P,CN1,32,32*%
%TO.N,/A9*%
X126160000Y-39120000D03*
%TO.P,CN1,33,33*%
%TO.N,/~{FC1}*%
X128700000Y-44200000D03*
%TO.P,CN1,34,34*%
%TO.N,/A10*%
X128700000Y-39120000D03*
%TO.P,CN1,35,35*%
%TO.N,unconnected-(CN1-Pad35)*%
X131240000Y-44200000D03*
%TO.P,CN1,36,36*%
%TO.N,/A11*%
X131240000Y-39120000D03*
%TO.P,CN1,37,37*%
%TO.N,unconnected-(CN1-Pad37)*%
X133780000Y-44200000D03*
%TO.P,CN1,38,38*%
%TO.N,/A12*%
X133780000Y-39120000D03*
%TO.P,CN1,39,39*%
%TO.N,/A13*%
X136320000Y-44200000D03*
%TO.P,CN1,40,40*%
%TO.N,/~{IPL0}*%
X136320000Y-39120000D03*
%TO.P,CN1,41,41*%
%TO.N,/A14*%
X138860000Y-44200000D03*
%TO.P,CN1,42,42*%
%TO.N,/~{IPL1}*%
X138860000Y-39120000D03*
%TO.P,CN1,43,43*%
%TO.N,/A15*%
X141400000Y-44200000D03*
%TO.P,CN1,44,44*%
%TO.N,/~{IPL2}*%
X141400000Y-39120000D03*
%TO.P,CN1,45,45*%
%TO.N,/A16*%
X143940000Y-44200000D03*
%TO.P,CN1,46,46*%
%TO.N,unconnected-(CN1-Pad46)*%
X143940000Y-39120000D03*
%TO.P,CN1,47,47*%
%TO.N,/A17*%
X146480000Y-44200000D03*
%TO.P,CN1,48,48*%
%TO.N,unconnected-(CN1-Pad48)*%
X146480000Y-39120000D03*
%TO.P,CN1,49,49*%
%TO.N,unconnected-(CN1-Pad49)*%
X149020000Y-44200000D03*
%TO.P,CN1,50,50*%
%TO.N,unconnected-(CN1-Pad50)*%
X149020000Y-39120000D03*
%TO.P,CN1,51,51*%
%TO.N,unconnected-(CN1-Pad51)*%
X151560000Y-44200000D03*
%TO.P,CN1,52,52*%
%TO.N,/A18*%
X151560000Y-39120000D03*
%TO.P,CN1,53,53*%
%TO.N,/~{RST}*%
X154100000Y-44200000D03*
%TO.P,CN1,54,54*%
%TO.N,/A19*%
X154100000Y-39120000D03*
%TO.P,CN1,55,55*%
%TO.N,/~{HLT}*%
X156640000Y-44200000D03*
%TO.P,CN1,56,56*%
%TO.N,/A20*%
X156640000Y-39120000D03*
%TO.P,CN1,57,57*%
%TO.N,/A22*%
X159180000Y-44200000D03*
%TO.P,CN1,58,58*%
%TO.N,/A21*%
X159180000Y-39120000D03*
%TO.P,CN1,59,59*%
%TO.N,/A23*%
X161720000Y-44200000D03*
%TO.P,CN1,60,60*%
%TO.N,unconnected-(CN1-Pad60)*%
X161720000Y-39120000D03*
%TO.P,CN1,61,61*%
%TO.N,unconnected-(CN1-Pad61)*%
X164260000Y-44200000D03*
%TO.P,CN1,62,62*%
%TO.N,unconnected-(CN1-Pad62)*%
X164260000Y-39120000D03*
%TO.P,CN1,63,63*%
%TO.N,/D15*%
X166800000Y-44200000D03*
%TO.P,CN1,64,64*%
%TO.N,unconnected-(CN1-Pad64)*%
X166800000Y-39120000D03*
%TO.P,CN1,65,65*%
%TO.N,/D14*%
X169340000Y-44200000D03*
%TO.P,CN1,66,66*%
%TO.N,unconnected-(CN1-Pad66)*%
X169340000Y-39120000D03*
%TO.P,CN1,67,67*%
%TO.N,/D13*%
X171880000Y-44200000D03*
%TO.P,CN1,68,68*%
%TO.N,/R_W*%
X171880000Y-39120000D03*
%TO.P,CN1,69,69*%
%TO.N,/D12*%
X174420000Y-44200000D03*
%TO.P,CN1,70,70*%
%TO.N,/~{LDS}*%
X174420000Y-39120000D03*
%TO.P,CN1,71,71*%
%TO.N,/D11*%
X176960000Y-44200000D03*
%TO.P,CN1,72,72*%
%TO.N,/~{UDS}*%
X176960000Y-39120000D03*
%TO.P,CN1,73,73*%
%TO.N,GND*%
X179500000Y-44200000D03*
%TO.P,CN1,74,74*%
%TO.N,/~{AS}*%
X179500000Y-39120000D03*
%TO.P,CN1,75,75*%
%TO.N,/D0*%
X182040000Y-44200000D03*
%TO.P,CN1,76,76*%
%TO.N,/D10*%
X182040000Y-39120000D03*
%TO.P,CN1,77,77*%
%TO.N,/D1*%
X184580000Y-44200000D03*
%TO.P,CN1,78,78*%
%TO.N,/D9*%
X184580000Y-39120000D03*
%TO.P,CN1,79,79*%
%TO.N,/D2*%
X187120000Y-44200000D03*
%TO.P,CN1,80,80*%
%TO.N,/D8*%
X187120000Y-39120000D03*
%TO.P,CN1,81,81*%
%TO.N,/D3*%
X189660000Y-44200000D03*
%TO.P,CN1,82,82*%
%TO.N,/D7*%
X189660000Y-39120000D03*
%TO.P,CN1,83,83*%
%TO.N,/D4*%
X192200000Y-44200000D03*
%TO.P,CN1,84,84*%
%TO.N,/D6*%
X192200000Y-39120000D03*
%TO.P,CN1,85,85*%
%TO.N,unconnected-(CN1-Pad85)*%
X194740000Y-44200000D03*
%TO.P,CN1,86,86*%
%TO.N,/D5*%
X194740000Y-39120000D03*
%TD*%
D13*
%TO.P,C6,1*%
%TO.N,Net-(D3-K)*%
X89950000Y-87650000D03*
D11*
%TO.P,C6,2*%
%TO.N,GND*%
X87450000Y-87650000D03*
%TD*%
D14*
%TO.P,D1,1,K*%
%TO.N,Net-(D1-K)*%
X188850000Y-92700000D03*
D15*
%TO.P,D1,2,A*%
%TO.N,Net-(D1-A)*%
X188850000Y-90160000D03*
%TD*%
%TO.P,VR1,1,CCW*%
%TO.N,+5V*%
X185958400Y-126442200D03*
%TO.P,VR1,2,WIPER*%
X188458400Y-126442200D03*
%TO.P,VR1,3,CW*%
%TO.N,Net-(U11-DIS)*%
X190958400Y-126442200D03*
D19*
%TO.P,VR1,MH1,MH1*%
%TO.N,unconnected-(VR1-PadMH1)*%
X184058400Y-119442200D03*
%TO.P,VR1,MH2,MH2*%
%TO.N,unconnected-(VR1-PadMH2)*%
X192858400Y-119442200D03*
%TD*%
D16*
%TO.P,JP2,1,A*%
%TO.N,Net-(JP2-A)*%
X89168400Y-77692200D03*
D17*
%TO.P,JP2,2,C*%
%TO.N,Net-(JP2-C)*%
X91708400Y-77692200D03*
%TO.P,JP2,3,B*%
%TO.N,+5V*%
X94248400Y-77692200D03*
%TD*%
D20*
%TO.N,Net-(U3-I6)*%
X133300000Y-80050000D03*
X133300000Y-86075000D03*
X90600000Y-98100000D03*
%TO.N,Net-(U10-~{CE})*%
X127200000Y-73300000D03*
X113250000Y-64400000D03*
X127150000Y-64400000D03*
X112758400Y-115792200D03*
%TO.N,Net-(U2-IO1)*%
X118850000Y-61250000D03*
X163850000Y-61250000D03*
X163850000Y-74700000D03*
X143800000Y-77100000D03*
X120100000Y-77650000D03*
X144900000Y-61250000D03*
%TO.N,/A5*%
X161033400Y-109417200D03*
X113600000Y-111350600D03*
X160250000Y-97582200D03*
X113608400Y-106917200D03*
X158025000Y-77525000D03*
%TO.N,/A8*%
X143183400Y-107567200D03*
X162258400Y-106442200D03*
X161183400Y-95812200D03*
X122483400Y-97067200D03*
X117050000Y-62500000D03*
X160650000Y-76500000D03*
X117050000Y-95902200D03*
X143198400Y-95792200D03*
X119850000Y-62500000D03*
X111058400Y-95982200D03*
X118408400Y-109517200D03*
X111058400Y-107542200D03*
%TO.N,/~{IPL2}*%
X106550000Y-46050000D03*
X106550000Y-72450000D03*
X142700000Y-47150000D03*
%TO.N,/A15*%
X147083400Y-105017200D03*
X147088400Y-96382200D03*
X141408400Y-97442200D03*
%TO.N,GND*%
X158750000Y-86292200D03*
X149928400Y-101532200D03*
X158750000Y-79800000D03*
X169438400Y-102252200D03*
X179500000Y-52250000D03*
X180858400Y-128942200D03*
X131683400Y-116642200D03*
X186650000Y-110000000D03*
X96113600Y-55422800D03*
X108298400Y-87917200D03*
X120100000Y-78850000D03*
X96100000Y-113200000D03*
X87450000Y-104650000D03*
X147025600Y-121525000D03*
X173450000Y-87000000D03*
X169458400Y-128942200D03*
X87400000Y-113300000D03*
X156300000Y-70600000D03*
X96101600Y-82217200D03*
X169833400Y-116667200D03*
X108278400Y-97872200D03*
X131683400Y-129575000D03*
X126018400Y-84372200D03*
X158750000Y-52250000D03*
X173500000Y-84650000D03*
X147091200Y-129575000D03*
X118708400Y-87892200D03*
X126008400Y-101562200D03*
%TO.N,+5V*%
X188550000Y-106950000D03*
X107650000Y-71450000D03*
X156350000Y-89600000D03*
X181400000Y-92850000D03*
X97880000Y-77702200D03*
X140433400Y-99017200D03*
X97950000Y-56400000D03*
X94400000Y-48650000D03*
X134198400Y-103162200D03*
X172358400Y-89392200D03*
X181400000Y-102200000D03*
X101700000Y-104600000D03*
X140433400Y-89550000D03*
X117850000Y-72500000D03*
X101750000Y-93550000D03*
X117800000Y-56400000D03*
X123233400Y-102492200D03*
X172333400Y-102222200D03*
X133108400Y-100032200D03*
X101700000Y-101392200D03*
X156350000Y-102517200D03*
X97880000Y-74280000D03*
X123233400Y-89517200D03*
X107650000Y-56400000D03*
X101700000Y-109700000D03*
X156350000Y-98712200D03*
%TO.N,/~{OE}*%
X140358400Y-112742200D03*
X175558400Y-97980727D03*
X116250000Y-85692200D03*
X116250000Y-112617200D03*
X116300000Y-78750000D03*
X137933400Y-102382200D03*
X137950000Y-83375000D03*
X174883400Y-112787200D03*
%TO.N,Net-(U4-IO4)*%
X153500000Y-64600000D03*
X154783400Y-115167200D03*
X130750000Y-64600000D03*
X130400000Y-78750000D03*
X155733400Y-86250000D03*
X153500000Y-86250000D03*
%TO.N,Net-(U4-IO5)*%
X130000000Y-80000000D03*
X170050000Y-87917200D03*
X130083400Y-88717200D03*
X170100000Y-115000000D03*
%TO.N,/A1*%
X117108400Y-117617200D03*
X163758400Y-115327200D03*
X163750000Y-83600000D03*
%TO.N,Net-(U4-IO8)*%
X120025000Y-95750000D03*
X140183400Y-115292200D03*
X137150000Y-95800000D03*
X122050000Y-79650000D03*
%TO.N,/A16*%
X167978400Y-102342200D03*
X167350000Y-78650000D03*
X167350000Y-62300000D03*
X131058400Y-95067200D03*
X143250000Y-62300000D03*
X118918400Y-95067200D03*
X131048400Y-106512200D03*
X134300000Y-62300000D03*
X117858400Y-103745000D03*
X135150000Y-95042200D03*
%TO.N,Net-(U2-I8)*%
X137175000Y-86025000D03*
X137175000Y-82600000D03*
X147800000Y-82050000D03*
X147725000Y-86250000D03*
%TO.N,Net-(U2-I9)*%
X146625000Y-91200000D03*
X146650000Y-83150000D03*
X128350000Y-91175000D03*
X128350000Y-81950000D03*
%TO.N,Net-(JP1-C)*%
X121783400Y-81092200D03*
X120796635Y-87205435D03*
%TO.N,/A9*%
X148868400Y-109912200D03*
X131898400Y-107612200D03*
X133233400Y-111267935D03*
X174933400Y-108977200D03*
X148868400Y-107352200D03*
X117295246Y-108817489D03*
X177208400Y-80917200D03*
%TO.N,Net-(U2-IO7)*%
X120100000Y-76450000D03*
X140400000Y-66350000D03*
X143675000Y-86025000D03*
X140400000Y-76750000D03*
X143700000Y-80800000D03*
X120100000Y-66350000D03*
%TO.N,Net-(U2-IO8)*%
X150100000Y-71450000D03*
X137800000Y-73900000D03*
X150100000Y-84900000D03*
X137800000Y-71450000D03*
%TO.N,Net-(U3-IO2)*%
X146700000Y-70600000D03*
X146700000Y-75100000D03*
%TO.N,Net-(U3-I03)*%
X152500000Y-77500000D03*
X152550000Y-69850000D03*
%TO.N,Net-(U3-I5)*%
X134350000Y-77700000D03*
X109500000Y-85200000D03*
X134350000Y-65400000D03*
X109500000Y-65400000D03*
%TO.N,Net-(U2-IO6)*%
X137200000Y-59850000D03*
X139100000Y-81275000D03*
X164850000Y-59850000D03*
X165175000Y-82525000D03*
%TO.N,/~{FC0}*%
X126050000Y-82275000D03*
%TO.N,/A17*%
X110136200Y-103745000D03*
X148728400Y-103745000D03*
X179025000Y-108307200D03*
X149259873Y-93692200D03*
X110083400Y-95792200D03*
X146450000Y-65300000D03*
X179025000Y-92092200D03*
%TO.N,Net-(U1-IO8)*%
X168250000Y-76200000D03*
X168250000Y-85600000D03*
%TO.N,Net-(U1-IO2)*%
X169000000Y-77500000D03*
X169000000Y-70650000D03*
%TO.N,/A18*%
X170800000Y-77400000D03*
X170800000Y-63400000D03*
X103691200Y-102475000D03*
X152800000Y-63350000D03*
X103683400Y-92417200D03*
X147800000Y-102467200D03*
X147783400Y-91867200D03*
X168508400Y-91142200D03*
%TO.N,Net-(U1-IO1)*%
X165850000Y-71050000D03*
X165850000Y-78750000D03*
%TO.N,Net-(Q1-G)*%
X101450000Y-51003200D03*
X101450000Y-71700000D03*
X101450000Y-68100000D03*
%TO.N,Net-(D1-K)*%
X185750000Y-99100000D03*
X179625000Y-88650000D03*
X179775000Y-96700000D03*
X185750000Y-92700000D03*
X105900000Y-78700000D03*
X105900000Y-89950000D03*
%TO.N,/A19*%
X160183400Y-105017200D03*
X175833400Y-90567200D03*
X123508400Y-105015000D03*
X155400000Y-66200000D03*
X177950000Y-77383800D03*
X124008400Y-90542200D03*
X159258400Y-90542200D03*
%TO.N,/A10*%
X152275000Y-104392200D03*
X124608400Y-109597200D03*
X176025000Y-80925000D03*
X174333400Y-110247200D03*
X141108400Y-110192200D03*
X152358400Y-110092200D03*
X141158400Y-104392200D03*
%TO.N,/~{FC1}*%
X159750000Y-67050000D03*
X127900000Y-67050000D03*
X159750000Y-80650000D03*
%TO.N,Net-(U5-I7)*%
X97050000Y-60909200D03*
X117200000Y-50749200D03*
X117170200Y-48183800D03*
X109143800Y-60909200D03*
X109169200Y-48564800D03*
X97050000Y-80000000D03*
%TO.N,Net-(U5-IO5)*%
X112500000Y-79950000D03*
X112500000Y-61722000D03*
X115300000Y-61738000D03*
X115290600Y-50714200D03*
%TO.N,Net-(U5-IO6)*%
X108700000Y-62458600D03*
X108700000Y-83150000D03*
%TO.N,/A11*%
X116000735Y-130599265D03*
X114826098Y-113928965D03*
X179250000Y-130825000D03*
X130000000Y-49100000D03*
X142400000Y-49100000D03*
X190850000Y-114100000D03*
X141733400Y-114007200D03*
X179558400Y-114092200D03*
X190850000Y-84950000D03*
%TO.N,/A12*%
X173100000Y-82500000D03*
X170720900Y-111529700D03*
X131058400Y-112135590D03*
%TO.N,/~{IPL0}*%
X138050000Y-68100000D03*
X110450000Y-77450000D03*
X110450000Y-68150000D03*
%TO.N,/~{RST}*%
X103400000Y-63450000D03*
X148250000Y-63450000D03*
X148250000Y-49100000D03*
X103400000Y-80700000D03*
X154150000Y-49050000D03*
%TO.N,/A13*%
X179183400Y-80100000D03*
X111900000Y-106267200D03*
X178350000Y-96200000D03*
X167268400Y-95172200D03*
X148383400Y-95132200D03*
X147688400Y-106282200D03*
X111868400Y-95112200D03*
X135750000Y-96400000D03*
X128225000Y-104642200D03*
X167258400Y-106067200D03*
X128208400Y-96400000D03*
%TO.N,/A20*%
X169750000Y-64400000D03*
X169750000Y-76100000D03*
X157850000Y-64400000D03*
%TO.N,/~{IPL1}*%
X105550000Y-77200000D03*
X105550000Y-47400000D03*
X140100000Y-48100000D03*
%TO.N,/A14*%
X153608400Y-107542200D03*
X153650000Y-97982200D03*
X179783400Y-107692200D03*
X138883400Y-101542200D03*
X180500000Y-78700000D03*
X140433400Y-107667200D03*
%TO.N,/~{HLT}*%
X156650000Y-51700000D03*
X111050000Y-78700000D03*
X111506000Y-49225200D03*
%TO.N,/A21*%
X160500000Y-54400000D03*
X168250000Y-74300000D03*
X168250000Y-54400000D03*
%TO.N,/A22*%
X159200000Y-47100000D03*
X99000000Y-50700000D03*
X176950000Y-76800000D03*
X145150000Y-47100000D03*
X145150000Y-51750000D03*
X98983400Y-62942200D03*
X177000000Y-47150000D03*
%TO.N,Net-(U11-DIS)*%
X94000000Y-107800000D03*
%TO.N,Net-(D3-A)*%
X89450000Y-107150000D03*
X101750000Y-77450000D03*
X89508400Y-89600000D03*
X101750000Y-92400000D03*
%TO.N,Net-(D3-K)*%
X93400000Y-105900000D03*
%TO.N,/A23*%
X99458400Y-42292200D03*
X161700000Y-55450000D03*
X180100000Y-76517200D03*
X100258400Y-62967200D03*
X180100000Y-55450000D03*
%TO.N,/D15*%
X178450000Y-130600000D03*
X178450000Y-116600600D03*
X177408400Y-88542200D03*
X116257800Y-116442200D03*
X165175000Y-88592200D03*
X115900000Y-129650000D03*
%TO.N,/A3*%
X157400000Y-78775000D03*
X104550000Y-41442200D03*
X104625300Y-113925300D03*
X155658400Y-112017200D03*
%TO.N,/A4*%
X154250000Y-74500000D03*
X154258400Y-110692200D03*
X142333400Y-105142200D03*
X123058400Y-125092200D03*
X142336362Y-111317200D03*
X113533400Y-125067200D03*
X125608400Y-111492200D03*
X113533400Y-112642200D03*
%TO.N,/A6*%
X115400000Y-110067200D03*
X132338400Y-98342200D03*
X135750000Y-110899128D03*
X115400000Y-97292200D03*
X150948400Y-78650000D03*
X150938400Y-107912200D03*
X134008400Y-107842200D03*
%TO.N,/A7*%
X105950000Y-91550000D03*
X163133400Y-101742200D03*
X134808400Y-106542200D03*
X105950000Y-96632200D03*
X105950000Y-108817200D03*
X120600000Y-91525000D03*
X134808400Y-97742200D03*
X163150000Y-107707200D03*
X134833400Y-110042200D03*
X162050000Y-77400000D03*
%TO.N,/A2*%
X105350000Y-93417200D03*
X151548400Y-115162200D03*
X105407800Y-115167200D03*
X119358400Y-93417200D03*
X152500000Y-80050000D03*
X152500000Y-92792200D03*
%TO.N,/D14*%
X174900000Y-59600000D03*
X169340000Y-59560000D03*
X174908400Y-116692200D03*
%TO.N,/R_W*%
X102683400Y-105667200D03*
X135458400Y-103117200D03*
X102700000Y-49450000D03*
X102700000Y-76400000D03*
X144000000Y-58650000D03*
X144000000Y-49950000D03*
X154875000Y-102062200D03*
X135750000Y-101292200D03*
X154888400Y-96992200D03*
X170600000Y-58550000D03*
X154858400Y-106267200D03*
%TO.N,/D13*%
X115900000Y-119450000D03*
X167958400Y-119842200D03*
X115910000Y-128660000D03*
X167958400Y-127767200D03*
%TO.N,/~{LDS}*%
X145150000Y-84400000D03*
X145750000Y-68900000D03*
X173050000Y-68900000D03*
%TO.N,/D12*%
X172208400Y-126167200D03*
X127200000Y-126792200D03*
X166450000Y-126150000D03*
X166550000Y-53100000D03*
X172383400Y-116617200D03*
X174450000Y-53100000D03*
X127200000Y-121550000D03*
%TO.N,/~{UDS}*%
X178200000Y-57650000D03*
X133400000Y-74700000D03*
X133400000Y-57650000D03*
X127675000Y-74725000D03*
X127675000Y-85675000D03*
%TO.N,/D11*%
X171108400Y-126967200D03*
X120858400Y-126642200D03*
X171108400Y-116592200D03*
X120858400Y-122667200D03*
%TO.N,/~{AS}*%
X111575000Y-90700000D03*
X180750000Y-67850000D03*
X111600000Y-85692200D03*
X149200000Y-81250000D03*
X149200000Y-88100000D03*
X149200000Y-67950000D03*
%TO.N,/D3*%
X183400000Y-47400000D03*
X180958400Y-121650000D03*
X132933400Y-126592200D03*
X132933400Y-116717200D03*
%TO.N,/D10*%
X131700000Y-54050000D03*
X147250000Y-54050000D03*
X147250000Y-46400000D03*
X168583400Y-124767200D03*
X130408400Y-125592200D03*
X168583400Y-116692200D03*
X183400000Y-46200000D03*
%TO.N,/D8*%
X163808400Y-119217200D03*
X136333400Y-122542200D03*
X136733400Y-45717200D03*
X163783400Y-116592200D03*
%TO.N,/D0*%
X131300000Y-77450000D03*
X129683400Y-116542200D03*
X131300000Y-86725000D03*
X182050000Y-86350000D03*
%TO.N,/D4*%
X134233400Y-125192200D03*
X178300000Y-59050000D03*
X180275000Y-121000000D03*
X134208400Y-116717200D03*
%TO.N,/D9*%
X128958400Y-123542200D03*
X167358400Y-116767200D03*
X128950000Y-56450000D03*
X167358400Y-123442200D03*
X185850000Y-56450000D03*
%TO.N,/D2*%
X170483400Y-125392200D03*
X187000000Y-95375000D03*
X142783400Y-125392200D03*
X142783400Y-120292200D03*
X171450000Y-93475000D03*
%TO.N,/D6*%
X189800000Y-57750000D03*
X185900000Y-57800000D03*
X183333400Y-115717200D03*
%TO.N,/D1*%
X133400000Y-76200000D03*
X128008400Y-94392200D03*
X147958400Y-118992200D03*
X127608400Y-118982522D03*
X145683400Y-94417200D03*
X184550000Y-95567200D03*
X134033400Y-94417200D03*
%TO.N,/D5*%
X135458400Y-124192200D03*
X174883400Y-122042200D03*
X135458400Y-116717200D03*
X177775000Y-129925000D03*
%TO.N,Net-(JP1-A)*%
X103958400Y-85767200D03*
X145125000Y-85325000D03*
X143750000Y-78750000D03*
X103958400Y-89592200D03*
%TO.N,Net-(JP2-A)*%
X147850000Y-80020000D03*
X147850000Y-67950000D03*
%TD*%
D21*
%TO.N,+5V*%
X94418400Y-41768400D02*
X93140000Y-40490000D01*
X93140000Y-40490000D02*
X93140000Y-39120000D01*
X94418400Y-48631600D02*
X94418400Y-41768400D01*
X94400000Y-48650000D02*
X94418400Y-48631600D01*
X156350000Y-89600000D02*
X156350000Y-98712200D01*
X156350000Y-98712200D02*
X156350000Y-102517200D01*
D22*
%TO.N,/A14*%
X153608400Y-98023800D02*
X153608400Y-107542200D01*
X153650000Y-97982200D02*
X153608400Y-98023800D01*
D21*
%TO.N,GND*%
X108278400Y-87937200D02*
X108298400Y-87917200D01*
X108278400Y-97872200D02*
X108278400Y-87937200D01*
D22*
%TO.N,Net-(U3-I6)*%
X133300000Y-86075000D02*
X133300000Y-80050000D01*
X91677500Y-120377500D02*
X91677500Y-115377500D01*
X90600000Y-98100000D02*
X90600000Y-105700000D01*
X90600000Y-105700000D02*
X91650000Y-106750000D01*
X91650000Y-106750000D02*
X91650000Y-115350000D01*
%TO.N,Net-(U10-~{CE})*%
X112758400Y-115792200D02*
X112700000Y-115733800D01*
X127150000Y-64400000D02*
X127200000Y-64450000D01*
X112700000Y-115733800D02*
X112700000Y-90725000D01*
X112700000Y-90725000D02*
X113250000Y-90175000D01*
X127200000Y-64450000D02*
X127200000Y-73300000D01*
X113250000Y-90175000D02*
X113250000Y-64400000D01*
%TO.N,Net-(U2-IO1)*%
X118850000Y-77200000D02*
X118850000Y-61250000D01*
X144900000Y-76800000D02*
X144600000Y-77100000D01*
X144600000Y-77100000D02*
X143800000Y-77100000D01*
X163850000Y-61250000D02*
X163850000Y-74700000D01*
X144900000Y-61250000D02*
X144900000Y-76800000D01*
X119300000Y-77650000D02*
X118850000Y-77200000D01*
X120100000Y-77650000D02*
X119300000Y-77650000D01*
%TO.N,/A5*%
X113600000Y-106925600D02*
X113600000Y-111350600D01*
X113460000Y-62760000D02*
X113460000Y-44200000D01*
X160250000Y-103808800D02*
X161058400Y-104617200D01*
X113608400Y-106917200D02*
X113600000Y-106908800D01*
X161058400Y-104617200D02*
X161058400Y-109292200D01*
X114100000Y-90350000D02*
X114100000Y-63400000D01*
X161033400Y-109417200D02*
X161058400Y-109392200D01*
X113600000Y-90850000D02*
X114100000Y-90350000D01*
X161058400Y-109392200D02*
X161058400Y-109292200D01*
X160250000Y-90400000D02*
X158025000Y-88175000D01*
X161058400Y-109292200D02*
X161058400Y-109092200D01*
X114100000Y-63400000D02*
X113460000Y-62760000D01*
X113608400Y-106917200D02*
X113600000Y-106925600D01*
X113600000Y-106908800D02*
X113600000Y-90850000D01*
X160250000Y-97582200D02*
X160250000Y-103808800D01*
X160250000Y-97582200D02*
X160250000Y-90400000D01*
X158025000Y-88175000D02*
X158025000Y-77525000D01*
%TO.N,/A8*%
X111050000Y-95990600D02*
X111050000Y-107533800D01*
X118408400Y-105892200D02*
X119733400Y-104567200D01*
X119733400Y-104567200D02*
X119733400Y-100292200D01*
X143198400Y-95792200D02*
X143183400Y-95807200D01*
X119850000Y-62500000D02*
X119750000Y-62400000D01*
X119733400Y-100292200D02*
X122483400Y-97542200D01*
X161183400Y-77033400D02*
X160650000Y-76500000D01*
X111058400Y-95982200D02*
X111050000Y-95990600D01*
X118408400Y-109517200D02*
X118408400Y-105892200D01*
X117050000Y-95902200D02*
X117050000Y-62500000D01*
X162260000Y-106440600D02*
X162258400Y-106442200D01*
X123620000Y-37820000D02*
X123620000Y-39120000D01*
X122483400Y-97542200D02*
X122483400Y-97067200D01*
X120350000Y-37500000D02*
X123300000Y-37500000D01*
X162260000Y-99710000D02*
X162260000Y-106440600D01*
X123300000Y-37500000D02*
X123620000Y-37820000D01*
X119750000Y-38100000D02*
X120350000Y-37500000D01*
X161183400Y-95812200D02*
X161183400Y-77033400D01*
X161183400Y-95812200D02*
X161183400Y-98633400D01*
X119750000Y-62400000D02*
X119750000Y-38100000D01*
X161183400Y-98633400D02*
X162260000Y-99710000D01*
X111050000Y-107533800D02*
X111058400Y-107542200D01*
X143183400Y-95807200D02*
X143183400Y-107567200D01*
%TO.N,/~{IPL2}*%
X142700000Y-47150000D02*
X142700000Y-40420000D01*
X142700000Y-40420000D02*
X141400000Y-39120000D01*
X106550000Y-72450000D02*
X106550000Y-46050000D01*
%TO.N,/A15*%
X141383400Y-97417200D02*
X141383400Y-44216600D01*
X147088400Y-96382200D02*
X147083400Y-96387200D01*
X147083400Y-96387200D02*
X147083400Y-105017200D01*
X141408400Y-97442200D02*
X141383400Y-97417200D01*
X141383400Y-44216600D02*
X141400000Y-44200000D01*
D21*
%TO.N,GND*%
X93200000Y-85150000D02*
X93900000Y-85850000D01*
X173500000Y-86950000D02*
X173500000Y-84650000D01*
X93900000Y-98350000D02*
X94450000Y-98900000D01*
X90600000Y-39120000D02*
X90600000Y-44200000D01*
X131683400Y-116642200D02*
X131695165Y-116653965D01*
X169433400Y-128917200D02*
X169433400Y-119917200D01*
X169433400Y-119917200D02*
X169833400Y-119517200D01*
X158750000Y-70600000D02*
X158750000Y-79800000D01*
X147058400Y-129542200D02*
X147091200Y-129575000D01*
X88000000Y-85150000D02*
X93200000Y-85150000D01*
X149928400Y-101532200D02*
X149928400Y-118622200D01*
X186650000Y-116808800D02*
X187458400Y-117617200D01*
X169458400Y-102272200D02*
X169458400Y-113982200D01*
X187458400Y-122342200D02*
X180858400Y-128942200D01*
X131695165Y-129563235D02*
X131683400Y-129575000D01*
X168988400Y-114452200D02*
X168988400Y-115822200D01*
X126018400Y-84372200D02*
X126018400Y-101552200D01*
X173450000Y-87000000D02*
X173500000Y-86950000D01*
X96101600Y-55434800D02*
X96113600Y-55422800D01*
X158750000Y-70600000D02*
X156300000Y-70600000D01*
X187458400Y-117617200D02*
X187458400Y-122342200D01*
X93900000Y-85850000D02*
X93900000Y-98350000D01*
X169458400Y-128942200D02*
X169433400Y-128917200D01*
X87450000Y-87650000D02*
X87450000Y-113250000D01*
X186650000Y-110000000D02*
X186650000Y-104850000D01*
X147025600Y-121525000D02*
X147058400Y-121557800D01*
X96677500Y-120377500D02*
X96677500Y-128872500D01*
X87450000Y-85700000D02*
X88000000Y-85150000D01*
X179500000Y-44200000D02*
X179500000Y-52250000D01*
X186650000Y-104850000D02*
X187270000Y-104230000D01*
X158750000Y-52250000D02*
X158750000Y-70600000D01*
X118700000Y-79400000D02*
X119250000Y-78850000D01*
X158750000Y-79800000D02*
X158750000Y-86292200D01*
X131695165Y-116653965D02*
X131695165Y-129563235D01*
X126018400Y-101552200D02*
X126008400Y-101562200D01*
X96105112Y-129444888D02*
X94000000Y-129444888D01*
X169833400Y-119517200D02*
X169833400Y-116667200D01*
X119250000Y-78850000D02*
X120100000Y-78850000D01*
X96677500Y-128872500D02*
X96105112Y-129444888D01*
X87450000Y-113250000D02*
X87450000Y-104650000D01*
X118708400Y-87892200D02*
X118700000Y-87883800D01*
X88060000Y-44200000D02*
X88060000Y-39120000D01*
X96677500Y-115377500D02*
X96677500Y-120377500D01*
X96101600Y-82217200D02*
X96101600Y-55434800D01*
X187270000Y-104230000D02*
X188500000Y-104230000D01*
X96101600Y-82217200D02*
X96100000Y-82218800D01*
X149928400Y-118622200D02*
X147025600Y-121525000D01*
X169438400Y-102252200D02*
X169458400Y-102272200D01*
X96100000Y-82218800D02*
X96100000Y-113200000D01*
X118700000Y-87883800D02*
X118700000Y-79400000D01*
X168988400Y-115822200D02*
X169833400Y-116667200D01*
X169458400Y-113982200D02*
X168988400Y-114452200D01*
X186650000Y-110000000D02*
X186650000Y-116808800D01*
X87450000Y-87650000D02*
X87450000Y-85700000D01*
X87450000Y-113250000D02*
X87400000Y-113300000D01*
X147058400Y-121557800D02*
X147058400Y-129542200D01*
%TO.N,+5V*%
X140433400Y-99017200D02*
X140433400Y-89550000D01*
X123233400Y-89517200D02*
X123233400Y-102492200D01*
X172333400Y-102222200D02*
X172333400Y-89417200D01*
X99150000Y-93550000D02*
X99000000Y-93400000D01*
X97950000Y-49100000D02*
X97500000Y-48650000D01*
X97880000Y-84380000D02*
X97880000Y-77702200D01*
X101750000Y-93550000D02*
X99150000Y-93550000D01*
X99000000Y-93400000D02*
X99000000Y-85500000D01*
X188550000Y-106950000D02*
X188550000Y-126350600D01*
X181400000Y-102200000D02*
X181400000Y-92850000D01*
X97950000Y-56400000D02*
X97950000Y-49100000D01*
X101700000Y-104600000D02*
X101700000Y-109700000D01*
X133108400Y-100032200D02*
X133108400Y-102072200D01*
X97950000Y-74210000D02*
X97880000Y-74280000D01*
X117800000Y-72450000D02*
X117800000Y-56400000D01*
X97880000Y-77702200D02*
X97880000Y-74280000D01*
X97950000Y-56400000D02*
X97950000Y-74210000D01*
X107650000Y-71450000D02*
X107650000Y-56400000D01*
X97500000Y-48650000D02*
X94400000Y-48650000D01*
X101750000Y-93550000D02*
X101700000Y-93600000D01*
X101700000Y-93600000D02*
X101700000Y-101392200D01*
X133108400Y-102072200D02*
X134198400Y-103162200D01*
X101700000Y-101392200D02*
X101700000Y-104600000D01*
X117850000Y-72500000D02*
X117800000Y-72450000D01*
X172333400Y-89417200D02*
X172358400Y-89392200D01*
X99000000Y-85500000D02*
X97880000Y-84380000D01*
X188550000Y-126350600D02*
X188458400Y-126442200D01*
D22*
%TO.N,/~{OE}*%
X116250000Y-85692200D02*
X116250000Y-78800000D01*
X116250000Y-78800000D02*
X116300000Y-78750000D01*
X116250000Y-112617200D02*
X116250000Y-85692200D01*
X140358400Y-109417200D02*
X140358400Y-112742200D01*
X137900000Y-83425000D02*
X137950000Y-83375000D01*
X137933400Y-102382200D02*
X137900000Y-102348800D01*
X175558400Y-112112200D02*
X174883400Y-112787200D01*
X175558400Y-97980727D02*
X175558400Y-112112200D01*
X137933400Y-106992200D02*
X140358400Y-109417200D01*
X137933400Y-102382200D02*
X137933400Y-106992200D01*
X137900000Y-102348800D02*
X137900000Y-83425000D01*
%TO.N,Net-(U4-IO4)*%
X155700000Y-86283400D02*
X155733400Y-86250000D01*
X130400000Y-78750000D02*
X130400000Y-74800000D01*
X154783400Y-115167200D02*
X154858400Y-115092200D01*
X155700000Y-106525600D02*
X155700000Y-86283400D01*
X154858400Y-107367200D02*
X155700000Y-106525600D01*
X130400000Y-74800000D02*
X130750000Y-74450000D01*
X154858400Y-115092200D02*
X154858400Y-107367200D01*
X153500000Y-64600000D02*
X153500000Y-86250000D01*
X130750000Y-74450000D02*
X130750000Y-64600000D01*
%TO.N,Net-(U4-IO5)*%
X130083400Y-88717200D02*
X130000000Y-88633800D01*
X170050000Y-87917200D02*
X170050000Y-114950000D01*
X170050000Y-114950000D02*
X170100000Y-115000000D01*
X130000000Y-88633800D02*
X130000000Y-80000000D01*
%TO.N,/A1*%
X121250000Y-97125600D02*
X121250000Y-89400600D01*
X163758400Y-83608400D02*
X163750000Y-83600000D01*
X123620000Y-87030600D02*
X123620000Y-44200000D01*
X117125000Y-117600600D02*
X117125000Y-109900000D01*
X117108400Y-117617200D02*
X117125000Y-117600600D01*
X117125000Y-109900000D02*
X116675000Y-109450000D01*
X121250000Y-89400600D02*
X123620000Y-87030600D01*
X163758400Y-115327200D02*
X163758400Y-83608400D01*
X116675000Y-106175600D02*
X118733400Y-104117200D01*
X118733400Y-104117200D02*
X118733400Y-99642200D01*
X116675000Y-109450000D02*
X116675000Y-106175600D01*
X118733400Y-99642200D02*
X121250000Y-97125600D01*
%TO.N,Net-(U4-IO8)*%
X122050000Y-79700000D02*
X122050000Y-79650000D01*
X120025000Y-95750000D02*
X120000000Y-95725000D01*
X120000000Y-95725000D02*
X120000000Y-89050600D01*
X120000000Y-89050600D02*
X122650000Y-86400600D01*
X122650000Y-86400600D02*
X122650000Y-80300000D01*
X122650000Y-80300000D02*
X122050000Y-79700000D01*
X137150000Y-113287500D02*
X139154700Y-115292200D01*
X139154700Y-115292200D02*
X140183400Y-115292200D01*
X137150000Y-95800000D02*
X137150000Y-113287500D01*
%TO.N,/A16*%
X135150000Y-64850000D02*
X134300000Y-64000000D01*
X167978400Y-97012200D02*
X168608400Y-96382200D01*
X134300000Y-64000000D02*
X134300000Y-62300000D01*
X143250000Y-62300000D02*
X143250000Y-48550000D01*
X143250000Y-48550000D02*
X143950000Y-47850000D01*
X168608400Y-93042200D02*
X167350000Y-91783800D01*
X167978400Y-102342200D02*
X167978400Y-97012200D01*
X143940000Y-47840000D02*
X143940000Y-44200000D01*
X143950000Y-47850000D02*
X143940000Y-47840000D01*
X167350000Y-78650000D02*
X167350000Y-62300000D01*
X167350000Y-91783800D02*
X167350000Y-78650000D01*
X135150000Y-95042200D02*
X135150000Y-64850000D01*
X117858400Y-96127200D02*
X117858400Y-103745000D01*
X168608400Y-96382200D02*
X168608400Y-93042200D01*
X131048400Y-106512200D02*
X131058400Y-106502200D01*
X131058400Y-106502200D02*
X131058400Y-95067200D01*
X118918400Y-95067200D02*
X117858400Y-96127200D01*
%TO.N,Net-(U2-I8)*%
X147725000Y-82025000D02*
X147725000Y-86250000D01*
X137175000Y-82600000D02*
X137175000Y-86025000D01*
%TO.N,Net-(U2-I9)*%
X146625000Y-83175000D02*
X146650000Y-83150000D01*
X146625000Y-91200000D02*
X146625000Y-83175000D01*
X128350000Y-81950000D02*
X128350000Y-91175000D01*
%TO.N,Net-(JP1-C)*%
X120796635Y-87205435D02*
X121783400Y-86218670D01*
X121783400Y-86218670D02*
X121783400Y-81092200D01*
%TO.N,/A9*%
X133233400Y-111267935D02*
X133258400Y-111242935D01*
X177208400Y-86813658D02*
X177208400Y-80917200D01*
X174958400Y-108952200D02*
X174958400Y-89063658D01*
X124900000Y-40380000D02*
X126160000Y-39120000D01*
X119208400Y-99942200D02*
X121783400Y-97367200D01*
X121783400Y-97367200D02*
X121783400Y-89767200D01*
X117275000Y-108797243D02*
X117275000Y-106300600D01*
X174933400Y-108977200D02*
X174958400Y-108952200D01*
X117275000Y-106300600D02*
X119208400Y-104367200D01*
X148868400Y-107352200D02*
X148868400Y-109912200D01*
X124900000Y-86650600D02*
X124900000Y-40380000D01*
X131898400Y-109932935D02*
X133233400Y-111267935D01*
X121783400Y-89767200D02*
X124900000Y-86650600D01*
X119208400Y-104367200D02*
X119208400Y-99942200D01*
X131898400Y-107612200D02*
X131898400Y-109932935D01*
X174958400Y-89063658D02*
X177208400Y-86813658D01*
X117295246Y-108817489D02*
X117275000Y-108797243D01*
%TO.N,Net-(U2-IO7)*%
X143675000Y-80825000D02*
X143700000Y-80800000D01*
X120100000Y-76450000D02*
X120100000Y-66350000D01*
X143675000Y-86025000D02*
X143675000Y-80825000D01*
X140400000Y-66350000D02*
X140400000Y-76750000D01*
%TO.N,Net-(U2-IO8)*%
X137800000Y-71450000D02*
X137800000Y-73900000D01*
X150100000Y-71450000D02*
X150100000Y-84900000D01*
%TO.N,Net-(U3-IO2)*%
X146700000Y-70600000D02*
X146700000Y-75100000D01*
%TO.N,Net-(U3-I03)*%
X152550000Y-77450000D02*
X152500000Y-77500000D01*
X152550000Y-69850000D02*
X152550000Y-77450000D01*
%TO.N,Net-(U3-I5)*%
X109500000Y-85200000D02*
X109500000Y-65400000D01*
X134350000Y-65400000D02*
X134350000Y-77700000D01*
%TO.N,Net-(U2-IO6)*%
X137450000Y-74850000D02*
X137200000Y-74600000D01*
X139100000Y-75750000D02*
X139100000Y-81275000D01*
X164850000Y-59850000D02*
X164850000Y-82200000D01*
X164850000Y-82200000D02*
X165175000Y-82525000D01*
X138200000Y-74850000D02*
X139100000Y-75750000D01*
X137450000Y-74850000D02*
X138200000Y-74850000D01*
X137200000Y-74600000D02*
X137200000Y-59850000D01*
%TO.N,/~{FC0}*%
X125700000Y-80100000D02*
X125700000Y-44660000D01*
X126050000Y-82275000D02*
X126050000Y-80450000D01*
X126050000Y-80450000D02*
X125700000Y-80100000D01*
%TO.N,/A17*%
X110108400Y-95817200D02*
X110108400Y-103717200D01*
X110108400Y-103717200D02*
X110136200Y-103745000D01*
X149048400Y-103425000D02*
X149048400Y-93903673D01*
X149048400Y-93903673D02*
X149259873Y-93692200D01*
X146480000Y-65270000D02*
X146480000Y-44200000D01*
X148728400Y-103745000D02*
X149048400Y-103425000D01*
X110083400Y-95792200D02*
X110108400Y-95817200D01*
X146450000Y-65300000D02*
X146480000Y-65270000D01*
X179025000Y-108307200D02*
X179025000Y-92092200D01*
%TO.N,Net-(U1-IO8)*%
X168250000Y-76200000D02*
X168250000Y-85600000D01*
%TO.N,Net-(U1-IO2)*%
X169000000Y-77500000D02*
X169000000Y-70650000D01*
%TO.N,/A18*%
X103683400Y-102467200D02*
X103691200Y-102475000D01*
X147783400Y-91867200D02*
X147783400Y-102450600D01*
X147783400Y-102450600D02*
X147800000Y-102467200D01*
X103683400Y-92417200D02*
X103683400Y-102467200D01*
X103691200Y-102475000D02*
X103683400Y-102482800D01*
X170800000Y-77400000D02*
X170800000Y-63400000D01*
X152800000Y-63350000D02*
X152800000Y-40360000D01*
X170800000Y-85250600D02*
X170800000Y-77400000D01*
X168508400Y-91142200D02*
X168508400Y-87542200D01*
X152800000Y-40360000D02*
X151560000Y-39120000D01*
X168508400Y-87542200D02*
X170800000Y-85250600D01*
%TO.N,Net-(U1-IO1)*%
X165850000Y-78750000D02*
X165850000Y-71050000D01*
%TO.N,Net-(Q1-G)*%
X101450000Y-71700000D02*
X101450000Y-68100000D01*
X101450000Y-68100000D02*
X101450000Y-51003200D01*
%TO.N,Net-(D1-K)*%
X188500000Y-99150000D02*
X188500000Y-101690000D01*
X179775000Y-88800000D02*
X179775000Y-96700000D01*
X179625000Y-88650000D02*
X179775000Y-88800000D01*
X185750000Y-99100000D02*
X185750000Y-92700000D01*
X105900000Y-78700000D02*
X105900000Y-89950000D01*
%TO.N,/A19*%
X159258400Y-104092200D02*
X160183400Y-105017200D01*
X159258400Y-90542200D02*
X159258400Y-104092200D01*
X155400000Y-66200000D02*
X155400000Y-40420000D01*
X123983400Y-104540000D02*
X123508400Y-105015000D01*
X175833400Y-90567200D02*
X175833400Y-88754344D01*
X175833400Y-88754344D02*
X177950000Y-86637744D01*
X177950000Y-86637744D02*
X177950000Y-77383800D01*
X155400000Y-40420000D02*
X154100000Y-39120000D01*
X123983400Y-90567200D02*
X123983400Y-104540000D01*
X124008400Y-90542200D02*
X123983400Y-90567200D01*
%TO.N,/A10*%
X152275000Y-110008800D02*
X152358400Y-110092200D01*
X126383400Y-54466600D02*
X127400000Y-53450000D01*
X141108400Y-104442200D02*
X141108400Y-110192200D01*
X127400000Y-53450000D02*
X127400000Y-42050000D01*
X174283400Y-110197200D02*
X174283400Y-89172972D01*
X126933400Y-77983400D02*
X126383400Y-77433400D01*
X176025000Y-80975600D02*
X176025000Y-80925000D01*
X174333400Y-110247200D02*
X174283400Y-110197200D01*
X126933400Y-107267200D02*
X126933400Y-77983400D01*
X128700000Y-41350000D02*
X128700000Y-39120000D01*
X141158400Y-104392200D02*
X141108400Y-104442200D01*
X124608400Y-109597200D02*
X124608400Y-109592200D01*
X127700000Y-41750000D02*
X128300000Y-41750000D01*
X152275000Y-104392200D02*
X152275000Y-110008800D01*
X127400000Y-42050000D02*
X127700000Y-41750000D01*
X124608400Y-109592200D02*
X126933400Y-107267200D01*
X175100000Y-81900600D02*
X176025000Y-80975600D01*
X174283400Y-89172972D02*
X175100000Y-88356372D01*
X175100000Y-88356372D02*
X175100000Y-81900600D01*
X126383400Y-77433400D02*
X126383400Y-54466600D01*
X128300000Y-41750000D02*
X128700000Y-41350000D01*
%TO.N,/~{FC1}*%
X159750000Y-80650000D02*
X159750000Y-67050000D01*
X127900000Y-55700000D02*
X128700000Y-54900000D01*
X127900000Y-67050000D02*
X127900000Y-55700000D01*
X128700000Y-54900000D02*
X128700000Y-44200000D01*
%TO.N,Net-(U5-I7)*%
X109100000Y-60865400D02*
X109100000Y-48634000D01*
X117170200Y-48183800D02*
X117200000Y-48213600D01*
X117200000Y-48213600D02*
X117200000Y-50749200D01*
X109143800Y-60909200D02*
X109100000Y-60865400D01*
X109100000Y-48634000D02*
X109169200Y-48564800D01*
X97050000Y-80000000D02*
X97050000Y-60909200D01*
%TO.N,Net-(U5-IO5)*%
X115300000Y-50723600D02*
X115290600Y-50714200D01*
X115300000Y-61738000D02*
X115300000Y-50723600D01*
X112500000Y-79950000D02*
X112500000Y-61722000D01*
%TO.N,Net-(U5-IO6)*%
X108700000Y-83150000D02*
X108700000Y-62458600D01*
%TO.N,/A11*%
X179250000Y-130825000D02*
X179550000Y-130525000D01*
X114826098Y-113928965D02*
X114825000Y-113930063D01*
X190850000Y-114100000D02*
X190850000Y-84950000D01*
X141733400Y-114007200D02*
X141733400Y-104792200D01*
X131240000Y-39120000D02*
X131240000Y-41410000D01*
X130950000Y-41700000D02*
X130362500Y-41700000D01*
X131240000Y-41410000D02*
X130950000Y-41700000D01*
X130000000Y-42062500D02*
X130000000Y-49100000D01*
X179550000Y-114100600D02*
X179558400Y-114092200D01*
X114825000Y-129423530D02*
X116000735Y-130599265D01*
X114825000Y-113930063D02*
X114825000Y-129423530D01*
X142400000Y-104125600D02*
X142400000Y-49100000D01*
X179550000Y-130525000D02*
X179550000Y-114100600D01*
X141733400Y-104792200D02*
X142400000Y-104125600D01*
X130362500Y-41700000D02*
X130000000Y-42062500D01*
%TO.N,/A12*%
X172375000Y-83225000D02*
X173100000Y-82500000D01*
X133800000Y-41250000D02*
X133780000Y-41230000D01*
X132900000Y-41550000D02*
X133500000Y-41550000D01*
X170720900Y-111529700D02*
X170725000Y-111525600D01*
X131678400Y-91942200D02*
X132500000Y-91120600D01*
X132500000Y-91120600D02*
X132500000Y-41950000D01*
X131058400Y-107592200D02*
X131678400Y-106972200D01*
X133500000Y-41550000D02*
X133800000Y-41250000D01*
X172375000Y-85675000D02*
X172375000Y-83225000D01*
X132500000Y-41950000D02*
X132900000Y-41550000D01*
X170725000Y-111525600D02*
X170725000Y-87325000D01*
X170725000Y-87325000D02*
X172375000Y-85675000D01*
X131678400Y-106972200D02*
X131678400Y-91942200D01*
X133780000Y-41230000D02*
X133780000Y-39120000D01*
X131058400Y-112135590D02*
X131058400Y-107592200D01*
%TO.N,/~{IPL0}*%
X138050000Y-68100000D02*
X138050000Y-58687500D01*
X110450000Y-77450000D02*
X110450000Y-68150000D01*
X137600000Y-40400000D02*
X136320000Y-39120000D01*
X138050000Y-58687500D02*
X137600000Y-58237500D01*
X137600000Y-58237500D02*
X137600000Y-40400000D01*
%TO.N,/~{RST}*%
X103400000Y-80700000D02*
X103400000Y-63450000D01*
X148250000Y-63450000D02*
X148250000Y-49100000D01*
X154150000Y-49050000D02*
X154150000Y-44250000D01*
%TO.N,/A13*%
X135750000Y-64200000D02*
X135050000Y-63500000D01*
X136320000Y-42970000D02*
X136320000Y-44200000D01*
X148400000Y-103010600D02*
X148400000Y-95148800D01*
X136100000Y-42750000D02*
X136320000Y-42970000D01*
X135050000Y-63500000D02*
X135050000Y-43200000D01*
X178350000Y-84700600D02*
X179183400Y-83867200D01*
X135750000Y-96400000D02*
X135750000Y-64200000D01*
X148400000Y-95148800D02*
X148383400Y-95132200D01*
X167268400Y-95172200D02*
X167258400Y-95182200D01*
X147683400Y-106277200D02*
X147683400Y-103727200D01*
X179183400Y-83867200D02*
X179183400Y-80100000D01*
X147668400Y-106292200D02*
X147683400Y-106277200D01*
X135050000Y-43200000D02*
X135500000Y-42750000D01*
X135500000Y-42750000D02*
X136100000Y-42750000D01*
X111868400Y-95112200D02*
X111900000Y-95143800D01*
X128225000Y-104642200D02*
X128225000Y-96416600D01*
X167258400Y-95182200D02*
X167258400Y-106067200D01*
X178350000Y-96200000D02*
X178350000Y-84700600D01*
X147683400Y-103727200D02*
X148400000Y-103010600D01*
X111900000Y-95143800D02*
X111900000Y-106267200D01*
X128225000Y-96416600D02*
X128208400Y-96400000D01*
%TO.N,/A20*%
X157850000Y-64400000D02*
X157900000Y-64350000D01*
X157900000Y-64350000D02*
X157900000Y-40380000D01*
X157900000Y-40380000D02*
X156640000Y-39120000D01*
X169750000Y-76100000D02*
X169750000Y-64400000D01*
%TO.N,/~{IPL1}*%
X105550000Y-77200000D02*
X105550000Y-47400000D01*
X140100000Y-40360000D02*
X138860000Y-39120000D01*
X140100000Y-48100000D02*
X140100000Y-40360000D01*
%TO.N,/A14*%
X139800000Y-74275000D02*
X138860000Y-73335000D01*
X138883400Y-106042200D02*
X140433400Y-107592200D01*
X140433400Y-107592200D02*
X140433400Y-107667200D01*
X138860000Y-101518800D02*
X138860000Y-83965000D01*
X180658400Y-100667200D02*
X179783400Y-101542200D01*
X180500000Y-78700000D02*
X180700000Y-78900000D01*
X139800000Y-83025000D02*
X139800000Y-74275000D01*
X179783400Y-101542200D02*
X179783400Y-107692200D01*
X180700000Y-78900000D02*
X180700000Y-100625600D01*
X180700000Y-100625600D02*
X180658400Y-100667200D01*
X138883400Y-101542200D02*
X138860000Y-101518800D01*
X138860000Y-73335000D02*
X138860000Y-44200000D01*
X138860000Y-83965000D02*
X139800000Y-83025000D01*
X138883400Y-101542200D02*
X138883400Y-106042200D01*
%TO.N,/~{HLT}*%
X111600000Y-49319200D02*
X111600000Y-78150000D01*
X111506000Y-49225200D02*
X111600000Y-49319200D01*
X111600000Y-78150000D02*
X111050000Y-78700000D01*
X156650000Y-51700000D02*
X156640000Y-51690000D01*
X156640000Y-51690000D02*
X156640000Y-44200000D01*
%TO.N,/A21*%
X160450000Y-40390000D02*
X159180000Y-39120000D01*
X168250000Y-74300000D02*
X168250000Y-54400000D01*
X160500000Y-54400000D02*
X160450000Y-54350000D01*
X160450000Y-54350000D02*
X160450000Y-40390000D01*
%TO.N,/A22*%
X98983400Y-50716600D02*
X99000000Y-50700000D01*
X98983400Y-62942200D02*
X98983400Y-50716600D01*
X176950000Y-47200000D02*
X177000000Y-47150000D01*
X176950000Y-76800000D02*
X176950000Y-47200000D01*
X145150000Y-47100000D02*
X145150000Y-51750000D01*
X159200000Y-47100000D02*
X159180000Y-47080000D01*
X159180000Y-47080000D02*
X159180000Y-44200000D01*
%TO.N,Net-(U11-DIS)*%
X94000000Y-107800000D02*
X94000000Y-127044888D01*
%TO.N,Net-(D3-A)*%
X89450000Y-89658400D02*
X89450000Y-107150000D01*
X89508400Y-89600000D02*
X89450000Y-89658400D01*
X101750000Y-77450000D02*
X101750000Y-92400000D01*
%TO.N,Net-(D3-K)*%
X92450000Y-105350000D02*
X92000000Y-104900000D01*
X93050000Y-105350000D02*
X92450000Y-105350000D01*
X93400000Y-105700000D02*
X93050000Y-105350000D01*
X93400000Y-105900000D02*
X93400000Y-105700000D01*
X92000000Y-104900000D02*
X92000000Y-87950000D01*
X92000000Y-87950000D02*
X91700000Y-87650000D01*
X91700000Y-87650000D02*
X89950000Y-87650000D01*
%TO.N,/A23*%
X100258400Y-50660129D02*
X100258400Y-62967200D01*
X161720000Y-55080000D02*
X161720000Y-44200000D01*
X99458400Y-42292200D02*
X99483400Y-42317200D01*
X180100000Y-76517200D02*
X180100000Y-55450000D01*
X161700000Y-55450000D02*
X161700000Y-55100000D01*
X161700000Y-55100000D02*
X161720000Y-55080000D01*
X99483400Y-42317200D02*
X99483400Y-49885129D01*
X99483400Y-49885129D02*
X100258400Y-50660129D01*
%TO.N,/D15*%
X177408400Y-96842200D02*
X177408400Y-88542200D01*
X115275000Y-117425000D02*
X115275000Y-129025000D01*
X115275000Y-129025000D02*
X115900000Y-129650000D01*
X163350000Y-50750000D02*
X166000000Y-50750000D01*
X163998529Y-78098529D02*
X162850000Y-76950000D01*
X163998529Y-82748529D02*
X163998529Y-78098529D01*
X162850000Y-76950000D02*
X162850000Y-51250000D01*
X116257800Y-116442200D02*
X115275000Y-117425000D01*
X178450000Y-130600000D02*
X178450000Y-116600600D01*
X162850000Y-51250000D02*
X163350000Y-50750000D01*
X178408400Y-97842200D02*
X177408400Y-96842200D01*
X178425000Y-97858800D02*
X178408400Y-97842200D01*
X165175000Y-88592200D02*
X165175000Y-83925000D01*
X166800000Y-49950000D02*
X166800000Y-44200000D01*
X178450000Y-116600600D02*
X178425000Y-116575600D01*
X178425000Y-116575600D02*
X178425000Y-97858800D01*
X165175000Y-83925000D02*
X163998529Y-82748529D01*
X166000000Y-50750000D02*
X166800000Y-49950000D01*
%TO.N,/A3*%
X104550000Y-41442200D02*
X104550000Y-79417200D01*
X104550000Y-113850000D02*
X104625300Y-113925300D01*
X105183400Y-80050600D02*
X105183400Y-92592200D01*
X157400000Y-78775000D02*
X157400000Y-105650600D01*
X104550000Y-93225600D02*
X104550000Y-113850000D01*
X105183400Y-92592200D02*
X104550000Y-93225600D01*
X155658400Y-107392200D02*
X155658400Y-112017200D01*
X157400000Y-105650600D02*
X155658400Y-107392200D01*
X104550000Y-79417200D02*
X105183400Y-80050600D01*
%TO.N,/A4*%
X114800000Y-90750000D02*
X114800000Y-62700000D01*
X154250000Y-74500000D02*
X154250000Y-110683800D01*
X154250000Y-110683800D02*
X154258400Y-110692200D01*
X142336362Y-111317200D02*
X142336362Y-106464238D01*
X113533400Y-125067200D02*
X113533400Y-112642200D01*
X114700000Y-48950000D02*
X114700000Y-40420000D01*
X114200000Y-62100000D02*
X114200000Y-49450000D01*
X125608400Y-111492200D02*
X125583400Y-111492200D01*
X114800000Y-62700000D02*
X114200000Y-62100000D01*
X123050000Y-112330000D02*
X123887800Y-111492200D01*
X114200000Y-49450000D02*
X114700000Y-48950000D01*
X123050000Y-125083800D02*
X123050000Y-112330000D01*
X113533400Y-112642200D02*
X114450000Y-111725600D01*
X123058400Y-125092200D02*
X123050000Y-125083800D01*
X114450000Y-91100000D02*
X114800000Y-90750000D01*
X114700000Y-40420000D02*
X116000000Y-39120000D01*
X123887800Y-111492200D02*
X125608400Y-111492200D01*
X142336362Y-106464238D02*
X142333400Y-106461276D01*
X114450000Y-111725600D02*
X114450000Y-91100000D01*
X142333400Y-106461276D02*
X142333400Y-105142200D01*
%TO.N,/A6*%
X134008400Y-110517200D02*
X134390328Y-110899128D01*
X115400000Y-97292200D02*
X115400000Y-110067200D01*
X116000000Y-76750000D02*
X116000000Y-44200000D01*
X134390328Y-110899128D02*
X135750000Y-110899128D01*
X115400000Y-77350000D02*
X116000000Y-76750000D01*
X134008400Y-107842200D02*
X134008400Y-110517200D01*
X150938400Y-78660000D02*
X150948400Y-78650000D01*
X132338400Y-106172200D02*
X134008400Y-107842200D01*
X115400000Y-97292200D02*
X115400000Y-77350000D01*
X150938400Y-107912200D02*
X150938400Y-78660000D01*
X132338400Y-98342200D02*
X132338400Y-106172200D01*
%TO.N,/A7*%
X134833400Y-110042200D02*
X134808400Y-110017200D01*
X163150000Y-107707200D02*
X163140000Y-107697200D01*
X120600000Y-89225600D02*
X123050000Y-86775600D01*
X163140000Y-78490000D02*
X162050000Y-77400000D01*
X163140000Y-101748800D02*
X163133400Y-101742200D01*
X163140000Y-101735600D02*
X163140000Y-78490000D01*
X105950000Y-96632200D02*
X105950000Y-108817200D01*
X122350000Y-40390000D02*
X121080000Y-39120000D01*
X134808400Y-110017200D02*
X134808400Y-106542200D01*
X120600000Y-91525000D02*
X120600000Y-89225600D01*
X105950000Y-96632200D02*
X105950000Y-91550000D01*
X122350000Y-45300000D02*
X122350000Y-40390000D01*
X163140000Y-107697200D02*
X163140000Y-101748800D01*
X123050000Y-86775600D02*
X123050000Y-46000000D01*
X134808400Y-97742200D02*
X134808400Y-106542200D01*
X163133400Y-101742200D02*
X163140000Y-101735600D01*
X123050000Y-46000000D02*
X122350000Y-45300000D01*
%TO.N,/A2*%
X105350000Y-93417200D02*
X105350000Y-115109400D01*
X151558400Y-115182200D02*
X151558400Y-102892200D01*
X151558400Y-102892200D02*
X152500000Y-101950600D01*
X105350000Y-115109400D02*
X105407800Y-115167200D01*
X152500000Y-101950600D02*
X152500000Y-92792200D01*
X151548400Y-115192200D02*
X151558400Y-115182200D01*
X152500000Y-92792200D02*
X152500000Y-80050000D01*
X119375000Y-81325000D02*
X121080000Y-79620000D01*
X121080000Y-79620000D02*
X121080000Y-44200000D01*
X119375000Y-93400600D02*
X119375000Y-81325000D01*
X119358400Y-93417200D02*
X119375000Y-93400600D01*
%TO.N,/D14*%
X173683400Y-113842200D02*
X173683400Y-89207286D01*
X169340000Y-59560000D02*
X169340000Y-44200000D01*
X174700000Y-88190686D02*
X174700000Y-81375600D01*
X174908400Y-115067200D02*
X173683400Y-113842200D01*
X174908400Y-116692200D02*
X174908400Y-115067200D01*
X174900000Y-81175600D02*
X174900000Y-59600000D01*
X174700000Y-81375600D02*
X174900000Y-81175600D01*
X173683400Y-89207286D02*
X174700000Y-88190686D01*
%TO.N,/R_W*%
X154875000Y-106250600D02*
X154858400Y-106267200D01*
X144000000Y-58650000D02*
X144000000Y-49950000D01*
X154875000Y-102062200D02*
X154875000Y-97005600D01*
X135768400Y-101310600D02*
X135768400Y-102807200D01*
X170600000Y-40400000D02*
X171880000Y-39120000D01*
X154875000Y-97005600D02*
X154888400Y-96992200D01*
X170600000Y-58550000D02*
X170600000Y-40400000D01*
X102700000Y-76400000D02*
X102700000Y-105650600D01*
X102700000Y-105650600D02*
X102683400Y-105667200D01*
X135750000Y-101292200D02*
X135768400Y-101310600D01*
X102700000Y-49450000D02*
X102700000Y-76400000D01*
X135768400Y-102807200D02*
X135458400Y-103117200D01*
X154875000Y-102062200D02*
X154875000Y-106250600D01*
%TO.N,/D13*%
X168578400Y-103272200D02*
X168578400Y-97912200D01*
X167958400Y-103892200D02*
X168578400Y-103272200D01*
X171880000Y-85195000D02*
X171880000Y-44200000D01*
X115900000Y-119450000D02*
X115900000Y-128650000D01*
X167958400Y-119842200D02*
X167958400Y-103892200D01*
X169208400Y-87866600D02*
X171880000Y-85195000D01*
X115900000Y-128650000D02*
X115910000Y-128660000D01*
X167958400Y-127767200D02*
X167958400Y-119842200D01*
X168578400Y-97912200D02*
X169208400Y-97282200D01*
X169208400Y-97282200D02*
X169208400Y-87866600D01*
%TO.N,/~{LDS}*%
X145750000Y-81600000D02*
X145750000Y-68900000D01*
X173150000Y-40390000D02*
X174420000Y-39120000D01*
X173050000Y-68900000D02*
X173150000Y-68800000D01*
X145150000Y-82200000D02*
X145750000Y-81600000D01*
X145150000Y-84400000D02*
X145150000Y-82200000D01*
X173150000Y-68800000D02*
X173150000Y-40390000D01*
%TO.N,/D12*%
X127200000Y-126792200D02*
X127200000Y-121550000D01*
X174420000Y-53070000D02*
X174420000Y-44200000D01*
X172383400Y-125992200D02*
X172208400Y-126167200D01*
X174450000Y-53100000D02*
X174420000Y-53070000D01*
X172383400Y-116617200D02*
X172383400Y-125992200D01*
X166450000Y-53200000D02*
X166450000Y-126150000D01*
X166550000Y-53100000D02*
X166450000Y-53200000D01*
%TO.N,/~{UDS}*%
X127675000Y-74725000D02*
X127675000Y-85675000D01*
X178200000Y-57650000D02*
X178200000Y-40300000D01*
X178200000Y-40300000D02*
X177020000Y-39120000D01*
X133400000Y-57650000D02*
X133400000Y-74700000D01*
%TO.N,/D11*%
X173108400Y-89216600D02*
X174300000Y-88025000D01*
X174300000Y-88025000D02*
X174300000Y-55250000D01*
X174300000Y-55250000D02*
X174900000Y-54650000D01*
X171108400Y-116817200D02*
X171108400Y-116817200D01*
X171108400Y-116592200D02*
X171108400Y-115782885D01*
X176960000Y-45615000D02*
X176960000Y-44200000D01*
X175850000Y-54300000D02*
X175850000Y-46725000D01*
X175850000Y-46725000D02*
X176960000Y-45615000D01*
X174900000Y-54650000D02*
X175500000Y-54650000D01*
X120858400Y-126642200D02*
X120858400Y-122667200D01*
X171108400Y-126967200D02*
X171108400Y-116592200D01*
X171108400Y-115782885D02*
X173108400Y-113782885D01*
X175500000Y-54650000D02*
X175850000Y-54300000D01*
X173108400Y-113782885D02*
X173108400Y-89216600D01*
%TO.N,/~{AS}*%
X111600000Y-90675000D02*
X111575000Y-90700000D01*
X149200000Y-88100000D02*
X149200000Y-81250000D01*
X180750000Y-67850000D02*
X180750000Y-40370000D01*
X149200000Y-67950000D02*
X149200000Y-81250000D01*
X111600000Y-85692200D02*
X111600000Y-90675000D01*
X180750000Y-40370000D02*
X179500000Y-39120000D01*
%TO.N,/D3*%
X180958400Y-121650000D02*
X180958400Y-115767200D01*
X132933400Y-126592200D02*
X132933400Y-116717200D01*
X183100000Y-47700000D02*
X183400000Y-47400000D01*
X183100000Y-113625600D02*
X183100000Y-47700000D01*
X180958400Y-115767200D02*
X183100000Y-113625600D01*
%TO.N,/D10*%
X130408400Y-125592200D02*
X130425000Y-125575600D01*
X131700000Y-76250000D02*
X131700000Y-54050000D01*
X130425000Y-92225600D02*
X132100000Y-90550600D01*
X183350000Y-46150000D02*
X183350000Y-40430000D01*
X147250000Y-54050000D02*
X147250000Y-46400000D01*
X132100000Y-90550600D02*
X132100000Y-76650000D01*
X132100000Y-76650000D02*
X131700000Y-76250000D01*
X183350000Y-40430000D02*
X182040000Y-39120000D01*
X183400000Y-46200000D02*
X183350000Y-46150000D01*
X130425000Y-125575600D02*
X130425000Y-92225600D01*
X168583400Y-124767200D02*
X168583400Y-116692200D01*
%TO.N,/D8*%
X136350000Y-58625000D02*
X136700000Y-58275000D01*
X163808400Y-119217200D02*
X163758400Y-119167200D01*
X136333400Y-122542200D02*
X136350000Y-122525600D01*
X136700000Y-45750600D02*
X136733400Y-45717200D01*
X163758400Y-116617200D02*
X163783400Y-116592200D01*
X163758400Y-119167200D02*
X163758400Y-116617200D01*
X136350000Y-122525600D02*
X136350000Y-58625000D01*
X136700000Y-58275000D02*
X136700000Y-45750600D01*
%TO.N,/D0*%
X182050000Y-86350000D02*
X182040000Y-86340000D01*
X131300000Y-90275600D02*
X131300000Y-86725000D01*
X129683400Y-116542200D02*
X129675000Y-116533800D01*
X131300000Y-77450000D02*
X131300000Y-86725000D01*
X182040000Y-86340000D02*
X182040000Y-44200000D01*
X129675000Y-116533800D02*
X129675000Y-91900600D01*
X129675000Y-91900600D02*
X131300000Y-90275600D01*
%TO.N,/D4*%
X178300000Y-59050000D02*
X178300000Y-76383800D01*
X180342200Y-77392200D02*
X181275000Y-78325000D01*
X182000000Y-113900600D02*
X180283400Y-115617200D01*
X181275000Y-91876471D02*
X182000000Y-92601471D01*
X178300000Y-76383800D02*
X179308400Y-77392200D01*
X134208400Y-125167200D02*
X134233400Y-125192200D01*
X180283400Y-120958400D02*
X180325000Y-121000000D01*
X179308400Y-77392200D02*
X180342200Y-77392200D01*
X182000000Y-92601471D02*
X182000000Y-113900600D01*
X134208400Y-116717200D02*
X134208400Y-125167200D01*
X181275000Y-78325000D02*
X181275000Y-91876471D01*
X180283400Y-115617200D02*
X180283400Y-120958400D01*
%TO.N,/D9*%
X167358400Y-123442200D02*
X167358400Y-116767200D01*
X128958400Y-123542200D02*
X128950000Y-123533800D01*
X185850000Y-56450000D02*
X185850000Y-40390000D01*
X185850000Y-40390000D02*
X184580000Y-39120000D01*
X128950000Y-123533800D02*
X128950000Y-56450000D01*
%TO.N,/D2*%
X187000000Y-66000000D02*
X186600000Y-65600000D01*
X186600000Y-65600000D02*
X186600000Y-61240202D01*
X170458400Y-115867200D02*
X171450000Y-114875600D01*
X171450000Y-114875600D02*
X171450000Y-93475000D01*
X187000000Y-95375000D02*
X187000000Y-66000000D01*
X142783400Y-125392200D02*
X142783400Y-120292200D01*
X187100000Y-60740202D02*
X187100000Y-44220000D01*
X170483400Y-125392200D02*
X170458400Y-125367200D01*
X170458400Y-125367200D02*
X170458400Y-115867200D01*
X186600000Y-61240202D02*
X187100000Y-60740202D01*
%TO.N,/D6*%
X192200000Y-40600000D02*
X192200000Y-39120000D01*
X190900000Y-57450000D02*
X190900000Y-41350000D01*
X191300000Y-40950000D02*
X191850000Y-40950000D01*
X185150000Y-113900600D02*
X185150000Y-58550000D01*
X189800000Y-57750000D02*
X190600000Y-57750000D01*
X183333400Y-115717200D02*
X185150000Y-113900600D01*
X185150000Y-58550000D02*
X185900000Y-57800000D01*
X190900000Y-41350000D02*
X191300000Y-40950000D01*
X190600000Y-57750000D02*
X190900000Y-57450000D01*
X191850000Y-40950000D02*
X192200000Y-40600000D01*
%TO.N,/D1*%
X127583400Y-118957522D02*
X127583400Y-94817200D01*
X145683400Y-94417200D02*
X145683400Y-105277200D01*
X127583400Y-94817200D02*
X128008400Y-94392200D01*
X134050000Y-79350000D02*
X133400000Y-78700000D01*
X147958400Y-107552200D02*
X147958400Y-118992200D01*
X133400000Y-78700000D02*
X133400000Y-76200000D01*
X134033400Y-94417200D02*
X134050000Y-94400600D01*
X184580000Y-95537200D02*
X184580000Y-44200000D01*
X127608400Y-118982522D02*
X127583400Y-118957522D01*
X145683400Y-105277200D02*
X147958400Y-107552200D01*
X134050000Y-94400600D02*
X134050000Y-79350000D01*
X184550000Y-95567200D02*
X184580000Y-95537200D01*
%TO.N,/D5*%
X174850000Y-127050000D02*
X177725000Y-129925000D01*
X174883400Y-122042200D02*
X174850000Y-122075600D01*
X177725000Y-129925000D02*
X177775000Y-129925000D01*
X174850000Y-122075600D02*
X174850000Y-127050000D01*
X135458400Y-116717200D02*
X135458400Y-124192200D01*
%TO.N,Net-(JP1-A)*%
X144475000Y-84675000D02*
X144475000Y-79475000D01*
X144475000Y-79475000D02*
X143750000Y-78750000D01*
X103958400Y-85767200D02*
X103958400Y-89592200D01*
X145125000Y-85325000D02*
X144475000Y-84675000D01*
%TO.N,Net-(JP2-A)*%
X147850000Y-67950000D02*
X147850000Y-80020000D01*
%TD*%
M02*
