M48
; DRILL file {KiCad 9.0.0} date 2025-03-08T11:07:18+0100
; FORMAT={-:-/ absolute / metric / decimal}
; #@! TF.CreationDate,2025-03-08T11:07:18+01:00
; #@! TF.GenerationSoftware,Kicad,Pcbnew,9.0.0
; #@! TF.FileFunction,Plated,1,2,PTH
FMAT,2
METRIC
; #@! TA.AperFunction,Plated,PTH,ViaDrill
T1C0.300
; #@! TA.AperFunction,Plated,PTH,ComponentDrill
T2C0.800
; #@! TA.AperFunction,Plated,PTH,ComponentDrill
T3C0.900
; #@! TA.AperFunction,Plated,PTH,ComponentDrill
T4C1.000
; #@! TA.AperFunction,Plated,PTH,ComponentDrill
T5C1.090
; #@! TA.AperFunction,Plated,PTH,ComponentDrill
T6C1.200
; #@! TA.AperFunction,Plated,PTH,ComponentDrill
T7C3.050
%
G90
G05
T1
X87.4Y-113.3
X87.45Y-104.65
X89.45Y-107.15
X89.508Y-89.6
X90.6Y-98.1
X93.4Y-105.9
X94.0Y-107.8
X94.4Y-48.65
X96.1Y-113.2
X96.102Y-82.217
X96.114Y-55.423
X97.05Y-60.909
X97.05Y-80.0
X97.88Y-74.28
X97.88Y-77.702
X97.95Y-56.4
X98.983Y-62.942
X99.0Y-50.7
X99.458Y-42.292
X100.258Y-62.967
X101.45Y-51.003
X101.45Y-68.1
X101.45Y-71.7
X101.7Y-101.392
X101.7Y-104.6
X101.7Y-109.7
X101.75Y-77.45
X101.75Y-92.4
X101.75Y-93.55
X102.683Y-105.667
X102.7Y-49.45
X102.7Y-76.4
X103.4Y-63.45
X103.4Y-80.7
X103.683Y-92.417
X103.691Y-102.475
X103.958Y-85.767
X103.958Y-89.592
X104.55Y-41.442
X104.625Y-113.925
X105.35Y-93.417
X105.408Y-115.167
X105.55Y-47.4
X105.55Y-77.2
X105.9Y-78.7
X105.9Y-89.95
X105.95Y-91.55
X105.95Y-96.632
X105.95Y-108.817
X106.55Y-46.05
X106.55Y-72.45
X107.65Y-56.4
X107.65Y-71.45
X108.278Y-97.872
X108.298Y-87.917
X108.7Y-62.459
X108.7Y-83.15
X109.144Y-60.909
X109.169Y-48.565
X109.5Y-65.4
X109.5Y-85.2
X110.083Y-95.792
X110.136Y-103.745
X110.45Y-68.15
X110.45Y-77.45
X111.05Y-78.7
X111.058Y-95.982
X111.058Y-107.542
X111.506Y-49.225
X111.575Y-90.7
X111.6Y-85.692
X111.868Y-95.112
X111.9Y-106.267
X112.5Y-61.722
X112.5Y-79.95
X112.758Y-115.792
X113.25Y-64.4
X113.533Y-112.642
X113.533Y-125.067
X113.6Y-111.351
X113.608Y-106.917
X114.826Y-113.929
X115.291Y-50.714
X115.3Y-61.738
X115.4Y-97.292
X115.4Y-110.067
X115.9Y-119.45
X115.9Y-129.65
X115.91Y-128.66
X116.001Y-130.599
X116.25Y-85.692
X116.25Y-112.617
X116.258Y-116.442
X116.3Y-78.75
X117.05Y-62.5
X117.05Y-95.902
X117.108Y-117.617
X117.17Y-48.184
X117.2Y-50.749
X117.295Y-108.817
X117.8Y-56.4
X117.85Y-72.5
X117.858Y-103.745
X118.408Y-109.517
X118.708Y-87.892
X118.85Y-61.25
X118.918Y-95.067
X119.358Y-93.417
X119.85Y-62.5
X120.025Y-95.75
X120.1Y-66.35
X120.1Y-76.45
X120.1Y-77.65
X120.1Y-78.85
X120.6Y-91.525
X120.797Y-87.205
X120.858Y-122.667
X120.858Y-126.642
X121.783Y-81.092
X122.05Y-79.65
X122.483Y-97.067
X123.058Y-125.092
X123.233Y-89.517
X123.233Y-102.492
X123.508Y-105.015
X124.008Y-90.542
X124.608Y-109.597
X125.608Y-111.492
X126.008Y-101.562
X126.018Y-84.372
X126.05Y-82.275
X127.15Y-64.4
X127.2Y-73.3
X127.2Y-121.55
X127.2Y-126.792
X127.608Y-118.983
X127.675Y-74.725
X127.675Y-85.675
X127.9Y-67.05
X128.008Y-94.392
X128.208Y-96.4
X128.225Y-104.642
X128.35Y-81.95
X128.35Y-91.175
X128.95Y-56.45
X128.958Y-123.542
X129.683Y-116.542
X130.0Y-49.1
X130.0Y-80.0
X130.083Y-88.717
X130.4Y-78.75
X130.408Y-125.592
X130.75Y-64.6
X131.048Y-106.512
X131.058Y-95.067
X131.058Y-112.136
X131.3Y-77.45
X131.3Y-86.725
X131.683Y-116.642
X131.683Y-129.575
X131.7Y-54.05
X131.898Y-107.612
X132.338Y-98.342
X132.933Y-116.717
X132.933Y-126.592
X133.108Y-100.032
X133.233Y-111.268
X133.3Y-80.05
X133.3Y-86.075
X133.4Y-57.65
X133.4Y-74.7
X133.4Y-76.2
X134.008Y-107.842
X134.033Y-94.417
X134.198Y-103.162
X134.208Y-116.717
X134.233Y-125.192
X134.3Y-62.3
X134.35Y-65.4
X134.35Y-77.7
X134.808Y-97.742
X134.808Y-106.542
X134.833Y-110.042
X135.15Y-95.042
X135.458Y-103.117
X135.458Y-116.717
X135.458Y-124.192
X135.75Y-96.4
X135.75Y-101.292
X135.75Y-110.899
X136.333Y-122.542
X136.733Y-45.717
X137.15Y-95.8
X137.175Y-82.6
X137.175Y-86.025
X137.2Y-59.85
X137.8Y-71.45
X137.8Y-73.9
X137.933Y-102.382
X137.95Y-83.375
X138.05Y-68.1
X138.883Y-101.542
X139.1Y-81.275
X140.1Y-48.1
X140.183Y-115.292
X140.358Y-112.742
X140.4Y-66.35
X140.4Y-76.75
X140.433Y-89.55
X140.433Y-99.017
X140.433Y-107.667
X141.108Y-110.192
X141.158Y-104.392
X141.408Y-97.442
X141.733Y-114.007
X142.333Y-105.142
X142.336Y-111.317
X142.4Y-49.1
X142.7Y-47.15
X142.783Y-120.292
X142.783Y-125.392
X143.183Y-107.567
X143.198Y-95.792
X143.25Y-62.3
X143.675Y-86.025
X143.7Y-80.8
X143.75Y-78.75
X143.8Y-77.1
X144.0Y-49.95
X144.0Y-58.65
X144.9Y-61.25
X145.125Y-85.325
X145.15Y-47.1
X145.15Y-51.75
X145.15Y-84.4
X145.683Y-94.417
X145.75Y-68.9
X146.45Y-65.3
X146.625Y-91.2
X146.65Y-83.15
X146.7Y-70.6
X146.7Y-75.1
X147.026Y-121.525
X147.083Y-105.017
X147.088Y-96.382
X147.091Y-129.575
X147.25Y-46.4
X147.25Y-54.05
X147.688Y-106.282
X147.725Y-86.25
X147.783Y-91.867
X147.8Y-82.05
X147.8Y-102.467
X147.85Y-67.95
X147.85Y-80.02
X147.958Y-118.992
X148.25Y-49.1
X148.25Y-63.45
X148.383Y-95.132
X148.728Y-103.745
X148.868Y-107.352
X148.868Y-109.912
X149.2Y-67.95
X149.2Y-81.25
X149.2Y-88.1
X149.26Y-93.692
X149.928Y-101.532
X150.1Y-71.45
X150.1Y-84.9
X150.938Y-107.912
X150.948Y-78.65
X151.548Y-115.162
X152.275Y-104.392
X152.358Y-110.092
X152.5Y-77.5
X152.5Y-80.05
X152.5Y-92.792
X152.55Y-69.85
X152.8Y-63.35
X153.5Y-64.6
X153.5Y-86.25
X153.608Y-107.542
X153.65Y-97.982
X154.15Y-49.05
X154.25Y-74.5
X154.258Y-110.692
X154.783Y-115.167
X154.858Y-106.267
X154.875Y-102.062
X154.888Y-96.992
X155.4Y-66.2
X155.658Y-112.017
X155.733Y-86.25
X156.3Y-70.6
X156.35Y-89.6
X156.35Y-98.712
X156.35Y-102.517
X156.65Y-51.7
X157.4Y-78.775
X157.85Y-64.4
X158.025Y-77.525
X158.75Y-52.25
X158.75Y-79.8
X158.75Y-86.292
X159.2Y-47.1
X159.258Y-90.542
X159.75Y-67.05
X159.75Y-80.65
X160.183Y-105.017
X160.25Y-97.582
X160.5Y-54.4
X160.65Y-76.5
X161.033Y-109.417
X161.183Y-95.812
X161.7Y-55.45
X162.05Y-77.4
X162.258Y-106.442
X163.133Y-101.742
X163.15Y-107.707
X163.75Y-83.6
X163.758Y-115.327
X163.783Y-116.592
X163.808Y-119.217
X163.85Y-61.25
X163.85Y-74.7
X164.85Y-59.85
X165.175Y-82.525
X165.175Y-88.592
X165.85Y-71.05
X165.85Y-78.75
X166.45Y-126.15
X166.55Y-53.1
X167.258Y-106.067
X167.268Y-95.172
X167.35Y-62.3
X167.35Y-78.65
X167.358Y-116.767
X167.358Y-123.442
X167.958Y-119.842
X167.958Y-127.767
X167.978Y-102.342
X168.25Y-54.4
X168.25Y-74.3
X168.25Y-76.2
X168.25Y-85.6
X168.508Y-91.142
X168.583Y-116.692
X168.583Y-124.767
X169.0Y-70.65
X169.0Y-77.5
X169.34Y-59.56
X169.438Y-102.252
X169.458Y-128.942
X169.75Y-64.4
X169.75Y-76.1
X169.833Y-116.667
X170.05Y-87.917
X170.1Y-115.0
X170.483Y-125.392
X170.6Y-58.55
X170.721Y-111.53
X170.8Y-63.4
X170.8Y-77.4
X171.108Y-116.592
X171.108Y-126.967
X171.45Y-93.475
X172.208Y-126.167
X172.333Y-102.222
X172.358Y-89.392
X172.383Y-116.617
X173.05Y-68.9
X173.1Y-82.5
X173.45Y-87.0
X173.5Y-84.65
X174.333Y-110.247
X174.45Y-53.1
X174.883Y-112.787
X174.883Y-122.042
X174.9Y-59.6
X174.908Y-116.692
X174.933Y-108.977
X175.558Y-97.981
X175.833Y-90.567
X176.025Y-80.925
X176.95Y-76.8
X177.0Y-47.15
X177.208Y-80.917
X177.408Y-88.542
X177.775Y-129.925
X177.95Y-77.384
X178.2Y-57.65
X178.3Y-59.05
X178.35Y-96.2
X178.45Y-116.601
X178.45Y-130.6
X179.025Y-92.092
X179.025Y-108.307
X179.183Y-80.1
X179.25Y-130.825
X179.5Y-52.25
X179.558Y-114.092
X179.625Y-88.65
X179.775Y-96.7
X179.783Y-107.692
X180.1Y-55.45
X180.1Y-76.517
X180.275Y-121.0
X180.5Y-78.7
X180.75Y-67.85
X180.858Y-128.942
X180.958Y-121.65
X181.4Y-92.85
X181.4Y-102.2
X182.05Y-86.35
X183.333Y-115.717
X183.4Y-46.2
X183.4Y-47.4
X184.55Y-95.567
X185.75Y-92.7
X185.75Y-99.1
X185.85Y-56.45
X185.9Y-57.8
X186.65Y-110.0
X187.0Y-95.375
X188.55Y-106.95
X189.8Y-57.75
X190.85Y-84.95
X190.85Y-114.1
T2
X87.45Y-87.65
X88.9Y-69.2
X88.9Y-71.74
X88.9Y-74.28
X89.95Y-87.65
X92.6Y-69.2
X92.6Y-71.74
X92.6Y-74.28
X94.0Y-126.945
X94.0Y-129.445
X188.5Y-99.15
X188.5Y-101.69
X188.5Y-104.23
T3
X91.677Y-115.377
X91.677Y-120.377
X94.45Y-99.225
X94.45Y-101.765
X96.677Y-115.377
X96.677Y-120.377
X188.85Y-90.16
X188.85Y-92.7
T4
X89.128Y-81.342
X89.168Y-77.692
X91.668Y-81.342
X91.708Y-77.692
X94.208Y-81.342
X94.248Y-77.692
T5
X88.06Y-39.12
X88.06Y-44.2
X90.6Y-39.12
X90.6Y-44.2
X93.14Y-39.12
X93.14Y-44.2
X95.68Y-39.12
X95.68Y-44.2
X98.22Y-39.12
X98.22Y-44.2
X100.76Y-39.12
X100.76Y-44.2
X103.3Y-39.12
X103.3Y-44.2
X105.84Y-39.12
X105.84Y-44.2
X108.38Y-39.12
X108.38Y-44.2
X110.92Y-39.12
X110.92Y-44.2
X113.46Y-39.12
X113.46Y-44.2
X116.0Y-39.12
X116.0Y-44.2
X118.54Y-39.12
X118.54Y-44.2
X121.08Y-39.12
X121.08Y-44.2
X123.62Y-39.12
X123.62Y-44.2
X126.16Y-39.12
X126.16Y-44.2
X128.7Y-39.12
X128.7Y-44.2
X131.24Y-39.12
X131.24Y-44.2
X133.78Y-39.12
X133.78Y-44.2
X136.32Y-39.12
X136.32Y-44.2
X138.86Y-39.12
X138.86Y-44.2
X141.4Y-39.12
X141.4Y-44.2
X143.94Y-39.12
X143.94Y-44.2
X146.48Y-39.12
X146.48Y-44.2
X149.02Y-39.12
X149.02Y-44.2
X151.56Y-39.12
X151.56Y-44.2
X154.1Y-39.12
X154.1Y-44.2
X156.64Y-39.12
X156.64Y-44.2
X159.18Y-39.12
X159.18Y-44.2
X161.72Y-39.12
X161.72Y-44.2
X164.26Y-39.12
X164.26Y-44.2
X166.8Y-39.12
X166.8Y-44.2
X169.34Y-39.12
X169.34Y-44.2
X171.88Y-39.12
X171.88Y-44.2
X174.42Y-39.12
X174.42Y-44.2
X176.96Y-39.12
X176.96Y-44.2
X179.5Y-39.12
X179.5Y-44.2
X182.04Y-39.12
X182.04Y-44.2
X184.58Y-39.12
X184.58Y-44.2
X187.12Y-39.12
X187.12Y-44.2
X189.66Y-39.12
X189.66Y-44.2
X192.2Y-39.12
X192.2Y-44.2
X194.74Y-39.12
X194.74Y-44.2
T6
X185.958Y-126.442
X188.458Y-126.442
X190.958Y-126.442
T7
X184.058Y-119.442
X192.858Y-119.442
M30
